<svg xmlns="http://www.w3.org/2000/svg" width="127" height="127" viewBox="0 0 127 127">
  <g id="Grupo_1074647" data-name="Grupo 1074647" transform="translate(-307 -7777)">
    <rect id="Rectángulo_383470" data-name="Rectángulo 383470" width="127" height="127" rx="11" transform="translate(307 7777)" fill="#1682fb"/>
    <g id="tablero-de-humor" transform="translate(322 7792)">
      <g id="Grupo_1074642" data-name="Grupo 1074642" transform="translate(1.412 1.412)">
        <path id="Trazado_827974" data-name="Trazado 827974" d="M101.041,69.861H7.5V10.922A3.422,3.422,0,0,1,10.922,7.5h86.7a3.422,3.422,0,0,1,3.422,3.422V69.861Z" transform="translate(-7.5 -7.5)" fill="#eaf6ff"/>
        <path id="Trazado_827975" data-name="Trazado 827975" d="M57,48.571V42.106a2.281,2.281,0,0,1,2.281-2.281h70.346a2.281,2.281,0,0,1,2.281,2.281v6.464a2.281,2.281,0,0,1-2.281,2.281H59.279A2.282,2.282,0,0,1,57,48.571Z" transform="translate(-47.682 -33.741)" fill="#60b7ff"/>
        <path id="Trazado_827976" data-name="Trazado 827976" d="M421.559,39.825h-4.943a2.281,2.281,0,0,1,2.281,2.281v6.464a2.281,2.281,0,0,1-2.281,2.281h4.943a2.281,2.281,0,0,0,2.281-2.281V42.106A2.281,2.281,0,0,0,421.559,39.825Z" transform="translate(-339.616 -33.741)" fill="#26a6fe"/>
        <path id="Trazado_827977" data-name="Trazado 827977" d="M465,7.5h-4.943a3.422,3.422,0,0,1,3.422,3.422V69.861h4.943V10.922A3.422,3.422,0,0,0,465,7.5Z" transform="translate(-374.878 -7.5)" fill="#d8ecfe"/>
        <path id="Trazado_827978" data-name="Trazado 827978" d="M97.619,344.918h-86.7A3.422,3.422,0,0,1,7.5,341.5v-2.662h93.541V341.5A3.422,3.422,0,0,1,97.619,344.918Z" transform="translate(-7.5 -276.473)" fill="#918291"/>
        <path id="Trazado_827979" data-name="Trazado 827979" d="M153.693,478.259h-57.8a1.521,1.521,0,0,1-1.521-1.521V473.7a1.521,1.521,0,0,1,1.521-1.521h57.8a1.521,1.521,0,0,1,1.521,1.521v3.042A1.521,1.521,0,0,1,153.693,478.259Z" transform="translate(-78.023 -384.718)" fill="#918291"/>
        <path id="Trazado_827980" data-name="Trazado 827980" d="M389.044,472.175h-4.753a1.521,1.521,0,0,1,1.521,1.521v3.042a1.521,1.521,0,0,1-1.521,1.521h4.753a1.521,1.521,0,0,0,1.521-1.521V473.7A1.521,1.521,0,0,0,389.044,472.175Z" transform="translate(-313.375 -384.718)" fill="#7a6d79"/>
        <path id="Trazado_827981" data-name="Trazado 827981" d="M193.009,390.171H154.984a13.757,13.757,0,0,0,7.6-12.305v-6.707H185.4v6.707a13.757,13.757,0,0,0,7.6,12.305Z" transform="translate(-127.226 -302.714)" fill="#685e68"/>
        <path id="Trazado_827982" data-name="Trazado 827982" d="M463.475,338.833v2.662a3.422,3.422,0,0,1-3.422,3.422H465a3.422,3.422,0,0,0,3.422-3.422v-2.662Z" transform="translate(-374.878 -276.473)" fill="#7a6d79"/>
        <g id="Grupo_1074636" data-name="Grupo 1074636" transform="translate(9.316 35.363)">
          <path id="Trazado_827983" data-name="Trazado 827983" d="M75.25,216.3H59.66A2.662,2.662,0,0,1,57,213.643v-15.59a2.662,2.662,0,0,1,2.662-2.662H75.25a2.662,2.662,0,0,1,2.662,2.662v15.59A2.661,2.661,0,0,1,75.25,216.3Z" transform="translate(-56.998 -195.391)" fill="#fd8087"/>
        </g>
        <g id="Grupo_1074637" data-name="Grupo 1074637" transform="translate(36.314 35.363)">
          <path id="Trazado_827984" data-name="Trazado 827984" d="M218.694,216.3H203.1a2.662,2.662,0,0,1-2.662-2.662v-15.59a2.662,2.662,0,0,1,2.662-2.662h15.59a2.662,2.662,0,0,1,2.662,2.662v15.59A2.662,2.662,0,0,1,218.694,216.3Z" transform="translate(-200.442 -195.391)" fill="#00f2a6"/>
        </g>
        <g id="Grupo_1074638" data-name="Grupo 1074638" transform="translate(63.311 35.363)">
          <path id="Trazado_827985" data-name="Trazado 827985" d="M362.137,216.3h-15.59a2.662,2.662,0,0,1-2.662-2.662v-15.59a2.662,2.662,0,0,1,2.662-2.662h15.59a2.662,2.662,0,0,1,2.662,2.662v15.59A2.662,2.662,0,0,1,362.137,216.3Z" transform="translate(-343.885 -195.391)" fill="#ffe177"/>
        </g>
        <path id="Trazado_827986" data-name="Trazado 827986" d="M419.539,195.39H414.6a2.662,2.662,0,0,1,2.662,2.662v15.59A2.662,2.662,0,0,1,414.6,216.3h4.943a2.662,2.662,0,0,0,2.662-2.662v-15.59A2.662,2.662,0,0,0,419.539,195.39Z" transform="translate(-337.976 -160.027)" fill="#ffd15b"/>
        <path id="Trazado_827987" data-name="Trazado 827987" d="M276.1,195.39h-4.943a2.662,2.662,0,0,1,2.662,2.662v15.59a2.662,2.662,0,0,1-2.662,2.662H276.1a2.662,2.662,0,0,0,2.662-2.662v-15.59A2.662,2.662,0,0,0,276.1,195.39Z" transform="translate(-221.531 -160.027)" fill="#0ed290"/>
        <path id="Trazado_827988" data-name="Trazado 827988" d="M132.653,195.39H127.71a2.662,2.662,0,0,1,2.662,2.662v15.59a2.662,2.662,0,0,1-2.662,2.662h4.943a2.662,2.662,0,0,0,2.662-2.662v-15.59A2.662,2.662,0,0,0,132.653,195.39Z" transform="translate(-105.085 -160.027)" fill="#fe646f"/>
        <g id="Grupo_1074639" data-name="Grupo 1074639" transform="translate(9.316 23.195)">
          <circle id="Elipse_9903" data-name="Elipse 9903" cx="3.042" cy="3.042" r="3.042" fill="#fd8087"/>
        </g>
        <g id="Grupo_1074640" data-name="Grupo 1074640" transform="translate(36.314 23.195)">
          <circle id="Elipse_9904" data-name="Elipse 9904" cx="3.042" cy="3.042" r="3.042" fill="#00f2a6"/>
        </g>
        <g id="Grupo_1074641" data-name="Grupo 1074641" transform="translate(63.311 23.195)">
          <circle id="Elipse_9905" data-name="Elipse 9905" cx="3.042" cy="3.042" r="3.042" fill="#ffe177"/>
        </g>
      </g>
      <g id="Grupo_1074646" data-name="Grupo 1074646" transform="translate(0 0)">
        <path id="Trazado_827989" data-name="Trazado 827989" d="M123.537,46.175H53.191A3.7,3.7,0,0,1,49.5,42.482V36.018a3.7,3.7,0,0,1,3.693-3.693h70.346a3.7,3.7,0,0,1,3.693,3.693v6.464A3.7,3.7,0,0,1,123.537,46.175ZM53.191,35.148a.871.871,0,0,0-.87.87v6.464a.871.871,0,0,0,.87.87h70.346a.871.871,0,0,0,.87-.87V36.018a.871.871,0,0,0-.87-.87Z" transform="translate(-40.182 -26.241)"/>
        <path id="Trazado_827990" data-name="Trazado 827990" d="M148.9,385.495a1.412,1.412,0,0,1-.632-2.674,12.278,12.278,0,0,0,6.825-11.042v-6.707a1.412,1.412,0,1,1,2.823,0v6.707a15.086,15.086,0,0,1-8.385,13.568A1.406,1.406,0,0,1,148.9,385.495Z" transform="translate(-119.725 -295.214)"/>
        <path id="Trazado_827991" data-name="Trazado 827991" d="M318.125,385.495a1.406,1.406,0,0,1-.63-.149,15.086,15.086,0,0,1-8.385-13.568v-6.707a1.412,1.412,0,1,1,2.823,0v6.707a12.279,12.279,0,0,0,6.825,11.043,1.412,1.412,0,0,1-.632,2.674Z" transform="translate(-250.932 -295.214)"/>
        <path id="Trazado_827992" data-name="Trazado 827992" d="M91.531,71.268H4.833A4.839,4.839,0,0,1,0,66.435V4.833A4.839,4.839,0,0,1,4.833,0h9.6a1.412,1.412,0,0,1,0,2.823h-9.6a2.012,2.012,0,0,0-2.01,2.01v61.6a2.012,2.012,0,0,0,2.01,2.01h86.7a2.012,2.012,0,0,0,2.01-2.01V4.833a2.012,2.012,0,0,0-2.01-2.01H21.023a1.412,1.412,0,1,1,0-2.823H91.531a4.839,4.839,0,0,1,4.833,4.833v61.6A4.839,4.839,0,0,1,91.531,71.268Z" transform="translate(0 0)"/>
        <path id="Línea_339" data-name="Línea 339" d="M87.452-4.677H-6.088A1.412,1.412,0,0,1-7.5-6.088,1.412,1.412,0,0,1-6.088-7.5H87.452a1.412,1.412,0,0,1,1.412,1.412A1.412,1.412,0,0,1,87.452-4.677Z" transform="translate(7.5 69.861)"/>
        <path id="Trazado_827993" data-name="Trazado 827993" d="M147.6,473.578H105.456a1.412,1.412,0,0,1,0-2.823H147.6l.111-3.151L89.8,467.493l-.111,3.153,9.175.109a1.412,1.412,0,0,1,0,2.823H89.8a2.937,2.937,0,0,1-2.934-2.932V467.6A2.938,2.938,0,0,1,89.8,464.67h57.8a2.938,2.938,0,0,1,2.934,2.934v3.042A2.937,2.937,0,0,1,147.6,473.578Z" transform="translate(-70.52 -377.214)"/>
        <g id="Grupo_1074643" data-name="Grupo 1074643" transform="translate(9.316 35.363)">
          <path id="Trazado_827994" data-name="Trazado 827994" d="M69.162,211.628H53.571a4.078,4.078,0,0,1-4.073-4.073v-15.59a4.078,4.078,0,0,1,4.073-4.073h15.59a4.078,4.078,0,0,1,4.073,4.073v15.59a4.073,4.073,0,0,1-4.073,4.073Zm-15.59-20.913a1.252,1.252,0,0,0-1.25,1.25v15.59a1.252,1.252,0,0,0,1.25,1.25h15.59a1.25,1.25,0,0,0,1.25-1.25v-15.59a1.252,1.252,0,0,0-1.25-1.25Z" transform="translate(-49.498 -187.891)"/>
        </g>
        <g id="Grupo_1074644" data-name="Grupo 1074644" transform="translate(36.314 35.363)">
          <path id="Trazado_827995" data-name="Trazado 827995" d="M212.605,211.628h-15.59a4.078,4.078,0,0,1-4.073-4.073v-15.59a4.078,4.078,0,0,1,4.073-4.073h15.59a4.078,4.078,0,0,1,4.073,4.073v15.59A4.078,4.078,0,0,1,212.605,211.628Zm-15.59-20.913a1.252,1.252,0,0,0-1.25,1.25v15.59a1.252,1.252,0,0,0,1.25,1.25h15.59a1.252,1.252,0,0,0,1.25-1.25v-15.59a1.252,1.252,0,0,0-1.25-1.25Z" transform="translate(-192.942 -187.891)"/>
        </g>
        <g id="Grupo_1074645" data-name="Grupo 1074645" transform="translate(63.31 35.363)">
          <path id="Trazado_827996" data-name="Trazado 827996" d="M356.044,211.627h-4.5a1.412,1.412,0,0,1,0-2.823h4.5a1.251,1.251,0,0,0,1.25-1.25V191.963a1.251,1.251,0,0,0-1.25-1.25H340.455a1.252,1.252,0,0,0-1.252,1.25v15.591a1.252,1.252,0,0,0,1.252,1.25h4.5a1.412,1.412,0,0,1,0,2.823h-4.5a4.078,4.078,0,0,1-4.075-4.073V191.963a4.078,4.078,0,0,1,4.075-4.073h15.589a4.077,4.077,0,0,1,4.073,4.073v15.591A4.077,4.077,0,0,1,356.044,211.627Z" transform="translate(-336.38 -187.89)"/>
        </g>
        <path id="Elipse_9906" data-name="Elipse 9906" d="M-3.046-7.5A4.459,4.459,0,0,1,1.407-3.046,4.459,4.459,0,0,1-3.046,1.407,4.459,4.459,0,0,1-7.5-3.046,4.459,4.459,0,0,1-3.046-7.5Zm0,6.084a1.632,1.632,0,0,0,1.63-1.63,1.632,1.632,0,0,0-1.63-1.63,1.632,1.632,0,0,0-1.63,1.63A1.632,1.632,0,0,0-3.046-1.416Z" transform="translate(16.816 30.695)"/>
        <path id="Línea_340" data-name="Línea 340" d="M-1.716-4.677H-6.088A1.412,1.412,0,0,1-7.5-6.088,1.412,1.412,0,0,1-6.088-7.5h4.373A1.412,1.412,0,0,1-.3-6.088,1.412,1.412,0,0,1-1.716-4.677Z" transform="translate(28.984 36.779)"/>
        <path id="Línea_341" data-name="Línea 341" d="M2.657-4.677H-6.088A1.412,1.412,0,0,1-7.5-6.088,1.412,1.412,0,0,1-6.088-7.5H2.657A1.412,1.412,0,0,1,4.069-6.088,1.412,1.412,0,0,1,2.657-4.677Z" transform="translate(28.984 30.695)"/>
        <path id="Elipse_9907" data-name="Elipse 9907" d="M-3.046-7.5A4.459,4.459,0,0,1,1.407-3.046,4.459,4.459,0,0,1-3.046,1.407,4.459,4.459,0,0,1-7.5-3.046,4.459,4.459,0,0,1-3.046-7.5Zm0,6.084a1.632,1.632,0,0,0,1.63-1.63,1.632,1.632,0,0,0-1.63-1.63,1.632,1.632,0,0,0-1.63,1.63A1.632,1.632,0,0,0-3.046-1.416Z" transform="translate(43.814 30.695)"/>
        <path id="Línea_342" data-name="Línea 342" d="M-1.716-4.677H-6.088A1.412,1.412,0,0,1-7.5-6.088,1.412,1.412,0,0,1-6.088-7.5h4.373A1.412,1.412,0,0,1-.3-6.088,1.412,1.412,0,0,1-1.716-4.677Z" transform="translate(55.981 36.779)"/>
        <path id="Línea_343" data-name="Línea 343" d="M2.657-4.677H-6.088A1.412,1.412,0,0,1-7.5-6.088,1.412,1.412,0,0,1-6.088-7.5H2.657A1.412,1.412,0,0,1,4.069-6.088,1.412,1.412,0,0,1,2.657-4.677Z" transform="translate(55.981 30.695)"/>
        <path id="Elipse_9908" data-name="Elipse 9908" d="M-3.046-7.5A4.459,4.459,0,0,1,1.407-3.046,4.459,4.459,0,0,1-3.046,1.407,4.459,4.459,0,0,1-7.5-3.046,4.459,4.459,0,0,1-3.046-7.5Zm0,6.084a1.632,1.632,0,0,0,1.63-1.63,1.632,1.632,0,0,0-1.63-1.63,1.632,1.632,0,0,0-1.63,1.63A1.632,1.632,0,0,0-3.046-1.416Z" transform="translate(70.811 30.695)"/>
        <path id="Línea_344" data-name="Línea 344" d="M-1.716-4.677H-6.088A1.412,1.412,0,0,1-7.5-6.088,1.412,1.412,0,0,1-6.088-7.5h4.373A1.412,1.412,0,0,1-.3-6.088,1.412,1.412,0,0,1-1.716-4.677Z" transform="translate(82.979 36.779)"/>
        <path id="Línea_345" data-name="Línea 345" d="M2.657-4.677H-6.088A1.412,1.412,0,0,1-7.5-6.088,1.412,1.412,0,0,1-6.088-7.5H2.657A1.412,1.412,0,0,1,4.069-6.088,1.412,1.412,0,0,1,2.657-4.677Z" transform="translate(82.979 30.695)"/>
      </g>
    </g>
  </g>
</svg>
