<svg xmlns="http://www.w3.org/2000/svg" width="295" height="155" viewBox="0 0 295 155">
  <g id="Grupo_1074658" data-name="Grupo 1074658" transform="translate(-180 -812)">
    <rect id="Rectángulo_383691" data-name="Rectángulo 383691" width="295" height="97" rx="10" transform="translate(180 870)" fill="#273a89"/>
    <g id="banda-ancha" transform="translate(241.33 800.196)">
      <g id="Grupo_1074655" data-name="Grupo 1074655" transform="translate(4.337 13.468)">
        <g id="Grupo_1074652" data-name="Grupo 1074652" transform="translate(0 34.022)">
          <g id="Grupo_1074649" data-name="Grupo 1074649">
            <path id="Trazado_827989" data-name="Trazado 827989" d="M169.019,211.74v3.635a15.388,15.388,0,0,1-15.387,15.387H20.557A15.388,15.388,0,0,1,5.17,215.375V211.74a2.869,2.869,0,0,1,2.868-2.875H166.151A2.869,2.869,0,0,1,169.019,211.74Z" transform="translate(-5.17 -113.117)" fill="#72c2e9"/>
            <path id="Trazado_827990" data-name="Trazado 827990" d="M136.008,208.865v4a5.334,5.334,0,0,1-5.336,5.336H109.356a5.334,5.334,0,0,1-5.336-5.336v-4Z" transform="translate(-38.09 -113.117)" fill="#4ba5c8"/>
            <path id="Trazado_827991" data-name="Trazado 827991" d="M164.671,72.206v88.847H18.19V72.206a6.9,6.9,0,0,1,6.9-6.9H55.667l8.684,11.979,5.322,7.337L75,77.288,83.68,65.309h21.877V84.625h15.267V65.309h36.95a6.9,6.9,0,0,1,6.9,6.9Z" transform="translate(-9.506 -65.309)" fill="#72c2e9"/>
            <g id="Grupo_1074648" data-name="Grupo 1074648" transform="translate(40.392)">
              <path id="Trazado_827992" data-name="Trazado 827992" d="M71.5,65.309l8.684,11.979H74.414L65.73,65.309Z" transform="translate(-65.73 -65.309)" fill="#4ba5c8"/>
              <path id="Trazado_827993" data-name="Trazado 827993" d="M117.807,65.309l-8.684,11.979H103.36l8.684-11.979Z" transform="translate(-78.262 -65.309)" fill="#4ba5c8"/>
              <path id="Trazado_827994" data-name="Trazado 827994" d="M142.18,65.309h4.669V77.288H142.18Z" transform="translate(-91.19 -65.309)" fill="#4ba5c8"/>
              <path id="Trazado_827995" data-name="Trazado 827995" d="M172.07,65.309h4.669V77.288H172.07Z" transform="translate(-101.144 -65.309)" fill="#4ba5c8"/>
            </g>
            <path id="Trazado_827996" data-name="Trazado 827996" d="M159.494,83.269v73.44H33.69V83.269H69.513l5.322,7.337,5.322-7.337h30.561v7.337h15.267V83.269Z" transform="translate(-14.668 -71.29)" fill="#efefef"/>
            <path id="Trazado_827997" data-name="Trazado 827997" d="M100.934,83.269l-7.31,10.078a4.672,4.672,0,0,1-7.563,0L78.75,83.269h5.769l5.322,7.337,5.322-7.337Z" transform="translate(-29.674 -71.29)" fill="#afafaf"/>
            <path id="Trazado_827998" data-name="Trazado 827998" d="M166.785,83.269v7.337a4.665,4.665,0,0,1-4.669,4.669H146.849a4.665,4.665,0,0,1-4.669-4.669V83.269h4.669v7.337h15.267V83.269Z" transform="translate(-50.798 -71.29)" fill="#afafaf"/>
          </g>
          <g id="Grupo_1074651" data-name="Grupo 1074651" transform="translate(33.687 29.46)">
            <path id="Trazado_827999" data-name="Trazado 827999" d="M144.287,155.248a34.96,34.96,0,0,1,.34,16.834H76.516a34.915,34.915,0,0,1,58.74-32.422l.007-.007a34.789,34.789,0,0,1,6.983,9.991v.007Z" transform="translate(-62.328 -116.123)" fill="#efefef"/>
            <path id="Trazado_828000" data-name="Trazado 828000" d="M179.136,130.649v.007l-.007-.007Z" transform="translate(-96.79 -116.529)" fill="#fc5d3d"/>
            <path id="Trazado_828001" data-name="Trazado 828001" d="M187.946,172.492H174.393a34.96,34.96,0,0,0-.34-16.834l5.289-1.928a2.978,2.978,0,0,0-2.041-5.6l-5.289,1.928v-.007a34.788,34.788,0,0,0-6.983-9.991l9.411-9.4A48.153,48.153,0,0,1,187.946,172.492Z" transform="translate(-92.094 -116.533)" fill="#fc5d3d"/>
            <path id="Trazado_828002" data-name="Trazado 828002" d="M76.886,130.649l-.007.007v-.007Z" transform="translate(-62.738 -116.529)" fill="#13bf6d"/>
            <path id="Trazado_828003" data-name="Trazado 828003" d="M69.865,172.492H56.312a48.105,48.105,0,0,1,13.506-41.833l9.411,9.411A34.9,34.9,0,0,0,69.865,172.492Z" transform="translate(-55.677 -116.533)" fill="#13bf6d"/>
            <path id="Trazado_828004" data-name="Trazado 828004" d="M145.084,123.605l-9.411,9.4-.007.007a34.9,34.9,0,0,0-49.376,0l-9.411-9.411.007-.007a48.226,48.226,0,0,1,68.191,0Z" transform="translate(-62.738 -109.479)" fill="#f0c020"/>
            <path id="Trazado_828005" data-name="Trazado 828005" d="M131.956,185.29H113.294a10.792,10.792,0,0,1,9.324-16.2,10.542,10.542,0,0,1,7.143,2.695,11.017,11.017,0,0,1,3.228,5.169A10.567,10.567,0,0,1,131.956,185.29Z" transform="translate(-74.375 -129.331)" fill="#7d7b79"/>
            <path id="Trazado_828006" data-name="Trazado 828006" d="M170.58,162.365l-5.289,1.928-23.344,8.5a11.017,11.017,0,0,0-3.228-5.169L163.25,158.7l5.289-1.928a2.978,2.978,0,0,1,2.041,5.6Z" transform="translate(-83.332 -125.168)" fill="#72c2e9"/>
            <g id="Grupo_1074650" data-name="Grupo 1074650" transform="translate(4.361 16.691)">
              <path id="Trazado_828007" data-name="Trazado 828007" d="M62.274,168.568q-.04-.693-.057-1.384a1.667,1.667,0,0,1,3.334-.088q.017.639.054,1.281a1.668,1.668,0,0,1-3.33.191Zm1.738-6.43a1.667,1.667,0,0,1-1.436-1.87,44.082,44.082,0,0,1,12.472-25.276,1.668,1.668,0,0,1,2.359,2.358A40.725,40.725,0,0,0,65.882,160.7a1.667,1.667,0,0,1-1.87,1.435Z" transform="translate(-62.216 -134.503)" fill="#76ffbb"/>
            </g>
          </g>
        </g>
        <g id="Grupo_1074654" data-name="Grupo 1074654" transform="translate(41.659)">
          <path id="Trazado_828008" data-name="Trazado 828008" d="M104.64,42.118l-4.5,6.2L91.461,60.3l-5.322,7.337L80.816,60.3,72.132,48.321l-4.5-6.2H78.5V14.3H93.769V42.118Z" transform="translate(-67.63 -14.299)" fill="#13bf6d"/>
          <g id="Grupo_1074653" data-name="Grupo 1074653" transform="translate(43.52)">
            <path id="Trazado_828009" data-name="Trazado 828009" d="M169.89,39.817H159.019V67.637H143.752V39.817H132.88l18.5-25.518Z" transform="translate(-132.88 -14.299)" fill="#fc5d3d"/>
          </g>
        </g>
      </g>
      <g id="Grupo_1074656" data-name="Grupo 1074656" transform="translate(114.464 93.641)">
        <path id="Trazado_828010" data-name="Trazado 828010" d="M182.586,168.3a40.308,40.308,0,0,0-11.814-30.953,1.667,1.667,0,0,1,2.358-2.358,43.628,43.628,0,0,1,12.786,33.5A1.667,1.667,0,0,1,182.586,168.3Z" transform="translate(-170.283 -134.503)" fill="#ffcbc3"/>
      </g>
      <g id="Grupo_1074657" data-name="Grupo 1074657" transform="translate(54.707 81.255)">
        <path id="Trazado_828011" data-name="Trazado 828011" d="M140.937,131.165a40.54,40.54,0,0,0-57.377,0,1.667,1.667,0,0,1-2.358-2.357,43.874,43.874,0,0,1,62.1,0,1.668,1.668,0,1,1-2.36,2.357Z" transform="translate(-80.69 -115.933)" fill="#f8e5b0"/>
      </g>
      <circle id="Elipse_9906" data-name="Elipse 9906" cx="1.667" cy="1.667" r="1.667" transform="translate(157.835 78.303)"/>
      <circle id="Elipse_9907" data-name="Elipse 9907" cx="1.667" cy="1.667" r="1.667" transform="translate(48.885 163.469)"/>
      <path id="Trazado_828012" data-name="Trazado 828012" d="M19.725,166.8H43.882a1.667,1.667,0,0,0,0-3.335H19.725A13.772,13.772,0,0,1,6,149.749v-3.635a1.206,1.206,0,0,1,1.2-1.207H68.6v2.328a7.011,7.011,0,0,0,7,7H96.919a7.011,7.011,0,0,0,7-7v-2.328h61.4a1.206,1.206,0,0,1,1.2,1.207v3.635a13.772,13.772,0,0,1-13.72,13.72H57.222a1.667,1.667,0,0,0,0,3.335H152.8a17.047,17.047,0,0,0,17.055-17.055v-3.635a4.551,4.551,0,0,0-4.535-4.542h-4.149V86.64a1.667,1.667,0,0,0-3.335,0v54.932H14.688V54.389a5.235,5.235,0,0,1,5.229-5.229H49.648l6.27,8.644H23.36a1.667,1.667,0,0,0-1.667,1.667v73.44a1.667,1.667,0,0,0,1.667,1.667h125.8a1.667,1.667,0,0,0,1.667-1.667V59.472a1.667,1.667,0,0,0-1.667-1.667H117.323V49.156H152.6a5.256,5.256,0,0,1,5.229,5.236V73.3a1.667,1.667,0,0,0,3.335,0V54.392a8.574,8.574,0,0,0-8.564-8.564H117.323V40.657h9.2a1.669,1.669,0,0,0,1.349-2.647L109.368,12.492a1.669,1.669,0,0,0-2.7,0L88.166,38.01a1.669,1.669,0,0,0,1.35,2.646h9.2v5.169H81.779l2.581-3.559a1.666,1.666,0,0,0-1.354-2.641H73.8V13.473a1.667,1.667,0,0,0-3.335,0V41.292a1.675,1.675,0,0,0,1.667,1.667h7.6L64.5,63.969,49.264,42.96h7.6a1.67,1.67,0,0,0,1.667-1.667V33.175a1.667,1.667,0,0,0-3.335,0v6.45H46a1.661,1.661,0,0,0-1.347,2.641l2.581,3.559H19.918a8.574,8.574,0,0,0-8.564,8.564v87.183H7.205a4.55,4.55,0,0,0-4.535,4.542v3.635A17.046,17.046,0,0,0,19.725,166.8Zm112.71-35.562H122.352a36.687,36.687,0,0,0-.4-14.112l3.89-1.416c5.758-2.1,2.6-10.822-3.183-8.729l-3.878,1.411a36.282,36.282,0,0,0-5.491-7.888l7.057-7.052a46.754,46.754,0,0,1,12.086,37.786ZM62.756,101.667a33.26,33.26,0,0,1,52.862,7.881l-21.886,7.964a12.442,12.442,0,0,0-18.253,3.782,12.3,12.3,0,0,0-1.09,9.948h-20.8a33.041,33.041,0,0,1,9.171-29.576Zm56.2,29.576H98.156a12.144,12.144,0,0,0,.416-5.6l20.224-7.363a33.332,33.332,0,0,1,.155,12.961ZM78.37,122.955A9.122,9.122,0,0,1,94.6,131.242H77.955A9,9,0,0,1,78.37,122.955Zm19.263-.519v0a14.068,14.068,0,0,0-1.33-2.307l27.5-10.007a1.311,1.311,0,0,1,.9,2.461h0Zm13.294-24.28a36.55,36.55,0,0,0-49.325,0L54.544,91.1a46.533,46.533,0,0,1,63.446,0Zm-58.74-4.7,7.059,7.059a36.337,36.337,0,0,0-9.063,30.727H40.1A46.552,46.552,0,0,1,52.187,93.456Zm46.534-44.3V57.8H73.092l6.27-8.644ZM65.852,67.785l4.82-6.646H98.721v5.669a1.667,1.667,0,0,0,3.335,0V38.989a1.667,1.667,0,0,0-1.667-1.667h-7.6l15.234-21.011,15.24,21.011h-7.6a1.667,1.667,0,0,0-1.667,1.667V66.809a1.667,1.667,0,0,0,3.335,0V61.139H147.5v70.106H135.79c5.712-46.96-51.355-74.8-84.8-41.347a49.91,49.91,0,0,0-14.248,41.347H25.027V61.139H58.338l4.82,6.646a1.656,1.656,0,0,0,2.695,0Zm34.735,77.122v2.328a3.688,3.688,0,0,1-3.668,3.668H75.6a3.683,3.683,0,0,1-3.668-3.668v-2.328Z" transform="translate(0)"/>
      <circle id="Elipse_9908" data-name="Elipse 9908" cx="1.667" cy="1.667" r="1.667" transform="translate(55.201 24.839)"/>
      <path id="Trazado_828013" data-name="Trazado 828013" d="M84.765,13.482a1.667,1.667,0,0,0-3.335,0v6.363a1.667,1.667,0,0,0,3.335,0Z" transform="translate(-26.229 -0.008)"/>
    </g>
  </g>
</svg>
