<svg xmlns="http://www.w3.org/2000/svg" xmlns:xlink="http://www.w3.org/1999/xlink" width="295" height="555.549" viewBox="0 0 295 555.549">
  <defs>
    <clipPath id="clip-path">
      <rect id="Rectángulo_383626" data-name="Rectángulo 383626" width="79.588" height="85.671" fill="none"/>
    </clipPath>
    <clipPath id="clip-path-2">
      <rect id="Rectángulo_383652" data-name="Rectángulo 383652" width="295" height="398.3" rx="12" transform="translate(1125 1754.671)" fill="#1682fb"/>
    </clipPath>
    <clipPath id="clip-path-3">
      <rect id="Rectángulo_383616" data-name="Rectángulo 383616" width="201" height="555.497" fill="none"/>
    </clipPath>
    <clipPath id="clip-path-5">
      <rect id="Rectángulo_383612" data-name="Rectángulo 383612" width="71.679" height="11.489" fill="none"/>
    </clipPath>
    <clipPath id="clip-path-6">
      <rect id="Rectángulo_383613" data-name="Rectángulo 383613" width="37.859" height="43.193" fill="none"/>
    </clipPath>
    <clipPath id="clip-path-7">
      <rect id="Rectángulo_383614" data-name="Rectángulo 383614" width="11.153" height="43.031" fill="none"/>
    </clipPath>
    <clipPath id="clip-path-9">
      <rect id="Rectángulo_383677" data-name="Rectángulo 383677" width="257.93" height="351.015" fill="none"/>
    </clipPath>
  </defs>
  <g id="Grupo_1074618" data-name="Grupo 1074618" transform="translate(-1125 -1597.422)">
    <rect id="Rectángulo_383445" data-name="Rectángulo 383445" width="295" height="398.3" rx="12" transform="translate(1125 1754.671)" fill="#1682fb"/>
    <g id="Grupo_1074610" data-name="Grupo 1074610" transform="translate(1139.413 1648)">
      <g id="Grupo_1074609" data-name="Grupo 1074609" transform="translate(0 0)" clip-path="url(#clip-path)">
        <path id="Trazado_827795" data-name="Trazado 827795" d="M55.4,30.528A20.449,20.449,0,0,0,34.781,12.979,20.45,20.45,0,0,0,14.162,30.528c-1.043,7.548.92,11.9,4.663,18.041,4.1,6.713,5.646,15.954,5.646,15.954H45.089s1.55-9.241,5.646-15.954c3.743-6.136,5.706-10.493,4.663-18.041" transform="translate(5.014 4.687)" fill="#f1a23a"/>
        <path id="Trazado_827796" data-name="Trazado 827796" d="M32.117,50.7a88.63,88.63,0,0,1-10.862-.542l2.059,14.19c.063.427,4,.77,8.8.77s8.74-.343,8.8-.77l2.059-14.19a88.63,88.63,0,0,1-10.862.542" transform="translate(7.676 18.115)" fill="#1c1318"/>
        <path id="Trazado_827797" data-name="Trazado 827797" d="M36.338,61.061c0,2.212-2.513,4-5.613,4s-5.613-1.793-5.613-4,2.514-4,5.613-4,5.613,1.793,5.613,4" transform="translate(9.069 20.606)" fill="#1c1318"/>
        <path id="Trazado_827798" data-name="Trazado 827798" d="M36.557,42.266l.962-6.6h-.01c.044-.256.084-.517.124-.787.715-4.9.391-9.721-.878-9.721-.785,0-1.631,1.966-2.219,4.7-.21-2.739-.783-4.7-1.568-4.7s-1.5,1.966-1.895,4.7c-.4-2.739-1.108-4.7-1.895-4.7s-1.358,1.966-1.568,4.7c-.588-2.739-1.433-4.7-2.22-4.7-1.267,0-1.59,4.825-.877,9.721.039.27.08.531.124.787l.953,6.6" transform="translate(8.719 9.087)" fill="none" stroke="#fff" stroke-linecap="round" stroke-linejoin="round" stroke-width="1"/>
        <rect id="Rectángulo_383617" data-name="Rectángulo 383617" width="1.169" height="11.653" transform="translate(25.459 2.63) rotate(-19.999)" fill="#1c1318"/>
        <rect id="Rectángulo_383618" data-name="Rectángulo 383618" width="1.169" height="11.653" transform="translate(13.438 9.806) rotate(-40.001)" fill="#1c1318"/>
        <rect id="Rectángulo_383619" data-name="Rectángulo 383619" width="1.169" height="11.653" transform="translate(4.597 20.658) rotate(-59.997)" fill="#1c1318"/>
        <rect id="Rectángulo_383620" data-name="Rectángulo 383620" width="1.17" height="11.653" transform="matrix(0.174, -0.985, 0.985, 0.174, 0, 33.882)" fill="#1c1318"/>
        <rect id="Rectángulo_383621" data-name="Rectángulo 383621" width="1.169" height="11.653" transform="translate(39.209 0)" fill="#1c1318"/>
        <rect id="Rectángulo_383622" data-name="Rectángulo 383622" width="11.653" height="1.17" transform="translate(49.042 13.18) rotate(-69.983)" fill="#1c1318"/>
        <rect id="Rectángulo_383623" data-name="Rectángulo 383623" width="11.653" height="1.169" transform="matrix(0.643, -0.766, 0.766, 0.643, 57.764, 17.981)" fill="#1c1318"/>
        <rect id="Rectángulo_383624" data-name="Rectángulo 383624" width="11.653" height="1.169" transform="translate(64.316 25.475) rotate(-30.026)" fill="#1c1318"/>
        <rect id="Rectángulo_383625" data-name="Rectángulo 383625" width="11.653" height="1.17" transform="translate(67.909 34.752) rotate(-9.989)" fill="#1c1318"/>
      </g>
    </g>
    <g id="Enmascarar_grupo_189" data-name="Enmascarar grupo 189" clip-path="url(#clip-path-2)">
      <g id="Grupo_1074614" data-name="Grupo 1074614">
        <path id="Trazado_827887" data-name="Trazado 827887" d="M46.2-106.55,43.031-85.588H57.507L55.134-69.372H40.579L34.093-25.787q-.791,5.221.949,7.238a6.521,6.521,0,0,0,5.221,2.017,24.008,24.008,0,0,0,3.2-.2,24.99,24.99,0,0,0,3.2-.672L46.037-.712a51.5,51.5,0,0,1-7,1.78,41.675,41.675,0,0,1-7.238.593q-11.549,0-17.2-6.645t-3.52-20.725l6.486-43.664H5.142L7.515-85.588h12.5l3.164-20.962ZM95.792,1.661q-18.352,0-27.765-11.9t-6.565-30.1l.475-3.164q2.927-19.934,15.069-31.838T107.578-87.17q16.611,0,24.561,10.679t5.26,28.318l-1.74,11.944H84.56l-.158.4q-.949,9.1,3.006,14.436t13.447,5.339a50.739,50.739,0,0,0,13.368-1.622,61.038,61.038,0,0,0,12.023-4.786l4.113,14.238a52.474,52.474,0,0,1-15.029,7.04A65.563,65.563,0,0,1,95.792,1.661Zm9.176-71.033a14.777,14.777,0,0,0-11.193,4.825,28.666,28.666,0,0,0-6.6,12.577l.158.475h28l.237-1.74q1.187-7.752-1.226-11.944T104.968-69.372ZM193.641-23.73a6.734,6.734,0,0,0-2.729-6.565q-3.283-2.61-13.012-4.746-14.555-3.006-21.516-9.1t-5.537-16.532q1.582-11.391,11.9-18.945t25.985-7.554q15.583,0,24.561,7.831t7,19.222l-.158.475H197.833q.712-5.3-2.136-8.464t-9.176-3.164a14.844,14.844,0,0,0-9.057,2.769,9.994,9.994,0,0,0-4.311,6.8,6.615,6.615,0,0,0,2.413,6.486q2.966,2.373,13.091,4.43,15.267,3.164,22.109,9.294T216.185-24.6q-1.74,12.023-12.538,19.143T176.476,1.661q-16.453,0-25.471-8.78t-7.04-19.617l.237-.475h21.12q-.712,6.882,3.125,9.967t10.718,3.085a17.5,17.5,0,0,0,9.967-2.61A9.832,9.832,0,0,0,193.641-23.73Zm77.2-82.819L267.68-85.588h14.476l-2.373,16.216H265.228l-6.486,43.585q-.791,5.221.949,7.238a6.521,6.521,0,0,0,5.221,2.017,24.008,24.008,0,0,0,3.2-.2,24.99,24.99,0,0,0,3.2-.672l-.633,16.69a51.5,51.5,0,0,1-7,1.78,41.675,41.675,0,0,1-7.238.593q-11.549,0-17.2-6.645t-3.52-20.725l6.486-43.664H229.79l2.373-16.216h12.5l3.164-20.962ZM307.863,0h-23.1L297.58-85.588h23.1Zm15.9-106.075h-23.1l2.61-17.323h23.1ZM360.07-73.8a36.68,36.68,0,0,1,11.944-9.888,31.5,31.5,0,0,1,14.555-3.48q12.5,0,18.747,8.464t3.56,26.262L401.045,0H377.868L385.7-52.365q1.424-9.492-1.147-13.17t-9.136-3.678a21.322,21.322,0,0,0-9.294,2.017A22.257,22.257,0,0,0,358.8-61.62L349.55,0h-23.1l12.814-85.588h21.516Zm61.146,31.72q3.085-21.041,13.605-33.064A33.8,33.8,0,0,1,461.4-87.17a20.673,20.673,0,0,1,11.944,3.4,24.589,24.589,0,0,1,8.068,9.571l3.56-11.391h19.854L492.091-.4Q489.4,16.928,477.3,25.748t-31.878,8.82a54.119,54.119,0,0,1-13.368-1.819,58.287,58.287,0,0,1-12.814-4.825l6.486-17.244a45.655,45.655,0,0,0,10.362,3.836A51.705,51.705,0,0,0,448.11,15.82q9.1,0,14.357-3.995t6.526-12.3L470.1-8.227a31.927,31.927,0,0,1-10.046,7.4,28.8,28.8,0,0,1-12.1,2.492q-15.108,0-22.465-11.707t-4.509-30.375Zm22.86,1.661q-1.819,11.628.989,17.877t11.43,6.249a20,20,0,0,0,9.136-2.017,20.182,20.182,0,0,0,6.921-5.814l5.537-36.782a12.879,12.879,0,0,0-5.023-6.17,15.587,15.587,0,0,0-8.5-2.136q-8.068,0-13.289,7.633t-6.961,19.5Z" transform="translate(937.5 2135.5)" fill="none" stroke="#fff" stroke-width="1"/>
        <path id="Trazado_827888" data-name="Trazado 827888" d="M48.477-111.812l-3.32,22h15.19L57.856-72.8H42.583L35.776-27.061q-.83,5.479,1,7.6a6.843,6.843,0,0,0,5.479,2.117,25.194,25.194,0,0,0,3.362-.208,26.224,26.224,0,0,0,3.362-.706L48.311-.747a54.044,54.044,0,0,1-7.346,1.868,43.733,43.733,0,0,1-7.6.623q-12.119,0-18.054-6.973T11.621-26.978L18.428-72.8H5.4l2.49-17.017H21l3.32-22ZM100.522,1.743q-19.258,0-29.136-12.493T64.5-42.334l.5-3.32q3.071-20.918,15.813-33.411t32.083-12.41q17.432,0,25.774,11.206t5.52,29.717l-1.826,12.534H88.735l-.166.415q-1,9.546,3.154,15.149t14.111,5.6a53.244,53.244,0,0,0,14.028-1.7,64.053,64.053,0,0,0,12.617-5.022L136.8-8.633a55.065,55.065,0,0,1-15.771,7.388A68.8,68.8,0,0,1,100.522,1.743ZM110.151-72.8a15.507,15.507,0,0,0-11.746,5.063,30.082,30.082,0,0,0-6.931,13.2l.166.5h29.385l.249-1.826Q122.52-64,119.988-68.4T110.151-72.8ZM203.2-24.9a7.066,7.066,0,0,0-2.864-6.89q-3.445-2.739-13.655-4.98-15.273-3.154-22.578-9.546T158.3-63.667q1.66-11.953,12.493-19.88t27.268-7.927q16.353,0,25.774,8.218t7.346,20.171l-.166.5H207.6q.747-5.562-2.241-8.882t-9.629-3.32a15.577,15.577,0,0,0-9.5,2.905,10.488,10.488,0,0,0-4.524,7.139,6.941,6.941,0,0,0,2.532,6.807q3.113,2.49,13.738,4.648,16.021,3.32,23.2,9.753t5.686,17.722Q225.034-13.2,213.7-5.728T185.19,1.743q-17.266,0-26.729-9.214t-7.388-20.586l.249-.5h22.163q-.747,7.222,3.279,10.459t11.248,3.237A18.362,18.362,0,0,0,198.472-17.6,10.317,10.317,0,0,0,203.2-24.9Zm81.016-86.909-3.32,22h15.19L293.6-72.8H278.325l-6.807,45.737q-.83,5.479,1,7.6a6.842,6.842,0,0,0,5.479,2.117,25.194,25.194,0,0,0,3.362-.208,26.223,26.223,0,0,0,3.362-.706L284.053-.747a54.043,54.043,0,0,1-7.346,1.868,43.733,43.733,0,0,1-7.6.623q-12.119,0-18.054-6.973t-3.694-21.748L254.17-72.8H241.138l2.49-17.017h13.115l3.32-22ZM323.066,0H298.828l13.447-89.814h24.238Zm16.685-111.313H315.513l2.739-18.179H342.49Zm38.1,33.867a38.491,38.491,0,0,1,12.534-10.376,33.061,33.061,0,0,1,15.273-3.652q13.115,0,19.673,8.882t3.735,27.559L420.85,0H396.528l8.218-54.951q1.494-9.961-1.2-13.821t-9.587-3.86a22.375,22.375,0,0,0-9.753,2.117,23.357,23.357,0,0,0-7.678,5.852L366.812,0H342.573l13.447-89.814H378.6ZM442.017-44.16q3.237-22.08,14.277-34.7a35.467,35.467,0,0,1,27.891-12.617,21.694,21.694,0,0,1,12.534,3.569,25.8,25.8,0,0,1,8.467,10.044l3.735-11.953h20.835L516.392-.415q-2.822,18.179-15.522,27.434t-33.452,9.255a56.792,56.792,0,0,1-14.028-1.909A61.165,61.165,0,0,1,439.941,29.3l6.807-18.1a47.91,47.91,0,0,0,10.874,4.026,54.259,54.259,0,0,0,12.617,1.37q9.546,0,15.066-4.192T492.153-.5l1.162-8.135A33.5,33.5,0,0,1,482.773-.872a30.225,30.225,0,0,1-12.7,2.615q-15.855,0-23.574-12.285t-4.731-31.875Zm23.989,1.743q-1.909,12.2,1.038,18.76T479.038-17.1a20.982,20.982,0,0,0,9.587-2.117,21.179,21.179,0,0,0,7.263-6.1l5.811-38.6a13.515,13.515,0,0,0-5.271-6.475,16.357,16.357,0,0,0-8.923-2.241q-8.467,0-13.945,8.01t-7.3,20.461Z" transform="translate(1178.5 2000.5)" fill="none" stroke="#fff" stroke-width="1"/>
        <path id="Trazado_827889" data-name="Trazado 827889" d="M42.2-97.342l-2.891,19.15H52.537L50.369-63.377h-13.3L31.146-23.559q-.723,4.77.867,6.612a5.957,5.957,0,0,0,4.77,1.843,21.933,21.933,0,0,0,2.927-.181,22.83,22.83,0,0,0,2.927-.614L42.059-.65a47.049,47.049,0,0,1-6.4,1.626,38.074,38.074,0,0,1-6.612.542q-10.551,0-15.718-6.07T10.117-23.486l5.926-39.891H4.7L6.865-78.191H18.283l2.891-19.15ZM87.514,1.518q-16.766,0-25.365-10.876t-6-27.5l.434-2.891q2.674-18.211,13.767-29.087t27.931-10.8q15.176,0,22.438,9.756t4.806,25.871L123.936-33.1H77.252l-.145.361q-.867,8.311,2.746,13.188T92.139-14.67a46.354,46.354,0,0,0,12.213-1.481,55.763,55.763,0,0,0,10.984-4.372l3.758,13.008a47.939,47.939,0,0,1-13.73,6.432A59.9,59.9,0,0,1,87.514,1.518ZM95.9-63.377a13.5,13.5,0,0,0-10.226,4.408,26.189,26.189,0,0,0-6.034,11.49l.145.434h25.582l.217-1.59q1.084-7.082-1.12-10.912T95.9-63.377Zm81.01,41.7a6.152,6.152,0,0,0-2.493-6q-3-2.385-11.888-4.336-13.3-2.746-19.656-8.311t-5.059-15.1q1.445-10.406,10.876-17.308t23.739-6.9q14.236,0,22.438,7.154t6.4,17.561l-.145.434H180.736q.65-4.842-1.951-7.732T170.4-65.111a13.562,13.562,0,0,0-8.274,2.529,9.13,9.13,0,0,0-3.938,6.215,6.043,6.043,0,0,0,2.2,5.926q2.71,2.168,11.96,4.047Q186.3-43.5,192.552-37.9t4.95,15.429q-1.59,10.984-11.454,17.488t-24.823,6.5q-15.031,0-23.27-8.021t-6.432-17.922l.217-.434h19.295q-.65,6.287,2.854,9.105t9.792,2.818a15.986,15.986,0,0,0,9.105-2.385A8.982,8.982,0,0,0,176.906-21.68Zm70.531-75.662-2.891,19.15h13.225L255.6-63.377h-13.3l-5.926,39.818q-.723,4.77.867,6.612a5.957,5.957,0,0,0,4.77,1.843,21.933,21.933,0,0,0,2.927-.181,22.83,22.83,0,0,0,2.927-.614L247.293-.65A47.049,47.049,0,0,1,240.9.976a38.074,38.074,0,0,1-6.612.542q-10.551,0-15.718-6.07t-3.216-18.934l5.926-39.891H209.932L212.1-78.191h11.418l2.891-19.15ZM281.258,0h-21.1l11.707-78.191h21.1Zm14.525-96.908h-21.1l2.385-15.826h21.1Zm33.17,29.484a33.51,33.51,0,0,1,10.912-9.033,28.782,28.782,0,0,1,13.3-3.18q11.418,0,17.127,7.732t3.252,23.992L366.387,0H345.213l7.154-47.84q1.3-8.672-1.048-12.032t-8.347-3.36a19.479,19.479,0,0,0-8.491,1.843,20.334,20.334,0,0,0-6.685,5.095L319.342,0h-21.1l11.707-78.191H329.6Zm55.861,28.979q2.818-19.223,12.43-30.207a30.877,30.877,0,0,1,24.281-10.984,18.886,18.886,0,0,1,10.912,3.107,22.464,22.464,0,0,1,7.371,8.744l3.252-10.406H461.2L449.564-.361q-2.457,15.826-13.514,23.884T406.928,31.58a49.442,49.442,0,0,1-12.213-1.662,53.25,53.25,0,0,1-11.707-4.408l5.926-15.754a41.71,41.71,0,0,0,9.467,3.5,47.237,47.237,0,0,0,10.984,1.192q8.311,0,13.116-3.649T428.463-.434l1.012-7.082A29.168,29.168,0,0,1,420.3-.759,26.313,26.313,0,0,1,409.24,1.518q-13.8,0-20.523-10.7T384.6-36.928ZM405.7-36.928q-1.662,10.623.9,16.332t10.442,5.709a18.267,18.267,0,0,0,8.347-1.843,18.438,18.438,0,0,0,6.323-5.312l5.059-33.6a11.766,11.766,0,0,0-4.589-5.637,14.24,14.24,0,0,0-7.769-1.951q-7.371,0-12.141,6.974t-6.359,17.813Z" transform="translate(906.5 1862.5)" fill="none" stroke="#fff" stroke-width="1"/>
      </g>
    </g>
    <g id="Grupo_1074608" data-name="Grupo 1074608" transform="translate(1219 1597.422)">
      <g id="Grupo_1074607" data-name="Grupo 1074607" clip-path="url(#clip-path-3)">
        <g id="Grupo_1074606" data-name="Grupo 1074606">
          <g id="Grupo_1074605" data-name="Grupo 1074605" clip-path="url(#clip-path-3)">
            <path id="Trazado_827762" data-name="Trazado 827762" d="M76.378,9.391c14.715,4.3,26.2,19.749,31.876,45.089,2.858,12.75,3.385,25.795,10.192,33.8s7.872,19.573,7.329,26.095.882,16.307,5.181,21.645l-99.866-.084s5.571-13.928,4.505-25.788-4.466-19.867-1.946-32.019,5.923-17.617,1.1-27.865C27.767,35.44,38.735-1.609,76.378,9.391" transform="translate(21.965 4.034)" fill="#1c1318"/>
            <path id="Trazado_827763" data-name="Trazado 827763" d="M57.037,8.1A12.641,12.641,0,1,0,73.374.847,12.641,12.641,0,0,0,57.037,8.1" transform="translate(32.622 0)" fill="#1c1318"/>
            <path id="Trazado_827764" data-name="Trazado 827764" d="M83.2,16.432c0,2.482,2.086,16.611,13.537,22.159l.852,7.923L105.3,72.1,87.251,85.356,76.092,72.27,76.1,60.718c-7.447.662-13.648-3.647-14.118-11.667S61.9,34.073,59.614,29.777c0,0,11.645-.182,23.589-13.345" transform="translate(3.501 8.981)" fill="#f0956d"/>
            <path id="Trazado_827765" data-name="Trazado 827765" d="M78.048,36.685a4.1,4.1,0,1,1-4.1-4.1,4.1,4.1,0,0,1,4.1,4.1" transform="translate(14.94 17.807)" fill="#e25e59"/>
            <path id="Trazado_827766" data-name="Trazado 827766" d="M69.141,47.4a18.161,18.161,0,0,0,13.251-6.933" transform="translate(11.679 22.114)" fill="none" stroke="#1c1318" stroke-miterlimit="10" stroke-width="0.464"/>
            <path id="Trazado_827767" data-name="Trazado 827767" d="M73.026,36.1c-2,4.533-6.458,6.956-9.955,5.413s-4.709-6.471-2.706-11,6.458-6.958,9.955-5.413,4.708,6.471,2.706,11" transform="translate(35.146 13.461)" fill="#f0956d"/>
            <path id="Trazado_827768" data-name="Trazado 827768" d="M62.139,35.086s1.294-6.871,7.238-8.228" transform="translate(35.523 14.679)" fill="none" stroke="#1c1318" stroke-miterlimit="10" stroke-width="0.464"/>
            <line id="Línea_319" data-name="Línea 319" x1="0.902" y1="4.256" transform="translate(101.845 42.935)" fill="none" stroke="#1c1318" stroke-miterlimit="10" stroke-width="0.464"/>
            <path id="Trazado_827769" data-name="Trazado 827769" d="M65.893,35.94a2.768,2.768,0,1,1-2.767-2.77A2.77,2.77,0,0,1,65.893,35.94Z" transform="translate(41.765 18.128)" fill="none" stroke="#fff" stroke-miterlimit="10" stroke-width="0.464"/>
            <path id="Trazado_827770" data-name="Trazado 827770" d="M85.7,32.435l.923-1.336a2.064,2.064,0,0,0-1.819-.648A2.1,2.1,0,1,0,87.2,32.2a1.95,1.95,0,0,0-.085-.23Z" transform="translate(-14.639 16.629)" fill="#121f32"/>
            <path id="Trazado_827771" data-name="Trazado 827771" d="M77.314,31.1l.923-1.336a2.06,2.06,0,0,0-1.819-.648,2.1,2.1,0,1,0,2.4,1.744,1.711,1.711,0,0,0-.085-.23Z" transform="translate(6.706 15.901)" fill="#121f32"/>
            <path id="Trazado_827772" data-name="Trazado 827772" d="M78.028,31.456s.046,2.244,0,4.1,2.145,2.866,4.533,1.293" transform="translate(-2.225 17.192)" fill="none" stroke="#1c1318" stroke-miterlimit="10" stroke-width="0.464"/>
            <path id="Trazado_827773" data-name="Trazado 827773" d="M73.642,38.568a9.879,9.879,0,0,0,10.6-3.619" transform="translate(2.87 19.101)" fill="none" stroke="#1c1318" stroke-miterlimit="10" stroke-width="0.464"/>
            <line id="Línea_320" data-name="Línea 320" x2="2.42" y2="1.482" transform="translate(85.549 53.143)" fill="none" stroke="#1c1318" stroke-miterlimit="10" stroke-width="0.464"/>
            <path id="Trazado_827774" data-name="Trazado 827774" d="M73.079,26.777s5.2-1.714,8.831-.422" transform="translate(6.071 14.141)" fill="none" stroke="#7b2a27" stroke-linecap="round" stroke-linejoin="round" stroke-width="0.971"/>
            <path id="Trazado_827775" data-name="Trazado 827775" d="M82.031,28.491A9.321,9.321,0,0,1,89,27.735" transform="translate(-14.864 14.946)" fill="none" stroke="#7b2a27" stroke-linecap="round" stroke-linejoin="round" stroke-width="0.971"/>
            <path id="Trazado_827776" data-name="Trazado 827776" d="M139.018,314.2l-.026,31.811a19.46,19.46,0,0,0,1.146,6.645A87.14,87.14,0,0,1,145.26,383.7l-73.312-.062s4.287-9.709,23.705-15.666a26.493,26.493,0,0,0,9.366-5.226l7.153-6.089a14.59,14.59,0,0,0,4.9-13.691l-5.169-28.789Z" transform="translate(-55.565 171.707)" fill="#f0956d"/>
            <path id="Trazado_827777" data-name="Trazado 827777" d="M141.812,342.451l-17.777,8.469-13.105-8.592-5.911,5.031a26.523,26.523,0,0,1-9.364,5.226c-19.418,5.957-23.707,15.666-23.707,15.666l73.312.062a85.281,85.281,0,0,0-3.447-25.861" transform="translate(-55.565 187.093)" fill="#1c1318"/>
            <path id="Trazado_827778" data-name="Trazado 827778" d="M0,314.222l6.361,35.691a16.729,16.729,0,0,1,.08,5.391L2.233,383.717l56.13.048s-.758-8.4-3.429-10.694-10.3-8.026-10.3-8.026l-11.455-11.9a15.746,15.746,0,0,1-4.369-9.9l-1.888-29Z" transform="translate(142.637 171.732)" fill="#f0956d"/>
            <path id="Trazado_827779" data-name="Trazado 827779" d="M31.378,339.68a27.45,27.45,0,0,0-19.428,9.754l-8.288-4.35L0,369.8l56.13.046s-.756-8.4-3.427-10.694-10.3-8.026-10.3-8.026Z" transform="translate(144.87 185.646)" fill="#1c1318"/>
            <path id="Trazado_827780" data-name="Trazado 827780" d="M49.074,78.35,73.152,52.6l29.209-.167,16.3,25.979L104.8,164.521l-54.367-.045Z" transform="translate(6.442 28.655)" fill="#306ff3"/>
            <path id="Trazado_827781" data-name="Trazado 827781" d="M58.337,75.91,75.058,61.987,94.893,81.478" transform="translate(15.886 33.878)" fill="none" stroke="#fff" stroke-miterlimit="10" stroke-width="0.464"/>
            <line id="Línea_321" data-name="Línea 321" x1="10.716" y2="82.467" transform="translate(80.222 102.452)" fill="none" stroke="#fff" stroke-miterlimit="10" stroke-width="0.464"/>
            <path id="Trazado_827782" data-name="Trazado 827782" d="M120.913,168.589l45.035,253-51.549-.045L61.468,194.694l15.7,229.688-52.12-.043L10.581,157.709l23.741-32.545,74.79,1.973Z" transform="translate(18.688 68.406)" fill="#ea513b"/>
            <path id="Trazado_827783" data-name="Trazado 827783" d="M148.211,168.588l-11.8-41.452-74.79-1.973L37.878,157.71l.36,6.633c16.225.337,69.674,2.782,112.792,20.088Z" transform="translate(-8.61 68.406)" fill="#d83b2b"/>
            <path id="Trazado_827784" data-name="Trazado 827784" d="M83.639,192.86l-5.5-21.814,3.885-42.527" transform="translate(-3.483 70.24)" fill="none" stroke="#1c1318" stroke-miterlimit="10" stroke-width="0.464"/>
            <line id="Línea_322" data-name="Línea 322" x2="49.07" y2="0.042" transform="translate(57.977 245.612)" fill="none" stroke="#1c1318" stroke-miterlimit="10" stroke-width="0.464"/>
            <line id="Línea_323" data-name="Línea 323" x2="2.809" y2="38.185" transform="translate(72.243 198.754)" fill="none" stroke="#1c1318" stroke-miterlimit="10" stroke-width="0.464"/>
            <line id="Línea_324" data-name="Línea 324" x2="13.512" y2="277.606" transform="translate(46.261 215.151)" fill="none" stroke="#1c1318" stroke-miterlimit="10" stroke-width="0.464"/>
            <line id="Línea_325" data-name="Línea 325" x2="49.93" y2="274.772" transform="translate(111.223 215.206)" fill="none" stroke="#1c1318" stroke-miterlimit="10" stroke-width="0.464"/>
            <g id="Grupo_1074598" data-name="Grupo 1074598" transform="translate(51.618 189.764)" opacity="0.2">
              <g id="Grupo_1074597" data-name="Grupo 1074597">
                <g id="Grupo_1074596" data-name="Grupo 1074596" clip-path="url(#clip-path-5)">
                  <rect id="Rectángulo_383611" data-name="Rectángulo 383611" width="71.669" height="11.429" transform="translate(0.005 0.03)" fill="#4f454d"/>
                </g>
              </g>
            </g>
            <path id="Trazado_827785" data-name="Trazado 827785" d="M52.347,52.43,34.791,160.07a29.639,29.639,0,0,0,1.059,13.914L42.8,195.412a5.941,5.941,0,0,0,8.619,3.316l34.328-19.786L70.875,156.3l19.7-69.459a19.9,19.9,0,0,0-11.8-23.923Z" transform="translate(56.458 28.655)" fill="#273a89"/>
            <line id="Línea_326" data-name="Línea 326" x1="18.15" y2="15.232" transform="translate(101.639 186.003)" fill="none" stroke="#1c1318" stroke-miterlimit="10" stroke-width="0.464"/>
            <path id="Trazado_827786" data-name="Trazado 827786" d="M71.619,55l1.653,2.536A25.515,25.515,0,0,1,74.2,83.855L71,89.594l3.563,10.546a18.136,18.136,0,0,1-1.01,14.005L54.2,152.3" transform="translate(39.772 30.058)" fill="none" stroke="#1c1318" stroke-miterlimit="10" stroke-width="0.464"/>
            <g id="Grupo_1074601" data-name="Grupo 1074601" transform="translate(104.345 184.959)" opacity="0.2">
              <g id="Grupo_1074600" data-name="Grupo 1074600">
                <g id="Grupo_1074599" data-name="Grupo 1074599" clip-path="url(#clip-path-6)">
                  <path id="Trazado_827787" data-name="Trazado 827787" d="M61,119.6,38.018,162.76a5.862,5.862,0,0,0,3.529-.742l34.33-19.785Z" transform="translate(-38.018 -119.596)" fill="#4f454d"/>
                </g>
              </g>
            </g>
            <g id="Grupo_1074604" data-name="Grupo 1074604" transform="translate(127.853 131.598)" opacity="0.2">
              <g id="Grupo_1074603" data-name="Grupo 1074603">
                <g id="Grupo_1074602" data-name="Grupo 1074602" clip-path="url(#clip-path-7)">
                  <path id="Trazado_827788" data-name="Trazado 827788" d="M40.086,85.092l2.408,43.031,8.744-30.832Z" transform="translate(-40.086 -85.092)" fill="#4f454d"/>
                </g>
              </g>
            </g>
            <path id="Trazado_827789" data-name="Trazado 827789" d="M43.239,149.7l23.442,5.227L52.317,139.159Z" transform="translate(67.448 76.055)" fill="#f0956d"/>
            <path id="Trazado_827790" data-name="Trazado 827790" d="M158.1,52.537,144.067,190.556a7.642,7.642,0,0,1-7.609,6.87l-34.614-.029s13.773-33.254,24.958-51.549l-.278-10L110.257,152.98a18.4,18.4,0,0,1-28.8-22.664l35.142-54.356A35.1,35.1,0,0,1,133.181,62.37Z" transform="translate(-78.502 28.713)" fill="#273a89"/>
            <path id="Trazado_827791" data-name="Trazado 827791" d="M94,53.925c-4.015,6.011-14.762,15.023-6.472,33.787-8.6,15.17-10.339,35.635-4.06,60.7" transform="translate(-16.27 29.472)" fill="none" stroke="#1c1318" stroke-miterlimit="10" stroke-width="0.464"/>
            <line id="Línea_327" data-name="Línea 327" y1="28.158" x2="3.155" transform="translate(30.451 143.642)" fill="none" stroke="#1c1318" stroke-miterlimit="10" stroke-width="0.464"/>
            <path id="Trazado_827792" data-name="Trazado 827792" d="M153.54,136.392l-54.5-.046L72.293,59.424l54.5.046Z" transform="translate(-64.345 32.477)" fill="#f1a23a"/>
            <path id="Trazado_827793" data-name="Trazado 827793" d="M11.978,98.239l24.975,44.123-29.82,41.6L26.97,205.738,68.52,167.181a27.575,27.575,0,0,0,5.718-32.913L46.476,80.77A41.731,41.731,0,0,0,24.837,61.207L14.726,57.192Z" transform="translate(112.631 31.257)" fill="#273a89"/>
            <line id="Línea_328" data-name="Línea 328" y1="8.968" x2="6.785" transform="translate(149.582 164.65)" fill="none" stroke="#1c1318" stroke-miterlimit="10" stroke-width="0.464"/>
            <path id="Trazado_827794" data-name="Trazado 827794" d="M108.434,90.69c.116-.547,3.8-5.009,7.165-7.368a48.141,48.141,0,0,1,5.705-3.344,2.705,2.705,0,0,1,3.18.561l2.733,2.88a2.715,2.715,0,0,1,.365,3.252l-6.338,10.687s9.383-5,10.026-4.573c.384.255-3.2,4.265-6.174,7.484a8.044,8.044,0,0,1-9.681,1.7c-3.922-2.1-8.155-5.711-6.981-11.276" transform="translate(-97.687 43.554)" fill="#f0956d"/>
            <line id="Línea_329" data-name="Línea 329" y1="8.538" x2="10.979" transform="translate(16.332 124.636)" fill="none" stroke="#1c1318" stroke-miterlimit="10" stroke-width="0.464"/>
            <line id="Línea_330" data-name="Línea 330" y1="11.039" x2="9.086" transform="translate(20.266 127.007)" fill="none" stroke="#1c1318" stroke-miterlimit="10" stroke-width="0.464"/>
          </g>
        </g>
      </g>
    </g>
    <g id="Enmascarar_grupo_190" data-name="Enmascarar grupo 190" clip-path="url(#clip-path-2)">
      <g id="Grupo_1074617" data-name="Grupo 1074617" transform="translate(1084 1804.342)">
        <rect id="Rectángulo_383653" data-name="Rectángulo 383653" width="257.93" height="16.531" transform="translate(0 136.139)" fill="#a4c4ea"/>
        <rect id="Rectángulo_383654" data-name="Rectángulo 383654" width="235.922" height="12.971" transform="translate(11.005 152.67)" fill="#c8daf3"/>
        <path id="Trazado_827799" data-name="Trazado 827799" d="M25.679,118.215,9.82,303.589H17.75L45.269,118.215Z" transform="translate(3.94 47.426)" fill="#c8daf3"/>
        <rect id="Rectángulo_383655" data-name="Rectángulo 383655" width="19.59" height="1.129" transform="translate(29.618 165.076)" fill="#c8daf3"/>
        <path id="Trazado_827800" data-name="Trazado 827800" d="M148.961,118.215,176.48,303.589h7.929L168.551,118.215Z" transform="translate(59.761 47.426)" fill="#c8daf3"/>
        <rect id="Rectángulo_383656" data-name="Rectángulo 383656" width="19.59" height="1.129" transform="translate(208.722 165.076)" fill="#c8daf3"/>
        <g id="Grupo_1074616" data-name="Grupo 1074616">
          <g id="Grupo_1074615" data-name="Grupo 1074615" clip-path="url(#clip-path-9)">
            <path id="Trazado_827801" data-name="Trazado 827801" d="M30.848,3.846a1.567,1.567,0,0,0-1.6,1.53V83.907H183.6V5.376a1.568,1.568,0,0,0-1.6-1.53Z" transform="translate(11.734 1.543)" fill="#a4c4ea"/>
            <path id="Trazado_827802" data-name="Trazado 827802" d="M73.088,104.6h31.878l-4.491-31.89h-22.9Z" transform="translate(29.322 29.172)" fill="#fff"/>
            <rect id="Rectángulo_383657" data-name="Rectángulo 383657" width="59.403" height="3.244" transform="translate(88.647 133.775)" fill="#fff"/>
            <path id="Trazado_827803" data-name="Trazado 827803" d="M29.248,10.355V6.881A6.88,6.88,0,0,1,36.126,0H176.719a6.881,6.881,0,0,1,6.88,6.881v3.474Z" transform="translate(11.734)" fill="#fff"/>
            <rect id="Rectángulo_383658" data-name="Rectángulo 383658" width="31.878" height="0.834" transform="translate(102.41 133.359)" fill="#d9e6f8"/>
            <path id="Trazado_827804" data-name="Trazado 827804" d="M29.248,60.454V78.061A7.654,7.654,0,0,0,36.9,85.717H175.944a7.655,7.655,0,0,0,7.655-7.656V60.454Z" transform="translate(11.734 24.253)" fill="#fff"/>
            <path id="Trazado_827805" data-name="Trazado 827805" d="M85.361,74.361a3.972,3.972,0,1,1,3.971-3.971,3.974,3.974,0,0,1-3.971,3.971m0-7.11A3.138,3.138,0,1,0,88.5,70.39a3.142,3.142,0,0,0-3.137-3.139" transform="translate(32.653 26.646)" fill="#d9e6f8"/>
            <rect id="Rectángulo_383659" data-name="Rectángulo 383659" width="25.297" height="0.834" transform="translate(105.701 109.553)" fill="#d9e6f8"/>
            <rect id="Rectángulo_383660" data-name="Rectángulo 383660" width="7.418" height="0.834" transform="translate(114.449 4.76)" fill="#d9e6f8"/>
            <path id="Trazado_827806" data-name="Trazado 827806" d="M30.848,7.39a7.087,7.087,0,0,0-1.6.091v4.7H183.6v-4.7A7.1,7.1,0,0,0,182,7.39Z" transform="translate(11.734 2.965)" fill="#1c1318"/>
            <path id="Trazado_827807" data-name="Trazado 827807" d="M135.906,9.316a.914.914,0,1,0,.914-.914.914.914,0,0,0-.914.914" transform="translate(54.523 3.371)" fill="#fff"/>
            <path id="Trazado_827808" data-name="Trazado 827808" d="M133.723,9.316a.913.913,0,1,0,.912-.914.913.913,0,0,0-.912.914" transform="translate(53.648 3.371)" fill="#fff"/>
            <path id="Trazado_827809" data-name="Trazado 827809" d="M131.539,9.316a.914.914,0,1,0,.914-.914.914.914,0,0,0-.914.914" transform="translate(52.772 3.371)" fill="#fff"/>
            <path id="Trazado_827810" data-name="Trazado 827810" d="M85.937,61.606h-51.3V20.117h51.3Zm-50.471-.834H85.1V20.949H35.466Z" transform="translate(13.895 8.071)" fill="#d9e6f8"/>
            <rect id="Rectángulo_383661" data-name="Rectángulo 383661" width="12.123" height="0.834" transform="translate(176.16 28.188)" fill="#d9e6f8"/>
            <rect id="Rectángulo_383662" data-name="Rectángulo 383662" width="55.197" height="0.834" transform="translate(111.324 28.188)" fill="#d9e6f8"/>
            <rect id="Rectángulo_383663" data-name="Rectángulo 383663" width="47.849" height="0.834" transform="translate(140.434 33.996)" fill="#d9e6f8"/>
            <rect id="Rectángulo_383664" data-name="Rectángulo 383664" width="23.865" height="0.834" transform="translate(111.324 33.996)" fill="#d9e6f8"/>
            <rect id="Rectángulo_383665" data-name="Rectángulo 383665" width="18.644" height="0.834" transform="translate(169.639 39.803)" fill="#d9e6f8"/>
            <rect id="Rectángulo_383666" data-name="Rectángulo 383666" width="49.242" height="0.834" transform="translate(111.324 39.803)" fill="#d9e6f8"/>
            <rect id="Rectángulo_383667" data-name="Rectángulo 383667" width="42.745" height="0.834" transform="translate(145.538 45.613)" fill="#d9e6f8"/>
            <rect id="Rectángulo_383668" data-name="Rectángulo 383668" width="27.599" height="0.834" transform="translate(111.324 45.613)" fill="#d9e6f8"/>
            <rect id="Rectángulo_383669" data-name="Rectángulo 383669" width="56.756" height="0.834" transform="translate(111.324 51.419)" fill="#d9e6f8"/>
            <rect id="Rectángulo_383670" data-name="Rectángulo 383670" width="19.636" height="0.834" transform="translate(168.647 57.229)" fill="#d9e6f8"/>
            <rect id="Rectángulo_383671" data-name="Rectángulo 383671" width="27.928" height="0.834" transform="translate(133.488 57.229)" fill="#d9e6f8"/>
            <rect id="Rectángulo_383672" data-name="Rectángulo 383672" width="16.067" height="0.834" transform="translate(111.323 57.229)" fill="#d9e6f8"/>
            <rect id="Rectángulo_383673" data-name="Rectángulo 383673" width="29.561" height="0.834" transform="translate(158.722 63.035)" fill="#d9e6f8"/>
            <rect id="Rectángulo_383674" data-name="Rectángulo 383674" width="42.295" height="0.834" transform="translate(111.324 63.035)" fill="#d9e6f8"/>
            <rect id="Rectángulo_383675" data-name="Rectángulo 383675" width="36.53" height="0.834" transform="translate(138.922 68.843)" fill="#d9e6f8"/>
            <rect id="Rectángulo_383676" data-name="Rectángulo 383676" width="21.148" height="0.834" transform="translate(111.324 68.843)" fill="#d9e6f8"/>
            <path id="Trazado_827811" data-name="Trazado 827811" d="M116.937,100.171a9.21,9.21,0,0,1,9.136-8.323h11.484a9.211,9.211,0,0,1,9.137,8.323Z" transform="translate(46.913 36.848)" fill="#fff"/>
            <path id="Trazado_827812" data-name="Trazado 827812" d="M132.188,99.838l-.831-.046a7.437,7.437,0,0,1,5.567-7.055l.168.817a6.5,6.5,0,0,0-4.9,6.284" transform="translate(52.698 37.205)" fill="#d9e6f8"/>
            <path id="Trazado_827813" data-name="Trazado 827813" d="M124.541,99.838a6.5,6.5,0,0,0-4.9-6.284l.168-.817a7.437,7.437,0,0,1,5.567,7.055Z" transform="translate(47.997 37.205)" fill="#d9e6f8"/>
          </g>
        </g>
      </g>
    </g>
  </g>
</svg>
