<svg xmlns="http://www.w3.org/2000/svg" xmlns:xlink="http://www.w3.org/1999/xlink" width="102" height="102" viewBox="0 0 102 102">
  <defs>
    <clipPath id="clip-path">
      <path id="path9156" d="M0-682.665H84.305v84.306H0Z" transform="translate(0 682.665)"/>
    </clipPath>
  </defs>
  <g id="Grupo_1074629" data-name="Grupo 1074629" transform="translate(-314 -3894)">
    <rect id="Rectángulo_383457" data-name="Rectángulo 383457" width="102" height="102" rx="14" transform="translate(314 3894)" fill="#3ee2a8"/>
    <g id="g9150" transform="translate(322.847 4585.512)">
      <g id="g9152" transform="translate(0 -682.665)">
        <g id="g9154" clip-path="url(#clip-path)">
          <g id="g9160" transform="translate(69.9 22.483)">
            <path id="path9162" d="M-3.555,0h-.011l-.49.288v8.48h7.43l.406-.346V7.336A7.357,7.357,0,0,0-3.555,0" transform="translate(4.056)" fill="#ffa90f"/>
          </g>
          <g id="g9164" transform="translate(21.326 1.235)">
            <path id="path9166" d="M-278.576-8.378l-.525-1.18h-36a2.72,2.72,0,0,0-2.72,2.72v4.7l1.131.927h30.185l9.91,9.633V20.684h7.053l.784-.573V.78l-1.224-.541Z" transform="translate(317.826 9.559)" fill="#62ddfc"/>
          </g>
          <g id="g9168" transform="translate(21.326 1.235)">
            <path id="path9170" d="M-59.884-19.308a2.72,2.72,0,0,1,2.72-2.72H-65.6a2.72,2.72,0,0,0-2.72,2.72v4.7l1.131.927h8.437l-1.131-.927Z" transform="translate(68.321 22.028)" fill="#00d2fc"/>
          </g>
          <g id="g9172" transform="translate(6.57 22.483)">
            <path id="path9174" d="M-52.146,0h-.15a7.218,7.218,0,0,0-7.2,7.2V8.422l.711.2h7.19V.463Z" transform="translate(59.493)" fill="#ffa90f"/>
          </g>
          <g id="g9176" transform="translate(60.051 1.235)">
            <path id="path9178" d="M0,0V7.618a2.72,2.72,0,0,0,2.72,2.72h7.618Z" fill="#00d2fc"/>
          </g>
          <g id="g9180" transform="translate(13.917 8.651)">
            <path id="path9182" d="M-279.35-11.058l-.634-1.558h-36a2.72,2.72,0,0,0-2.72,2.72V9.638l1.067,1.067h45.067l2.93-1.067V-2.277l-1.526-.712Z" transform="translate(318.709 12.616)" fill="#dbedff"/>
          </g>
          <g id="g9184" transform="translate(13.918 8.651)">
            <path id="path9186" d="M-59.884-19.308a2.72,2.72,0,0,1,2.72-2.72H-65.6a2.72,2.72,0,0,0-2.72,2.72V.226l1.067,1.067h8.437L-59.884.226Z" transform="translate(68.321 22.028)" fill="#b5dcff"/>
          </g>
          <g id="g9188" transform="translate(52.642 8.651)">
            <path id="path9190" d="M0,0V7.618a2.72,2.72,0,0,0,2.72,2.72h7.618Z" fill="#b5dcff"/>
          </g>
          <g id="g9192" transform="translate(60.051 1.235)">
            <path id="path9194" d="M-31.554-54.07v-3.172L-36-61.688v7.618a2.72,2.72,0,0,0,2.72,2.72h4.446a2.72,2.72,0,0,1-2.72-2.72" transform="translate(36 61.688)" fill="#00c2fb"/>
          </g>
          <g id="g9196" transform="translate(52.642 8.651)">
            <path id="path9198" d="M-31.554-54.07v-3.172L-36-61.688v7.618a2.72,2.72,0,0,0,2.72,2.72h4.446a2.72,2.72,0,0,1-2.72-2.72" transform="translate(36 61.688)" fill="#8bcaff"/>
          </g>
          <g id="g9200" transform="translate(6.57 30.905)">
            <path id="path9202" d="M-505.1,0h-71.166V49.979a2.187,2.187,0,0,0,2.187,2.187h66.792a2.187,2.187,0,0,0,2.187-2.187Z" transform="translate(576.268)" fill="#ffd086"/>
          </g>
          <g id="g9204" transform="translate(6.57 30.905)">
            <path id="path9206" d="M-74.444-354.723V-404.7H-84.933v49.979a2.187,2.187,0,0,0,2.187,2.187h10.489a2.187,2.187,0,0,1-2.187-2.187" transform="translate(84.933 404.702)" fill="#ffc365"/>
          </g>
          <g id="g9208" transform="translate(42.153 52.698)">
            <path id="path9210" d="M-195.939,0h-26.207a1.4,1.4,0,0,0-1.4,1.4V22.028a1.4,1.4,0,0,0,1.4,1.4h26.207a1.4,1.4,0,0,0,1.4-1.4V1.4a1.4,1.4,0,0,0-1.4-1.4" transform="translate(223.546)" fill="#dbedff"/>
          </g>
          <g id="g9212" transform="translate(42.154 52.698)">
            <path id="path9214" d="M-46.677-156.346v-20.629a1.4,1.4,0,0,1,1.4-1.4h-6.576a1.4,1.4,0,0,0-1.4,1.4v20.629a1.4,1.4,0,0,0,1.4,1.4h6.576a1.4,1.4,0,0,1-1.4-1.4" transform="translate(53.253 178.374)" fill="#b5dcff"/>
          </g>
          <g id="g9216" transform="translate(5.335 21.248)">
            <path id="path9218" d="M-61.062-10h.15a1.235,1.235,0,0,1,1.235,1.235V-.343A1.235,1.235,0,0,1-60.911.892h-7.347A1.235,1.235,0,0,1-69.493-.343V-1.568A8.441,8.441,0,0,1-61.062-10Zm-1.084,8.422V-7.431a5.971,5.971,0,0,0-4.877,5.853Z" transform="translate(69.493 10)"/>
          </g>
          <g id="g9220" transform="translate(69.154 21.248)">
            <path id="path9222" d="M-8.856-10h.011A8.58,8.58,0,0,1-.274-1.429V-.343A1.235,1.235,0,0,1-1.509.892H-8.856A1.235,1.235,0,0,1-10.091-.343V-8.765A1.235,1.235,0,0,1-8.856-10Zm6.11,8.422A6.112,6.112,0,0,0-7.621-7.407v5.829Z" transform="translate(10.091 10)"/>
          </g>
          <g id="g9224" transform="translate(20.091 0)">
            <path id="path9226" d="M-28.073-10h36a1.235,1.235,0,0,1,.873.362L19.144.7a1.235,1.235,0,0,1,.362.873V20.905A1.235,1.235,0,0,1,18.27,22.14H10.862a1.235,1.235,0,0,1-1.235-1.235V9.5L.012-.114h-30.8a1.235,1.235,0,0,1-1.235-1.235v-4.7A3.96,3.96,0,0,1-28.073-10ZM7.42-7.53H-28.073a1.487,1.487,0,0,0-1.485,1.485v3.461H.523a1.235,1.235,0,0,1,.873.362L11.735,8.116a1.235,1.235,0,0,1,.362.873V19.67h4.939V2.085Z" transform="translate(32.028 10)"/>
          </g>
          <g id="g9228" transform="translate(12.682 7.416)">
            <path id="path9230" d="M-319.619-10h36a1.235,1.235,0,0,1,.873.362L-272.4.7a1.235,1.235,0,0,1,.362.873V13.489a1.235,1.235,0,0,1-1.235,1.235h-49.063a1.235,1.235,0,0,1-1.235-1.235V-6.045A3.96,3.96,0,0,1-319.619-10Zm35.493,2.47h-35.493A1.487,1.487,0,0,0-321.1-6.045v18.3h46.593V2.085Z" transform="translate(323.574 10)"/>
          </g>
          <g id="g9232" transform="translate(51.407 7.416)">
            <path id="path9234" d="M-8.765-10a1.235,1.235,0,0,1,.874.362L2.447.7a1.235,1.235,0,0,1-.873,2.108H-6.045A3.96,3.96,0,0,1-10-1.147V-8.765a1.235,1.235,0,0,1,.762-1.141A1.233,1.233,0,0,1-8.765-10ZM-1.408.338-7.53-5.784v4.637A1.487,1.487,0,0,0-6.045.338Z" transform="translate(10 10)"/>
          </g>
          <g id="g9236" transform="translate(58.815 0)">
            <path id="path9238" d="M-8.765-10a1.235,1.235,0,0,1,.874.362L2.447.7a1.235,1.235,0,0,1-.873,2.108H-6.045A3.96,3.96,0,0,1-10-1.147V-8.765a1.235,1.235,0,0,1,.762-1.141A1.233,1.233,0,0,1-8.765-10ZM-1.408.338-7.53-5.784v4.637A1.487,1.487,0,0,0-6.045.338Z" transform="translate(10 10)"/>
          </g>
          <g id="g9240" transform="translate(46.694 70.001)">
            <path id="path9242" d="M8.689-7.53H-8.765A1.235,1.235,0,0,1-10-8.765,1.235,1.235,0,0,1-8.765-10H8.689A1.235,1.235,0,0,1,9.924-8.765,1.235,1.235,0,0,1,8.689-7.53Z" transform="translate(10 10)"/>
          </g>
          <g id="g9244" transform="translate(46.694 65.452)">
            <path id="path9246" d="M8.689-7.53H-8.765A1.235,1.235,0,0,1-10-8.765,1.235,1.235,0,0,1-8.765-10H8.689A1.235,1.235,0,0,1,9.924-8.765,1.235,1.235,0,0,1,8.689-7.53Z" transform="translate(10 10)"/>
          </g>
          <g id="g9248" transform="translate(46.694 60.903)">
            <path id="path9250" d="M8.689-7.53H-8.765A1.235,1.235,0,0,1-10-8.765,1.235,1.235,0,0,1-8.765-10H8.689A1.235,1.235,0,0,1,9.924-8.765,1.235,1.235,0,0,1,8.689-7.53Z" transform="translate(10 10)"/>
          </g>
          <g id="g9252" transform="translate(46.694 56.354)">
            <path id="path9254" d="M8.689-7.53H-8.765A1.235,1.235,0,0,1-10-8.765,1.235,1.235,0,0,1-8.765-10H8.689A1.235,1.235,0,0,1,9.924-8.765,1.235,1.235,0,0,1,8.689-7.53Z" transform="translate(10 10)"/>
          </g>
          <g id="g9256" transform="translate(19.527 24.636)">
            <path id="path9258" d="M25.207-7.53H-8.765A1.235,1.235,0,0,1-10-8.765,1.235,1.235,0,0,1-8.765-10H25.207a1.235,1.235,0,0,1,1.235,1.235A1.235,1.235,0,0,1,25.207-7.53Z" transform="translate(10 10)"/>
          </g>
          <g id="g9260" transform="translate(19.527 20.087)">
            <path id="path9262" d="M19.828-7.53H-8.765A1.235,1.235,0,0,1-10-8.765,1.235,1.235,0,0,1-8.765-10H19.828a1.235,1.235,0,0,1,1.235,1.235A1.235,1.235,0,0,1,19.828-7.53Z" transform="translate(10 10)"/>
          </g>
          <g id="g9264" transform="translate(40.918 51.463)">
            <path id="path9266" d="M-75.265,15.9h-26.207a2.638,2.638,0,0,1-2.635-2.635V-7.365A2.638,2.638,0,0,1-101.472-10H-91.25a1.235,1.235,0,0,1,1.235,1.235A1.235,1.235,0,0,1-91.25-7.53h-10.222a.165.165,0,0,0-.165.165V13.263a.165.165,0,0,0,.165.165h26.207a.165.165,0,0,0,.165-.165V-7.365a.165.165,0,0,0-.165-.165H-85.487a1.235,1.235,0,0,1-1.235-1.235A1.235,1.235,0,0,1-85.487-10h10.222A2.638,2.638,0,0,1-72.63-7.365V13.263A2.638,2.638,0,0,1-75.265,15.9Z" transform="translate(104.106 10)"/>
          </g>
          <g id="g9268" transform="translate(5.335 29.67)">
            <path id="path9270" d="M-516.054-132.4h-66.792a3.426,3.426,0,0,1-3.422-3.422V-185.8a1.235,1.235,0,0,1,1.235-1.235h71.166a1.235,1.235,0,0,1,1.235,1.235v21.863a1.235,1.235,0,0,1-1.235,1.235,1.235,1.235,0,0,1-1.235-1.235v-20.628h-68.7v48.744a.953.953,0,0,0,.952.952h66.792a.953.953,0,0,0,.952-.952v-22.353a1.235,1.235,0,0,1,1.235-1.235,1.235,1.235,0,0,1,1.235,1.235v22.353A3.426,3.426,0,0,1-516.054-132.4Z" transform="translate(586.268 187.035)"/>
          </g>
        </g>
      </g>
    </g>
  </g>
</svg>
