<svg xmlns="http://www.w3.org/2000/svg" width="61" height="61" viewBox="0 0 61 61">
  <g id="Grupo_1074402" data-name="Grupo 1074402" transform="translate(4991 9072)">
    <circle id="Elipse_9874" data-name="Elipse 9874" cx="30.5" cy="30.5" r="30.5" transform="translate(-4991 -9072)" fill="#ffce00"/>
    <g id="_06-application" data-name="06-application" transform="translate(-4984 -9065)">
      <path id="Trazado_827270" data-name="Trazado 827270" d="M17,1H31V2a2.006,2.006,0,0,1-2,2H19a2.006,2.006,0,0,1-2-2Z" fill="#e9edf5"/>
      <path id="Trazado_827271" data-name="Trazado 827271" d="M39,5V43a4,4,0,0,1-4,4H13a4,4,0,0,1-4-4V5a4,4,0,0,1,4-4h4V2a2.006,2.006,0,0,0,2,2H29a2.006,2.006,0,0,0,2-2V1h4A4,4,0,0,1,39,5Z" fill="#9576f0"/>
      <path id="Trazado_827272" data-name="Trazado 827272" d="M39,34.046V5a4,4,0,0,0-4-4H31V2a2.006,2.006,0,0,1-2,2H19a2.006,2.006,0,0,1-2-2V1H13A33.982,33.982,0,0,0,39,34.046Z" fill="#b785f8"/>
      <rect id="Rectángulo_383299" data-name="Rectángulo 383299" width="22" height="22" rx="4" transform="translate(13 16)" fill="#7af"/>
      <path id="Trazado_827273" data-name="Trazado 827273" d="M13.519,18.067A3.948,3.948,0,0,0,13,20V34a4,4,0,0,0,4,4H31a3.987,3.987,0,0,0,3.951-3.511C23.29,34.268,13.9,27.058,13.519,18.067Z" fill="#6598f5"/>
      <circle id="Elipse_9888" data-name="Elipse 9888" cx="6" cy="6" r="6" transform="translate(23 10)" fill="#ff84be"/>
      <path id="Trazado_827274" data-name="Trazado 827274" d="M29,22a6,6,0,0,0,5.667-4.046,6.986,6.986,0,0,1-10.635-5.316A6,6,0,0,0,29,22Z" fill="#fd6d9e"/>
      <path id="Trazado_827275" data-name="Trazado 827275" d="M38,43a3,3,0,0,1-3,3H13a3,3,0,0,1-3-3V11H8V43a5.006,5.006,0,0,0,5,5H35a5.006,5.006,0,0,0,5-5V39H38Z"/>
      <path id="Trazado_827276" data-name="Trazado 827276" d="M38,35h2v2H38Z"/>
      <path id="Trazado_827277" data-name="Trazado 827277" d="M35,0H13A5.006,5.006,0,0,0,8,5V9h2V5a3,3,0,0,1,3-3h3a3,3,0,0,0,3,3H29a3,3,0,0,0,3-3h3a3,3,0,0,1,3,3V33h2V5A5.006,5.006,0,0,0,35,0ZM29,3H19a1,1,0,0,1-1-1H30A1,1,0,0,1,29,3Z"/>
      <path id="Trazado_827278" data-name="Trazado 827278" d="M36,16a7,7,0,1,0-7,7,7,7,0,0,0,7-7Zm-7,5a5,5,0,1,1,5-5,5,5,0,0,1-5,5Z"/>
      <path id="Trazado_827279" data-name="Trazado 827279" d="M29.525,13.149a1,1,0,0,0-.972-.044l-2,1,.894,1.79L28,15.618V19h2V14a1,1,0,0,0-.475-.851Z"/>
      <path id="Trazado_827280" data-name="Trazado 827280" d="M21,15H17a5.006,5.006,0,0,0-5,5V34a5.006,5.006,0,0,0,5,5H31a5.006,5.006,0,0,0,5-5V22H34V34a3,3,0,0,1-3,3H17a3,3,0,0,1-3-3V20a3,3,0,0,1,3-3h4Z"/>
      <path id="Trazado_827281" data-name="Trazado 827281" d="M21,34V33a9.2,9.2,0,0,0-.382-2.648l-.406-1.624a2.28,2.28,0,0,0-4.424,0l-.406,1.624A9.2,9.2,0,0,0,15,33v1h2V33h2v1Zm-3.719-3c.015-.057.025-.1.04-.163l.407-1.624a.291.291,0,0,1,.544,0l.407,1.624c.015.062.025.106.04.163Z"/>
      <path id="Trazado_827282" data-name="Trazado 827282" d="M22,34h2V32h.5a2.5,2.5,0,0,0,0-5H23a1,1,0,0,0-1,1Zm2-5h.5a.5.5,0,0,1,0,1H24Z"/>
      <path id="Trazado_827283" data-name="Trazado 827283" d="M29,27a1,1,0,0,0-1,1v6h2V32h.5a2.5,2.5,0,0,0,0-5Zm2,2.5a.5.5,0,0,1-.5.5H30V29h.5A.5.5,0,0,1,31,29.5Z"/>
    </g>
  </g>
</svg>
