<svg xmlns="http://www.w3.org/2000/svg" width="61" height="61" viewBox="0 0 61 61">
  <g id="Grupo_1074319" data-name="Grupo 1074319" transform="translate(-456 -2644)">
    <circle id="Elipse_9665" data-name="Elipse 9665" cx="30.5" cy="30.5" r="30.5" transform="translate(456 2644)" fill="#ffce00"/>
    <g id="capa" transform="translate(444 2650)">
      <path id="Trazado_827158" data-name="Trazado 827158" d="M30,296.432l21.991,10.513,21.991-10.513L51.992,285.919Z" transform="translate(-9.028 -258.098)" fill="#898998"/>
      <path id="Trazado_827159" data-name="Trazado 827159" d="M30,204.482l21.991,10.513,21.991-10.513L51.992,193.969Z" transform="translate(-9.028 -175.095)" fill="#ffb954"/>
      <path id="Trazado_827160" data-name="Trazado 827160" d="M30,112.735l21.991,10.513,21.991-10.513L51.992,102.222Z" transform="translate(-9.028 -92.275)" fill="#e889c3"/>
      <path id="Trazado_827161" data-name="Trazado 827161" d="M30,20.514,51.992,31.027,73.983,20.514,51.992,10Z" transform="translate(-9.028 -9.028)" fill="#72d8ff"/>
      <path id="Trazado_827162" data-name="Trazado 827162" d="M343.554,445.831a.972.972,0,1,0,.689.285A.976.976,0,0,0,343.554,445.831Z" transform="translate(-291.192 -402.449)"/>
      <path id="Trazado_827163" data-name="Trazado 827163" d="M65.928,20.46a.973.973,0,0,0-.553-.878l-7.549-3.609,7.549-3.609a.973.973,0,0,0,0-1.756L43.384.1a.973.973,0,0,0-.839,0L35.379,3.521a.973.973,0,0,0,.839,1.756l6.746-3.225L62.7,11.486,42.964,20.921,23.229,11.486l5.646-2.7a.973.973,0,0,0-.839-1.756l-7.482,3.577a.973.973,0,0,0,0,1.756L28.1,15.973l-7.549,3.609a.973.973,0,0,0,0,1.756l7.5,3.586-7.5,3.586a.973.973,0,0,0,0,1.756l7.521,3.6-7.521,3.6a.973.973,0,0,0,0,1.756L42.544,49.725a.973.973,0,0,0,.839,0l5.26-2.515a.973.973,0,0,0-.839-1.756l-4.841,2.314L23.229,38.334l7.02-3.356c.027-.013.052-.027.077-.042l12.219,5.841a.973.973,0,0,0,.839,0L55.6,34.937c.025.015.05.029.077.042l7.02,3.356-7.02,3.356a.973.973,0,1,0,.839,1.756l8.856-4.234a.973.973,0,0,0,0-1.756l-7.521-3.6,7.521-3.6a.973.973,0,0,0,0-1.756l-7.5-3.586,7.5-3.586A.973.973,0,0,0,65.928,20.46ZM55.679,26.031l7.02,3.356L42.964,38.822,23.229,29.387l7.02-3.356c.02-.01.039-.021.058-.031l12.238,5.85a.973.973,0,0,0,.839,0L55.622,26C55.641,26.011,55.659,26.022,55.679,26.031ZM42.964,29.894,23.229,20.46,30.255,17.1a1,1,0,0,0,.1-.053l12.193,5.829a.973.973,0,0,0,.839,0l12.193-5.829a.975.975,0,0,0,.1.053L62.7,20.46Z"/>
      <path id="Trazado_827164" data-name="Trazado 827164" d="M137.684,54.2a.973.973,0,1,0-.688-.285A.98.98,0,0,0,137.684,54.2Z" transform="translate(-105.354 -47.167)"/>
    </g>
  </g>
</svg>
