<svg xmlns="http://www.w3.org/2000/svg" width="102" height="111" viewBox="0 0 102 111">
  <g id="Grupo_1074556" data-name="Grupo 1074556" transform="translate(-199 -4847)">
    <rect id="Rectángulo_383413" data-name="Rectángulo 383413" width="102" height="111" rx="12" transform="translate(199 4847)" fill="#1682fb"/>
    <g id="scrum" transform="translate(179.349 4850.932)">
      <g id="Grupo_1074555" data-name="Grupo 1074555" transform="translate(33.849 10.255)">
        <path id="Trazado_827670" data-name="Trazado 827670" d="M190.939,249.4a2.347,2.347,0,0,0-1.658,4,.7.7,0,0,1,0,.984l-1.5,1.5a.7.7,0,0,1-.985,0,2.347,2.347,0,0,0-4,1.658.7.7,0,0,1-.7.7h-2.12a.7.7,0,0,1-.7-.7,2.345,2.345,0,0,0-4-1.658.7.7,0,0,1-.984,0l-1.5-1.5a.7.7,0,0,1,0-.984,2.347,2.347,0,0,0-1.658-4,.7.7,0,0,1-.7-.7v-2.119a.7.7,0,0,1,.7-.7,2.347,2.347,0,0,0,1.658-4,.7.7,0,0,1,0-.984l1.5-1.5a.7.7,0,0,1,.984,0,2.347,2.347,0,0,0,4-1.658.7.7,0,0,1,.7-.7h2.12a.7.7,0,0,1,.7.7,2.347,2.347,0,0,0,4,1.658.7.7,0,0,1,.985,0l1.5,1.5a.7.7,0,0,1,0,.984,2.347,2.347,0,0,0,1.658,4,.7.7,0,0,1,.7.7V248.7A.7.7,0,0,1,190.939,249.4Zm-9.9-6.848a5.092,5.092,0,1,0,5.092,5.092A5.092,5.092,0,0,0,181.037,242.549Z" transform="translate(-148.05 -199.204)" fill="#fdcd56" fill-rule="evenodd"/>
        <path id="Trazado_827671" data-name="Trazado 827671" d="M280.25,16A17.52,17.52,0,0,0,267.3,45.323l7.651-3.015A10.259,10.259,0,1,1,289.047,38.8l-3.372-1.947,1.45,4.959,1.45,4.959,5.02-1.224,5.02-1.224-3.277-1.892A17.524,17.524,0,0,0,280.25,16Z" transform="translate(-224.542 -16)" fill="#66d4f1" fill-rule="evenodd"/>
        <path id="Trazado_827672" data-name="Trazado 827672" d="M264.484,400.515H232.349V391.38h32.135v-4.8l4.475,4.683,4.475,4.683-4.475,4.683-4.475,4.683Z" transform="translate(-199.362 -323.144)" fill="#fdcd56" fill-rule="evenodd"/>
        <path id="Trazado_827673" data-name="Trazado 827673" d="M72.637,130.727a28.866,28.866,0,0,1,0,57.732H39.65v-9.136H72.637a19.729,19.729,0,1,0-19.729-19.729,19.951,19.951,0,0,0,.14,2.361l4.695-1.258-6.73,11.069L39.65,165.544l4.51-1.209a28.885,28.885,0,0,1,28.477-33.609Z" transform="translate(-39.65 -111.087)" fill="#f76c82" fill-rule="evenodd"/>
      </g>
      <path id="Trazado_827674" data-name="Trazado 827674" d="M100.17,89.423V87.614a1.2,1.2,0,0,0-1.2-1.2H78.6a30.168,30.168,0,0,0,9.8-6.739H98.971a1.2,1.2,0,0,0,1.2-1.2V76.669l6.094,6.376ZM90.491,9.068H88.623A18.741,18.741,0,0,0,70.839,27.762c0,.4.015.8.041,1.195A30.079,30.079,0,0,0,37.019,62.61l-3.48.932a1.2,1.2,0,0,0-.265,2.209l11.363,6.221a1.2,1.2,0,0,0,1.6-.428l6.73-11.069a1.2,1.2,0,0,0-1.334-1.78l-3.308.886q-.018-.416-.018-.832A18.531,18.531,0,1,1,66.837,77.279H33.849a1.2,1.2,0,0,0-1.2,1.2v9.135a1.2,1.2,0,0,0,1.2,1.2H97.773v3.6a1.2,1.2,0,0,0,.752,1.112,1.182,1.182,0,0,0,.446.087,1.2,1.2,0,0,0,.867-.37l8.95-9.366a1.2,1.2,0,0,0,0-1.655l-8.95-9.366a1.2,1.2,0,0,0-2.064.828v3.6H90.494a30.032,30.032,0,0,0-8.453-44.458,9.06,9.06,0,1,1,15.826-1.443l-2.286-1.319a1.2,1.2,0,0,0-1.75,1.373l2.9,9.918a1.2,1.2,0,0,0,1.434.828l10.039-2.448a1.2,1.2,0,0,0,.316-2.2l-2.263-1.306A18.723,18.723,0,0,0,90.491,9.068ZM35.047,86.415H66.836A27.645,27.645,0,1,0,39.542,63.3a1.2,1.2,0,0,1-.872,1.353l-1.624.435,7.737,4.235,4.582-7.536-1.808.484a1.2,1.2,0,0,1-1.5-1.015,21.269,21.269,0,0,1-.148-2.5A20.927,20.927,0,1,1,66.836,79.676H35.047ZM73.235,27.762a16.322,16.322,0,1,1,30.377,8.3,1.2,1.2,0,0,0,.432,1.649l.689.4-6.023,1.468-1.74-5.95.784.453a1.2,1.2,0,0,0,1.626-.42,11.456,11.456,0,1,0-20.794-2.585,29.835,29.835,0,0,0-5.269-1.687c-.053-.54-.083-1.084-.083-1.627Zm-6.4,27.023a3.894,3.894,0,1,1-3.894,3.894A3.9,3.9,0,0,1,66.836,54.786Zm0,10.184a6.29,6.29,0,1,1,6.291-6.29A6.3,6.3,0,0,1,66.836,64.97Zm-6.629-9.036a3.479,3.479,0,0,0-.435-3.482l.836-.837a3.55,3.55,0,0,0,5.637-2.334h1.183a3.549,3.549,0,0,0,5.637,2.334l.837.837a3.549,3.549,0,0,0,2.335,5.636v1.183A3.549,3.549,0,0,0,73.9,64.908l-.837.837a3.549,3.549,0,0,0-5.637,2.334H66.245a3.548,3.548,0,0,0-5.637-2.334l-.836-.837a3.549,3.549,0,0,0-2.335-5.637V58.088a3.478,3.478,0,0,0,2.77-2.154Zm-3.272-.208a1.148,1.148,0,0,0,.811-1.958,1.9,1.9,0,0,1,0-2.679l1.5-1.5a1.9,1.9,0,0,1,2.679,0,1.148,1.148,0,0,0,1.958-.811,1.9,1.9,0,0,1,1.895-1.895H67.9a1.9,1.9,0,0,1,1.895,1.895,1.148,1.148,0,0,0,1.958.811,1.9,1.9,0,0,1,2.679,0l1.5,1.5a1.9,1.9,0,0,1,0,2.679,1.148,1.148,0,0,0,.811,1.958,1.9,1.9,0,0,1,1.895,1.895v2.119a1.9,1.9,0,0,1-1.895,1.895,1.149,1.149,0,0,0-.811,1.959,1.9,1.9,0,0,1,0,2.679l-1.5,1.5a1.9,1.9,0,0,1-2.679,0,1.149,1.149,0,0,0-1.958.811A1.9,1.9,0,0,1,67.9,70.476H65.777a1.9,1.9,0,0,1-1.895-1.895,1.148,1.148,0,0,0-1.958-.811,1.9,1.9,0,0,1-2.679,0l-1.5-1.5a1.9,1.9,0,0,1,0-2.679,1.149,1.149,0,0,0-.811-1.959,1.9,1.9,0,0,1-1.895-1.895V57.62a1.9,1.9,0,0,1,1.895-1.894Z" fill-rule="evenodd"/>
    </g>
  </g>
</svg>
