<svg id="Grupo_1072932" data-name="Grupo 1072932" xmlns="http://www.w3.org/2000/svg" width="85.059" height="24.634" viewBox="0 0 85.059 24.634">
  <g id="Grupo_1072927" data-name="Grupo 1072927">
    <path id="Trazado_818457" data-name="Trazado 818457" d="M85.059,9.928l-1.424,1.424a9.744,9.744,0,0,1-13.78,0L69,10.495a9.747,9.747,0,0,0-13.78,0,9.744,9.744,0,0,1-13.78,0l-.078-.078a9.747,9.747,0,0,0-13.78,0l-.7.7a9.744,9.744,0,0,1-13.78,0l-.543-.545A9.742,9.742,0,0,0,0,9.546v4.293a9.74,9.74,0,0,1,12.554,1.025l.543.545a9.744,9.744,0,0,0,13.78,0l.7-.7a9.744,9.744,0,0,1,13.78,0l.078.078a9.744,9.744,0,0,0,13.78,0,9.744,9.744,0,0,1,13.78,0l.857.857a9.744,9.744,0,0,0,13.78,0l1.424-1.424Z" transform="translate(0 6.138)" fill="#add3fd"/>
    <path id="Trazado_818458" data-name="Trazado 818458" d="M85.059,2.364,83.635,3.788a9.744,9.744,0,0,1-13.78,0L69,2.931a9.744,9.744,0,0,0-13.78,0,9.744,9.744,0,0,1-13.78,0l-.078-.078a9.744,9.744,0,0,0-13.78,0l-.7.7a9.744,9.744,0,0,1-13.78,0l-.543-.545A9.742,9.742,0,0,0,0,1.982V6.273A9.742,9.742,0,0,1,12.554,7.3l.543.545a9.744,9.744,0,0,0,13.78,0l.7-.7a9.744,9.744,0,0,1,13.78,0l.078.078a9.744,9.744,0,0,0,13.78,0,9.744,9.744,0,0,1,13.78,0l.857.857a9.744,9.744,0,0,0,13.78,0l1.424-1.424Z" transform="translate(0 0.001)" fill="#add3fd"/>
  </g>
</svg>
