<svg xmlns="http://www.w3.org/2000/svg" width="86" height="86" viewBox="0 0 86 86">
  <g id="Grupo_1074567" data-name="Grupo 1074567" transform="translate(-541 -5868)">
    <g id="Grupo_1073140" data-name="Grupo 1073140" transform="translate(541 5868)">
      <circle id="Elipse_9665" data-name="Elipse 9665" cx="43" cy="43" r="43" fill="#ffce00"/>
    </g>
    <g id="estructura" transform="translate(542.208 5880)">
      <g id="Grupo_1074565" data-name="Grupo 1074565" transform="translate(12.62 0.88)">
        <g id="Grupo_1074561" data-name="Grupo 1074561" transform="translate(7.33)">
          <g id="Grupo_1074560" data-name="Grupo 1074560">
            <g id="Grupo_1074558" data-name="Grupo 1074558" transform="translate(0 0.393)">
              <path id="Trazado_827676" data-name="Trazado 827676" d="M80.829,43.378a1.839,1.839,0,0,1-1.839-1.839V17.874l1.226-5.657a1.839,1.839,0,0,1,1.839-1.839l36.522.379c1.016,0,2.691.823,2.691,1.354V38.987c0,1.5-1.821,4.029-2.836,4.029l-1.112.363H80.829Z" transform="translate(-78.99 -10.378)" fill="#f9f7f8"/>
            </g>
            <path id="Trazado_827677" data-name="Trazado 827677" d="M122.011,9.458v5.2l-3.265.391-39.755.012V9.014a1.839,1.839,0,0,1,1.839-1.839h36.163l2.864.127A2.426,2.426,0,0,1,122.011,9.458Z" transform="translate(-78.99 -7.175)" fill="#8abbd5"/>
            <g id="Grupo_1074559" data-name="Grupo 1074559" transform="translate(38.002 0)">
              <path id="Trazado_827678" data-name="Trazado 827678" d="M395.293,62.76l1.5,1.062V87.5a1.839,1.839,0,0,1-1.839,1.839H391.62l.388-.23a2.117,2.117,0,0,0,1.039-1.822V63.822Z" transform="translate(-391.293 -55.945)" fill="#efedef"/>
              <path id="Trazado_827679" data-name="Trazado 827679" d="M394.451,9.014v6.038H390.7V9.559a2.409,2.409,0,0,0-1.264-2.119l-.49-.264h3.663A1.839,1.839,0,0,1,394.451,9.014Z" transform="translate(-388.949 -7.175)" fill="#6cabca"/>
            </g>
          </g>
        </g>
        <g id="Grupo_1074562" data-name="Grupo 1074562" transform="translate(0 42.227)">
          <path id="Trazado_827680" data-name="Trazado 827680" d="M33.617,352.409v17.016a.563.563,0,0,1-.564.563l-1.717.245h-4.91a1.1,1.1,0,0,1-.466-.1c-.123-.054-.206-.37-.3-.465l-5.927-5.949c-.1-.1-.376-.122-.43-.243a1.109,1.109,0,0,1-.1-.467V352.164a.563.563,0,0,1,.563-.564H31.336l1.717.245A.564.564,0,0,1,33.617,352.409Z" transform="translate(-19.2 -351.6)" fill="#fce459"/>
          <path id="Trazado_827681" data-name="Trazado 827681" d="M118.4,351.6h-2.207a.517.517,0,0,1,.505.564V369.67a.516.516,0,0,1-.505.563H118.4a.563.563,0,0,0,.564-.563V352.164A.564.564,0,0,0,118.4,351.6Z" transform="translate(-104.297 -351.6)" fill="#f9d608"/>
          <path id="Trazado_827682" data-name="Trazado 827682" d="M26.689,448.987v6.11a1.085,1.085,0,0,1-.33-.227l-6.1-6.1a1.1,1.1,0,0,1-.228-.33h6.111A.547.547,0,0,1,26.689,448.987Z" transform="translate(-19.928 -436.567)" fill="#f9d608"/>
        </g>
        <g id="Grupo_1074563" data-name="Grupo 1074563" transform="translate(21.701 42.227)">
          <path id="Trazado_827683" data-name="Trazado 827683" d="M210.623,352.409v17.016a.563.563,0,0,1-.564.563l-1.717.245h-4.91a1.1,1.1,0,0,1-.466-.1c-.123-.054-.206-.37-.3-.465l-5.927-5.949c-.1-.1-.376-.122-.43-.243a1.109,1.109,0,0,1-.1-.467V352.164a.563.563,0,0,1,.563-.564h11.573l1.717.245A.564.564,0,0,1,210.623,352.409Z" transform="translate(-196.206 -351.6)" fill="#fce459"/>
          <path id="Trazado_827684" data-name="Trazado 827684" d="M295.4,351.6h-2.207a.517.517,0,0,1,.505.564V369.67a.516.516,0,0,1-.505.563H295.4a.563.563,0,0,0,.564-.563V352.164A.564.564,0,0,0,295.4,351.6Z" transform="translate(-281.302 -351.6)" fill="#f9d608"/>
          <path id="Trazado_827685" data-name="Trazado 827685" d="M203.694,448.987v6.11a1.085,1.085,0,0,1-.33-.227l-6.1-6.1a1.1,1.1,0,0,1-.228-.33h6.111A.547.547,0,0,1,203.694,448.987Z" transform="translate(-196.933 -436.567)" fill="#f9d608"/>
        </g>
        <g id="Grupo_1074564" data-name="Grupo 1074564" transform="translate(43.503 42.227)">
          <path id="Trazado_827686" data-name="Trazado 827686" d="M388.45,352.409v17.016a.563.563,0,0,1-.564.563l-1.717.245h-4.91a1.1,1.1,0,0,1-.466-.1c-.123-.054-.206-.37-.3-.465l-5.927-5.949c-.1-.1-.376-.122-.43-.243a1.109,1.109,0,0,1-.1-.467V352.164a.563.563,0,0,1,.563-.564h11.573l1.717.245A.564.564,0,0,1,388.45,352.409Z" transform="translate(-374.033 -351.6)" fill="#fce459"/>
          <path id="Trazado_827687" data-name="Trazado 827687" d="M473.227,351.6H471.02a.517.517,0,0,1,.505.564V369.67a.516.516,0,0,1-.505.563h2.207a.563.563,0,0,0,.564-.563V352.164A.564.564,0,0,0,473.227,351.6Z" transform="translate(-459.129 -351.6)" fill="#f9d608"/>
          <path id="Trazado_827688" data-name="Trazado 827688" d="M381.521,448.987v6.11a1.084,1.084,0,0,1-.33-.227l-6.1-6.1a1.1,1.1,0,0,1-.228-.33h6.111A.547.547,0,0,1,381.521,448.987Z" transform="translate(-374.76 -436.567)" fill="#f9d608"/>
        </g>
      </g>
      <g id="Grupo_1074566" data-name="Grupo 1074566" transform="translate(11.7 0)">
        <path id="Trazado_827689" data-name="Trazado 827689" d="M113.812,35.192H74.41a2.924,2.924,0,0,1-2.92-2.92V2.92A2.924,2.924,0,0,1,74.41,0h4.973a.92.92,0,0,1,0,1.839H74.41A1.083,1.083,0,0,0,73.329,2.92V32.271a1.083,1.083,0,0,0,1.081,1.081h39.4a1.083,1.083,0,0,0,1.081-1.081v-7.73a.92.92,0,1,1,1.839,0v7.73A2.924,2.924,0,0,1,113.812,35.192Zm2-14.022a.92.92,0,0,1-.914-.825l-2-19.331A.92.92,0,0,1,113.812,0a2.924,2.924,0,0,1,2.92,2.92V20.25a.92.92,0,0,1-.872.918Z" transform="translate(-64.16 0)"/>
        <path id="Línea_307" data-name="Línea 307" d="M36.158-5.661H-6.58a.92.92,0,0,1-.92-.92.92.92,0,0,1,.92-.92H36.158a.92.92,0,0,1,.92.92A.92.92,0,0,1,36.158-5.661Z" transform="translate(15.163 15.309)"/>
        <path id="Línea_308" data-name="Línea 308" transform="translate(20.865 4.824)"/>
        <path id="Línea_309" data-name="Línea 309" transform="translate(16.678 4.824)"/>
        <path id="Línea_310" data-name="Línea 310" transform="translate(12.492 4.824)"/>
        <path id="Trazado_827690" data-name="Trazado 827690" d="M174.619,144.593a.917.917,0,0,1-.65-.269l-3.759-3.759a.919.919,0,0,1,0-1.3l3.759-3.759a.92.92,0,0,1,1.3,1.3l-3.109,3.109,3.109,3.109a.92.92,0,0,1-.65,1.57Z" transform="translate(-150.54 -118.656)"/>
        <path id="Trazado_827691" data-name="Trazado 827691" d="M297.32,144.593a.92.92,0,0,1-.65-1.57l3.109-3.109-3.109-3.109a.92.92,0,0,1,1.3-1.3l3.759,3.759a.92.92,0,0,1,0,1.3l-3.759,3.759A.917.917,0,0,1,297.32,144.593Z" transform="translate(-261.495 -118.656)"/>
        <path id="Línea_311" data-name="Línea 311" d="M-6.582,3.7a.918.918,0,0,1-.312-.055.92.92,0,0,1-.553-1.177l3.38-9.363A.92.92,0,0,1-2.89-7.447.92.92,0,0,1-2.337-6.27l-3.38,9.363A.92.92,0,0,1-6.582,3.7Z" transform="translate(34.844 23.16)"/>
        <path id="Trazado_827692" data-name="Trazado 827692" d="M197.928,448.885a.92.92,0,0,1-.92-.919v-5.19h-5.626a.92.92,0,1,1,0-1.839h6.545a.919.919,0,0,1,.92.919v6.109A.92.92,0,0,1,197.928,448.885Z" transform="translate(-168.546 -386.877)"/>
        <path id="Trazado_827693" data-name="Trazado 827693" d="M203.723,364.574h-6.872a2.031,2.031,0,0,1-1.447-.6l-6.1-6.1a2.032,2.032,0,0,1-.6-1.447V345.585a1.484,1.484,0,0,1,1.483-1.483h13.536a1.484,1.484,0,0,1,1.483,1.483v17.507A1.484,1.484,0,0,1,203.723,364.574Zm-13.179-18.633v10.486a.208.208,0,0,0,.06.146l6.1,6.1a.2.2,0,0,0,.146.061h6.515V345.941Z" transform="translate(-167.004 -301.914)"/>
        <path id="Trazado_827694" data-name="Trazado 827694" d="M374.938,449.8a.919.919,0,0,1-.92-.919V443.7h-5.626a.919.919,0,1,1,0-1.839h6.545a.919.919,0,0,1,.92.919v6.109A.92.92,0,0,1,374.938,449.8Z" transform="translate(-323.854 -387.683)"/>
        <path id="Trazado_827695" data-name="Trazado 827695" d="M380.729,365.492h-6.872a2.059,2.059,0,0,1-1.446-.6l-6.1-6.1a2.034,2.034,0,0,1-.6-1.447V346.5a1.485,1.485,0,0,1,1.483-1.482h13.535a1.484,1.484,0,0,1,1.482,1.482v9.165a.92.92,0,0,1-1.839,0v-8.808H367.549v10.486a.207.207,0,0,0,.062.147l6.1,6.1a.207.207,0,0,0,.146.06h6.515v-3.7a.92.92,0,0,1,1.839,0v4.052A1.484,1.484,0,0,1,380.729,365.492Z" transform="translate(-322.307 -302.72)"/>
        <path id="Trazado_827696" data-name="Trazado 827696" d="M20.919,448.885a.92.92,0,0,1-.92-.919v-5.19H14.374a.92.92,0,1,1,0-1.839h6.545a.919.919,0,0,1,.92.919v6.109A.92.92,0,0,1,20.919,448.885Z" transform="translate(-13.239 -386.877)"/>
        <path id="Trazado_827697" data-name="Trazado 827697" d="M26.718,364.572H19.846a2.059,2.059,0,0,1-1.446-.6l-6.1-6.1a2.033,2.033,0,0,1-.6-1.447V345.584a1.485,1.485,0,0,1,1.482-1.483H26.718a1.485,1.485,0,0,1,1.483,1.483v2.973a.92.92,0,1,1-1.839,0v-2.618H13.539v10.486a.206.206,0,0,0,.06.147l6.1,6.1a.207.207,0,0,0,.145.06h6.516v-9.885a.92.92,0,0,1,1.839,0V363.09A1.485,1.485,0,0,1,26.718,364.572Z" transform="translate(-11.7 -301.913)"/>
        <path id="Línea_312" data-name="Línea 312" d="M-6.58,2.359a.92.92,0,0,1-.92-.92V-6.58a.92.92,0,0,1,.92-.92.92.92,0,0,1,.92.92v8.02A.92.92,0,0,1-6.58,2.359Z" transform="translate(36.532 41.366)"/>
        <path id="Trazado_827698" data-name="Trazado 827698" d="M115.813,314.028a.92.92,0,0,1-.92-.919v-2.627a.57.57,0,0,0-.569-.569H73.9a.57.57,0,0,0-.569.569v2.549a.92.92,0,1,1-1.839,0v-2.549a2.411,2.411,0,0,1,2.408-2.408h40.426a2.411,2.411,0,0,1,2.408,2.408v2.627A.92.92,0,0,1,115.813,314.028Z" transform="translate(-64.16 -270.302)"/>
        <path id="Trazado_827699" data-name="Trazado 827699" d="M38.066,380.821a.92.92,0,0,1-.65-1.57l1.6-1.6-1.6-1.6a.92.92,0,0,1,1.3-1.3L40.963,377a.92.92,0,0,1,0,1.3l-2.248,2.248A.917.917,0,0,1,38.066,380.821Z" transform="translate(-34.026 -328.574)"/>
        <path id="Línea_313" data-name="Línea 313" d="M-3.627-5.661H-6.58a.92.92,0,0,1-.92-.92.92.92,0,0,1,.92-.92h2.953a.92.92,0,0,1,.92.92A.92.92,0,0,1-3.627-5.661Z" transform="translate(16.024 55.661)"/>
        <path id="Trazado_827700" data-name="Trazado 827700" d="M215.339,380.821a.92.92,0,0,1-.65-1.57l1.6-1.6-1.6-1.6a.92.92,0,1,1,1.3-1.3L218.236,377a.919.919,0,0,1,0,1.3l-2.248,2.248A.917.917,0,0,1,215.339,380.821Z" transform="translate(-189.565 -328.574)"/>
        <path id="Línea_314" data-name="Línea 314" d="M-3.628-5.661H-6.58a.92.92,0,0,1-.92-.92.92.92,0,0,1,.92-.92h2.953a.92.92,0,0,1,.92.92A.92.92,0,0,1-3.628-5.661Z" transform="translate(37.758 55.661)"/>
        <path id="Trazado_827701" data-name="Trazado 827701" d="M392.349,380.821a.92.92,0,0,1-.65-1.57l1.6-1.6-1.6-1.6a.92.92,0,1,1,1.3-1.3L395.246,377a.919.919,0,0,1,0,1.3L393,380.552A.917.917,0,0,1,392.349,380.821Z" transform="translate(-344.873 -328.574)"/>
        <path id="Línea_315" data-name="Línea 315" d="M-3.628-5.661H-6.58a.92.92,0,0,1-.92-.92.92.92,0,0,1,.92-.92h2.953a.92.92,0,0,1,.92.92A.92.92,0,0,1-3.628-5.661Z" transform="translate(59.46 55.661)"/>
      </g>
    </g>
  </g>
</svg>
