<svg xmlns="http://www.w3.org/2000/svg" xmlns:xlink="http://www.w3.org/1999/xlink" width="610" height="244.202" viewBox="0 0 610 244.202">
  <defs>
    <clipPath id="clip-path">
      <rect id="Rect치ngulo_383474" data-name="Rect치ngulo 383474" width="610" height="232" rx="14" transform="translate(180 1098)" fill="#1682fb"/>
    </clipPath>
  </defs>
  <g id="Grupo_1074515" data-name="Grupo 1074515" transform="translate(-180 -1085.798)">
    <rect id="Rect치ngulo_383414" data-name="Rect치ngulo 383414" width="610" height="193" rx="14" transform="translate(180 1120)" fill="#1682fb"/>
    <g id="Enmascarar_grupo_179" data-name="Enmascarar grupo 179" clip-path="url(#clip-path)">
      <g id="Grupo_1074514" data-name="Grupo 1074514" transform="translate(-67.212 -30.841)" opacity="0.386">
        <path id="Trazado_827401" data-name="Trazado 827401" d="M5.607,4.379v-74.7H32.953q13.185,0,22.061,8.593t8.876,22.035V-26.25q0,13.493-8.876,22.061T32.953,4.379Zm17.341-61.36V-8.961h10a11.884,11.884,0,0,0,9.722-4.823Q46.5-18.606,46.5-26.25V-39.794q0-7.542-3.822-12.364a11.884,11.884,0,0,0-9.722-4.823ZM92.62,4.379H75.33v-74.7H92.62Zm51.51-19.8a7.447,7.447,0,0,0-2.617-6.131q-2.617-2.129-9.491-4.54-13.9-4.515-20.65-9.62t-6.747-14.7a18.022,18.022,0,0,1,7.85-15.186q7.85-5.8,19.957-5.8,12.775,0,20.573,5.977t7.542,16.853l-.1.308H143.616q0-5.284-2.873-7.67t-8.67-2.386a11.129,11.129,0,0,0-7.439,2.309,7.187,7.187,0,0,0-2.719,5.695,6.137,6.137,0,0,0,2.8,5.259q2.8,1.975,10.44,4.951,12.98,3.848,19.65,9.389t6.67,15.186a17.97,17.97,0,0,1-7.7,15.417q-7.7,5.567-20.419,5.567-12.672,0-21.471-5.977t-8.542-18.8l.1-.308h16.879q0,6.516,3.207,9.26t9.825,2.745q5.438,0,8.106-2.155A6.906,6.906,0,0,0,144.129-15.425Zm44.122-5.8v25.6H170.91v-74.7h28.525q13.288,0,21.086,6.772t7.8,17.8q0,11.03-7.8,17.777t-21.086,6.747Zm0-13.339h11.184q5.643,0,8.619-3.1a11.054,11.054,0,0,0,2.976-7.978,11.522,11.522,0,0,0-2.95-8.157q-2.95-3.181-8.645-3.181H188.251ZM299.992-26.25q0,13.8-8.747,22.753T268.388,5.456q-14.211,0-23.036-8.953T236.528-26.25V-39.692q0-13.75,8.8-22.728T268.286-71.4q14.057,0,22.882,8.978t8.824,22.728ZM282.7-39.794q0-8-3.771-13.134a12.438,12.438,0,0,0-10.646-5.13q-7.029,0-10.748,5.1t-3.72,13.16V-26.25q0,8.106,3.771,13.237t10.8,5.13a12.319,12.319,0,0,0,10.569-5.13q3.745-5.13,3.745-13.237ZM372.844,4.379h-17.29L328.209-42.616l-.308.1V4.379H310.56v-74.7H327.9l27.345,46.943.308-.1V-70.321h17.29Zm30.27,0h-17.29v-74.7h17.29Zm12.98,0v-74.7h24.472q13.9,0,21.676,5.156T470.014-49.8a18.125,18.125,0,0,1-2.463,9.466,15.165,15.165,0,0,1-7.7,6.233q6.67,1.437,9.876,5.951a17.529,17.529,0,0,1,3.207,10.415q0,10.928-7.337,16.52T444.567,4.379Zm17.341-32.065V-8.961h11.133q5.541,0,8.311-2.18t2.77-6.7q0-4.771-2.437-7.234t-8.029-2.617H433.434Zm0-11.492h6.823q6.259,0,9.337-2.18a7.435,7.435,0,0,0,3.078-6.49q0-4.771-2.976-6.952t-9.132-2.18h-7.131Zm68.03,43.557h-17.29v-74.7h17.29ZM531.785-8.961H563.85V4.379H514.444v-74.7h17.341ZM591.5,4.379h-17.29v-74.7H591.5Zm12.98,0v-74.7h27.345q13.185,0,22.061,8.593t8.876,22.035V-26.25q0,13.493-8.876,22.061T631.828,4.379Zm17.341-61.36V-8.961h10a11.884,11.884,0,0,0,9.722-4.823q3.822-4.823,3.822-12.467V-39.794q0-7.542-3.822-12.364a11.884,11.884,0,0,0-9.722-4.823Zm89.321,46.841H688.93L684.62,4.379H666.356l24.37-74.7h9.286v.051l.051-.051h9.286l24.421,74.7H715.505ZM692.932-23.48h14.211l-6.977-23.19h-.308ZM739.105,4.379v-74.7h27.345q13.185,0,22.061,8.593t8.876,22.035V-26.25q0,13.493-8.876,22.061T766.451,4.379Zm17.341-61.36V-8.961h10a11.884,11.884,0,0,0,9.722-4.823Q780-18.606,780-26.25V-39.794q0-7.542-3.822-12.364a11.884,11.884,0,0,0-9.722-4.823Z" transform="translate(150.337 1370.741)" fill="none" stroke="#fff" stroke-width="1"/>
        <path id="Trazado_827402" data-name="Trazado 827402" d="M5.607,4.379v-74.7H32.953q13.185,0,22.061,8.593t8.876,22.035V-26.25q0,13.493-8.876,22.061T32.953,4.379Zm17.341-61.36V-8.961h10a11.884,11.884,0,0,0,9.722-4.823Q46.5-18.606,46.5-26.25V-39.794q0-7.542-3.822-12.364a11.884,11.884,0,0,0-9.722-4.823ZM92.62,4.379H75.33v-74.7H92.62Zm51.51-19.8a7.447,7.447,0,0,0-2.617-6.131q-2.617-2.129-9.491-4.54-13.9-4.515-20.65-9.62t-6.747-14.7a18.022,18.022,0,0,1,7.85-15.186q7.85-5.8,19.957-5.8,12.775,0,20.573,5.977t7.542,16.853l-.1.308H143.616q0-5.284-2.873-7.67t-8.67-2.386a11.129,11.129,0,0,0-7.439,2.309,7.187,7.187,0,0,0-2.719,5.695,6.137,6.137,0,0,0,2.8,5.259q2.8,1.975,10.44,4.951,12.98,3.848,19.65,9.389t6.67,15.186a17.97,17.97,0,0,1-7.7,15.417q-7.7,5.567-20.419,5.567-12.672,0-21.471-5.977t-8.542-18.8l.1-.308h16.879q0,6.516,3.207,9.26t9.825,2.745q5.438,0,8.106-2.155A6.906,6.906,0,0,0,144.129-15.425Zm44.122-5.8v25.6H170.91v-74.7h28.525q13.288,0,21.086,6.772t7.8,17.8q0,11.03-7.8,17.777t-21.086,6.747Zm0-13.339h11.184q5.643,0,8.619-3.1a11.054,11.054,0,0,0,2.976-7.978,11.522,11.522,0,0,0-2.95-8.157q-2.95-3.181-8.645-3.181H188.251ZM299.992-26.25q0,13.8-8.747,22.753T268.388,5.456q-14.211,0-23.036-8.953T236.528-26.25V-39.692q0-13.75,8.8-22.728T268.286-71.4q14.057,0,22.882,8.978t8.824,22.728ZM282.7-39.794q0-8-3.771-13.134a12.438,12.438,0,0,0-10.646-5.13q-7.029,0-10.748,5.1t-3.72,13.16V-26.25q0,8.106,3.771,13.237t10.8,5.13a12.319,12.319,0,0,0,10.569-5.13q3.745-5.13,3.745-13.237ZM372.844,4.379h-17.29L328.209-42.616l-.308.1V4.379H310.56v-74.7H327.9l27.345,46.943.308-.1V-70.321h17.29Zm30.27,0h-17.29v-74.7h17.29Zm12.98,0v-74.7h24.472q13.9,0,21.676,5.156T470.014-49.8a18.125,18.125,0,0,1-2.463,9.466,15.165,15.165,0,0,1-7.7,6.233q6.67,1.437,9.876,5.951a17.529,17.529,0,0,1,3.207,10.415q0,10.928-7.337,16.52T444.567,4.379Zm17.341-32.065V-8.961h11.133q5.541,0,8.311-2.18t2.77-6.7q0-4.771-2.437-7.234t-8.029-2.617H433.434Zm0-11.492h6.823q6.259,0,9.337-2.18a7.435,7.435,0,0,0,3.078-6.49q0-4.771-2.976-6.952t-9.132-2.18h-7.131Zm68.03,43.557h-17.29v-74.7h17.29ZM531.785-8.961H563.85V4.379H514.444v-74.7h17.341ZM591.5,4.379h-17.29v-74.7H591.5Zm12.98,0v-74.7h27.345q13.185,0,22.061,8.593t8.876,22.035V-26.25q0,13.493-8.876,22.061T631.828,4.379Zm17.341-61.36V-8.961h10a11.884,11.884,0,0,0,9.722-4.823q3.822-4.823,3.822-12.467V-39.794q0-7.542-3.822-12.364a11.884,11.884,0,0,0-9.722-4.823Zm89.321,46.841H688.93L684.62,4.379H666.356l24.37-74.7h9.286v.051l.051-.051h9.286l24.421,74.7H715.505ZM692.932-23.48h14.211l-6.977-23.19h-.308ZM739.105,4.379v-74.7h27.345q13.185,0,22.061,8.593t8.876,22.035V-26.25q0,13.493-8.876,22.061T766.451,4.379Zm17.341-61.36V-8.961h10a11.884,11.884,0,0,0,9.722-4.823Q780-18.606,780-26.25V-39.794q0-7.542-3.822-12.364a11.884,11.884,0,0,0-9.722-4.823Z" transform="translate(150.337 1285.835)" fill="none" stroke="#fff" stroke-width="1"/>
        <path id="Trazado_827403" data-name="Trazado 827403" d="M5.607,4.379v-74.7H32.953q13.185,0,22.061,8.593t8.876,22.035V-26.25q0,13.493-8.876,22.061T32.953,4.379Zm17.341-61.36V-8.961h10a11.884,11.884,0,0,0,9.722-4.823Q46.5-18.606,46.5-26.25V-39.794q0-7.542-3.822-12.364a11.884,11.884,0,0,0-9.722-4.823ZM92.62,4.379H75.33v-74.7H92.62Zm51.51-19.8a7.447,7.447,0,0,0-2.617-6.131q-2.617-2.129-9.491-4.54-13.9-4.515-20.65-9.62t-6.747-14.7a18.022,18.022,0,0,1,7.85-15.186q7.85-5.8,19.957-5.8,12.775,0,20.573,5.977t7.542,16.853l-.1.308H143.616q0-5.284-2.873-7.67t-8.67-2.386a11.129,11.129,0,0,0-7.439,2.309,7.187,7.187,0,0,0-2.719,5.695,6.137,6.137,0,0,0,2.8,5.259q2.8,1.975,10.44,4.951,12.98,3.848,19.65,9.389t6.67,15.186a17.97,17.97,0,0,1-7.7,15.417q-7.7,5.567-20.419,5.567-12.672,0-21.471-5.977t-8.542-18.8l.1-.308h16.879q0,6.516,3.207,9.26t9.825,2.745q5.438,0,8.106-2.155A6.906,6.906,0,0,0,144.129-15.425Zm44.122-5.8v25.6H170.91v-74.7h28.525q13.288,0,21.086,6.772t7.8,17.8q0,11.03-7.8,17.777t-21.086,6.747Zm0-13.339h11.184q5.643,0,8.619-3.1a11.054,11.054,0,0,0,2.976-7.978,11.522,11.522,0,0,0-2.95-8.157q-2.95-3.181-8.645-3.181H188.251ZM299.992-26.25q0,13.8-8.747,22.753T268.388,5.456q-14.211,0-23.036-8.953T236.528-26.25V-39.692q0-13.75,8.8-22.728T268.286-71.4q14.057,0,22.882,8.978t8.824,22.728ZM282.7-39.794q0-8-3.771-13.134a12.438,12.438,0,0,0-10.646-5.13q-7.029,0-10.748,5.1t-3.72,13.16V-26.25q0,8.106,3.771,13.237t10.8,5.13a12.319,12.319,0,0,0,10.569-5.13q3.745-5.13,3.745-13.237ZM372.844,4.379h-17.29L328.209-42.616l-.308.1V4.379H310.56v-74.7H327.9l27.345,46.943.308-.1V-70.321h17.29Zm30.27,0h-17.29v-74.7h17.29Zm12.98,0v-74.7h24.472q13.9,0,21.676,5.156T470.014-49.8a18.125,18.125,0,0,1-2.463,9.466,15.165,15.165,0,0,1-7.7,6.233q6.67,1.437,9.876,5.951a17.529,17.529,0,0,1,3.207,10.415q0,10.928-7.337,16.52T444.567,4.379Zm17.341-32.065V-8.961h11.133q5.541,0,8.311-2.18t2.77-6.7q0-4.771-2.437-7.234t-8.029-2.617H433.434Zm0-11.492h6.823q6.259,0,9.337-2.18a7.435,7.435,0,0,0,3.078-6.49q0-4.771-2.976-6.952t-9.132-2.18h-7.131Zm68.03,43.557h-17.29v-74.7h17.29ZM531.785-8.961H563.85V4.379H514.444v-74.7h17.341ZM591.5,4.379h-17.29v-74.7H591.5Zm12.98,0v-74.7h27.345q13.185,0,22.061,8.593t8.876,22.035V-26.25q0,13.493-8.876,22.061T631.828,4.379Zm17.341-61.36V-8.961h10a11.884,11.884,0,0,0,9.722-4.823q3.822-4.823,3.822-12.467V-39.794q0-7.542-3.822-12.364a11.884,11.884,0,0,0-9.722-4.823Zm89.321,46.841H688.93L684.62,4.379H666.356l24.37-74.7h9.286v.051l.051-.051h9.286l24.421,74.7H715.505ZM692.932-23.48h14.211l-6.977-23.19h-.308ZM739.105,4.379v-74.7h27.345q13.185,0,22.061,8.593t8.876,22.035V-26.25q0,13.493-8.876,22.061T766.451,4.379Zm17.341-61.36V-8.961h10a11.884,11.884,0,0,0,9.722-4.823Q780-18.606,780-26.25V-39.794q0-7.542-3.822-12.364a11.884,11.884,0,0,0-9.722-4.823Z" transform="translate(150.337 1193.5)" fill="none" stroke="#fff" stroke-width="1"/>
      </g>
    </g>
    <g id="Grupo_1073069" data-name="Grupo 1073069" transform="translate(-380 689.175)">
      <g id="Grupo_1073067" data-name="Grupo 1073067" transform="translate(679 396.623)">
        <g id="Grupo_1073068" data-name="Grupo 1073068" transform="translate(0 0)">
          <path id="Trazado_819910" data-name="Trazado 819910" d="M541.531,164.264c2.032,2.989,5.126,4.919,2.225,7.655-3.236,3.053-12.148,12.311-12.148,12.311l8.008,17.575s12.555-12.673,19.13-19.726,10.125-14.316,5.821-21.849-23.036,4.036-23.036,4.036" transform="translate(-217.088 -55.848)" fill="#f2ac30"/>
          <path id="Trazado_819911" data-name="Trazado 819911" d="M541.077,164.193c.867,1.225,1.9,2.324,2.745,3.562,1.154,1.69.294,2.964-1,4.2-1.564,1.5-3.083,3.052-4.6,4.6q-3.53,3.583-7.018,7.212a.333.333,0,0,0-.05.391q4,8.786,8.008,17.575a.325.325,0,0,0,.507.066q4.831-4.878,9.616-9.8,3.753-3.855,7.463-7.749a49.26,49.26,0,0,0,7.574-9.524,15.716,15.716,0,0,0,2.023-10.521c-.443-2.479-1.619-5.382-4.044-6.492-4.1-1.875-9.653.477-13.439,2.094a58.49,58.49,0,0,0-7.669,3.942c-.355.218-.031.777.325.557a57.971,57.971,0,0,1,9.675-4.753,23.774,23.774,0,0,1,7.714-1.784c3.157-.088,4.908,1.392,6.1,4.226,3.73,8.841-3.972,16.811-9.555,22.675-4.6,4.828-9.265,9.59-13.943,14.338q-1.149,1.167-2.3,2.331l.507.066q-3.991-8.76-7.982-17.518c-.095-.208-.206.468-.011.266l.375-.389q.887-.92,1.776-1.837,2.795-2.884,5.612-5.741,1.371-1.388,2.756-2.761a13.783,13.783,0,0,0,2.311-2.379c1.626-2.752-1.469-5.127-2.923-7.182-.238-.336-.8-.015-.557.326" transform="translate(-216.913 -55.615)" fill="#f2ac30"/>
          <path id="Trazado_819912" data-name="Trazado 819912" d="M460.458,233.328c-.384,5.252-5.068,54.876-7.713,82.8H481.9l7.967-68.276,6.548,68.276h33.3c-2.384-23.548-6.236-61.17-7.207-68.095-1.436-10.223-3.408-28.275-12.016-42.98-5.918-.9-53.44,10.163-53.44,10.163,1.076,3.227,3.945,10.759,3.407,18.112" transform="translate(-189.156 -72.608)" fill="#32015c"/>
          <path id="Trazado_819913" data-name="Trazado 819913" d="M455.075,285.968q-1.412,14.989-2.836,29.977h.644q1.97-20.791,3.929-41.583c1.29-13.729,2.774-27.463,3.79-41.217.379-6.2-1.368-12.071-3.311-17.876q9.837-2.285,19.714-4.4c9.829-2.113,19.764-4.455,29.77-5.553.838-.092,3.071-.608,3.532.188a70.9,70.9,0,0,1,5.661,12.828,132.258,132.258,0,0,1,5.228,23.685c1.185,8.246,2.069,16.523,2.95,24.806q2.613,24.551,5.068,49.118h.645q-2.365-23.414-4.824-46.817c-.84-7.942-1.652-15.888-2.734-23.8a170.367,170.367,0,0,0-4.313-22.609,85.211,85.211,0,0,0-4.386-12.175,64.5,64.5,0,0,0-3.013-5.836c-.172-.3-.887-.209-1.173-.211a60.616,60.616,0,0,0-10.389,1.333c-5.322.922-10.617,1.992-15.9,3.09q-12.727,2.646-25.393,5.583l-.947.22a.323.323,0,0,0-.225.4c1.968,5.855,3.778,11.766,3.4,18.026-1.3,17.627-3.223,35.227-4.881,52.823" transform="translate(-188.977 -72.425)" fill="#32015c"/>
          <path id="Trazado_819914" data-name="Trazado 819914" d="M506.006,271.183a.323.323,0,0,0-.646,0q-2.5,21.411-5,42.821-1.486,12.727-2.97,25.455h.645q1.523-13.048,3.045-26.095,2.284-19.571,4.567-39.143,1.916,19.972,3.831,39.944l2.426,25.293h.647q-1.259-13.128-2.519-26.256l-4.03-42.019" transform="translate(-204.97 -95.939)" fill="#32015c"/>
          <path id="Trazado_819915" data-name="Trazado 819915" d="M322.373,86.159c-.716-2.151-3.7-10.641-3.7-10.641s-8.728-5.5-12.553-7.65-5.5-9.564.717-11.358c1.674-3.108,4.231-3.38,5.666-2.544.955-7.054,4.524-7.9,8.469-6.588s6.347,4.7,8.737,10.083,2.951,8.254,4.982,13.633,3.586,9.446,3.586,9.446-4.663,9.8-15.9,5.618" transform="translate(-136.012 -16.597)" fill="#ffd4d4"/>
          <path id="Trazado_819916" data-name="Trazado 819916" d="M327.115,74.7a9.564,9.564,0,1,1-9.564-9.563,9.564,9.564,0,0,1,9.564,9.563" transform="translate(-137.885 -23.069)" fill="#d4336e"/>
          <path id="Trazado_819917" data-name="Trazado 819917" d="M305.573,69.23c1.346,1.524,3.587.717,3.228-2.6,2.241-.181,2.689-3.318,4.752-6.1.9,3.587,2.512,4.035,3.677,3.5s2.152-1.255,2.24-4.572,1.077-4.214,2.512-3.766,2.69,3.766,4.483,7.891,1.973,7.353-.628,7.979-4.93,1.615-6.454,4.394.269,5.469,5.022,3.408,6.186-5.381,6.186-5.381-.09-8.338-2.869-15.151-9.058-5.381-9.058-5.381l-7.441,5.56L305.3,65.375" transform="translate(-136.935 -18.886)" fill="#ffd4d4"/>
          <path id="Trazado_819918" data-name="Trazado 819918" d="M473.359,63.814c3.466.3,7.114-3.587,6.277-8.249s-8.19,2.451-8.19,2.451Z" transform="translate(-195.78 -19.119)" fill="#495edb"/>
          <path id="Trazado_819919" data-name="Trazado 819919" d="M473.182,63.943a6.536,6.536,0,0,0,5.949-3.866c.744-1.434,1.6-5.278-.249-6.332-2.466-1.406-6.227,2.295-7.842,3.848a.32.32,0,0,0-.083.314l1.913,5.8c.13.393.754.225.623-.172q-.816-2.474-1.633-4.948l-.254-.772c.022.067-.227.343.114.025.55-.511,1.126-.994,1.714-1.461,1.08-.858,4.414-3.546,5.516-1.585.929,1.653.081,4.241-.8,5.713a5.624,5.624,0,0,1-4.97,2.791c-.417-.018-.415.628,0,.646" transform="translate(-195.602 -18.925)" fill="#495edb"/>
          <path id="Trazado_819920" data-name="Trazado 819920" d="M419.1,32.07c-.718,4.542-1.555,8.459,2.51,15.751s5.5,16.468,18.889,14.614a46.438,46.438,0,0,1,1.675,6.1l17.573-3.825-5.619-17.1c7.473-2.209,7.35-6.906,6.035-10.014s-12.968-15.448-17.154-16.524-19.605-.239-23.909,11" transform="translate(-177.028 -7.34)" fill="#ffd4d4"/>
          <path id="Trazado_819921" data-name="Trazado 819921" d="M449.6,57.519c1.1-1.232-.911-3.885-2.076-2.765s1.172,3.777,2.076,2.765" transform="translate(-187.193 -19.297)"/>
          <path id="Trazado_819922" data-name="Trazado 819922" d="M430.578,60.019c1.1-1.234-.912-3.885-2.079-2.765s1.175,3.777,2.079,2.765" transform="translate(-180.456 -20.183)"/>
          <path id="Trazado_819923" data-name="Trazado 819923" d="M435.544,63.253a6.973,6.973,0,0,1-3.383-.936c-1.561-1.041-1.407-2.537-1.053-3.865.759-3.282-.78-6.157-4.226-7.876a.323.323,0,1,1,.289-.577c3.679,1.836,5.385,5.055,4.564,8.61-.371,1.392-.372,2.4.76,3.157a6.328,6.328,0,0,0,3.05.842.323.323,0,0,1,0,.646" transform="translate(-179.932 -17.696)"/>
          <path id="Trazado_819924" data-name="Trazado 819924" d="M441.28,71.587a.323.323,0,0,1-.075-.637,11.772,11.772,0,0,0,6.643-4.259.323.323,0,0,1,.495.416,12.371,12.371,0,0,1-6.988,4.47.3.3,0,0,1-.075.009" transform="translate(-184.981 -23.58)"/>
          <path id="Trazado_819925" data-name="Trazado 819925" d="M452.665,77.928a.323.323,0,0,1-.117-.624,15.637,15.637,0,0,0,5.564-3.808l.271-.309a14.221,14.221,0,0,0,2.006-2.666,25.986,25.986,0,0,0,1.416-3.189,9.459,9.459,0,0,0,.759-3.117.323.323,0,1,1,.646,0,9.986,9.986,0,0,1-.8,3.342,26.62,26.62,0,0,1-1.451,3.266,14.718,14.718,0,0,1-2.092,2.792l-.281.318a16.286,16.286,0,0,1-5.8,3.972.323.323,0,0,1-.117.022" transform="translate(-189.013 -22.63)"/>
          <path id="Trazado_819926" data-name="Trazado 819926" d="M442.991,48.7c-.478-1.554,1.374-2.572,4-1.494s3.147,2.278,2.331,2.092c-4.721-1.075-6.036.06-6.335-.6" transform="translate(-185.674 -16.563)" fill="#495edb"/>
          <path id="Trazado_819927" data-name="Trazado 819927" d="M443.139,48.441c-.528-2.258,2.934-1.387,3.949-.95a6.559,6.559,0,0,1,1.839,1.146l.135.143q.145.406.187.033c-.453-.068-.906-.189-1.359-.267a15.37,15.37,0,0,0-3.238-.218c-.218.008-1.423.254-1.546.036a.323.323,0,0,0-.557.326c.415.739,1.936.282,2.582.269a24.138,24.138,0,0,1,4.071.495.513.513,0,0,0,.639-.463c0-.491-.54-.924-.891-1.175a8.47,8.47,0,0,0-3.576-1.511c-1.523-.238-3.271.542-2.858,2.309.1.406.718.234.623-.172" transform="translate(-185.511 -16.385)" fill="#495edb"/>
          <path id="Trazado_819928" data-name="Trazado 819928" d="M425.89,50.217c-1.675-.956-3.887-1.494-4.6-.538s-.12,2.092.6,2.032a32.8,32.8,0,0,1,4.543-.419c.6,0,0-.657-.539-1.076" transform="translate(-177.899 -17.418)" fill="#495edb"/>
          <path id="Trazado_819929" data-name="Trazado 819929" d="M425.875,49.733c-1.16-.635-3.124-1.581-4.455-.9-.972.5-1.464,2.371-.205,2.885a3.154,3.154,0,0,0,1.6-.034c.884-.121,1.769-.238,2.661-.287.448-.025,1.027.157,1.3-.29.283-.466-.575-1.11-.837-1.327-.318-.264-.778.19-.457.457.158.131.817.518.417.506a9.851,9.851,0,0,0-1.146.061c-.778.068-1.553.182-2.325.288-.24.033-.481.065-.722.088q-.741-.121-.569-1.039c.09-.637.608-.795,1.111-.845a6.193,6.193,0,0,1,3.3.991c.365.2.691-.357.325-.557" transform="translate(-177.721 -17.213)" fill="#495edb"/>
          <path id="Trazado_819930" data-name="Trazado 819930" d="M438.431,17.859c-.838,4.3.238,12.851,4.423,17.335s3.587-3.527,3.109-4.842c2.39-2.749,6.92-3.263,8.655,1.161.538,1.791-.392,5.115-.392,5.115,3.122-1.184,4.649-5.677,3.513-8.188s-1.554-7.413-1.255-11.238-3.528-12.492-14.109-9.743c-3-5.207-6.076-6.193-11.492-5.382-4.919.736-10.425-2.6-14.55-1.223-2.727.909-4.324,3.856-.2,7.98-6.4-1.793-12.134-1.554-14.645,4.782s.715,14.525,10.7,14.7a21.007,21.007,0,0,1,.865-4.02c.777,4.662,4.693,4.736,8.339,1.927a35.491,35.491,0,0,0,6.516-6.994c-1.436,3.886-.18,4.364,2.63,4.065s6.038-4.664,7.891-5.44" transform="translate(-170.714 -0.183)" fill="#495edb"/>
          <path id="Trazado_819931" data-name="Trazado 819931" d="M437.951,17.59a24.167,24.167,0,0,0,1.546,12.8c.479,1.219,3.876,8.113,6.073,5.986a4.445,4.445,0,0,0,.882-3.115,13.666,13.666,0,0,0-.109-1.97c-.084-.71-.32-.927.184-1.418a4.618,4.618,0,0,1,6.616-.133c1.7,1.769,1.187,4.479.6,6.614a.327.327,0,0,0,.474.365,7.228,7.228,0,0,0,4.041-6.837c-.025-1.376-.785-2.67-1.1-3.994a29.224,29.224,0,0,1-.615-6.89c.017-2.359.12-4.2-.849-6.41a10.547,10.547,0,0,0-4.707-5.046,9.71,9.71,0,0,0-3.53-1.045,14.791,14.791,0,0,0-2.457-.036c-.5.032-2.532.626-2.778.209-1.507-2.555-3.607-4.619-6.59-5.2a14.284,14.284,0,0,0-4.465.026A19.8,19.8,0,0,1,424.235.96c-3.034-.677-6.746-1.824-9.56.108-3.072,2.109-.857,5.812,1.062,7.81l.314-.54c-3.276-.9-7.2-1.66-10.429-.152a9.941,9.941,0,0,0-5.32,7.856,11.019,11.019,0,0,0,2.234,8.38c2.263,2.862,5.982,3.927,9.485,4.038a.33.33,0,0,0,.323-.323A20.59,20.59,0,0,1,413.2,24.2h-.623c.77,3.924,3.935,4.841,7.3,3.113,3.3-1.693,6.067-5.092,8.147-8.1l-.59-.249c-.4,1.133-.982,2.63-.3,3.773.544.917,2.011.8,2.889.735,3.642-.26,5.387-4.073,8.411-5.519.376-.179.048-.736-.326-.557-2.242,1.071-3.808,3.343-5.9,4.678a5.373,5.373,0,0,1-3.843.712c-1.625-.31-.635-2.709-.3-3.65.128-.366-.394-.533-.59-.249a33.9,33.9,0,0,1-5.639,6.259,8.94,8.94,0,0,1-5.022,2.461c-2.179.167-3.238-1.711-3.6-3.575-.066-.335-.529-.282-.623,0a21.528,21.528,0,0,0-.876,4.105l.323-.323a12,12,0,0,1-8.807-3.588,10.061,10.061,0,0,1-2.343-7.517,9.564,9.564,0,0,1,4.745-7.81c3.1-1.63,7.078-.809,10.263.062a.325.325,0,0,0,.314-.539c-2.17-2.258-3.861-6.008.056-7.44,3.207-1.173,7.163.568,10.356,1.11,2.984.506,5.892-.444,8.861.01,3.036.465,4.988,2.836,6.461,5.336a.328.328,0,0,0,.365.148c3.541-.869,7.243-.7,10.152,1.7a10.278,10.278,0,0,1,3.52,6.542c.189,1.548-.085,3.166-.052,4.726a28.649,28.649,0,0,0,.728,5.94c.437,1.853,1.214,3.17.807,5.153a6.266,6.266,0,0,1-3.554,4.52l.475.364c.758-2.77,1.038-5.677-1.3-7.754-2.291-2.035-5.668-.83-7.5,1.164a.326.326,0,0,0-.083.314,9.8,9.8,0,0,1,.235,4.189c-.454,3.295-3.112.116-4.035-1.23a22.137,22.137,0,0,1-3.108-15.452c.073-.408-.549-.581-.623-.172" transform="translate(-170.545 0)" fill="#495edb"/>
          <path id="Trazado_819932" data-name="Trazado 819932" d="M419.777,34.438a.323.323,0,0,1-.32-.281l-.057-.412a8.984,8.984,0,0,1-.122-2.421,8.655,8.655,0,0,1,1.987-4.171,7.9,7.9,0,0,1,1.618-1.611.323.323,0,1,1,.369.53,7.364,7.364,0,0,0-1.488,1.491,8.021,8.021,0,0,0-1.846,3.854,8.52,8.52,0,0,0,.122,2.238l.058.418a.323.323,0,0,1-.278.362.317.317,0,0,1-.043,0" transform="translate(-177.288 -9.026)"/>
          <path id="Trazado_819933" data-name="Trazado 819933" d="M470.666,49.5a.332.332,0,0,1-.05,0,.313.313,0,0,1-.267-.36,6.412,6.412,0,0,0,.116-1.022,4.357,4.357,0,0,0-.112-.884c-.11-.492-.234-1.048-.411-1.585a11.161,11.161,0,0,0-.988-2.269.323.323,0,1,1,.557-.325,11.793,11.793,0,0,1,1.045,2.4,16.736,16.736,0,0,1,.426,1.64,4.933,4.933,0,0,1,.127,1.026,6.774,6.774,0,0,1-.12,1.106.337.337,0,0,1-.324.281" transform="translate(-194.881 -15.189)"/>
          <path id="Trazado_819934" data-name="Trazado 819934" d="M332.237,99.3c3.766,1.076,12.015-.9,16.14-6.634,2.87,6.456,12.553,28.154,13.27,29.23s9.5-5.38,19.548-13.45,16.139-10.4,22.236-9.682,8.967-.18,8.429-3.587S410.6,88.9,410.6,88.9s6.993,2.869,17.932-3.587c2.331,6.815,2.152,8.07,3.049,9.145s8.967-2.33,16.678-1.254,23.612,18.065,31.142,25.106c9.206,8.607,19.875,17.932,14.7,28.334-3.609,7.259-16.616,2.151-16.616,2.151s-1.077-3.228-6.815-8.966-15.423-15.6-15.423-15.6,11.357,34.193,13.509,39.393c-11.477,9.683-45.122,14.59-54.242,10.444-2.984-8.954-13.065-39.973-17.548-48.4-13.629,9.5-23.133,18.651-31.2,21.519s-15.244,5.738-22.417-13.808C339.249,122.179,332.237,99.3,332.237,99.3" transform="translate(-146.474 -30.216)" fill="#f2ac30"/>
          <path id="Trazado_819935" data-name="Trazado 819935" d="M331.972,99.433c5.892,1.543,13.049-2.139,16.505-6.783h-.558c4.208,9.465,8.291,19.015,12.808,28.337.406.838.637,1.376,1.671,1.037,2.386-.781,4.6-2.666,6.607-4.1,7.428-5.325,14.143-11.9,22.205-16.277a22.705,22.705,0,0,1,8.352-2.78c2.911-.311,5.79.479,8.7.189,1.757-.175,3.5-.922,3.772-2.84a13.2,13.2,0,0,0-.545-4.11c-.224-1.161-.473-2.32-.756-3.469l-.4.4a12.871,12.871,0,0,0,4.949.639c4.7-.1,9.22-1.934,13.232-4.258l-.474-.193c.913,2.688,1.535,5.488,2.5,8.154.519,1.439,1.336,1.531,2.777,1.335,4.014-.546,7.849-1.589,11.941-1.571a14.917,14.917,0,0,1,8.194,2.55c5.879,3.624,10.976,8.618,15.939,13.372,5.057,4.844,10.151,9.665,15.165,14.553,5.8,5.65,13.079,13.559,9.305,22.245-2.448,5.632-9.96,4.431-14.692,3.039q-.833-.244-1.647-.545c-.306-.114.143.287.08.119-.07-.188-.154-.37-.24-.552a27.6,27.6,0,0,0-4.606-6.364c-4.765-5.333-10.083-10.243-15.1-15.342q-1.178-1.2-2.353-2.394a.325.325,0,0,0-.54.315q3.828,11.523,7.735,23.019c1.567,4.6,3.13,9.21,4.791,13.781.234.645.472,1.288.719,1.928.1.254.215.462.134.53-.578.479-1.194.912-1.817,1.331a41.474,41.474,0,0,1-7.824,3.943,93.2,93.2,0,0,1-19.421,5.111,78.323,78.323,0,0,1-18.4,1.122,28.951,28.951,0,0,1-3.389-.453c-.4-.079-2.55-.383-2.7-.825q-1.021-3.061-2.031-6.128c-2-6.044-4.031-12.077-6.122-18.091-1.646-4.736-3.331-9.461-5.123-14.145a90.753,90.753,0,0,0-4.246-9.937.323.323,0,0,0-.442-.116c-7.442,5.207-14.408,11.053-21.834,16.276a41.416,41.416,0,0,1-14.782,6.929c-5.257,1.167-9.134-1.453-11.988-5.752-4.022-6.056-6.008-13.545-8.275-20.395q-3.829-11.568-7.384-23.227c-.121-.4-.745-.227-.622.172,3.091,10.082,6.259,20.15,9.711,30.114,2.118,6.115,4.316,13.214,9.359,17.609,3.122,2.721,6.966,2.809,10.78,1.747a45.726,45.726,0,0,0,14.26-7.157c7.161-5.082,13.9-10.723,21.1-15.76l-.442-.116A117.407,117.407,0,0,1,402.407,140c2.339,6.361,4.538,12.774,6.7,19.2,1.64,4.86,3.243,9.733,4.862,14.6.387,1.165,3.644,1.385,4.663,1.531a46.723,46.723,0,0,0,7.536.348,101.318,101.318,0,0,0,23.538-3.483c6.623-1.738,13.757-4.073,19.1-8.518a.314.314,0,0,0,.083-.314c-2.9-7.052-5.123-14.429-7.562-21.648q-3-8.865-5.947-17.746l-.54.314q5.481,5.584,10.986,11.143c2.739,2.764,5.6,5.441,8.064,8.455a17.554,17.554,0,0,1,3.1,4.821c.232.647,2.36.934,2.891,1.076a23.237,23.237,0,0,0,7.276.884,8.5,8.5,0,0,0,6.285-2.834c1.944-2.362,2.4-5.906,2-8.834-.482-3.578-2.56-6.8-4.72-9.594a83.719,83.719,0,0,0-9.292-9.635c-4.869-4.553-9.561-9.289-14.43-13.842-4.628-4.329-9.5-8.927-15.16-11.889-6.085-3.184-12.815-.595-19.157.114-1.351.151-1.527-.83-1.844-1.937-.687-2.4-1.379-4.789-2.182-7.156a.327.327,0,0,0-.474-.193,28.015,28.015,0,0,1-12.906,4.17,11.972,11.972,0,0,1-4.778-.615c-.241-.1-.45.181-.4.4.285,1.15.526,2.309.757,3.469.318,1.6,1.193,3.927-.174,5.258-1.067,1.038-3.082.966-4.44.953-1.723-.016-3.422-.341-5.145-.347-6.673-.028-12.722,4.1-17.829,7.949-6.581,4.954-12.763,10.866-20.033,14.837-.256.14-1.4.828-1.581.5-.273-.489-.5-1.006-.743-1.512-.973-2.049-1.909-4.117-2.847-6.182q-4.854-10.677-9.6-21.4c-.109-.246-.431-.171-.558,0-3.277,4.4-10.186,7.951-15.775,6.487a.323.323,0,0,0-.172.623" transform="translate(-146.294 -30.039)" fill="#f2ac30"/>
          <path id="Trazado_819936" data-name="Trazado 819936" d="M321.388,81.69a2.94,2.94,0,0,1-2.263-.863,3.2,3.2,0,0,1-.058-3.75c1.635-2.98,4.168-3.949,6.662-4.552a2,2,0,0,0,1.419-1.072c.619-1.243.26-3.54-1.011-6.465-1.6-3.686-2.986-6.869-4.308-7.281a1.4,1.4,0,0,0-1.262.03c-.49.349-.761,1.361-.806,3.006-.093,3.493-1.2,4.291-2.428,4.857a2.13,2.13,0,0,1-1.863.011,4.693,4.693,0,0,1-2.077-3.054,24.208,24.208,0,0,0-1.31,2.324c-.828,1.609-1.551,3.014-2.966,3.3.1,1.606-.406,2.8-1.383,3.234a2.1,2.1,0,0,1-2.436-.7.323.323,0,0,1,.484-.428,1.481,1.481,0,0,0,1.691.535c.593-.262,1.16-1.157.974-2.886a.323.323,0,0,1,.3-.356c1.274-.1,1.932-1.382,2.765-3a20.724,20.724,0,0,1,1.753-2.968.319.319,0,0,1,.322-.124.324.324,0,0,1,.251.238c.558,2.234,1.349,3.026,1.915,3.3a1.509,1.509,0,0,0,1.313-.015c1.111-.513,1.97-1.155,2.052-4.288.052-1.911.395-3.028,1.076-3.515a2.039,2.039,0,0,1,1.83-.121c1.531.477,2.727,3.081,4.709,7.641.953,2.2,1.9,5.194,1,7.01a2.64,2.64,0,0,1-1.845,1.411c-2.35.569-4.734,1.475-6.247,4.235a2.6,2.6,0,0,0-.032,3c.8.882,2.539.863,4.641-.048a11.673,11.673,0,0,0,6.018-5.213.323.323,0,0,1,.593.257c-.061.14-1.54,3.459-6.353,5.548a8.03,8.03,0,0,1-3.113.754" transform="translate(-136.904 -20.164)"/>
          <path id="Trazado_819937" data-name="Trazado 819937" d="M339.458,118.607a8.038,8.038,0,0,1-3.078-.573.323.323,0,0,1,.245-.6,9.33,9.33,0,0,0,5.983.077,15.128,15.128,0,0,0,6.68-3.245c.122-.123.267-.257.416-.4a5.827,5.827,0,0,0,1.223-1.406.323.323,0,1,1,.564.314,6.416,6.416,0,0,1-1.349,1.566c-.143.132-.282.26-.409.389a15.726,15.726,0,0,1-6.964,3.4,13.161,13.161,0,0,1-3.31.468" transform="translate(-147.87 -39.775)"/>
          <path id="Trazado_819938" data-name="Trazado 819938" d="M339.673,116.518a.324.324,0,0,1-.3-.212c-.2-.543-.386-1.1-.576-1.655-.267-.787-.543-1.6-.857-2.4-.335-.833-.714-1.78-1.022-2.705-.08-.241-.182-.475-.283-.708a4.688,4.688,0,0,1-.45-1.458.323.323,0,0,1,.643-.054,4.2,4.2,0,0,0,.4,1.256c.108.249.216.5.3.76.3.907.678,1.844,1.01,2.672s.6,1.64.868,2.433c.189.554.375,1.1.572,1.64a.323.323,0,0,1-.192.415.336.336,0,0,1-.111.019" transform="translate(-147.87 -37.907)"/>
          <path id="Trazado_819939" data-name="Trazado 819939" d="M344.6,115.838a.322.322,0,0,1-.274-.152,6.582,6.582,0,0,1-.541-1.237c-.066-.183-.132-.368-.2-.548-.126-.377-.26-.735-.395-1.093s-.269-.717-.389-1.077c-.256-.721-.585-1.514-1-2.417-.186-.435-.339-.878-.487-1.308s-.3-.86-.472-1.27a.323.323,0,1,1,.593-.256c.186.431.34.88.49,1.315.144.418.293.851.466,1.256.422.913.757,1.724,1.022,2.47.12.357.252.708.383,1.059.138.366.275.732.4,1.1.068.168.137.36.206.551a6,6,0,0,0,.48,1.113.323.323,0,0,1-.1.445.318.318,0,0,1-.171.049" transform="translate(-149.51 -37.645)"/>
          <path id="Trazado_819940" data-name="Trazado 819940" d="M350.794,113.8a.322.322,0,0,1-.313-.244,7.31,7.31,0,0,0-.363-.973c-.081-.191-.16-.376-.223-.548-.149-.355-.286-.721-.424-1.088s-.263-.7-.409-1.055l-.034-.083c-.694-1.675-1.411-3.407-2.174-5.108a.323.323,0,0,1,.59-.265c.767,1.71,1.486,3.447,2.182,5.126l.034.083c.149.358.283.717.418,1.075s.269.718.418,1.077c.065.174.141.351.218.533a7.815,7.815,0,0,1,.4,1.068.323.323,0,0,1-.313.4" transform="translate(-151.64 -36.923)"/>
          <path id="Trazado_819941" data-name="Trazado 819941" d="M354.373,108.912a.322.322,0,0,1-.288-.178,5.643,5.643,0,0,1-.257-.639,5.475,5.475,0,0,0-.222-.559l-.915-2.22a16.352,16.352,0,0,1-.717-1.706c-.043-.1-.112-.232-.184-.371a3.612,3.612,0,0,1-.428-1.125.323.323,0,0,1,.641-.081,3.181,3.181,0,0,0,.362.911c.079.154.155.3.212.438a16.337,16.337,0,0,0,.7,1.663l.2.422.723,1.806a5.514,5.514,0,0,1,.241.606,5.136,5.136,0,0,0,.225.565.322.322,0,0,1-.288.468" transform="translate(-153.247 -36.038)"/>
          <path id="Trazado_819942" data-name="Trazado 819942" d="M459.689,100.551a.322.322,0,0,1-.32-.291,9.068,9.068,0,0,0-.4-1.782c-.066-.277-.117-.525-.168-.771a13.03,13.03,0,0,0-.371-1.5c-.293-.761-.533-1.543-.767-2.3-.106-.383-.182-.716-.257-1.047s-.148-.65-.236-.975a.323.323,0,0,1,.623-.171c.09.334.167.668.243,1s.147.646.235.97c.24.776.477,1.547.767,2.3a13.809,13.809,0,0,1,.4,1.587c.05.242.1.484.156.727a9.272,9.272,0,0,1,.424,1.894.323.323,0,0,1-.289.353h-.033" transform="translate(-190.718 -32.4)"/>
          <path id="Trazado_819943" data-name="Trazado 819943" d="M464.688,101.149a.323.323,0,0,1-.323-.323,2,2,0,0,0-.11-.542c-.022-.076-.043-.148-.061-.216a7.692,7.692,0,0,0-.291-1.112c-.2-.924-.458-1.8-.661-2.459-.125-.468-.232-.924-.338-1.38-.1-.44-.2-.881-.322-1.321-.045-.221-.107-.429-.169-.641a4.787,4.787,0,0,1-.26-1.354.323.323,0,1,1,.646,0,4.306,4.306,0,0,0,.234,1.17c.068.232.135.459.179.678.114.427.218.874.323,1.321s.209.9.33,1.35c.2.662.465,1.553.662,2.466a7.985,7.985,0,0,1,.3,1.152l.048.162a2.547,2.547,0,0,1,.137.727.323.323,0,0,1-.323.323" transform="translate(-192.488 -32.4)"/>
          <path id="Trazado_819944" data-name="Trazado 819944" d="M470.267,100.1a.324.324,0,0,1-.307-.221c-.03-.092-.061-.2-.091-.307s-.058-.2-.088-.291a4.589,4.589,0,0,1-.25-.876A13.959,13.959,0,0,0,469.193,97c-.068-.242-.134-.484-.2-.725l-.221-.826c-.411-1.532-.8-2.979-1.155-4.5a.323.323,0,0,1,.63-.147c.353,1.509.739,2.951,1.149,4.478l.223.832c.06.241.125.478.191.714a14.267,14.267,0,0,1,.353,1.469,4,4,0,0,0,.22.769c.039.114.071.225.1.337s.056.2.084.28a.323.323,0,0,1-.307.425" transform="translate(-194.422 -32.072)"/>
          <path id="Trazado_819945" data-name="Trazado 819945" d="M475.6,98.079a.324.324,0,0,1-.308-.225c-.437-1.376-.807-2.746-1.139-4.021l-.169-.554c-.185-.609-.375-1.24-.6-1.869-.1-.283-.184-.587-.266-.9a7.727,7.727,0,0,0-.38-1.173.323.323,0,0,1,.59-.266,8.251,8.251,0,0,1,.415,1.273c.078.29.153.576.25.842.232.646.425,1.285.612,1.9l.172.564c.335,1.28.7,2.64,1.135,4a.323.323,0,0,1-.211.406.316.316,0,0,1-.1.015" transform="translate(-196.225 -31.481)"/>
          <path id="Trazado_819946" data-name="Trazado 819946" d="M461.183,104.63a6.688,6.688,0,0,1-1.222-.105,13.519,13.519,0,0,1-1.622-.378,10.81,10.81,0,0,0-1.82-.395.323.323,0,0,1,.065-.643,11.453,11.453,0,0,1,1.927.415,13.151,13.151,0,0,0,1.556.364,7.236,7.236,0,0,0,1.957.058,7.689,7.689,0,0,1,.9-.013,6.124,6.124,0,0,0,1.161-.045,18.122,18.122,0,0,0,4.109-1.412,26.874,26.874,0,0,0,3.422-1.771c.652-.414,1.311-.834,1.956-1.3.339-.284.71-.655,1.038-.983a.323.323,0,1,1,.457.456c-.337.338-.719.721-1.1,1.036-.677.494-1.345.919-1.992,1.33a27.66,27.66,0,0,1-3.522,1.826,18.6,18.6,0,0,1-4.264,1.458,6.661,6.661,0,0,1-1.283.054,7.215,7.215,0,0,0-.832.01c-.324.027-.621.041-.9.041" transform="translate(-190.39 -34.825)"/>
          <path id="Trazado_819947" data-name="Trazado 819947" d="M431.48,146.591a.322.322,0,0,1-.289-.178c-.141-.284-.259-.588-.371-.882s-.219-.568-.347-.823a12.76,12.76,0,0,0-.705-1.591c-.133-.3-.269-.55-.406-.8a6.151,6.151,0,0,1-.709-1.722.323.323,0,0,1,.634-.127,5.56,5.56,0,0,0,.645,1.542c.143.267.287.534.409.812a12.68,12.68,0,0,1,.728,1.642,9.025,9.025,0,0,1,.353.837c.113.293.219.569.347.824a.323.323,0,0,1-.289.468" transform="translate(-180.621 -49.659)"/>
          <path id="Trazado_819948" data-name="Trazado 819948" d="M515.363,140.047a.367.367,0,0,1-.167-.04,7.29,7.29,0,0,1-1.664-1.317c-.192-.185-.384-.371-.584-.549a13.043,13.043,0,0,0-1.908-1.345l-2.5-1.606a.391.391,0,0,1-.118-.53.367.367,0,0,1,.513-.123l2.484,1.6a13.638,13.638,0,0,1,2.006,1.418c.213.189.414.382.613.574a6.607,6.607,0,0,0,1.488,1.191.39.39,0,0,1,.167.515.372.372,0,0,1-.334.213" transform="translate(-208.857 -47.63)"/>
          <path id="Trazado_819949" data-name="Trazado 819949" d="M541.71,201.21a.324.324,0,0,1-.3-.21l-4.17-11.209a.323.323,0,0,1,.606-.225l4.17,11.208a.324.324,0,0,1-.19.416.331.331,0,0,1-.113.02" transform="translate(-219.075 -67.067)"/>
          <path id="Trazado_819950" data-name="Trazado 819950" d="M475.871,228.841a85.876,85.876,0,0,1-8.985-.462.321.321,0,0,1-.287-.355.316.316,0,0,1,.355-.287c17.429,1.834,37.011-1.932,49.893-9.6a.323.323,0,1,1,.331.555c-10.813,6.432-26.3,10.144-41.306,10.144" transform="translate(-194.062 -77.246)"/>
          <path id="Trazado_819951" data-name="Trazado 819951" d="M537.365,243.146a7.959,7.959,0,0,1-3.117-.658c-4.776-2.02-8.567-8.376-10.068-13.426a.323.323,0,0,1,.619-.184c1.505,5.066,5.321,11.162,9.7,13.015a7.133,7.133,0,0,0,6.339-.3.323.323,0,1,1,.3.572,8.088,8.088,0,0,1-3.773.977" transform="translate(-214.452 -80.983)"/>
          <path id="Trazado_819952" data-name="Trazado 819952" d="M548.941,248.695a.323.323,0,0,1-.321-.293c-1.235-13.054-7.969-26.649-8.037-26.785a.323.323,0,1,1,.577-.289c.068.137,6.857,13.835,8.1,27.012a.324.324,0,0,1-.291.352h-.031" transform="translate(-220.255 -78.328)"/>
          <path id="Trazado_819953" data-name="Trazado 819953" d="M309.366,69.721a2.118,2.118,0,0,1-1.616-.778,5.008,5.008,0,0,1-.971-2.628,9.377,9.377,0,0,1,1.569-4.918.323.323,0,0,1,.554.332,8.777,8.777,0,0,0-1.478,4.568,4.363,4.363,0,0,0,.837,2.251,1.418,1.418,0,0,0,1.487.47.323.323,0,1,1,.189.617,1.944,1.944,0,0,1-.571.085" transform="translate(-137.454 -21.69)"/>
          <path id="Trazado_819954" data-name="Trazado 819954" d="M317.866,62.179a.323.323,0,0,1-.321-.288,32.666,32.666,0,0,1-.1-3.725c0-.346.007-.684.007-1.009a.323.323,0,0,1,.646,0c0,.327,0,.667-.006,1.015a32.082,32.082,0,0,0,.1,3.649.323.323,0,0,1-.286.356l-.036,0" transform="translate(-141.231 -20.13)"/>
          <path id="Trazado_819955" data-name="Trazado 819955" d="M502.485,250.87a13.864,13.864,0,0,1-3.551-.532.322.322,0,0,1-.216-.214l-7.785-25.133a.323.323,0,1,1,.617-.191l7.733,24.964a10.62,10.62,0,0,0,4.763.274c-1.584-5.494-5.293-19.792-5.332-19.938a.323.323,0,1,1,.626-.163c.038.149,3.886,14.98,5.414,20.222a.324.324,0,0,1-.2.393,6.067,6.067,0,0,1-2.07.316" transform="translate(-202.676 -79.54)"/>
          <path id="Trazado_819956" data-name="Trazado 819956" d="M147.179,151.736a19.78,19.78,0,0,1-4.952,1.819c-.426.066-1.981-11.861-1.981-11.861,7.218-2.645,10.759-5.142,12.672-10.64s-3.362-6.454-3.661-12c-.238-4.433.673-18.727-15.824-16.575S103.663,127.944,110.357,135s12.793,8.009,12.673,9.8-6.456,11.6-6.814,12.074,4.543,10.161,9.564,12.195,32.877,1.076,21.4-17.335" transform="translate(-67.26 -36.219)" fill="#ffd4d4"/>
          <path id="Trazado_819957" data-name="Trazado 819957" d="M53.642,341.743c-.717-10.4-.717-44.294,19.188-59,1.614-1.256,2.929-5.021,2.929-5.021,8.906,2.331,31.741,8.428,41.843,7.891a54.89,54.89,0,0,1-4.543,8.607l3.167,47.341-26,.539-5.2-8.25.716,7.891Z" transform="translate(-47.725 -98.365)" fill="#f2ac30"/>
          <path id="Trazado_819958" data-name="Trazado 819958" d="M53.774,341.566a101.694,101.694,0,0,1,2.681-31.427,57.8,57.8,0,0,1,7.967-18.491,37.7,37.7,0,0,1,6.858-7.6,13,13,0,0,0,2.982-2.951,17.78,17.78,0,0,0,1.579-3.352c.013-.035.026-.07.038-.107l-.4.226c6.8,1.779,13.6,3.529,20.474,5.021,6.935,1.506,14.309,3.216,21.455,2.882l-.311-.409a44.985,44.985,0,0,1-4.409,8.371c-.257.408-.1.954-.072,1.415q.339,5.074.679,10.147.993,14.851,1.987,29.7l.428,6.4.323-.323-19.92.412-4.528.094-1.228.025c-.553.011,0,.242-.159-.01q-2.544-4.037-5.088-8.073c-.159-.252-.632-.175-.6.163q.357,3.946.716,7.891l.323-.323h-32.1a.323.323,0,0,0,0,.646h32.1a.324.324,0,0,0,.323-.323q-.358-3.945-.716-7.891l-.6.163,5.088,8.073c.293.466.72.329,1.226.319l4.432-.092,20.735-.429a.324.324,0,0,0,.323-.323q-1.543-23.07-3.087-46.14-.032-.486-.065-.972c-.026-.379-.092-.012.211-.494a44.821,44.821,0,0,0,4.305-8.257.324.324,0,0,0-.311-.409c-7.1.332-14.388-1.373-21.284-2.858-6.871-1.48-13.675-3.241-20.473-5.021a.33.33,0,0,0-.4.225,20,20,0,0,1-1.356,2.972c-.883,1.6-2.343,2.512-3.689,3.675a38.376,38.376,0,0,0-6.348,7.214A57.125,57.125,0,0,0,56.031,309.2a100.862,100.862,0,0,0-2.949,31.649q.021.358.046.715c.028.413.674.416.646,0" transform="translate(-47.534 -98.189)" fill="#f2ac30"/>
          <path id="Trazado_819959" data-name="Trazado 819959" d="M102.333,292.632a.317.317,0,0,1-.055,0c-7.344-1.265-14.123-4.116-17.271-7.264a.323.323,0,0,1,.457-.457c3.06,3.059,9.7,5.84,16.924,7.083a.323.323,0,0,1-.054.641" transform="translate(-58.875 -100.876)"/>
          <path id="Trazado_819960" data-name="Trazado 819960" d="M63.155,345.643a.323.323,0,0,1-.322-.309c-.305-6.852-.9-41.8,17.332-56.931a.323.323,0,1,1,.413.5c-18,14.936-17.4,49.606-17.1,56.4a.322.322,0,0,1-.308.337h-.015" transform="translate(-51.022 -102.121)"/>
          <path id="Trazado_819961" data-name="Trazado 819961" d="M159.553,173.071c5.328-1.292,7.614-3.071,11.142-3.43,1.2-3.826-2.809-10.4-5.618-11.6a22.781,22.781,0,0,1-7.652,3.408c.836,5.645,2.128,11.619,2.128,11.619" transform="translate(-84.558 -55.977)" fill="#32015c"/>
          <path id="Trazado_819962" data-name="Trazado 819962" d="M159.465,173.2c3.715-.932,7.24-2.969,11.056-3.418a.332.332,0,0,0,.311-.237c.929-3.438-1.113-7.254-3.22-9.844-.324-.4-2.178-2.569-2.873-2.118a21.911,21.911,0,0,1-7.574,3.375.328.328,0,0,0-.225.4q.879,5.839,2.128,11.619c.088.408.71.235.623-.171q-1.244-5.773-2.128-11.619-.112.2-.225.4a15.931,15.931,0,0,0,3.242-1.031c.659-.283,1.305-.588,1.947-.911.334-.169,2.18-1.513,2.451-1.385,2.337,1.1,3.927,4.169,4.8,6.454a9.072,9.072,0,0,1,.621,3.742c-.066,1.148-1.941,1.046-2.877,1.341-2.771.875-5.389,2.076-8.222,2.786a.323.323,0,0,0,.172.623" transform="translate(-84.385 -55.79)" fill="#32015c"/>
          <path id="Trazado_819963" data-name="Trazado 819963" d="M146.206,162.664a21.309,21.309,0,0,1-9.891-2.43.323.323,0,0,1,.3-.57,20.473,20.473,0,0,0,13.135,2.022.323.323,0,0,1,.123.634,19.315,19.315,0,0,1-3.671.344" transform="translate(-77.021 -56.537)"/>
          <path id="Trazado_819964" data-name="Trazado 819964" d="M98.344,120.243c1.586,4.995,4.82,6.321,3.99-1.141,14.077-8.428,14.57-20.019,12.6-24.054,8.7,1.166,14.527,5.111,13.181,14.974,9.235-2.42,8.608-18.022.626-20.891-.178-11.3-12.5-14.154-24.657-7.263-5.45,3.088-7.387,6.855-14.814,9.761-8.711,3.409-11.732,14.531-11.732,23.9,0,14.248-.083,21.218-11.291,29.915S44.518,165.178,51,178.884a13.563,13.563,0,0,0,12.553,7.8c-2.421,11.207,4.483,17.842,11.118,17.394,0,0,1.883-23.312,4.3-33.534s7.172-14.437,15.153-18.471,10.025-5.457,9.235-13.18a86.309,86.309,0,0,0-1.7-10.491c-7.084,2.959-10.6-1.146-11.388-4.125-1.255-4.752,5.29-8.429,8.069-4.036" transform="translate(-46.161 -27.681)" fill="#32015c"/>
          <path id="Trazado_819965" data-name="Trazado 819965" d="M97.861,120.152c.371,1.117,2.478,6.163,4.234,3.714a3.727,3.727,0,0,0,.471-1.68,10.894,10.894,0,0,0,.043-1.655c-.028-1.258.083-1.535,1.157-2.231a32.625,32.625,0,0,0,6.45-5.482c4.018-4.44,7.636-12.139,4.823-18.111l-.364.474c3.566.5,7.246,1.442,9.98,3.917,3.022,2.736,3.445,6.922,2.964,10.745a.324.324,0,0,0,.408.311c5.037-1.421,7.2-6.5,6.984-11.393a13.294,13.294,0,0,0-2.278-6.93,9.384,9.384,0,0,0-2.181-2.2,7.67,7.67,0,0,0-1.542-.847c-.3-.127-.253-1.591-.311-1.981-.912-6.118-6.451-9.114-12.2-9.145-7.493-.041-13.757,4.081-19.321,8.627a33.212,33.212,0,0,1-4.723,3.253c-1.861,1.048-3.921,1.661-5.757,2.752a17.453,17.453,0,0,0-6.293,7.16c-3.407,6.587-3.283,13.886-3.391,21.087-.1,6.383-.711,12.687-4.561,18-2.24,3.093-5.269,5.409-8.222,7.77a66.631,66.631,0,0,0-9.185,8.715,27.6,27.6,0,0,0-6.018,11.058,19.333,19.333,0,0,0,1.525,12.79,13.792,13.792,0,0,0,12.831,7.961l-.311-.409c-.934,4.581-.625,9.433,2.2,13.317a10.839,10.839,0,0,0,9.233,4.487.33.33,0,0,0,.323-.323,284.449,284.449,0,0,1,3.768-31c1.347-6.959,4.024-13.157,9.9-17.409,2.884-2.087,6.162-3.5,9.256-5.223,2.074-1.159,4.168-2.547,5.2-4.767,1.3-2.783.655-6.281.289-9.183a74.944,74.944,0,0,0-1.438-8.179.321.321,0,0,0-.4-.225c-4.052,1.611-8.895,1.33-10.76-3.2-1.832-4.444,4.294-8.786,7.249-4.49.234.34.794.018.557-.326-2.811-4.087-9.487-1.359-8.795,3.544a7.342,7.342,0,0,0,3.2,4.973c2.6,1.787,5.984,1.206,8.72.118l-.4-.225a78.59,78.59,0,0,1,1.487,8.587c.378,2.992.916,6.494-.774,9.2-1.61,2.576-5.057,3.974-7.643,5.291a39.984,39.984,0,0,0-8.218,5.234c-4.959,4.3-7,10.519-8.19,16.776-1.208,6.375-1.924,12.854-2.6,19.3-.394,3.73-.756,7.465-1.059,11.2l.323-.323a10.292,10.292,0,0,1-8.5-3.947c-2.972-3.6-3.195-8.66-2.3-13.04a.327.327,0,0,0-.311-.409A13.214,13.214,0,0,1,51.55,179.4c-4.6-8.03-1.817-16.83,3.639-23.548a62.115,62.115,0,0,1,9.1-8.768c2.915-2.378,5.859-4.605,8.222-7.567,3.691-4.626,4.781-10.239,5.062-16.016.348-7.16-.234-14.155,2.228-21.041a19.792,19.792,0,0,1,5.632-8.48,18.174,18.174,0,0,1,4.93-2.707,27.961,27.961,0,0,0,5.192-2.937c2.649-1.868,4.957-4.158,7.71-5.89a27.168,27.168,0,0,1,11.56-4.067,14.043,14.043,0,0,1,9.266,2.007c2.86,1.912,4.058,5.252,4.156,8.564a.334.334,0,0,0,.237.311c8.166,3.121,7.926,17.854-.626,20.268l.409.311c.486-3.862.016-7.773-2.693-10.744-2.683-2.942-6.939-4.011-10.725-4.541a.327.327,0,0,0-.364.475c1.442,3.061.81,6.912-.256,9.973-2.072,5.948-6.975,10.445-12.226,13.639a.317.317,0,0,0-.16.279c.079.794.654,4.824-.767,4.919-1.323.088-2.309-3.022-2.59-3.864-.13-.393-.754-.225-.623.172" transform="translate(-45.989 -27.504)" fill="#32015c"/>
          <path id="Trazado_819966" data-name="Trazado 819966" d="M148.615,135.2c-1.639.218-1.839,3.54-.225,3.452s1.569-3.632.225-3.452" transform="translate(-80.964 -47.884)"/>
          <path id="Trazado_819967" data-name="Trazado 819967" d="M148.894,135.267a.323.323,0,0,1-.183-.589l.069-.048a4.108,4.108,0,0,0,1.177-1.008.323.323,0,1,1,.564.314,4.342,4.342,0,0,1-1.374,1.226l-.07.048a.323.323,0,0,1-.183.057" transform="translate(-81.422 -47.268)"/>
          <path id="Trazado_819968" data-name="Trazado 819968" d="M166.846,129.306c-1.629.278-1.708,3.606-.1,3.458s1.436-3.686.1-3.458" transform="translate(-87.447 -45.794)"/>
          <path id="Trazado_819969" data-name="Trazado 819969" d="M167.106,129.357a.323.323,0,0,1-.194-.581l.083-.062a4.063,4.063,0,0,0,1.124-1.04.323.323,0,1,1,.576.293,4.275,4.275,0,0,1-1.314,1.265l-.082.061a.319.319,0,0,1-.193.065" transform="translate(-87.872 -45.157)"/>
          <path id="Trazado_819970" data-name="Trazado 819970" d="M162.038,139.915a.323.323,0,0,1-.232-.547c.2-.2.383-.394.559-.574,1.851-1.885,2.349-2.391.523-5.167l-.093-.143c-2.14-3.254-2.44-3.9-.5-7.5a.322.322,0,1,1,.568.306c-1.809,3.364-1.592,3.693.475,6.836l.094.143c2.111,3.21,1.316,4.019-.6,5.973-.175.178-.36.367-.555.57a.32.32,0,0,1-.232.1" transform="translate(-85.824 -44.563)"/>
          <path id="Trazado_819971" data-name="Trazado 819971" d="M141.864,129.271c-1.145,2.072-.942,3.137.538,1.839a22.633,22.633,0,0,1,4.8-3.184c1.21-.537.041-2.054-1.884-1.7a6.1,6.1,0,0,0-3.452,3.049" transform="translate(-78.786 -44.687)"/>
          <path id="Trazado_819972" data-name="Trazado 819972" d="M141.238,131.823h0a.57.57,0,0,1-.5-.282c-.327-.555.184-1.722.671-2.6a6.325,6.325,0,0,1,3.677-3.211,3.514,3.514,0,0,1,.62-.057,2.033,2.033,0,0,1,2.116,1.26.98.98,0,0,1-.663,1.113,22.3,22.3,0,0,0-4.716,3.132,2.072,2.072,0,0,1-1.2.648m0-.646,0,.323v-.323h0m4.466-4.86a2.833,2.833,0,0,0-.5.046,5.855,5.855,0,0,0-3.227,2.887,4.068,4.068,0,0,0-.692,1.921,1.976,1.976,0,0,0,.735-.482,23.08,23.08,0,0,1,4.879-3.237c.229-.1.327-.232.294-.389-.067-.313-.619-.748-1.484-.748" transform="translate(-78.61 -44.511)"/>
          <path id="Trazado_819973" data-name="Trazado 819973" d="M163.017,124.491c1.165-2.107,3.091-4.214,4.079-3.945s1.434,1.615.852,2.018-1.032-.718-2.958.583c-1.69,1.139-2.063,1.7-1.972,1.345" transform="translate(-86.534 -42.687)"/>
          <path id="Trazado_819974" data-name="Trazado 819974" d="M162.85,124.745h-.158l-.112-.131a.424.424,0,0,1-.052-.378l.03-.077c1.192-2.155,3.243-4.431,4.447-4.1a1.925,1.925,0,0,1,1.327,1.5.951.951,0,0,1-1.288,1.173,2.009,2.009,0,0,0-.534-.086,2.84,2.84,0,0,0-1.516.6c-.8.536-1.293.942-1.59,1.184s-.4.323-.553.323m3.888-4.076c-.631,0-1.8,1.09-2.821,2.535.207-.152.444-.32.715-.5a3.435,3.435,0,0,1,1.877-.706,2.6,2.6,0,0,1,.7.107c.167.044.256.1.38.018a.454.454,0,0,0,.107-.457,1.275,1.275,0,0,0-.86-.984.375.375,0,0,0-.1-.012" transform="translate(-86.357 -42.511)"/>
          <path id="Trazado_819975" data-name="Trazado 819975" d="M155.014,151.848a4.08,4.08,0,0,1-2.667-1.078,9.283,9.283,0,0,1-2-2.461.323.323,0,1,1,.559-.324,8.627,8.627,0,0,0,1.854,2.289,3.294,3.294,0,0,0,2.828.874,2.981,2.981,0,0,0,1.281-.6.323.323,0,1,1,.429.482,3.59,3.59,0,0,1-1.57.745,3.812,3.812,0,0,1-.714.069" transform="translate(-82.036 -52.357)"/>
          <path id="Trazado_819976" data-name="Trazado 819976" d="M157.582,149.47c-.165,0-.329-.012-.494-.024-.518-.037-1.04-.052-1.536-.121-.228-.032-.456-.063-.684-.081-.63-.1-1.136-.191-1.707-.322-.171-.046-.329-.084-.488-.123a9.393,9.393,0,0,1-1.029-.292,4.493,4.493,0,0,1-.584-.232c-.13-.059-.264-.12-.4-.173a.323.323,0,1,1,.229-.6c.154.058.3.123.442.187a3.993,3.993,0,0,0,.519.207,8.81,8.81,0,0,0,.982.278c.165.04.329.079.493.125.541.123,1.037.209,1.628.307.212.015.454.048.695.081.523.073,1.006.082,1.494.117a4.915,4.915,0,0,0,1.188-.061l.119.635a5.264,5.264,0,0,1-.86.094" transform="translate(-82.086 -52.235)"/>
          <path id="Trazado_819977" data-name="Trazado 819977" d="M158.99,132.672a3.248,3.248,0,0,1,1.486-1.224,1.871,1.871,0,0,1,1.729.391.323.323,0,0,0,.326-.557,2.542,2.542,0,0,0-2.227-.455,3.691,3.691,0,0,0-1.872,1.52c-.237.344.323.666.557.326" transform="translate(-84.895 -46.3)" fill="#495edb"/>
          <path id="Trazado_819978" data-name="Trazado 819978" d="M149.432,122.466c-7.987-4.971-13.349,9.079-7,13.733,3.334,2.443,7.353.422,8.99-2.96s1.246-8.434-1.991-10.773c-.338-.244-.66.316-.326.557,2.846,2.057,3.066,6.26,2,9.3-1.228,3.513-5.385,5.806-8.565,3.126-5.256-4.43-.6-16.892,6.564-12.431.355.221.679-.338.326-.557" transform="translate(-78.256 -43.004)" fill="#495edb"/>
          <path id="Trazado_819979" data-name="Trazado 819979" d="M131.559,141.966l6.232-1.839a.323.323,0,0,0-.172-.623l-6.232,1.839a.323.323,0,0,0,.172.623" transform="translate(-75.256 -49.405)" fill="#495edb"/>
          <path id="Trazado_819980" data-name="Trazado 819980" d="M173.093,125.5c.444-2.712.4-7.272-2.406-8.8-1.239-.675-2.705-.026-3.679.789-1.6,1.34-2.25,3.728-2.61,5.681-.488,2.647-.769,8.241,3.05,8.688,3.519.411,5.1-3.526,5.646-6.357.079-.407-.544-.58-.623-.172-.454,2.346-1.513,5.63-4.3,5.914-3.574.364-3.487-4.659-3.281-6.954.215-2.389,2.058-8.89,5.719-6.9,2.328,1.268,2.218,5.745,1.86,7.937-.067.408.555.582.623.172" transform="translate(-86.929 -41.232)" fill="#495edb"/>
          <path id="Trazado_819981" data-name="Trazado 819981" d="M156.838,360.745c.734-1.175-.524-3-1.166-3.676-1.895-2.009-3.855-3.766-7.561-3.945-1.357-.065-4.4.542-5.738.239-2.169-.489-3.05-15.66-3.05-15.66-8.607,1.166-17.813,2.511-17.813,2.511s4.849,19.483,6.157,20.8a5.448,5.448,0,0,0,5.439,1.792,58.582,58.582,0,0,1,7.293-1.314,14.1,14.1,0,0,1,6.1.717c.867.293.982,1.026,2.631.42.665-.246,2.3.687,2.988.477a6.857,6.857,0,0,0,1.316-.9c.179-.269,2.151.534,3.405-1.465" transform="translate(-71.838 -119.609)" fill="#ffd4d4"/>
          <path id="Trazado_819982" data-name="Trazado 819982" d="M88.722,237.185l-.717,4.3s4.543,3.465,12.91,4.423c1.675,8.129,8.728,36.822,8.728,36.822,6.1,1.434,15.243-.121,18.111-2.033-.119-8.966-3.525-29.887-4.483-31.682a15.508,15.508,0,0,0,6.576.36c2.63-8.012,5.858-16.738,7.053-20.086s2.391-4.782,5.261-5.977,12.434-5.379,10.52-20.8c6.1.837,15.065,2.271,15.065,2.271l-.239-25.583s-15.423-7.652-28.573-1.2c4.065,3.826,2.751,10.522-4.663,14.108s-17.455.478-23.312-6.7a25.522,25.522,0,0,0-18.292,19.965c-2.391,12.313-3.945,31.8-3.945,31.8" transform="translate(-59.971 -62.13)" fill="#495edb"/>
          <path id="Trazado_819983" data-name="Trazado 819983" d="M88.236,236.907l-.717,4.3a.342.342,0,0,0,.148.365,18.182,18.182,0,0,0,3.471,1.921A30.657,30.657,0,0,0,95,244.9c.537.16,5.453.991,5.471,1.081.924,4.465,2,8.9,3.054,13.336q2.767,11.666,5.637,23.307a.321.321,0,0,0,.226.225,31.029,31.029,0,0,0,16.152-1.042,10.319,10.319,0,0,0,2.209-1.024c.42-.265.122-1.616.1-2.034-.1-2.28-.325-4.556-.57-6.824-.532-4.947-1.242-9.878-2.068-14.784-.322-1.911-.666-3.819-1.069-5.716a11.835,11.835,0,0,0-.763-2.765l-.365.474a15.84,15.84,0,0,0,6.747.36c.286-.067.356-.621.406-.773q.545-1.656,1.11-3.306,1.008-2.968,2.058-5.921c1.093-3.1,2.215-6.182,3.33-9.27,1.128-3.123,2.315-5.5,5.514-6.837a17.845,17.845,0,0,0,7.181-5.217c3.569-4.441,4.108-10.385,3.472-15.853l-.409.312c5.03.694,10.051,1.469,15.065,2.271a.328.328,0,0,0,.409-.311q-.119-12.792-.239-25.583a.319.319,0,0,0-.16-.279c-8.714-4.293-20.012-5.432-28.9-1.2a.326.326,0,0,0-.065.508,6.921,6.921,0,0,1,1.335,8.237c-1.589,3.3-5.23,5.428-8.642,6.341-7.445,1.994-15.49-1.966-20.211-7.623a.317.317,0,0,0-.314-.083A27.224,27.224,0,0,0,98.672,192.2c-4.339,4.532-6.074,10.221-7.1,16.263-1.595,9.432-2.589,19-3.352,28.53-.033.415.613.412.646,0,.347-4.335.784-8.665,1.262-12.989.436-3.938.927-7.871,1.5-11.791A58.452,58.452,0,0,1,94,200.964,25.225,25.225,0,0,1,108.26,186.44c.578-.238,1.168-.446,1.761-.643.909-.3,1.2.448,1.8,1.083a23.215,23.215,0,0,0,4.456,3.578,21.591,21.591,0,0,0,9.924,3.248c4.808.353,10.225-1.559,13.191-5.5,2.5-3.319,2.655-7.612-.408-10.624q-.032.253-.065.507c7.263-3.462,15.541-3.01,23.088-.752a36.1,36.1,0,0,1,5.046,1.892c.037.018-.048-.406-.043.193q.009.942.017,1.883.109,11.642.218,23.284l.409-.312c-5.015-.8-10.035-1.576-15.065-2.271-.183-.025-.435.08-.409.311.646,5.549.058,11.4-3.639,15.832-2.046,2.451-4.687,3.723-7.5,5.041a8.7,8.7,0,0,0-4.29,4.915c-1.058,2.53-1.89,5.181-2.817,7.76q-1.974,5.5-3.849,11.033c-.072.216-.563,1.986-.576,1.988a7.48,7.48,0,0,1-.953.121,18.4,18.4,0,0,1-5.38-.5.326.326,0,0,0-.365.474,19.1,19.1,0,0,1,1.125,4.731c.569,2.968,1.044,5.954,1.488,8.943.515,3.469.964,6.948,1.323,10.437q.224,2.175.373,4.356c.043.636.074,1.272.1,1.908.036.869.053.992-.74,1.376-3.317,1.6-7.437,1.957-11.056,2.035-.953.02-1.907-.021-2.858-.088-.306-.022-2.811-.3-2.794-.236l-.2-.83q-1.564-6.381-3.106-12.766c-1.864-7.722-3.806-15.441-5.416-23.222a.33.33,0,0,0-.311-.238,30.156,30.156,0,0,1-11.868-3.8q-.389-.234-.762-.5c-.248-.173.079-.01.036.251.033-.2.065-.392.1-.587l.614-3.688c.068-.407-.555-.582-.623-.172" transform="translate(-59.796 -61.938)" fill="#495edb"/>
          <path id="Trazado_819984" data-name="Trazado 819984" d="M104.935,272.129a.324.324,0,0,1-.316-.258c-1.984-9.8-4.143-19.23-5.251-22.927a.323.323,0,0,1,.619-.185c1.113,3.713,3.278,13.164,5.266,22.983a.323.323,0,0,1-.253.381.315.315,0,0,1-.065.006" transform="translate(-63.99 -88.025)"/>
          <path id="Trazado_819985" data-name="Trazado 819985" d="M140.3,272.949a.323.323,0,0,1-.317-.263,15.851,15.851,0,0,0-1.164-3.119,45.052,45.052,0,0,1-2.177-5.7c-.822-2.767-1-9.071-1.153-14.632-.095-3.409-.185-6.629-.412-8.494a.322.322,0,0,1,.281-.36.318.318,0,0,1,.36.282c.232,1.9.322,5.13.417,8.554.154,5.521.329,11.78,1.126,14.466a44.344,44.344,0,0,0,2.148,5.617,16.19,16.19,0,0,1,1.209,3.261.323.323,0,0,1-.258.377.318.318,0,0,1-.06.006" transform="translate(-76.644 -85.14)"/>
          <path id="Trazado_819986" data-name="Trazado 819986" d="M187.767,215.048a.323.323,0,0,1-.321-.289c0-.035-.362-3.488-.716-5.844a.323.323,0,0,1,.639-.1c.356,2.371.716,5.839.719,5.873a.322.322,0,0,1-.288.355l-.034,0" transform="translate(-94.937 -73.863)"/>
          <path id="Trazado_819987" data-name="Trazado 819987" d="M101.852,361.121a.323.323,0,0,1-.322-.307l-.418-8.188a.323.323,0,0,1,.645-.033l.418,8.189a.323.323,0,0,1-.306.338h-.017" transform="translate(-64.613 -124.774)"/>
          <path id="Trazado_819988" data-name="Trazado 819988" d="M101.709,356.812a.323.323,0,0,1-.069-.638l5.442-1.2a.323.323,0,0,1,.139.631l-5.442,1.2a.315.315,0,0,1-.07.008" transform="translate(-64.71 -125.725)"/>
          <path id="Trazado_819989" data-name="Trazado 819989" d="M159.162,373.413a.323.323,0,0,1-.095-.632c.078-.024.1-.057.107-.089a2.276,2.276,0,0,0-.46-1.337,7.688,7.688,0,0,0-4.8-2.847,8.55,8.55,0,0,0-2.438-.056,9.162,9.162,0,0,0-1.146.218c-.2.048-.4.094-.606.134a.323.323,0,1,1-.127-.633c.2-.039.391-.085.586-.13a9.771,9.771,0,0,1,1.238-.233,9.191,9.191,0,0,1,2.61.065,8.355,8.355,0,0,1,5.214,3.114c.089.134.789,1.221.538,1.923a.774.774,0,0,1-.525.489.323.323,0,0,1-.095.014" transform="translate(-81.693 -130.25)"/>
          <path id="Trazado_819990" data-name="Trazado 819990" d="M164.235,372.239a.323.323,0,0,1-.145-.612c.479-.24.681-.471.72-.824a2.287,2.287,0,0,0-.041-1.344,6.234,6.234,0,0,0-1.949-2.566,8.935,8.935,0,0,0-2.887-1.611,5.468,5.468,0,0,0-3-.28c-.465.032-.915.106-1.348.179s-.91.152-1.373.183a.319.319,0,0,1-.344-.3.324.324,0,0,1,.3-.344c.431-.028.878-.1,1.31-.174.449-.075.915-.153,1.38-.183a6.032,6.032,0,0,1,3.307.319,9.5,9.5,0,0,1,3.091,1.739,6.711,6.711,0,0,1,2.124,2.841,2.846,2.846,0,0,1,.063,1.658,1.67,1.67,0,0,1-1.066,1.287.321.321,0,0,1-.144.034" transform="translate(-83.299 -129.016)"/>
          <path id="Trazado_819991" data-name="Trazado 819991" d="M245.538,123.287l-1.613-6.456s4.183-10.877,6.454-11.237,4.9-1.795,4.066-5.859-2.871-3.108-2.871-3.108c-2.031-3.466-3.826-3.227-5.021-2.63-3.228-4.3-10.163-4.9-13.988,2.152s-2.51,20.562.121,36.343c4.065-2.749,12.852-9.2,12.852-9.2" transform="translate(-110.325 -32.158)" fill="#ffd4d4"/>
          <path id="Trazado_819992" data-name="Trazado 819992" d="M139.761,201.671a26.168,26.168,0,0,1-17.642-6.807.323.323,0,1,1,.431-.48,25.563,25.563,0,0,0,18.845,6.588c4.59-.305,8.748-1.9,10.591-4.051a15.85,15.85,0,0,0,3.285-9.09.336.336,0,0,1,.334-.311.323.323,0,0,1,.311.334,16.2,16.2,0,0,1-3.437,9.483c-1.954,2.285-6.287,3.963-11.042,4.279-.5.034-1.066.055-1.677.055" transform="translate(-72.015 -66.416)"/>
          <path id="Trazado_819993" data-name="Trazado 819993" d="M238.434,118.734c-2.329-.856-2.678-2.858-.77-4.447l10.3-8.585c1.907-1.59,3.812-.889,4.233,1.558l2.286,13.211c.424,2.447-1.137,3.746-3.467,2.89Z" transform="translate(-112.542 -37.136)" fill="#7db3db"/>
          <path id="Trazado_819994" data-name="Trazado 819994" d="M255.885,105.182c.121,2.14,1.367,2.615,2.258,2.081-.356,2.377,1.784,2.851,2.379,2.317s-.18-7.488-4.339-6.953a4.3,4.3,0,0,0-.3,2.555" transform="translate(-119.405 -36.338)" fill="#ffd4d4"/>
          <path id="Trazado_819995" data-name="Trazado 819995" d="M242.616,91.019c-5.44-1.514-10.52,2.764-12.125,10.877-.732,3.7-.537,8.7-.048,13.569a20.712,20.712,0,0,1,2.658.431l.331-6.334c1.516.446,8.2,1.337,9.184-2.317s-3.389-4.815-7.311-3.388c.446-1.961,1.426-5.26,3.922-6.152s4.012,5.528,6.865,3.923,1.961-9.093-3.476-10.609" transform="translate(-110.266 -32.131)" fill="#ffd4d4"/>
          <path id="Trazado_819996" data-name="Trazado 819996" d="M238.741,111.794a14.825,14.825,0,0,1-3.7-.444.323.323,0,0,1,.182-.619c1.13.333,5.139.89,7.369-.361a2.787,2.787,0,0,0,1.411-1.73,2.429,2.429,0,0,0-.6-2.6c-1.234-1.132-3.819-1.295-6.286-.4a.318.318,0,0,1-.324-.061.322.322,0,0,1-.1-.313c.817-3.6,2.168-5.684,4.128-6.385,1.388-.5,2.441.816,3.46,2.084,1.254,1.558,2.165,2.53,3.355,1.862a2.891,2.891,0,0,0,1.278-1.954,7.3,7.3,0,0,0-1.134-5.477.323.323,0,1,1,.535-.361,7.973,7.973,0,0,1,1.228,5.986,3.513,3.513,0,0,1-1.59,2.368c-1.753.988-3.041-.61-4.175-2.019-.919-1.142-1.786-2.219-2.74-1.881-1.637.585-2.811,2.34-3.581,5.358,2.512-.754,5.077-.483,6.383.715a3.039,3.039,0,0,1,.79,3.246,3.408,3.408,0,0,1-1.719,2.126,8.8,8.8,0,0,1-4.169.861" transform="translate(-111.967 -33.609)"/>
          <path id="Trazado_819997" data-name="Trazado 819997" d="M257.036,106.438a1.643,1.643,0,0,1-.284-.024c-.475-.083-1.284-.465-1.372-2.085a.323.323,0,1,1,.645-.035c.033.615.205,1.372.838,1.483.928.16,2.561-1.055,3.354-2.929a4.51,4.51,0,0,0-.3-3.588.323.323,0,1,1,.583-.278,5.084,5.084,0,0,1,.308,4.118c-.8,1.891-2.47,3.337-3.777,3.337" transform="translate(-119.252 -34.993)"/>
          <path id="Trazado_819998" data-name="Trazado 819998" d="M260.89,112.392a1.823,1.823,0,0,1-1.2-.42,2.556,2.556,0,0,1-.617-2.528.323.323,0,1,1,.634.121,1.961,1.961,0,0,0,.4,1.914,1.441,1.441,0,0,0,1.452.138.323.323,0,0,1,.221.606,2.6,2.6,0,0,1-.893.168" transform="translate(-120.533 -38.67)"/>
          <path id="Trazado_819999" data-name="Trazado 819999" d="M330.826,142.293,282.81,114.571c-4.783-2.761-12.61-2.761-17.393,0L217.4,142.293c-4.784,2.761-8.7,9.54-8.7,15.063V212.8c0,5.523,3.913,12.3,8.7,15.064l48.016,27.721c4.782,2.762,12.61,2.762,17.393,0l48.016-27.721c4.783-2.762,8.7-9.541,8.7-15.064V157.356c0-5.523-3.913-12.3-8.7-15.063" transform="translate(-102.721 -39.846)" fill="#def2ff"/>
          <path id="Trazado_820000" data-name="Trazado 820000" d="M326.049,190.3a32.757,32.757,0,1,0-46.791,29.6c3.58,2.174,3.589,5,3.433,10.04-.131,4.244-.418,7.664,1.538,9.46,1.562,1.711,5.028,2.9,9.062,2.9s7.5-1.191,9.063-2.9c1.956-1.8,1.669-5.216,1.537-9.46-.155-5.042-.146-7.865,3.432-10.04a32.76,32.76,0,0,0,18.725-29.6" transform="translate(-121.078 -55.8)" fill="#f2ac30"/>
          <path id="Trazado_820001" data-name="Trazado 820001" d="M326.235,190.123a33.48,33.48,0,0,0-22.56-31.37c-13.5-4.634-28.648.424-37.136,11.725-8.9,11.857-8.349,28.615.7,40.195a33.251,33.251,0,0,0,8.123,7.336c1.566,1.018,3.4,1.675,4.821,2.887a6.683,6.683,0,0,1,2.047,4.771c.321,3.8-.648,7.727.291,11.465.758,3.015,4.025,4.333,6.755,4.937,4.61,1.02,12.808.532,14.519-4.937,1.693-5.414-2.576-14.159,3.971-17.325a33.369,33.369,0,0,0,18.472-29.683.323.323,0,0,0-.646,0,32.475,32.475,0,0,1-18.151,29.126c-2.614,1.31-3.762,3.592-4,6.418-.331,3.905,1.081,8.6-.639,12.261-1.831,3.9-8.314,4.107-11.878,3.753a11.812,11.812,0,0,1-6.1-2.208c-1.708-1.35-1.967-3.4-2.03-5.442-.11-3.584.724-7.445-.388-10.933-.985-3.094-4.225-4.077-6.716-5.647a32.44,32.44,0,0,1-14.768-30.927c1.581-15.439,14.648-27.609,29.977-28.759a32.438,32.438,0,0,1,34.7,32.357.323.323,0,0,0,.646,0" transform="translate(-120.941 -55.621)" fill="#f2ac30"/>
          <path id="Trazado_820002" data-name="Trazado 820002" d="M316.042,262.563a49.506,49.506,0,0,1-21.3,0,35.378,35.378,0,0,1,.05,4.579c-.13,4.244-.417,7.664,1.538,9.46,1.561,1.711,5.028,2.9,9.062,2.9s7.5-1.191,9.063-2.9c1.956-1.8,1.669-5.216,1.538-9.46a35.5,35.5,0,0,1,.05-4.579" transform="translate(-133.177 -92.996)" fill="#32015c"/>
          <path id="Trazado_820003" data-name="Trazado 820003" d="M315.7,262.075a49.944,49.944,0,0,1-21.13,0,.326.326,0,0,0-.409.311c.375,4.177-1.068,9.142.774,13.066,1.629,3.473,6.893,4.151,10.2,4.2,3.529.05,8.292-.842,10.2-4.2.863-1.518.822-3.532.816-5.214-.009-2.618-.276-5.238-.043-7.852.037-.415-.609-.411-.646,0-.347,3.877.643,7.964-.313,11.771-1.01,4.022-6.617,4.8-10.015,4.847-3.575.05-8.783-.914-10.014-4.847a17.1,17.1,0,0,1-.32-5.5,52.591,52.591,0,0,0,.006-6.268l-.409.312a50.777,50.777,0,0,0,21.474,0c.407-.089.234-.711-.172-.623" transform="translate(-132.922 -92.82)" fill="#32015c"/>
          <path id="Trazado_820004" data-name="Trazado 820004" d="M295.893,240.466h-.023a.645.645,0,0,1-.623-.667,58.245,58.245,0,0,0-2.926-20,13.987,13.987,0,0,1-2.086.094c-6.3-.184-9.9-3.5-11.072-6.275a4.128,4.128,0,0,1,.364-4.476c.619-.673,2.128-1.648,5.287-.621,3.83,1.248,6.522,5.094,8.353,9.829a11.984,11.984,0,0,0,5.853-3.17,20,20,0,0,1-5.806-12.973c-.194-5.368,2.734-7.736,5.539-8.162a6.127,6.127,0,0,1,6.924,4.31c1.041,3.844-.425,11.233-4.268,16.1q-.267.339-.545.657a13.163,13.163,0,0,0,2.035,1.4,11.2,11.2,0,0,0,2.36.982c2.355-7.09,5.783-10.161,7.72-11.392a5.336,5.336,0,0,1,5.442-.384,4.3,4.3,0,0,1,2.28,3.766c.023,1.578-.754,4.692-6.2,7.832a12.29,12.29,0,0,1-8.332,1.708c-1.4,4.671-2.346,11.048-2.112,19.71a.647.647,0,0,1-.628.664.659.659,0,0,1-.663-.628c-.235-8.739.687-15.232,2.106-20.042a12.548,12.548,0,0,1-2.6-1.086,14.289,14.289,0,0,1-2.3-1.593,13.211,13.211,0,0,1-6.363,3.522,61.775,61.775,0,0,1,2.923,20.269.646.646,0,0,1-.645.624M282.3,209.36a2.37,2.37,0,0,0-1.817.654,2.909,2.909,0,0,0-.126,3.1c1.024,2.427,4.237,5.32,9.92,5.486a12.6,12.6,0,0,0,1.576-.05c-1.747-4.359-4.2-7.747-7.435-8.8a6.967,6.967,0,0,0-2.119-.388m24.275,8.419a11.2,11.2,0,0,0,7.287-1.577c3.559-2.053,5.583-4.493,5.552-6.695a2.981,2.981,0,0,0-1.6-2.648,4.067,4.067,0,0,0-4.134.337c-1.43.909-4.757,3.666-7.1,10.583M299.7,195.264a4.953,4.953,0,0,0-.75.056c-2.255.342-4.606,2.318-4.442,6.838a18.618,18.618,0,0,0,5.4,12.089q.259-.3.489-.59c3.928-4.981,4.867-11.893,4.035-14.966a4.774,4.774,0,0,0-4.733-3.427" transform="translate(-127.509 -68.7)" fill="#32015c"/>
          <path id="Trazado_820005" data-name="Trazado 820005" d="M305.9,269.943a30.287,30.287,0,0,1-8.578-1.124.323.323,0,1,1,.182-.619c5.628,1.655,11.55,1.112,16.66.473a.327.327,0,0,1,.36.281.322.322,0,0,1-.28.36,67.145,67.145,0,0,1-8.344.629" transform="translate(-134.027 -94.988)"/>
          <path id="Trazado_820006" data-name="Trazado 820006" d="M231.005,245.921c-1.948,1.525-3.826.77-4.173-1.68l-1.873-13.231c-.347-2.451,1.245-3.7,3.54-2.773l12.395,4.992c2.3.924,2.579,2.928.632,4.454Z" transform="translate(-108.461 -80.73)" fill="#d4336e"/>
          <path id="Trazado_820007" data-name="Trazado 820007" d="M297,312.8a2.6,2.6,0,0,1-1.1-.232,2.705,2.705,0,0,1-1.4-2.8,4.93,4.93,0,0,1,2.957-4.213,8.917,8.917,0,0,1,.978-.442,8.146,8.146,0,0,0-4.644-1.968,5.107,5.107,0,0,0-5.242,2.838.323.323,0,1,1-.577-.289,5.737,5.737,0,0,1,5.87-3.194,8.787,8.787,0,0,1,5.281,2.376,12.8,12.8,0,0,1,10.091,1.237.323.323,0,1,1-.353.541,12.084,12.084,0,0,0-9.241-1.252,6.043,6.043,0,0,1,1.2,2.087,3.938,3.938,0,0,1-1.2,4.247A4.058,4.058,0,0,1,297,312.8m1.945-7.191a8.69,8.69,0,0,0-1.19.515,4.339,4.339,0,0,0-2.613,3.657,2.151,2.151,0,0,0,1.027,2.2,2.967,2.967,0,0,0,3.015-.732,3.291,3.291,0,0,0,1.013-3.567,5.558,5.558,0,0,0-1.252-2.075" transform="translate(-130.781 -107.132)" fill="#495edb"/>
          <path id="Trazado_820008" data-name="Trazado 820008" d="M373.4,262.215a7.771,7.771,0,1,1-7.77-7.771,7.771,7.771,0,0,1,7.77,7.771" transform="translate(-155.548 -90.12)" fill="#7db3db"/>
          <path id="Trazado_820009" data-name="Trazado 820009" d="M375.964,171.922a3.765,3.765,0,0,1-5.276.717l-5.854-4.449a3.766,3.766,0,0,1,4.559-6l5.853,4.45a3.767,3.767,0,0,1,.718,5.278" transform="translate(-157.493 -57.174)" fill="#ffc4c4"/>
          <path id="Trazado_820010" data-name="Trazado 820010" d="M255.845,272.671a3.765,3.765,0,0,1,4.74,2.429l2.256,7a3.766,3.766,0,0,1-7.17,2.31l-2.255-7a3.766,3.766,0,0,1,2.43-4.739" transform="translate(-118.492 -96.511)" fill="#ffc4c4"/>
          <path id="Trazado_820011" data-name="Trazado 820011" d="M238.347,183.314a5.434,5.434,0,1,1,5.434-5.434,5.44,5.44,0,0,1-5.434,5.434m0-10.222a4.788,4.788,0,1,0,4.788,4.788,4.794,4.794,0,0,0-4.788-4.788" transform="translate(-111.295 -61.078)" fill="#495edb"/>
          <path id="Trazado_820012" data-name="Trazado 820012" d="M283.94,143.248a13.006,13.006,0,0,1-3.551-.56.323.323,0,1,1,.177-.621c3.4.968,5.719.656,8-1.08a18.13,18.13,0,0,0,2-1.775,6.541,6.541,0,0,1-2.76-2.535,5.828,5.828,0,0,1-.469-4.866,3.14,3.14,0,0,1,2.206-1.941,3.929,3.929,0,0,1,4.146,2.172c1.2,2.4-.351,5.019-2,6.9a5.737,5.737,0,0,0,2.411.15,6.621,6.621,0,0,0,5.433-4.869.323.323,0,1,1,.623.167,7.265,7.265,0,0,1-5.963,5.342,6.379,6.379,0,0,1-2.987-.261,19.927,19.927,0,0,1-2.246,2.028,7.961,7.961,0,0,1-5.021,1.748m6.122-12.769a3.2,3.2,0,0,0-.4.025,2.474,2.474,0,0,0-1.727,1.551,5.134,5.134,0,0,0,.422,4.284,5.861,5.861,0,0,0,2.676,2.372c1.726-1.926,3.086-4.371,2.064-6.412a3.236,3.236,0,0,0-3.039-1.821" transform="translate(-128.027 -45.987)" fill="#f2ac30"/>
          <path id="Trazado_820013" data-name="Trazado 820013" d="M412.474,234.483a53.475,53.475,0,0,0-2.543-9.728c-.716-1.857-.2-3.018-2.977-4.632s-6.187-4.484-6.815-4.753-1.613-4.124-5.29-.717-7.709,3.676-8.7.448c-1.883-.358-2.959-1.882-2.422-2.958s4.842-4.034,4.842-4.034c-2.152,1.164-5.918,1.434-6.456-.179s1.255-2.871,4.3-3.766,15.244-6.366,18.559-4.3,8.609,6.545,12.375,9.056,5.111,6.545,6.9,11.3,3.228,9.774,3.228,9.774-4.7,8.263-15.014,4.5" transform="translate(-164.107 -70.624)" fill="#ffd4d4"/>
          <path id="Trazado_820014" data-name="Trazado 820014" d="M386.745,221.86a2.5,2.5,0,0,1-2.161-1.174.323.323,0,1,1,.533-.366c1.173,1.7,3.181.69,5.308-.6l.428-.257c.162-.085.312-.159.462-.233a5.79,5.79,0,0,0,1.443-.893.323.323,0,1,1,.442.47,6.335,6.335,0,0,1-1.6,1c-.145.072-.291.144-.433.218l-.407.245a8.713,8.713,0,0,1-4.014,1.586" transform="translate(-164.994 -77.301)"/>
          <path id="Trazado_820015" data-name="Trazado 820015" d="M385.094,213.233a4.262,4.262,0,0,1-1.1-.139.323.323,0,1,1,.164-.625,5.691,5.691,0,0,0,2.526-.077c.206-.037.415-.075.628-.109a13.451,13.451,0,0,0,2.139-.7c.161-.083.33-.159.5-.235s.322-.147.5-.234c.12-.061.239-.134.362-.21a3.366,3.366,0,0,1,.83-.409.323.323,0,1,1,.178.621,2.854,2.854,0,0,0-.668.338c-.139.086-.275.17-.411.238-.182.092-.351.169-.519.245s-.322.147-.5.234a14.067,14.067,0,0,1-2.285.743c-.23.037-.434.074-.635.11a9.561,9.561,0,0,1-1.706.2" transform="translate(-164.72 -74.551)"/>
          <path id="Trazado_820016" data-name="Trazado 820016" d="M409.95,197.867a2.774,2.774,0,0,1,.773,3.828l-7.441,11.2a2.768,2.768,0,0,1-3.826.774l-11.2-7.439a2.771,2.771,0,0,1-.773-3.827l7.44-11.2a2.769,2.769,0,0,1,3.826-.774Z" transform="translate(-165.878 -67.285)" fill="#495edb"/>
          <path id="Trazado_820017" data-name="Trazado 820017" d="M506.925,152.217c-16.616.882-13.751,14.582-12.424,19.06,1.215,4.1-4.428,7.517-1.548,12.578s7.96,7.8,15.852,8.162c0,0-.391,8.788-.749,11.655l16.5-1.076c-.692-5.083-2.182-15.623-.15-19.547.826-1.6,5.815,5.106,11.116-3.048s-11.983-28.665-28.6-27.784" transform="translate(-203.103 -53.903)" fill="#ffd4d4"/>
          <path id="Trazado_820018" data-name="Trazado 820018" d="M517.753,211.467a.323.323,0,0,1-.019-.645,20.788,20.788,0,0,0,11.316-4.344.323.323,0,0,1,.4.505,21.451,21.451,0,0,1-11.681,4.484h-.019" transform="translate(-212.066 -73.106)"/>
          <path id="Trazado_820019" data-name="Trazado 820019" d="M518.3,184.709c1.651-.083,2.451,3.149.847,3.354s-2.2-3.286-.847-3.354" transform="translate(-212.109 -65.42)"/>
          <path id="Trazado_820020" data-name="Trazado 820020" d="M518.069,184.857a.32.32,0,0,1-.132-.028l-.1-.045a4.285,4.285,0,0,1-1.553-.946.323.323,0,0,1,.5-.411,4.063,4.063,0,0,0,1.319.768l.1.045a.323.323,0,0,1-.133.617" transform="translate(-211.635 -64.925)"/>
          <path id="Trazado_820021" data-name="Trazado 820021" d="M499.318,182.22c1.653-.024,2.333,3.236.724,3.381s-2.081-3.364-.724-3.381" transform="translate(-205.37 -64.539)"/>
          <path id="Trazado_820022" data-name="Trazado 820022" d="M499.11,182.349a.331.331,0,0,1-.144-.034l-.109-.054a4.239,4.239,0,0,1-1.5-1,.323.323,0,0,1,.512-.392,4.033,4.033,0,0,0,1.279.81l.11.054a.323.323,0,0,1-.144.612" transform="translate(-204.932 -64.017)"/>
          <path id="Trazado_820023" data-name="Trazado 820023" d="M505.877,189.678a4.2,4.2,0,0,1-3.015-.933c-1.142-1.021-.468-2.261-.023-3.082a8.577,8.577,0,0,0,1.286-4.09,3.8,3.8,0,0,0-1.2-2.652l-.294-.361a.323.323,0,1,1,.5-.4l.29.355a4.409,4.409,0,0,1,1.345,3.05,9.156,9.156,0,0,1-1.365,4.41c-.529.974-.822,1.659-.114,2.293a4.328,4.328,0,0,0,3.248.758c.184,0,.368-.009.552-.01h0a.323.323,0,0,1,0,.646c-.18,0-.36.006-.54.01-.226.005-.453.011-.681.011" transform="translate(-206.683 -63.057)"/>
          <path id="Trazado_820024" data-name="Trazado 820024" d="M509.286,200.859c-.969,0-1.853-.85-2.628-2.526a.325.325,0,0,1,.032-.325.33.33,0,0,1,.3-.132,9.169,9.169,0,0,0,5.237-2.14.323.323,0,0,1,.555.28c-.4,2.01-1.751,4.842-3.495,4.842m-1.819-2.346c.588,1.115,1.212,1.7,1.819,1.7,1.084,0,2.1-1.739,2.612-3.367a11.363,11.363,0,0,1-4.432,1.666" transform="translate(-208.241 -69.289)"/>
          <path id="Trazado_820025" data-name="Trazado 820025" d="M514.789,177.318c-.446-1.121.647-2.385,2.664-1.534a8.19,8.19,0,0,1,3.692,3.42c.717,1.344-.136.561-.988-.11a5.875,5.875,0,0,0-4.117-1.413c-.739.015-1.16.085-1.251-.363" transform="translate(-211.096 -62.161)" fill="#d4336e"/>
          <path id="Trazado_820026" data-name="Trazado 820026" d="M521.173,180.09c-.244,0-.517-.211-1.112-.688l-.283-.226a5.513,5.513,0,0,0-3.746-1.345l-.4.008c-.118,0-.226.006-.325.006-.287,0-.886,0-1.015-.635a1.541,1.541,0,0,1,.162-1.445c.528-.779,1.7-.978,2.944-.451a8.456,8.456,0,0,1,3.852,3.565c.309.579.369.828.25,1.028a.44.44,0,0,1-.328.182m-5.141-2.906a6.173,6.173,0,0,1,4.146,1.484l.287.229.1.081a7.919,7.919,0,0,0-3.418-3.068c-.957-.4-1.8-.3-2.159.219a.947.947,0,0,0-.079.9c.031.129.04.173.4.173.093,0,.2,0,.306-.006Z" transform="translate(-210.916 -61.989)" fill="#d4336e"/>
          <path id="Trazado_820027" data-name="Trazado 820027" d="M489.66,151.539c1.434-2.45,7.173-8.608,15.183-12.016,0,7.533,4,19.248,13.27,19.546-.3,3.11-.658,5.38.118,5.679s3.348-1.374,3.766-5.081c2.214-2.39,7.53-1.615,8.727,2.153s-2.451,9.623-9.145,6.934c-1.076-.18-2.392,1.793-2.152,6.1,5.439.6,11.417-1.316,14.706-6.933s2.689-12.491-.72-17.992-4.064-7.712-3.405-10.521c9.923,2.032,16.086-4.907,14.743-13.693s-9.79-14.207-19.294-11.786-12.19,13.643-2.583,20.182c-1.346,1.523-5.478.037-10.678-2.383s-20.688-5.958-28.335,6.009c-7.831,12.254,3.766,20.262,6.725,19.456a16.476,16.476,0,0,1-.926-5.649" transform="translate(-199.231 -40.145)" fill="#d4336e"/>
          <path id="Trazado_820028" data-name="Trazado 820028" d="M547.269,285.527c-6.1-14.106-8.129-22.475-13.987-37.059s-16.617-14.585-23.073-15.3-8.538-3.658-8.9-8.439c-13.27,4.9-15.85-1.364-16.088-.885-1.137,7.054-3.348,7.054-11,5.977s-17.453,11.357-25.343,21.52c0,0-4.783-13.45-5.979-15.483-6.276,5.469-11.415,4.884-15.271,3.63,0,0,1.675,5.936,2.654,10.06-7.7,2.6,1.545,23.214,5.623,31.143,7.471,14.526,20.492,10.205,30.417-4.859,2.4,2.487,5.1,5.022,5.223,6.219a66.207,66.207,0,0,1-.55,11.014c-.6,3.586-3.585,13.868-3.585,14.226s3.824,9.684,3.824,9.684,37.539.718,37.42,6.1c5.738-.837,24.866.358,36.224-5.141s8.487-18.291,2.39-32.4M518.1,301.547l1.554-16.976,4.3,16.5Z" transform="translate(-180.148 -79.271)" fill="#7db3db"/>
          <path id="Trazado_820029" data-name="Trazado 820029" d="M547.359,285.19c-3.371-7.825-6.177-15.845-9.023-23.869-1.491-4.2-3.047-8.383-4.7-12.527a28.922,28.922,0,0,0-5.693-9.389c-3.6-3.8-8.52-5.606-13.611-6.271-2.592-.338-5.249-.382-7.752-1.2-3.413-1.115-4.849-4-5.139-7.383a.327.327,0,0,0-.409-.311c-4.465,1.615-11.026,3.469-15.046-.2-.274-.25-.847-1.085-1.235-.541a7.383,7.383,0,0,0-.419,2.023,10.442,10.442,0,0,1-.674,1.979,3.779,3.779,0,0,1-2.53,2.148c-2.725.747-5.62-.449-8.358-.391-2.791.059-5.417,1.691-7.589,3.288-6.642,4.883-11.717,11.939-16.724,18.386l.54.143q-1.274-3.581-2.6-7.141a57.817,57.817,0,0,0-3.41-8.418.328.328,0,0,0-.508-.066c-4.4,3.741-9.378,5.32-14.957,3.547a.325.325,0,0,0-.4.4c.941,3.338,1.846,6.687,2.654,10.059.076-.132.151-.265.226-.4-4.271,1.569-3.325,7.441-2.608,10.9,1.265,6.088,3.812,11.957,6.47,17.551,2.515,5.294,5.746,11.129,12.093,12.141,6.506,1.038,12.443-3.975,16.42-8.489a49.787,49.787,0,0,0,4.028-5.343l-.507.066c1.043,1.074,2.1,2.133,3.128,3.223.773.822,1.952,1.871,2.022,3.071a55.283,55.283,0,0,1-.136,6.526,65.679,65.679,0,0,1-2.635,13.148c-.43,1.6-.884,3.186-1.29,4.787a3.321,3.321,0,0,0,.446,2.051c1.057,2.747,2.178,5.469,3.294,8.193a.334.334,0,0,0,.311.237c5.886.114,11.778.436,17.644.934a107.107,107.107,0,0,1,12.979,1.726c1.4.293,6.439,1.035,6.475,3.115a.33.33,0,0,0,.409.311c5.31-.736,10.8-.446,16.142-.827,6.57-.469,13.334-1.34,19.416-4,13.838-6.055,7.717-22.8,3.249-33.186-.164-.382-.72-.052-.557.325,2.676,6.226,5.358,12.975,5.3,19.859a13.97,13.97,0,0,1-2.289,7.8c-1.852,2.732-4.9,4.28-7.9,5.4-6.16,2.3-12.917,2.918-19.432,3.3-4.675.276-9.459.061-14.1.705l.408.312c-.042-2.419-4.532-3.183-6.214-3.575a100.57,100.57,0,0,0-14.52-1.965c-4.519-.377-9.051-.617-13.583-.78q-1.6-.057-3.2-.1c-.463-.01.183.463-.033-.062q-.569-1.39-1.132-2.782-.94-2.315-1.855-4.64c-.269-.686-.778-1.589-.632-2.185.822-3.34,1.813-6.637,2.646-9.975a52.384,52.384,0,0,0,1.447-11.6c.028-1.137.336-2.9-.205-3.969-1.146-2.262-3.4-4.049-5.142-5.837a.327.327,0,0,0-.507.065c-3.848,5.777-9.247,12.161-16.459,13.477-6.949,1.267-11.412-4.6-14.145-10.1a96.571,96.571,0,0,1-6.5-16.2c-.964-3.357-3.249-11.271,1.434-12.991a.331.331,0,0,0,.225-.4c-.808-3.372-1.713-6.722-2.654-10.059l-.4.4c5.812,1.846,11.01.18,15.585-3.713l-.507-.065a58.978,58.978,0,0,1,3.466,8.588q1.263,3.4,2.48,6.817c.072.2.378.351.54.143,5.078-6.538,10.212-13.593,16.944-18.543,2.727-2,5.588-3.236,8.995-2.768,2.26.309,4.9.832,7.1-.021,1.815-.7,2.549-2.623,3-4.362.159-.617.5-1.337,0-1.759.1.086.192.189.286.284a8.728,8.728,0,0,0,1.075.917c4.22,3.068,10.5,1.31,14.887-.276l-.409-.312a9.225,9.225,0,0,0,2.716,6.4c2.068,1.856,5.04,2.217,7.687,2.48,5.4.537,10.6,1.523,14.891,5.112a24.9,24.9,0,0,1,6.688,9.832c1.773,4.319,3.367,8.716,4.931,13.115,2.872,8.075,5.7,16.146,9.089,24.022.164.382.72.052.557-.325" transform="translate(-179.959 -79.097)" fill="#7db3db"/>
          <path id="Trazado_820030" data-name="Trazado 820030" d="M568.034,334.694l1.554-16.976-.634.086,4.3,16.5.311-.409-5.858.478c-.412.033-.416.68,0,.646l5.858-.478a.328.328,0,0,0,.312-.409q-2.152-8.25-4.3-16.5a.325.325,0,0,0-.635.086q-.777,8.488-1.554,16.976c-.038.415.608.411.646,0" transform="translate(-229.76 -112.418)" fill="#7db3db"/>
          <path id="Trazado_820031" data-name="Trazado 820031" d="M456.262,353.722c2.631-2.511,8.966-6.934,10.521-4.663a5.478,5.478,0,0,1,4.064-1.314c1.793-1.913,3.947-2.392,6.1.12s8.607,7.89,9.684,8.966,9.445.836,28.215-3.228c3.824,1.554,4.031,12.378,4.031,12.378-6.968.441-58.293.2-58.293.2Z" transform="translate(-190.401 -122.598)" fill="#ffd4d4"/>
          <path id="Trazado_820032" data-name="Trazado 820032" d="M482.728,361a.323.323,0,0,1-.231-.1l-.088-.09a.314.314,0,0,1-.078-.132,5.691,5.691,0,0,1-.618-1.405c-.168-.335-.324-.668-.479-1s-.316-.677-.5-1.039c-.393-.608-.761-1.3-1.117-1.965-.279-.525-.566-1.064-.874-1.574-.462.54-.958,1.061-1.441,1.568a28.329,28.329,0,0,0-2.03,2.292l-.116.154c-.8,1.076-2.287,3.075-4.158,1.991a1.971,1.971,0,0,1-1.02-1.228,4.232,4.232,0,0,1,.633-2.979c.459-.735.964-1.446,1.452-2.134s.98-1.381,1.423-2.089c.24-.362.456-.734.672-1.106a10.275,10.275,0,0,1,1.526-2.178.323.323,0,0,1,.457.457,9.658,9.658,0,0,0-1.423,2.045c-.223.384-.446.768-.688,1.133-.448.716-.951,1.427-1.438,2.113s-.982,1.384-1.426,2.093a3.7,3.7,0,0,0-.565,2.469,1.339,1.339,0,0,0,.712.84c1.282.741,2.3-.434,3.327-1.811l.118-.159a28.821,28.821,0,0,1,2.078-2.348c.6-.633,1.173-1.232,1.7-1.877a.323.323,0,0,1,.522.029c.411.639.778,1.328,1.134,2s.711,1.334,1.108,1.95c.2.4.362.741.523,1.086.153.327.306.657.481,1.007a.538.538,0,0,1,.024.063,4.454,4.454,0,0,0,.656,1.4.323.323,0,0,1-.253.524" transform="translate(-195.229 -123.218)"/>
          <path id="Trazado_820033" data-name="Trazado 820033" d="M462.91,359.366a2.6,2.6,0,0,1-2.072-.925c-1.183-1.651.532-3.367,1.1-3.93a31.034,31.034,0,0,1,6.437-4.357.323.323,0,1,1,.315.564,30.539,30.539,0,0,0-6.3,4.255c-1.285,1.284-1.616,2.264-1.035,3.076a2.4,2.4,0,0,0,2.911.347,13.613,13.613,0,0,0,2.7-1.828l.426.487a14.165,14.165,0,0,1-2.848,1.924,3.705,3.705,0,0,1-1.628.388" transform="translate(-191.878 -124.005)"/>
          <path id="Trazado_820034" data-name="Trazado 820034" d="M457.936,363.456a.323.323,0,0,1-.045-.643,3.7,3.7,0,0,0,1.79-.805.323.323,0,1,1,.457.457,4.306,4.306,0,0,1-2.156.988.362.362,0,0,1-.046,0" transform="translate(-190.88 -128.184)"/>
          <path id="Trazado_820035" data-name="Trazado 820035" d="M487.462,292.674a.322.322,0,0,1-.22-.087,12.726,12.726,0,0,1-2.883-4.612c-1.9-5.932-.376-12.1,1.549-17.887.1-.314-.409-.89-.749-1.27-.132-.149-.258-.29-.355-.416-.34-.576-.656-1.118-.97-1.66a.323.323,0,1,1,.559-.324q.471.814.946,1.623c.066.081.181.21.3.346.49.551,1.1,1.237.88,1.906-1.891,5.681-3.387,11.73-1.547,17.486a12.206,12.206,0,0,0,2.708,4.337.323.323,0,0,1-.22.559" transform="translate(-200.045 -94.304)"/>
          <path id="Trazado_820036" data-name="Trazado 820036" d="M433.819,262.252a6.085,6.085,0,0,1-3.164-.652.323.323,0,1,1,.355-.54c1.938,1.278,8.765.473,14.224-3.252a.323.323,0,0,1,.364.533,22.194,22.194,0,0,1-11.78,3.911" transform="translate(-181.281 -91.292)"/>
          <path id="Trazado_820037" data-name="Trazado 820037" d="M463.115,273.989a.323.323,0,0,1-.316-.262,40.889,40.889,0,0,0-2.789-8.931.323.323,0,1,1,.6-.238,41.409,41.409,0,0,1,2.822,9.048.323.323,0,0,1-.256.378.332.332,0,0,1-.061.006" transform="translate(-191.721 -93.63)"/>
          <path id="Trazado_820038" data-name="Trazado 820038" d="M571.068,322.714a.324.324,0,0,1-.311-.233c-.5-1.75-1.042-3.758-1.613-5.884-1.139-4.249-2.431-9.067-3.8-13.085-1.97-5.792-3.549-11.691-5.263-18.249a.323.323,0,0,1,.231-.394.319.319,0,0,1,.393.231c1.71,6.545,3.286,12.433,5.25,18.2,1.374,4.038,2.668,8.866,3.81,13.126.57,2.123,1.107,4.127,1.609,5.871a.323.323,0,0,1-.22.4.308.308,0,0,1-.09.013" transform="translate(-227.17 -100.892)"/>
          <path id="Trazado_820039" data-name="Trazado 820039" d="M546.365,352.317a.317.317,0,0,1-.225-.094.394.394,0,0,1-.094-.388.416.416,0,0,1,.356-.209.24.24,0,0,0,.09-.01.361.361,0,0,1,.066-.025c.142-.035.285-.087.434-.14a5.326,5.326,0,0,1,.745-.223,9.854,9.854,0,0,0,1.427-.342l.342-.1c.3-.053.57-.076.827-.1.111-.01.22-.019.326-.03-.017-.041-.036-.081-.054-.123a4.176,4.176,0,0,1-.521-2.455,4.873,4.873,0,0,1,2.3-2.994A14.045,14.045,0,0,1,557.8,343.5c.358-.054.713-.107,1.064-.166a42.988,42.988,0,0,1,4.536-.4c.739-.039,1.478-.078,2.218-.137,1.763-.09,3.578-.182,5.4-.182h3.945a.323.323,0,0,1,0,.646h-3.945c-1.811,0-3.616.091-5.362.18-.736.059-1.481.1-2.225.138a42.432,42.432,0,0,0-4.466.4c-.351.059-.71.113-1.071.167a13.583,13.583,0,0,0-5.174,1.491,4.253,4.253,0,0,0-2,2.554,3.646,3.646,0,0,0,.476,2.089c.077.174.153.348.222.521a.322.322,0,0,1-.236.437,7.3,7.3,0,0,1-.793.1c-.242.021-.491.042-.741.085l-.3.09a10.244,10.244,0,0,1-1.5.359,4.654,4.654,0,0,0-.638.2c-.159.056-.311.11-.463.15a.743.743,0,0,1-.2.056.325.325,0,0,1-.176.052" transform="translate(-222.195 -121.349)"/>
          <path id="Trazado_820040" data-name="Trazado 820040" d="M558.878,368.071a.323.323,0,0,1-.323-.323,19.05,19.05,0,0,0-1.145-6.7l-.157-.442a12.2,12.2,0,0,0-1.421-3.073,7.445,7.445,0,0,0-2.668-2.232.323.323,0,1,1,.309-.566,8.054,8.054,0,0,1,2.9,2.44,12.72,12.72,0,0,1,1.492,3.216l.154.435a19.574,19.574,0,0,1,1.184,6.72c0,.007,0,.016,0,.024v.18a.323.323,0,0,1-.323.323" transform="translate(-224.663 -125.627)"/>
          <path id="Trazado_820041" data-name="Trazado 820041" d="M505.976,317.913h-.019a.322.322,0,0,1-.3-.341,34.2,34.2,0,0,1,1.645-6.062,26.156,26.156,0,0,0,1.11-3.4c.138-.5.277-1,.431-1.5a58.1,58.1,0,0,0,2.613-11.408,18.221,18.221,0,0,0,.357-3.555,10.142,10.142,0,0,0-.7-3.244c-.217-.688-.443-1.369-.67-2.053-.525-1.583-1.069-3.222-1.491-4.906a34.063,34.063,0,0,1-1.2-6.981,12.415,12.415,0,0,1,.136-2.763c.037-.3.074-.592.1-.889l.03-.3c.114-1.143.232-2.324.453-3.436.185-.619.331-1.208.479-1.8s.3-1.21.486-1.819a26.03,26.03,0,0,1,.9-2.6c.139-.36.281-.73.423-1.12.4-1.263.756-2.548,1.135-3.91.288-1.035.579-2.08.892-3.125.113-.572.265-1.181.413-1.769s.3-1.2.417-1.789c.076-.273.136-.508.195-.741a10.789,10.789,0,0,1,.542-1.715.323.323,0,0,1,.593.254,10.285,10.285,0,0,0-.508,1.618c-.061.238-.122.48-.194.734-.115.584-.269,1.2-.419,1.794s-.3,1.182-.413,1.769c-.319,1.07-.609,2.111-.9,3.142-.364,1.307-.739,2.659-1.146,3.945-.149.408-.291.78-.431,1.144a25.673,25.673,0,0,0-.88,2.55c-.181.6-.333,1.209-.48,1.8s-.3,1.2-.48,1.8c-.207,1.051-.324,2.216-.436,3.343l-.03.3c-.03.3-.067.6-.105.9a11.731,11.731,0,0,0-.134,2.618,33.636,33.636,0,0,0,1.182,6.87c.421,1.679.961,3.305,1.482,4.878.228.688.455,1.372.671,2.056a10.756,10.756,0,0,1,.732,3.445,18.671,18.671,0,0,1-.364,3.649,58.567,58.567,0,0,1-2.634,11.5c-.152.5-.29,1-.426,1.487a27.353,27.353,0,0,1-1.138,3.479,33.9,33.9,0,0,0-1.595,5.845.323.323,0,0,1-.322.3" transform="translate(-207.895 -87.303)"/>
          <path id="Trazado_820042" data-name="Trazado 820042" d="M525.118,239.83a3.118,3.118,0,0,1-2.557-1.516,10.591,10.591,0,0,1-1.774-5.244c-.056-.369-.112-.747-.177-1.122-.5.843-1,1.678-1.551,2.506l-.152.23c-.774,1.174-2.216,3.36-3.843,3.563a2.062,2.062,0,0,1-1.691-.6c-1.293-1.2-1.2-2.724-1.108-4.2l.016-.275a.323.323,0,1,1,.645.038l-.016.276c-.085,1.384-.166,2.691.9,3.682a1.424,1.424,0,0,0,1.174.429c1.332-.166,2.718-2.267,3.383-3.278l.154-.232c.7-1.053,1.33-2.128,1.937-3.167a.36.36,0,0,1,.342-.179.317.317,0,0,1,.278.227c.147.661.249,1.34.347,2a9.974,9.974,0,0,0,1.656,4.957A2.373,2.373,0,0,0,526.024,239a21.527,21.527,0,0,0,3.807-1.768,12.509,12.509,0,0,0,3.058-2.621.323.323,0,0,1,.5.414,13.164,13.164,0,0,1-3.216,2.757,22.082,22.082,0,0,1-3.917,1.822,3.046,3.046,0,0,1-1.135.229" transform="translate(-210.22 -81.727)"/>
          <path id="Trazado_820043" data-name="Trazado 820043" d="M522.58,244.179a1.307,1.307,0,0,1-.235-.021,1.083,1.083,0,0,1-.884-.889,1.625,1.625,0,0,1,.561-1.687,1.552,1.552,0,0,1,1.7-.094.324.324,0,0,1,.16.359,1.157,1.157,0,0,1,.165.363,1.609,1.609,0,0,1-.221,1.279,1.506,1.506,0,0,1-1.25.69m.349-2.256a.847.847,0,0,0-.516.173.98.98,0,0,0-.32,1.037.441.441,0,0,0,.368.39.865.865,0,0,0,.837-.4.973.973,0,0,0,.129-.747.431.431,0,0,0-.251-.309.322.322,0,0,1-.155-.14.9.9,0,0,0-.092,0" transform="translate(-213.477 -85.457)"/>
          <path id="Trazado_820044" data-name="Trazado 820044" d="M517.874,270.2a1.386,1.386,0,0,1-.92-.4,1.557,1.557,0,0,1-.457-1.241,2.1,2.1,0,0,1,.836-1.5,1.072,1.072,0,0,1,1.242-.064.357.357,0,0,1,.146.109.868.868,0,0,1,.6.767,2.339,2.339,0,0,1-.919,2.195,1.088,1.088,0,0,1-.522.137m.07-2.731a.375.375,0,0,0-.225.1,1.462,1.462,0,0,0-.578,1.029.906.906,0,0,0,.255.725c.384.337.614.212.688.169a1.728,1.728,0,0,0,.594-1.525c-.009-.054-.045-.233-.134-.25a.323.323,0,0,1-.2-.129l0,0a1.282,1.282,0,0,0-.39-.123" transform="translate(-211.734 -94.506)"/>
          <path id="Trazado_820045" data-name="Trazado 820045" d="M516.016,297.693a1.126,1.126,0,0,1-.87-.486,2.179,2.179,0,0,1-.34-1.56,1.249,1.249,0,0,1,.5-.886.324.324,0,0,1,.306-.028.308.308,0,0,1,.338-.295,1.293,1.293,0,0,1,1.258,1.1,1.985,1.985,0,0,1-.814,2.071.879.879,0,0,1-.378.085m-.21-2.636a.323.323,0,0,1-.143.241.642.642,0,0,0-.219.448,1.547,1.547,0,0,0,.2,1.055c.174.212.332.291.47.225a1.411,1.411,0,0,0,.458-1.361.644.644,0,0,0-.657-.581.34.34,0,0,1-.112-.025" transform="translate(-211.128 -104.284)"/>
          <path id="Trazado_820046" data-name="Trazado 820046" d="M517.778,337.446a.84.84,0,0,1-.461-.136,2.112,2.112,0,0,1-.575-2.046,3.577,3.577,0,0,0,.349-.486.564.564,0,0,0,.164-.166,1.271,1.271,0,0,1,.113-.134.294.294,0,0,1,.083-.06,1.15,1.15,0,0,1,1.36.329,1.709,1.709,0,0,1-.2,2.36,1.381,1.381,0,0,1-.832.339m-.4-2.09a.319.319,0,0,1-.007.048c-.1.454.017,1.186.293,1.361.147.1.376-.036.541-.163a1.069,1.069,0,0,0,.128-1.421.574.574,0,0,0-.544-.206l-.023.03a1.14,1.14,0,0,1-.384.349l0,0" transform="translate(-211.805 -118.408)"/>
          <path id="Trazado_820047" data-name="Trazado 820047" d="M427.344,214.314c-1.255-1.376-4.424-3.049-7.232-4.424-2.383-1.166-5.56,1.017-2.153,4.663s9.8,5.439,9.8,5.439" transform="translate(-176.307 -74.228)" fill="#ffd4d4"/>
          <path id="Trazado_820048" data-name="Trazado 820048" d="M427.584,220.136a.314.314,0,0,1-.087-.012c-.265-.074-6.523-1.859-9.953-5.529-2.259-2.418-1.554-3.961-1.146-4.512a2.972,2.972,0,0,1,3.677-.661c2.716,1.33,6,3.042,7.329,4.5a.323.323,0,0,1-.477.435c-1.268-1.389-4.681-3.149-7.136-4.352a2.354,2.354,0,0,0-2.874.464c-.65.878-.239,2.256,1.1,3.687,3.308,3.54,9.592,5.331,9.656,5.349a.323.323,0,0,1-.087.634" transform="translate(-176.128 -74.05)"/>
          <path id="Trazado_820049" data-name="Trazado 820049" d="M455.008,348.375H429.514l-10.258-29.963a7.536,7.536,0,0,0-6.649-4.75H369.072a3.371,3.371,0,0,0-3.394,4.75l10.567,30.865c1.157,3,1.292,5.463,4.3,5.463h74.466a3.183,3.183,0,0,0,0-6.366" transform="translate(-158.228 -111.094)" fill="#f2ac30"/>
          <path id="Trazado_820050" data-name="Trazado 820050" d="M454.852,347.816H429.613c-.5,0,.127.441-.01.042l-1.164-3.4-4.727-13.8q-1.984-5.794-3.967-11.586c-1.158-3.384-3.828-5.962-7.6-5.962h-38.2c-2.189,0-5.135-.452-7.185.5-3.294,1.535-1.168,5.779-.345,8.184l4.7,13.729q2.079,6.074,4.158,12.146c.951,2.776,1.508,7.162,5.155,7.162h74.4c4.566,0,4.494-6.71.016-7.012-.417-.028-.413.618,0,.646,3.943.265,3.471,5.72-.308,5.72H380.5c-2.866,0-3.356-3.046-4.107-5.242l-.877-2.56q-4.46-13.029-8.922-26.059l-.763-2.23c-.964-2.816,1.156-4.342,3.675-4.342h38.739c3.69,0,7.159-.362,9.75,3.019a11.362,11.362,0,0,1,1.4,3.283l1.834,5.357q3.9,11.408,7.812,22.816a.329.329,0,0,0,.311.237h25.494a.323.323,0,0,0,0-.646" transform="translate(-158.072 -110.858)" fill="#f2ac30"/>
          <path id="Trazado_820051" data-name="Trazado 820051" d="M433.239,369.248H382.607a.323.323,0,1,1,0-.646h50.632a.323.323,0,1,1,0,.646" transform="translate(-164.2 -130.553)"/>
          <path id="Trazado_820052" data-name="Trazado 820052" d="M411.025,347.6c-2.21,0-4.641-2.191-5.419-4.884a4.489,4.489,0,0,1,.445-3.956,2.783,2.783,0,0,1,2.287-1.107c2.211,0,4.641,2.191,5.418,4.885a4.491,4.491,0,0,1-.446,3.956,2.782,2.782,0,0,1-2.285,1.106m-2.687-9.3a2.127,2.127,0,0,0-1.771.849,3.867,3.867,0,0,0-.341,3.389c.7,2.436,2.856,4.417,4.8,4.417a2.124,2.124,0,0,0,1.769-.849,3.863,3.863,0,0,0,.342-3.389c-.7-2.437-2.854-4.418-4.8-4.418" transform="translate(-172.372 -119.59)"/>
          <path id="Trazado_820053" data-name="Trazado 820053" d="M500.235,176.79c-1.529-1.86-3.8-3.475-4.725-3.03s-1.119,1.847-.472,2.138.884-.894,3.016.036c1.868.814,2.335,1.193,2.181.856" transform="translate(-204.001 -61.517)" fill="#d4336e"/>
          <path id="Trazado_820054" data-name="Trazado 820054" d="M500.047,177.059h0a2.148,2.148,0,0,1-.773-.3c-.345-.167-.84-.407-1.525-.7a3.418,3.418,0,0,0-1.313-.337,1.7,1.7,0,0,0-.8.207,1.072,1.072,0,0,1-.911.092,1.061,1.061,0,0,1-.568-1.009,1.924,1.924,0,0,1,1.033-1.715,1.154,1.154,0,0,1,.5-.106c1.275,0,3.327,1.66,4.612,3.223a.357.357,0,0,1,.045.07.433.433,0,0,1,0,.418.4.4,0,0,1-.306.161m-3.611-1.988a3.981,3.981,0,0,1,1.571.39c.375.163.695.309.964.436-1.2-1.2-2.539-2.065-3.275-2.065a.518.518,0,0,0-.222.042,1.272,1.272,0,0,0-.668,1.125c0,.081.017.351.188.428a.174.174,0,0,0,.077.019.9.9,0,0,0,.294-.106,2.325,2.325,0,0,1,1.071-.269" transform="translate(-203.825 -61.34)" fill="#d4336e"/>
          <path id="Trazado_820055" data-name="Trazado 820055" d="M550.347,146.128a.323.323,0,0,1-.284-.17,17.345,17.345,0,0,1-1.479-3.374,10.779,10.779,0,0,1-.74-3.64,2.048,2.048,0,0,1,.974-1.891,1.579,1.579,0,0,1,1.72.258c2.8,2.149,1.348,6.63.592,8.457a.321.321,0,0,1-.422.174.337.337,0,0,1-.056-.03.323.323,0,0,1-.151.178.33.33,0,0,1-.154.038m-.91-8.578a.713.713,0,0,0-.327.078,1.441,1.441,0,0,0-.62,1.315,10.252,10.252,0,0,0,.708,3.443,16.239,16.239,0,0,0,1.347,3.1c.7-1.707,2.034-5.8-.395-7.664a1.267,1.267,0,0,0-.714-.277" transform="translate(-222.838 -48.489)"/>
          <path id="Trazado_820056" data-name="Trazado 820056" d="M558.621,152.677a9.211,9.211,0,0,1-3.329-.9l-.443-.18c-1.134-.486-2.363-.978-3.552-1.453a.323.323,0,0,1,.12-.623h.01a.322.322,0,0,1,.183-.215l.656-.291a17.924,17.924,0,0,1,3.44-1.263c1.677-.334,3.972-.091,4.955,1.694a2.1,2.1,0,0,1-1.8,3.223c-.08.005-.16.007-.241.007m-6.491-2.895c1,.4,2.02.813,2.966,1.219l.441.18a7.885,7.885,0,0,0,3.287.845,1.456,1.456,0,0,0,1.269-2.271c-.812-1.474-2.8-1.659-4.253-1.368a17.423,17.423,0,0,0-3.309,1.219Z" transform="translate(-223.99 -52.287)"/>
          <path id="Trazado_820057" data-name="Trazado 820057" d="M553.255,152.21a.322.322,0,0,1-.194-.065c-.291-.218-.568-.47-.836-.712a9.512,9.512,0,0,0-1.087-.892,15.513,15.513,0,0,1-1.418-.993c-.272-.205-.549-.415-.849-.625a41.621,41.621,0,0,1-3.434-3.185.323.323,0,0,1,.457-.457,40.837,40.837,0,0,0,3.364,3.124c.29.2.573.417.852.628a15.391,15.391,0,0,0,1.372.962,9.993,9.993,0,0,1,1.176.96c.176.16.345.314.517.457a.332.332,0,0,1,.4.313v.161a.324.324,0,0,1-.178.289.328.328,0,0,1-.145.034" transform="translate(-221.953 -51.423)"/>
          <path id="Trazado_820058" data-name="Trazado 820058" d="M207.892,354.915H190.848a.323.323,0,0,1-.316-.255L182.5,317.39a3.242,3.242,0,0,1,.452-2.756,2.906,2.906,0,0,1,3.291-.635l44.6,14.346a2.69,2.69,0,0,1,1.064,4.94l-23.793,21.546a.322.322,0,0,1-.216.083m-16.783-.646h16.658l23.7-21.463a2.062,2.062,0,0,0-.829-3.846l-44.595-14.346a2.308,2.308,0,0,0-2.591.425,2.625,2.625,0,0,0-.323,2.215Z" transform="translate(-93.4 -111.135)" fill="#ffd4d4"/>
          <path id="Trazado_820059" data-name="Trazado 820059" d="M198.817,31.572h-.083c-2.114-.037-4.11-1.5-5.477-4-1.791-3.285-1.611-7.679.25-11.491a15.505,15.505,0,0,0-6.759.837c-4.881,1.808-7.234,5.8-6.295,10.686a.323.323,0,1,1-.634.121c-1-5.219,1.5-9.486,6.7-11.413a16.16,16.16,0,0,1,7.3-.839,15.089,15.089,0,0,1,2-2.838c3.891-4.353,9.439-5.5,15.221-3.143a.323.323,0,0,1-.243.6c-5.515-2.246-10.8-1.163-14.5,2.975a14.508,14.508,0,0,0-1.795,2.5,10.878,10.878,0,0,1,8,4.987c1.747,3.057,1.961,6.141.586,8.462a4.986,4.986,0,0,1-4.279,2.559M194.185,16.16c-1.868,3.673-2.087,7.937-.362,11.1,1.271,2.33,3.019,3.632,4.922,3.666a4.383,4.383,0,0,0,3.795-2.242c1.253-2.115,1.038-4.963-.591-7.812-1.567-2.741-4.545-4.251-7.764-4.712" transform="translate(-92.412 -2.936)" fill="#f2ac30"/>
          <path id="Trazado_820060" data-name="Trazado 820060" d="M13.846,179.532a9.159,9.159,0,0,1-4.031-1.006.323.323,0,1,1,.284-.58,7.263,7.263,0,0,0,8.771-1.221,10.761,10.761,0,0,0,2.089-2.89,7.4,7.4,0,0,1-5.334-4.021c-1.511-3.18-1-5.822-.009-7.234a3.216,3.216,0,0,1,2.932-1.511c1.425.132,2.7,1.283,3.588,3.244a11.685,11.685,0,0,1-.243,9.022,8.959,8.959,0,0,0,3.61-.322c2.952-.907,5.835-3.646,5.073-8.616a.323.323,0,0,1,.639-.1c.824,5.377-2.312,8.346-5.522,9.331a9.619,9.619,0,0,1-4.076.318,11.425,11.425,0,0,1-2.3,3.24,7.743,7.743,0,0,1-5.474,2.344m4.439-17.83a2.645,2.645,0,0,0-2.14,1.247c-.882,1.263-1.328,3.657.064,6.587a6.8,6.8,0,0,0,5.032,3.7,11.045,11.045,0,0,0,.307-8.656c-.788-1.74-1.875-2.758-3.059-2.867-.068-.006-.136-.01-.2-.01" transform="translate(-9.634 -72.009)" fill="#ffd4d4"/>
          <path id="Trazado_820061" data-name="Trazado 820061" d="M618.853,255.344a.325.325,0,0,1-.147-.035c-4.419-2.267-6.115-6.567-4.538-11.5a15.068,15.068,0,0,1,3.569-5.835,14.045,14.045,0,0,1-.931-3.086c-.964-5.367,1.385-10.106,6.445-13a.323.323,0,0,1,.32.56c-4.809,2.754-7.043,7.247-6.13,12.329a13.52,13.52,0,0,0,.792,2.719,10.154,10.154,0,0,1,8.252-3c3.255.475,5.649,2.094,6.566,4.444a4.661,4.661,0,0,1-.631,4.692c-1.246,1.536-3.469,2.165-6.1,1.729-3.438-.57-6.559-3.218-8.294-6.765a14.423,14.423,0,0,0-3.24,5.41c-1.473,4.61.1,8.622,4.218,10.732a.323.323,0,0,1-.148.61m-.348-17.237c1.622,3.467,4.616,6.066,7.918,6.613,2.435.406,4.384-.129,5.5-1.5a4.027,4.027,0,0,0,.531-4.051c-.831-2.127-3.039-3.6-6.058-4.04a9.581,9.581,0,0,0-7.887,2.976" transform="translate(-277.812 -153.196)" fill="#f2ac30"/>
          <path id="Trazado_820062" data-name="Trazado 820062" d="M556.829,74.859a3.626,3.626,0,0,1-3-1.584l-6.474-9.53a3.635,3.635,0,0,1,.961-5.032l9.531-6.475a3.633,3.633,0,0,1,5.033.964l6.474,9.528a3.631,3.631,0,0,1-.962,5.034l-9.528,6.472a3.6,3.6,0,0,1-2.029.623m3.04-22.6a2.951,2.951,0,0,0-1.663.51l-9.531,6.475a2.986,2.986,0,0,0-.79,4.135l6.473,9.53a2.987,2.987,0,0,0,4.136.79l9.529-6.472a2.983,2.983,0,0,0,.791-4.136l-6.474-9.529a2.979,2.979,0,0,0-2.472-1.3" transform="translate(-222.443 -18.282)" fill="#ffd4d4"/>
          <path id="Trazado_820063" data-name="Trazado 820063" d="M506.394,36.572a4.335,4.335,0,1,1,4.335-4.334,4.34,4.34,0,0,1-4.335,4.334m0-8.024a3.689,3.689,0,1,0,3.69,3.69,3.694,3.694,0,0,0-3.69-3.69" transform="translate(-206.622 -9.882)" fill="#7db3db"/>
          <path id="Trazado_820064" data-name="Trazado 820064" d="M54.322,101.147a3.1,3.1,0,1,1-3.1-3.1,3.1,3.1,0,0,1,3.1,3.1" transform="translate(-45.845 -34.727)" fill="#7db3db"/>
          <path id="Trazado_820065" data-name="Trazado 820065" d="M65.245,91.521a3.1,3.1,0,1,1-3.1-3.1,3.1,3.1,0,0,1,3.1,3.1" transform="translate(-49.714 -31.317)" fill="#7db3db"/>
          <path id="Trazado_820066" data-name="Trazado 820066" d="M67.1,105.591a3.1,3.1,0,1,1-3.1-3.1,3.1,3.1,0,0,1,3.1,3.1" transform="translate(-50.369 -36.3)" fill="#7db3db"/>
          <path id="Trazado_820067" data-name="Trazado 820067" d="M352.461,357.848a3.423,3.423,0,0,1-3.216-4.6,3.421,3.421,0,1,1,3.216,4.6m-.005-6.2a2.776,2.776,0,1,0,2.522,1.609,2.764,2.764,0,0,0-2.522-1.609" transform="translate(-152.423 -124.319)" fill="#7db3db"/>
          <path id="Trazado_820068" data-name="Trazado 820068" d="M339.133,351.989a3.423,3.423,0,0,1-1.443-6.529,3.388,3.388,0,0,1,1.437-.318,3.423,3.423,0,0,1,1.441,6.529,3.385,3.385,0,0,1-1.436.318m-.006-6.2a2.778,2.778,0,0,0-2.517,3.946,2.791,2.791,0,0,0,2.523,1.609,2.74,2.74,0,0,0,1.164-.258,2.777,2.777,0,0,0-1.17-5.3" transform="translate(-147.703 -122.244)" fill="#7db3db"/>
          <path id="Trazado_820069" data-name="Trazado 820069" d="M351.116,344.39a3.424,3.424,0,1,1,3.214-2.246,3.433,3.433,0,0,1-3.214,2.246m0-6.2a2.777,2.777,0,1,0,2.521,1.609,2.763,2.763,0,0,0-2.521-1.609" transform="translate(-151.949 -119.552)" fill="#7db3db"/>
          <path id="Trazado_820070" data-name="Trazado 820070" d="M606.669,185.536a3.423,3.423,0,0,1-3.217-4.6,3.422,3.422,0,0,1,3.21-2.245,3.422,3.422,0,0,1,1.443,6.528,3.388,3.388,0,0,1-1.436.318m-.007-6.2a2.778,2.778,0,0,0-2.516,3.945,2.789,2.789,0,0,0,2.523,1.609,2.778,2.778,0,0,0,2.516-3.947,2.79,2.79,0,0,0-2.522-1.608" transform="translate(-242.46 -63.289)" fill="#495edb"/>
          <path id="Trazado_820071" data-name="Trazado 820071" d="M593.339,179.677a3.435,3.435,0,0,1-3.108-1.984,3.425,3.425,0,0,1,3.1-4.863,3.423,3.423,0,0,1,1.442,6.529,3.388,3.388,0,0,1-1.437.318m0-6.2a2.777,2.777,0,0,0-2.517,3.945,2.787,2.787,0,0,0,2.521,1.61,2.778,2.778,0,0,0,2.517-3.947,2.789,2.789,0,0,0-2.521-1.609" transform="translate(-237.738 -61.214)" fill="#495edb"/>
          <path id="Trazado_820072" data-name="Trazado 820072" d="M605.324,172.078a3.421,3.421,0,1,1,3.214-2.245,3.432,3.432,0,0,1-3.214,2.245m0-6.2a2.778,2.778,0,1,0,2.521,1.609,2.764,2.764,0,0,0-2.521-1.609" transform="translate(-241.985 -58.523)" fill="#495edb"/>
          <path id="Trazado_820073" data-name="Trazado 820073" d="M360.5,377.422H.563a.652.652,0,0,1,0-1.292H360.5a.652.652,0,0,1,0,1.292" transform="translate(2.277 -133.219)" fill="#32015c"/>
        </g>
      </g>
    </g>
  </g>
</svg>
