<svg xmlns="http://www.w3.org/2000/svg" xmlns:xlink="http://www.w3.org/1999/xlink" width="171" height="191" viewBox="0 0 171 191">
  <defs>
    <clipPath id="clip-path">
      <rect id="Rectángulo_383485" data-name="Rectángulo 383485" width="152" height="152" transform="translate(-0.309 -0.309)" fill="none"/>
    </clipPath>
  </defs>
  <g id="Grupo_1074547" data-name="Grupo 1074547" transform="translate(-199 -2923)">
    <rect id="Rectángulo_383425" data-name="Rectángulo 383425" width="171" height="191" rx="7" transform="translate(199 2923)" fill="#1682fb"/>
    <g id="Grupo_1074546" data-name="Grupo 1074546" transform="translate(209.309 2943.309)">
      <g id="Grupo_1074545" data-name="Grupo 1074545" clip-path="url(#clip-path)">
        <path id="Trazado_827623" data-name="Trazado 827623" d="M75.9,0A75.9,75.9,0,1,1,0,75.9,75.9,75.9,0,0,1,75.9,0" fill="#382b73"/>
        <path id="Trazado_827624" data-name="Trazado 827624" d="M99.835,35A64.835,64.835,0,1,1,35,99.835,64.835,64.835,0,0,1,99.835,35" transform="translate(-23.931 -23.931)" fill="#473080"/>
        <path id="Trazado_827625" data-name="Trazado 827625" d="M186.783,148H167.135a2.7,2.7,0,0,0-2.7,2.7v43.182a2.7,2.7,0,0,0,2.7,2.7h6.819v10.668a.634.634,0,0,1-.633.633h-19.4a15.129,15.129,0,0,0-5.383-2.006V196.58h7.294a2.7,2.7,0,0,0,2.7-2.7V150.7a2.7,2.7,0,0,0-2.7-2.7H136.181a2.7,2.7,0,0,0-2.7,2.7v43.182a2.7,2.7,0,0,0,2.7,2.7h7.294v9.294a15.129,15.129,0,0,0-5.383,2.006H118.686a.634.634,0,0,1-.633-.633V196.58h6.819a2.7,2.7,0,0,0,2.7-2.7V150.7a2.7,2.7,0,0,0-2.7-2.7H105.225a2.7,2.7,0,0,0-2.7,2.7v43.182a2.7,2.7,0,0,0,2.7,2.7h7.768v10.668a5.7,5.7,0,0,0,5.693,5.693h14.331a15.226,15.226,0,1,0,25.976,0h14.331a5.7,5.7,0,0,0,5.693-5.693V196.58h7.768a2.7,2.7,0,0,0,2.7-2.7V150.7A2.7,2.7,0,0,0,186.783,148Z" transform="translate(-70.1 -101.193)" fill="#382b73"/>
        <path id="Trazado_827626" data-name="Trazado 827626" d="M195.952,271.416H141.315a5.7,5.7,0,0,1-5.693-5.693V242.53a2.53,2.53,0,1,1,5.06,0v23.193a.634.634,0,0,0,.633.633h54.636a.634.634,0,0,0,.633-.633V242.53a2.53,2.53,0,1,1,5.06,0v23.193A5.7,5.7,0,0,1,195.952,271.416Z" transform="translate(-92.729 -164.096)" fill="#fff"/>
        <path id="Trazado_827627" data-name="Trazado 827627" d="M204.584,240a2.53,2.53,0,0,0-2.53,2.53v23.193a.634.634,0,0,1-.633.633H146.785a.634.634,0,0,1-.633-.633V242.53a2.53,2.53,0,0,0-2.53-2.53v25.723a3.163,3.163,0,0,0,3.163,3.163h54.636a3.163,3.163,0,0,0,3.163-3.163Z" transform="translate(-98.199 -164.096)" fill="#d1d3d4"/>
        <path id="Trazado_827628" data-name="Trazado 827628" d="M234.53,271.416a2.53,2.53,0,0,1-2.53-2.53V242.53a2.53,2.53,0,0,1,5.06,0v26.356A2.53,2.53,0,0,1,234.53,271.416Z" transform="translate(-158.626 -164.096)" fill="#fff"/>
        <path id="Trazado_827629" data-name="Trazado 827629" d="M207.084,316.328a15.226,15.226,0,1,1-15.226,15.226,15.226,15.226,0,0,1,15.226-15.226" transform="translate(-131.18 -216.284)" fill="#ef5a9d"/>
        <path id="Trazado_827630" data-name="Trazado 827630" d="M217.892,360.56a2.813,2.813,0,0,1-1.988-.824l-5.5-5.5a2.812,2.812,0,1,1,3.976-3.976l3.509,3.507,7.11-7.111a2.812,2.812,0,1,1,3.976,3.976l-9.1,9.1A2.809,2.809,0,0,1,217.892,360.56Z" transform="translate(-143.299 -236.46)" fill="#e43d91"/>
        <path id="Trazado_827631" data-name="Trazado 827631" d="M217.892,356.785a2.813,2.813,0,0,1-1.988-.824l-5.5-5.5a2.812,2.812,0,0,1,3.976-3.976L217.892,350l7.11-7.111a2.812,2.812,0,0,1,3.976,3.976l-9.1,9.1A2.808,2.808,0,0,1,217.892,356.785Z" transform="translate(-143.299 -233.879)" fill="#fff335"/>
        <path id="Trazado_827632" data-name="Trazado 827632" d="M228.986,345.056l-9.1,9.1a2.811,2.811,0,0,1-3.976,0l-5.5-5.5c-.029-.029-.049-.063-.077-.094a2.8,2.8,0,0,0,.077,3.882l5.5,5.5a2.811,2.811,0,0,0,3.976,0l9.1-9.1a2.8,2.8,0,0,0,.077-3.882c-.027.03-.047.065-.077.094" transform="translate(-143.307 -235.862)" fill="#f7cb15"/>
        <rect id="Rectángulo_383478" data-name="Rectángulo 383478" width="25.046" height="48.58" rx="8.534" transform="translate(32.426 42.38)" fill="#1caee4"/>
        <path id="Trazado_827633" data-name="Trazado 827633" d="M124.873,254.083H105.225a2.7,2.7,0,0,1-2.7-2.7v8.756a2.7,2.7,0,0,0,2.7,2.7h19.648a2.7,2.7,0,0,0,2.7-2.7v-8.756A2.7,2.7,0,0,1,124.873,254.083Z" transform="translate(-70.1 -171.88)" fill="#009add"/>
        <path id="Trazado_827634" data-name="Trazado 827634" d="M122.734,153.209h-7.661a1.094,1.094,0,1,1,0-2.189h7.661a1.094,1.094,0,1,1,0,2.189" transform="translate(-77.931 -103.257)" fill="#fff"/>
        <path id="Trazado_827635" data-name="Trazado 827635" d="M164.442,153.209a1.094,1.094,0,1,1,1.094-1.094,1.094,1.094,0,0,1-1.094,1.094" transform="translate(-111.686 -103.257)" fill="#fff"/>
        <path id="Trazado_827636" data-name="Trazado 827636" d="M122.734,190.267h-7.661a1.094,1.094,0,1,1,0-2.189h7.661a1.094,1.094,0,0,1,0,2.189" transform="translate(-77.931 -128.595)" fill="#fff"/>
        <path id="Trazado_827637" data-name="Trazado 827637" d="M164.442,190.267a1.094,1.094,0,1,1,1.094-1.094,1.094,1.094,0,0,1-1.094,1.094" transform="translate(-111.686 -128.595)" fill="#fff"/>
        <rect id="Rectángulo_383479" data-name="Rectángulo 383479" width="25.045" height="2.189" transform="translate(32.426 54.01)" fill="#009add"/>
        <rect id="Rectángulo_383480" data-name="Rectángulo 383480" width="25.045" height="2.189" transform="translate(32.426 64.955)" fill="#009add"/>
        <path id="Trazado_827638" data-name="Trazado 827638" d="M222.751,182.58H203.1a2.7,2.7,0,0,1-2.7-2.7V136.7a2.7,2.7,0,0,1,2.7-2.7h19.648a2.7,2.7,0,0,1,2.7,2.7v43.182a2.7,2.7,0,0,1-2.7,2.7" transform="translate(-137.023 -91.62)" fill="#1caee4"/>
        <path id="Trazado_827639" data-name="Trazado 827639" d="M222.751,254.083H203.1a2.7,2.7,0,0,1-2.7-2.7v8.756a2.7,2.7,0,0,0,2.7,2.7h19.648a2.7,2.7,0,0,0,2.7-2.7v-8.756a2.7,2.7,0,0,1-2.7,2.7" transform="translate(-137.023 -171.88)" fill="#009add"/>
        <path id="Trazado_827640" data-name="Trazado 827640" d="M220.61,153.209h-7.661a1.094,1.094,0,1,1,0-2.189h7.661a1.094,1.094,0,1,1,0,2.189Z" transform="translate(-144.852 -103.257)" fill="#fff"/>
        <path id="Trazado_827641" data-name="Trazado 827641" d="M262.32,153.209a1.094,1.094,0,1,1,1.094-1.094,1.094,1.094,0,0,1-1.094,1.094" transform="translate(-178.609 -103.257)" fill="#fff"/>
        <path id="Trazado_827642" data-name="Trazado 827642" d="M220.61,190.267h-7.661a1.094,1.094,0,0,1,0-2.189h7.661a1.094,1.094,0,1,1,0,2.189Z" transform="translate(-144.852 -128.595)" fill="#fff"/>
        <path id="Trazado_827643" data-name="Trazado 827643" d="M262.32,190.267a1.094,1.094,0,1,1,1.094-1.094,1.094,1.094,0,0,1-1.094,1.094" transform="translate(-178.609 -128.595)" fill="#fff"/>
        <rect id="Rectángulo_383481" data-name="Rectángulo 383481" width="25.046" height="2.189" transform="translate(63.381 54.01)" fill="#009add"/>
        <rect id="Rectángulo_383482" data-name="Rectángulo 383482" width="25.046" height="2.189" transform="translate(63.381 64.955)" fill="#009add"/>
        <path id="Trazado_827644" data-name="Trazado 827644" d="M320.627,182.58H300.979a2.7,2.7,0,0,1-2.7-2.7V136.7a2.7,2.7,0,0,1,2.7-2.7h19.648a2.7,2.7,0,0,1,2.7,2.7v43.182a2.7,2.7,0,0,1-2.7,2.7" transform="translate(-203.944 -91.62)" fill="#1caee4"/>
        <path id="Trazado_827645" data-name="Trazado 827645" d="M320.627,254.083H300.979a2.7,2.7,0,0,1-2.7-2.7v8.756a2.7,2.7,0,0,0,2.7,2.7h19.648a2.7,2.7,0,0,0,2.7-2.7v-8.756a2.7,2.7,0,0,1-2.7,2.7" transform="translate(-203.944 -171.88)" fill="#009add"/>
        <path id="Trazado_827646" data-name="Trazado 827646" d="M318.488,153.209h-7.661a1.094,1.094,0,1,1,0-2.189h7.661a1.094,1.094,0,1,1,0,2.189" transform="translate(-211.774 -103.257)" fill="#fff"/>
        <path id="Trazado_827647" data-name="Trazado 827647" d="M360.2,153.209a1.094,1.094,0,1,1,1.094-1.094,1.094,1.094,0,0,1-1.094,1.094" transform="translate(-245.53 -103.257)" fill="#fff"/>
        <path id="Trazado_827648" data-name="Trazado 827648" d="M318.488,190.267h-7.661a1.094,1.094,0,1,1,0-2.189h7.661a1.094,1.094,0,1,1,0,2.189" transform="translate(-211.774 -128.595)" fill="#fff"/>
        <path id="Trazado_827649" data-name="Trazado 827649" d="M360.2,190.267a1.094,1.094,0,1,1,1.094-1.094,1.094,1.094,0,0,1-1.094,1.094" transform="translate(-245.53 -128.595)" fill="#fff"/>
        <rect id="Rectángulo_383483" data-name="Rectángulo 383483" width="25.046" height="2.189" transform="translate(94.337 54.01)" fill="#009add"/>
        <rect id="Rectángulo_383484" data-name="Rectángulo 383484" width="25.046" height="2.189" transform="translate(94.337 64.955)" fill="#009add"/>
      </g>
    </g>
  </g>
</svg>
