<svg xmlns="http://www.w3.org/2000/svg" width="102" height="97" viewBox="0 0 102 97">
  <g id="Grupo_1074512" data-name="Grupo 1074512" transform="translate(-216 -414)">
    <rect id="Rectángulo_383413" data-name="Rectángulo 383413" width="102" height="97" rx="12" transform="translate(216 414)" fill="#3ee2a8"/>
    <g id="algoritmo_1_" data-name="algoritmo (1)" transform="translate(227 420)">
      <g id="Grupo_1074511" data-name="Grupo 1074511" transform="translate(28.067 1.337)">
        <path id="Trazado_827391" data-name="Trazado 827391" d="M168,8h24.057v8.019H168Zm0,0" transform="translate(-168 -8)" fill="#cf71fb"/>
        <path id="Trazado_827392" data-name="Trazado 827392" d="M168,96h24.057v8.019H168Zm0,0" transform="translate(-168 -81.298)" fill="#cf71fb"/>
        <path id="Trazado_827393" data-name="Trazado 827393" d="M168,320h24.057v8.019H168Zm0,0" transform="translate(-168 -267.876)" fill="#cf71fb"/>
      </g>
      <path id="Trazado_827394" data-name="Trazado 827394" d="M183.43,184.884l9.45-9.45,9.451,9.45-9.451,9.45Zm0,0" transform="translate(-152.785 -146.125)" fill="#f96437"/>
      <path id="Trazado_827395" data-name="Trazado 827395" d="M208.038,416.019A8.019,8.019,0,1,1,200.019,408,8.019,8.019,0,0,1,208.038,416.019Zm0,0" transform="translate(-159.924 -339.838)" fill="#fddf81"/>
      <path id="Trazado_827396" data-name="Trazado 827396" d="M18.692,205.346A5.346,5.346,0,1,1,13.346,200,5.346,5.346,0,0,1,18.692,205.346Zm0,0" transform="translate(-6.663 -166.587)" fill="#fddf81"/>
      <path id="Trazado_827397" data-name="Trazado 827397" d="M418.692,93.346A5.346,5.346,0,1,1,413.346,88,5.346,5.346,0,0,1,418.692,93.346Zm0,0" transform="translate(-339.838 -73.298)" fill="#fddf81"/>
      <path id="Trazado_827398" data-name="Trazado 827398" d="M96,224h2.673v2.673H96Zm0,0" transform="translate(-79.962 -186.578)"/>
      <path id="Trazado_827399" data-name="Trazado 827399" d="M128,224h2.673v2.673H128Zm0,0" transform="translate(-106.616 -186.578)"/>
      <path id="Trazado_827400" data-name="Trazado 827400" d="M74.845,13.5V5.346A1.335,1.335,0,0,0,73.508,4.01H53.461V1.337A1.335,1.335,0,0,0,52.124,0H28.067A1.335,1.335,0,0,0,26.73,1.337V4.01H17.375a1.335,1.335,0,0,0-1.337,1.337V18.711H6.683a1.335,1.335,0,0,0-1.337,1.337V32.212a6.683,6.683,0,0,0,0,13.1V57.47a1.335,1.335,0,0,0,1.337,1.337H26.73V61.48a1.335,1.335,0,0,0,1.337,1.337H38.759v4.117A9.35,9.35,0,1,0,49.344,77.518H64.153a1.335,1.335,0,0,0,1.337-1.337V40.1h8.019a1.335,1.335,0,0,0,1.337-1.337V26.6a6.682,6.682,0,0,0,0-13.095ZM29.4,2.673H50.788V8.019H29.4ZM18.711,6.683H26.73V9.356a1.335,1.335,0,0,0,1.337,1.337H38.759V14.7H28.067a1.335,1.335,0,0,0-1.337,1.337v2.673H18.711ZM50.788,17.375v5.346H29.4V17.375ZM2.673,38.759a4.01,4.01,0,1,1,4.01,4.01A4.015,4.015,0,0,1,2.673,38.759Zm24.057,14.7v2.673H8.019V45.307a6.683,6.683,0,0,0,0-13.1V21.384H26.73v2.673a1.335,1.335,0,0,0,1.337,1.337H38.759v3.362l-8.667,8.667H26.73V40.1h3.362l8.667,8.667v3.362H28.067A1.335,1.335,0,0,0,26.73,53.461ZM40.1,31.2l7.561,7.561L40.1,46.32l-7.561-7.561ZM29.4,54.8H50.788v5.346H29.4ZM40.1,82.864a6.683,6.683,0,1,1,6.683-6.683A6.69,6.69,0,0,1,40.1,82.864Zm22.721-8.019H49.344a9.365,9.365,0,0,0-7.912-7.913V62.816H52.124a1.335,1.335,0,0,0,1.337-1.337V53.461a1.335,1.335,0,0,0-1.337-1.337H41.432V48.763L50.1,40.1H62.816Zm9.356-37.422H50.1l-8.667-8.667V25.394H52.124a1.335,1.335,0,0,0,1.337-1.337V16.038A1.335,1.335,0,0,0,52.124,14.7H41.432v-4.01H52.124a1.335,1.335,0,0,0,1.337-1.337V6.683H72.172V13.5a6.682,6.682,0,0,0,0,13.095Zm1.337-13.365a4.01,4.01,0,1,1,4.01-4.01A4.015,4.015,0,0,1,73.508,24.057Zm0,0"/>
    </g>
  </g>
</svg>
