<svg xmlns="http://www.w3.org/2000/svg" xmlns:xlink="http://www.w3.org/1999/xlink" width="295.359" height="379" viewBox="0 0 295.359 379">
  <defs>
    <clipPath id="clip-path">
      <rect id="Rectángulo_383683" data-name="Rectángulo 383683" width="295" height="214" rx="14" transform="translate(1125 3508)" fill="#273a89"/>
    </clipPath>
    <clipPath id="clip-path-2">
      <rect id="Rectángulo_383682" data-name="Rectángulo 383682" width="276.506" height="378.566" fill="none"/>
    </clipPath>
  </defs>
  <g id="Grupo_1074627" data-name="Grupo 1074627" transform="translate(-1125 -3343)">
    <g id="Grupo_1074626" data-name="Grupo 1074626" transform="translate(-1484.506 11943.794)">
      <path id="Trazado_818450" data-name="Trazado 818450" d="M43.439,52.892,83.513,12.157,121.242,50.51l37.943-38.568,39.648,40.3,39.221-39.867,35.43,36.014,5.874-5.971L238.054.434,198.833,40.3,159.185,0,121.242,38.565,83.513.216,43.439,40.95,5.877,2.77,0,8.738Z" transform="translate(2617.506 -8597.684)" fill="#add3fd"/>
      <path id="Trazado_818451" data-name="Trazado 818451" d="M43.439,69.687,83.513,28.955,121.242,67.3l37.943-38.565,39.648,40.3,39.221-39.867,35.43,36.016,5.874-5.973-41.3-41.985L198.833,57.1,159.185,16.8,121.242,55.363,83.513,17.013,43.439,57.746,5.877,19.565,0,25.533Z" transform="translate(2617.506 -8573.313)" fill="#add3fd"/>
      <path id="Trazado_818452" data-name="Trazado 818452" d="M43.439,86.483,83.513,45.75,121.242,84.1l37.943-38.565,39.648,40.3,39.221-39.867,35.43,36.016,5.874-5.973-41.3-41.985L198.833,73.891l-39.648-40.3L121.242,72.158,83.513,33.809,43.439,74.541,5.877,36.36,0,42.331Z" transform="translate(2617.506 -8548.941)" fill="#add3fd"/>
      <path id="Trazado_818453" data-name="Trazado 818453" d="M43.439,103.279,83.513,62.544l37.728,38.35,37.943-38.565,39.648,40.3L238.054,62.76l35.43,36.016,5.874-5.971-41.3-41.985L198.833,90.687l-39.648-40.3L121.242,88.954,83.513,50.6,43.439,91.337,5.877,53.154,0,59.125Z" transform="translate(2617.506 -8524.568)" fill="#add3fd"/>
      <path id="Trazado_818454" data-name="Trazado 818454" d="M43.439,120.074,83.513,79.339l37.728,38.35,37.943-38.565,39.648,40.3,39.221-39.867,35.43,36.016,5.874-5.971-41.3-41.987-39.221,39.867-39.648-40.3L121.242,105.75,83.513,67.4,43.439,108.135,5.877,69.951,0,75.922Z" transform="translate(2617.506 -8500.196)" fill="#add3fd"/>
      <path id="Trazado_818455" data-name="Trazado 818455" d="M43.439,136.869,83.513,96.137l37.728,38.35,37.943-38.565,39.648,40.3,39.221-39.867,35.43,36.016,5.874-5.973-41.3-41.985-39.221,39.867-39.648-40.3-37.943,38.568L83.513,84.2,43.439,124.927,5.877,86.747,0,92.718Z" transform="translate(2617.506 -8475.825)" fill="#add3fd"/>
    </g>
    <rect id="Rectángulo_383419" data-name="Rectángulo 383419" width="295" height="214" rx="14" transform="translate(1125 3508)" fill="#273a89"/>
    <g id="Enmascarar_grupo_192" data-name="Enmascarar grupo 192" clip-path="url(#clip-path)">
      <g id="Grupo_1074624" data-name="Grupo 1074624" transform="translate(-113.195 -66.404)">
        <path id="Trazado_827892" data-name="Trazado 827892" d="M87.1,2.539q0,19.925-9.215,32.046T52.147,46.707a28.767,28.767,0,0,1-12.536-2.615,25.749,25.749,0,0,1-9.381-7.68V79.5H6.07V-44.866H27.905l1.411,10.627a28.783,28.783,0,0,1,9.589-9.091,25.937,25.937,0,0,1,13.076-3.2q16.687,0,25.9,13.034T87.1.8ZM62.857.8q0-12.7-4.234-20.589T45.672-27.681a18.3,18.3,0,0,0-9.34,2.242,15.994,15.994,0,0,0-6.1,6.393V20.306a14.861,14.861,0,0,0,6.1,5.812,20.559,20.559,0,0,0,9.506,1.993q8.8,0,12.91-6.891t4.11-18.68Zm86.426-24.824-8.883-.249a16.147,16.147,0,0,0-8.883,2.242,14.206,14.206,0,0,0-5.313,6.31V44.963H102.044v-89.83h22.5l1.079,13.284a28.338,28.338,0,0,1,8.178-11,18.229,18.229,0,0,1,11.582-3.944,18.119,18.119,0,0,1,3.362.291q1.536.291,3.113.706ZM216.946,31.68A30.5,30.5,0,0,1,206.4,42.8a27.951,27.951,0,0,1-14.861,3.9q-14.2,0-22.208-9.631T161.321,7.188V-44.866h24.159V7.355q0,11.789,3.2,16.148t9.921,4.359a24.156,24.156,0,0,0,9.963-1.868,16.794,16.794,0,0,0,6.808-5.521V-44.866h24.242v89.83H219.52Zm79.867,15.027q-20.091,0-31.382-12.329T254.14,2.622V-.7q0-20.174,10.959-33.043t30.137-12.785q18.1,0,27.771,11.083T332.679-5.6V6.939H279.13l-.249.5q.581,9.215,5.6,14.944t14.9,5.729a49.865,49.865,0,0,0,13.823-1.66,56.4,56.4,0,0,0,11.748-5.064l6.559,14.944q-5.4,4.4-14.612,7.389A64.8,64.8,0,0,1,296.813,46.707Zm-1.577-74.554q-7.306,0-11.249,5.023T279.213-9.5l.166.415h29.556V-10.91q0-7.887-3.238-12.412T295.236-27.847ZM427.822,2.539q0,20.091-8.966,32.129t-25.9,12.038a27.377,27.377,0,0,1-13.74-3.321,28.394,28.394,0,0,1-9.921-9.714L367.3,44.963H346.792V-84.551h24.159v49.232a27.443,27.443,0,0,1,9.34-8.3,26.105,26.105,0,0,1,12.495-2.906q17.1,0,26.069,12.91T427.822.8ZM403.662.8q0-13.117-3.861-20.8t-13.159-7.68a18.1,18.1,0,0,0-9.548,2.366,16.4,16.4,0,0,0-6.144,6.766V19.476a15.4,15.4,0,0,0,6.185,6.227,19.91,19.91,0,0,0,9.672,2.159q9.381,0,13.117-6.6t3.736-18.721Zm92.071,44.168a50.991,50.991,0,0,1-2.283-6.476,45.045,45.045,0,0,1-1.37-6.974A33.228,33.228,0,0,1,482.2,42.39a24.762,24.762,0,0,1-14.612,4.317q-14.114,0-21.752-7.264t-7.638-19.8q0-13.2,10.17-20.465t29.68-7.264h13.616v-7.14q0-6.476-3.4-10.046t-10.129-3.57q-5.895,0-9.091,2.864a10,10,0,0,0-3.2,7.846H442.517l-.166-.5q-.581-11.374,9.921-19.635t27.439-8.261q16.189,0,26.193,8.136t10,23.329V22.049a70.192,70.192,0,0,0,.955,11.872,59.575,59.575,0,0,0,3.03,11.042ZM473.567,28.774a20.654,20.654,0,0,0,11.291-3.155,16.984,16.984,0,0,0,6.808-7.306V5.611H478.05q-7.721,0-11.665,3.819a12.55,12.55,0,0,0-3.944,9.381,9.367,9.367,0,0,0,2.947,7.264Q468.337,28.774,473.567,28.774Z" transform="translate(1036 3585)" fill="none" stroke="#fff" stroke-width="1"/>
        <path id="Trazado_827890" data-name="Trazado 827890" d="M74.545,2.173q0,17.053-7.887,27.427T44.631,39.974A24.621,24.621,0,0,1,33.9,37.736a22.038,22.038,0,0,1-8.029-6.573V68.041H5.2V-38.4H23.883l1.208,9.1A24.634,24.634,0,0,1,33.3-37.085,22.2,22.2,0,0,1,44.489-39.82q14.282,0,22.169,11.156T74.545.681ZM53.8.681q0-10.871-3.624-17.622a11.821,11.821,0,0,0-11.085-6.75,15.666,15.666,0,0,0-7.994,1.918A13.689,13.689,0,0,0,25.872-16.3v33.68a12.719,12.719,0,0,0,5.223,4.974,17.6,17.6,0,0,0,8.136,1.705q7.532,0,11.049-5.9T53.8,2.173Zm73.968-21.245-7.6-.213a13.819,13.819,0,0,0-7.6,1.918,12.159,12.159,0,0,0-4.548,5.4V38.482H87.335V-38.4h19.256l.924,11.369a24.253,24.253,0,0,1,7-9.415,15.6,15.6,0,0,1,9.912-3.375,15.508,15.508,0,0,1,2.878.249q1.315.249,2.665.6Zm57.91,47.678a26.1,26.1,0,0,1-9.024,9.521,23.922,23.922,0,0,1-12.719,3.34q-12.15,0-19.007-8.242t-6.857-25.58V-38.4h20.677V6.294q0,10.09,2.736,13.82t8.491,3.73a20.674,20.674,0,0,0,8.527-1.6,14.373,14.373,0,0,0,5.827-4.725V-38.4h20.748V38.482h-17.2Zm68.355,12.861q-17.2,0-26.859-10.552T217.507,2.244V-.6q0-17.266,9.379-28.28T252.679-39.82q15.49,0,23.768,9.486T284.725-4.79V5.939h-45.83l-.213.426q.5,7.887,4.8,12.79t12.754,4.9a42.677,42.677,0,0,0,11.831-1.421A48.271,48.271,0,0,0,278.117,18.3l5.613,12.79a38.511,38.511,0,0,1-12.506,6.324A55.46,55.46,0,0,1,254.029,39.974Zm-1.35-63.807q-6.253,0-9.628,4.3t-4.086,11.4l.142.355h25.3V-9.338q0-6.75-2.771-10.623T252.679-23.833ZM366.154,2.173q0,17.2-7.674,27.5t-22.169,10.3a23.431,23.431,0,0,1-11.76-2.842,24.3,24.3,0,0,1-8.491-8.313l-1.705,9.663H296.8V-72.363h20.677v42.136a23.487,23.487,0,0,1,7.994-7.105,22.342,22.342,0,0,1,10.694-2.487q14.637,0,22.311,11.049T366.154.681ZM345.477.681q0-11.227-3.3-17.8t-11.262-6.573a15.487,15.487,0,0,0-8.171,2.025,14.037,14.037,0,0,0-5.258,5.791V16.668A13.182,13.182,0,0,0,322.775,22a17.04,17.04,0,0,0,8.278,1.847q8.029,0,11.227-5.649t3.2-16.023Zm78.8,37.8a43.639,43.639,0,0,1-1.954-5.542,38.554,38.554,0,0,1-1.172-5.969,28.438,28.438,0,0,1-8.456,9.308,21.193,21.193,0,0,1-12.506,3.695q-12.079,0-18.616-6.217t-6.537-16.947q0-11.3,8.7-17.515t25.4-6.217h11.653v-6.111q0-5.542-2.913-8.6t-8.669-3.055q-5.045,0-7.78,2.451a8.558,8.558,0,0,0-2.736,6.715H378.731l-.142-.426q-.5-9.735,8.491-16.8t23.484-7.07q13.856,0,22.418,6.963t8.562,19.966V18.871a60.074,60.074,0,0,0,.817,10.161,50.987,50.987,0,0,0,2.593,9.45ZM405.305,24.627a17.677,17.677,0,0,0,9.663-2.7,14.536,14.536,0,0,0,5.827-6.253V4.8H409.142q-6.608,0-9.983,3.269a10.741,10.741,0,0,0-3.375,8.029,8.016,8.016,0,0,0,2.522,6.217A9.979,9.979,0,0,0,405.305,24.627Z" transform="translate(1249.22 3693.345)" fill="none" stroke="#fff" stroke-width="1"/>
        <path id="Trazado_827891" data-name="Trazado 827891" d="M72.191,2.1q0,16.515-7.638,26.561T43.221,38.712a23.843,23.843,0,0,1-10.39-2.168,21.342,21.342,0,0,1-7.776-6.365V65.892H5.031V-37.186h18.1l1.17,8.808a23.856,23.856,0,0,1,7.948-7.535,21.5,21.5,0,0,1,10.838-2.649q13.831,0,21.469,10.8T72.191.66ZM52.1.66q0-10.528-3.509-17.065a11.447,11.447,0,0,0-10.735-6.537,15.171,15.171,0,0,0-7.741,1.858,13.256,13.256,0,0,0-5.058,5.3V16.83a12.317,12.317,0,0,0,5.058,4.817A17.039,17.039,0,0,0,37.992,23.3q7.294,0,10.7-5.711T52.1,2.1ZM123.73-19.915l-7.363-.206A13.383,13.383,0,0,0,109-18.263a11.775,11.775,0,0,0-4.4,5.23v50.3H84.577V-37.186h18.648l.895,11.01a23.487,23.487,0,0,1,6.778-9.117,15.108,15.108,0,0,1,9.6-3.269,15.017,15.017,0,0,1,2.787.241q1.273.241,2.58.585Zm56.081,46.172a25.278,25.278,0,0,1-8.739,9.221,23.167,23.167,0,0,1-12.317,3.234q-11.767,0-18.407-7.982t-6.64-24.772V-37.186h20.024V6.1q0,9.771,2.649,13.384t8.223,3.613a20.022,20.022,0,0,0,8.257-1.548,13.919,13.919,0,0,0,5.642-4.576V-37.186H198.6V37.267H181.944Zm66.2,12.455q-16.652,0-26.011-10.218t-9.358-26.32V-.579q0-16.721,9.083-27.387t24.978-10.6q15,0,23.017,9.186t8.016,24.738V5.752H231.351l-.206.413q.482,7.638,4.645,12.386T248.14,23.3A41.33,41.33,0,0,0,259.6,21.922a46.747,46.747,0,0,0,9.737-4.2l5.436,12.386a37.294,37.294,0,0,1-12.111,6.124A53.709,53.709,0,0,1,246.007,38.712ZM244.7-23.08q-6.055,0-9.324,4.163T231.419-7.873l.138.344h24.5V-9.043q0-6.537-2.684-10.287T244.7-23.08ZM354.591,2.1q0,16.652-7.432,26.63T325.69,38.712A22.691,22.691,0,0,1,314.3,35.96a23.534,23.534,0,0,1-8.223-8.051l-1.651,9.358h-17V-70.078h20.024v40.8a22.745,22.745,0,0,1,7.741-6.881,21.637,21.637,0,0,1,10.356-2.408q14.175,0,21.607,10.7T354.591.66ZM334.567.66q0-10.872-3.2-17.237t-10.907-6.365a15,15,0,0,0-7.913,1.961,13.594,13.594,0,0,0-5.092,5.608V16.142a12.766,12.766,0,0,0,5.126,5.161,16.5,16.5,0,0,0,8.016,1.789q7.776,0,10.872-5.47t3.1-15.517Zm76.311,36.607a42.263,42.263,0,0,1-1.892-5.367,37.338,37.338,0,0,1-1.135-5.78,27.54,27.54,0,0,1-8.189,9.014,20.524,20.524,0,0,1-12.111,3.578q-11.7,0-18.028-6.021T363.192,16.28q0-10.941,8.429-16.962t24.6-6.021h11.285v-5.918q0-5.367-2.821-8.326t-8.395-2.959q-4.886,0-7.535,2.374a8.288,8.288,0,0,0-2.649,6.5H366.771l-.138-.413q-.482-9.427,8.223-16.274T397.6-38.563q13.418,0,21.71,6.743T427.6-12.483V18.275a58.174,58.174,0,0,0,.791,9.84,49.375,49.375,0,0,0,2.512,9.152ZM392.506,23.849a17.119,17.119,0,0,0,9.358-2.615,14.077,14.077,0,0,0,5.642-6.055V4.651H396.222q-6.4,0-9.668,3.165a10.4,10.4,0,0,0-3.269,7.776,7.763,7.763,0,0,0,2.443,6.021A9.664,9.664,0,0,0,392.506,23.849Z" transform="translate(1151.098 3817.104)" fill="none" stroke="#fff" stroke-width="1"/>
      </g>
    </g>
    <g id="Grupo_1074623" data-name="Grupo 1074623" transform="translate(1143.853 3343)">
      <rect id="Rectángulo_383679" data-name="Rectángulo 383679" width="13.816" height="76.163" transform="translate(209.026 269.473)" fill="#f1eeeb"/>
      <path id="Trazado_827835" data-name="Trazado 827835" d="M121.115,158.19,81.423,176.13l.563,5.084,41.389-13.321Z" transform="translate(91.487 177.743)" fill="#f1eeeb"/>
      <path id="Trazado_827836" data-name="Trazado 827836" d="M104.483,158.19l39.694,17.94-.567,5.084-41.387-13.321Z" transform="translate(114.859 177.743)" fill="#f1eeeb"/>
      <g id="Grupo_1074622" data-name="Grupo 1074622">
        <g id="Grupo_1074621" data-name="Grupo 1074621" clip-path="url(#clip-path-2)">
          <path id="Trazado_827837" data-name="Trazado 827837" d="M96.776,178.33a9.486,9.486,0,1,1-9.486-9.486,9.486,9.486,0,0,1,9.486,9.486" transform="translate(87.421 189.714)" fill="#02060b"/>
          <path id="Trazado_827838" data-name="Trazado 827838" d="M136.485,178.33A9.486,9.486,0,1,1,127,168.844a9.486,9.486,0,0,1,9.486,9.486" transform="translate(132.038 189.714)" fill="#02060b"/>
          <path id="Trazado_827839" data-name="Trazado 827839" d="M166.647,137.863H86.572a8.007,8.007,0,1,1,0-16.014h80.075a8.007,8.007,0,1,1,0,16.014" transform="translate(88.275 136.91)" fill="#8292fd"/>
          <path id="Trazado_827840" data-name="Trazado 827840" d="M42.129,149.707l-7.023,34.717,16.551,2.88,8.972-34.766Z" transform="translate(39.446 168.211)" fill="#b87f58"/>
          <path id="Trazado_827841" data-name="Trazado 827841" d="M54.259,164.068l-32.867,7.095a4.845,4.845,0,0,0-3.648,4.767l52.718,11.525,2.23-19.588Z" transform="translate(19.936 184.347)" fill="#121314"/>
          <rect id="Rectángulo_383680" data-name="Rectángulo 383680" width="5.804" height="55.604" transform="translate(35.768 365.8) rotate(-77.668)" fill="#455157"/>
          <path id="Trazado_827842" data-name="Trazado 827842" d="M86.812,105.377l-6.759,1.671a40.794,40.794,0,0,0-29.338,28.085L30.8,218.478l37.116,6.1,21.073-79.627,23.247-7.694Z" transform="translate(34.605 118.402)" fill="#a69382"/>
          <path id="Trazado_827843" data-name="Trazado 827843" d="M73.145,151.586l16.137,31.531,14.74-8.061L89.38,142.274Z" transform="translate(82.186 159.859)" fill="#b87f58"/>
          <path id="Trazado_827844" data-name="Trazado 827844" d="M91.16,164.56,69.873,190.589a4.844,4.844,0,0,0,.117,6L118.4,172.758l-10.459-16.709Z" transform="translate(77.403 175.337)" fill="#121314"/>
          <rect id="Rectángulo_383681" data-name="Rectángulo 383681" width="55.603" height="5.804" transform="translate(146.775 372.232) rotate(-26.21)" fill="#455157"/>
          <path id="Trazado_827845" data-name="Trazado 827845" d="M97.543,99.283l-38.671,1.608L79.448,144l53.5,4.116s55.906,5.817,51.022-31.548Z" transform="translate(66.149 111.555)" fill="#c4b6a7"/>
          <path id="Trazado_827846" data-name="Trazado 827846" d="M49.8,126.8l52.026,96.991,34.033-15.075L85.744,99.752l-19.694.718A18.555,18.555,0,0,0,49.8,126.8" transform="translate(54.014 112.082)" fill="#c4b6a7"/>
          <path id="Trazado_827847" data-name="Trazado 827847" d="M84.615,50.774S70,61.046,70,93.361a311,311,0,0,0,5.3,57.558l18.518,4.164Z" transform="translate(78.652 57.05)" fill="#fff"/>
          <path id="Trazado_827848" data-name="Trazado 827848" d="M73.124,86.632s-13.277-3.5-19.327,5.931c-3.992,6.231-2.491,8.5-.731,11.442.97,1.62,3.678,3.7,5.562,3.848,4.137.333,11.4,1.731,16.7-7.027Z" transform="translate(57.601 96.625)" fill="#b87f58"/>
          <path id="Trazado_827849" data-name="Trazado 827849" d="M53.614,90.763,49.9,103.513A1.836,1.836,0,0,0,53.212,105l7.035-11.211Z" transform="translate(55.979 101.982)" fill="#b87f58"/>
          <path id="Trazado_827850" data-name="Trazado 827850" d="M88.421,90.106l-27.35-4.183.964,18.662,41.391,11.041Z" transform="translate(68.62 96.543)" fill="#1682fb"/>
          <path id="Trazado_827851" data-name="Trazado 827851" d="M82.383,60.728s-22.544,23.736,0,95.526l86.424,17.288s-2.637-66.809-25.2-95.819S97.758,48.579,97.758,48.579Z" transform="translate(81.308 54.584)" fill="#1682fb"/>
          <path id="Trazado_827852" data-name="Trazado 827852" d="M72.43,70.131s1.89,34.432,9.879,61.907" transform="translate(81.383 78.799)" fill="none" stroke="#dddada" stroke-miterlimit="10" stroke-width="0.928"/>
          <path id="Trazado_827853" data-name="Trazado 827853" d="M86.564,78.481c10.4,15.579,48.04,70.682,48.04,70.682s13.767,15.708,25.882,6.927c17.208-12.474-6.562-46.295-6.562-46.295S126.492,65.542,101,51.671c-7.329-3.986-11.162.941-12.706,6.645l-3.13,11.567a10.511,10.511,0,0,0,1.4,8.6" transform="translate(95.278 56.433)" fill="#1682fb"/>
          <line id="Línea_331" data-name="Línea 331" x2="31.461" y2="45.505" transform="translate(191.383 148.931)" fill="none" stroke="#dddada" stroke-miterlimit="10" stroke-width="0.928"/>
          <path id="Trazado_827854" data-name="Trazado 827854" d="M89.526,86.982S76.249,83.476,70.2,92.913c-3.992,6.231-2.491,8.5-.731,11.442.97,1.62,3.678,3.7,5.562,3.848,4.137.336,11.4,1.731,16.7-7.029Z" transform="translate(76.031 97.018)" fill="#b87f58"/>
          <path id="Trazado_827855" data-name="Trazado 827855" d="M70.016,91.114,66.3,103.864a1.836,1.836,0,0,0,3.317,1.491L76.65,94.144Z" transform="translate(74.408 102.376)" fill="#b87f58"/>
          <path id="Trazado_827856" data-name="Trazado 827856" d="M142.924,90.619c-1.37.342-64.95-3.99-64.95-3.99l2.4,15.411s35.7,15.2,77.495,15.479Z" transform="translate(87.612 97.337)" fill="#1682fb"/>
          <line id="Línea_332" data-name="Línea 332" x1="63.604" y1="4.133" transform="translate(165.584 183.964)" fill="none" stroke="#dddada" stroke-miterlimit="10" stroke-width="0.928"/>
          <path id="Trazado_827857" data-name="Trazado 827857" d="M160.389,110.252c-33.682,2.627-80.465-12.281-80.465-12.281L79,93.329" transform="translate(88.765 104.865)" fill="none" stroke="#dddada" stroke-miterlimit="10" stroke-width="0.928"/>
          <path id="Trazado_827858" data-name="Trazado 827858" d="M116.725,97.735H57.385v4.283h59.34a2.142,2.142,0,0,0,0-4.283" transform="translate(64.478 109.815)" fill="#121314"/>
          <path id="Trazado_827859" data-name="Trazado 827859" d="M23.308,65.159H59.469l36.469,73.462H59.709a9.213,9.213,0,0,1-8.276-5.165L20.342,69.912a3.3,3.3,0,0,1,2.967-4.753" transform="translate(22.474 73.213)" fill="#455157"/>
          <path id="Trazado_827860" data-name="Trazado 827860" d="M38.587,65.159h1.688a7.878,7.878,0,0,1,7.048,4.356l34.553,69.106H75.056Z" transform="translate(43.357 73.213)" fill="#121314"/>
          <path id="Trazado_827861" data-name="Trazado 827861" d="M42.1,84.356c1.5,3.591.958,7.239-1.219,8.148s-5.154-1.261-6.658-4.852-.958-7.237,1.219-8.148S40.6,80.765,42.1,84.356" transform="translate(37.498 89.098)" fill="#86969c"/>
          <path id="Trazado_827862" data-name="Trazado 827862" d="M73.278,41.765A7.8,7.8,0,1,1,62.628,38.9a7.8,7.8,0,0,1,10.65,2.867" transform="translate(65.975 42.536)" fill="#a06945"/>
          <path id="Trazado_827863" data-name="Trazado 827863" d="M68.124,53.078l11.818,21.1c3.846,6.806,8.787,4.638,15.456.8,5.693-3.279,9.605-7.751,7.059-13.806L89.245,35.342Z" transform="translate(76.544 39.71)" fill="#b87f58"/>
          <path id="Trazado_827864" data-name="Trazado 827864" d="M77.227,67.613s10.117-7.475,11.828-27.148c.448-5.15-19.418,13.678-19.418,13.678Z" transform="translate(78.244 44.464)" fill="#a56c4b"/>
          <path id="Trazado_827865" data-name="Trazado 827865" d="M95.869,73.456,89.43,77.164A14.488,14.488,0,0,1,69.413,71.42L58.774,51.454a19.025,19.025,0,0,1,7.3-25.432c9.1-5.243,22.332-3.03,27.575,6.076l9.161,17.919a17.732,17.732,0,0,1-6.94,23.44" transform="translate(63.525 26.103)" fill="#b87f58"/>
          <path id="Trazado_827866" data-name="Trazado 827866" d="M98.122,52.683,85.907,36.907s-14.373,11-27.32,13.672l-2.013-2.536A10.6,10.6,0,0,1,61.01,33.278L83.05,22.252c15.73-10.762,18.284,19.03,18.284,19.03Z" transform="translate(61.975 22.369)" fill="#1f2326"/>
          <path id="Trazado_827867" data-name="Trazado 827867" d="M88.746,32.859A7.8,7.8,0,1,1,78.1,29.992a7.8,7.8,0,0,1,10.65,2.867" transform="translate(83.355 32.529)" fill="#b87f58"/>
          <path id="Trazado_827868" data-name="Trazado 827868" d="M77.8,38.15s-2.822-4.9,2.308-6.827" transform="translate(86.552 35.195)" fill="none" stroke="#1f2326" stroke-linecap="round" stroke-linejoin="round" stroke-width="0.484"/>
          <path id="Trazado_827869" data-name="Trazado 827869" d="M65.519,42.932l1.166,3.011L68.851,44.7" transform="translate(73.618 48.238)" fill="none" stroke="#1f2326" stroke-linecap="round" stroke-linejoin="round" stroke-width="0.484"/>
          <path id="Trazado_827870" data-name="Trazado 827870" d="M68.846,36.393s-3.965,1.548-2.924,3.553c0,0,.733,1.34,4.145-.093s4.1-2.185,3.71-3.6-3.166-.756-4.931.144" transform="translate(73.875 39.806)" fill="#1f2326"/>
          <path id="Trazado_827871" data-name="Trazado 827871" d="M61.844,40.142s2.869-2.022,4.133-.289c0,0,.832,1.185-1.722,2.877s-3.676,1.7-4.485.818c-.917-1,.62-2.61,2.075-3.406" transform="translate(66.846 43.991)" fill="#1f2326"/>
          <path id="Trazado_827872" data-name="Trazado 827872" d="M64.411,42.148a1.456,1.456,0,1,1-1.96-.631,1.456,1.456,0,0,1,1.96.631" transform="translate(69.28 46.468)" fill="#1f2326"/>
          <path id="Trazado_827873" data-name="Trazado 827873" d="M70.73,39.112a1.456,1.456,0,1,1-1.96-.631,1.456,1.456,0,0,1,1.96.631" transform="translate(76.381 43.057)" fill="#1f2326"/>
          <path id="Trazado_827874" data-name="Trazado 827874" d="M68.869,40.085A8.719,8.719,0,0,1,71.6,51.561a7.533,7.533,0,0,1-10.9,2.094,8.714,8.714,0,0,1-2.727-11.474A7.534,7.534,0,0,1,68.869,40.085Z" transform="translate(63.856 43.394)" fill="none" stroke="#fff" stroke-miterlimit="10" stroke-width="0.538"/>
          <path id="Trazado_827875" data-name="Trazado 827875" d="M81.788,39.039a8.933,8.933,0,1,1-12.026-3.871A8.935,8.935,0,0,1,81.788,39.039Z" transform="translate(72.927 38.407)" fill="none" stroke="#fff" stroke-miterlimit="10" stroke-width="0.558"/>
          <line id="Línea_333" data-name="Línea 333" y1="1.567" x2="3.056" transform="translate(135.925 85.918)" fill="none" stroke="#fff" stroke-miterlimit="10" stroke-width="0.558"/>
          <line id="Línea_334" data-name="Línea 334" y1="5.216" x2="2.916" transform="translate(154.626 71.751)" fill="none" stroke="#fff" stroke-miterlimit="10" stroke-width="0.558"/>
          <path id="Trazado_827876" data-name="Trazado 827876" d="M66.431,47.878,73.409,44s1.183,2.584-2.017,4.409-4.961-.533-4.961-.533" transform="translate(74.642 49.441)" fill="#fff"/>
          <path id="Trazado_827877" data-name="Trazado 827877" d="M66.848,30.809s4.23,8.586,12.081,4.528c9.155-4.731-3.279-10.045-3.279-10.045Z" transform="translate(75.111 28.418)" fill="#1f2326"/>
          <path id="Trazado_827878" data-name="Trazado 827878" d="M61.584,51.012s-8.021.04-9.015-7.832,7.522-8.864,7.522-8.864a5.949,5.949,0,0,1,2.02-7.258c4.028-2.841,9.783.86,9.783.86s16.793-11.89,22.166-7.369S75.025,38.68,75.025,38.68Z" transform="translate(58.977 21.936)" fill="#1f2326"/>
          <path id="Trazado_827879" data-name="Trazado 827879" d="M96.132,50.565S91.613,60.612,79.865,71.521c0,0-4.91-7.227-5.876-15.475Z" transform="translate(83.134 56.815)" fill="#b87f58"/>
          <line id="Línea_335" data-name="Línea 335" x2="241.505" transform="translate(35.001 377.53)" fill="none" stroke="#baaea7" stroke-miterlimit="10" stroke-width="0.976"/>
          <path id="Trazado_827880" data-name="Trazado 827880" d="M3.935,63.645H55.768V37.421a3.936,3.936,0,0,0-3.935-3.935H3.935A3.935,3.935,0,0,0,0,37.421V59.71a3.935,3.935,0,0,0,3.935,3.935" transform="translate(0 37.625)" fill="#ffce00"/>
          <path id="Trazado_827881" data-name="Trazado 827881" d="M32.259,44.749,32.3,58.075,20.921,44.785Z" transform="translate(23.507 50.28)" fill="#ffce00"/>
          <path id="Trazado_827882" data-name="Trazado 827882" d="M11.359,41.749a2.51,2.51,0,1,1-2.519-2.5,2.511,2.511,0,0,1,2.519,2.5" transform="translate(7.123 44.098)" fill="#fff"/>
          <path id="Trazado_827883" data-name="Trazado 827883" d="M16.43,41.734a2.51,2.51,0,1,1-2.519-2.5,2.511,2.511,0,0,1,2.519,2.5" transform="translate(12.82 44.079)" fill="#fff"/>
          <path id="Trazado_827884" data-name="Trazado 827884" d="M21.5,41.718a2.511,2.511,0,1,1-2.519-2.5,2.511,2.511,0,0,1,2.519,2.5" transform="translate(18.517 44.063)" fill="#fff"/>
          <path id="Trazado_827885" data-name="Trazado 827885" d="M117.371,48.577H28.989a7.1,7.1,0,0,1-7.1-7.1V7.095A7.1,7.1,0,0,1,28.989,0h88.382a7.1,7.1,0,0,1,7.095,7.095V41.48a7.1,7.1,0,0,1-7.095,7.1" transform="translate(24.598)" fill="#3ee2a8"/>
          <path id="Trazado_827886" data-name="Trazado 827886" d="M27.657,19.695V33.628a2.272,2.272,0,0,0,3.878,1.608L47.075,19.695Z" transform="translate(31.076 22.129)" fill="#3ee2a8"/>
          <line id="Línea_336" data-name="Línea 336" x2="67.138" transform="translate(64.22 12.25)" fill="none" stroke="#fff" stroke-linecap="round" stroke-linejoin="round" stroke-width="1.024"/>
          <line id="Línea_337" data-name="Línea 337" x2="23.098" transform="translate(64.22 22.737)" fill="none" stroke="#fff" stroke-linecap="round" stroke-linejoin="round" stroke-width="1.024"/>
          <line id="Línea_338" data-name="Línea 338" x2="49.113" transform="translate(64.22 34.703)" fill="none" stroke="#fff" stroke-linecap="round" stroke-linejoin="round" stroke-width="1.024"/>
        </g>
      </g>
    </g>
  </g>
</svg>
