<svg xmlns="http://www.w3.org/2000/svg" width="61" height="61" viewBox="0 0 61 61">
  <g id="Grupo_1074338" data-name="Grupo 1074338" transform="translate(-770 -2625)">
    <circle id="Elipse_9869" data-name="Elipse 9869" cx="30.5" cy="30.5" r="30.5" transform="translate(770 2625)" fill="#ffce00"/>
    <g id="enlace-de-datos" transform="translate(772 2627)">
      <g id="Grupo_1074336" data-name="Grupo 1074336" transform="translate(0.914 0.914)">
        <g id="Grupo_1074323" data-name="Grupo 1074323" transform="translate(18.283 47.535)">
          <path id="Trazado_827165" data-name="Trazado 827165" d="M39.283,54.828v3.657a1.834,1.834,0,0,1-1.828,1.828H22.828A1.834,1.834,0,0,1,21,58.485V53H39.283Z" transform="translate(-21 -53)" fill="#e6e9ed"/>
        </g>
        <g id="Grupo_1074324" data-name="Grupo 1074324" transform="translate(36.565 25.596)">
          <path id="Trazado_827166" data-name="Trazado 827166" d="M59.283,29v5.485a1.834,1.834,0,0,1-1.828,1.828H42.828A1.834,1.834,0,0,1,41,34.485V32.657h1.828a1.834,1.834,0,0,0,1.828-1.828A1.842,1.842,0,0,0,42.828,29Z" transform="translate(-41 -29)" fill="#e6e9ed"/>
        </g>
        <g id="Grupo_1074325" data-name="Grupo 1074325" transform="translate(18.283 5.485)">
          <path id="Trazado_827167" data-name="Trazado 827167" d="M39.283,7v5.485a1.834,1.834,0,0,1-1.828,1.828H31.97a1.834,1.834,0,0,0-1.828-1.828,1.842,1.842,0,0,0-1.828,1.828H22.828A1.834,1.834,0,0,1,21,12.485V7Z" transform="translate(-21 -7)" fill="#e6e9ed"/>
        </g>
        <g id="Grupo_1074326" data-name="Grupo 1074326" transform="translate(0 25.596)">
          <path id="Trazado_827168" data-name="Trazado 827168" d="M15.626,30.828a1.842,1.842,0,0,0,1.828,1.828h1.828v1.828a1.834,1.834,0,0,1-1.828,1.828H2.828A1.834,1.834,0,0,1,1,34.485V29H17.454A1.834,1.834,0,0,0,15.626,30.828Z" transform="translate(-1 -29)" fill="#e6e9ed"/>
        </g>
        <g id="Grupo_1074327" data-name="Grupo 1074327" transform="translate(18.283 42.05)">
          <path id="Trazado_827169" data-name="Trazado 827169" d="M39.283,48.828v3.657H21V50.657a1.834,1.834,0,0,1,1.828-1.828h7.313A1.842,1.842,0,0,0,31.97,47h5.485A1.834,1.834,0,0,1,39.283,48.828Z" transform="translate(-21 -47)" fill="#ff826e"/>
        </g>
        <g id="Grupo_1074328" data-name="Grupo 1074328" transform="translate(36.565 20.111)">
          <path id="Trazado_827170" data-name="Trazado 827170" d="M59.283,24.828v3.657H41V26.657a1.834,1.834,0,0,1,1.828-1.828h7.313l1.289-1.289a1.834,1.834,0,0,1,1.3-.539h4.726A1.834,1.834,0,0,1,59.283,24.828Z" transform="translate(-41 -23)" fill="#ff826e"/>
        </g>
        <g id="Grupo_1074329" data-name="Grupo 1074329" transform="translate(18.283)">
          <path id="Trazado_827171" data-name="Trazado 827171" d="M39.283,6.485H21V4.657a1.834,1.834,0,0,1,1.828-1.828h7.313L31.43,1.539A1.834,1.834,0,0,1,32.728,1h4.726a1.834,1.834,0,0,1,1.828,1.828V6.476Z" transform="translate(-21 -1)" fill="#ff826e"/>
        </g>
        <g id="Grupo_1074330" data-name="Grupo 1074330" transform="translate(0 20.111)">
          <path id="Trazado_827172" data-name="Trazado 827172" d="M19.283,24.828v3.657H1V26.657a1.834,1.834,0,0,1,1.828-1.828h7.313l1.289-1.289a1.834,1.834,0,0,1,1.3-.539h4.726A1.834,1.834,0,0,1,19.283,24.828Z" transform="translate(-1 -23)" fill="#ff826e"/>
        </g>
        <g id="Grupo_1074331" data-name="Grupo 1074331" transform="translate(25.596 32.589)">
          <path id="Trazado_827173" data-name="Trazado 827173" d="M32.117,47.4a1.787,1.787,0,0,1-1.289.539A1.834,1.834,0,0,1,29,46.111V36.65a5.384,5.384,0,0,0,3.657,0v9.461A1.787,1.787,0,0,1,32.117,47.4Z" transform="translate(-29 -36.65)" fill="#ffeaa7"/>
        </g>
        <g id="Grupo_1074332" data-name="Grupo 1074332" transform="translate(32.589 25.596)">
          <path id="Trazado_827174" data-name="Trazado 827174" d="M40.626,32.657H36.65a5.384,5.384,0,0,0,0-3.657h5.8a1.842,1.842,0,0,1,1.828,1.828,1.834,1.834,0,0,1-1.828,1.828Z" transform="translate(-36.65 -29)" fill="#ffeaa7"/>
        </g>
        <g id="Grupo_1074333" data-name="Grupo 1074333" transform="translate(25.596 10.97)">
          <path id="Trazado_827175" data-name="Trazado 827175" d="M32.657,14.828v9.461a5.384,5.384,0,0,0-3.657,0V14.828A1.842,1.842,0,0,1,30.828,13,1.834,1.834,0,0,1,32.657,14.828Z" transform="translate(-29 -13)" fill="#ffeaa7"/>
        </g>
        <g id="Grupo_1074334" data-name="Grupo 1074334" transform="translate(14.626 25.596)">
          <path id="Trazado_827176" data-name="Trazado 827176" d="M20.657,29h3.976a5.384,5.384,0,0,0,0,3.657h-5.8A1.842,1.842,0,0,1,17,30.828,1.834,1.834,0,0,1,18.828,29Z" transform="translate(-17 -29)" fill="#ffeaa7"/>
        </g>
        <g id="Grupo_1074335" data-name="Grupo 1074335" transform="translate(21.939 21.939)">
          <path id="Trazado_827177" data-name="Trazado 827177" d="M35.65,28.657a5.384,5.384,0,0,1,0,3.657,5.441,5.441,0,0,1-3.337,3.337,5.384,5.384,0,0,1-3.657,0,5.441,5.441,0,0,1-3.337-3.337,5.384,5.384,0,0,1,0-3.657,5.441,5.441,0,0,1,3.337-3.337,5.384,5.384,0,0,1,3.657,0A5.441,5.441,0,0,1,35.65,28.657Zm-3.337,1.828a1.828,1.828,0,1,0-1.828,1.828A1.834,1.834,0,0,0,32.313,30.485Z" transform="translate(-25 -25)" fill="#fcd770"/>
        </g>
      </g>
      <g id="Grupo_1074337" data-name="Grupo 1074337" transform="translate(0 0)">
        <path id="Trazado_827178" data-name="Trazado 827178" d="M53.933,20.111H51.605A24.644,24.644,0,0,0,38.393,5.8V2.742A2.746,2.746,0,0,0,35.651,0H30.924a2.726,2.726,0,0,0-1.94.8L27.959,1.828H21.025a2.746,2.746,0,0,0-2.742,2.742V5.8A24.742,24.742,0,0,0,4.506,21.939H2.742A2.746,2.746,0,0,0,0,24.681v7.313a2.746,2.746,0,0,0,2.742,2.742H4.506A24.742,24.742,0,0,0,18.283,50.873v3.06a2.746,2.746,0,0,0,2.742,2.742H35.651a2.746,2.746,0,0,0,2.742-2.742v-3.06A24.74,24.74,0,0,0,52.17,34.737h1.763a2.746,2.746,0,0,0,2.742-2.742V22.853A2.746,2.746,0,0,0,53.933,20.111Zm.914,2.742V25.6H38.393v-.914a.916.916,0,0,1,.914-.914H47l1.56-1.56a.91.91,0,0,1,.647-.268h4.727a.916.916,0,0,1,.914.914ZM40.222,28.338a.916.916,0,0,1-.914.914H34.664a5.75,5.75,0,0,0,0-1.828h4.644A.916.916,0,0,1,40.222,28.338Zm9.444-8.227h-.46a2.726,2.726,0,0,0-1.94.8l-1.024,1.025H39.307a2.746,2.746,0,0,0-2.742,2.742V25.6H34.111a6.431,6.431,0,0,0-3.03-3.03V14.626h4.571a2.746,2.746,0,0,0,2.742-2.742V7.813A22.822,22.822,0,0,1,49.665,20.111Zm-13.1,27.424H20.111V46.62a.915.915,0,0,1,.914-.914h7.313a2.739,2.739,0,0,0,2.574-1.828h4.739a.915.915,0,0,1,.914.914Zm-7.313-4.571a.914.914,0,1,1-1.828,0v-8.3a5.75,5.75,0,0,0,1.828,0Zm-.914-10.055a4.571,4.571,0,1,1,4.571-4.571A4.576,4.576,0,0,1,28.338,32.909Zm-8.227-25.6H36.565v4.571a.916.916,0,0,1-.914.914H30.912a2.726,2.726,0,0,0-5.148,0H21.025a.916.916,0,0,1-.914-.914Zm7.313,6.4a.914.914,0,1,1,1.828,0v8.3a5.75,5.75,0,0,0-1.828,0Zm-6.4-10.055h7.691l1.56-1.56a.91.91,0,0,1,.647-.268h4.727a.916.916,0,0,1,.914.914V5.485H20.111V4.571A.916.916,0,0,1,21.025,3.657ZM18.283,7.81v4.073a2.746,2.746,0,0,0,2.742,2.742H25.6v7.939a6.431,6.431,0,0,0-3.03,3.03H20.111V22.853a2.746,2.746,0,0,0-2.742-2.742H12.641a2.726,2.726,0,0,0-1.94.8L9.677,21.939H6.4A22.926,22.926,0,0,1,18.283,7.81Zm3.73,21.442H17.368a.914.914,0,1,1,0-1.828h4.644a5.75,5.75,0,0,0,0,1.828ZM2.742,23.767h7.691l1.56-1.56a.91.91,0,0,1,.647-.268h4.727a.916.916,0,0,1,.914.914V25.6H1.828v-.914A.916.916,0,0,1,2.742,23.767Zm-.914,8.227V27.424H14.794a2.712,2.712,0,0,0-.168.914,2.746,2.746,0,0,0,2.742,2.742h.914v.914a.915.915,0,0,1-.914.914H2.742A.915.915,0,0,1,1.828,31.994ZM6.4,34.737h10.97a2.746,2.746,0,0,0,2.742-2.742V31.08h2.454a6.431,6.431,0,0,0,3.03,3.03v8.853a2.712,2.712,0,0,0,.168.914H21.025a2.746,2.746,0,0,0-2.742,2.742v2.245A22.926,22.926,0,0,1,6.4,34.737ZM35.651,54.848H21.025a.915.915,0,0,1-.914-.914V49.363H36.565v4.571A.915.915,0,0,1,35.651,54.848Zm2.742-5.982V44.792a2.746,2.746,0,0,0-2.742-2.742H31.08V34.111a6.431,6.431,0,0,0,3.03-3.03h2.454v.914a2.746,2.746,0,0,0,2.742,2.742h10.97A22.921,22.921,0,0,1,38.393,48.865Zm15.54-15.957H39.307a.915.915,0,0,1-.914-.914V31.08h.914a2.746,2.746,0,0,0,2.742-2.742,2.712,2.712,0,0,0-.168-.914H54.848v4.571A.915.915,0,0,1,53.933,32.909Z" transform="translate(0 0)"/>
        <path id="Trazado_827179" data-name="Trazado 827179" d="M30.742,28a2.742,2.742,0,1,0,2.742,2.742A2.746,2.746,0,0,0,30.742,28Zm0,3.657a.914.914,0,1,1,.914-.914A.916.916,0,0,1,30.742,31.657Z" transform="translate(-2.404 -2.404)"/>
      </g>
    </g>
  </g>
</svg>
