<svg xmlns="http://www.w3.org/2000/svg" xmlns:xlink="http://www.w3.org/1999/xlink" width="505" height="332" viewBox="0 0 505 332">
  <defs>
    <clipPath id="clip-path">
      <rect id="Rect치ngulo_382600" data-name="Rect치ngulo 382600" width="505" height="332" rx="12" fill="#273a89"/>
    </clipPath>
    <clipPath id="clip-path-2">
      <rect id="Rect치ngulo_382599" data-name="Rect치ngulo 382599" width="166.051" height="33.073" fill="#3ee2a8"/>
    </clipPath>
  </defs>
  <g id="Grupo_142" data-name="Grupo 142" clip-path="url(#clip-path)">
    <g id="Grupo_1073398" data-name="Grupo 1073398" transform="translate(358.636 16.431)">
      <g id="Grupo_1073397" data-name="Grupo 1073397">
        <g id="Grupo_1073396" data-name="Grupo 1073396" clip-path="url(#clip-path-2)">
          <path id="Trazado_822594" data-name="Trazado 822594" d="M166.051,10.738l-2.779,1.911c-7.429,5.109-19.473,5.109-26.9,0L134.7,11.5c-7.429-5.107-19.473-5.107-26.9,0s-19.473,5.109-26.9,0l-.152-.1c-7.429-5.107-19.473-5.107-26.9,0l-1.368.941c-7.426,5.109-19.473,5.109-26.9,0L24.508,11.6C17.829,7.012,7.433,6.562,0,10.224v5.763c7.433-3.665,17.829-3.215,24.508,1.376l1.061.732c7.429,5.109,19.473,5.109,26.9,0l1.368-.941c7.429-5.109,19.473-5.109,26.9,0l.152.1c7.429,5.109,19.473,5.109,26.9,0s19.473-5.109,26.9,0l1.673,1.15c7.429,5.109,19.473,5.109,26.9,0l2.779-1.911Z" transform="translate(0 10.832)" fill="#3ee2a8"/>
          <path id="Trazado_822595" data-name="Trazado 822595" d="M166.051,3.175l-2.779,1.911c-7.429,5.109-19.473,5.109-26.9,0L134.7,3.936c-7.429-5.109-19.473-5.109-26.9,0s-19.473,5.109-26.9,0l-.152-.1c-7.429-5.109-19.473-5.109-26.9,0l-1.368.941c-7.426,5.109-19.473,5.109-26.9,0L24.508,4.04C17.829-.551,7.433-1,0,2.661V8.422C7.433,4.76,17.829,5.21,24.508,9.8l1.061.732c7.429,5.109,19.473,5.109,26.9,0l1.368-.941c7.429-5.109,19.473-5.109,26.9,0l.152.1c7.429,5.109,19.473,5.109,26.9,0s19.473-5.109,26.9,0l1.673,1.15c7.429,5.109,19.473,5.109,26.9,0l2.779-1.911Z" transform="translate(0 0)" fill="#3ee2a8"/>
        </g>
      </g>
    </g>
  </g>
</svg>
