<svg xmlns="http://www.w3.org/2000/svg" width="102" height="97" viewBox="0 0 102 97">
  <g id="Grupo_1074554" data-name="Grupo 1074554" transform="translate(-620 -4311)">
    <g id="Grupo_1074548" data-name="Grupo 1074548" transform="translate(404 3897)">
      <rect id="Rectángulo_383413" data-name="Rectángulo 383413" width="102" height="97" rx="12" transform="translate(216 414)" fill="#3ee2a8"/>
    </g>
    <g id="servidor-en-la-nube-" transform="translate(633 4322)">
      <path id="Trazado_827650" data-name="Trazado 827650" d="M67.329,25.456c0-.027,0-.054,0-.081a17.878,17.878,0,0,0-34.644-6.2,7.159,7.159,0,0,0-10.735,6.2c0,.011,0,.022,0,.033A15.458,15.458,0,0,0,7.5,40.832h0A15.458,15.458,0,0,0,22.958,56.29H65.738A15.458,15.458,0,0,0,81.2,40.832h0A15.46,15.46,0,0,0,67.329,25.456Z" transform="translate(-6.388 -6.387)" fill="#d1e7f8"/>
      <path id="Trazado_827651" data-name="Trazado 827651" d="M7.5,396.821H81.2v13.073L78.3,412.788H10.393L7.5,409.894Z" transform="translate(-6.388 -337.98)" fill="#787680"/>
      <g id="Grupo_1074549" data-name="Grupo 1074549" transform="translate(9.722 63.508)">
        <circle id="Elipse_9894" data-name="Elipse 9894" cx="3.316" cy="3.316" r="3.316" transform="translate(10.191)" fill="#57565c"/>
        <circle id="Elipse_9895" data-name="Elipse 9895" cx="3.316" cy="3.316" r="3.316" transform="translate(20.384)" fill="#57565c"/>
        <circle id="Elipse_9896" data-name="Elipse 9896" cx="3.316" cy="3.316" r="3.316" fill="#57565c"/>
      </g>
      <circle id="Elipse_9897" data-name="Elipse 9897" cx="3.316" cy="3.316" r="3.316" transform="translate(16.948 63.508)" fill="#ffe477"/>
      <circle id="Elipse_9898" data-name="Elipse 9898" cx="3.316" cy="3.316" r="3.316" transform="translate(27.14 63.508)" fill="#91dc5a"/>
      <circle id="Elipse_9899" data-name="Elipse 9899" cx="3.316" cy="3.316" r="3.316" transform="translate(6.756 63.508)" fill="#ff7956"/>
      <rect id="Rectángulo_383486" data-name="Rectángulo 383486" width="6.378" height="8.938" transform="translate(34.772 49.903)" fill="#57a4ff"/>
      <g id="Grupo_1074550" data-name="Grupo 1074550" transform="translate(1.112 1.112)">
        <path id="Trazado_827652" data-name="Trazado 827652" d="M180.4,18.214a7.124,7.124,0,0,1,3.574.957A17.9,17.9,0,0,1,198.523,7.636a17.9,17.9,0,0,0-18.614,10.595C180.073,18.22,180.238,18.214,180.4,18.214Z" transform="translate(-154.344 -7.499)" fill="#b3d8f4"/>
        <path id="Trazado_827653" data-name="Trazado 827653" d="M11.948,102.38h0A15.458,15.458,0,0,1,26.4,86.956c0-.011,0-.022,0-.033a7.163,7.163,0,0,1,4.934-6.807,7.162,7.162,0,0,0-9.382,6.807c0,.011,0,.022,0,.033A15.458,15.458,0,0,0,7.5,102.38h0a15.458,15.458,0,0,0,15.458,15.458h4.448A15.458,15.458,0,0,1,11.948,102.38Z" transform="translate(-7.5 -69.047)" fill="#b3d8f4"/>
      </g>
      <path id="Trazado_827654" data-name="Trazado 827654" d="M11.948,409.894V396.821H7.5v13.073l2.893,2.893h4.448Z" transform="translate(-6.388 -337.98)" fill="#57565c"/>
      <path id="Trazado_827655" data-name="Trazado 827655" d="M117.262,431.61a3.316,3.316,0,0,1,1.834-2.967,3.316,3.316,0,1,0,0,5.935A3.316,3.316,0,0,1,117.262,431.61Z" transform="translate(-97.348 -364.786)" fill="#ffb655"/>
      <path id="Trazado_827656" data-name="Trazado 827656" d="M185.995,431.61a3.316,3.316,0,0,1,1.834-2.967,3.316,3.316,0,1,0,0,5.935A3.316,3.316,0,0,1,185.995,431.61Z" transform="translate(-155.889 -364.786)" fill="#64c37d"/>
      <path id="Trazado_827657" data-name="Trazado 827657" d="M48.529,431.61a3.316,3.316,0,0,1,1.834-2.967,3.316,3.316,0,1,0,0,5.935A3.316,3.316,0,0,1,48.529,431.61Z" transform="translate(-38.807 -364.786)" fill="#ff3f62"/>
      <rect id="Rectángulo_383487" data-name="Rectángulo 383487" width="2.966" height="8.938" transform="translate(34.772 49.903)" fill="#006df0"/>
      <rect id="Rectángulo_383488" data-name="Rectángulo 383488" width="2.224" height="2.224" transform="translate(34.969 45.083)"/>
      <rect id="Rectángulo_383489" data-name="Rectángulo 383489" width="2.224" height="2.224" transform="translate(38.676 45.083)"/>
      <rect id="Rectángulo_383490" data-name="Rectángulo 383490" width="2.224" height="2.224" transform="translate(31.262 45.083)"/>
      <rect id="Rectángulo_383491" data-name="Rectángulo 383491" width="2.224" height="2.224" transform="translate(42.383 45.083)"/>
      <rect id="Rectángulo_383492" data-name="Rectángulo 383492" width="8.184" height="2.224" transform="translate(61.933 69.989)"/>
      <path id="Trazado_827658" data-name="Trazado 827658" d="M16.57,51.015H59.35a16.571,16.571,0,0,0,2.683-32.923,18.991,18.991,0,0,0-36.322-6.818A8.272,8.272,0,0,0,14.51,18a16.57,16.57,0,0,0,2.06,33.011Zm-.963-30.882h6.388V17.909H16.774a6.045,6.045,0,0,1,8.968-4.162l1.142.659.457-1.236a16.766,16.766,0,0,1,32.489,5.817l0,1.085,1,.1A14.346,14.346,0,0,1,59.35,48.79H16.57a14.345,14.345,0,0,1-.963-28.658Z"/>
      <g id="Grupo_1074551" data-name="Grupo 1074551" transform="translate(59.35 34.445)">
        <path id="Trazado_827659" data-name="Trazado 827659" d="M473.141,232.295h-2.224a10.694,10.694,0,0,1-.189,2l2.185.417A12.922,12.922,0,0,0,473.141,232.295Z" transform="translate(-460.278 -232.295)" fill="#fff"/>
        <path id="Trazado_827660" data-name="Trazado 827660" d="M465.968,255.242l-2.114-.692a10.6,10.6,0,0,1-.8,1.842L465,257.47A12.848,12.848,0,0,0,465.968,255.242Z" transform="translate(-453.739 -251.25)" fill="#fff"/>
        <path id="Trazado_827661" data-name="Trazado 827661" d="M410.637,275.907l-1.794-1.314a10.688,10.688,0,0,1-8.588,4.366v2.224A12.92,12.92,0,0,0,410.637,275.907Z" transform="translate(-400.255 -268.321)" fill="#fff"/>
      </g>
      <path id="Trazado_827662" data-name="Trazado 827662" d="M0,403.967l3.545,3.545h68.83l3.545-3.545V389.321H0Zm2.224-12.422H73.7v11.5l-2.242,2.242H4.466l-2.242-2.242Z" transform="translate(0 -331.592)"/>
      <g id="Grupo_1074552" data-name="Grupo 1074552" transform="translate(52.417 61.436)">
        <rect id="Rectángulo_383493" data-name="Rectángulo 383493" width="11.269" height="2.224" fill="#fff"/>
        <rect id="Rectángulo_383494" data-name="Rectángulo 383494" width="2.224" height="2.224" transform="translate(12.752)" fill="#fff"/>
        <rect id="Rectángulo_383495" data-name="Rectángulo 383495" width="2.224" height="2.224" transform="translate(16.459)" fill="#fff"/>
      </g>
      <path id="Trazado_827663" data-name="Trazado 827663" d="M111.225,429.651a4.429,4.429,0,1,0-4.429-4.429A4.434,4.434,0,0,0,111.225,429.651Zm0-6.633a2.2,2.2,0,1,1-2.2,2.2A2.207,2.207,0,0,1,111.225,423.018Z" transform="translate(-90.96 -358.398)"/>
      <path id="Trazado_827664" data-name="Trazado 827664" d="M179.958,429.651a4.429,4.429,0,1,0-4.429-4.429A4.434,4.434,0,0,0,179.958,429.651Zm0-6.633a2.2,2.2,0,1,1-2.2,2.2A2.207,2.207,0,0,1,179.958,423.018Z" transform="translate(-149.501 -358.398)"/>
      <path id="Trazado_827665" data-name="Trazado 827665" d="M42.492,429.651a4.429,4.429,0,1,0-4.429-4.429A4.434,4.434,0,0,0,42.492,429.651Zm0-6.633a2.2,2.2,0,1,1-2.2,2.2A2.207,2.207,0,0,1,42.492,423.018Z" transform="translate(-32.419 -358.398)"/>
      <rect id="Rectángulo_383496" data-name="Rectángulo 383496" width="2.224" height="2.224" transform="translate(38.424 65.712)"/>
      <rect id="Rectángulo_383497" data-name="Rectángulo 383497" width="2.224" height="2.224" transform="translate(45.838 65.712)"/>
      <rect id="Rectángulo_383498" data-name="Rectángulo 383498" width="2.224" height="2.224" transform="translate(42.131 65.712)"/>
      <rect id="Rectángulo_383499" data-name="Rectángulo 383499" width="2.224" height="4.49" transform="translate(33.66 52.127)"/>
      <rect id="Rectángulo_383500" data-name="Rectángulo 383500" width="2.224" height="4.49" transform="translate(40.036 52.127)"/>
      <g id="Grupo_1074553" data-name="Grupo 1074553" transform="translate(43.067 3.707)">
        <path id="Trazado_827666" data-name="Trazado 827666" d="M340.953,52.029l2.224,0a15.348,15.348,0,0,0-7.645-13.217l-1.115,1.925A13.117,13.117,0,0,1,340.953,52.029Z" transform="translate(-327.896 -36.762)" fill="#fff"/>
        <path id="Trazado_827667" data-name="Trazado 827667" d="M292.83,25.186A15.4,15.4,0,0,0,290.443,25v2.224a13.15,13.15,0,0,1,2.041.159Z" transform="translate(-290.443 -25)" fill="#fff"/>
        <path id="Trazado_827668" data-name="Trazado 827668" d="M316.046,29.3a15.2,15.2,0,0,0-2.26-.8l-.576,2.148a12.98,12.98,0,0,1,1.929.684Z" transform="translate(-309.834 -27.977)" fill="#fff"/>
      </g>
      <path id="Trazado_827669" data-name="Trazado 827669" d="M37.863,245.158v-2.224a10.651,10.651,0,0,1-10.638-10.638H25A12.877,12.877,0,0,0,37.863,245.158Z" transform="translate(-21.293 -197.85)"/>
      <rect id="Rectángulo_383501" data-name="Rectángulo 383501" width="2.224" height="2.224" transform="translate(2.224 47.185)"/>
      <rect id="Rectángulo_383502" data-name="Rectángulo 383502" width="2.224" height="2.224" transform="translate(2.224 54.599)"/>
      <rect id="Rectángulo_383503" data-name="Rectángulo 383503" width="2.224" height="2.224" transform="translate(2.224 50.892)"/>
      <rect id="Rectángulo_383504" data-name="Rectángulo 383504" width="2.224" height="2.224" transform="translate(71.47 47.185)"/>
      <rect id="Rectángulo_383505" data-name="Rectángulo 383505" width="2.224" height="2.224" transform="translate(71.47 50.892)"/>
      <rect id="Rectángulo_383506" data-name="Rectángulo 383506" width="2.224" height="2.224" transform="translate(71.47 54.599)"/>
      <rect id="Rectángulo_383507" data-name="Rectángulo 383507" width="2.224" height="3.806" transform="translate(36.848 52.492)"/>
    </g>
  </g>
</svg>
