<svg xmlns="http://www.w3.org/2000/svg" width="61" height="61" viewBox="0 0 61 61">
  <g id="Grupo_1074350" data-name="Grupo 1074350" transform="translate(-1085 -2638)">
    <circle id="Elipse_9870" data-name="Elipse 9870" cx="30.5" cy="30.5" r="30.5" transform="translate(1085 2638)" fill="#ffce00"/>
    <g id="clasificacion-de-datos" transform="translate(1094 2647)">
      <g id="Grupo_1074348" data-name="Grupo 1074348" transform="translate(1.677 1.677)">
        <g id="Grupo_1074339" data-name="Grupo 1074339" transform="translate(0 25.742)">
          <path id="Trazado_827180" data-name="Trazado 827180" d="M14.722,42.181A7.453,7.453,0,1,1,9.452,40,7.428,7.428,0,0,1,14.722,42.181Z" transform="translate(-2 -40)" fill="#ffeaa7"/>
        </g>
        <g id="Grupo_1074340" data-name="Grupo 1074340" transform="translate(25.742)">
          <path id="Trazado_827181" data-name="Trazado 827181" d="M47.452,2A7.453,7.453,0,1,1,40,9.452,7.447,7.447,0,0,1,47.452,2Z" transform="translate(-40 -2)" fill="#ffeaa7"/>
        </g>
        <g id="Grupo_1074341" data-name="Grupo 1074341" transform="translate(0)">
          <path id="Trazado_827182" data-name="Trazado 827182" d="M9.452,2A7.452,7.452,0,1,1,2,9.452,7.447,7.447,0,0,1,9.452,2Z" transform="translate(-2 -2)" fill="#e6e9ed"/>
        </g>
        <g id="Grupo_1074342" data-name="Grupo 1074342" transform="translate(13.548 13.548)">
          <circle id="Elipse_9876" data-name="Elipse 9876" cx="7" cy="7" r="7" transform="translate(-0.226 -0.226)" fill="#69d6f4"/>
        </g>
        <g id="Grupo_1074343" data-name="Grupo 1074343" transform="translate(25.742 25.742)">
          <path id="Trazado_827183" data-name="Trazado 827183" d="M47.452,40a7.447,7.447,0,1,1-5.27,2.181A7.447,7.447,0,0,1,47.452,40Z" transform="translate(-40 -40)" fill="#e6e9ed"/>
        </g>
        <g id="Grupo_1074344" data-name="Grupo 1074344" transform="translate(2.71 2.71)">
          <path id="Trazado_827184" data-name="Trazado 827184" d="M12.1,10.742A1.355,1.355,0,1,0,10.742,12.1,1.359,1.359,0,0,0,12.1,10.742Zm1.992-.007v.014a.66.66,0,0,0,.332.576l1.064.616-1.341,2.344-1.05-.61a.66.66,0,0,0-.671,0l-.007.007a.666.666,0,0,0-.332.576v1.226H9.4V14.258a.666.666,0,0,0-.332-.576l-.007-.007a.66.66,0,0,0-.671,0l-1.05.61L6,11.941l1.064-.616a.66.66,0,0,0,.332-.576v-.014a.66.66,0,0,0-.332-.576L6,9.543,7.341,7.2l1.05.61a.66.66,0,0,0,.671,0L9.069,7.8A.666.666,0,0,0,9.4,7.226V6h2.683V7.226a.666.666,0,0,0,.332.576l.007.007a.66.66,0,0,0,.671,0l1.05-.61,1.341,2.344-1.064.616a.66.66,0,0,0-.332.576Z" transform="translate(-6 -6)" fill="#fcd770"/>
        </g>
        <g id="Grupo_1074345" data-name="Grupo 1074345" transform="translate(28.452 4.065)">
          <path id="Trazado_827185" data-name="Trazado 827185" d="M50.1,8a3.387,3.387,0,1,1,0,6.774H46.032a2.032,2.032,0,0,1,0-4.065,1.97,1.97,0,0,1,.725.135A3.382,3.382,0,0,1,50.1,8Z" transform="translate(-44 -8)" fill="#e6e9ed"/>
        </g>
        <g id="Grupo_1074346" data-name="Grupo 1074346" transform="translate(29.129 28.452)">
          <path id="Trazado_827186" data-name="Trazado 827186" d="M49.065,44a4.068,4.068,0,0,1,4.065,4.065c0,2.242-2.71,5.419-4.065,5.419S45,50.307,45,48.065A4.068,4.068,0,0,1,49.065,44Z" transform="translate(-45 -44)" fill="#ff826e"/>
        </g>
        <g id="Grupo_1074347" data-name="Grupo 1074347" transform="translate(31.839 31.161)">
          <ellipse id="Elipse_9877" data-name="Elipse 9877" cx="1" cy="1.5" rx="1" ry="1.5" transform="translate(0.484 0.161)" fill="#fc6e51"/>
        </g>
      </g>
      <g id="Grupo_1074349" data-name="Grupo 1074349" transform="translate(1 1)">
        <path id="Trazado_827187" data-name="Trazado 827187" d="M12.032,10a2.032,2.032,0,1,0,2.032,2.032A2.035,2.035,0,0,0,12.032,10Zm0,2.71a.677.677,0,1,1,.677-.677A.678.678,0,0,1,12.032,12.71Z" transform="translate(-3.903 -3.903)"/>
        <path id="Trazado_827188" data-name="Trazado 827188" d="M15.967,9.468,13.949,5.947,12.324,6.9V5H8.282l.012,1.9L6.656,5.947,4.638,9.468l1.649.945-1.649.959,2.018,3.521,1.589-.975.037.024v1.9h4.042l0-1.9,1.629.951,2.018-3.521-1.638-.952Zm-2.33,2.117.484.282-.669,1.167L13,12.766a1.343,1.343,0,0,0-1.276-.035l-.083.042a1.352,1.352,0,0,0-.667,1.164v.547H9.637v-.548a1.353,1.353,0,0,0-.667-1.164l-.058-.033a1.339,1.339,0,0,0-1.3.026l-.459.268-.669-1.167.484-.282a1.353,1.353,0,0,0,0-2.33l-.484-.282.669-1.166.458.268A1.352,1.352,0,0,0,9.637,6.9V6.355h1.332V6.9a1.355,1.355,0,0,0,.673,1.167,1.341,1.341,0,0,0,1.352,0l.459-.268.669,1.167-.484.282a1.352,1.352,0,0,0,0,2.33Z" transform="translate(-2.174 -2.29)"/>
        <path id="Trazado_827189" data-name="Trazado 827189" d="M34.871,26.742a8.091,8.091,0,0,0-5.244,1.927l-1.9-1.9a7.431,7.431,0,0,0,0-9.53l1.9-1.9a8.147,8.147,0,1,0-.958-.958l-1.9,1.9a7.429,7.429,0,0,0-9.529,0l-1.9-1.9a8.134,8.134,0,1,0-.957.959l1.9,1.9a7.431,7.431,0,0,0,0,9.53l-1.9,1.9a8.147,8.147,0,1,0,.958.958l1.9-1.9a7.429,7.429,0,0,0,9.529,0l1.9,1.9a8.122,8.122,0,1,0,6.2-2.886ZM19.968,22a6.739,6.739,0,0,1,.151-1.355h3.763a6.164,6.164,0,0,1,0,2.71H20.118A6.732,6.732,0,0,1,19.968,22ZM28.1,22a6.077,6.077,0,0,1-.157,1.355H25.264a7.547,7.547,0,0,0,0-2.71H27.94A6.077,6.077,0,0,1,28.1,22Zm-3.172-2.71a14.854,14.854,0,0,0-1.519-3.217,6.11,6.11,0,0,1,4.048,3.217ZM22,16.4a14.459,14.459,0,0,1,1.491,2.9H20.51A14.552,14.552,0,0,1,22,16.4Zm-2.926,2.9H16.547a6.112,6.112,0,0,1,4.048-3.217A14.853,14.853,0,0,0,19.075,19.29ZM23.49,24.71A14.555,14.555,0,0,1,22,27.6a14.422,14.422,0,0,1-1.492-2.9Zm-2.9,3.217a6.11,6.11,0,0,1-4.048-3.217h2.529A14.823,14.823,0,0,0,20.594,27.927Zm4.331-3.217h2.529a6.112,6.112,0,0,1-4.048,3.217,14.854,14.854,0,0,0,1.519-3.217ZM34.871,2.355A6.774,6.774,0,1,1,28.1,9.129,6.782,6.782,0,0,1,34.871,2.355ZM9.129,15.9A6.774,6.774,0,1,1,15.9,9.129,6.782,6.782,0,0,1,9.129,15.9Zm6.931,4.742h2.676a7.526,7.526,0,0,0,0,2.71H16.06a5.931,5.931,0,0,1,0-2.71Zm-6.931,21A6.774,6.774,0,1,1,15.9,34.871,6.782,6.782,0,0,1,9.129,41.645Zm25.742,0a6.774,6.774,0,1,1,6.774-6.774A6.782,6.782,0,0,1,34.871,41.645Z" transform="translate(-1 -1)"/>
        <path id="Trazado_827190" data-name="Trazado 827190" d="M14.129,51.774H12.774V46.355H11.419v5.419H10.065V47.71H8.71v4.065H7.355v-2.71H6v4.065h9.484V45H14.129Z" transform="translate(-2.613 -15.194)"/>
        <path id="Trazado_827191" data-name="Trazado 827191" d="M45.71,15.129h4.065a4.065,4.065,0,1,0-3.834-5.41c-.076-.006-.153-.009-.23-.009a2.71,2.71,0,1,0,0,5.419Zm0-4.065a1.3,1.3,0,0,1,.476.088l.784.31.133-.833a2.708,2.708,0,1,1,2.671,3.145H45.71a1.355,1.355,0,1,1,0-2.71Z" transform="translate(-14.548 -2.935)"/>
        <path id="Trazado_827192" data-name="Trazado 827192" d="M50.032,47a2.032,2.032,0,1,0,2.032,2.032A2.035,2.035,0,0,0,50.032,47Zm0,2.71a.677.677,0,1,1,.677-.677A.678.678,0,0,1,50.032,49.71Z" transform="translate(-16.161 -15.839)"/>
        <path id="Trazado_827193" data-name="Trazado 827193" d="M48.742,43A4.748,4.748,0,0,0,44,47.742c0,2.45,2.836,6.1,4.742,6.1s4.742-3.647,4.742-6.1A4.748,4.748,0,0,0,48.742,43Zm0,9.484c-.883,0-3.387-2.742-3.387-4.742a3.387,3.387,0,0,1,6.774,0C52.129,49.742,49.625,52.484,48.742,52.484Z" transform="translate(-14.871 -14.548)"/>
      </g>
    </g>
  </g>
</svg>
