<svg xmlns="http://www.w3.org/2000/svg" width="61" height="61" viewBox="0 0 61 61">
  <g id="Grupo_1074370" data-name="Grupo 1074370" transform="translate(5957 9062)">
    <circle id="Elipse_9873" data-name="Elipse 9873" cx="30.5" cy="30.5" r="30.5" transform="translate(-5957 -9062)" fill="#ffce00"/>
    <g id="enlace_1_" data-name="enlace (1)" transform="translate(-5946 -9051)">
      <g id="Grupo_1074368" data-name="Grupo 1074368" transform="translate(0.633 0.633)">
        <g id="Grupo_1074351" data-name="Grupo 1074351" transform="translate(1.267 7.601)">
          <path id="Trazado_827194" data-name="Trazado 827194" d="M59.469,104v16.916a5.067,5.067,0,0,0-8.867,3.352H46.8a6.335,6.335,0,0,0-10.136,0h-3.8v-4.434a.633.633,0,0,0-.633-.633H24V104Z" transform="translate(-24 -104)" fill="#f0d0b4"/>
        </g>
        <g id="Grupo_1074352" data-name="Grupo 1074352" transform="translate(1.267)">
          <path id="Trazado_827195" data-name="Trazado 827195" d="M59.469,9.267V15.6H24V9.267A1.266,1.266,0,0,1,25.267,8H58.2A1.266,1.266,0,0,1,59.469,9.267Z" transform="translate(-24 -8)" fill="#5cd6b3"/>
        </g>
        <g id="Grupo_1074353" data-name="Grupo 1074353" transform="translate(19.001 2.534)">
          <path id="Trazado_827196" data-name="Trazado 827196" d="M261.934,40a1.267,1.267,0,1,1,0,2.534H249.267a1.267,1.267,0,1,1,0-2.534Z" transform="translate(-248 -40)" fill="#e6e9ed"/>
        </g>
        <g id="Grupo_1074354" data-name="Grupo 1074354" transform="translate(13.919 2.637)">
          <circle id="Elipse_9878" data-name="Elipse 9878" cx="1.149" cy="1.149" r="1.149" transform="translate(0 0)" fill="#e6e9ed"/>
        </g>
        <g id="Grupo_1074355" data-name="Grupo 1074355" transform="translate(8.558 2.637)">
          <ellipse id="Elipse_9879" data-name="Elipse 9879" cx="1.532" cy="1.149" rx="1.532" ry="1.149" transform="translate(0 0)" fill="#e6e9ed"/>
        </g>
        <g id="Grupo_1074356" data-name="Grupo 1074356" transform="translate(3.962 2.637)">
          <circle id="Elipse_9880" data-name="Elipse 9880" cx="1.149" cy="1.149" r="1.149" transform="translate(0 0)" fill="#e6e9ed"/>
        </g>
        <g id="Grupo_1074357" data-name="Grupo 1074357" transform="translate(0 22.802)">
          <path id="Trazado_827197" data-name="Trazado 827197" d="M11.8,296,8,299.8v-3.167A.633.633,0,0,1,8.633,296H11.8Z" transform="translate(-8 -296)" fill="#e6e9ed"/>
        </g>
        <g id="Grupo_1074358" data-name="Grupo 1074358" transform="translate(0 22.802)">
          <path id="Trazado_827198" data-name="Trazado 827198" d="M18.134,301.067v9.5a.633.633,0,0,1-.633.633H8.633A.633.633,0,0,1,8,310.568V299.8h3.167a.633.633,0,0,0,.633-.633V296h5.7a.633.633,0,0,1,.633.633Z" transform="translate(-8 -296)" fill="#e6e9ed"/>
        </g>
        <g id="Grupo_1074359" data-name="Grupo 1074359" transform="translate(0 22.802)">
          <path id="Trazado_827199" data-name="Trazado 827199" d="M11.8,296v3.167a.633.633,0,0,1-.633.633H8Z" transform="translate(-8 -296)" fill="#ccd1d9"/>
        </g>
        <g id="Grupo_1074360" data-name="Grupo 1074360" transform="translate(12.668 25.335)">
          <path id="Trazado_827200" data-name="Trazado 827200" d="M169.266,330.534a6.335,6.335,0,1,1-1.266,3.8A6.326,6.326,0,0,1,169.266,330.534Z" transform="translate(-168 -328)" fill="#e6e9ed"/>
        </g>
        <g id="Grupo_1074361" data-name="Grupo 1074361" transform="translate(16.468 27.869)">
          <path id="Trazado_827201" data-name="Trazado 827201" d="M222.19,363.246a1.143,1.143,0,0,1-.393,1.523l-4.291,2.682a.984.984,0,0,1-1.506-.834v-5.632a.984.984,0,0,1,1.506-.834l4.291,2.682A1.147,1.147,0,0,1,222.19,363.246Z" transform="translate(-216 -360)" fill="#ff826e"/>
        </g>
        <g id="Grupo_1074362" data-name="Grupo 1074362" transform="translate(31.669 32.777)">
          <path id="Trazado_827202" data-name="Trazado 827202" d="M410.534,421.99v3.959a1.267,1.267,0,0,1-2.534,0V421.99a5.121,5.121,0,0,0,2.534,0Z" transform="translate(-408 -421.99)" fill="#969faa"/>
        </g>
        <g id="Grupo_1074363" data-name="Grupo 1074363" transform="translate(27.869 22.802)">
          <path id="Trazado_827203" data-name="Trazado 827203" d="M363.8,305.975a5.121,5.121,0,1,1,1.267.159A5.07,5.07,0,0,1,363.8,305.975Z" transform="translate(-360 -296)" fill="#ccd1d9"/>
        </g>
        <g id="Grupo_1074364" data-name="Grupo 1074364" transform="translate(30.77 25.615)">
          <circle id="Elipse_9881" data-name="Elipse 9881" cx="2.298" cy="2.298" r="2.298" transform="translate(0 0)" fill="#69d6f4"/>
        </g>
        <g id="Grupo_1074365" data-name="Grupo 1074365" transform="translate(20.268 10.134)">
          <path id="Trazado_827204" data-name="Trazado 827204" d="M266.534,142.334A1.266,1.266,0,0,0,267.8,143.6h6.334a1.266,1.266,0,0,0,1.267-1.267V139.8a1.266,1.266,0,0,0-1.267-1.267H267.8a1.266,1.266,0,0,0-1.267,1.267H264a3.8,3.8,0,0,1,3.8-3.8h6.334a3.8,3.8,0,0,1,3.8,3.8v2.534a3.8,3.8,0,0,1-3.8,3.8H267.8a3.8,3.8,0,0,1-3.8-3.8Z" transform="translate(-264 -136)" fill="#fcd770"/>
        </g>
        <g id="Grupo_1074366" data-name="Grupo 1074366" transform="translate(3.8 10.134)">
          <path id="Trazado_827205" data-name="Trazado 827205" d="M69.934,139.8H67.4a1.266,1.266,0,0,0-1.267-1.267H59.8a1.266,1.266,0,0,0-1.267,1.267v2.534A1.266,1.266,0,0,0,59.8,143.6h6.334a1.266,1.266,0,0,0,1.267-1.267h2.534a3.8,3.8,0,0,1-3.8,3.8H59.8a3.8,3.8,0,0,1-3.8-3.8V139.8a3.8,3.8,0,0,1,3.8-3.8h6.334A3.8,3.8,0,0,1,69.934,139.8Z" transform="translate(-56 -136)" fill="#fcd770"/>
        </g>
        <g id="Grupo_1074367" data-name="Grupo 1074367" transform="translate(13.934 13.934)">
          <path id="Trazado_827206" data-name="Trazado 827206" d="M192.867,184a1.267,1.267,0,1,1,0,2.534h-7.6a1.267,1.267,0,1,1,0-2.534h7.6Z" transform="translate(-184 -184)" fill="#fcd770"/>
        </g>
      </g>
      <g id="Grupo_1074369" data-name="Grupo 1074369">
        <path id="Trazado_827207" data-name="Trazado 827207" d="M214.766,354.928l-4.29-2.682A1.618,1.618,0,0,0,208,353.618v5.632a1.618,1.618,0,0,0,2.475,1.372l4.29-2.682a1.776,1.776,0,0,0,0-3.012Zm-.671,1.938-4.29,2.682a.351.351,0,0,1-.537-.3v-5.632a.351.351,0,0,1,.537-.3L214.094,356a.509.509,0,0,1,0,.864Z" transform="translate(-191.532 -324.131)"/>
        <path id="Trazado_827208" data-name="Trazado 827208" d="M387.167,320a3.167,3.167,0,1,0,3.167,3.167A3.17,3.17,0,0,0,387.167,320Zm0,5.067a1.9,1.9,0,1,1,1.9-1.9A1.9,1.9,0,0,1,387.167,325.067Z" transform="translate(-353.598 -294.665)"/>
        <path id="Trazado_827209" data-name="Trazado 827209" d="M39.27,28.5A5.672,5.672,0,0,0,38,24.925V1.9A1.9,1.9,0,0,0,36.1,0H3.167a1.9,1.9,0,0,0-1.9,1.9V22.8A1.268,1.268,0,0,0,0,24.068V38A1.268,1.268,0,0,0,1.267,39.27h8.867A1.268,1.268,0,0,0,11.4,38V29.135H13.43a6.967,6.967,0,1,0,12.41,0H27.9a5.714,5.714,0,0,0,3.764,4.74v3.494a1.9,1.9,0,0,0,3.8,0V33.876A5.709,5.709,0,0,0,39.27,28.5ZM3.167,1.267H36.1a.634.634,0,0,1,.633.633V7.6H2.534V1.9A.634.634,0,0,1,3.167,1.267ZM2.9,24.068,1.267,25.706V24.068Zm.9.9V26.6H2.163ZM10.134,38H1.267V27.869H3.8A1.268,1.268,0,0,0,5.067,26.6V24.068h5.067V38h0Zm9.5,0a5.7,5.7,0,1,1,5.7-5.7A5.707,5.707,0,0,1,19.635,38Zm0-12.668a6.956,6.956,0,0,0-5.371,2.534H11.4v-3.8A1.268,1.268,0,0,0,10.134,22.8h-7.6V8.867h34.2v14.9a5.7,5.7,0,0,0-8.831,4.1h-2.9a6.956,6.956,0,0,0-5.37-2.534ZM34.2,37.369a.633.633,0,0,1-1.267,0v-3.2a5.586,5.586,0,0,0,1.267,0Zm-.633-4.434A4.434,4.434,0,1,1,38,28.5,4.439,4.439,0,0,1,33.569,32.936Z"/>
        <path id="Trazado_827210" data-name="Trazado 827210" d="M32,368h6.334v1.267H32Z" transform="translate(-29.466 -338.865)"/>
        <path id="Trazado_827211" data-name="Trazado 827211" d="M32,400h6.334v1.267H32Z" transform="translate(-29.466 -368.331)"/>
        <path id="Trazado_827212" data-name="Trazado 827212" d="M32,432h6.334v1.267H32Z" transform="translate(-29.466 -397.797)"/>
        <path id="Trazado_827213" data-name="Trazado 827213" d="M80,336h2.534v1.267H80Z" transform="translate(-73.666 -309.398)"/>
        <path id="Trazado_827214" data-name="Trazado 827214" d="M49.9,35.8A1.9,1.9,0,1,0,48,33.9,1.9,1.9,0,0,0,49.9,35.8Zm0-2.534a.633.633,0,1,1-.633.633A.634.634,0,0,1,49.9,33.267Z" transform="translate(-44.2 -29.466)"/>
        <path id="Trazado_827215" data-name="Trazado 827215" d="M113.9,35.8a1.9,1.9,0,1,0-1.9-1.9A1.9,1.9,0,0,0,113.9,35.8Zm0-2.534a.633.633,0,1,1-.633.633A.634.634,0,0,1,113.9,33.267Z" transform="translate(-103.133 -29.466)"/>
        <path id="Trazado_827216" data-name="Trazado 827216" d="M177.9,35.8a1.9,1.9,0,1,0-1.9-1.9A1.9,1.9,0,0,0,177.9,35.8Zm0-2.534a.633.633,0,1,1-.633.633A.634.634,0,0,1,177.9,33.267Z" transform="translate(-162.066 -29.466)"/>
        <path id="Trazado_827217" data-name="Trazado 827217" d="M241.9,35.8h12.668a1.9,1.9,0,0,0,0-3.8H241.9a1.9,1.9,0,1,0,0,3.8Zm0-2.534h12.668a.633.633,0,0,1,0,1.267H241.9a.633.633,0,0,1,0-1.267Z" transform="translate(-220.999 -29.466)"/>
        <path id="Trazado_827218" data-name="Trazado 827218" d="M75.236,139.4a4.439,4.439,0,0,0,4.434-4.434v-2.534A4.439,4.439,0,0,0,75.236,128H68.9a4.44,4.44,0,0,0-4.388,3.8H63.156a4.44,4.44,0,0,0-4.388-3.8H52.435A4.439,4.439,0,0,0,48,132.434v2.534a4.439,4.439,0,0,0,4.434,4.434h6.334a4.44,4.44,0,0,0,4.388-3.8h1.359a4.44,4.44,0,0,0,4.388,3.8Zm-6.782-7.415a.631.631,0,0,1,.448-.186h6.334a.634.634,0,0,1,.633.633v2.534a.634.634,0,0,1-.633.633H68.9a.631.631,0,0,1-.448-.186,1.9,1.9,0,0,0,0-3.429Zm-.819,1.081a.633.633,0,1,1,0,1.267h-7.6a.633.633,0,0,1,0-1.267Zm-8.42,2.348a.631.631,0,0,1-.448.186H52.435a.634.634,0,0,1-.633-.633v-2.534a.634.634,0,0,1,.633-.633h6.334a.631.631,0,0,1,.448.186,1.9,1.9,0,0,0,0,3.429Zm-.448,2.719H52.435a3.17,3.17,0,0,1-3.167-3.167v-2.534a3.17,3.17,0,0,1,3.167-3.167h6.334a3.172,3.172,0,0,1,3.1,2.534H60.56a1.9,1.9,0,0,0-1.791-1.267H52.435a1.9,1.9,0,0,0-1.9,1.9v2.534a1.9,1.9,0,0,0,1.9,1.9h6.334A1.9,1.9,0,0,0,60.56,135.6h1.312A3.172,3.172,0,0,1,58.768,138.134ZM65.8,135.6h1.312a1.9,1.9,0,0,0,1.791,1.267h6.334a1.9,1.9,0,0,0,1.9-1.9v-2.534a1.9,1.9,0,0,0-1.9-1.9H68.9a1.9,1.9,0,0,0-1.791,1.267H65.8a3.172,3.172,0,0,1,3.1-2.534h6.334a3.17,3.17,0,0,1,3.167,3.167v2.534a3.17,3.17,0,0,1-3.167,3.167H68.9A3.172,3.172,0,0,1,65.8,135.6Z" transform="translate(-44.201 -117.866)"/>
      </g>
    </g>
  </g>
</svg>
