<svg xmlns="http://www.w3.org/2000/svg" width="61" height="61" viewBox="0 0 61 61">
  <g id="Grupo_1074389" data-name="Grupo 1074389" transform="translate(5642 9060)">
    <circle id="Elipse_9872" data-name="Elipse 9872" cx="30.5" cy="30.5" r="30.5" transform="translate(-5642 -9060)" fill="#ffce00"/>
    <g id="backlinks" transform="translate(-5633 -9051)">
      <g id="Grupo_1074387" data-name="Grupo 1074387" transform="translate(0.691 0.691)">
        <g id="Grupo_1074371" data-name="Grupo 1074371" transform="translate(30.405 5.528)">
          <path id="Trazado_827219" data-name="Trazado 827219" d="M371.056,72v5.528H360V72Z" transform="translate(-360 -72)" fill="#ffeaa7"/>
        </g>
        <g id="Grupo_1074372" data-name="Grupo 1074372" transform="translate(30.405 1.382)">
          <path id="Trazado_827220" data-name="Trazado 827220" d="M371.056,24v4.146H360V25.382h4.146L365.528,24Z" transform="translate(-360 -24)" fill="#fcd770"/>
        </g>
        <g id="Grupo_1074373" data-name="Grupo 1074373" transform="translate(24.361 15.203)">
          <path id="Trazado_827221" data-name="Trazado 827221" d="M299.529,184a5.528,5.528,0,1,1,0,11.056h-4.146a5.537,5.537,0,0,1-5.353-4.146h2.589a1.382,1.382,0,0,0,.345-.043,2.763,2.763,0,0,0,2.419,1.425h4.146a2.764,2.764,0,1,0,0-5.528h-4.146a2.763,2.763,0,0,0-2.419,1.425,1.382,1.382,0,0,0-.345-.043H290.03A5.537,5.537,0,0,1,295.383,184h4.146Z" transform="translate(-290.03 -184)" fill="#969faa"/>
        </g>
        <g id="Grupo_1074374" data-name="Grupo 1074374" transform="translate(13.13 19.349)">
          <path id="Trazado_827222" data-name="Trazado 827222" d="M161.037,232.043a1.382,1.382,0,0,1,.346-.043h12.439a1.382,1.382,0,1,1,0,2.764H161.382a1.382,1.382,0,0,1-.346-2.721Z" transform="translate(-160 -232)" fill="#969faa"/>
        </g>
        <g id="Grupo_1074375" data-name="Grupo 1074375" transform="translate(2.073 15.203)">
          <path id="Trazado_827223" data-name="Trazado 827223" d="M47.027,188.146H44.439a1.382,1.382,0,0,0-.346.043,2.763,2.763,0,0,0-2.419-1.425H37.528a2.764,2.764,0,1,0,0,5.528h4.146a2.763,2.763,0,0,0,2.419-1.425,1.382,1.382,0,0,0,.346.043h2.589a5.537,5.537,0,0,1-5.353,4.146H37.528a5.528,5.528,0,0,1,0-11.056h4.146A5.537,5.537,0,0,1,47.027,188.146Z" transform="translate(-32 -184)" fill="#969faa"/>
        </g>
        <g id="Grupo_1074376" data-name="Grupo 1074376" transform="translate(15.203 30.405)">
          <path id="Trazado_827224" data-name="Trazado 827224" d="M189.528,360A5.528,5.528,0,1,1,184,365.528,5.528,5.528,0,0,1,189.528,360Z" transform="translate(-184 -360)" fill="#e6e9ed"/>
        </g>
        <g id="Grupo_1074377" data-name="Grupo 1074377" transform="translate(18.658 33.86)">
          <path id="Trazado_827225" data-name="Trazado 827225" d="M228.146,402.073,224,404.146V400Z" transform="translate(-224 -400)" fill="#ef7385"/>
        </g>
        <g id="Grupo_1074378" data-name="Grupo 1074378" transform="translate(0 35.933)">
          <path id="Trazado_827226" data-name="Trazado 827226" d="M19.056,428.146H8L12.146,424l1.382,1.382L14.91,424Z" transform="translate(-8 -424)" fill="#cf9e76"/>
        </g>
        <g id="Grupo_1074379" data-name="Grupo 1074379" transform="translate(6.91 31.787)">
          <path id="Trazado_827227" data-name="Trazado 827227" d="M92.146,376v8.292L88,380.146Z" transform="translate(-88 -376)" fill="#dfb28b"/>
        </g>
        <g id="Grupo_1074380" data-name="Grupo 1074380" transform="translate(0 31.787)">
          <path id="Trazado_827228" data-name="Trazado 827228" d="M12.146,380.146,8,384.292V376Z" transform="translate(-8 -376)" fill="#dfb28b"/>
        </g>
        <g id="Grupo_1074381" data-name="Grupo 1074381" transform="translate(0 31.787)">
          <path id="Trazado_827229" data-name="Trazado 827229" d="M19.056,376l-4.146,4.146-1.382,1.382-1.382-1.382L8,376H19.056Z" transform="translate(-8 -376)" fill="#d3a06c"/>
        </g>
        <g id="Grupo_1074382" data-name="Grupo 1074382" transform="translate(30.405 33.169)">
          <path id="Trazado_827230" data-name="Trazado 827230" d="M371.056,392v5.528H366.91l-.691,2.764h-1.382l-.691-2.764H360V392h11.056Z" transform="translate(-360 -392)" fill="#e6e9ed"/>
        </g>
        <g id="Grupo_1074383" data-name="Grupo 1074383" transform="translate(16.585)">
          <path id="Trazado_827231" data-name="Trazado 827231" d="M208.292,8V19.056H200V8Z" transform="translate(-200 -8)" fill="#f0d0b4"/>
        </g>
        <g id="Grupo_1074384" data-name="Grupo 1074384">
          <path id="Trazado_827232" data-name="Trazado 827232" d="M8,8H20.439v2.764H8Z" transform="translate(-8 -8)" fill="#b4dd7f"/>
        </g>
        <g id="Grupo_1074385" data-name="Grupo 1074385" transform="translate(0 2.764)">
          <path id="Trazado_827233" data-name="Trazado 827233" d="M20.439,40v8.292H8V40Z" transform="translate(-8 -40)" fill="#e6e9ed"/>
        </g>
        <g id="Grupo_1074386" data-name="Grupo 1074386" transform="translate(2.764 5.528)">
          <path id="Trazado_827234" data-name="Trazado 827234" d="M40,72h2.764v2.764H40Z" transform="translate(-40 -72)" fill="#ef7385"/>
        </g>
      </g>
      <g id="Grupo_1074388" data-name="Grupo 1074388">
        <path id="Trazado_827235" data-name="Trazado 827235" d="M182.91,293.568V288h-1.382v5.568a6.219,6.219,0,1,0,1.382,0Zm-.691,11.017a4.837,4.837,0,1,1,4.837-4.837A4.843,4.843,0,0,1,182.219,304.585Z" transform="translate(-160.797 -263.123)"/>
        <path id="Trazado_827236" data-name="Trazado 827236" d="M216,393.438l6.382-3.191L216,387.056Zm1.382-4.146,1.91.955-1.91.955Z" transform="translate(-197.342 -353.623)"/>
        <path id="Trazado_827237" data-name="Trazado 827237" d="M416,416h1.382v1.382H416Z" transform="translate(-380.067 -380.067)"/>
        <path id="Trazado_827238" data-name="Trazado 827238" d="M384,416h1.382v1.382H384Z" transform="translate(-350.831 -380.067)"/>
        <path id="Trazado_827239" data-name="Trazado 827239" d="M448,416h1.382v1.382H448Z" transform="translate(-409.302 -380.067)"/>
        <path id="Trazado_827240" data-name="Trazado 827240" d="M224,32h4.146v1.382H224Z" transform="translate(-204.651 -29.236)"/>
        <path id="Trazado_827241" data-name="Trazado 827241" d="M224,64h4.146v1.382H224Z" transform="translate(-204.651 -58.472)"/>
        <path id="Trazado_827242" data-name="Trazado 827242" d="M224,96h4.146v1.382H224Z" transform="translate(-204.651 -87.708)"/>
        <path id="Trazado_827243" data-name="Trazado 827243" d="M42.844,12.439V1.382H36.338L34.956,2.764H30.405v9.674h2.764V15.2H30.405a6.22,6.22,0,0,0-5.864,4.146H18.3A6.22,6.22,0,0,0,12.438,15.2H11.056V12.439H13.82V0H0V12.439H9.674V15.2H8.292a6.219,6.219,0,1,0,0,12.439H9.674v1.382H5.528v2.764H0v9.674H12.439V31.787H6.91V30.405h4.146V27.641h1.382A6.22,6.22,0,0,0,18.3,23.495h6.239a6.22,6.22,0,0,0,5.864,4.146h1.382v2.764h4.146v2.764H30.405v6.91h4.3l.691,2.764h2.461l.691-2.764h4.3v-6.91H37.316V29.023H33.169V27.641h1.382a6.219,6.219,0,1,0,0-12.439V12.439ZM12.439,1.382V2.764H1.382V1.382ZM1.382,4.146H12.439v6.91H1.382ZM3.86,36.624,1.382,39.1V34.147Zm.977.977,1.382,1.382L7.6,37.6l2.478,2.478H2.359Zm3.741-.977,2.478-2.478V39.1Zm-2.359.4-3.86-3.86h7.72ZM41.462,38.7H37.467l-.691,2.764h-.3L35.782,38.7H31.787V34.551h9.674ZM29.023,19.878a2.074,2.074,0,0,1,1.383-.529h4.146a2.073,2.073,0,0,1,0,4.146H30.405a2.073,2.073,0,0,1-1.383-.529,2.069,2.069,0,0,0,0-3.088Zm-1.381.853a.691.691,0,0,1,0,1.382H15.2a.691.691,0,0,1,0-1.382Zm-13.82,2.235a2.074,2.074,0,0,1-1.383.529H8.292a2.073,2.073,0,1,1,0-4.146h4.146a2.074,2.074,0,0,1,1.383.529,2.069,2.069,0,0,0,0,3.088Zm-1.383,3.293H8.292a4.837,4.837,0,1,1,0-9.674h4.146a4.837,4.837,0,0,1,4.37,2.764H15.2a3.458,3.458,0,0,0-2.763-1.382H8.292a3.455,3.455,0,1,0,0,6.91h4.146A3.458,3.458,0,0,0,15.2,23.495h1.607A4.837,4.837,0,0,1,12.439,26.259Zm26.95-4.837a4.843,4.843,0,0,1-4.837,4.837H30.405a4.837,4.837,0,0,1-4.37-2.764h1.607a3.458,3.458,0,0,0,2.763,1.382h4.146a3.455,3.455,0,0,0,0-6.91H30.405a3.458,3.458,0,0,0-2.763,1.382H26.035a4.838,4.838,0,0,1,4.37-2.764h4.146A4.843,4.843,0,0,1,39.389,21.422ZM35.529,4.146l1.382-1.382h4.551V5.528H31.787V4.146ZM31.787,6.91h9.674v4.146H31.787Z"/>
        <path id="Trazado_827244" data-name="Trazado 827244" d="M32,68.146h4.146V64H32Zm1.382-2.764h1.382v1.382H33.382Z" transform="translate(-29.236 -58.472)"/>
        <path id="Trazado_827245" data-name="Trazado 827245" d="M96,64h2.764v1.382H96Z" transform="translate(-87.708 -58.472)"/>
        <path id="Trazado_827246" data-name="Trazado 827246" d="M96,96h2.764v1.382H96Z" transform="translate(-87.708 -87.708)"/>
        <path id="Trazado_827247" data-name="Trazado 827247" d="M196.146,17.967h1.382V12.439h4.146V0H192V12.439h4.146ZM193.382,1.382h6.91v9.674h-6.91Z" transform="translate(-175.415)"/>
      </g>
    </g>
  </g>
</svg>
