<svg xmlns="http://www.w3.org/2000/svg" width="61" height="61" viewBox="0 0 61 61">
  <g id="Grupo_1074401" data-name="Grupo 1074401" transform="translate(5327 9072)">
    <circle id="Elipse_9871" data-name="Elipse 9871" cx="30.5" cy="30.5" r="30.5" transform="translate(-5327 -9072)" fill="#ffce00"/>
    <g id="habilidades" transform="translate(-5319 -9064)">
      <g id="Grupo_1074399" data-name="Grupo 1074399" transform="translate(7.984 0.726)">
        <g id="Grupo_1074390" data-name="Grupo 1074390" transform="translate(13.065 31.864)">
          <path id="Trazado_827248" data-name="Trazado 827248" d="M233.452,359.283q-.735,0-1.452-.072v10.233a1.452,1.452,0,1,0,2.9,0V359.211Q234.187,359.282,233.452,359.283Z" transform="translate(-232 -359.211)" fill="#969faa"/>
        </g>
        <g id="Grupo_1074391" data-name="Grupo 1074391" transform="translate(0 4.556)">
          <path id="Trazado_827249" data-name="Trazado 827249" d="M103.968,85.519q-.716.071-1.452.072t-1.452-.072a14.519,14.519,0,0,1-5.28-27.308,7.234,7.234,0,0,0-.452,3.74h0a11.613,11.613,0,1,0,14.369,0h0a7.275,7.275,0,0,0-.445-3.736h0a14.519,14.519,0,0,1-5.288,27.3Z" transform="translate(-88 -58.211)" fill="#ccd1d9"/>
        </g>
        <g id="Grupo_1074392" data-name="Grupo 1074392" transform="translate(2.903 8.295)">
          <path id="Trazado_827250" data-name="Trazado 827250" d="M138.8,99.431a11.613,11.613,0,1,1-14.369,0h0a7.194,7.194,0,0,0,1.088,2.9l-1.6,1.6,1.039,1.731c-.032.073-.062.147-.091.22l-1.96.49v4.355l1.96.49c.029.073.059.148.091.22l-1.039,1.731,3.079,3.079,1.731-1.039c.073.032.147.062.22.091l.49,1.96h4.355l.49-1.96c.073-.029.148-.059.22-.091l1.731,1.039,3.079-3.079-1.039-1.731c.032-.073.062-.147.091-.22l1.96-.49v-4.355l-1.96-.49c-.029-.073-.059-.148-.091-.22l1.039-1.731-1.6-1.6a7.194,7.194,0,0,0,1.088-2.9Z" transform="translate(-120 -99.431)" fill="#69d6f4"/>
        </g>
        <g id="Grupo_1074393" data-name="Grupo 1074393" transform="translate(5.806 11.199)">
          <path id="Trazado_827251" data-name="Trazado 827251" d="M169.419,135.475v4.355l-1.96.49c-.029.074-.059.148-.091.22l1.039,1.731-3.079,3.079-1.731-1.039c-.073.032-.147.062-.22.091l-.49,1.96h-4.355l-.49-1.96c-.073-.029-.148-.059-.22-.091l-1.731,1.039-3.079-3.079,1.039-1.731c-.032-.073-.062-.147-.091-.22l-1.96-.49v-4.355l1.96-.49c.029-.073.059-.148.091-.22l-1.039-1.731,1.6-1.6a7.3,7.3,0,0,0,1.741,1.866v5.081a.726.726,0,0,0,.726.726h.726a2.9,2.9,0,1,0,5.806,0h.726a.726.726,0,0,0,.726-.726V133.3a7.269,7.269,0,0,0,1.741-1.866l1.6,1.6-1.039,1.731c.032.073.062.147.091.22Z" transform="translate(-152 -131.431)" fill="#b4dd7f"/>
        </g>
        <g id="Grupo_1074394" data-name="Grupo 1074394" transform="translate(11.613 18.871)">
          <path id="Trazado_827252" data-name="Trazado 827252" d="M216,216h5.806A2.9,2.9,0,1,1,216,216Z" transform="translate(-216 -216.001)" fill="#aab2bd"/>
        </g>
        <g id="Grupo_1074395" data-name="Grupo 1074395" transform="translate(10.161 15.968)">
          <path id="Trazado_827253" data-name="Trazado 827253" d="M208.71,184v2.177a.726.726,0,0,1-.726.726h-7.258a.726.726,0,0,1-.726-.726V184h8.71Z" transform="translate(-200 -184.001)" fill="#ccd1d9"/>
        </g>
        <g id="Grupo_1074396" data-name="Grupo 1074396" transform="translate(7.258)">
          <path id="Trazado_827254" data-name="Trazado 827254" d="M182,12.558a7.256,7.256,0,0,0-13.471,0,7.243,7.243,0,0,0,.636,6.643,7.3,7.3,0,0,0,1.741,1.866v2.9h8.71v-2.9a7.269,7.269,0,0,0,1.741-1.866A7.268,7.268,0,0,0,182,12.558Z" transform="translate(-168.004 -7.998)" fill="#ffeaa7"/>
        </g>
        <g id="Grupo_1074397" data-name="Grupo 1074397" transform="translate(15.968 5.807)">
          <path id="Trazado_827255" data-name="Trazado 827255" d="M266.479,72.426a1.452,1.452,0,0,1-1.027,2.479,3.508,3.508,0,0,1-1.341-.267L264,74.589V73.453a1.452,1.452,0,0,1,2.479-1.027Z" transform="translate(-264 -72.001)" fill="#fcd770"/>
        </g>
        <g id="Grupo_1074398" data-name="Grupo 1074398" transform="translate(10.161 5.807)">
          <path id="Trazado_827256" data-name="Trazado 827256" d="M202.9,73.453v1.137a3.5,3.5,0,0,1-1.452.315,1.452,1.452,0,1,1,1.452-1.452Z" transform="translate(-200 -72.001)" fill="#fcd770"/>
        </g>
      </g>
      <g id="Grupo_1074400" data-name="Grupo 1074400" transform="translate(0 0)">
        <path id="Trazado_827257" data-name="Trazado 827257" d="M110.484,18.145a15.209,15.209,0,0,0-7.93-13.374,7.992,7.992,0,0,0-14.614-.006,15.242,15.242,0,0,0,5.124,28.466v9.592a2.177,2.177,0,1,0,4.355,0V33.231a15.265,15.265,0,0,0,13.065-15.086Zm-4.355,0a10.887,10.887,0,1,1-18.5-7.78,8.052,8.052,0,0,0,.612,1.44L86.63,13.414l.929,1.549-1.753.438v5.488l1.753.438-.929,1.549,3.881,3.881,1.549-.93.438,1.753h5.488l.438-1.753,1.549.93,3.881-3.881-.929-1.549,1.753-.438V15.4l-1.753-.438.929-1.549-1.6-1.6a7.853,7.853,0,0,0,.611-1.441,10.82,10.82,0,0,1,3.263,7.772ZM91.613,20.323h.073a3.629,3.629,0,0,0,7.112,0h.073a1.453,1.453,0,0,0,1.452-1.452V14.143a8.075,8.075,0,0,0,1.1-1.1l.6.6-.939,1.565.149.342c.028.065.055.131.081.2l.137.347,1.772.443v3.221l-1.772.443-.137.347c-.026.066-.053.132-.081.2l-.149.342.939,1.566L99.748,24.93l-1.566-.939-.342.149c-.065.028-.132.055-.2.081l-.347.137-.443,1.772H93.631l-.443-1.772-.347-.137c-.066-.026-.133-.053-.2-.081L92.3,23.99l-1.566.939-2.278-2.278.939-1.566-.149-.342c-.028-.065-.055-.131-.081-.2L89.03,20.2l-1.772-.443V16.535l1.772-.443.137-.347c.026-.066.053-.132.081-.2L89.4,15.2l-.939-1.565.6-.6a7.963,7.963,0,0,0,1.1,1.108v4.729a1.453,1.453,0,0,0,1.452,1.452ZM93.064,8.615a2.8,2.8,0,0,1-.726.1.726.726,0,1,1,.726-.726Zm2.9,7.353H94.516V9.56a4.247,4.247,0,0,0,.726-.552,4.252,4.252,0,0,0,.726.552Zm2.9,1.452v1.452H91.613V17.419Zm-1.576,2.9a2.177,2.177,0,0,1-4.105,0ZM95.084,1.454l.159,0A6.532,6.532,0,0,1,99.161,13.21l-.29.218v2.54H97.419V10.1a4.28,4.28,0,0,0,.726.062A2.177,2.177,0,1,0,95.986,7.7l-.744-.744L94.5,7.7a2.177,2.177,0,1,0-2.159,2.46,4.28,4.28,0,0,0,.726-.062v5.868H91.613v-2.54l-.29-.218A6.532,6.532,0,0,1,95.084,1.454Zm2.335,7.161V7.984a.726.726,0,1,1,.726.726A2.791,2.791,0,0,1,97.419,8.615ZM81.452,18.145a13.754,13.754,0,0,1,5.89-11.3,7.789,7.789,0,0,0-.049,1.868,12.339,12.339,0,1,0,15.9,0c.021-.24.033-.482.033-.726a8.126,8.126,0,0,0-.081-1.142,13.791,13.791,0,1,1-21.693,11.3Zm13.79,25.4a.727.727,0,0,1-.726-.726V36.29h1.452v6.532A.727.727,0,0,1,95.242,43.549Zm.726-8.71H94.516V33.37c.241.011.482.018.726.018s.485-.006.726-.018Z" transform="translate(-72.742 0)"/>
        <path id="Trazado_827258" data-name="Trazado 827258" d="M96,416h10.161v1.452H96Z" transform="translate(-87.29 -378.259)"/>
        <circle id="Elipse_9882" data-name="Elipse 9882" cx="0.5" cy="0.5" r="0.5" transform="translate(6 37.999)"/>
        <circle id="Elipse_9883" data-name="Elipse 9883" cx="0.5" cy="0.5" r="0.5" transform="translate(0 43.999)"/>
        <path id="Trazado_827259" data-name="Trazado 827259" d="M36.78,450.9H32v1.452h5.381l2.9-2.9h7.683V448H39.683Z" transform="translate(-29.097 -407.356)"/>
        <circle id="Elipse_9884" data-name="Elipse 9884" cx="0.5" cy="0.5" r="0.5" transform="translate(0 31.999)"/>
        <path id="Trazado_827260" data-name="Trazado 827260" d="M37.381,352H32v1.452h4.78l2.9,2.9h8.284V354.9H40.284Z" transform="translate(-29.097 -320.065)"/>
        <path id="Trazado_827261" data-name="Trazado 827261" d="M288,416h10.161v1.452H288Z" transform="translate(-261.871 -378.259)"/>
        <circle id="Elipse_9885" data-name="Elipse 9885" cx="0.5" cy="0.5" r="0.5" transform="translate(38 37.999)"/>
        <circle id="Elipse_9886" data-name="Elipse 9886" cx="0.5" cy="0.5" r="0.5" transform="translate(44 43.999)"/>
        <path id="Trazado_827262" data-name="Trazado 827262" d="M296.284,448H288v1.452h7.683l2.9,2.9h5.381V450.9h-4.78Z" transform="translate(-261.871 -407.356)"/>
        <circle id="Elipse_9887" data-name="Elipse 9887" cx="0.5" cy="0.5" r="0.5" transform="translate(44 31.999)"/>
        <path id="Trazado_827263" data-name="Trazado 827263" d="M295.683,354.9H288v1.452h8.284l2.9-2.9h4.78V352h-5.381Z" transform="translate(-261.871 -320.065)"/>
        <path id="Trazado_827264" data-name="Trazado 827264" d="M1.452,52.356H2.9V50.9H4.355V49.453H2.9V48H1.452v1.452H0V50.9H1.452Z" transform="translate(0 -43.646)"/>
        <path id="Trazado_827265" data-name="Trazado 827265" d="M1.452,132.356H2.9V130.9H4.355v-1.452H2.9V128H1.452v1.452H0V130.9H1.452Z" transform="translate(0 -116.388)"/>
        <path id="Trazado_827266" data-name="Trazado 827266" d="M2.9,212.356V210.9H4.355v-1.452H2.9V208H1.452v1.452H0V210.9H1.452v1.452Z" transform="translate(0 -189.13)"/>
        <path id="Trazado_827267" data-name="Trazado 827267" d="M450.9,49.453V48h-1.452v1.452H448V50.9h1.452v1.452H450.9V50.9h1.452V49.453Z" transform="translate(-407.355 -43.646)"/>
        <path id="Trazado_827268" data-name="Trazado 827268" d="M450.9,128h-1.452v1.452H448V130.9h1.452v1.452H450.9V130.9h1.452v-1.452H450.9Z" transform="translate(-407.355 -116.388)"/>
        <path id="Trazado_827269" data-name="Trazado 827269" d="M450.9,208h-1.452v1.452H448V210.9h1.452v1.452H450.9V210.9h1.452v-1.452H450.9Z" transform="translate(-407.355 -189.13)"/>
      </g>
    </g>
  </g>
</svg>
