<svg xmlns="http://www.w3.org/2000/svg" xmlns:xlink="http://www.w3.org/1999/xlink" width="324" height="222" viewBox="0 0 324 222">
  <defs>
    <clipPath id="clip-path">
      <rect id="Rect치ngulo_383467" data-name="Rect치ngulo 383467" width="324" height="222" rx="9" transform="translate(221 6300)" fill="#b3bad6"/>
    </clipPath>
  </defs>
  <g id="Grupo_1074634" data-name="Grupo 1074634" transform="translate(-221 -6300)">
    <rect id="Rect치ngulo_383467-2" data-name="Rect치ngulo 383467" width="324" height="222" rx="9" transform="translate(221 6300)" fill="#b3bad6"/>
    <g id="Enmascarar_grupo_193" data-name="Enmascarar grupo 193" clip-path="url(#clip-path)">
      <g id="Grupo_1074513" data-name="Grupo 1074513" transform="translate(-870.155 6137)">
        <g id="Grupo_1074123" data-name="Grupo 1074123">
          <path id="Trazado_818450" data-name="Trazado 818450" d="M284.708,62.8,236.346,14.434,190.815,59.967l-45.79-45.79L97.178,62.025,49.846,14.693,7.089,57.45,0,50.361,49.846.515,97.178,47.844,145.025,0l45.79,45.787L236.346.256l48.362,48.362,45.33-45.33,7.092,7.086Z" transform="translate(1089.025 113.031)" fill="#dcecfe"/>
          <path id="Trazado_818451" data-name="Trazado 818451" d="M284.708,79.591,236.346,31.232,190.815,76.76l-45.79-45.787L97.178,78.82,49.846,31.488,7.089,74.248,0,67.156,49.846,17.31,97.178,64.642,145.025,16.8l45.79,45.79,45.531-45.531,48.362,48.359,45.33-45.33,7.092,7.086Z" transform="translate(1089.025 145.111)" fill="#dcecfe"/>
          <path id="Trazado_818452" data-name="Trazado 818452" d="M284.708,96.386,236.346,48.027,190.815,93.558l-45.79-45.787L97.178,95.615,49.846,48.283,7.089,91.043,0,83.952,49.846,34.106,97.178,81.437,145.025,33.59l45.79,45.79,45.531-45.531,48.362,48.359,45.33-45.33,7.092,7.089Z" transform="translate(1089.025 177.19)" fill="#dcecfe"/>
          <path id="Trazado_818453" data-name="Trazado 818453" d="M284.708,113.182,236.346,64.82l-45.531,45.531-45.79-45.787L97.178,112.411,49.846,65.076,7.089,107.837,0,100.748,49.846,50.9,97.178,98.233l47.847-47.847,45.79,45.79,45.531-45.534L284.708,99l45.33-45.333,7.092,7.089Z" transform="translate(1089.025 209.271)" fill="#dcecfe"/>
          <path id="Trazado_818454" data-name="Trazado 818454" d="M284.708,129.978,236.346,81.616l-45.531,45.531-45.79-45.787L97.178,129.206,49.846,81.874,7.089,124.635,0,117.546,49.846,67.7l47.332,47.332,47.847-47.847,45.79,45.79,45.531-45.531L284.708,115.8l45.33-45.333,7.092,7.089Z" transform="translate(1089.025 241.352)" fill="#dcecfe"/>
          <path id="Trazado_818455" data-name="Trazado 818455" d="M284.708,146.773,236.346,98.414l-45.531,45.531-45.79-45.787L97.178,146,49.846,98.67,7.089,141.43,0,134.338,49.846,84.492l47.332,47.332,47.847-47.847,45.79,45.79,45.531-45.531L284.708,132.6l45.33-45.33,7.092,7.089Z" transform="translate(1089.025 273.432)" fill="#dcecfe"/>
        </g>
      </g>
    </g>
    <g id="documentos_1_" data-name="documentos (1)" transform="translate(264.781 6311.696)">
      <g id="Grupo_1074632" data-name="Grupo 1074632" transform="translate(33.406 2.906)">
        <path id="Trazado_827951" data-name="Trazado 827951" d="M164.937,92.5H281.545a1.937,1.937,0,0,1,1.937,1.937V250.173a1.937,1.937,0,0,1-1.937,1.937H164.937A1.937,1.937,0,0,1,163,250.173V94.437A1.937,1.937,0,0,1,164.937,92.5Z" transform="translate(-114.575 -59.571)" fill="#f5f5f5"/>
        <path id="Trazado_827952" data-name="Trazado 827952" d="M274.766,92.5V241.456a1.938,1.938,0,0,1-1.937,1.937H163V94.437a1.938,1.938,0,0,1,1.937-1.937Z" transform="translate(-114.575 -59.571)" fill="#e6e6e6"/>
        <path id="Trazado_827953" data-name="Trazado 827953" d="M239.045,50H122.437a1.937,1.937,0,0,0-1.937,1.937V207.673a1.937,1.937,0,0,0,1.937,1.937H239.045a1.937,1.937,0,0,0,1.937-1.937V51.937A1.937,1.937,0,0,0,239.045,50Z" transform="translate(-88.539 -33.535)" fill="#f5f5f5"/>
        <path id="Trazado_827954" data-name="Trazado 827954" d="M232.266,50V198.956a1.938,1.938,0,0,1-1.937,1.937H120.5V51.937A1.938,1.938,0,0,1,122.437,50Z" transform="translate(-88.539 -33.535)" fill="#e6e6e6"/>
        <path id="Trazado_827955" data-name="Trazado 827955" d="M173.978,9.437V165.173a1.938,1.938,0,0,1-1.937,1.937H57.37A19.372,19.372,0,0,1,38,147.74V142.7a1.938,1.938,0,0,1,1.937-1.937H51.559a.376.376,0,0,0,.066,0A1.934,1.934,0,0,0,53.5,138.83V9.437A1.938,1.938,0,0,1,55.433,7.5H172.041A1.938,1.938,0,0,1,173.978,9.437Z" transform="translate(-38 -7.5)" fill="#f5f5f5"/>
        <path id="Trazado_827956" data-name="Trazado 827956" d="M148.254,93.691H114.937A1.937,1.937,0,0,1,113,91.754V58.437a1.937,1.937,0,0,1,1.937-1.937h33.317a1.937,1.937,0,0,1,1.937,1.937V91.754A1.937,1.937,0,0,1,148.254,93.691Z" transform="translate(-83.945 -37.517)" fill="#faa515"/>
        <g id="Grupo_1074631" data-name="Grupo 1074631" transform="translate(0 21.113)">
          <path id="Trazado_827957" data-name="Trazado 827957" d="M282.02,137.811H239.406a2.906,2.906,0,0,1,0-5.811H282.02a2.906,2.906,0,0,1,0,5.811Z" transform="translate(-159.6 -104.882)" fill="#2b597f"/>
          <path id="Trazado_827958" data-name="Trazado 827958" d="M216.407,205.811h-43a2.906,2.906,0,0,1,0-5.811h43a2.906,2.906,0,1,1,0,5.811Z" transform="translate(-119.169 -146.538)" fill="#2b597f"/>
          <path id="Trazado_827959" data-name="Trazado 827959" d="M282.02,102.811H239.406a2.906,2.906,0,0,1,0-5.811H282.02a2.906,2.906,0,0,1,0,5.811Z" transform="translate(-159.6 -83.441)" fill="#2b597f"/>
          <path id="Trazado_827960" data-name="Trazado 827960" d="M282.02,67.811H239.406a2.906,2.906,0,1,1,0-5.811H282.02a2.906,2.906,0,1,1,0,5.811Z" transform="translate(-159.6 -62)" fill="#2b597f"/>
          <path id="Trazado_827961" data-name="Trazado 827961" d="M201.77,294.811H108.406a2.906,2.906,0,1,1,0-5.811H201.77a2.906,2.906,0,1,1,0,5.811Z" transform="translate(-79.35 -201.06)" fill="#2b597f"/>
          <path id="Trazado_827962" data-name="Trazado 827962" d="M269.155,249.811h-50.75a2.906,2.906,0,1,1,0-5.811h50.75a2.906,2.906,0,1,1,0,5.811Z" transform="translate(-146.736 -173.493)" fill="#2b597f"/>
          <path id="Trazado_827963" data-name="Trazado 827963" d="M137.154,249.811H107.906a2.906,2.906,0,1,1,0-5.811h29.249a2.906,2.906,0,1,1,0,5.811Z" transform="translate(-79.044 -173.493)" fill="#2b597f"/>
          <path id="Trazado_827964" data-name="Trazado 827964" d="M154.91,377.837H57.37A19.37,19.37,0,0,1,38,358.467v-5.036a1.937,1.937,0,0,1,1.937-1.937H51.559a.376.376,0,0,0,.066,0H133.8a1.937,1.937,0,0,1,1.937,1.937v5.04A19.372,19.372,0,0,0,154.91,377.837Z" transform="translate(-38 -239.341)" fill="#2b597f"/>
        </g>
      </g>
      <g id="Grupo_1074633" data-name="Grupo 1074633" transform="translate(30.5)">
        <path id="Trazado_827965" data-name="Trazado 827965" d="M202.313,32.929H188.754V19.37a2.905,2.905,0,0,0-2.906-2.906H172.29V2.906A2.905,2.905,0,0,0,169.384,0H48.9A2.905,2.905,0,0,0,46,2.906V133.267H33.406a2.905,2.905,0,0,0-2.906,2.906v6.973a22.3,22.3,0,0,0,22.276,22.276h9.685V178.98a2.905,2.905,0,0,0,2.906,2.906H78.925v13.559a2.905,2.905,0,0,0,2.906,2.906h58.3a2.906,2.906,0,1,0,0-5.811h-55.4V181.886H185.849a2.905,2.905,0,0,0,2.906-2.906V133.267a2.906,2.906,0,0,0-5.811,0v42.808H68.272V165.421H169.384a2.905,2.905,0,0,0,2.906-2.906V22.276h10.654v97.819a2.906,2.906,0,1,0,5.811,0V38.74h10.654v153.8h-46.1a2.906,2.906,0,1,0,0,5.811h49.006a2.905,2.905,0,0,0,2.906-2.906V35.835A2.905,2.905,0,0,0,202.313,32.929ZM166.478,159.61H150.4a16.483,16.483,0,0,1-16.465-16.465v-6.973a2.905,2.905,0,0,0-2.906-2.906H110.886a2.906,2.906,0,0,0,0,5.811h17.239v4.068a22.223,22.223,0,0,0,7.287,16.465H52.776a16.483,16.483,0,0,1-16.465-16.465v-4.068H97.327a2.906,2.906,0,0,0,0-5.811H51.807V5.811H166.478Z" transform="translate(-30.5)"/>
        <path id="Trazado_827966" data-name="Trazado 827966" d="M108.406,92H145.6A2.905,2.905,0,0,0,148.5,89.1V51.906A2.905,2.905,0,0,0,145.6,49H108.406a2.905,2.905,0,0,0-2.906,2.906V89.1A2.905,2.905,0,0,0,108.406,92Zm2.906-37.191h31.38v31.38h-31.38Z" transform="translate(-76.445 -30.017)"/>
        <path id="Trazado_827967" data-name="Trazado 827967" d="M282.02,132H239.406a2.906,2.906,0,0,0,0,5.811H282.02a2.906,2.906,0,0,0,0-5.811Z" transform="translate(-156.695 -80.863)"/>
        <path id="Trazado_827968" data-name="Trazado 827968" d="M170.5,202.906a2.905,2.905,0,0,0,2.906,2.906h43a2.906,2.906,0,1,0,0-5.811h-43A2.905,2.905,0,0,0,170.5,202.906Z" transform="translate(-116.264 -122.519)"/>
        <path id="Trazado_827969" data-name="Trazado 827969" d="M282.02,97H239.406a2.906,2.906,0,0,0,0,5.811H282.02a2.906,2.906,0,0,0,0-5.811Z" transform="translate(-156.695 -59.422)"/>
        <path id="Trazado_827970" data-name="Trazado 827970" d="M282.02,62H239.406a2.906,2.906,0,1,0,0,5.811H282.02a2.906,2.906,0,1,0,0-5.811Z" transform="translate(-156.695 -37.981)"/>
        <path id="Trazado_827971" data-name="Trazado 827971" d="M201.77,289H108.406a2.906,2.906,0,1,0,0,5.811H201.77a2.906,2.906,0,1,0,0-5.811Z" transform="translate(-76.445 -177.041)"/>
        <path id="Trazado_827972" data-name="Trazado 827972" d="M269.155,244h-50.75a2.906,2.906,0,1,0,0,5.811h50.75a2.906,2.906,0,1,0,0-5.811Z" transform="translate(-143.83 -149.474)"/>
        <path id="Trazado_827973" data-name="Trazado 827973" d="M107.906,249.811h29.249a2.906,2.906,0,1,0,0-5.811H107.906a2.906,2.906,0,1,0,0,5.811Z" transform="translate(-76.138 -149.474)"/>
      </g>
    </g>
  </g>
</svg>
