<svg xmlns="http://www.w3.org/2000/svg" width="122" height="106" viewBox="0 0 122 106">
  <g id="Grupo_1074557" data-name="Grupo 1074557" transform="translate(-205 -5542)">
    <rect id="Rectángulo_383432" data-name="Rectángulo 383432" width="122" height="106" rx="8" transform="translate(205 5542)" fill="#fff"/>
    <path id="Trazado_827675" data-name="Trazado 827675" d="M28.059-7.943H26.743c-2.115,4.982-4.136,6.2-10.857,6.2H14.194c-3.478,0-4.747-.235-4.747-2.209V-15.369h7.1c4.042,0,4.747.611,5.311,4.559h1.081v-11H21.855c-.564,3.713-1.269,4.512-5.311,4.512h-7.1v-10.34c0-1.5.329-1.692,1.645-1.692h6.157c5.452,0,6.533.7,7.238,4.935h1.175l-.188-6.721H.564v.893c3.525.188,4.089.893,4.089,4.371V-5.358c0,3.619-.47,4.23-4.089,4.465V0H25.9ZM57.575-6.157C54.05-2.82,51.465-1.41,47.235-1.41a11.371,11.371,0,0,1-8.366-3.384c-2.209-2.4-3.384-6.063-3.384-11.233,0-8.131,4.183-13.865,11.28-13.865a10.1,10.1,0,0,1,7.567,3.572A10.021,10.021,0,0,1,56.776-21.1h1.081l-.423-10.669h-.94a2.035,2.035,0,0,1-1.974,1.551,16.6,16.6,0,0,1-3.243-.846,20.981,20.981,0,0,0-5.593-.7,14.949,14.949,0,0,0-11.421,4.888,16.99,16.99,0,0,0-4.23,11.609,16.442,16.442,0,0,0,4.512,11.75A15.9,15.9,0,0,0,45.637.658c5.546,0,10.1-2.068,12.831-5.969ZM100.674,0V-.893c-3.431-.235-4.136-1.034-4.136-4.371V-25.85c0-3.525.705-4.324,4.089-4.371v-.893H91.274L80.887-7.52,70.03-31.114H60.724v.893c3.854.235,4.465.846,4.465,4.418V-7.1c0,5.264-.658,5.922-4.559,6.2V0h11V-.893c-3.619-.188-4.371-1.034-4.371-6.2V-25.8L79.1,0h.658L91.744-26.884v21.1c0,3.9-.517,4.653-4.23,4.888V0Z" transform="translate(215 5610)" fill="#273a89"/>
  </g>
</svg>
