<svg xmlns="http://www.w3.org/2000/svg" xmlns:xlink="http://www.w3.org/1999/xlink" width="505.48" height="564.441" viewBox="0 0 505.48 564.441">
  <defs>
    <clipPath id="clip-path">
      <rect id="Rectángulo_383403" data-name="Rectángulo 383403" width="505" height="564" rx="15" transform="translate(180 4082)" fill="#273a89"/>
    </clipPath>
    <clipPath id="clip-path-2">
      <rect id="Rectángulo_383401" data-name="Rectángulo 383401" width="422.48" height="441" fill="none"/>
    </clipPath>
    <clipPath id="clip-path-3">
      <rect id="Rectángulo_383301" data-name="Rectángulo 383301" width="66.521" height="10.662" fill="none"/>
    </clipPath>
    <clipPath id="clip-path-4">
      <rect id="Rectángulo_383302" data-name="Rectángulo 383302" width="35.134" height="40.085" fill="none"/>
    </clipPath>
    <clipPath id="clip-path-5">
      <rect id="Rectángulo_383303" data-name="Rectángulo 383303" width="10.35" height="39.935" fill="none"/>
    </clipPath>
  </defs>
  <g id="Grupo_1074425" data-name="Grupo 1074425" transform="translate(-180 -4082)">
    <g id="Grupo_1074422" data-name="Grupo 1074422">
      <rect id="Rectángulo_383270" data-name="Rectángulo 383270" width="143" height="564" rx="15" transform="translate(180 4082)" fill="#273a89"/>
      <g id="Enmascarar_grupo_172" data-name="Enmascarar grupo 172" clip-path="url(#clip-path)">
        <g id="Grupo_1074421" data-name="Grupo 1074421" transform="translate(557.609 3951.255)" opacity="0.089">
          <g id="Grupo_1074423" data-name="Grupo 1074423" transform="translate(-386.533 -438.691)">
            <path id="Trazado_818450" data-name="Trazado 818450" d="M99.134,0l91.457,92.964,86.1-87.526,86.592,88.019L453.77,1.482l89.509,90.983,80.858-82.19L637.543,23.9l-94.264,95.816L453.77,28.741l-90.483,91.968L276.694,32.7l-86.1,87.521L99.134,27.253,13.411,114.388,0,100.767Z" transform="translate(-72.753 1016.399)" fill="#1682fb"/>
            <path id="Trazado_818451" data-name="Trazado 818451" d="M99.134,16.8l91.457,92.958,86.1-87.515,86.592,88.013L453.77,18.278l89.509,90.983,80.858-82.2L637.543,40.7l-94.264,95.816L453.77,45.531,363.287,137.5,276.694,49.485l-86.1,87.521L99.134,44.048,13.411,131.183,0,117.562Z" transform="translate(-72.753 905.654)" fill="#1682fb"/>
            <path id="Trazado_818452" data-name="Trazado 818452" d="M99.134,33.59l91.457,92.958,86.1-87.521,86.592,88.013L453.77,35.073l89.509,90.983,80.858-82.2,13.406,13.632-94.264,95.816L453.77,62.326,363.287,154.3,276.694,66.281l-86.1,87.521L99.134,60.843,13.411,147.978,0,134.352Z" transform="translate(-72.753 794.909)" fill="#1682fb"/>
            <path id="Trazado_818453" data-name="Trazado 818453" d="M99.134,50.387l91.457,92.964,86.1-87.521,86.592,88.013L453.77,51.869l89.509,90.989,80.858-82.2,13.406,13.627-94.264,95.816L453.77,79.122,363.287,171.1,276.694,83.077l-86.1,87.526L99.134,77.64,13.411,164.78,0,151.153Z" transform="translate(-72.753 684.16)" fill="#1682fb"/>
            <path id="Trazado_818454" data-name="Trazado 818454" d="M99.134,67.182l91.457,92.964,86.1-87.521,86.592,88.013L453.77,68.664l89.509,90.983,80.858-82.2,13.406,13.627L543.279,186.9,453.77,95.917l-90.483,91.973L276.694,99.872l-86.1,87.521L99.134,94.429,13.411,181.57,0,167.943Z" transform="translate(-72.753 573.414)" fill="#1682fb"/>
            <path id="Trazado_818455" data-name="Trazado 818455" d="M99.134,83.977l91.457,92.958,86.1-87.521,86.592,88.013L453.77,85.459l89.509,90.983,80.858-82.2,13.406,13.632L543.279,203.7,453.77,112.713l-90.483,91.973-86.592-88.019-86.1,87.521L99.134,111.23,13.411,198.365,0,184.738Z" transform="translate(-72.753 462.669)" fill="#1682fb"/>
          </g>
        </g>
      </g>
      <g id="Grupo_1074420" data-name="Grupo 1074420" transform="translate(-61)">
        <rect id="Rectángulo_383402" data-name="Rectángulo 383402" width="249" height="441" rx="13" transform="translate(280 4118)" fill="#dcecfe"/>
        <g id="Grupo_1074419" data-name="Grupo 1074419" transform="translate(263 4118.001)">
          <path id="Rectángulo_383306" data-name="Rectángulo 383306" d="M-1.581-2.154H3.694a.572.572,0,0,1,.572.572V72.485a.572.572,0,0,1-.572.572H-1.581a.572.572,0,0,1-.572-.572V-1.581A.572.572,0,0,1-1.581-2.154Zm4.7,1.144H-1.009V71.913H3.121Z" transform="translate(266.849 37.076)" fill="#b4daef"/>
          <g id="Grupo_1074418" data-name="Grupo 1074418" transform="translate(0 -0.001)">
            <g id="Grupo_1074417" data-name="Grupo 1074417" clip-path="url(#clip-path-2)">
              <path id="Rectángulo_383307" data-name="Rectángulo 383307" d="M12.091-2.153h218.4a14.234,14.234,0,0,1,14.245,14.245V424.6a14.234,14.234,0,0,1-14.245,14.245H12.091A14.234,14.234,0,0,1-2.154,424.6V12.091A14.234,14.234,0,0,1,12.091-2.153ZM230.494,437.7a13.089,13.089,0,0,0,13.1-13.1V12.091a13.089,13.089,0,0,0-13.1-13.1H12.091a13.089,13.089,0,0,0-13.1,13.1V424.6a13.089,13.089,0,0,0,13.1,13.1Z" transform="translate(21.101 2.154)" fill="#b4daef"/>
              <path id="Rectángulo_383308" data-name="Rectángulo 383308" d="M11.713-2.154H224.075a13.855,13.855,0,0,1,13.867,13.867v401.1a13.855,13.855,0,0,1-13.867,13.867H11.713A13.856,13.856,0,0,1-2.154,412.814V11.713A13.856,13.856,0,0,1,11.713-2.154Zm212.361,427.69A12.711,12.711,0,0,0,236.8,412.814V11.713A12.711,12.711,0,0,0,224.075-1.009H11.713A12.712,12.712,0,0,0-1.009,11.713v401.1a12.711,12.711,0,0,0,12.722,12.722Z" transform="translate(24.5 8.237)" fill="#b4daef"/>
              <path id="Trazado_827320" data-name="Trazado 827320" d="M516.19,67.708a7.843,7.843,0,1,1-7.843-7.843,7.843,7.843,0,0,1,7.843,7.843" transform="translate(-367.521 -43.959)" fill="#231f20"/>
              <path id="Trazado_827321" data-name="Trazado 827321" d="M545.869,226.863H393.453a26.687,26.687,0,0,1-26.687-26.687h0a26.687,26.687,0,0,1,26.687-26.687H545.869a26.687,26.687,0,0,1,26.687,26.687h0a26.687,26.687,0,0,1-26.687,26.687" transform="translate(-269.317 -127.393)" fill="#5959d8"/>
              <path id="Trazado_827322" data-name="Trazado 827322" d="M53.853,324.1H25.146A25.146,25.146,0,0,1,0,298.957v-3.082a25.146,25.146,0,0,1,25.146-25.146H53.853A25.146,25.146,0,0,1,79,295.875v3.082A25.146,25.146,0,0,1,53.853,324.1" transform="translate(0 -198.797)" fill="#718ef4"/>
              <rect id="Rectángulo_383309" data-name="Rectángulo 383309" width="104.98" height="96.434" transform="translate(66.754 134.838)" fill="#b4daef"/>
              <path id="Trazado_827323" data-name="Trazado 827323" d="M313.843,1090.217H212.089a36.291,36.291,0,0,1-36.291-36.291v-3.255a36.291,36.291,0,0,1,36.291-36.29H313.843a36.29,36.29,0,0,1,36.29,36.29v3.255a36.29,36.29,0,0,1-36.29,36.291" transform="translate(-129.089 -744.862)" fill="#718ef4"/>
              <path id="Trazado_827324" data-name="Trazado 827324" d="M413,587.56a14.446,14.446,0,1,1-14.446-14.446A14.446,14.446,0,0,1,413,587.56" transform="translate(-282.053 -420.839)" fill="#fff"/>
              <path id="Trazado_827325" data-name="Trazado 827325" d="M389.192,723.4a28.081,28.081,0,0,0-55.892,0Z" transform="translate(-244.743 -512.6)" fill="#fff"/>
              <path id="Rectángulo_383310" data-name="Rectángulo 383310" d="M22.447-2.154H170.768a24.781,24.781,0,0,1,4.957.5,24.47,24.47,0,0,1,8.8,3.7,24.671,24.671,0,0,1,8.912,10.823,24.48,24.48,0,0,1,1.434,4.619,24.779,24.779,0,0,1,.5,4.957v5.317a24.779,24.779,0,0,1-.5,4.957,24.468,24.468,0,0,1-3.7,8.8,24.671,24.671,0,0,1-10.823,8.912,24.482,24.482,0,0,1-4.619,1.434,24.781,24.781,0,0,1-4.957.5H22.447a24.78,24.78,0,0,1-4.957-.5,24.469,24.469,0,0,1-8.8-3.7A24.671,24.671,0,0,1-.22,37.34a24.481,24.481,0,0,1-1.434-4.619,24.78,24.78,0,0,1-.5-4.957V22.447a24.78,24.78,0,0,1,.5-4.957,24.469,24.469,0,0,1,3.7-8.8A24.671,24.671,0,0,1,12.871-.22,24.482,24.482,0,0,1,17.49-1.654,24.78,24.78,0,0,1,22.447-2.154ZM170.768,51.22a23.633,23.633,0,0,0,4.728-.477,23.324,23.324,0,0,0,8.386-3.529,23.526,23.526,0,0,0,8.5-10.321,23.335,23.335,0,0,0,1.367-4.4,23.633,23.633,0,0,0,.477-4.728V22.447a23.633,23.633,0,0,0-.477-4.728,23.325,23.325,0,0,0-3.529-8.386A23.526,23.526,0,0,0,179.9.834a23.336,23.336,0,0,0-4.4-1.367,23.633,23.633,0,0,0-4.728-.477H22.447a23.633,23.633,0,0,0-4.728.477A23.324,23.324,0,0,0,9.333,3a23.526,23.526,0,0,0-8.5,10.321,23.335,23.335,0,0,0-1.367,4.4,23.633,23.633,0,0,0-.477,4.728v5.317a23.633,23.633,0,0,0,.477,4.728A23.324,23.324,0,0,0,3,40.878a23.527,23.527,0,0,0,10.321,8.5,23.336,23.336,0,0,0,4.4,1.367,23.633,23.633,0,0,0,4.728.477Z" transform="translate(208.151 127.125)" fill="#b4daef"/>
              <path id="Trazado_827326" data-name="Trazado 827326" d="M860.92,526.43l2.223,6.843h7.2a1.974,1.974,0,0,1,1.16,3.57l-5.821,4.229,2.224,6.843a1.974,1.974,0,0,1-3.037,2.207l-5.821-4.229-5.821,4.229a1.973,1.973,0,0,1-3.037-2.207l2.223-6.843-5.821-4.229a1.974,1.974,0,0,1,1.16-3.57h7.2l2.223-6.843a1.974,1.974,0,0,1,3.754,0" transform="translate(-621.051 -385.557)" fill="#b4daef"/>
              <path id="Trazado_827327" data-name="Trazado 827327" d="M997.652,526.43l2.223,6.843h7.2a1.974,1.974,0,0,1,1.16,3.57l-5.822,4.229,2.224,6.843a1.974,1.974,0,0,1-3.037,2.207l-5.821-4.229-5.821,4.229a1.973,1.973,0,0,1-3.037-2.207l2.223-6.843-5.821-4.229a1.974,1.974,0,0,1,1.16-3.57h7.2l2.224-6.843a1.974,1.974,0,0,1,3.754,0" transform="translate(-721.454 -385.557)" fill="#b4daef"/>
              <path id="Trazado_827328" data-name="Trazado 827328" d="M1113.986,526.43l2.223,6.843h7.2a1.974,1.974,0,0,1,1.16,3.57l-5.822,4.229,2.224,6.843a1.973,1.973,0,0,1-3.037,2.207l-5.821-4.229-5.821,4.229a1.974,1.974,0,0,1-3.037-2.207l2.224-6.843-5.822-4.229a1.974,1.974,0,0,1,1.16-3.57h7.2l2.223-6.843a1.974,1.974,0,0,1,3.754,0" transform="translate(-806.878 -385.557)" fill="#b4daef"/>
              <path id="Trazado_827329" data-name="Trazado 827329" d="M1238.455,526.43l2.224,6.843h7.2a1.974,1.974,0,0,1,1.16,3.57l-5.821,4.229,2.224,6.843a1.974,1.974,0,0,1-3.037,2.207l-5.821-4.229-5.821,4.229a1.974,1.974,0,0,1-3.037-2.207l2.224-6.843-5.821-4.229a1.974,1.974,0,0,1,1.16-3.57h7.2l2.223-6.843a1.974,1.974,0,0,1,3.754,0" transform="translate(-898.276 -385.557)" fill="#b4daef"/>
              <path id="Trazado_827330" data-name="Trazado 827330" d="M1365.65,526.43l2.223,6.843h7.2a1.974,1.974,0,0,1,1.16,3.57l-5.821,4.229,2.224,6.843a1.973,1.973,0,0,1-3.037,2.207l-5.821-4.229-5.821,4.229a1.974,1.974,0,0,1-3.037-2.207l2.223-6.843-5.821-4.229a1.974,1.974,0,0,1,1.16-3.57h7.2l2.224-6.843a1.974,1.974,0,0,1,3.754,0" transform="translate(-991.675 -385.557)" fill="#b4daef"/>
              <path id="Trazado_827331" data-name="Trazado 827331" d="M457.736,243.207a.572.572,0,0,1-.433-.946,79.472,79.472,0,0,1,18.951-16.018,19.192,19.192,0,0,1,3.091-1.511,13.784,13.784,0,0,1,3.367-.845c2.609-.283,4.63.493,5.845,2.243a9.361,9.361,0,0,1,1.288,3.947,12.783,12.783,0,0,0,.616,2.592,5.893,5.893,0,0,0,1.725,2.368,7.875,7.875,0,0,0,2.68,1.437,11.073,11.073,0,0,0,6.412.036,19.4,19.4,0,0,0,4.39-2.016c1.41-.846,2.794-1.839,4.133-2.8.923-.662,1.877-1.346,2.838-1.982a28.318,28.318,0,0,1,6.716-3.229,27.281,27.281,0,0,1,3.655-.927,23.524,23.524,0,0,1,3.68-.374,16.682,16.682,0,0,1,6.915,1.225,12.056,12.056,0,0,1,5.362,4.4,23.75,23.75,0,0,1,1.384,2.451,14.62,14.62,0,0,0,2.093,3.325,7.362,7.362,0,0,0,1.743,1.4,7.628,7.628,0,0,0,2,.792,11.692,11.692,0,0,0,4.607.078,23.73,23.73,0,0,0,4.963-1.434,40.93,40.93,0,0,0,4.713-2.268l19.4-10.811a52.727,52.727,0,0,1,4.967-2.53,17.418,17.418,0,0,1,5.427-1.428,10.99,10.99,0,0,1,5.687,1.078,8.628,8.628,0,0,1,2.337,1.677,7.036,7.036,0,0,1,1.568,2.434,13.549,13.549,0,0,1,.618,2.65,8.8,8.8,0,0,0,.909,3.146,4.948,4.948,0,0,0,3.659,2.207,10,10,0,0,0,4.859-.595,33.911,33.911,0,0,0,3.525-1.67,21.587,21.587,0,0,1,5.941-2.38.572.572,0,0,1,.209,1.125,20.422,20.422,0,0,0-5.621,2.27,34.752,34.752,0,0,1-3.647,1.724,11.63,11.63,0,0,1-2.669.667,10.154,10.154,0,0,1-2.765-.009,7.08,7.08,0,0,1-2.543-.856,5.351,5.351,0,0,1-1.932-1.9,9.8,9.8,0,0,1-1.055-3.548,12.49,12.49,0,0,0-.559-2.429,5.9,5.9,0,0,0-1.316-2.039,7.488,7.488,0,0,0-2.029-1.452,9.453,9.453,0,0,0-2.474-.819,9.934,9.934,0,0,0-2.613-.143,16.3,16.3,0,0,0-5.071,1.342,50.1,50.1,0,0,0-4.856,2.476l-19.4,10.811a42.056,42.056,0,0,1-4.846,2.331,24.866,24.866,0,0,1-5.205,1.5,12.82,12.82,0,0,1-5.06-.1,8.494,8.494,0,0,1-4.314-2.533,15.7,15.7,0,0,1-2.268-3.577,22.891,22.891,0,0,0-1.315-2.334,10.929,10.929,0,0,0-4.862-3.989,15.552,15.552,0,0,0-6.443-1.134,22.368,22.368,0,0,0-3.5.356,26.132,26.132,0,0,0-3.5.889,27.16,27.16,0,0,0-6.441,3.1c-.943.624-1.888,1.3-2.8,1.957-2.735,1.962-5.564,3.99-8.861,4.981a12.245,12.245,0,0,1-7.09-.042,9.01,9.01,0,0,1-3.066-1.65,7.024,7.024,0,0,1-2.054-2.824,13.836,13.836,0,0,1-.68-2.823,8.389,8.389,0,0,0-1.1-3.483,3.984,3.984,0,0,0-2.03-1.527,6.405,6.405,0,0,0-2.752-.231,12.646,12.646,0,0,0-3.085.777,18.035,18.035,0,0,0-2.9,1.42,78.335,78.335,0,0,0-18.678,15.787A.571.571,0,0,1,457.736,243.207Z" transform="translate(-335.697 -161.805)" fill="#b4daef"/>
              <path id="Trazado_827332" data-name="Trazado 827332" d="M696.4,1419.787H550.594a25.6,25.6,0,1,1,0-51.2H696.4a25.6,25.6,0,1,1,0,51.2" transform="translate(-385.505 -1004.958)" fill="#6f6ff7"/>
              <path id="Trazado_827333" data-name="Trazado 827333" d="M627.045,1452.723h-.165a9.452,9.452,0,0,1-6.768-2.625,15.852,15.852,0,0,1-2.106-2.869,17.574,17.574,0,0,0-1.625-2.323,9.53,9.53,0,0,0-6.046-3.044,14.169,14.169,0,0,0-7.107.943,23.3,23.3,0,0,0-6.117,3.828,72.428,72.428,0,0,0-5.37,5.147.572.572,0,0,1-.82-.8,73.343,73.343,0,0,1,5.457-5.228,24.428,24.428,0,0,1,6.419-4.009,15.331,15.331,0,0,1,7.691-1.018,11.955,11.955,0,0,1,3.686,1.092,9.762,9.762,0,0,1,3.069,2.332,18.716,18.716,0,0,1,1.735,2.472,14.768,14.768,0,0,0,1.947,2.668,7.356,7.356,0,0,0,2.71,1.72,9.793,9.793,0,0,0,3.261.567h.152a15.074,15.074,0,0,0,6.632-1.651,45,45,0,0,0,6.118-3.971,48.655,48.655,0,0,1,5.9-3.875,16.828,16.828,0,0,1,7.253-1.977,11.191,11.191,0,0,1,3.663.489,8.691,8.691,0,0,1,3.222,1.83,17.317,17.317,0,0,1,2.744,3.519c1.181,1.818,2.3,3.535,4.142,4.221a4.912,4.912,0,0,0,2.1.288,7.753,7.753,0,0,0,2.185-.513,25.737,25.737,0,0,0,4.383-2.365l.208-.13a54.731,54.731,0,0,1,14.484-6.343,6.443,6.443,0,0,1,3.479-.243,4.455,4.455,0,0,1,2.154,1.435,14.6,14.6,0,0,1,1.432,2.083,15.9,15.9,0,0,0,1.184,1.774,7.515,7.515,0,0,0,5.087,2.584,12.943,12.943,0,0,0,6.151-.851,37.076,37.076,0,0,0,6.645-3.747c1.418-.933,2.883-1.9,4.41-2.716a10.2,10.2,0,0,1,2.394-.975,4.639,4.639,0,0,1,2.659.059c1.809.632,2.649,2.32,3.462,3.953a18.916,18.916,0,0,0,.97,1.789,5.126,5.126,0,0,0,1.2,1.359,4.681,4.681,0,0,0,3.551.745,16.724,16.724,0,0,0,4.088-1.224l8.415-3.479,8.412-3.478a.572.572,0,1,1,.437,1.057L747.8,1444.7l-8.415,3.479a17.755,17.755,0,0,1-4.383,1.3,7.262,7.262,0,0,1-2.269-.042,5.073,5.073,0,0,1-2.113-.923,9.434,9.434,0,0,1-2.509-3.552,13.834,13.834,0,0,0-1.212-2.127,3.373,3.373,0,0,0-1.6-1.256,3.472,3.472,0,0,0-2.01-.028,9.106,9.106,0,0,0-2.125.872c-1.481.794-2.925,1.745-4.322,2.663a37.945,37.945,0,0,1-6.856,3.856,14.111,14.111,0,0,1-6.706.922,8.633,8.633,0,0,1-5.839-3,16.742,16.742,0,0,1-1.276-1.9c-.822-1.356-1.6-2.637-2.918-3.01a5.514,5.514,0,0,0-2.865.246,53.593,53.593,0,0,0-14.181,6.21l-.208.13a26.974,26.974,0,0,1-4.586,2.465,7.06,7.06,0,0,1-5.09.226c-2.2-.818-3.471-2.776-4.7-4.669a16.478,16.478,0,0,0-2.552-3.293,7.557,7.557,0,0,0-2.8-1.589,10.042,10.042,0,0,0-3.289-.435,15.662,15.662,0,0,0-6.748,1.846,47.826,47.826,0,0,0-5.758,3.787,45.852,45.852,0,0,1-6.277,4.069A16.241,16.241,0,0,1,627.045,1452.723Z" transform="translate(-433.795 -1057.469)" fill="#231f20"/>
              <path id="Trazado_827334" data-name="Trazado 827334" d="M1089.47,941.241H914.01a2.4,2.4,0,0,1-2.4-2.4V819.431a2.4,2.4,0,0,1,2.4-2.4h175.46a2.4,2.4,0,0,1,2.4,2.4V938.836a2.4,2.4,0,0,1-2.4,2.4" transform="translate(-669.394 -599.945)" fill="#97b2ff"/>
              <path id="Rectángulo_383311" data-name="Rectángulo 383311" d="M.572,0H3.185a.572.572,0,0,1,.572.572V3.731a.572.572,0,0,1-.572.572H.572A.572.572,0,0,1,0,3.731V.572A.572.572,0,0,1,.572,0Zm2.04,1.144H1.144V3.158H2.613Z" transform="matrix(1, -0.003, 0.003, 1, 248.64, 225.392)" fill="#b4daef"/>
              <path id="Rectángulo_383312" data-name="Rectángulo 383312" d="M.572,0H6.435a.572.572,0,0,1,.572.572V3.73a.572.572,0,0,1-.572.572H.572A.572.572,0,0,1,0,3.73V.572A.572.572,0,0,1,.572,0ZM5.863,1.144H1.144V3.158H5.863Z" transform="translate(253.662 225.377) rotate(-0.174)" fill="#b4daef"/>
              <path id="Rectángulo_383313" data-name="Rectángulo 383313" d="M.572,0H9.206a.572.572,0,0,1,.572.572V3.73a.572.572,0,0,1-.572.572H.572A.572.572,0,0,1,0,3.73V.572A.572.572,0,0,1,.572,0ZM8.634,1.144H1.144V3.158h7.49Z" transform="translate(262.529 225.35) rotate(-0.175)" fill="#b4daef"/>
              <path id="Rectángulo_383314" data-name="Rectángulo 383314" d="M.572,0h9.34a.572.572,0,0,1,.572.572V3.73a.572.572,0,0,1-.572.572H.572A.572.572,0,0,1,0,3.73V.572A.572.572,0,0,1,.572,0ZM9.34,1.144h-8.2V3.158h8.2Z" transform="translate(309.321 225.207) rotate(-0.174)" fill="#b4daef"/>
              <path id="Rectángulo_383315" data-name="Rectángulo 383315" d="M.572,0H17.514a.572.572,0,0,1,.572.572V3.73a.572.572,0,0,1-.572.572H.572A.572.572,0,0,1,0,3.73V.572A.572.572,0,0,1,.572,0Zm16.37,1.144H1.144V3.158h15.8Z" transform="translate(280.505 225.295) rotate(-0.174)" fill="#b4daef"/>
              <path id="Rectángulo_383316" data-name="Rectángulo 383316" d="M.572,0H6.514a.572.572,0,0,1,.572.572V3.73a.572.572,0,0,1-.572.572H.572A.572.572,0,0,1,0,3.73V.572A.572.572,0,0,1,.572,0Zm5.37,1.144h-4.8V3.158h4.8Z" transform="translate(272.662 225.319) rotate(-0.174)" fill="#b4daef"/>
              <path id="Rectángulo_383317" data-name="Rectángulo 383317" d="M.572,0H6.514a.572.572,0,0,1,.572.572V3.73a.572.572,0,0,1-.572.572H.572A.572.572,0,0,1,0,3.73V.572A.572.572,0,0,1,.572,0Zm5.37,1.144h-4.8V3.158h4.8Z" transform="translate(300.534 225.234) rotate(-0.174)" fill="#b4daef"/>
              <path id="Rectángulo_383318" data-name="Rectángulo 383318" d="M.572,0H4.557a.572.572,0,0,1,.572.572V3.731a.572.572,0,0,1-.572.572H.572A.572.572,0,0,1,0,3.731V.572A.572.572,0,0,1,.572,0ZM3.985,1.144H1.144V3.158h2.84Z" transform="translate(364.342 225.04) rotate(-0.176)" fill="#b4daef"/>
              <path id="Rectángulo_383319" data-name="Rectángulo 383319" d="M.572,0H28.043a.572.572,0,0,1,.572.572V3.731a.572.572,0,0,1-.572.572H.572A.572.572,0,0,1,0,3.731V.572A.572.572,0,0,1,.572,0Zm26.9,1.144H1.144V3.158H27.471Z" transform="translate(370.913 225.019) rotate(-0.175)" fill="#b4daef"/>
              <path id="Rectángulo_383320" data-name="Rectángulo 383320" d="M.572,0h15.2a.572.572,0,0,1,.572.572V3.73a.572.572,0,0,1-.572.572H.572A.572.572,0,0,1,0,3.73V.572A.572.572,0,0,1,.572,0ZM15.2,1.144H1.144V3.158H15.2Z" transform="translate(346.53 225.094) rotate(-0.174)" fill="#b4daef"/>
              <path id="Rectángulo_383321" data-name="Rectángulo 383321" d="M.572,0H20.161a.572.572,0,0,1,.572.572V3.731a.572.572,0,0,1-.572.572H.572A.572.572,0,0,1,0,3.731V.572A.572.572,0,0,1,.572,0ZM19.589,1.144H1.144V3.158H19.589Z" transform="translate(322.112 225.168) rotate(-0.175)" fill="#b4daef"/>
              <path id="Rectángulo_383322" data-name="Rectángulo 383322" d="M.572,0H3.185a.572.572,0,0,1,.572.572V3.73a.572.572,0,0,1-.572.572H.572A.572.572,0,0,1,0,3.73V.572A.572.572,0,0,1,.572,0Zm2.04,1.144H1.144V3.158H2.613Z" transform="matrix(1, -0.003, 0.003, 1, 248.665, 233.522)" fill="#b4daef"/>
              <path id="Rectángulo_383323" data-name="Rectángulo 383323" d="M.572,0h15.2a.572.572,0,0,1,.572.572V3.73a.572.572,0,0,1-.572.572H.572A.572.572,0,0,1,0,3.73V.572A.572.572,0,0,1,.572,0ZM15.2,1.144H1.144V3.158H15.2Z" transform="translate(253.687 233.506) rotate(-0.174)" fill="#b4daef"/>
              <path id="Rectángulo_383324" data-name="Rectángulo 383324" d="M.572,0H33.9a.572.572,0,0,1,.572.572V3.73A.572.572,0,0,1,33.9,4.3H.572A.572.572,0,0,1,0,3.73V.572A.572.572,0,0,1,.572,0Zm32.76,1.144H1.144V3.158H33.332Z" transform="translate(285.354 233.41) rotate(-0.174)" fill="#b4daef"/>
              <path id="Rectángulo_383325" data-name="Rectángulo 383325" d="M.572,0h9.5a.572.572,0,0,1,.572.572V3.73a.572.572,0,0,1-.572.572H.572A.572.572,0,0,1,0,3.73V.572A.572.572,0,0,1,.572,0ZM9.5,1.144H1.144V3.158H9.5Z" transform="matrix(1, -0.003, 0.003, 1, 272.687, 233.449)" fill="#b4daef"/>
              <path id="Rectángulo_383326" data-name="Rectángulo 383326" d="M.572,0h58.3a.572.572,0,0,1,.572.572V3.73a.572.572,0,0,1-.572.572H.572A.572.572,0,0,1,0,3.73V.572A.572.572,0,0,1,.572,0ZM58.3,1.144H1.144V3.158H58.3Z" transform="translate(322.137 233.298) rotate(-0.174)" fill="#b4daef"/>
              <path id="Rectángulo_383327" data-name="Rectángulo 383327" d="M.572,0H3.185a.572.572,0,0,1,.572.572V3.731a.572.572,0,0,1-.572.572H.572A.572.572,0,0,1,0,3.731V.572A.572.572,0,0,1,.572,0Zm2.04,1.144H1.144V3.158H2.613Z" transform="matrix(1, -0.003, 0.003, 1, 248.69, 241.732)" fill="#b4daef"/>
              <path id="Rectángulo_383328" data-name="Rectángulo 383328" d="M.572,0h7.6a.572.572,0,0,1,.572.572V3.73a.572.572,0,0,1-.572.572H.572A.572.572,0,0,1,0,3.73V.572A.572.572,0,0,1,.572,0ZM7.6,1.144H1.144V3.158H7.6Z" transform="translate(253.712 241.717) rotate(-0.174)" fill="#b4daef"/>
              <path id="Rectángulo_383329" data-name="Rectángulo 383329" d="M.572,0H20.129A.572.572,0,0,1,20.7.572V3.73a.572.572,0,0,1-.572.572H.572A.572.572,0,0,1,0,3.73V.572A.572.572,0,0,1,.572,0ZM19.557,1.144H1.144V3.158H19.557Z" transform="translate(292.981 241.598) rotate(-0.174)" fill="#b4daef"/>
              <path id="Rectángulo_383330" data-name="Rectángulo 383330" d="M.572,0H5.644a.572.572,0,0,1,.572.572V3.73a.572.572,0,0,1-.572.572H.572A.572.572,0,0,1,0,3.73V.572A.572.572,0,0,1,.572,0Zm4.5,1.144H1.144V3.158H5.071Z" transform="translate(285.379 241.621) rotate(-0.174)" fill="#b4daef"/>
              <path id="Rectángulo_383331" data-name="Rectángulo 383331" d="M.572,0H18.781a.572.572,0,0,1,.572.572V3.73a.572.572,0,0,1-.572.572H.572A.572.572,0,0,1,0,3.73V.572A.572.572,0,0,1,.572,0ZM18.208,1.144H1.144V3.158H18.208Z" transform="translate(264.009 241.686) rotate(-0.175)" fill="#b4daef"/>
              <path id="Rectángulo_383332" data-name="Rectángulo 383332" d="M.572,0H20.443a.572.572,0,0,1,.572.572V3.73a.572.572,0,0,1-.572.572H.572A.572.572,0,0,1,0,3.73V.572A.572.572,0,0,1,.572,0Zm19.3,1.144H1.144V3.158H19.871Z" transform="translate(336.842 241.464) rotate(-0.175)" fill="#b4daef"/>
              <path id="Rectángulo_383333" data-name="Rectángulo 383333" d="M.572,0H8.726A.572.572,0,0,1,9.3.572V3.73a.572.572,0,0,1-.572.572H.572A.572.572,0,0,1,0,3.73V.572A.572.572,0,0,1,.572,0ZM8.154,1.144H1.144V3.158h7.01Z" transform="translate(314.913 241.531) rotate(-0.176)" fill="#b4daef"/>
              <path id="Rectángulo_383334" data-name="Rectángulo 383334" d="M.572,0H8.726A.572.572,0,0,1,9.3.572V3.731a.572.572,0,0,1-.572.572H.572A.572.572,0,0,1,0,3.731V.572A.572.572,0,0,1,.572,0ZM8.154,1.144H1.144V3.158h7.01Z" transform="translate(325.964 241.497) rotate(-0.176)" fill="#b4daef"/>
              <path id="Rectángulo_383335" data-name="Rectángulo 383335" d="M.572,0H3.185a.572.572,0,0,1,.572.572V3.731a.572.572,0,0,1-.572.572H.572A.572.572,0,0,1,0,3.731V.572A.572.572,0,0,1,.572,0Zm2.04,1.144H1.144V3.158H2.613Z" transform="matrix(1, -0.003, 0.003, 1, 248.742, 258.89)" fill="#b4daef"/>
              <path id="Rectángulo_383336" data-name="Rectángulo 383336" d="M.572,0h15.2a.572.572,0,0,1,.572.572V3.73a.572.572,0,0,1-.572.572H.572A.572.572,0,0,1,0,3.73V.572A.572.572,0,0,1,.572,0ZM15.2,1.144H1.144V3.158H15.2Z" transform="translate(253.764 258.875) rotate(-0.174)" fill="#b4daef"/>
              <path id="Rectángulo_383337" data-name="Rectángulo 383337" d="M.572,0h15.2a.572.572,0,0,1,.572.572V3.73a.572.572,0,0,1-.572.572H.572A.572.572,0,0,1,0,3.73V.572A.572.572,0,0,1,.572,0ZM15.2,1.144H1.144V3.158H15.2Z" transform="matrix(1, -0.003, 0.003, 1, 303.558, 258.723)" fill="#b4daef"/>
              <path id="Rectángulo_383338" data-name="Rectángulo 383338" d="M.572,0h15.2a.572.572,0,0,1,.572.572V3.73a.572.572,0,0,1-.572.572H.572A.572.572,0,0,1,0,3.73V.572A.572.572,0,0,1,.572,0ZM15.2,1.144H1.144V3.158H15.2Z" transform="matrix(1, -0.003, 0.003, 1, 285.431, 258.778)" fill="#b4daef"/>
              <path id="Rectángulo_383339" data-name="Rectángulo 383339" d="M.572,0h9.5a.572.572,0,0,1,.572.572V3.731a.572.572,0,0,1-.572.572H.572A.572.572,0,0,1,0,3.731V.572A.572.572,0,0,1,.572,0ZM9.5,1.144H1.144V3.158H9.5Z" transform="matrix(1, -0.003, 0.003, 1, 272.764, 258.817)" fill="#b4daef"/>
              <path id="Rectángulo_383340" data-name="Rectángulo 383340" d="M.572,0H3.185a.572.572,0,0,1,.572.572V3.731a.572.572,0,0,1-.572.572H.572A.572.572,0,0,1,0,3.731V.572A.572.572,0,0,1,.572,0Zm2.04,1.144H1.144V3.158H2.613Z" transform="matrix(1, -0.003, 0.003, 1, 262.816, 306.673)" fill="#b4daef"/>
              <path id="Rectángulo_383341" data-name="Rectángulo 383341" d="M.572,0h15.2a.572.572,0,0,1,.572.572V3.73a.572.572,0,0,1-.572.572H.572A.572.572,0,0,1,0,3.73V.572A.572.572,0,0,1,.572,0ZM15.2,1.144H1.144V3.158H15.2Z" transform="translate(267.838 306.657) rotate(-0.174)" fill="#b4daef"/>
              <path id="Rectángulo_383342" data-name="Rectángulo 383342" d="M.572,0h15.2a.572.572,0,0,1,.572.572V3.73a.572.572,0,0,1-.572.572H.572A.572.572,0,0,1,0,3.73V.572A.572.572,0,0,1,.572,0ZM15.2,1.144H1.144V3.158H15.2Z" transform="matrix(1, -0.003, 0.003, 1, 317.632, 306.505)" fill="#b4daef"/>
              <path id="Rectángulo_383343" data-name="Rectángulo 383343" d="M.572,0h15.2a.572.572,0,0,1,.572.572V3.73a.572.572,0,0,1-.572.572H.572A.572.572,0,0,1,0,3.73V.572A.572.572,0,0,1,.572,0ZM15.2,1.144H1.144V3.158H15.2Z" transform="matrix(1, -0.003, 0.003, 1, 299.505, 306.561)" fill="#b4daef"/>
              <path id="Rectángulo_383344" data-name="Rectángulo 383344" d="M.572,0h9.5a.572.572,0,0,1,.572.572V3.73a.572.572,0,0,1-.572.572H.572A.572.572,0,0,1,0,3.73V.572A.572.572,0,0,1,.572,0ZM9.5,1.144H1.144V3.158H9.5Z" transform="matrix(1, -0.003, 0.003, 1, 286.838, 306.6)" fill="#b4daef"/>
              <path id="Rectángulo_383345" data-name="Rectángulo 383345" d="M.572,0H25.784a.572.572,0,0,1,.572.572V3.73a.572.572,0,0,1-.572.572H.572A.572.572,0,0,1,0,3.73V.572A.572.572,0,0,1,.572,0ZM25.212,1.144H1.144V3.158H25.212Z" transform="translate(387.348 306.293) rotate(-0.175)" fill="#b4daef"/>
              <path id="Rectángulo_383346" data-name="Rectángulo 383346" d="M.572,0H25.784a.572.572,0,0,1,.572.572V3.731a.572.572,0,0,1-.572.572H.572A.572.572,0,0,1,0,3.731V.572A.572.572,0,0,1,.572,0ZM25.212,1.144H1.144V3.158H25.212Z" transform="translate(357.291 306.385) rotate(-0.175)" fill="#b4daef"/>
              <path id="Rectángulo_383347" data-name="Rectángulo 383347" d="M.572,0h15.76A.572.572,0,0,1,16.9.572V3.731a.572.572,0,0,1-.572.572H.572A.572.572,0,0,1,0,3.731V.572A.572.572,0,0,1,.572,0ZM15.76,1.144H1.144V3.158H15.76Z" transform="translate(336.288 306.449) rotate(-0.175)" fill="#b4daef"/>
              <path id="Rectángulo_383348" data-name="Rectángulo 383348" d="M.572,0H3.185a.572.572,0,0,1,.572.572V3.73a.572.572,0,0,1-.572.572H.572A.572.572,0,0,1,0,3.73V.572A.572.572,0,0,1,.572,0Zm2.04,1.144H1.144V3.158H2.613Z" transform="matrix(1, -0.003, 0.003, 1, 248.767, 267.02)" fill="#b4daef"/>
              <path id="Rectángulo_383349" data-name="Rectángulo 383349" d="M.572,0h3.8a.572.572,0,0,1,.572.572V3.731a.572.572,0,0,1-.572.572H.572A.572.572,0,0,1,0,3.731V.572A.572.572,0,0,1,.572,0ZM3.8,1.144H1.144V3.158H3.8Z" transform="matrix(1, -0.003, 0.003, 1, 253.789, 267.004)" fill="#b4daef"/>
              <path id="Rectángulo_383350" data-name="Rectángulo 383350" d="M.572,0h15.2a.572.572,0,0,1,.572.572V3.73a.572.572,0,0,1-.572.572H.572A.572.572,0,0,1,0,3.73V.572A.572.572,0,0,1,.572,0ZM15.2,1.144H1.144V3.158H15.2Z" transform="translate(296.933 266.873) rotate(-0.174)" fill="#b4daef"/>
              <path id="Rectángulo_383351" data-name="Rectángulo 383351" d="M.572,0H22.029A.572.572,0,0,1,22.6.572V3.731a.572.572,0,0,1-.572.572H.572A.572.572,0,0,1,0,3.731V.572A.572.572,0,0,1,.572,0ZM21.457,1.144H1.144V3.158H21.457Z" transform="translate(273.029 266.946) rotate(-0.175)" fill="#b4daef"/>
              <path id="Rectángulo_383352" data-name="Rectángulo 383352" d="M.572,0h9.5a.572.572,0,0,1,.572.572V3.73a.572.572,0,0,1-.572.572H.572A.572.572,0,0,1,0,3.73V.572A.572.572,0,0,1,.572,0ZM9.5,1.144H1.144V3.158H9.5Z" transform="translate(260.336 266.984) rotate(-0.175)" fill="#b4daef"/>
              <path id="Rectángulo_383353" data-name="Rectángulo 383353" d="M.572,0H3.185a.572.572,0,0,1,.572.572V3.731a.572.572,0,0,1-.572.572H.572A.572.572,0,0,1,0,3.731V.572A.572.572,0,0,1,.572,0Zm2.04,1.144H1.144V3.158H2.613Z" transform="matrix(1, -0.003, 0.003, 1, 248.792, 275.23)" fill="#b4daef"/>
              <path id="Rectángulo_383354" data-name="Rectángulo 383354" d="M.572,0h15.2a.572.572,0,0,1,.572.572V3.73a.572.572,0,0,1-.572.572H.572A.572.572,0,0,1,0,3.73V.572A.572.572,0,0,1,.572,0ZM15.2,1.144H1.144V3.158H15.2Z" transform="matrix(1, -0.003, 0.003, 1, 253.814, 275.215)" fill="#b4daef"/>
              <path id="Rectángulo_383355" data-name="Rectángulo 383355" d="M.572,0H13.318a.572.572,0,0,1,.572.572V3.73a.572.572,0,0,1-.572.572H.572A.572.572,0,0,1,0,3.73V.572A.572.572,0,0,1,.572,0ZM12.746,1.144H1.144V3.158h11.6Z" transform="translate(301.794 275.069) rotate(-0.174)" fill="#b4daef"/>
              <path id="Rectángulo_383356" data-name="Rectángulo 383356" d="M.572,0H8.94a.572.572,0,0,1,.572.572V3.731A.572.572,0,0,1,8.94,4.3H.572A.572.572,0,0,1,0,3.731V.572A.572.572,0,0,1,.572,0Zm7.8,1.144H1.144V3.158H8.368Z" transform="matrix(1, -0.003, 0.003, 1, 280.68, 275.133)" fill="#b4daef"/>
              <path id="Rectángulo_383357" data-name="Rectángulo 383357" d="M.572,0H8.94a.572.572,0,0,1,.572.572V3.73A.572.572,0,0,1,8.94,4.3H.572A.572.572,0,0,1,0,3.73V.572A.572.572,0,0,1,.572,0Zm7.8,1.144H1.144V3.158H8.368Z" transform="matrix(1, -0.003, 0.003, 1, 291.219, 275.101)" fill="#b4daef"/>
              <path id="Rectángulo_383358" data-name="Rectángulo 383358" d="M.572,0H5.049a.572.572,0,0,1,.572.572V3.73a.572.572,0,0,1-.572.572H.572A.572.572,0,0,1,0,3.73V.572A.572.572,0,0,1,.572,0Zm3.9,1.144H1.144V3.158H4.477Z" transform="matrix(1, -0.003, 0.003, 1, 272.814, 275.157)" fill="#b4daef"/>
              <path id="Rectángulo_383359" data-name="Rectángulo 383359" d="M.572,0H17.288a.572.572,0,0,1,.572.572V3.73a.572.572,0,0,1-.572.572H.572A.572.572,0,0,1,0,3.73V.572A.572.572,0,0,1,.572,0ZM16.716,1.144H1.144V3.158H16.716Z" transform="translate(394.656 274.786) rotate(-0.175)" fill="#b4daef"/>
              <path id="Rectángulo_383360" data-name="Rectángulo 383360" d="M.572,0H3.185a.572.572,0,0,1,.572.572V3.731a.572.572,0,0,1-.572.572H.572A.572.572,0,0,1,0,3.731V.572A.572.572,0,0,1,.572,0Zm2.04,1.144H1.144V3.158H2.613Z" transform="matrix(1, -0.003, 0.003, 1, 248.816, 283.36)" fill="#b4daef"/>
              <path id="Rectángulo_383361" data-name="Rectángulo 383361" d="M.572,0h15.2a.572.572,0,0,1,.572.572V3.73a.572.572,0,0,1-.572.572H.572A.572.572,0,0,1,0,3.73V.572A.572.572,0,0,1,.572,0ZM15.2,1.144H1.144V3.158H15.2Z" transform="matrix(1, -0.003, 0.003, 1, 253.839, 283.345)" fill="#b4daef"/>
              <path id="Rectángulo_383362" data-name="Rectángulo 383362" d="M.572,0H35.885a.572.572,0,0,1,.572.572V3.731a.572.572,0,0,1-.572.572H.572A.572.572,0,0,1,0,3.731V.572A.572.572,0,0,1,.572,0ZM35.313,1.144H1.144V3.158H35.313Z" transform="translate(285.506 283.248) rotate(-0.175)" fill="#b4daef"/>
              <path id="Rectángulo_383363" data-name="Rectángulo 383363" d="M.572,0h9.5a.572.572,0,0,1,.572.572V3.731a.572.572,0,0,1-.572.572H.572A.572.572,0,0,1,0,3.731V.572A.572.572,0,0,1,.572,0ZM9.5,1.144H1.144V3.158H9.5Z" transform="matrix(1, -0.003, 0.003, 1, 272.839, 283.287)" fill="#b4daef"/>
              <path id="Rectángulo_383364" data-name="Rectángulo 383364" d="M.572,0H3.185a.572.572,0,0,1,.572.572V3.731a.572.572,0,0,1-.572.572H.572A.572.572,0,0,1,0,3.731V.572A.572.572,0,0,1,.572,0Zm2.04,1.144H1.144V3.158H2.613Z" transform="matrix(1, -0.003, 0.003, 1, 263.071, 299.925)" fill="#b4daef"/>
              <path id="Rectángulo_383365" data-name="Rectángulo 383365" d="M.572,0h15.2a.572.572,0,0,1,.572.572V3.73a.572.572,0,0,1-.572.572H.572A.572.572,0,0,1,0,3.73V.572A.572.572,0,0,1,.572,0ZM15.2,1.144H1.144V3.158H15.2Z" transform="translate(268.093 299.91) rotate(-0.174)" fill="#b4daef"/>
              <path id="Rectángulo_383366" data-name="Rectángulo 383366" d="M.572,0h7.6a.572.572,0,0,1,.572.572V3.73a.572.572,0,0,1-.572.572H.572A.572.572,0,0,1,0,3.73V.572A.572.572,0,0,1,.572,0ZM7.6,1.144H1.144V3.158H7.6Z" transform="translate(317.887 299.759) rotate(-0.174)" fill="#b4daef"/>
              <path id="Rectángulo_383367" data-name="Rectángulo 383367" d="M.572,0h15.2a.572.572,0,0,1,.572.572V3.73a.572.572,0,0,1-.572.572H.572A.572.572,0,0,1,0,3.73V.572A.572.572,0,0,1,.572,0ZM15.2,1.144H1.144V3.158H15.2Z" transform="matrix(1, -0.003, 0.003, 1, 299.76, 299.814)" fill="#b4daef"/>
              <path id="Rectángulo_383368" data-name="Rectángulo 383368" d="M.572,0h9.5a.572.572,0,0,1,.572.572V3.731a.572.572,0,0,1-.572.572H.572A.572.572,0,0,1,0,3.731V.572A.572.572,0,0,1,.572,0ZM9.5,1.144H1.144V3.158H9.5Z" transform="matrix(1, -0.003, 0.003, 1, 287.093, 299.852)" fill="#b4daef"/>
              <path id="Rectángulo_383369" data-name="Rectángulo 383369" d="M.572,0H22.831A.572.572,0,0,1,23.4.572V3.73a.572.572,0,0,1-.572.572H.572A.572.572,0,0,1,0,3.73V.572A.572.572,0,0,1,.572,0ZM22.259,1.144H1.144V3.158H22.259Z" transform="matrix(1, -0.003, 0.003, 1, 361.158, 299.627)" fill="#b4daef"/>
              <path id="Rectángulo_383370" data-name="Rectángulo 383370" d="M.572,0H18.518a.572.572,0,0,1,.572.572V3.73a.572.572,0,0,1-.572.572H.572A.572.572,0,0,1,0,3.73V.572A.572.572,0,0,1,.572,0ZM17.946,1.144H1.144V3.158h16.8Z" transform="translate(340.482 299.69) rotate(-0.175)" fill="#b4daef"/>
              <path id="Rectángulo_383371" data-name="Rectángulo 383371" d="M.572,0h9.851A.572.572,0,0,1,11,.572V3.731a.572.572,0,0,1-.572.572H.572A.572.572,0,0,1,0,3.731V.572A.572.572,0,0,1,.572,0ZM9.851,1.144H1.144V3.158H9.851Z" transform="translate(327.597 299.729) rotate(-0.175)" fill="#b4daef"/>
              <path id="Rectángulo_383372" data-name="Rectángulo 383372" d="M.572,0H3.185a.572.572,0,0,1,.572.572V3.731a.572.572,0,0,1-.572.572H.572A.572.572,0,0,1,0,3.731V.572A.572.572,0,0,1,.572,0Zm2.04,1.144H1.144V3.158H2.613Z" transform="matrix(1, -0.003, 0.003, 1, 259.111, 250.279)" fill="#b4daef"/>
              <path id="Rectángulo_383373" data-name="Rectángulo 383373" d="M.572,0h11.3a.572.572,0,0,1,.572.572V3.731a.572.572,0,0,1-.572.572H.572A.572.572,0,0,1,0,3.731V.572A.572.572,0,0,1,.572,0ZM11.3,1.144H1.144V3.158H11.3Z" transform="translate(264.133 250.264) rotate(-0.175)" fill="#b4daef"/>
              <path id="Rectángulo_383374" data-name="Rectángulo 383374" d="M.572,0h15.2a.572.572,0,0,1,.572.572V3.73a.572.572,0,0,1-.572.572H.572A.572.572,0,0,1,0,3.73V.572A.572.572,0,0,1,.572,0ZM15.2,1.144H1.144V3.158H15.2Z" transform="matrix(1, -0.003, 0.003, 1, 290.17, 250.185)" fill="#b4daef"/>
              <path id="Rectángulo_383375" data-name="Rectángulo 383375" d="M.572,0H10.96a.572.572,0,0,1,.572.572V3.73a.572.572,0,0,1-.572.572H.572A.572.572,0,0,1,0,3.73V.572A.572.572,0,0,1,.572,0Zm9.815,1.144H1.144V3.158h9.243Z" transform="translate(277.668 250.223) rotate(-0.174)" fill="#b4daef"/>
              <path id="Rectángulo_383376" data-name="Rectángulo 383376" d="M.572,0H3.185a.572.572,0,0,1,.572.572V3.731a.572.572,0,0,1-.572.572H.572A.572.572,0,0,1,0,3.731V.572A.572.572,0,0,1,.572,0Zm2.04,1.144H1.144V3.158H2.613Z" transform="matrix(1, -0.003, 0.003, 1, 248.911, 314.321)" fill="#b4daef"/>
              <path id="Rectángulo_383377" data-name="Rectángulo 383377" d="M.572,0h7.6a.572.572,0,0,1,.572.572V3.73a.572.572,0,0,1-.572.572H.572A.572.572,0,0,1,0,3.73V.572A.572.572,0,0,1,.572,0ZM7.6,1.144H1.144V3.158H7.6Z" transform="translate(253.933 314.306) rotate(-0.174)" fill="#b4daef"/>
              <path id="Rectángulo_383378" data-name="Rectángulo 383378" d="M.572,0H20.129A.572.572,0,0,1,20.7.572V3.73a.572.572,0,0,1-.572.572H.572A.572.572,0,0,1,0,3.73V.572A.572.572,0,0,1,.572,0ZM19.557,1.144H1.144V3.158H19.557Z" transform="translate(293.202 314.186) rotate(-0.174)" fill="#b4daef"/>
              <path id="Rectángulo_383379" data-name="Rectángulo 383379" d="M.572,0H5.644a.572.572,0,0,1,.572.572V3.73a.572.572,0,0,1-.572.572H.572A.572.572,0,0,1,0,3.73V.572A.572.572,0,0,1,.572,0Zm4.5,1.144H1.144V3.158H5.071Z" transform="matrix(1, -0.003, 0.003, 1, 285.6, 314.209)" fill="#b4daef"/>
              <path id="Rectángulo_383380" data-name="Rectángulo 383380" d="M.572,0H18.781a.572.572,0,0,1,.572.572V3.731a.572.572,0,0,1-.572.572H.572A.572.572,0,0,1,0,3.731V.572A.572.572,0,0,1,.572,0ZM18.208,1.144H1.144V3.158H18.208Z" transform="translate(264.23 314.275) rotate(-0.175)" fill="#b4daef"/>
              <path id="Rectángulo_383381" data-name="Rectángulo 383381" d="M.572,0H20.443a.572.572,0,0,1,.572.572V3.731a.572.572,0,0,1-.572.572H.572A.572.572,0,0,1,0,3.731V.572A.572.572,0,0,1,.572,0Zm19.3,1.144H1.144V3.158H19.871Z" transform="translate(337.063 314.053) rotate(-0.175)" fill="#b4daef"/>
              <path id="Rectángulo_383382" data-name="Rectángulo 383382" d="M.572,0H8.726A.572.572,0,0,1,9.3.572V3.731a.572.572,0,0,1-.572.572H.572A.572.572,0,0,1,0,3.731V.572A.572.572,0,0,1,.572,0ZM8.154,1.144H1.144V3.158h7.01Z" transform="translate(315.134 314.119) rotate(-0.176)" fill="#b4daef"/>
              <path id="Rectángulo_383383" data-name="Rectángulo 383383" d="M.572,0H8.726A.572.572,0,0,1,9.3.572V3.731a.572.572,0,0,1-.572.572H.572A.572.572,0,0,1,0,3.731V.572A.572.572,0,0,1,.572,0ZM8.154,1.144H1.144V3.158h7.01Z" transform="translate(326.186 314.086) rotate(-0.176)" fill="#b4daef"/>
              <path id="Rectángulo_383384" data-name="Rectángulo 383384" d="M.572,0H3.185a.572.572,0,0,1,.572.572V3.731a.572.572,0,0,1-.572.572H.572A.572.572,0,0,1,0,3.731V.572A.572.572,0,0,1,.572,0Zm2.04,1.144H1.144V3.158H2.613Z" transform="matrix(1, -0.003, 0.003, 1, 248.954, 328.584)" fill="#b4daef"/>
              <path id="Rectángulo_383385" data-name="Rectángulo 383385" d="M.572,0h15.2a.572.572,0,0,1,.572.572V3.73a.572.572,0,0,1-.572.572H.572A.572.572,0,0,1,0,3.73V.572A.572.572,0,0,1,.572,0ZM15.2,1.144H1.144V3.158H15.2Z" transform="translate(253.977 328.568) rotate(-0.174)" fill="#b4daef"/>
              <path id="Rectángulo_383386" data-name="Rectángulo 383386" d="M.572,0h15.2a.572.572,0,0,1,.572.572V3.73a.572.572,0,0,1-.572.572H.572A.572.572,0,0,1,0,3.73V.572A.572.572,0,0,1,.572,0ZM15.2,1.144H1.144V3.158H15.2Z" transform="matrix(1, -0.003, 0.003, 1, 303.77, 328.417)" fill="#b4daef"/>
              <path id="Rectángulo_383387" data-name="Rectángulo 383387" d="M.572,0h15.2a.572.572,0,0,1,.572.572V3.73a.572.572,0,0,1-.572.572H.572A.572.572,0,0,1,0,3.73V.572A.572.572,0,0,1,.572,0ZM15.2,1.144H1.144V3.158H15.2Z" transform="translate(285.643 328.472) rotate(-0.174)" fill="#b4daef"/>
              <path id="Rectángulo_383388" data-name="Rectángulo 383388" d="M.572,0h9.5a.572.572,0,0,1,.572.572V3.73a.572.572,0,0,1-.572.572H.572A.572.572,0,0,1,0,3.73V.572A.572.572,0,0,1,.572,0ZM9.5,1.144H1.144V3.158H9.5Z" transform="matrix(1, -0.003, 0.003, 1, 272.977, 328.511)" fill="#b4daef"/>
              <path id="Rectángulo_383389" data-name="Rectángulo 383389" d="M.572,0h9.5a.572.572,0,0,1,.572.572V3.731a.572.572,0,0,1-.572.572H.572A.572.572,0,0,1,0,3.731V.572A.572.572,0,0,1,.572,0ZM9.5,1.144H1.144V3.158H9.5Z" transform="matrix(1, -0.003, 0.003, 1, 402.03, 328.117)" fill="#b4daef"/>
              <path id="Rectángulo_383390" data-name="Rectángulo 383390" d="M.572,0H25.784a.572.572,0,0,1,.572.572V3.731a.572.572,0,0,1-.572.572H.572A.572.572,0,0,1,0,3.731V.572A.572.572,0,0,1,.572,0Zm24.64,1.144H1.144V3.158H25.212Z" transform="translate(373.487 328.204) rotate(-0.175)" fill="#b4daef"/>
              <path id="Rectángulo_383391" data-name="Rectángulo 383391" d="M.572,0H25.784a.572.572,0,0,1,.572.572V3.73a.572.572,0,0,1-.572.572H.572A.572.572,0,0,1,0,3.73V.572A.572.572,0,0,1,.572,0ZM25.212,1.144H1.144V3.158H25.212Z" transform="translate(343.43 328.296) rotate(-0.175)" fill="#b4daef"/>
              <path id="Rectángulo_383392" data-name="Rectángulo 383392" d="M.572,0h15.76A.572.572,0,0,1,16.9.572V3.731a.572.572,0,0,1-.572.572H.572A.572.572,0,0,1,0,3.731V.572A.572.572,0,0,1,.572,0ZM15.76,1.144H1.144V3.158H15.76Z" transform="translate(322.426 328.36) rotate(-0.175)" fill="#b4daef"/>
              <path id="Rectángulo_383393" data-name="Rectángulo 383393" d="M.572,0H3.185a.572.572,0,0,1,.572.572V3.731a.572.572,0,0,1-.572.572H.572A.572.572,0,0,1,0,3.731V.572A.572.572,0,0,1,.572,0Zm2.04,1.144H1.144V3.158H2.613Z" transform="matrix(1, -0.003, 0.003, 1, 248.933, 321.635)" fill="#b4daef"/>
              <path id="Rectángulo_383394" data-name="Rectángulo 383394" d="M.572,0h11.3a.572.572,0,0,1,.572.572V3.73a.572.572,0,0,1-.572.572H.572A.572.572,0,0,1,0,3.73V.572A.572.572,0,0,1,.572,0ZM11.3,1.144H1.144V3.158H11.3Z" transform="translate(253.956 321.619) rotate(-0.174)" fill="#b4daef"/>
              <path id="Rectángulo_383395" data-name="Rectángulo 383395" d="M.572,0h15.2a.572.572,0,0,1,.572.572V3.73a.572.572,0,0,1-.572.572H.572A.572.572,0,0,1,0,3.73V.572A.572.572,0,0,1,.572,0ZM15.2,1.144H1.144V3.158H15.2Z" transform="matrix(1, -0.003, 0.003, 1, 279.992, 321.54)" fill="#b4daef"/>
              <path id="Rectángulo_383396" data-name="Rectángulo 383396" d="M.572,0H10.96a.572.572,0,0,1,.572.572V3.73a.572.572,0,0,1-.572.572H.572A.572.572,0,0,1,0,3.73V.572A.572.572,0,0,1,.572,0Zm9.816,1.144H1.144V3.158h9.243Z" transform="matrix(1, -0.003, 0.003, 1, 267.49, 321.578)" fill="#b4daef"/>
              <path id="Rectángulo_383397" data-name="Rectángulo 383397" d="M.572,0H3.185a.572.572,0,0,1,.572.572V3.731a.572.572,0,0,1-.572.572H.572A.572.572,0,0,1,0,3.731V.572A.572.572,0,0,1,.572,0Zm2.04,1.144H1.144V3.158H2.613Z" transform="matrix(1, -0.003, 0.003, 1, 248.839, 290.817)" fill="#b4daef"/>
              <path id="Rectángulo_383398" data-name="Rectángulo 383398" d="M.572,0h15.2a.572.572,0,0,1,.572.572V3.73a.572.572,0,0,1-.572.572H.572A.572.572,0,0,1,0,3.73V.572A.572.572,0,0,1,.572,0ZM15.2,1.144H1.144V3.158H15.2Z" transform="translate(253.862 290.801) rotate(-0.174)" fill="#b4daef"/>
              <path id="Rectángulo_383399" data-name="Rectángulo 383399" d="M.572,0h15.2a.572.572,0,0,1,.572.572V3.73a.572.572,0,0,1-.572.572H.572A.572.572,0,0,1,0,3.73V.572A.572.572,0,0,1,.572,0ZM15.2,1.144H1.144V3.158H15.2Z" transform="matrix(1, -0.003, 0.003, 1, 285.528, 290.705)" fill="#b4daef"/>
              <path id="Rectángulo_383400" data-name="Rectángulo 383400" d="M.572,0h9.5a.572.572,0,0,1,.572.572V3.731a.572.572,0,0,1-.572.572H.572A.572.572,0,0,1,0,3.731V.572A.572.572,0,0,1,.572,0ZM9.5,1.144H1.144V3.158H9.5Z" transform="matrix(1, -0.003, 0.003, 1, 272.862, 290.744)" fill="#b4daef"/>
            </g>
          </g>
        </g>
      </g>
    </g>
    <g id="Grupo_1074424" data-name="Grupo 1074424" transform="translate(480.143 4102)">
      <path id="Trazado_827285" data-name="Trazado 827285" d="M92.909,33.562c13.657,3.991,24.312,18.328,29.582,41.845,2.653,11.832,3.142,23.939,9.458,31.372s7.306,18.165,6.8,24.217.819,15.134,4.808,20.088l-92.679-.077s5.169-12.927,4.179-23.933-4.143-18.438-1.8-29.715,5.5-16.349,1.02-25.861c-6.477-13.762,3.7-48.144,38.635-37.936" transform="translate(-1.643 7.812)" fill="#1c1318"/>
      <path id="Trazado_827286" data-name="Trazado 827286" d="M80.568,30.717a11.731,11.731,0,1,0,15.162-6.735,11.732,11.732,0,0,0-15.162,6.735" transform="translate(2.639 5.716)" fill="#1c1318"/>
      <path id="Trazado_827287" data-name="Trazado 827287" d="M105.617,42.117c0,2.3,1.936,15.417,12.562,20.563l.792,7.354,7.156,23.748-16.754,12.3L99.018,93.937l.009-10.72c-6.911.615-12.666-3.385-13.1-10.827s-.076-13.9-2.2-17.89c0,0,10.808-.168,21.892-12.384" transform="translate(-25.152 10.38)" fill="#f0956d"/>
      <path id="Trazado_827288" data-name="Trazado 827288" d="M103.117,64.521a3.809,3.809,0,1,1-3.808-3.808,3.809,3.809,0,0,1,3.808,3.808" transform="translate(-16.819 14.964)" fill="#e25e59"/>
      <path id="Trazado_827289" data-name="Trazado 827289" d="M94.694,76.221a16.854,16.854,0,0,0,12.3-6.434" transform="translate(-19.689 17.201)" fill="none" stroke="#1c1318" stroke-miterlimit="10" stroke-width="0.464"/>
      <path id="Trazado_827290" data-name="Trazado 827290" d="M96.123,62.2c-1.857,4.207-5.994,6.457-9.239,5.023s-4.37-6-2.512-10.213,5.994-6.456,9.239-5.023,4.369,6.006,2.512,10.212" transform="translate(4.266 12.708)" fill="#f0956d"/>
      <path id="Trazado_827291" data-name="Trazado 827291" d="M86.632,61.757s1.2-6.377,6.717-7.635" transform="translate(4.003 13.339)" fill="none" stroke="#1c1318" stroke-miterlimit="10" stroke-width="0.464"/>
      <line id="Línea_279" data-name="Línea 279" x1="0.838" y1="3.95" transform="translate(94.517 68.759)" fill="none" stroke="#1c1318" stroke-miterlimit="10" stroke-width="0.464"/>
      <path id="Trazado_827292" data-name="Trazado 827292" d="M89.716,63.961a2.569,2.569,0,1,1-2.567-2.572A2.571,2.571,0,0,1,89.716,63.961Z" transform="translate(10.196 15.131)" fill="none" stroke="#fff" stroke-miterlimit="10" stroke-width="0.464"/>
      <path id="Trazado_827293" data-name="Trazado 827293" d="M113.16,60.095l.858-1.24a1.912,1.912,0,0,0-1.688-.6,1.949,1.949,0,1,0,2.23,1.619,1.846,1.846,0,0,0-.08-.214Z" transform="translate(-47.216 14.352)" fill="#121f32"/>
      <path id="Trazado_827294" data-name="Trazado 827294" d="M103.509,58.562l.858-1.24a1.916,1.916,0,0,0-1.688-.6,1.949,1.949,0,1,0,2.23,1.62,1.688,1.688,0,0,0-.08-.214Z" transform="translate(-25.535 13.974)" fill="#121f32"/>
      <path id="Trazado_827295" data-name="Trazado 827295" d="M104.927,59.416s.042,2.082,0,3.809,1.992,2.66,4.207,1.2" transform="translate(-34.579 14.645)" fill="none" stroke="#1c1318" stroke-miterlimit="10" stroke-width="0.464"/>
      <path id="Trazado_827296" data-name="Trazado 827296" d="M99.877,66.8a9.17,9.17,0,0,0,9.836-3.358" transform="translate(-28.871 15.636)" fill="none" stroke="#1c1318" stroke-miterlimit="10" stroke-width="0.464"/>
      <line id="Línea_280" data-name="Línea 280" x2="2.245" y2="1.375" transform="translate(79.394 78.232)" fill="none" stroke="#1c1318" stroke-miterlimit="10" stroke-width="0.464"/>
      <path id="Trazado_827297" data-name="Trazado 827297" d="M99.229,53.828s4.829-1.591,8.194-.391" transform="translate(-25.774 13.061)" fill="none" stroke="#7b2a27" stroke-linecap="round" stroke-linejoin="round" stroke-width="0.971"/>
      <path id="Trazado_827298" data-name="Trazado 827298" d="M109.535,55.748a8.644,8.644,0,0,1,6.468-.7" transform="translate(-47.2 13.478)" fill="none" stroke="#7b2a27" stroke-linecap="round" stroke-linejoin="round" stroke-width="0.971"/>
      <path id="Trazado_827299" data-name="Trazado 827299" d="M160.171,384.97l-.025,29.522a18.144,18.144,0,0,0,1.063,6.168,80.809,80.809,0,0,1,4.754,28.809l-68.037-.057s3.98-9.01,22-14.538a24.639,24.639,0,0,0,8.692-4.851l6.638-5.649a13.547,13.547,0,0,0,4.552-12.708l-4.8-26.716Z" transform="translate(-82.723 94.885)" fill="#f0956d"/>
      <path id="Trazado_827300" data-name="Trazado 827300" d="M162.763,417.479l-16.5,7.859L134.1,417.364l-5.485,4.668a24.6,24.6,0,0,1-8.691,4.85c-18.021,5.528-22,14.539-22,14.539l68.037.057a79.165,79.165,0,0,0-3.2-24" transform="translate(-82.721 102.875)" fill="#1c1318"/>
      <path id="Trazado_827301" data-name="Trazado 827301" d="M15.083,385l5.9,33.123a15.493,15.493,0,0,1,.074,5L17.155,449.5l52.091.044s-.7-7.8-3.181-9.925-9.561-7.45-9.561-7.45L45.873,421.124a14.612,14.612,0,0,1-4.055-9.185l-1.753-26.914Z" transform="translate(117.292 94.898)" fill="#f0956d"/>
      <path id="Trazado_827302" data-name="Trazado 827302" d="M44.2,414.316a25.471,25.471,0,0,0-18.029,9.052l-7.692-4.037-3.4,22.942,52.091.045s-.7-7.8-3.181-9.926-9.561-7.449-9.561-7.449Z" transform="translate(119.363 102.124)" fill="#1c1318"/>
      <path id="Trazado_827303" data-name="Trazado 827303" d="M71.588,107.621l22.345-23.9,27.109-.155,15.129,24.11-12.865,79.916L72.85,187.55Z" transform="translate(-20.066 20.597)" fill="#306ff3"/>
      <path id="Trazado_827304" data-name="Trazado 827304" d="M82.254,107.492,97.771,94.571l18.408,18.088" transform="translate(-13.371 23.31)" fill="none" stroke="#fff" stroke-miterlimit="10" stroke-width="0.464"/>
      <line id="Línea_281" data-name="Línea 281" x1="9.946" y2="76.533" transform="translate(74.45 123.994)" fill="none" stroke="#fff" stroke-miterlimit="10" stroke-width="0.464"/>
      <path id="Trazado_827305" data-name="Trazado 827305" d="M129.66,207.615l41.795,234.8-47.839-.04L74.493,231.842,89.063,445l-48.37-.04L27.266,197.518l22.033-30.2,69.408,1.831Z" transform="translate(-0.103 41.24)" fill="#ea513b"/>
      <path id="Trazado_827306" data-name="Trazado 827306" d="M161.089,207.615l-10.952-38.469-69.41-1.831L58.7,197.519l.334,6.158c15.058.312,64.66,2.58,104.677,18.64Z" transform="translate(-31.532 41.241)" fill="#d83b2b"/>
      <path id="Trazado_827307" data-name="Trazado 827307" d="M110.16,230.89l-5.106-20.244,3.606-39.466" transform="translate(-35.771 42.193)" fill="none" stroke="#1c1318" stroke-miterlimit="10" stroke-width="0.464"/>
      <line id="Línea_282" data-name="Línea 282" x2="45.539" y2="0.039" transform="translate(53.805 256.853)" fill="none" stroke="#1c1318" stroke-miterlimit="10" stroke-width="0.464"/>
      <line id="Línea_283" data-name="Línea 283" x2="2.606" y2="35.439" transform="translate(67.045 213.366)" fill="none" stroke="#1c1318" stroke-miterlimit="10" stroke-width="0.464"/>
      <line id="Línea_284" data-name="Línea 284" x2="12.54" y2="257.631" transform="translate(42.932 228.584)" fill="none" stroke="#1c1318" stroke-miterlimit="10" stroke-width="0.464"/>
      <line id="Línea_285" data-name="Línea 285" x2="46.337" y2="255.002" transform="translate(103.221 228.634)" fill="none" stroke="#1c1318" stroke-miterlimit="10" stroke-width="0.464"/>
      <g id="Grupo_1074406" data-name="Grupo 1074406" transform="translate(47.905 205.022)" opacity="0.2">
        <g id="Grupo_1074405" data-name="Grupo 1074405">
          <g id="Grupo_1074404" data-name="Grupo 1074404" clip-path="url(#clip-path-3)">
            <rect id="Rectángulo_383300" data-name="Rectángulo 383300" width="66.513" height="10.606" transform="translate(0.004 0.028)" fill="#4f454d"/>
          </g>
        </g>
      </g>
      <path id="Trazado_827308" data-name="Trazado 827308" d="M71.349,83.566,55.057,183.461a27.508,27.508,0,0,0,.983,12.914l6.448,19.885a5.514,5.514,0,0,0,8,3.076l31.859-18.362-13.8-21.007L106.827,115.5A18.467,18.467,0,0,0,95.875,93.3Z" transform="translate(29.626 20.597)" fill="#ea513b"/>
      <line id="Línea_286" data-name="Línea 286" x1="16.844" y2="14.136" transform="translate(94.326 201.532)" fill="none" stroke="#1c1318" stroke-miterlimit="10" stroke-width="0.464"/>
      <path id="Trazado_827309" data-name="Trazado 827309" d="M93.656,86.522l1.533,2.355a23.672,23.672,0,0,1,.858,24.426l-2.962,5.327,3.306,9.786a16.823,16.823,0,0,1-.936,13L77.489,176.82" transform="translate(9.721 21.326)" fill="none" stroke="#1c1318" stroke-miterlimit="10" stroke-width="0.464"/>
      <g id="Grupo_1074409" data-name="Grupo 1074409" transform="translate(96.837 200.564)" opacity="0.2">
        <g id="Grupo_1074408" data-name="Grupo 1074408">
          <g id="Grupo_1074407" data-name="Grupo 1074407" clip-path="url(#clip-path-4)">
            <path id="Trazado_827310" data-name="Trazado 827310" d="M80.19,160.9,58.858,200.961a5.439,5.439,0,0,0,3.276-.688l31.859-18.362Z" transform="translate(-58.858 -160.904)" fill="#4f454d"/>
          </g>
        </g>
      </g>
      <g id="Grupo_1074412" data-name="Grupo 1074412" transform="translate(118.654 151.042)" opacity="0.2">
        <g id="Grupo_1074411" data-name="Grupo 1074411">
          <g id="Grupo_1074410" data-name="Grupo 1074410" clip-path="url(#clip-path-5)">
            <path id="Trazado_827311" data-name="Trazado 827311" d="M61.239,121.175l2.235,39.935L71.589,132.5Z" transform="translate(-61.239 -121.175)" fill="#4f454d"/>
          </g>
        </g>
      </g>
      <path id="Trazado_827312" data-name="Trazado 827312" d="M64.869,193.216l21.756,4.851L73.293,183.429Z" transform="translate(37.854 45.212)" fill="#f0956d"/>
      <path id="Trazado_827313" data-name="Trazado 827313" d="M179.339,83.69,166.32,211.778a7.091,7.091,0,0,1-7.061,6.375l-32.123-.026s12.783-30.862,23.162-47.842l-.258-9.28-15.1,15.9a17.081,17.081,0,0,1-26.732-21.035l32.614-50.445a32.557,32.557,0,0,1,15.392-12.611Z" transform="translate(-105.473 20.627)" fill="#ea513b"/>
      <path id="Trazado_827314" data-name="Trazado 827314" d="M120.125,85.288c-3.726,5.578-13.7,13.942-6.006,31.355-7.986,14.079-9.6,33.071-3.769,56.336" transform="translate(-47.987 21.021)" fill="none" stroke="#1c1318" stroke-miterlimit="10" stroke-width="0.464"/>
      <line id="Línea_287" data-name="Línea 287" y1="26.131" x2="2.928" transform="translate(28.26 162.22)" fill="none" stroke="#1c1318" stroke-miterlimit="10" stroke-width="0.464"/>
      <path id="Trazado_827315" data-name="Trazado 827315" d="M173.725,163.049l-50.583-.042L98.324,91.62l50.584.042Z" transform="translate(-90.947 22.582)" fill="#f0f3f9"/>
      <path id="Trazado_827316" data-name="Trazado 827316" d="M27.79,127.142,50.966,168.09l-27.672,38.6L41.7,226.906l38.56-35.782a25.589,25.589,0,0,0,5.306-30.545L59.806,110.93A38.718,38.718,0,0,0,39.723,92.775l-9.384-3.726Z" transform="translate(87.854 21.949)" fill="#ea513b"/>
      <line id="Línea_288" data-name="Línea 288" y1="8.323" x2="6.297" transform="translate(138.819 181.716)" fill="none" stroke="#1c1318" stroke-miterlimit="10" stroke-width="0.464"/>
      <path id="Trazado_827317" data-name="Trazado 827317" d="M139.892,125.163c.107-.507,3.525-4.648,6.65-6.838a44.539,44.539,0,0,1,5.3-3.1,2.509,2.509,0,0,1,2.949.521l2.537,2.672a2.52,2.52,0,0,1,.339,3.019l-5.882,9.917s8.708-4.643,9.306-4.244c.354.237-2.97,3.96-5.73,6.947a7.47,7.47,0,0,1-8.985,1.573c-3.64-1.945-7.569-5.3-6.479-10.464" transform="translate(-129.918 28.334)" fill="#f0956d"/>
      <line id="Línea_289" data-name="Línea 289" y1="7.924" x2="10.189" transform="translate(15.157 144.582)" fill="none" stroke="#1c1318" stroke-miterlimit="10" stroke-width="0.464"/>
      <line id="Línea_290" data-name="Línea 290" y1="10.244" x2="8.433" transform="translate(18.808 146.783)" fill="none" stroke="#1c1318" stroke-miterlimit="10" stroke-width="0.464"/>
      <path id="Trazado_827318" data-name="Trazado 827318" d="M81.737,30.708c0,16.96-18.3,30.707-40.869,30.707S0,47.668,0,30.708,18.3,0,40.869,0,81.737,13.749,81.737,30.708" transform="translate(123.601 -0.001)" fill="#306ff3"/>
      <path id="Trazado_827319" data-name="Trazado 827319" d="M23.856,42.963,22.285,68.427,49.293,42.963Z" transform="translate(128.267 10.589)" fill="#306ff3"/>
      <line id="Línea_291" data-name="Línea 291" x2="30.656" transform="translate(149.141 16.092)" fill="none" stroke="#fff" stroke-miterlimit="10" stroke-width="0.971"/>
      <line id="Línea_292" data-name="Línea 292" x2="30.656" transform="translate(149.141 24.262)" fill="none" stroke="#fff" stroke-miterlimit="10" stroke-width="0.971"/>
      <line id="Línea_293" data-name="Línea 293" x2="30.656" transform="translate(149.141 32.433)" fill="none" stroke="#fff" stroke-miterlimit="10" stroke-width="0.971"/>
      <line id="Línea_294" data-name="Línea 294" x2="30.656" transform="translate(149.141 40.603)" fill="none" stroke="#fff" stroke-miterlimit="10" stroke-width="0.971"/>
    </g>
  </g>
</svg>
