<svg xmlns="http://www.w3.org/2000/svg" width="86" height="86" viewBox="0 0 86 86">
  <g id="Grupo_1074568" data-name="Grupo 1074568" transform="translate(-225 -5880)">
    <g id="Grupo_1073132" data-name="Grupo 1073132" transform="translate(-108 4952)">
      <circle id="Elipse_9665" data-name="Elipse 9665" cx="43" cy="43" r="43" transform="translate(333 928)" fill="#ffce00"/>
    </g>
    <g id="FILLED_OUTLINE" transform="translate(239 5892)">
      <rect id="Rectángulo_382522" data-name="Rectángulo 382522" width="44.148" height="56.642" rx="16" transform="translate(5.064 0.745)" fill="#7950ea"/>
      <path id="Trazado_820874" data-name="Trazado 820874" d="M112,56h36.279v48.373H112Z" transform="translate(-102.93 -50.961)" fill="#8b74f7"/>
      <g id="Grupo_1073269" data-name="Grupo 1073269" transform="translate(26.202 8.062)">
        <path id="Trazado_820875" data-name="Trazado 820875" d="M248,80h15.116v2.016H248Z" transform="translate(-248 -80)" fill="#f9cb58"/>
        <path id="Trazado_820876" data-name="Trazado 820876" d="M248,216h10.078v2.016H248Z" transform="translate(-248 -198.868)" fill="#f9cb58"/>
        <path id="Trazado_820877" data-name="Trazado 820877" d="M248,320h9.07v2.016H248Z" transform="translate(-248 -289.767)" fill="#f9cb58"/>
        <path id="Trazado_820878" data-name="Trazado 820878" d="M248,112h12.093v2.016H248Z" transform="translate(-248 -107.969)" fill="#f9cb58"/>
        <path id="Trazado_820879" data-name="Trazado 820879" d="M248,184h15.116v2.016H248Z" transform="translate(-248 -170.899)" fill="#f9cb58"/>
      </g>
      <rect id="Rectángulo_382523" data-name="Rectángulo 382523" width="8.33" height="8.33" rx="4.165" transform="translate(14.227 9.075)" fill="#eab849"/>
      <path id="Trazado_820880" data-name="Trazado 820880" d="M0,0H7.125V2.015H0Z" transform="translate(16.416 13.398) rotate(-45)" fill="#f4f4f4"/>
      <rect id="Rectángulo_382524" data-name="Rectángulo 382524" width="8.33" height="7.497" rx="3.748" transform="translate(14.227 22.402)" fill="#eab849"/>
      <path id="Trazado_820881" data-name="Trazado 820881" d="M0,0H7.125V2.015H0Z" transform="translate(16.414 26.498) rotate(-45)" fill="#f4f4f4"/>
      <rect id="Rectángulo_382525" data-name="Rectángulo 382525" width="8.33" height="8.33" rx="4.165" transform="translate(14.227 34.897)" fill="#eab849"/>
      <path id="Trazado_820882" data-name="Trazado 820882" d="M274.706,191.656a2.138,2.138,0,0,0-3.023,0L248,215.338v3.023h3.023l23.682-23.682A2.138,2.138,0,0,0,274.706,191.656Z" transform="translate(-221.798 -168.981)" fill="#eab849"/>
      <path id="Trazado_820883" data-name="Trazado 820883" d="M416,194.175l3.023,3.023,2.519-2.519a2.138,2.138,0,0,0-3.023-3.023Z" transform="translate(-368.635 -168.981)" fill="#d3a039"/>
      <path id="Trazado_820884" data-name="Trazado 820884" d="M277.792,267.085l-.357-.178a2.016,2.016,0,0,1-.97-2.551l2.835-7.089A2.015,2.015,0,0,1,281.172,256h5.394a6.046,6.046,0,0,1,5.1,2.8l5.272,8.285,7.054,7.054v12.093l-12.511-12.511a2.016,2.016,0,0,0-1.425-.59h-2.188a6.047,6.047,0,0,1-3.628-1.209l-4.392-3.294a2.231,2.231,0,0,1,2.445-3.721l4.381,2.5a1.8,1.8,0,0,0,2.391-2.561l-1.2-1.8-3.023-3.023Z" transform="translate(-246.551 -225.767)" fill="#f9cea0"/>
      <path id="Trazado_820885" data-name="Trazado 820885" d="M0,0H8.55V4.275H0Z" transform="translate(37.279 35.273) rotate(-45)" fill="#eab849"/>
      <path id="Trazado_820886" data-name="Trazado 820886" d="M63.968,208.449l-.051-.038a2.491,2.491,0,0,0-3.338.318l-6.794,7.48a1.008,1.008,0,0,1-1.754-.678V200l-2.419,1.814A4.031,4.031,0,0,0,48,205.039v32.248h9.07V227.037a6.881,6.881,0,0,1,2.016-4.866A6.881,6.881,0,0,0,61.1,217.3v-.451a2.014,2.014,0,0,1,.467-1.29l2.841-3.407a2.571,2.571,0,0,0-.441-3.708Z" transform="translate(-46.992 -176.821)" fill="#f9cea0"/>
      <path id="Trazado_820887" data-name="Trazado 820887" d="M83.507,62.357H81.318a5.071,5.071,0,0,1-3.023-1.008L73.9,58.055a1.223,1.223,0,0,1,1.34-2.04l4.382,2.5a2.808,2.808,0,0,0,3.729-4l-.739-1.108,2.5-2.5,4.48,7.04,7.132,7.133,1.425-1.425-6.976-6.976-.791-1.243v-9.8l3.232-3.232a3.146,3.146,0,0,0-3.232-5.2V19.023A3.027,3.027,0,0,0,87.365,16H47.054a3.027,3.027,0,0,0-3.023,3.023V38.675l-2.016,1.512A5.063,5.063,0,0,0,40,44.217V76.466h2.016V44.217A3.038,3.038,0,0,1,43.225,41.8l.806-.6V54.71a2.016,2.016,0,0,0,3.507,1.355l2.523-2.778h.016V53.27l4.255-4.685a1.477,1.477,0,0,1,1.987-.19l.051.039a1.564,1.564,0,0,1,.623,1.079,1.543,1.543,0,0,1-.351,1.177L53.8,54.1a3.028,3.028,0,0,0-.7,1.935v.451a5.835,5.835,0,0,1-1.72,4.153,7.837,7.837,0,0,0-2.311,5.579V76.466h2.016V74.45H87.365a3.027,3.027,0,0,0,3.023-3.023v-.59l6.342,6.342,1.425-1.425L85.645,63.243a3,3,0,0,0-2.138-.886ZM72.693,59.668l.468.351-4.354,4.354h-1.6v-1.6l4.442-4.442a3.236,3.236,0,0,0,1.042,1.335Zm-1.844-4.7,2.835-7.089a1,1,0,0,1,.936-.633h5.272l-8.814,8.814a1.014,1.014,0,0,1-.23-1.091Zm5.04-.869L87.365,42.619l1.6,1.6-11.02,11.02-1.7-.972a3.222,3.222,0,0,0-.353-.171Zm5.787,1.548a.792.792,0,0,1-1.052,1.127l-.867-.5,1.4-1.4Zm6.7-3.368-1.8-2.821,1.8-1.8ZM91.4,39.056a1.13,1.13,0,0,1,.8,1.929l-1.807,1.807-1.6-1.6L90.6,39.387A1.122,1.122,0,0,1,91.4,39.056ZM46.047,54.709V19.023a1.009,1.009,0,0,1,1.008-1.008h40.31a1.009,1.009,0,0,1,1.008,1.008V38.761l-2.016,2.016V20.031H48.062V52.49Zm9.07,1.324a1.008,1.008,0,0,1,.233-.645l2.592-3.108h2.213a1.009,1.009,0,0,1,1.008,1.008v4.031a1.009,1.009,0,0,1-1.008,1.008H56.124a1.009,1.009,0,0,1-1.008-1.008Zm-2.311,6.029a7.891,7.891,0,0,0,1.586-2.268,3.005,3.005,0,0,0,1.733.548h4.031a3.027,3.027,0,0,0,3.023-3.023V53.287a3.027,3.027,0,0,0-3.023-3.023h-1.18A3.6,3.6,0,0,0,59,49.279a3.552,3.552,0,0,0-.947-2.039h2.106a3.027,3.027,0,0,0,3.023-3.023V42.2H61.163v2.016a1.009,1.009,0,0,1-1.008,1.008H56.124a1.009,1.009,0,0,1-1.008-1.008V40.186a1.009,1.009,0,0,1,1.008-1.008H58.14V37.163H56.124A3.027,3.027,0,0,0,53.1,40.186v4.031a3.014,3.014,0,0,0,.913,2.162,3.512,3.512,0,0,0-1.173.85l-2.763,3.042V22.047H84.342V42.792L81.7,45.43a7.028,7.028,0,0,0-1.689-.205H74.621a3.009,3.009,0,0,0-2.807,1.9l-2.835,7.089c-.011.027-.018.054-.028.081H66.2V56.31h2.731a3.051,3.051,0,0,0,.724,1.166L65.194,61.94v4.449h4.448L74.79,61.24l2.3,1.721a7.1,7.1,0,0,0,4.233,1.411h2.188a1,1,0,0,1,.713.3l.122.122V68.4H51.085V66.215a5.835,5.835,0,0,1,1.72-4.153Zm35.567,9.365a1.009,1.009,0,0,1-1.008,1.008H51.085V70.419H86.357V66.806l2.016,2.016Z" transform="translate(-40 -16)"/>
      <path id="Trazado_820888" data-name="Trazado 820888" d="M154.078,85.039h-2.016v2.016a1.009,1.009,0,0,1-1.008,1.008h-4.031a1.009,1.009,0,0,1-1.008-1.008V83.023a1.009,1.009,0,0,1,1.008-1.008h2.016V80h-2.016A3.027,3.027,0,0,0,144,83.023v4.031a3.027,3.027,0,0,0,3.023,3.023h4.031a3.027,3.027,0,0,0,3.023-3.023Z" transform="translate(-130.899 -71.938)"/>
      <path id="Trazado_820889" data-name="Trazado 820889" d="M0,0H7.125V2.015H0Z" transform="translate(16.416 13.397) rotate(-45)"/>
      <path id="Trazado_820890" data-name="Trazado 820890" d="M248,80h15.116v2.016H248Z" transform="translate(-221.798 -71.938)"/>
      <path id="Trazado_820891" data-name="Trazado 820891" d="M0,0H7.125V2.015H0Z" transform="translate(16.414 26.498) rotate(-45)"/>
      <path id="Trazado_820892" data-name="Trazado 820892" d="M248,216h10.078v2.016H248Z" transform="translate(-221.798 -190.806)"/>
      <path id="Trazado_820893" data-name="Trazado 820893" d="M248,112h12.093v2.016H248Z" transform="translate(-221.798 -99.907)"/>
      <path id="Trazado_820894" data-name="Trazado 820894" d="M248,184h15.116v2.016H248Z" transform="translate(-221.798 -162.837)"/>
    </g>
  </g>
</svg>
