<svg xmlns="http://www.w3.org/2000/svg" width="86" height="86" viewBox="0 0 86 86">
  <g id="Grupo_1074569" data-name="Grupo 1074569" transform="translate(-856 -5880)">
    <g id="Grupo_1073136" data-name="Grupo 1073136" transform="translate(856 5880)">
      <circle id="Elipse_9665" data-name="Elipse 9665" cx="43" cy="43" r="43" fill="#ffce00"/>
    </g>
    <g id="conexion" transform="translate(872 5896)">
      <g id="Grupo_1073267" data-name="Grupo 1073267" transform="translate(0.871 0.871)">
        <g id="Grupo_1073239" data-name="Grupo 1073239" transform="translate(15.677 47.381)">
          <path id="Trazado_820854" data-name="Trazado 820854" d="M25.226,56.4C22.1,56.853,20,57.7,20,58.665c0,1.446,4.677,2.613,10.452,2.613S40.9,60.11,40.9,58.665c0-.967-2.1-1.812-5.226-2.265v.523a.874.874,0,0,1-.871.871H26.1a.874.874,0,0,1-.871-.871Z" transform="translate(-20 -56.4)" fill="#969faa"/>
        </g>
        <g id="Grupo_1073240" data-name="Grupo 1073240" transform="translate(20.903 43.548)">
          <path id="Trazado_820855" data-name="Trazado 820855" d="M26,55.832v.523a.874.874,0,0,0,.871.871h8.71a.874.874,0,0,0,.871-.871V52H26Z" transform="translate(-26 -52)" fill="#aab2bd"/>
        </g>
        <g id="Grupo_1073241" data-name="Grupo 1073241" transform="translate(6.968 38.323)">
          <path id="Trazado_820856" data-name="Trazado 820856" d="M48.323,46H10v3.484a1.747,1.747,0,0,0,1.742,1.742H46.581a1.747,1.747,0,0,0,1.742-1.742Z" transform="translate(-10 -46)" fill="#ccd1d9"/>
        </g>
        <g id="Grupo_1073242" data-name="Grupo 1073242" transform="translate(6.968 17.419)">
          <path id="Trazado_820857" data-name="Trazado 820857" d="M10,42.9H48.323V23.742A1.741,1.741,0,0,0,46.581,22H11.742A1.741,1.741,0,0,0,10,23.742Z" transform="translate(-10 -22)" fill="#69d6f4"/>
        </g>
        <g id="Grupo_1073243" data-name="Grupo 1073243" transform="translate(38.323 20.903)">
          <circle id="Elipse_9736" data-name="Elipse 9736" cx="7" cy="7" r="7" transform="translate(-0.194 0.226)" fill="#e6e9ed"/>
        </g>
        <g id="Grupo_1073244" data-name="Grupo 1073244" transform="translate(38.323)">
          <circle id="Elipse_9737" data-name="Elipse 9737" cx="7" cy="7" r="7" transform="translate(-0.194 0.129)" fill="#e6e9ed"/>
        </g>
        <g id="Grupo_1073245" data-name="Grupo 1073245" transform="translate(0 20.903)">
          <circle id="Elipse_9738" data-name="Elipse 9738" cx="7" cy="7" r="7" transform="translate(0.129 0.226)" fill="#e6e9ed"/>
        </g>
        <g id="Grupo_1073246" data-name="Grupo 1073246" transform="translate(14.806 6.968)">
          <circle id="Elipse_9739" data-name="Elipse 9739" cx="11" cy="11" r="11" transform="translate(0.323 0.161)" fill="#e6e9ed"/>
        </g>
        <g id="Grupo_1073247" data-name="Grupo 1073247">
          <circle id="Elipse_9740" data-name="Elipse 9740" cx="7" cy="7" r="7" transform="translate(0.129 0.129)" fill="#e6e9ed"/>
        </g>
        <g id="Grupo_1073248" data-name="Grupo 1073248" transform="translate(2.656 29.613)">
          <path id="Trazado_820858" data-name="Trazado 820858" d="M49.05,39.728v.009a6.985,6.985,0,0,0,8.623,0v-.009a4.356,4.356,0,0,0-8.623,0Z" transform="translate(-49.05 -36)" fill="#fcd770"/>
        </g>
        <g id="Grupo_1073249" data-name="Grupo 1073249" transform="translate(2.656 8.71)">
          <path id="Trazado_820859" data-name="Trazado 820859" d="M49.05,15.728v.009a6.985,6.985,0,0,0,8.623,0v-.009a4.356,4.356,0,0,0-8.623,0Z" transform="translate(-49.05 -12)" fill="#b4dd7f"/>
        </g>
        <g id="Grupo_1073250" data-name="Grupo 1073250" transform="translate(40.979 8.71)">
          <path id="Trazado_820860" data-name="Trazado 820860" d="M5.05,15.728v.009a6.985,6.985,0,0,0,8.623,0v-.009a4.356,4.356,0,0,0-8.623,0Z" transform="translate(-5.05 -12)" fill="#4fc1e9"/>
        </g>
        <g id="Grupo_1073251" data-name="Grupo 1073251" transform="translate(40.979 29.613)">
          <path id="Trazado_820861" data-name="Trazado 820861" d="M5.05,39.728v.009a6.985,6.985,0,0,0,8.623,0v-.009a4.356,4.356,0,0,0-8.623,0Z" transform="translate(-5.05 -36)" fill="#ff826e"/>
        </g>
        <g id="Grupo_1073252" data-name="Grupo 1073252" transform="translate(19.161 6.968)">
          <path id="Trazado_820862" data-name="Trazado 820862" d="M28.015,16.968A6.908,6.908,0,0,0,32.3,15.487a10.554,10.554,0,0,0,2.744,1.385l.279.1h.871a1.752,1.752,0,0,1,1.045.348l.47-1.4a4.569,4.569,0,0,0,.226-1.42A4.477,4.477,0,0,0,37,11.751a11.28,11.28,0,0,0-12.072,0A4.477,4.477,0,0,0,24,14.494a4.57,4.57,0,0,0,.226,1.42l.47,1.4a1.752,1.752,0,0,1,1.045-.348h2.273Z" transform="translate(-24 -10)" fill="#656d78"/>
        </g>
        <g id="Grupo_1073253" data-name="Grupo 1073253" transform="translate(24.422 26.129)">
          <path id="Trazado_820863" data-name="Trazado 820863" d="M32.618,32H30.876l-.836,3.353a11.218,11.218,0,0,0,3.414,0Z" transform="translate(-30.04 -32)" fill="#ff826e"/>
        </g>
        <g id="Grupo_1073254" data-name="Grupo 1073254" transform="translate(24.387 23.516)">
          <path id="Trazado_820864" data-name="Trazado 820864" d="M30.871,31.613h1.742l.871-1.742L31.742,29,30,29.871Z" transform="translate(-30 -29)" fill="#fc6e51"/>
        </g>
        <g id="Grupo_1073255" data-name="Grupo 1073255" transform="translate(18.09 22.305)">
          <path id="Trazado_820865" data-name="Trazado 820865" d="M33,31.564a11.246,11.246,0,0,0,6.332,3.223l.836-3.353L39.3,29.692l-1.742.871L36.31,27.61A8.687,8.687,0,0,0,33,31.564Z" transform="translate(-33 -27.61)" fill="#fcd770"/>
        </g>
        <g id="Grupo_1073256" data-name="Grupo 1073256" transform="translate(27 22.175)">
          <path id="Trazado_820866" data-name="Trazado 820866" d="M23.641,29.672l-.871,1.742.836,3.353a11.246,11.246,0,0,0,6.332-3.223,8.713,8.713,0,0,0-3.153-3.858,2.381,2.381,0,0,0-.375-.226l-1.028,3.083Z" transform="translate(-22.77 -27.46)" fill="#fcd770"/>
        </g>
        <g id="Grupo_1073257" data-name="Grupo 1073257" transform="translate(21.4 21.217)">
          <path id="Trazado_820867" data-name="Trazado 820867" d="M32,27.449,33.245,30.4l1.742-.871,1.742-.871-2.3-2.3A8.174,8.174,0,0,0,32,27.449Z" transform="translate(-32 -26.36)" fill="#ffc729"/>
        </g>
        <g id="Grupo_1073258" data-name="Grupo 1073258" transform="translate(26.129 21.217)">
          <path id="Trazado_820868" data-name="Trazado 820868" d="M26.82,28.659l1.742.871L30.3,30.4l1.028-3.083v-.009l-2.212-.949Z" transform="translate(-26.82 -26.36)" fill="#ffc729"/>
        </g>
        <g id="Grupo_1073259" data-name="Grupo 1073259" transform="translate(4.355 24.387)">
          <circle id="Elipse_9741" data-name="Elipse 9741" cx="2.5" cy="2.5" r="2.5" transform="translate(-0.226 -0.258)" fill="#f0d0b4"/>
        </g>
        <g id="Grupo_1073260" data-name="Grupo 1073260" transform="translate(4.355 3.484)">
          <ellipse id="Elipse_9742" data-name="Elipse 9742" cx="2.5" cy="3" rx="2.5" ry="3" transform="translate(-0.226 -0.355)" fill="#f0d0b4"/>
        </g>
        <g id="Grupo_1073261" data-name="Grupo 1073261" transform="translate(19.161 13.935)">
          <path id="Trazado_820869" data-name="Trazado 820869" d="M37.2,18.348a1.766,1.766,0,0,0-.7,1.394,1.755,1.755,0,0,0,1.742,1.742h1.306L39.113,18h-.871A1.752,1.752,0,0,0,37.2,18.348Z" transform="translate(-36.5 -18)" fill="#f0d0b4"/>
        </g>
        <g id="Grupo_1073262" data-name="Grupo 1073262" transform="translate(23.83 20.903)">
          <path id="Trazado_820870" data-name="Trazado 820870" d="M29.36,26.314l2.3,2.3,2.3-2.3a8.588,8.588,0,0,0-4.6,0Z" transform="translate(-29.36 -26)" fill="#f0d0b4"/>
        </g>
        <g id="Grupo_1073263" data-name="Grupo 1073263" transform="translate(21.774 12.455)">
          <path id="Trazado_820871" data-name="Trazado 820871" d="M27,17.781l.435,3.484.148,1.193a2.622,2.622,0,0,0,2.6,2.291h2.352a2.622,2.622,0,0,0,2.6-2.291l.148-1.193.435-3.484-.279-.1A10.554,10.554,0,0,1,32.687,16.3,6.908,6.908,0,0,1,28.4,17.781Z" transform="translate(-27 -16.3)" fill="#f0d0b4"/>
        </g>
        <g id="Grupo_1073264" data-name="Grupo 1073264" transform="translate(30.048 13.935)">
          <path id="Trazado_820872" data-name="Trazado 820872" d="M24.435,18,24,21.484h1.306a1.755,1.755,0,0,0,1.742-1.742A1.742,1.742,0,0,0,25.306,18Z" transform="translate(-24 -18)" fill="#f0d0b4"/>
        </g>
        <g id="Grupo_1073265" data-name="Grupo 1073265" transform="translate(42.677 24.387)">
          <circle id="Elipse_9743" data-name="Elipse 9743" cx="2.5" cy="2.5" r="2.5" transform="translate(0.452 -0.258)" fill="#f0d0b4"/>
        </g>
        <g id="Grupo_1073266" data-name="Grupo 1073266" transform="translate(42.677 3.484)">
          <ellipse id="Elipse_9744" data-name="Elipse 9744" cx="2.5" cy="3" rx="2.5" ry="3" transform="translate(0.452 -0.355)" fill="#f0d0b4"/>
        </g>
      </g>
      <path id="Trazado_820873" data-name="Trazado 820873" d="M7.968,21.955v-.922a2.616,2.616,0,0,1,2.613-2.613h5.365A12.078,12.078,0,0,1,17.1,14.731l-2.006-1.185a7.83,7.83,0,1,1,.889-1.5l2,1.181a12.17,12.17,0,0,1,20.038,0l2-1.181a7.892,7.892,0,1,1,.891,1.5L38.9,14.731a12.094,12.094,0,0,1,1.153,3.689h5.364a2.616,2.616,0,0,1,2.613,2.613v.922a7.836,7.836,0,0,1,0,15.575v6.148a2.616,2.616,0,0,1-2.613,2.613H34.1v2.227c3.453.594,5.226,1.6,5.226,3C39.323,54.267,32.205,55,28,55s-11.323-.733-11.323-3.484c0-1.4,1.772-2.4,5.226-3V46.29H10.581a2.616,2.616,0,0,1-2.613-2.613V37.529a7.836,7.836,0,0,1,0-15.575Zm4.2-8.015a3.472,3.472,0,0,0-6.659,0,6.066,6.066,0,0,0,6.659,0ZM10.581,7.968A1.742,1.742,0,1,0,8.839,9.71,1.744,1.744,0,0,0,10.581,7.968ZM8.839,2.742A6.093,6.093,0,0,0,4.133,12.71a5.254,5.254,0,0,1,2.2-2.338,3.483,3.483,0,1,1,5.019,0,5.254,5.254,0,0,1,2.2,2.338A6.094,6.094,0,0,0,8.839,2.742Zm41.652,11.2a3.472,3.472,0,0,0-6.659,0,6.066,6.066,0,0,0,6.659,0ZM48.9,7.968A1.742,1.742,0,1,0,47.161,9.71,1.744,1.744,0,0,0,48.9,7.968ZM42.455,12.71a5.254,5.254,0,0,1,2.2-2.338,3.483,3.483,0,1,1,5.019,0,5.254,5.254,0,0,1,2.2,2.338,6.1,6.1,0,1,0-9.412,0ZM10.581,20.161a.872.872,0,0,0-.871.871v.922a7.844,7.844,0,0,1,5.7,3.527l1.326-.663a12.112,12.112,0,0,1-.929-4.658Zm0,8.71a1.742,1.742,0,1,0-1.742,1.742A1.744,1.744,0,0,0,10.581,28.871ZM8.839,32.355a3.5,3.5,0,0,0-3.33,2.488,6.066,6.066,0,0,0,6.659,0A3.5,3.5,0,0,0,8.839,32.355Zm.871,5.174v1.793H46.29V37.529a7.812,7.812,0,0,1-6.478-10.488l-1.338-.669a12.16,12.16,0,0,1-20.949,0l-1.338.669A7.812,7.812,0,0,1,9.71,37.529ZM48.9,28.871a1.742,1.742,0,1,0-1.742,1.742A1.744,1.744,0,0,0,48.9,28.871Zm-1.742,3.484a3.5,3.5,0,0,0-3.33,2.488,6.066,6.066,0,0,0,6.659,0A3.5,3.5,0,0,0,47.161,32.355ZM29.178,21.9a1.744,1.744,0,0,0,1.728-1.526l.5-3.986a11.27,11.27,0,0,1-2.042-1.01,7.776,7.776,0,0,1-4.31,1.3h-.42l.462,3.7A1.745,1.745,0,0,0,26.822,21.9Zm4.048-5.226h-.1l-.218,1.742h.32a.871.871,0,1,0,0-1.742Zm-10.452,0a.871.871,0,0,0,0,1.742h.32l-.218-1.742ZM28,23.645c-.161,0-.316.025-.476.036l.476.475.476-.476C28.316,23.67,28.161,23.645,28,23.645Zm0,2.716-.573.287.24.482h.665l.24-.482Zm.192,2.51h-.382l-.428,1.711c.206.012.409.031.618.031s.413-.019.618-.031Zm-2.544,1.465.558-2.234-.338-.675-1.8.9L22.9,25.539a7.808,7.808,0,0,0-1.867,2.393,10.418,10.418,0,0,0,4.614,2.4Zm-.689-4.4,1.571-.786L25.461,24.08a7.784,7.784,0,0,0-1.086.467Zm5.58-1.854L29.47,25.148l1.505.753.483-1.448A7.813,7.813,0,0,0,30.539,24.08Zm2.427,1.356-.974,2.921-1.861-.93-.338.675.558,2.234a10.429,10.429,0,0,0,4.614-2.4,7.8,7.8,0,0,0-2-2.5ZM17.548,20.161a10.389,10.389,0,0,0,2.221,6.419,9.542,9.542,0,0,1,4.6-3.963,3.452,3.452,0,0,1-1.005-2.024l-.054-.432h-.538a2.616,2.616,0,0,1-2.613-2.613,2.586,2.586,0,0,1,.576-1.616l-.3-.9a5.362,5.362,0,0,1-.275-1.7c0-.024.005-.046.006-.07a10.4,10.4,0,0,0-2.619,6.9Zm5.031-8.919a3.579,3.579,0,0,0-.676,2.092,3.639,3.639,0,0,0,.186,1.146l.169.506a2.658,2.658,0,0,1,.4-.041l0-.01h.856a5.1,5.1,0,0,0,3.641-3.7l1.689.422a6.84,6.84,0,0,1-1.458,2.793,6.016,6.016,0,0,0,3.288-3.328l1.617.647a7.8,7.8,0,0,1-1.532,2.393,9.6,9.6,0,0,0,1.594.719l.144.048h.729a2.591,2.591,0,0,1,.516.052l.168-.505a3.634,3.634,0,0,0,.186-1.148,3.573,3.573,0,0,0-.678-2.093,10.351,10.351,0,0,0-10.84,0Zm13.254,2.022c0,.024.006.046.006.07a5.371,5.371,0,0,1-.275,1.7l-.3.9a2.6,2.6,0,0,1-2.037,4.229h-.538l-.054.432a3.462,3.462,0,0,1-1.005,2.024,9.542,9.542,0,0,1,4.6,3.963,10.388,10.388,0,0,0-.4-13.315Zm9.587,6.9H40.194a12.112,12.112,0,0,1-.929,4.658l1.326.663a7.839,7.839,0,0,1,5.7-3.527v-.922a.872.872,0,0,0-.871-.871Zm7.839,9.581a6.1,6.1,0,1,0-10.8,3.871,5.254,5.254,0,0,1,2.2-2.338,3.483,3.483,0,1,1,5.019,0,5.254,5.254,0,0,1,2.2,2.338A6.074,6.074,0,0,0,53.258,29.742ZM28,53.258c5.622,0,9.053-1.082,9.551-1.739-.213-.249-1.15-.817-3.534-1.252a1.739,1.739,0,0,1-1.663,1.25h-8.71a1.739,1.739,0,0,1-1.663-1.249c-2.384.435-3.321,1-3.534,1.252C18.947,52.176,22.378,53.258,28,53.258Zm-4.355-3.484h8.71V46.29h-8.71ZM10.581,44.548h.871V42.806h1.742v1.742h1.742V42.806h1.742v1.742h1.742V42.806h1.742v1.742H45.419a.872.872,0,0,0,.871-.871V41.065H9.71v2.613A.872.872,0,0,0,10.581,44.548ZM4.133,33.613a5.254,5.254,0,0,1,2.2-2.338,3.483,3.483,0,1,1,5.019,0,5.254,5.254,0,0,1,2.2,2.338,6.1,6.1,0,1,0-9.412,0Z" transform="translate(-1 -1)"/>
    </g>
  </g>
</svg>
