<svg xmlns="http://www.w3.org/2000/svg" xmlns:xlink="http://www.w3.org/1999/xlink" width="1240" height="430" viewBox="0 0 1240 430">
  <defs>
    <clipPath id="clip-path">
      <rect id="Rectángulo_382257" data-name="Rectángulo 382257" width="1240" height="430" transform="translate(0 -0.068)" fill="#273a89"/>
    </clipPath>
    <clipPath id="clip-path-2">
      <path id="Trazado_819313" data-name="Trazado 819313" d="M17.313,56.278c0,25.04,19.594,45.34,43.765,45.34s43.764-20.3,43.764-45.34S85.249,10.939,61.078,10.939s-43.765,20.3-43.765,45.339" transform="translate(-17.313 -10.939)" fill="none"/>
    </clipPath>
  </defs>
  <g id="Grupo_1074244" data-name="Grupo 1074244" transform="translate(-180 -1493.932)">
    <path id="Trazado_819730" data-name="Trazado 819730" d="M0,0H1240V429.932H0Z" transform="translate(180 1494)" fill="#13215c"/>
    <g id="Enmascarar_grupo_117" data-name="Enmascarar grupo 117" transform="translate(180 1494)" clip-path="url(#clip-path)">
      <ellipse id="Elipse_9667" data-name="Elipse 9667" cx="86.5" cy="89.5" rx="86.5" ry="89.5" transform="translate(1111 -115.068)" fill="#ffce00"/>
      <g id="Grupo_1072917" data-name="Grupo 1072917" transform="translate(-33.078 -143.748)">
        <ellipse id="Elipse_9668" data-name="Elipse 9668" cx="113.5" cy="117.5" rx="113.5" ry="117.5" transform="translate(465.078 491.681)" fill="#1682fb"/>
        <g id="Grupo_1072914" data-name="Grupo 1072914" transform="translate(1168.078 162.396)">
          <g id="Grupo_1072913" data-name="Grupo 1072913" transform="translate(0 0)" clip-path="url(#clip-path-2)">
            <path id="Trazado_819307" data-name="Trazado 819307" d="M96.806,22.12,80.362,5.084,64.881,21.124,49.311,4.994,33.043,21.848,16.949,5.175,2.411,20.237,0,17.74,16.949.181,33.043,16.853,49.311,0,64.881,16.128,80.362.09,96.806,17.126,112.219,1.158l2.411,2.5Z" transform="translate(-17.131 -11.213)" fill="#fff"/>
            <path id="Trazado_819308" data-name="Trazado 819308" d="M96.806,38.915,80.362,21.881,64.881,37.918,49.311,21.789,33.043,38.644,16.949,21.971,2.411,37.033,0,34.535,16.949,16.977,33.043,33.649,49.311,16.8,64.881,32.925,80.362,16.886,96.806,33.921l15.413-15.968,2.411,2.5Z" transform="translate(-17.131 -10.792)" fill="#fff"/>
            <path id="Trazado_819309" data-name="Trazado 819309" d="M96.806,55.71,80.362,38.676,64.881,54.714,49.311,38.586,33.043,55.439,16.949,38.766,2.411,53.828,0,51.33,16.949,33.772,33.043,50.445,49.311,33.59,64.881,49.72,80.362,33.682,96.806,50.716l15.413-15.968,2.411,2.5Z" transform="translate(-17.131 -10.371)" fill="#fff"/>
            <path id="Trazado_819310" data-name="Trazado 819310" d="M96.806,72.507,80.362,55.471,64.881,71.509,49.311,55.381,33.043,72.235,16.949,55.561,2.411,70.623,0,68.126,16.949,50.568,33.043,67.241,49.311,50.387,64.881,66.516,80.362,50.477,96.806,67.512l15.413-15.969,2.411,2.5Z" transform="translate(-17.131 -9.95)" fill="#fff"/>
            <path id="Trazado_819311" data-name="Trazado 819311" d="M96.806,89.3,80.362,72.266,64.881,88.3,49.311,72.176,33.043,89.03,16.949,72.357,2.411,87.42,0,84.923,16.949,67.363,33.043,84.036,49.311,67.182,64.881,83.311,80.362,67.273,96.806,84.309,112.219,68.34l2.411,2.5Z" transform="translate(-17.131 -9.529)" fill="#fff"/>
            <path id="Trazado_819312" data-name="Trazado 819312" d="M96.806,106.1,80.362,89.062,64.881,105.1,49.311,88.972,33.043,105.825,16.949,89.153,2.411,104.215,0,101.717,16.949,84.158l16.094,16.673L49.311,83.977l15.569,16.129L80.362,84.068,96.806,101.1l15.413-15.968,2.411,2.5Z" transform="translate(-17.131 -9.108)" fill="#fff"/>
          </g>
        </g>
        <g id="Grupo_1072916" data-name="Grupo 1072916" opacity="0.533">
          <g id="Grupo_1072915" data-name="Grupo 1072915" transform="translate(0 0)">
            <path id="Trazado_819314" data-name="Trazado 819314" d="M116.64,31.784a1.492,1.492,0,1,0-1.44-1.491,1.465,1.465,0,0,0,1.44,1.491" transform="translate(0 1.036)" fill="#fff" stroke="#fff" stroke-width="1"/>
            <path id="Trazado_819315" data-name="Trazado 819315" d="M102.239,31.784a1.492,1.492,0,1,0-1.439-1.491,1.467,1.467,0,0,0,1.439,1.491" transform="translate(0 1.036)" fill="#fff" stroke="#fff" stroke-width="1"/>
            <path id="Trazado_819316" data-name="Trazado 819316" d="M116.64,17.385a1.493,1.493,0,1,0-1.44-1.493,1.466,1.466,0,0,0,1.44,1.493" transform="translate(0 0.518)" fill="#fff" stroke="#fff" stroke-width="1"/>
            <path id="Trazado_819317" data-name="Trazado 819317" d="M102.239,17.385a1.493,1.493,0,1,0-1.439-1.493,1.468,1.468,0,0,0,1.439,1.493" transform="translate(0 0.518)" fill="#fff" stroke="#fff" stroke-width="1"/>
            <path id="Trazado_819318" data-name="Trazado 819318" d="M95.039,24.584a1.493,1.493,0,1,0-1.439-1.49,1.466,1.466,0,0,0,1.439,1.49" transform="translate(0 0.777)" fill="#fff" stroke="#fff" stroke-width="1"/>
            <path id="Trazado_819319" data-name="Trazado 819319" d="M109.439,24.584a1.493,1.493,0,1,0-1.44-1.49,1.466,1.466,0,0,0,1.44,1.49" transform="translate(0 0.777)" fill="#fff" stroke="#fff" stroke-width="1"/>
            <path id="Trazado_819320" data-name="Trazado 819320" d="M95.039,10.184A1.493,1.493,0,1,0,93.6,8.693a1.467,1.467,0,0,0,1.439,1.491" transform="translate(0 0.259)" fill="#fff" stroke="#fff" stroke-width="1"/>
            <path id="Trazado_819321" data-name="Trazado 819321" d="M109.439,10.184A1.493,1.493,0,1,0,108,8.693a1.467,1.467,0,0,0,1.44,1.491" transform="translate(0 0.259)" fill="#fff" stroke="#fff" stroke-width="1"/>
            <path id="Trazado_819322" data-name="Trazado 819322" d="M87.84,31.784a1.492,1.492,0,1,0-1.44-1.491,1.466,1.466,0,0,0,1.44,1.491" transform="translate(0 1.036)" fill="#fff" stroke="#fff" stroke-width="1"/>
            <path id="Trazado_819323" data-name="Trazado 819323" d="M87.84,17.385a1.493,1.493,0,1,0-1.44-1.493,1.467,1.467,0,0,0,1.44,1.493" transform="translate(0 0.518)" fill="#fff" stroke="#fff" stroke-width="1"/>
            <path id="Trazado_819324" data-name="Trazado 819324" d="M116.64,2.983a1.465,1.465,0,0,0,1.438-1.491,1.44,1.44,0,1,0-2.878,0,1.465,1.465,0,0,0,1.44,1.491" fill="#fff" stroke="#fff" stroke-width="1"/>
            <path id="Trazado_819325" data-name="Trazado 819325" d="M102.239,2.983a1.467,1.467,0,0,0,1.44-1.491,1.44,1.44,0,1,0-2.879,0,1.465,1.465,0,0,0,1.439,1.491" fill="#fff" stroke="#fff" stroke-width="1"/>
            <path id="Trazado_819326" data-name="Trazado 819326" d="M87.84,2.983a1.466,1.466,0,0,0,1.439-1.491,1.44,1.44,0,1,0-2.879,0,1.466,1.466,0,0,0,1.44,1.491" fill="#fff" stroke="#fff" stroke-width="1"/>
            <path id="Trazado_819327" data-name="Trazado 819327" d="M116.64,60.584a1.492,1.492,0,1,0-1.44-1.49,1.464,1.464,0,0,0,1.44,1.49" transform="translate(0 2.073)" fill="#fff" stroke="#fff" stroke-width="1"/>
            <path id="Trazado_819328" data-name="Trazado 819328" d="M102.239,60.584a1.492,1.492,0,1,0-1.439-1.49,1.466,1.466,0,0,0,1.439,1.49" transform="translate(0 2.073)" fill="#fff" stroke="#fff" stroke-width="1"/>
            <path id="Trazado_819329" data-name="Trazado 819329" d="M116.64,46.186a1.493,1.493,0,1,0-1.44-1.493,1.466,1.466,0,0,0,1.44,1.493" transform="translate(0 1.554)" fill="#fff" stroke="#fff" stroke-width="1"/>
            <path id="Trazado_819330" data-name="Trazado 819330" d="M102.239,46.186a1.493,1.493,0,1,0-1.439-1.493,1.468,1.468,0,0,0,1.439,1.493" transform="translate(0 1.554)" fill="#fff" stroke="#fff" stroke-width="1"/>
            <path id="Trazado_819331" data-name="Trazado 819331" d="M95.039,53.385A1.493,1.493,0,1,0,93.6,51.894a1.467,1.467,0,0,0,1.439,1.491" transform="translate(0 1.813)" fill="#fff" stroke="#fff" stroke-width="1"/>
            <path id="Trazado_819332" data-name="Trazado 819332" d="M109.439,53.385A1.493,1.493,0,1,0,108,51.894a1.467,1.467,0,0,0,1.44,1.491" transform="translate(0 1.813)" fill="#fff" stroke="#fff" stroke-width="1"/>
            <path id="Trazado_819333" data-name="Trazado 819333" d="M95.039,38.985A1.493,1.493,0,1,0,93.6,37.494a1.467,1.467,0,0,0,1.439,1.491" transform="translate(0 1.295)" fill="#fff" stroke="#fff" stroke-width="1"/>
            <path id="Trazado_819334" data-name="Trazado 819334" d="M109.439,38.985A1.493,1.493,0,1,0,108,37.494a1.467,1.467,0,0,0,1.44,1.491" transform="translate(0 1.295)" fill="#fff" stroke="#fff" stroke-width="1"/>
            <path id="Trazado_819335" data-name="Trazado 819335" d="M87.84,60.584a1.492,1.492,0,1,0-1.44-1.49,1.465,1.465,0,0,0,1.44,1.49" transform="translate(0 2.073)" fill="#fff" stroke="#fff" stroke-width="1"/>
            <path id="Trazado_819336" data-name="Trazado 819336" d="M87.84,46.186a1.493,1.493,0,1,0-1.44-1.493,1.467,1.467,0,0,0,1.44,1.493" transform="translate(0 1.554)" fill="#fff" stroke="#fff" stroke-width="1"/>
            <path id="Trazado_819337" data-name="Trazado 819337" d="M116.64,31.784a1.492,1.492,0,1,0-1.44-1.491,1.465,1.465,0,0,0,1.44,1.491" transform="translate(0 1.036)" fill="#fff" stroke="#fff" stroke-width="1"/>
            <path id="Trazado_819338" data-name="Trazado 819338" d="M102.239,31.784a1.492,1.492,0,1,0-1.439-1.491,1.467,1.467,0,0,0,1.439,1.491" transform="translate(0 1.036)" fill="#fff" stroke="#fff" stroke-width="1"/>
            <path id="Trazado_819339" data-name="Trazado 819339" d="M87.84,31.784a1.492,1.492,0,1,0-1.44-1.491,1.466,1.466,0,0,0,1.44,1.491" transform="translate(0 1.036)" fill="#fff" stroke="#fff" stroke-width="1"/>
            <path id="Trazado_819340" data-name="Trazado 819340" d="M116.64,89.385a1.492,1.492,0,1,0-1.44-1.491,1.465,1.465,0,0,0,1.44,1.491" transform="translate(0 3.109)" fill="#fff" stroke="#fff" stroke-width="1"/>
            <path id="Trazado_819341" data-name="Trazado 819341" d="M102.239,89.385a1.492,1.492,0,1,0-1.439-1.491,1.467,1.467,0,0,0,1.439,1.491" transform="translate(0 3.109)" fill="#fff" stroke="#fff" stroke-width="1"/>
            <path id="Trazado_819342" data-name="Trazado 819342" d="M116.64,74.987a1.493,1.493,0,1,0-1.44-1.493,1.466,1.466,0,0,0,1.44,1.493" transform="translate(0 2.591)" fill="#fff" stroke="#fff" stroke-width="1"/>
            <path id="Trazado_819343" data-name="Trazado 819343" d="M102.239,74.987a1.493,1.493,0,1,0-1.439-1.493,1.468,1.468,0,0,0,1.439,1.493" transform="translate(0 2.591)" fill="#fff" stroke="#fff" stroke-width="1"/>
            <path id="Trazado_819344" data-name="Trazado 819344" d="M95.039,82.186A1.493,1.493,0,1,0,93.6,80.695a1.467,1.467,0,0,0,1.439,1.491" transform="translate(0 2.85)" fill="#fff" stroke="#fff" stroke-width="1"/>
            <path id="Trazado_819345" data-name="Trazado 819345" d="M109.439,82.186A1.493,1.493,0,1,0,108,80.695a1.467,1.467,0,0,0,1.44,1.491" transform="translate(0 2.85)" fill="#fff" stroke="#fff" stroke-width="1"/>
            <path id="Trazado_819346" data-name="Trazado 819346" d="M95.039,67.786A1.493,1.493,0,1,0,93.6,66.295a1.467,1.467,0,0,0,1.439,1.491" transform="translate(0 2.332)" fill="#fff" stroke="#fff" stroke-width="1"/>
            <path id="Trazado_819347" data-name="Trazado 819347" d="M109.439,67.786A1.493,1.493,0,1,0,108,66.295a1.467,1.467,0,0,0,1.44,1.491" transform="translate(0 2.332)" fill="#fff" stroke="#fff" stroke-width="1"/>
            <path id="Trazado_819348" data-name="Trazado 819348" d="M87.84,89.385a1.492,1.492,0,1,0-1.44-1.491,1.466,1.466,0,0,0,1.44,1.491" transform="translate(0 3.109)" fill="#fff" stroke="#fff" stroke-width="1"/>
            <path id="Trazado_819349" data-name="Trazado 819349" d="M87.84,74.987a1.493,1.493,0,1,0-1.44-1.493,1.467,1.467,0,0,0,1.44,1.493" transform="translate(0 2.591)" fill="#fff" stroke="#fff" stroke-width="1"/>
            <path id="Trazado_819350" data-name="Trazado 819350" d="M116.64,60.584a1.492,1.492,0,1,0-1.44-1.491,1.465,1.465,0,0,0,1.44,1.491" transform="translate(0 2.073)" fill="#fff" stroke="#fff" stroke-width="1"/>
            <path id="Trazado_819351" data-name="Trazado 819351" d="M102.239,60.584a1.492,1.492,0,1,0-1.439-1.491,1.467,1.467,0,0,0,1.439,1.491" transform="translate(0 2.073)" fill="#fff" stroke="#fff" stroke-width="1"/>
            <path id="Trazado_819352" data-name="Trazado 819352" d="M87.84,60.584a1.492,1.492,0,1,0-1.44-1.491,1.466,1.466,0,0,0,1.44,1.491" transform="translate(0 2.073)" fill="#fff" stroke="#fff" stroke-width="1"/>
            <path id="Trazado_819353" data-name="Trazado 819353" d="M116.64,118.186a1.492,1.492,0,1,0-1.44-1.491,1.465,1.465,0,0,0,1.44,1.491" transform="translate(0 4.145)" fill="#fff" stroke="#fff" stroke-width="1"/>
            <path id="Trazado_819354" data-name="Trazado 819354" d="M102.239,118.186a1.492,1.492,0,1,0-1.439-1.491,1.467,1.467,0,0,0,1.439,1.491" transform="translate(0 4.145)" fill="#fff" stroke="#fff" stroke-width="1"/>
            <path id="Trazado_819355" data-name="Trazado 819355" d="M116.64,103.788a1.493,1.493,0,1,0-1.44-1.493,1.466,1.466,0,0,0,1.44,1.493" transform="translate(0 3.627)" fill="#fff" stroke="#fff" stroke-width="1"/>
            <path id="Trazado_819356" data-name="Trazado 819356" d="M102.239,103.788a1.493,1.493,0,1,0-1.439-1.493,1.468,1.468,0,0,0,1.439,1.493" transform="translate(0 3.627)" fill="#fff" stroke="#fff" stroke-width="1"/>
            <path id="Trazado_819357" data-name="Trazado 819357" d="M95.039,110.987A1.493,1.493,0,1,0,93.6,109.5a1.467,1.467,0,0,0,1.439,1.491" transform="translate(0 3.886)" fill="#fff" stroke="#fff" stroke-width="1"/>
            <path id="Trazado_819358" data-name="Trazado 819358" d="M109.439,110.987A1.493,1.493,0,1,0,108,109.5a1.467,1.467,0,0,0,1.44,1.491" transform="translate(0 3.886)" fill="#fff" stroke="#fff" stroke-width="1"/>
            <path id="Trazado_819359" data-name="Trazado 819359" d="M95.039,96.586A1.493,1.493,0,1,0,93.6,95.095a1.467,1.467,0,0,0,1.439,1.491" transform="translate(0 3.368)" fill="#fff" stroke="#fff" stroke-width="1"/>
            <path id="Trazado_819360" data-name="Trazado 819360" d="M109.439,96.586A1.493,1.493,0,1,0,108,95.095a1.467,1.467,0,0,0,1.44,1.491" transform="translate(0 3.368)" fill="#fff" stroke="#fff" stroke-width="1"/>
            <path id="Trazado_819361" data-name="Trazado 819361" d="M87.84,118.186a1.492,1.492,0,1,0-1.44-1.491,1.466,1.466,0,0,0,1.44,1.491" transform="translate(0 4.145)" fill="#fff" stroke="#fff" stroke-width="1"/>
            <path id="Trazado_819362" data-name="Trazado 819362" d="M87.84,103.788a1.493,1.493,0,1,0-1.44-1.493,1.467,1.467,0,0,0,1.44,1.493" transform="translate(0 3.627)" fill="#fff" stroke="#fff" stroke-width="1"/>
            <path id="Trazado_819363" data-name="Trazado 819363" d="M116.64,89.385a1.492,1.492,0,1,0-1.44-1.491,1.465,1.465,0,0,0,1.44,1.491" transform="translate(0 3.109)" fill="#fff" stroke="#fff" stroke-width="1"/>
            <path id="Trazado_819364" data-name="Trazado 819364" d="M102.239,89.385a1.492,1.492,0,1,0-1.439-1.491,1.467,1.467,0,0,0,1.439,1.491" transform="translate(0 3.109)" fill="#fff" stroke="#fff" stroke-width="1"/>
            <path id="Trazado_819365" data-name="Trazado 819365" d="M87.84,89.385a1.492,1.492,0,1,0-1.44-1.491,1.466,1.466,0,0,0,1.44,1.491" transform="translate(0 3.109)" fill="#fff" stroke="#fff" stroke-width="1"/>
            <path id="Trazado_819366" data-name="Trazado 819366" d="M116.64,146.987a1.492,1.492,0,1,0-1.44-1.491,1.465,1.465,0,0,0,1.44,1.491" transform="translate(0 5.181)" fill="#fff" stroke="#fff" stroke-width="1"/>
            <path id="Trazado_819367" data-name="Trazado 819367" d="M102.239,146.987A1.492,1.492,0,1,0,100.8,145.5a1.467,1.467,0,0,0,1.439,1.491" transform="translate(0 5.181)" fill="#fff" stroke="#fff" stroke-width="1"/>
            <path id="Trazado_819368" data-name="Trazado 819368" d="M116.64,132.588a1.493,1.493,0,1,0-1.44-1.493,1.466,1.466,0,0,0,1.44,1.493" transform="translate(0 4.663)" fill="#fff" stroke="#fff" stroke-width="1"/>
            <path id="Trazado_819369" data-name="Trazado 819369" d="M102.239,132.588a1.493,1.493,0,1,0-1.439-1.493,1.468,1.468,0,0,0,1.439,1.493" transform="translate(0 4.663)" fill="#fff" stroke="#fff" stroke-width="1"/>
            <path id="Trazado_819370" data-name="Trazado 819370" d="M95.039,139.788A1.493,1.493,0,1,0,93.6,138.3a1.467,1.467,0,0,0,1.439,1.491" transform="translate(0 4.922)" fill="#fff" stroke="#fff" stroke-width="1"/>
            <path id="Trazado_819371" data-name="Trazado 819371" d="M109.439,139.788A1.493,1.493,0,1,0,108,138.3a1.467,1.467,0,0,0,1.44,1.491" transform="translate(0 4.922)" fill="#fff" stroke="#fff" stroke-width="1"/>
            <path id="Trazado_819372" data-name="Trazado 819372" d="M95.039,125.387a1.493,1.493,0,1,0-1.439-1.492,1.467,1.467,0,0,0,1.439,1.492" transform="translate(0 4.404)" fill="#fff" stroke="#fff" stroke-width="1"/>
            <path id="Trazado_819373" data-name="Trazado 819373" d="M109.439,125.387a1.493,1.493,0,1,0-1.44-1.492,1.467,1.467,0,0,0,1.44,1.492" transform="translate(0 4.404)" fill="#fff" stroke="#fff" stroke-width="1"/>
            <path id="Trazado_819374" data-name="Trazado 819374" d="M87.84,146.987A1.492,1.492,0,1,0,86.4,145.5a1.466,1.466,0,0,0,1.44,1.491" transform="translate(0 5.181)" fill="#fff" stroke="#fff" stroke-width="1"/>
            <path id="Trazado_819375" data-name="Trazado 819375" d="M87.84,132.588a1.493,1.493,0,1,0-1.44-1.493,1.467,1.467,0,0,0,1.44,1.493" transform="translate(0 4.663)" fill="#fff" stroke="#fff" stroke-width="1"/>
            <path id="Trazado_819376" data-name="Trazado 819376" d="M116.64,118.186a1.492,1.492,0,1,0-1.44-1.491,1.465,1.465,0,0,0,1.44,1.491" transform="translate(0 4.145)" fill="#fff" stroke="#fff" stroke-width="1"/>
            <path id="Trazado_819377" data-name="Trazado 819377" d="M102.239,118.186a1.492,1.492,0,1,0-1.439-1.491,1.467,1.467,0,0,0,1.439,1.491" transform="translate(0 4.145)" fill="#fff" stroke="#fff" stroke-width="1"/>
            <path id="Trazado_819378" data-name="Trazado 819378" d="M87.84,118.186a1.492,1.492,0,1,0-1.44-1.491,1.466,1.466,0,0,0,1.44,1.491" transform="translate(0 4.145)" fill="#fff" stroke="#fff" stroke-width="1"/>
            <path id="Trazado_819379" data-name="Trazado 819379" d="M116.64,175.788a1.492,1.492,0,1,0-1.44-1.491,1.465,1.465,0,0,0,1.44,1.491" transform="translate(0 6.218)" fill="#fff" stroke="#fff" stroke-width="1"/>
            <path id="Trazado_819380" data-name="Trazado 819380" d="M102.239,175.788A1.492,1.492,0,1,0,100.8,174.3a1.467,1.467,0,0,0,1.439,1.491" transform="translate(0 6.218)" fill="#fff" stroke="#fff" stroke-width="1"/>
            <path id="Trazado_819381" data-name="Trazado 819381" d="M116.64,161.389a1.493,1.493,0,1,0-1.44-1.493,1.466,1.466,0,0,0,1.44,1.493" transform="translate(0 5.7)" fill="#fff" stroke="#fff" stroke-width="1"/>
            <path id="Trazado_819382" data-name="Trazado 819382" d="M102.239,161.389A1.493,1.493,0,1,0,100.8,159.9a1.468,1.468,0,0,0,1.439,1.493" transform="translate(0 5.7)" fill="#fff" stroke="#fff" stroke-width="1"/>
            <path id="Trazado_819383" data-name="Trazado 819383" d="M95.039,168.588A1.493,1.493,0,1,0,93.6,167.1a1.467,1.467,0,0,0,1.439,1.491" transform="translate(0 5.959)" fill="#fff" stroke="#fff" stroke-width="1"/>
            <path id="Trazado_819384" data-name="Trazado 819384" d="M109.439,168.588A1.493,1.493,0,1,0,108,167.1a1.467,1.467,0,0,0,1.44,1.491" transform="translate(0 5.959)" fill="#fff" stroke="#fff" stroke-width="1"/>
            <path id="Trazado_819385" data-name="Trazado 819385" d="M95.039,154.188A1.493,1.493,0,1,0,93.6,152.7a1.466,1.466,0,0,0,1.439,1.491" transform="translate(0 5.44)" fill="#fff" stroke="#fff" stroke-width="1"/>
            <path id="Trazado_819386" data-name="Trazado 819386" d="M109.439,154.188A1.493,1.493,0,1,0,108,152.7a1.466,1.466,0,0,0,1.44,1.491" transform="translate(0 5.44)" fill="#fff" stroke="#fff" stroke-width="1"/>
            <path id="Trazado_819387" data-name="Trazado 819387" d="M87.84,175.788A1.492,1.492,0,1,0,86.4,174.3a1.466,1.466,0,0,0,1.44,1.491" transform="translate(0 6.218)" fill="#fff" stroke="#fff" stroke-width="1"/>
            <path id="Trazado_819388" data-name="Trazado 819388" d="M87.84,161.389A1.493,1.493,0,1,0,86.4,159.9a1.467,1.467,0,0,0,1.44,1.493" transform="translate(0 5.7)" fill="#fff" stroke="#fff" stroke-width="1"/>
            <path id="Trazado_819389" data-name="Trazado 819389" d="M116.64,146.987a1.492,1.492,0,1,0-1.44-1.491,1.465,1.465,0,0,0,1.44,1.491" transform="translate(0 5.181)" fill="#fff" stroke="#fff" stroke-width="1"/>
            <path id="Trazado_819390" data-name="Trazado 819390" d="M102.239,146.987A1.492,1.492,0,1,0,100.8,145.5a1.467,1.467,0,0,0,1.439,1.491" transform="translate(0 5.181)" fill="#fff" stroke="#fff" stroke-width="1"/>
            <path id="Trazado_819391" data-name="Trazado 819391" d="M87.84,146.987A1.492,1.492,0,1,0,86.4,145.5a1.466,1.466,0,0,0,1.44,1.491" transform="translate(0 5.181)" fill="#fff" stroke="#fff" stroke-width="1"/>
            <path id="Trazado_819392" data-name="Trazado 819392" d="M116.64,204.588a1.492,1.492,0,1,0-1.44-1.491,1.465,1.465,0,0,0,1.44,1.491" transform="translate(0 7.254)" fill="#fff" stroke="#fff" stroke-width="1"/>
            <path id="Trazado_819393" data-name="Trazado 819393" d="M102.239,204.588A1.492,1.492,0,1,0,100.8,203.1a1.467,1.467,0,0,0,1.439,1.491" transform="translate(0 7.254)" fill="#fff" stroke="#fff" stroke-width="1"/>
            <path id="Trazado_819394" data-name="Trazado 819394" d="M116.64,190.19a1.493,1.493,0,1,0-1.44-1.493,1.466,1.466,0,0,0,1.44,1.493" transform="translate(0 6.736)" fill="#fff" stroke="#fff" stroke-width="1"/>
            <path id="Trazado_819395" data-name="Trazado 819395" d="M102.239,190.19A1.493,1.493,0,1,0,100.8,188.7a1.468,1.468,0,0,0,1.439,1.493" transform="translate(0 6.736)" fill="#fff" stroke="#fff" stroke-width="1"/>
            <path id="Trazado_819396" data-name="Trazado 819396" d="M95.039,197.389A1.493,1.493,0,1,0,93.6,195.9a1.467,1.467,0,0,0,1.439,1.491" transform="translate(0 6.995)" fill="#fff" stroke="#fff" stroke-width="1"/>
            <path id="Trazado_819397" data-name="Trazado 819397" d="M109.439,197.389A1.493,1.493,0,1,0,108,195.9a1.467,1.467,0,0,0,1.44,1.491" transform="translate(0 6.995)" fill="#fff" stroke="#fff" stroke-width="1"/>
            <path id="Trazado_819398" data-name="Trazado 819398" d="M95.039,182.989A1.493,1.493,0,1,0,93.6,181.5a1.467,1.467,0,0,0,1.439,1.492" transform="translate(0 6.477)" fill="#fff" stroke="#fff" stroke-width="1"/>
            <path id="Trazado_819399" data-name="Trazado 819399" d="M109.439,182.989A1.493,1.493,0,1,0,108,181.5a1.467,1.467,0,0,0,1.44,1.492" transform="translate(0 6.477)" fill="#fff" stroke="#fff" stroke-width="1"/>
            <path id="Trazado_819400" data-name="Trazado 819400" d="M87.84,204.588A1.492,1.492,0,1,0,86.4,203.1a1.466,1.466,0,0,0,1.44,1.491" transform="translate(0 7.254)" fill="#fff" stroke="#fff" stroke-width="1"/>
            <path id="Trazado_819401" data-name="Trazado 819401" d="M87.84,190.19A1.493,1.493,0,1,0,86.4,188.7a1.467,1.467,0,0,0,1.44,1.493" transform="translate(0 6.736)" fill="#fff" stroke="#fff" stroke-width="1"/>
            <path id="Trazado_819402" data-name="Trazado 819402" d="M116.64,175.788a1.492,1.492,0,1,0-1.44-1.491,1.465,1.465,0,0,0,1.44,1.491" transform="translate(0 6.218)" fill="#fff" stroke="#fff" stroke-width="1"/>
            <path id="Trazado_819403" data-name="Trazado 819403" d="M102.239,175.788A1.492,1.492,0,1,0,100.8,174.3a1.467,1.467,0,0,0,1.439,1.491" transform="translate(0 6.218)" fill="#fff" stroke="#fff" stroke-width="1"/>
            <path id="Trazado_819404" data-name="Trazado 819404" d="M87.84,175.788A1.492,1.492,0,1,0,86.4,174.3a1.466,1.466,0,0,0,1.44,1.491" transform="translate(0 6.218)" fill="#fff" stroke="#fff" stroke-width="1"/>
            <path id="Trazado_819405" data-name="Trazado 819405" d="M116.64,233.389a1.492,1.492,0,1,0-1.44-1.491,1.465,1.465,0,0,0,1.44,1.491" transform="translate(0 8.29)" fill="#fff" stroke="#fff" stroke-width="1"/>
            <path id="Trazado_819406" data-name="Trazado 819406" d="M102.239,233.389A1.492,1.492,0,1,0,100.8,231.9a1.467,1.467,0,0,0,1.439,1.491" transform="translate(0 8.29)" fill="#fff" stroke="#fff" stroke-width="1"/>
            <path id="Trazado_819407" data-name="Trazado 819407" d="M116.64,218.991a1.493,1.493,0,1,0-1.44-1.493,1.466,1.466,0,0,0,1.44,1.493" transform="translate(0 7.772)" fill="#fff" stroke="#fff" stroke-width="1"/>
            <path id="Trazado_819408" data-name="Trazado 819408" d="M102.239,218.991A1.493,1.493,0,1,0,100.8,217.5a1.468,1.468,0,0,0,1.439,1.493" transform="translate(0 7.772)" fill="#fff" stroke="#fff" stroke-width="1"/>
            <path id="Trazado_819409" data-name="Trazado 819409" d="M95.039,226.19A1.493,1.493,0,1,0,93.6,224.7a1.467,1.467,0,0,0,1.439,1.491" transform="translate(0 8.031)" fill="#fff" stroke="#fff" stroke-width="1"/>
            <path id="Trazado_819410" data-name="Trazado 819410" d="M109.439,226.19A1.493,1.493,0,1,0,108,224.7a1.467,1.467,0,0,0,1.44,1.491" transform="translate(0 8.031)" fill="#fff" stroke="#fff" stroke-width="1"/>
            <path id="Trazado_819411" data-name="Trazado 819411" d="M95.039,211.789A1.493,1.493,0,1,0,93.6,210.3a1.467,1.467,0,0,0,1.439,1.492" transform="translate(0 7.513)" fill="#fff" stroke="#fff" stroke-width="1"/>
            <path id="Trazado_819412" data-name="Trazado 819412" d="M109.439,211.789A1.493,1.493,0,1,0,108,210.3a1.467,1.467,0,0,0,1.44,1.492" transform="translate(0 7.513)" fill="#fff" stroke="#fff" stroke-width="1"/>
            <path id="Trazado_819413" data-name="Trazado 819413" d="M87.84,233.389A1.492,1.492,0,1,0,86.4,231.9a1.466,1.466,0,0,0,1.44,1.491" transform="translate(0 8.29)" fill="#fff" stroke="#fff" stroke-width="1"/>
            <path id="Trazado_819414" data-name="Trazado 819414" d="M87.84,218.991A1.493,1.493,0,1,0,86.4,217.5a1.467,1.467,0,0,0,1.44,1.493" transform="translate(0 7.772)" fill="#fff" stroke="#fff" stroke-width="1"/>
            <path id="Trazado_819415" data-name="Trazado 819415" d="M116.64,204.588a1.492,1.492,0,1,0-1.44-1.491,1.465,1.465,0,0,0,1.44,1.491" transform="translate(0 7.254)" fill="#fff" stroke="#fff" stroke-width="1"/>
            <path id="Trazado_819416" data-name="Trazado 819416" d="M102.239,204.588A1.492,1.492,0,1,0,100.8,203.1a1.467,1.467,0,0,0,1.439,1.491" transform="translate(0 7.254)" fill="#fff" stroke="#fff" stroke-width="1"/>
            <path id="Trazado_819417" data-name="Trazado 819417" d="M87.84,204.588A1.492,1.492,0,1,0,86.4,203.1a1.466,1.466,0,0,0,1.44,1.491" transform="translate(0 7.254)" fill="#fff" stroke="#fff" stroke-width="1"/>
            <path id="Trazado_819418" data-name="Trazado 819418" d="M87.84,31.784a1.492,1.492,0,1,0-1.44-1.491,1.467,1.467,0,0,0,1.44,1.491" transform="translate(0 1.036)" fill="#fff" stroke="#fff" stroke-width="1"/>
            <path id="Trazado_819419" data-name="Trazado 819419" d="M73.439,31.784A1.492,1.492,0,1,0,72,30.293a1.467,1.467,0,0,0,1.439,1.491" transform="translate(0 1.036)" fill="#fff" stroke="#fff" stroke-width="1"/>
            <path id="Trazado_819420" data-name="Trazado 819420" d="M87.84,17.385a1.493,1.493,0,1,0-1.44-1.493,1.468,1.468,0,0,0,1.44,1.493" transform="translate(0 0.518)" fill="#fff" stroke="#fff" stroke-width="1"/>
            <path id="Trazado_819421" data-name="Trazado 819421" d="M73.439,17.385A1.493,1.493,0,1,0,72,15.892a1.468,1.468,0,0,0,1.439,1.493" transform="translate(0 0.518)" fill="#fff" stroke="#fff" stroke-width="1"/>
            <path id="Trazado_819422" data-name="Trazado 819422" d="M66.239,24.584a1.493,1.493,0,1,0-1.439-1.49,1.466,1.466,0,0,0,1.439,1.49" transform="translate(0 0.777)" fill="#fff" stroke="#fff" stroke-width="1"/>
            <path id="Trazado_819423" data-name="Trazado 819423" d="M80.64,24.584a1.493,1.493,0,1,0-1.44-1.49,1.466,1.466,0,0,0,1.44,1.49" transform="translate(0 0.777)" fill="#fff" stroke="#fff" stroke-width="1"/>
            <path id="Trazado_819424" data-name="Trazado 819424" d="M66.239,10.184A1.493,1.493,0,1,0,64.8,8.693a1.467,1.467,0,0,0,1.439,1.491" transform="translate(0 0.259)" fill="#fff" stroke="#fff" stroke-width="1"/>
            <path id="Trazado_819425" data-name="Trazado 819425" d="M80.64,10.184A1.493,1.493,0,1,0,79.2,8.693a1.467,1.467,0,0,0,1.44,1.491" transform="translate(0 0.259)" fill="#fff" stroke="#fff" stroke-width="1"/>
            <path id="Trazado_819426" data-name="Trazado 819426" d="M59.04,31.784a1.492,1.492,0,1,0-1.44-1.491,1.466,1.466,0,0,0,1.44,1.491" transform="translate(0 1.036)" fill="#fff" stroke="#fff" stroke-width="1"/>
            <path id="Trazado_819427" data-name="Trazado 819427" d="M59.04,17.385a1.493,1.493,0,1,0-1.44-1.493,1.467,1.467,0,0,0,1.44,1.493" transform="translate(0 0.518)" fill="#fff" stroke="#fff" stroke-width="1"/>
            <path id="Trazado_819428" data-name="Trazado 819428" d="M87.84,2.983a1.467,1.467,0,0,0,1.44-1.491,1.441,1.441,0,1,0-2.88,0,1.466,1.466,0,0,0,1.44,1.491" fill="#fff" stroke="#fff" stroke-width="1"/>
            <path id="Trazado_819429" data-name="Trazado 819429" d="M73.439,2.983a1.467,1.467,0,0,0,1.44-1.491,1.44,1.44,0,1,0-2.879,0,1.465,1.465,0,0,0,1.439,1.491" fill="#fff" stroke="#fff" stroke-width="1"/>
            <path id="Trazado_819430" data-name="Trazado 819430" d="M59.04,2.983a1.466,1.466,0,0,0,1.439-1.491,1.44,1.44,0,1,0-2.879,0,1.466,1.466,0,0,0,1.44,1.491" fill="#fff" stroke="#fff" stroke-width="1"/>
            <path id="Trazado_819431" data-name="Trazado 819431" d="M87.84,60.584a1.492,1.492,0,1,0-1.44-1.49,1.466,1.466,0,0,0,1.44,1.49" transform="translate(0 2.073)" fill="#fff" stroke="#fff" stroke-width="1"/>
            <path id="Trazado_819432" data-name="Trazado 819432" d="M73.439,60.584A1.492,1.492,0,1,0,72,59.094a1.466,1.466,0,0,0,1.439,1.49" transform="translate(0 2.073)" fill="#fff" stroke="#fff" stroke-width="1"/>
            <path id="Trazado_819433" data-name="Trazado 819433" d="M87.84,46.186a1.493,1.493,0,1,0-1.44-1.493,1.468,1.468,0,0,0,1.44,1.493" transform="translate(0 1.554)" fill="#fff" stroke="#fff" stroke-width="1"/>
            <path id="Trazado_819434" data-name="Trazado 819434" d="M73.439,46.186A1.493,1.493,0,1,0,72,44.693a1.468,1.468,0,0,0,1.439,1.493" transform="translate(0 1.554)" fill="#fff" stroke="#fff" stroke-width="1"/>
            <path id="Trazado_819435" data-name="Trazado 819435" d="M66.239,53.385A1.493,1.493,0,1,0,64.8,51.894a1.467,1.467,0,0,0,1.439,1.491" transform="translate(0 1.813)" fill="#fff" stroke="#fff" stroke-width="1"/>
            <path id="Trazado_819436" data-name="Trazado 819436" d="M80.64,53.385a1.493,1.493,0,1,0-1.44-1.491,1.467,1.467,0,0,0,1.44,1.491" transform="translate(0 1.813)" fill="#fff" stroke="#fff" stroke-width="1"/>
            <path id="Trazado_819437" data-name="Trazado 819437" d="M66.239,38.985A1.493,1.493,0,1,0,64.8,37.494a1.467,1.467,0,0,0,1.439,1.491" transform="translate(0 1.295)" fill="#fff" stroke="#fff" stroke-width="1"/>
            <path id="Trazado_819438" data-name="Trazado 819438" d="M80.64,38.985a1.493,1.493,0,1,0-1.44-1.491,1.467,1.467,0,0,0,1.44,1.491" transform="translate(0 1.295)" fill="#fff" stroke="#fff" stroke-width="1"/>
            <path id="Trazado_819439" data-name="Trazado 819439" d="M59.04,60.584a1.492,1.492,0,1,0-1.44-1.49,1.465,1.465,0,0,0,1.44,1.49" transform="translate(0 2.073)" fill="#fff" stroke="#fff" stroke-width="1"/>
            <path id="Trazado_819440" data-name="Trazado 819440" d="M59.04,46.186a1.493,1.493,0,1,0-1.44-1.493,1.467,1.467,0,0,0,1.44,1.493" transform="translate(0 1.554)" fill="#fff" stroke="#fff" stroke-width="1"/>
            <path id="Trazado_819441" data-name="Trazado 819441" d="M87.84,31.784a1.492,1.492,0,1,0-1.44-1.491,1.467,1.467,0,0,0,1.44,1.491" transform="translate(0 1.036)" fill="#fff" stroke="#fff" stroke-width="1"/>
            <path id="Trazado_819442" data-name="Trazado 819442" d="M73.439,31.784A1.492,1.492,0,1,0,72,30.293a1.467,1.467,0,0,0,1.439,1.491" transform="translate(0 1.036)" fill="#fff" stroke="#fff" stroke-width="1"/>
            <path id="Trazado_819443" data-name="Trazado 819443" d="M59.04,31.784a1.492,1.492,0,1,0-1.44-1.491,1.466,1.466,0,0,0,1.44,1.491" transform="translate(0 1.036)" fill="#fff" stroke="#fff" stroke-width="1"/>
            <path id="Trazado_819444" data-name="Trazado 819444" d="M87.84,89.385a1.492,1.492,0,1,0-1.44-1.491,1.467,1.467,0,0,0,1.44,1.491" transform="translate(0 3.109)" fill="#fff" stroke="#fff" stroke-width="1"/>
            <path id="Trazado_819445" data-name="Trazado 819445" d="M73.439,89.385A1.492,1.492,0,1,0,72,87.894a1.467,1.467,0,0,0,1.439,1.491" transform="translate(0 3.109)" fill="#fff" stroke="#fff" stroke-width="1"/>
            <path id="Trazado_819446" data-name="Trazado 819446" d="M87.84,74.987a1.493,1.493,0,1,0-1.44-1.493,1.468,1.468,0,0,0,1.44,1.493" transform="translate(0 2.591)" fill="#fff" stroke="#fff" stroke-width="1"/>
            <path id="Trazado_819447" data-name="Trazado 819447" d="M73.439,74.987A1.493,1.493,0,1,0,72,73.494a1.468,1.468,0,0,0,1.439,1.493" transform="translate(0 2.591)" fill="#fff" stroke="#fff" stroke-width="1"/>
            <path id="Trazado_819448" data-name="Trazado 819448" d="M66.239,82.186A1.493,1.493,0,1,0,64.8,80.695a1.467,1.467,0,0,0,1.439,1.491" transform="translate(0 2.85)" fill="#fff" stroke="#fff" stroke-width="1"/>
            <path id="Trazado_819449" data-name="Trazado 819449" d="M80.64,82.186a1.493,1.493,0,1,0-1.44-1.491,1.467,1.467,0,0,0,1.44,1.491" transform="translate(0 2.85)" fill="#fff" stroke="#fff" stroke-width="1"/>
            <path id="Trazado_819450" data-name="Trazado 819450" d="M66.239,67.786A1.493,1.493,0,1,0,64.8,66.295a1.467,1.467,0,0,0,1.439,1.491" transform="translate(0 2.332)" fill="#fff" stroke="#fff" stroke-width="1"/>
            <path id="Trazado_819451" data-name="Trazado 819451" d="M80.64,67.786a1.493,1.493,0,1,0-1.44-1.491,1.467,1.467,0,0,0,1.44,1.491" transform="translate(0 2.332)" fill="#fff" stroke="#fff" stroke-width="1"/>
            <path id="Trazado_819452" data-name="Trazado 819452" d="M59.04,89.385a1.492,1.492,0,1,0-1.44-1.491,1.466,1.466,0,0,0,1.44,1.491" transform="translate(0 3.109)" fill="#fff" stroke="#fff" stroke-width="1"/>
            <path id="Trazado_819453" data-name="Trazado 819453" d="M59.04,74.987a1.493,1.493,0,1,0-1.44-1.493,1.467,1.467,0,0,0,1.44,1.493" transform="translate(0 2.591)" fill="#fff" stroke="#fff" stroke-width="1"/>
            <path id="Trazado_819454" data-name="Trazado 819454" d="M87.84,60.584a1.492,1.492,0,1,0-1.44-1.491,1.467,1.467,0,0,0,1.44,1.491" transform="translate(0 2.073)" fill="#fff" stroke="#fff" stroke-width="1"/>
            <path id="Trazado_819455" data-name="Trazado 819455" d="M73.439,60.584A1.492,1.492,0,1,0,72,59.093a1.467,1.467,0,0,0,1.439,1.491" transform="translate(0 2.073)" fill="#fff" stroke="#fff" stroke-width="1"/>
            <path id="Trazado_819456" data-name="Trazado 819456" d="M59.04,60.584a1.492,1.492,0,1,0-1.44-1.491,1.466,1.466,0,0,0,1.44,1.491" transform="translate(0 2.073)" fill="#fff" stroke="#fff" stroke-width="1"/>
            <path id="Trazado_819457" data-name="Trazado 819457" d="M87.84,118.186a1.492,1.492,0,1,0-1.44-1.491,1.467,1.467,0,0,0,1.44,1.491" transform="translate(0 4.145)" fill="#fff" stroke="#fff" stroke-width="1"/>
            <path id="Trazado_819458" data-name="Trazado 819458" d="M73.439,118.186A1.492,1.492,0,1,0,72,116.695a1.467,1.467,0,0,0,1.439,1.491" transform="translate(0 4.145)" fill="#fff" stroke="#fff" stroke-width="1"/>
            <path id="Trazado_819459" data-name="Trazado 819459" d="M87.84,103.788a1.493,1.493,0,1,0-1.44-1.493,1.468,1.468,0,0,0,1.44,1.493" transform="translate(0 3.627)" fill="#fff" stroke="#fff" stroke-width="1"/>
            <path id="Trazado_819460" data-name="Trazado 819460" d="M73.439,103.788A1.493,1.493,0,1,0,72,102.295a1.468,1.468,0,0,0,1.439,1.493" transform="translate(0 3.627)" fill="#fff" stroke="#fff" stroke-width="1"/>
            <path id="Trazado_819461" data-name="Trazado 819461" d="M66.239,110.987A1.493,1.493,0,1,0,64.8,109.5a1.467,1.467,0,0,0,1.439,1.491" transform="translate(0 3.886)" fill="#fff" stroke="#fff" stroke-width="1"/>
            <path id="Trazado_819462" data-name="Trazado 819462" d="M80.64,110.987A1.493,1.493,0,1,0,79.2,109.5a1.467,1.467,0,0,0,1.44,1.491" transform="translate(0 3.886)" fill="#fff" stroke="#fff" stroke-width="1"/>
            <path id="Trazado_819463" data-name="Trazado 819463" d="M66.239,96.586A1.493,1.493,0,1,0,64.8,95.095a1.467,1.467,0,0,0,1.439,1.491" transform="translate(0 3.368)" fill="#fff" stroke="#fff" stroke-width="1"/>
            <path id="Trazado_819464" data-name="Trazado 819464" d="M80.64,96.586a1.493,1.493,0,1,0-1.44-1.491,1.467,1.467,0,0,0,1.44,1.491" transform="translate(0 3.368)" fill="#fff" stroke="#fff" stroke-width="1"/>
            <path id="Trazado_819465" data-name="Trazado 819465" d="M59.04,118.186a1.492,1.492,0,1,0-1.44-1.491,1.466,1.466,0,0,0,1.44,1.491" transform="translate(0 4.145)" fill="#fff" stroke="#fff" stroke-width="1"/>
            <path id="Trazado_819466" data-name="Trazado 819466" d="M59.04,103.788a1.493,1.493,0,1,0-1.44-1.493,1.467,1.467,0,0,0,1.44,1.493" transform="translate(0 3.627)" fill="#fff" stroke="#fff" stroke-width="1"/>
            <path id="Trazado_819467" data-name="Trazado 819467" d="M87.84,89.385a1.492,1.492,0,1,0-1.44-1.491,1.467,1.467,0,0,0,1.44,1.491" transform="translate(0 3.109)" fill="#fff" stroke="#fff" stroke-width="1"/>
            <path id="Trazado_819468" data-name="Trazado 819468" d="M73.439,89.385A1.492,1.492,0,1,0,72,87.894a1.467,1.467,0,0,0,1.439,1.491" transform="translate(0 3.109)" fill="#fff" stroke="#fff" stroke-width="1"/>
            <path id="Trazado_819469" data-name="Trazado 819469" d="M59.04,89.385a1.492,1.492,0,1,0-1.44-1.491,1.466,1.466,0,0,0,1.44,1.491" transform="translate(0 3.109)" fill="#fff" stroke="#fff" stroke-width="1"/>
            <path id="Trazado_819470" data-name="Trazado 819470" d="M87.84,146.987A1.492,1.492,0,1,0,86.4,145.5a1.467,1.467,0,0,0,1.44,1.491" transform="translate(0 5.181)" fill="#fff" stroke="#fff" stroke-width="1"/>
            <path id="Trazado_819471" data-name="Trazado 819471" d="M73.439,146.987A1.492,1.492,0,1,0,72,145.5a1.467,1.467,0,0,0,1.439,1.491" transform="translate(0 5.181)" fill="#fff" stroke="#fff" stroke-width="1"/>
            <path id="Trazado_819472" data-name="Trazado 819472" d="M87.84,132.588a1.493,1.493,0,1,0-1.44-1.493,1.468,1.468,0,0,0,1.44,1.493" transform="translate(0 4.663)" fill="#fff" stroke="#fff" stroke-width="1"/>
            <path id="Trazado_819473" data-name="Trazado 819473" d="M73.439,132.588A1.493,1.493,0,1,0,72,131.095a1.468,1.468,0,0,0,1.439,1.493" transform="translate(0 4.663)" fill="#fff" stroke="#fff" stroke-width="1"/>
            <path id="Trazado_819474" data-name="Trazado 819474" d="M66.239,139.788A1.493,1.493,0,1,0,64.8,138.3a1.467,1.467,0,0,0,1.439,1.491" transform="translate(0 4.922)" fill="#fff" stroke="#fff" stroke-width="1"/>
            <path id="Trazado_819475" data-name="Trazado 819475" d="M80.64,139.788A1.493,1.493,0,1,0,79.2,138.3a1.467,1.467,0,0,0,1.44,1.491" transform="translate(0 4.922)" fill="#fff" stroke="#fff" stroke-width="1"/>
            <path id="Trazado_819476" data-name="Trazado 819476" d="M66.239,125.387a1.493,1.493,0,1,0-1.439-1.492,1.467,1.467,0,0,0,1.439,1.492" transform="translate(0 4.404)" fill="#fff" stroke="#fff" stroke-width="1"/>
            <path id="Trazado_819477" data-name="Trazado 819477" d="M80.64,125.387a1.493,1.493,0,1,0-1.44-1.492,1.467,1.467,0,0,0,1.44,1.492" transform="translate(0 4.404)" fill="#fff" stroke="#fff" stroke-width="1"/>
            <path id="Trazado_819478" data-name="Trazado 819478" d="M59.04,146.987A1.492,1.492,0,1,0,57.6,145.5a1.466,1.466,0,0,0,1.44,1.491" transform="translate(0 5.181)" fill="#fff" stroke="#fff" stroke-width="1"/>
            <path id="Trazado_819479" data-name="Trazado 819479" d="M59.04,132.588a1.493,1.493,0,1,0-1.44-1.493,1.467,1.467,0,0,0,1.44,1.493" transform="translate(0 4.663)" fill="#fff" stroke="#fff" stroke-width="1"/>
            <path id="Trazado_819480" data-name="Trazado 819480" d="M87.84,118.186a1.492,1.492,0,1,0-1.44-1.491,1.467,1.467,0,0,0,1.44,1.491" transform="translate(0 4.145)" fill="#fff" stroke="#fff" stroke-width="1"/>
            <path id="Trazado_819481" data-name="Trazado 819481" d="M73.439,118.186A1.492,1.492,0,1,0,72,116.695a1.467,1.467,0,0,0,1.439,1.491" transform="translate(0 4.145)" fill="#fff" stroke="#fff" stroke-width="1"/>
            <path id="Trazado_819482" data-name="Trazado 819482" d="M59.04,118.186a1.492,1.492,0,1,0-1.44-1.491,1.466,1.466,0,0,0,1.44,1.491" transform="translate(0 4.145)" fill="#fff" stroke="#fff" stroke-width="1"/>
            <path id="Trazado_819483" data-name="Trazado 819483" d="M87.84,175.788A1.492,1.492,0,1,0,86.4,174.3a1.467,1.467,0,0,0,1.44,1.491" transform="translate(0 6.218)" fill="#fff" stroke="#fff" stroke-width="1"/>
            <path id="Trazado_819484" data-name="Trazado 819484" d="M73.439,175.788A1.492,1.492,0,1,0,72,174.3a1.467,1.467,0,0,0,1.439,1.491" transform="translate(0 6.218)" fill="#fff" stroke="#fff" stroke-width="1"/>
            <path id="Trazado_819485" data-name="Trazado 819485" d="M87.84,161.389A1.493,1.493,0,1,0,86.4,159.9a1.468,1.468,0,0,0,1.44,1.493" transform="translate(0 5.7)" fill="#fff" stroke="#fff" stroke-width="1"/>
            <path id="Trazado_819486" data-name="Trazado 819486" d="M73.439,161.389A1.493,1.493,0,1,0,72,159.9a1.468,1.468,0,0,0,1.439,1.493" transform="translate(0 5.7)" fill="#fff" stroke="#fff" stroke-width="1"/>
            <path id="Trazado_819487" data-name="Trazado 819487" d="M66.239,168.588A1.493,1.493,0,1,0,64.8,167.1a1.467,1.467,0,0,0,1.439,1.491" transform="translate(0 5.959)" fill="#fff" stroke="#fff" stroke-width="1"/>
            <path id="Trazado_819488" data-name="Trazado 819488" d="M80.64,168.588A1.493,1.493,0,1,0,79.2,167.1a1.467,1.467,0,0,0,1.44,1.491" transform="translate(0 5.959)" fill="#fff" stroke="#fff" stroke-width="1"/>
            <path id="Trazado_819489" data-name="Trazado 819489" d="M66.239,154.188A1.493,1.493,0,1,0,64.8,152.7a1.466,1.466,0,0,0,1.439,1.491" transform="translate(0 5.44)" fill="#fff" stroke="#fff" stroke-width="1"/>
            <path id="Trazado_819490" data-name="Trazado 819490" d="M80.64,154.188A1.493,1.493,0,1,0,79.2,152.7a1.466,1.466,0,0,0,1.44,1.491" transform="translate(0 5.44)" fill="#fff" stroke="#fff" stroke-width="1"/>
            <path id="Trazado_819491" data-name="Trazado 819491" d="M59.04,175.788A1.492,1.492,0,1,0,57.6,174.3a1.466,1.466,0,0,0,1.44,1.491" transform="translate(0 6.218)" fill="#fff" stroke="#fff" stroke-width="1"/>
            <path id="Trazado_819492" data-name="Trazado 819492" d="M59.04,161.389A1.493,1.493,0,1,0,57.6,159.9a1.467,1.467,0,0,0,1.44,1.493" transform="translate(0 5.7)" fill="#fff" stroke="#fff" stroke-width="1"/>
            <path id="Trazado_819493" data-name="Trazado 819493" d="M87.84,146.987A1.492,1.492,0,1,0,86.4,145.5a1.467,1.467,0,0,0,1.44,1.491" transform="translate(0 5.181)" fill="#fff" stroke="#fff" stroke-width="1"/>
            <path id="Trazado_819494" data-name="Trazado 819494" d="M73.439,146.987A1.492,1.492,0,1,0,72,145.5a1.467,1.467,0,0,0,1.439,1.491" transform="translate(0 5.181)" fill="#fff" stroke="#fff" stroke-width="1"/>
            <path id="Trazado_819495" data-name="Trazado 819495" d="M59.04,146.987A1.492,1.492,0,1,0,57.6,145.5a1.466,1.466,0,0,0,1.44,1.491" transform="translate(0 5.181)" fill="#fff" stroke="#fff" stroke-width="1"/>
            <path id="Trazado_819496" data-name="Trazado 819496" d="M87.84,204.588A1.492,1.492,0,1,0,86.4,203.1a1.467,1.467,0,0,0,1.44,1.491" transform="translate(0 7.254)" fill="#fff" stroke="#fff" stroke-width="1"/>
            <path id="Trazado_819497" data-name="Trazado 819497" d="M73.439,204.588A1.492,1.492,0,1,0,72,203.1a1.467,1.467,0,0,0,1.439,1.491" transform="translate(0 7.254)" fill="#fff" stroke="#fff" stroke-width="1"/>
            <path id="Trazado_819498" data-name="Trazado 819498" d="M87.84,190.19A1.493,1.493,0,1,0,86.4,188.7a1.468,1.468,0,0,0,1.44,1.493" transform="translate(0 6.736)" fill="#fff" stroke="#fff" stroke-width="1"/>
            <path id="Trazado_819499" data-name="Trazado 819499" d="M73.439,190.19A1.493,1.493,0,1,0,72,188.7a1.468,1.468,0,0,0,1.439,1.493" transform="translate(0 6.736)" fill="#fff" stroke="#fff" stroke-width="1"/>
            <path id="Trazado_819500" data-name="Trazado 819500" d="M66.239,197.389A1.493,1.493,0,1,0,64.8,195.9a1.467,1.467,0,0,0,1.439,1.491" transform="translate(0 6.995)" fill="#fff" stroke="#fff" stroke-width="1"/>
            <path id="Trazado_819501" data-name="Trazado 819501" d="M80.64,197.389A1.493,1.493,0,1,0,79.2,195.9a1.467,1.467,0,0,0,1.44,1.491" transform="translate(0 6.995)" fill="#fff" stroke="#fff" stroke-width="1"/>
            <path id="Trazado_819502" data-name="Trazado 819502" d="M66.239,182.989A1.493,1.493,0,1,0,64.8,181.5a1.467,1.467,0,0,0,1.439,1.492" transform="translate(0 6.477)" fill="#fff" stroke="#fff" stroke-width="1"/>
            <path id="Trazado_819503" data-name="Trazado 819503" d="M80.64,182.989A1.493,1.493,0,1,0,79.2,181.5a1.467,1.467,0,0,0,1.44,1.492" transform="translate(0 6.477)" fill="#fff" stroke="#fff" stroke-width="1"/>
            <path id="Trazado_819504" data-name="Trazado 819504" d="M59.04,204.588A1.492,1.492,0,1,0,57.6,203.1a1.466,1.466,0,0,0,1.44,1.491" transform="translate(0 7.254)" fill="#fff" stroke="#fff" stroke-width="1"/>
            <path id="Trazado_819505" data-name="Trazado 819505" d="M59.04,190.19A1.493,1.493,0,1,0,57.6,188.7a1.467,1.467,0,0,0,1.44,1.493" transform="translate(0 6.736)" fill="#fff" stroke="#fff" stroke-width="1"/>
            <path id="Trazado_819506" data-name="Trazado 819506" d="M87.84,175.788A1.492,1.492,0,1,0,86.4,174.3a1.467,1.467,0,0,0,1.44,1.491" transform="translate(0 6.218)" fill="#fff" stroke="#fff" stroke-width="1"/>
            <path id="Trazado_819507" data-name="Trazado 819507" d="M73.439,175.788A1.492,1.492,0,1,0,72,174.3a1.467,1.467,0,0,0,1.439,1.491" transform="translate(0 6.218)" fill="#fff" stroke="#fff" stroke-width="1"/>
            <path id="Trazado_819508" data-name="Trazado 819508" d="M59.04,175.788A1.492,1.492,0,1,0,57.6,174.3a1.466,1.466,0,0,0,1.44,1.491" transform="translate(0 6.218)" fill="#fff" stroke="#fff" stroke-width="1"/>
            <path id="Trazado_819509" data-name="Trazado 819509" d="M87.84,233.389A1.492,1.492,0,1,0,86.4,231.9a1.467,1.467,0,0,0,1.44,1.491" transform="translate(0 8.29)" fill="#fff" stroke="#fff" stroke-width="1"/>
            <path id="Trazado_819510" data-name="Trazado 819510" d="M73.439,233.389A1.492,1.492,0,1,0,72,231.9a1.467,1.467,0,0,0,1.439,1.491" transform="translate(0 8.29)" fill="#fff" stroke="#fff" stroke-width="1"/>
            <path id="Trazado_819511" data-name="Trazado 819511" d="M87.84,218.991A1.493,1.493,0,1,0,86.4,217.5a1.468,1.468,0,0,0,1.44,1.493" transform="translate(0 7.772)" fill="#fff" stroke="#fff" stroke-width="1"/>
            <path id="Trazado_819512" data-name="Trazado 819512" d="M73.439,218.991A1.493,1.493,0,1,0,72,217.5a1.468,1.468,0,0,0,1.439,1.493" transform="translate(0 7.772)" fill="#fff" stroke="#fff" stroke-width="1"/>
            <path id="Trazado_819513" data-name="Trazado 819513" d="M66.239,226.19A1.493,1.493,0,1,0,64.8,224.7a1.467,1.467,0,0,0,1.439,1.491" transform="translate(0 8.031)" fill="#fff" stroke="#fff" stroke-width="1"/>
            <path id="Trazado_819514" data-name="Trazado 819514" d="M80.64,226.19A1.493,1.493,0,1,0,79.2,224.7a1.467,1.467,0,0,0,1.44,1.491" transform="translate(0 8.031)" fill="#fff" stroke="#fff" stroke-width="1"/>
            <path id="Trazado_819515" data-name="Trazado 819515" d="M66.239,211.789A1.493,1.493,0,1,0,64.8,210.3a1.467,1.467,0,0,0,1.439,1.492" transform="translate(0 7.513)" fill="#fff" stroke="#fff" stroke-width="1"/>
            <path id="Trazado_819516" data-name="Trazado 819516" d="M80.64,211.789A1.493,1.493,0,1,0,79.2,210.3a1.467,1.467,0,0,0,1.44,1.492" transform="translate(0 7.513)" fill="#fff" stroke="#fff" stroke-width="1"/>
            <path id="Trazado_819517" data-name="Trazado 819517" d="M59.04,233.389A1.492,1.492,0,1,0,57.6,231.9a1.466,1.466,0,0,0,1.44,1.491" transform="translate(0 8.29)" fill="#fff" stroke="#fff" stroke-width="1"/>
            <path id="Trazado_819518" data-name="Trazado 819518" d="M59.04,218.991A1.493,1.493,0,1,0,57.6,217.5a1.467,1.467,0,0,0,1.44,1.493" transform="translate(0 7.772)" fill="#fff" stroke="#fff" stroke-width="1"/>
            <path id="Trazado_819519" data-name="Trazado 819519" d="M87.84,204.588A1.492,1.492,0,1,0,86.4,203.1a1.467,1.467,0,0,0,1.44,1.491" transform="translate(0 7.254)" fill="#fff" stroke="#fff" stroke-width="1"/>
            <path id="Trazado_819520" data-name="Trazado 819520" d="M73.439,204.588A1.492,1.492,0,1,0,72,203.1a1.467,1.467,0,0,0,1.439,1.491" transform="translate(0 7.254)" fill="#fff" stroke="#fff" stroke-width="1"/>
            <path id="Trazado_819521" data-name="Trazado 819521" d="M59.04,204.588A1.492,1.492,0,1,0,57.6,203.1a1.466,1.466,0,0,0,1.44,1.491" transform="translate(0 7.254)" fill="#fff" stroke="#fff" stroke-width="1"/>
            <path id="Trazado_819522" data-name="Trazado 819522" d="M59.04,31.784a1.492,1.492,0,1,0-1.44-1.491,1.466,1.466,0,0,0,1.44,1.491" transform="translate(0 1.036)" fill="#fff" stroke="#fff" stroke-width="1"/>
            <path id="Trazado_819523" data-name="Trazado 819523" d="M44.64,31.784A1.492,1.492,0,1,0,43.2,30.293a1.468,1.468,0,0,0,1.439,1.491" transform="translate(0 1.036)" fill="#fff" stroke="#fff" stroke-width="1"/>
            <path id="Trazado_819524" data-name="Trazado 819524" d="M59.04,17.385a1.493,1.493,0,1,0-1.44-1.493,1.467,1.467,0,0,0,1.44,1.493" transform="translate(0 0.518)" fill="#fff" stroke="#fff" stroke-width="1"/>
            <path id="Trazado_819525" data-name="Trazado 819525" d="M44.64,17.385A1.493,1.493,0,1,0,43.2,15.892a1.469,1.469,0,0,0,1.439,1.493" transform="translate(0 0.518)" fill="#fff" stroke="#fff" stroke-width="1"/>
            <path id="Trazado_819526" data-name="Trazado 819526" d="M37.439,24.584A1.493,1.493,0,1,0,36,23.094a1.466,1.466,0,0,0,1.439,1.49" transform="translate(0 0.777)" fill="#fff" stroke="#fff" stroke-width="1"/>
            <path id="Trazado_819527" data-name="Trazado 819527" d="M51.84,24.584a1.493,1.493,0,1,0-1.44-1.49,1.467,1.467,0,0,0,1.44,1.49" transform="translate(0 0.777)" fill="#fff" stroke="#fff" stroke-width="1"/>
            <path id="Trazado_819528" data-name="Trazado 819528" d="M37.439,10.184A1.493,1.493,0,1,0,36,8.693a1.467,1.467,0,0,0,1.439,1.491" transform="translate(0 0.259)" fill="#fff" stroke="#fff" stroke-width="1"/>
            <path id="Trazado_819529" data-name="Trazado 819529" d="M51.84,10.184A1.493,1.493,0,1,0,50.4,8.693a1.468,1.468,0,0,0,1.44,1.491" transform="translate(0 0.259)" fill="#fff" stroke="#fff" stroke-width="1"/>
            <path id="Trazado_819530" data-name="Trazado 819530" d="M30.24,31.784a1.492,1.492,0,1,0-1.44-1.491,1.466,1.466,0,0,0,1.44,1.491" transform="translate(0 1.036)" fill="#fff" stroke="#fff" stroke-width="1"/>
            <path id="Trazado_819531" data-name="Trazado 819531" d="M30.24,17.385a1.493,1.493,0,1,0-1.44-1.493,1.467,1.467,0,0,0,1.44,1.493" transform="translate(0 0.518)" fill="#fff" stroke="#fff" stroke-width="1"/>
            <path id="Trazado_819532" data-name="Trazado 819532" d="M59.04,2.983a1.466,1.466,0,0,0,1.439-1.491,1.44,1.44,0,1,0-2.879,0,1.466,1.466,0,0,0,1.44,1.491" fill="#fff" stroke="#fff" stroke-width="1"/>
            <path id="Trazado_819533" data-name="Trazado 819533" d="M44.64,2.983a1.468,1.468,0,0,0,1.441-1.491,1.441,1.441,0,1,0-2.88,0A1.465,1.465,0,0,0,44.64,2.983" fill="#fff" stroke="#fff" stroke-width="1"/>
            <path id="Trazado_819534" data-name="Trazado 819534" d="M30.24,2.983a1.466,1.466,0,0,0,1.439-1.491,1.44,1.44,0,1,0-2.879,0,1.466,1.466,0,0,0,1.44,1.491" fill="#fff" stroke="#fff" stroke-width="1"/>
            <path id="Trazado_819535" data-name="Trazado 819535" d="M59.04,60.584a1.492,1.492,0,1,0-1.44-1.49,1.465,1.465,0,0,0,1.44,1.49" transform="translate(0 2.073)" fill="#fff" stroke="#fff" stroke-width="1"/>
            <path id="Trazado_819536" data-name="Trazado 819536" d="M44.64,60.584a1.492,1.492,0,1,0-1.439-1.49,1.467,1.467,0,0,0,1.439,1.49" transform="translate(0 2.073)" fill="#fff" stroke="#fff" stroke-width="1"/>
            <path id="Trazado_819537" data-name="Trazado 819537" d="M59.04,46.186a1.493,1.493,0,1,0-1.44-1.493,1.467,1.467,0,0,0,1.44,1.493" transform="translate(0 1.554)" fill="#fff" stroke="#fff" stroke-width="1"/>
            <path id="Trazado_819538" data-name="Trazado 819538" d="M44.64,46.186A1.493,1.493,0,1,0,43.2,44.693a1.469,1.469,0,0,0,1.439,1.493" transform="translate(0 1.554)" fill="#fff" stroke="#fff" stroke-width="1"/>
            <path id="Trazado_819539" data-name="Trazado 819539" d="M37.439,53.385A1.493,1.493,0,1,0,36,51.894a1.467,1.467,0,0,0,1.439,1.491" transform="translate(0 1.813)" fill="#fff" stroke="#fff" stroke-width="1"/>
            <path id="Trazado_819540" data-name="Trazado 819540" d="M51.84,53.385a1.493,1.493,0,1,0-1.44-1.491,1.468,1.468,0,0,0,1.44,1.491" transform="translate(0 1.813)" fill="#fff" stroke="#fff" stroke-width="1"/>
            <path id="Trazado_819541" data-name="Trazado 819541" d="M37.439,38.985A1.493,1.493,0,1,0,36,37.494a1.467,1.467,0,0,0,1.439,1.491" transform="translate(0 1.295)" fill="#fff" stroke="#fff" stroke-width="1"/>
            <path id="Trazado_819542" data-name="Trazado 819542" d="M51.84,38.985a1.493,1.493,0,1,0-1.44-1.491,1.468,1.468,0,0,0,1.44,1.491" transform="translate(0 1.295)" fill="#fff" stroke="#fff" stroke-width="1"/>
            <path id="Trazado_819543" data-name="Trazado 819543" d="M30.24,60.584a1.492,1.492,0,1,0-1.44-1.49,1.465,1.465,0,0,0,1.44,1.49" transform="translate(0 2.073)" fill="#fff" stroke="#fff" stroke-width="1"/>
            <path id="Trazado_819544" data-name="Trazado 819544" d="M30.24,46.186a1.493,1.493,0,1,0-1.44-1.493,1.467,1.467,0,0,0,1.44,1.493" transform="translate(0 1.554)" fill="#fff" stroke="#fff" stroke-width="1"/>
            <path id="Trazado_819545" data-name="Trazado 819545" d="M59.04,31.784a1.492,1.492,0,1,0-1.44-1.491,1.466,1.466,0,0,0,1.44,1.491" transform="translate(0 1.036)" fill="#fff" stroke="#fff" stroke-width="1"/>
            <path id="Trazado_819546" data-name="Trazado 819546" d="M44.64,31.784A1.492,1.492,0,1,0,43.2,30.293a1.468,1.468,0,0,0,1.439,1.491" transform="translate(0 1.036)" fill="#fff" stroke="#fff" stroke-width="1"/>
            <path id="Trazado_819547" data-name="Trazado 819547" d="M30.24,31.784a1.492,1.492,0,1,0-1.44-1.491,1.466,1.466,0,0,0,1.44,1.491" transform="translate(0 1.036)" fill="#fff" stroke="#fff" stroke-width="1"/>
            <path id="Trazado_819548" data-name="Trazado 819548" d="M59.04,89.385a1.492,1.492,0,1,0-1.44-1.491,1.466,1.466,0,0,0,1.44,1.491" transform="translate(0 3.109)" fill="#fff" stroke="#fff" stroke-width="1"/>
            <path id="Trazado_819549" data-name="Trazado 819549" d="M44.64,89.385A1.492,1.492,0,1,0,43.2,87.894a1.468,1.468,0,0,0,1.439,1.491" transform="translate(0 3.109)" fill="#fff" stroke="#fff" stroke-width="1"/>
            <path id="Trazado_819550" data-name="Trazado 819550" d="M59.04,74.987a1.493,1.493,0,1,0-1.44-1.493,1.467,1.467,0,0,0,1.44,1.493" transform="translate(0 2.591)" fill="#fff" stroke="#fff" stroke-width="1"/>
            <path id="Trazado_819551" data-name="Trazado 819551" d="M44.64,74.987A1.493,1.493,0,1,0,43.2,73.494a1.469,1.469,0,0,0,1.439,1.493" transform="translate(0 2.591)" fill="#fff" stroke="#fff" stroke-width="1"/>
            <path id="Trazado_819552" data-name="Trazado 819552" d="M37.439,82.186A1.493,1.493,0,1,0,36,80.695a1.467,1.467,0,0,0,1.439,1.491" transform="translate(0 2.85)" fill="#fff" stroke="#fff" stroke-width="1"/>
            <path id="Trazado_819553" data-name="Trazado 819553" d="M51.84,82.186a1.493,1.493,0,1,0-1.44-1.491,1.468,1.468,0,0,0,1.44,1.491" transform="translate(0 2.85)" fill="#fff" stroke="#fff" stroke-width="1"/>
            <path id="Trazado_819554" data-name="Trazado 819554" d="M37.439,67.786A1.493,1.493,0,1,0,36,66.295a1.467,1.467,0,0,0,1.439,1.491" transform="translate(0 2.332)" fill="#fff" stroke="#fff" stroke-width="1"/>
            <path id="Trazado_819555" data-name="Trazado 819555" d="M51.84,67.786a1.493,1.493,0,1,0-1.44-1.491,1.468,1.468,0,0,0,1.44,1.491" transform="translate(0 2.332)" fill="#fff" stroke="#fff" stroke-width="1"/>
            <path id="Trazado_819556" data-name="Trazado 819556" d="M30.24,89.385a1.492,1.492,0,1,0-1.44-1.491,1.466,1.466,0,0,0,1.44,1.491" transform="translate(0 3.109)" fill="#fff" stroke="#fff" stroke-width="1"/>
            <path id="Trazado_819557" data-name="Trazado 819557" d="M30.24,74.987a1.493,1.493,0,1,0-1.44-1.493,1.467,1.467,0,0,0,1.44,1.493" transform="translate(0 2.591)" fill="#fff" stroke="#fff" stroke-width="1"/>
            <path id="Trazado_819558" data-name="Trazado 819558" d="M59.04,60.584a1.492,1.492,0,1,0-1.44-1.491,1.466,1.466,0,0,0,1.44,1.491" transform="translate(0 2.073)" fill="#fff" stroke="#fff" stroke-width="1"/>
            <path id="Trazado_819559" data-name="Trazado 819559" d="M44.64,60.584A1.492,1.492,0,1,0,43.2,59.093a1.468,1.468,0,0,0,1.439,1.491" transform="translate(0 2.073)" fill="#fff" stroke="#fff" stroke-width="1"/>
            <path id="Trazado_819560" data-name="Trazado 819560" d="M30.24,60.584a1.492,1.492,0,1,0-1.44-1.491,1.466,1.466,0,0,0,1.44,1.491" transform="translate(0 2.073)" fill="#fff" stroke="#fff" stroke-width="1"/>
            <path id="Trazado_819561" data-name="Trazado 819561" d="M59.04,118.186a1.492,1.492,0,1,0-1.44-1.491,1.466,1.466,0,0,0,1.44,1.491" transform="translate(0 4.145)" fill="#fff" stroke="#fff" stroke-width="1"/>
            <path id="Trazado_819562" data-name="Trazado 819562" d="M44.64,118.186a1.492,1.492,0,1,0-1.439-1.491,1.468,1.468,0,0,0,1.439,1.491" transform="translate(0 4.145)" fill="#fff" stroke="#fff" stroke-width="1"/>
            <path id="Trazado_819563" data-name="Trazado 819563" d="M59.04,103.788a1.493,1.493,0,1,0-1.44-1.493,1.467,1.467,0,0,0,1.44,1.493" transform="translate(0 3.627)" fill="#fff" stroke="#fff" stroke-width="1"/>
            <path id="Trazado_819564" data-name="Trazado 819564" d="M44.64,103.788a1.493,1.493,0,1,0-1.439-1.493,1.469,1.469,0,0,0,1.439,1.493" transform="translate(0 3.627)" fill="#fff" stroke="#fff" stroke-width="1"/>
            <path id="Trazado_819565" data-name="Trazado 819565" d="M37.439,110.987A1.493,1.493,0,1,0,36,109.5a1.467,1.467,0,0,0,1.439,1.491" transform="translate(0 3.886)" fill="#fff" stroke="#fff" stroke-width="1"/>
            <path id="Trazado_819566" data-name="Trazado 819566" d="M51.84,110.987A1.493,1.493,0,1,0,50.4,109.5a1.468,1.468,0,0,0,1.44,1.491" transform="translate(0 3.886)" fill="#fff" stroke="#fff" stroke-width="1"/>
            <path id="Trazado_819567" data-name="Trazado 819567" d="M37.439,96.586A1.493,1.493,0,1,0,36,95.095a1.467,1.467,0,0,0,1.439,1.491" transform="translate(0 3.368)" fill="#fff" stroke="#fff" stroke-width="1"/>
            <path id="Trazado_819568" data-name="Trazado 819568" d="M51.84,96.586a1.493,1.493,0,1,0-1.44-1.491,1.468,1.468,0,0,0,1.44,1.491" transform="translate(0 3.368)" fill="#fff" stroke="#fff" stroke-width="1"/>
            <path id="Trazado_819569" data-name="Trazado 819569" d="M30.24,118.186a1.492,1.492,0,1,0-1.44-1.491,1.466,1.466,0,0,0,1.44,1.491" transform="translate(0 4.145)" fill="#fff" stroke="#fff" stroke-width="1"/>
            <path id="Trazado_819570" data-name="Trazado 819570" d="M30.24,103.788a1.493,1.493,0,1,0-1.44-1.493,1.467,1.467,0,0,0,1.44,1.493" transform="translate(0 3.627)" fill="#fff" stroke="#fff" stroke-width="1"/>
            <path id="Trazado_819571" data-name="Trazado 819571" d="M59.04,89.385a1.492,1.492,0,1,0-1.44-1.491,1.466,1.466,0,0,0,1.44,1.491" transform="translate(0 3.109)" fill="#fff" stroke="#fff" stroke-width="1"/>
            <path id="Trazado_819572" data-name="Trazado 819572" d="M44.64,89.385A1.492,1.492,0,1,0,43.2,87.894a1.468,1.468,0,0,0,1.439,1.491" transform="translate(0 3.109)" fill="#fff" stroke="#fff" stroke-width="1"/>
            <path id="Trazado_819573" data-name="Trazado 819573" d="M30.24,89.385a1.492,1.492,0,1,0-1.44-1.491,1.466,1.466,0,0,0,1.44,1.491" transform="translate(0 3.109)" fill="#fff" stroke="#fff" stroke-width="1"/>
            <path id="Trazado_819574" data-name="Trazado 819574" d="M59.04,146.987A1.492,1.492,0,1,0,57.6,145.5a1.466,1.466,0,0,0,1.44,1.491" transform="translate(0 5.181)" fill="#fff" stroke="#fff" stroke-width="1"/>
            <path id="Trazado_819575" data-name="Trazado 819575" d="M44.64,146.987A1.492,1.492,0,1,0,43.2,145.5a1.468,1.468,0,0,0,1.439,1.491" transform="translate(0 5.181)" fill="#fff" stroke="#fff" stroke-width="1"/>
            <path id="Trazado_819576" data-name="Trazado 819576" d="M59.04,132.588a1.493,1.493,0,1,0-1.44-1.493,1.467,1.467,0,0,0,1.44,1.493" transform="translate(0 4.663)" fill="#fff" stroke="#fff" stroke-width="1"/>
            <path id="Trazado_819577" data-name="Trazado 819577" d="M44.64,132.588a1.493,1.493,0,1,0-1.439-1.493,1.469,1.469,0,0,0,1.439,1.493" transform="translate(0 4.663)" fill="#fff" stroke="#fff" stroke-width="1"/>
            <path id="Trazado_819578" data-name="Trazado 819578" d="M37.439,139.788A1.493,1.493,0,1,0,36,138.3a1.467,1.467,0,0,0,1.439,1.491" transform="translate(0 4.922)" fill="#fff" stroke="#fff" stroke-width="1"/>
            <path id="Trazado_819579" data-name="Trazado 819579" d="M51.84,139.788A1.493,1.493,0,1,0,50.4,138.3a1.468,1.468,0,0,0,1.44,1.491" transform="translate(0 4.922)" fill="#fff" stroke="#fff" stroke-width="1"/>
            <path id="Trazado_819580" data-name="Trazado 819580" d="M37.439,125.387A1.493,1.493,0,1,0,36,123.895a1.467,1.467,0,0,0,1.439,1.492" transform="translate(0 4.404)" fill="#fff" stroke="#fff" stroke-width="1"/>
            <path id="Trazado_819581" data-name="Trazado 819581" d="M51.84,125.387a1.493,1.493,0,1,0-1.44-1.492,1.468,1.468,0,0,0,1.44,1.492" transform="translate(0 4.404)" fill="#fff" stroke="#fff" stroke-width="1"/>
            <path id="Trazado_819582" data-name="Trazado 819582" d="M30.24,146.987A1.492,1.492,0,1,0,28.8,145.5a1.466,1.466,0,0,0,1.44,1.491" transform="translate(0 5.181)" fill="#fff" stroke="#fff" stroke-width="1"/>
            <path id="Trazado_819583" data-name="Trazado 819583" d="M30.24,132.588a1.493,1.493,0,1,0-1.44-1.493,1.467,1.467,0,0,0,1.44,1.493" transform="translate(0 4.663)" fill="#fff" stroke="#fff" stroke-width="1"/>
            <path id="Trazado_819584" data-name="Trazado 819584" d="M59.04,118.186a1.492,1.492,0,1,0-1.44-1.491,1.466,1.466,0,0,0,1.44,1.491" transform="translate(0 4.145)" fill="#fff" stroke="#fff" stroke-width="1"/>
            <path id="Trazado_819585" data-name="Trazado 819585" d="M44.64,118.186a1.492,1.492,0,1,0-1.439-1.491,1.468,1.468,0,0,0,1.439,1.491" transform="translate(0 4.145)" fill="#fff" stroke="#fff" stroke-width="1"/>
            <path id="Trazado_819586" data-name="Trazado 819586" d="M30.24,118.186a1.492,1.492,0,1,0-1.44-1.491,1.466,1.466,0,0,0,1.44,1.491" transform="translate(0 4.145)" fill="#fff" stroke="#fff" stroke-width="1"/>
            <path id="Trazado_819587" data-name="Trazado 819587" d="M59.04,175.788A1.492,1.492,0,1,0,57.6,174.3a1.466,1.466,0,0,0,1.44,1.491" transform="translate(0 6.218)" fill="#fff" stroke="#fff" stroke-width="1"/>
            <path id="Trazado_819588" data-name="Trazado 819588" d="M44.64,175.788A1.492,1.492,0,1,0,43.2,174.3a1.468,1.468,0,0,0,1.439,1.491" transform="translate(0 6.218)" fill="#fff" stroke="#fff" stroke-width="1"/>
            <path id="Trazado_819589" data-name="Trazado 819589" d="M59.04,161.389A1.493,1.493,0,1,0,57.6,159.9a1.467,1.467,0,0,0,1.44,1.493" transform="translate(0 5.7)" fill="#fff" stroke="#fff" stroke-width="1"/>
            <path id="Trazado_819590" data-name="Trazado 819590" d="M44.64,161.389A1.493,1.493,0,1,0,43.2,159.9a1.469,1.469,0,0,0,1.439,1.493" transform="translate(0 5.7)" fill="#fff" stroke="#fff" stroke-width="1"/>
            <path id="Trazado_819591" data-name="Trazado 819591" d="M37.439,168.588A1.493,1.493,0,1,0,36,167.1a1.467,1.467,0,0,0,1.439,1.491" transform="translate(0 5.959)" fill="#fff" stroke="#fff" stroke-width="1"/>
            <path id="Trazado_819592" data-name="Trazado 819592" d="M51.84,168.588A1.493,1.493,0,1,0,50.4,167.1a1.468,1.468,0,0,0,1.44,1.491" transform="translate(0 5.959)" fill="#fff" stroke="#fff" stroke-width="1"/>
            <path id="Trazado_819593" data-name="Trazado 819593" d="M37.439,154.188A1.493,1.493,0,1,0,36,152.7a1.466,1.466,0,0,0,1.439,1.491" transform="translate(0 5.44)" fill="#fff" stroke="#fff" stroke-width="1"/>
            <path id="Trazado_819594" data-name="Trazado 819594" d="M51.84,154.188A1.493,1.493,0,1,0,50.4,152.7a1.467,1.467,0,0,0,1.44,1.491" transform="translate(0 5.44)" fill="#fff" stroke="#fff" stroke-width="1"/>
            <path id="Trazado_819595" data-name="Trazado 819595" d="M30.24,175.788A1.492,1.492,0,1,0,28.8,174.3a1.466,1.466,0,0,0,1.44,1.491" transform="translate(0 6.218)" fill="#fff" stroke="#fff" stroke-width="1"/>
            <path id="Trazado_819596" data-name="Trazado 819596" d="M30.24,161.389A1.493,1.493,0,1,0,28.8,159.9a1.467,1.467,0,0,0,1.44,1.493" transform="translate(0 5.7)" fill="#fff" stroke="#fff" stroke-width="1"/>
            <path id="Trazado_819597" data-name="Trazado 819597" d="M59.04,146.987A1.492,1.492,0,1,0,57.6,145.5a1.466,1.466,0,0,0,1.44,1.491" transform="translate(0 5.181)" fill="#fff" stroke="#fff" stroke-width="1"/>
            <path id="Trazado_819598" data-name="Trazado 819598" d="M44.64,146.987A1.492,1.492,0,1,0,43.2,145.5a1.468,1.468,0,0,0,1.439,1.491" transform="translate(0 5.181)" fill="#fff" stroke="#fff" stroke-width="1"/>
            <path id="Trazado_819599" data-name="Trazado 819599" d="M30.24,146.987A1.492,1.492,0,1,0,28.8,145.5a1.466,1.466,0,0,0,1.44,1.491" transform="translate(0 5.181)" fill="#fff" stroke="#fff" stroke-width="1"/>
            <path id="Trazado_819600" data-name="Trazado 819600" d="M59.04,204.588A1.492,1.492,0,1,0,57.6,203.1a1.466,1.466,0,0,0,1.44,1.491" transform="translate(0 7.254)" fill="#fff" stroke="#fff" stroke-width="1"/>
            <path id="Trazado_819601" data-name="Trazado 819601" d="M44.64,204.588A1.492,1.492,0,1,0,43.2,203.1a1.468,1.468,0,0,0,1.439,1.491" transform="translate(0 7.254)" fill="#fff" stroke="#fff" stroke-width="1"/>
            <path id="Trazado_819602" data-name="Trazado 819602" d="M59.04,190.19A1.493,1.493,0,1,0,57.6,188.7a1.467,1.467,0,0,0,1.44,1.493" transform="translate(0 6.736)" fill="#fff" stroke="#fff" stroke-width="1"/>
            <path id="Trazado_819603" data-name="Trazado 819603" d="M44.64,190.19A1.493,1.493,0,1,0,43.2,188.7a1.469,1.469,0,0,0,1.439,1.493" transform="translate(0 6.736)" fill="#fff" stroke="#fff" stroke-width="1"/>
            <path id="Trazado_819604" data-name="Trazado 819604" d="M37.439,197.389A1.493,1.493,0,1,0,36,195.9a1.467,1.467,0,0,0,1.439,1.491" transform="translate(0 6.995)" fill="#fff" stroke="#fff" stroke-width="1"/>
            <path id="Trazado_819605" data-name="Trazado 819605" d="M51.84,197.389A1.493,1.493,0,1,0,50.4,195.9a1.468,1.468,0,0,0,1.44,1.491" transform="translate(0 6.995)" fill="#fff" stroke="#fff" stroke-width="1"/>
            <path id="Trazado_819606" data-name="Trazado 819606" d="M37.439,182.989A1.493,1.493,0,1,0,36,181.5a1.467,1.467,0,0,0,1.439,1.492" transform="translate(0 6.477)" fill="#fff" stroke="#fff" stroke-width="1"/>
            <path id="Trazado_819607" data-name="Trazado 819607" d="M51.84,182.989A1.493,1.493,0,1,0,50.4,181.5a1.468,1.468,0,0,0,1.44,1.492" transform="translate(0 6.477)" fill="#fff" stroke="#fff" stroke-width="1"/>
            <path id="Trazado_819608" data-name="Trazado 819608" d="M30.24,204.588A1.492,1.492,0,1,0,28.8,203.1a1.466,1.466,0,0,0,1.44,1.491" transform="translate(0 7.254)" fill="#fff" stroke="#fff" stroke-width="1"/>
            <path id="Trazado_819609" data-name="Trazado 819609" d="M30.24,190.19A1.493,1.493,0,1,0,28.8,188.7a1.467,1.467,0,0,0,1.44,1.493" transform="translate(0 6.736)" fill="#fff" stroke="#fff" stroke-width="1"/>
            <path id="Trazado_819610" data-name="Trazado 819610" d="M59.04,175.788A1.492,1.492,0,1,0,57.6,174.3a1.466,1.466,0,0,0,1.44,1.491" transform="translate(0 6.218)" fill="#fff" stroke="#fff" stroke-width="1"/>
            <path id="Trazado_819611" data-name="Trazado 819611" d="M44.64,175.788A1.492,1.492,0,1,0,43.2,174.3a1.468,1.468,0,0,0,1.439,1.491" transform="translate(0 6.218)" fill="#fff" stroke="#fff" stroke-width="1"/>
            <path id="Trazado_819612" data-name="Trazado 819612" d="M30.24,175.788A1.492,1.492,0,1,0,28.8,174.3a1.466,1.466,0,0,0,1.44,1.491" transform="translate(0 6.218)" fill="#fff" stroke="#fff" stroke-width="1"/>
            <path id="Trazado_819613" data-name="Trazado 819613" d="M59.04,233.389A1.492,1.492,0,1,0,57.6,231.9a1.466,1.466,0,0,0,1.44,1.491" transform="translate(0 8.29)" fill="#fff" stroke="#fff" stroke-width="1"/>
            <path id="Trazado_819614" data-name="Trazado 819614" d="M44.64,233.389A1.492,1.492,0,1,0,43.2,231.9a1.468,1.468,0,0,0,1.439,1.491" transform="translate(0 8.29)" fill="#fff" stroke="#fff" stroke-width="1"/>
            <path id="Trazado_819615" data-name="Trazado 819615" d="M59.04,218.991A1.493,1.493,0,1,0,57.6,217.5a1.467,1.467,0,0,0,1.44,1.493" transform="translate(0 7.772)" fill="#fff" stroke="#fff" stroke-width="1"/>
            <path id="Trazado_819616" data-name="Trazado 819616" d="M44.64,218.991A1.493,1.493,0,1,0,43.2,217.5a1.469,1.469,0,0,0,1.439,1.493" transform="translate(0 7.772)" fill="#fff" stroke="#fff" stroke-width="1"/>
            <path id="Trazado_819617" data-name="Trazado 819617" d="M37.439,226.19A1.493,1.493,0,1,0,36,224.7a1.467,1.467,0,0,0,1.439,1.491" transform="translate(0 8.031)" fill="#fff" stroke="#fff" stroke-width="1"/>
            <path id="Trazado_819618" data-name="Trazado 819618" d="M51.84,226.19A1.493,1.493,0,1,0,50.4,224.7a1.468,1.468,0,0,0,1.44,1.491" transform="translate(0 8.031)" fill="#fff" stroke="#fff" stroke-width="1"/>
            <path id="Trazado_819619" data-name="Trazado 819619" d="M37.439,211.789A1.493,1.493,0,1,0,36,210.3a1.467,1.467,0,0,0,1.439,1.492" transform="translate(0 7.513)" fill="#fff" stroke="#fff" stroke-width="1"/>
            <path id="Trazado_819620" data-name="Trazado 819620" d="M51.84,211.789A1.493,1.493,0,1,0,50.4,210.3a1.468,1.468,0,0,0,1.44,1.492" transform="translate(0 7.513)" fill="#fff" stroke="#fff" stroke-width="1"/>
            <path id="Trazado_819621" data-name="Trazado 819621" d="M30.24,233.389A1.492,1.492,0,1,0,28.8,231.9a1.466,1.466,0,0,0,1.44,1.491" transform="translate(0 8.29)" fill="#fff" stroke="#fff" stroke-width="1"/>
            <path id="Trazado_819622" data-name="Trazado 819622" d="M30.24,218.991A1.493,1.493,0,1,0,28.8,217.5a1.467,1.467,0,0,0,1.44,1.493" transform="translate(0 7.772)" fill="#fff" stroke="#fff" stroke-width="1"/>
            <path id="Trazado_819623" data-name="Trazado 819623" d="M59.04,204.588A1.492,1.492,0,1,0,57.6,203.1a1.466,1.466,0,0,0,1.44,1.491" transform="translate(0 7.254)" fill="#fff" stroke="#fff" stroke-width="1"/>
            <path id="Trazado_819624" data-name="Trazado 819624" d="M44.64,204.588A1.492,1.492,0,1,0,43.2,203.1a1.468,1.468,0,0,0,1.439,1.491" transform="translate(0 7.254)" fill="#fff" stroke="#fff" stroke-width="1"/>
            <path id="Trazado_819625" data-name="Trazado 819625" d="M30.24,204.588A1.492,1.492,0,1,0,28.8,203.1a1.466,1.466,0,0,0,1.44,1.491" transform="translate(0 7.254)" fill="#fff" stroke="#fff" stroke-width="1"/>
            <path id="Trazado_819626" data-name="Trazado 819626" d="M30.24,31.784a1.492,1.492,0,1,0-1.44-1.491,1.466,1.466,0,0,0,1.44,1.491" transform="translate(0 1.036)" fill="#fff" stroke="#fff" stroke-width="1"/>
            <path id="Trazado_819627" data-name="Trazado 819627" d="M15.84,31.784A1.492,1.492,0,1,0,14.4,30.293a1.468,1.468,0,0,0,1.439,1.491" transform="translate(0 1.036)" fill="#fff" stroke="#fff" stroke-width="1"/>
            <path id="Trazado_819628" data-name="Trazado 819628" d="M30.24,17.385a1.493,1.493,0,1,0-1.44-1.493,1.467,1.467,0,0,0,1.44,1.493" transform="translate(0 0.518)" fill="#fff" stroke="#fff" stroke-width="1"/>
            <path id="Trazado_819629" data-name="Trazado 819629" d="M15.84,17.385A1.493,1.493,0,1,0,14.4,15.892a1.469,1.469,0,0,0,1.439,1.493" transform="translate(0 0.518)" fill="#fff" stroke="#fff" stroke-width="1"/>
            <path id="Trazado_819630" data-name="Trazado 819630" d="M8.64,24.584A1.493,1.493,0,1,0,7.2,23.094a1.466,1.466,0,0,0,1.439,1.49" transform="translate(0 0.777)" fill="#fff" stroke="#fff" stroke-width="1"/>
            <path id="Trazado_819631" data-name="Trazado 819631" d="M23.04,24.584a1.493,1.493,0,1,0-1.44-1.49,1.466,1.466,0,0,0,1.44,1.49" transform="translate(0 0.777)" fill="#fff" stroke="#fff" stroke-width="1"/>
            <path id="Trazado_819632" data-name="Trazado 819632" d="M8.64,10.184A1.493,1.493,0,1,0,7.2,8.693,1.467,1.467,0,0,0,8.64,10.184" transform="translate(0 0.259)" fill="#fff" stroke="#fff" stroke-width="1"/>
            <path id="Trazado_819633" data-name="Trazado 819633" d="M23.04,10.184A1.493,1.493,0,1,0,21.6,8.693a1.467,1.467,0,0,0,1.44,1.491" transform="translate(0 0.259)" fill="#fff" stroke="#fff" stroke-width="1"/>
            <path id="Trazado_819634" data-name="Trazado 819634" d="M1.44,31.784a1.492,1.492,0,0,0,0-2.983,1.492,1.492,0,0,0,0,2.983" transform="translate(0 1.036)" fill="#fff" stroke="#fff" stroke-width="1"/>
            <path id="Trazado_819635" data-name="Trazado 819635" d="M1.44,17.385a1.493,1.493,0,0,0,0-2.985,1.493,1.493,0,0,0,0,2.985" transform="translate(0 0.518)" fill="#fff" stroke="#fff" stroke-width="1"/>
            <path id="Trazado_819636" data-name="Trazado 819636" d="M30.24,2.983a1.466,1.466,0,0,0,1.439-1.491,1.44,1.44,0,1,0-2.879,0,1.466,1.466,0,0,0,1.44,1.491" fill="#fff" stroke="#fff" stroke-width="1"/>
            <path id="Trazado_819637" data-name="Trazado 819637" d="M15.84,2.983a1.468,1.468,0,0,0,1.441-1.491,1.441,1.441,0,1,0-2.88,0A1.465,1.465,0,0,0,15.84,2.983" fill="#fff" stroke="#fff" stroke-width="1"/>
            <path id="Trazado_819638" data-name="Trazado 819638" d="M1.44,2.983A1.466,1.466,0,0,0,2.879,1.492,1.466,1.466,0,0,0,1.44,0,1.466,1.466,0,0,0,0,1.492,1.466,1.466,0,0,0,1.44,2.983" fill="#fff" stroke="#fff" stroke-width="1"/>
            <path id="Trazado_819639" data-name="Trazado 819639" d="M30.24,60.584a1.492,1.492,0,1,0-1.44-1.49,1.465,1.465,0,0,0,1.44,1.49" transform="translate(0 2.073)" fill="#fff" stroke="#fff" stroke-width="1"/>
            <path id="Trazado_819640" data-name="Trazado 819640" d="M15.84,60.584a1.492,1.492,0,1,0-1.439-1.49,1.467,1.467,0,0,0,1.439,1.49" transform="translate(0 2.073)" fill="#fff" stroke="#fff" stroke-width="1"/>
            <path id="Trazado_819641" data-name="Trazado 819641" d="M30.24,46.186a1.493,1.493,0,1,0-1.44-1.493,1.467,1.467,0,0,0,1.44,1.493" transform="translate(0 1.554)" fill="#fff" stroke="#fff" stroke-width="1"/>
            <path id="Trazado_819642" data-name="Trazado 819642" d="M15.84,46.186A1.493,1.493,0,1,0,14.4,44.693a1.469,1.469,0,0,0,1.439,1.493" transform="translate(0 1.554)" fill="#fff" stroke="#fff" stroke-width="1"/>
            <path id="Trazado_819643" data-name="Trazado 819643" d="M8.64,53.385A1.493,1.493,0,1,0,7.2,51.894,1.467,1.467,0,0,0,8.64,53.385" transform="translate(0 1.813)" fill="#fff" stroke="#fff" stroke-width="1"/>
            <path id="Trazado_819644" data-name="Trazado 819644" d="M23.04,53.385a1.493,1.493,0,1,0-1.44-1.491,1.467,1.467,0,0,0,1.44,1.491" transform="translate(0 1.813)" fill="#fff" stroke="#fff" stroke-width="1"/>
            <path id="Trazado_819645" data-name="Trazado 819645" d="M8.64,38.985A1.493,1.493,0,1,0,7.2,37.494,1.467,1.467,0,0,0,8.64,38.985" transform="translate(0 1.295)" fill="#fff" stroke="#fff" stroke-width="1"/>
            <path id="Trazado_819646" data-name="Trazado 819646" d="M23.04,38.985a1.493,1.493,0,1,0-1.44-1.491,1.467,1.467,0,0,0,1.44,1.491" transform="translate(0 1.295)" fill="#fff" stroke="#fff" stroke-width="1"/>
            <path id="Trazado_819647" data-name="Trazado 819647" d="M1.44,60.584a1.492,1.492,0,0,0,0-2.982,1.492,1.492,0,0,0,0,2.982" transform="translate(0 2.073)" fill="#fff" stroke="#fff" stroke-width="1"/>
            <path id="Trazado_819648" data-name="Trazado 819648" d="M1.44,46.186a1.493,1.493,0,0,0,0-2.985,1.493,1.493,0,0,0,0,2.985" transform="translate(0 1.554)" fill="#fff" stroke="#fff" stroke-width="1"/>
            <path id="Trazado_819649" data-name="Trazado 819649" d="M30.24,31.784a1.492,1.492,0,1,0-1.44-1.491,1.466,1.466,0,0,0,1.44,1.491" transform="translate(0 1.036)" fill="#fff" stroke="#fff" stroke-width="1"/>
            <path id="Trazado_819650" data-name="Trazado 819650" d="M15.84,31.784A1.492,1.492,0,1,0,14.4,30.293a1.468,1.468,0,0,0,1.439,1.491" transform="translate(0 1.036)" fill="#fff" stroke="#fff" stroke-width="1"/>
            <path id="Trazado_819651" data-name="Trazado 819651" d="M1.44,31.784a1.492,1.492,0,0,0,0-2.983,1.492,1.492,0,0,0,0,2.983" transform="translate(0 1.036)" fill="#fff" stroke="#fff" stroke-width="1"/>
            <path id="Trazado_819652" data-name="Trazado 819652" d="M30.24,89.385a1.492,1.492,0,1,0-1.44-1.491,1.466,1.466,0,0,0,1.44,1.491" transform="translate(0 3.109)" fill="#fff" stroke="#fff" stroke-width="1"/>
            <path id="Trazado_819653" data-name="Trazado 819653" d="M15.84,89.385A1.492,1.492,0,1,0,14.4,87.894a1.468,1.468,0,0,0,1.439,1.491" transform="translate(0 3.109)" fill="#fff" stroke="#fff" stroke-width="1"/>
            <path id="Trazado_819654" data-name="Trazado 819654" d="M30.24,74.987a1.493,1.493,0,1,0-1.44-1.493,1.467,1.467,0,0,0,1.44,1.493" transform="translate(0 2.591)" fill="#fff" stroke="#fff" stroke-width="1"/>
            <path id="Trazado_819655" data-name="Trazado 819655" d="M15.84,74.987A1.493,1.493,0,1,0,14.4,73.494a1.469,1.469,0,0,0,1.439,1.493" transform="translate(0 2.591)" fill="#fff" stroke="#fff" stroke-width="1"/>
            <path id="Trazado_819656" data-name="Trazado 819656" d="M8.64,82.186A1.493,1.493,0,1,0,7.2,80.695,1.467,1.467,0,0,0,8.64,82.186" transform="translate(0 2.85)" fill="#fff" stroke="#fff" stroke-width="1"/>
            <path id="Trazado_819657" data-name="Trazado 819657" d="M23.04,82.186a1.493,1.493,0,1,0-1.44-1.491,1.467,1.467,0,0,0,1.44,1.491" transform="translate(0 2.85)" fill="#fff" stroke="#fff" stroke-width="1"/>
            <path id="Trazado_819658" data-name="Trazado 819658" d="M8.64,67.786A1.493,1.493,0,1,0,7.2,66.295,1.467,1.467,0,0,0,8.64,67.786" transform="translate(0 2.332)" fill="#fff" stroke="#fff" stroke-width="1"/>
            <path id="Trazado_819659" data-name="Trazado 819659" d="M23.04,67.786a1.493,1.493,0,1,0-1.44-1.491,1.467,1.467,0,0,0,1.44,1.491" transform="translate(0 2.332)" fill="#fff" stroke="#fff" stroke-width="1"/>
            <path id="Trazado_819660" data-name="Trazado 819660" d="M1.44,89.385a1.492,1.492,0,0,0,0-2.983,1.492,1.492,0,0,0,0,2.983" transform="translate(0 3.109)" fill="#fff" stroke="#fff" stroke-width="1"/>
            <path id="Trazado_819661" data-name="Trazado 819661" d="M1.44,74.987A1.493,1.493,0,0,0,1.44,72a1.493,1.493,0,0,0,0,2.985" transform="translate(0 2.591)" fill="#fff" stroke="#fff" stroke-width="1"/>
            <path id="Trazado_819662" data-name="Trazado 819662" d="M30.24,60.584a1.492,1.492,0,1,0-1.44-1.491,1.466,1.466,0,0,0,1.44,1.491" transform="translate(0 2.073)" fill="#fff" stroke="#fff" stroke-width="1"/>
            <path id="Trazado_819663" data-name="Trazado 819663" d="M15.84,60.584A1.492,1.492,0,1,0,14.4,59.093a1.468,1.468,0,0,0,1.439,1.491" transform="translate(0 2.073)" fill="#fff" stroke="#fff" stroke-width="1"/>
            <path id="Trazado_819664" data-name="Trazado 819664" d="M1.44,60.584a1.492,1.492,0,0,0,0-2.983,1.492,1.492,0,0,0,0,2.983" transform="translate(0 2.073)" fill="#fff" stroke="#fff" stroke-width="1"/>
            <path id="Trazado_819665" data-name="Trazado 819665" d="M30.24,118.186a1.492,1.492,0,1,0-1.44-1.491,1.466,1.466,0,0,0,1.44,1.491" transform="translate(0 4.145)" fill="#fff" stroke="#fff" stroke-width="1"/>
            <path id="Trazado_819666" data-name="Trazado 819666" d="M15.84,118.186a1.492,1.492,0,1,0-1.439-1.491,1.468,1.468,0,0,0,1.439,1.491" transform="translate(0 4.145)" fill="#fff" stroke="#fff" stroke-width="1"/>
            <path id="Trazado_819667" data-name="Trazado 819667" d="M30.24,103.788a1.493,1.493,0,1,0-1.44-1.493,1.467,1.467,0,0,0,1.44,1.493" transform="translate(0 3.627)" fill="#fff" stroke="#fff" stroke-width="1"/>
            <path id="Trazado_819668" data-name="Trazado 819668" d="M15.84,103.788a1.493,1.493,0,1,0-1.439-1.493,1.469,1.469,0,0,0,1.439,1.493" transform="translate(0 3.627)" fill="#fff" stroke="#fff" stroke-width="1"/>
            <path id="Trazado_819669" data-name="Trazado 819669" d="M8.64,110.987A1.493,1.493,0,1,0,7.2,109.5a1.467,1.467,0,0,0,1.439,1.491" transform="translate(0 3.886)" fill="#fff" stroke="#fff" stroke-width="1"/>
            <path id="Trazado_819670" data-name="Trazado 819670" d="M23.04,110.987A1.493,1.493,0,1,0,21.6,109.5a1.467,1.467,0,0,0,1.44,1.491" transform="translate(0 3.886)" fill="#fff" stroke="#fff" stroke-width="1"/>
            <path id="Trazado_819671" data-name="Trazado 819671" d="M8.64,96.586A1.493,1.493,0,1,0,7.2,95.095,1.467,1.467,0,0,0,8.64,96.586" transform="translate(0 3.368)" fill="#fff" stroke="#fff" stroke-width="1"/>
            <path id="Trazado_819672" data-name="Trazado 819672" d="M23.04,96.586a1.493,1.493,0,1,0-1.44-1.491,1.467,1.467,0,0,0,1.44,1.491" transform="translate(0 3.368)" fill="#fff" stroke="#fff" stroke-width="1"/>
            <path id="Trazado_819673" data-name="Trazado 819673" d="M1.44,118.186a1.492,1.492,0,0,0,0-2.983,1.492,1.492,0,0,0,0,2.983" transform="translate(0 4.145)" fill="#fff" stroke="#fff" stroke-width="1"/>
            <path id="Trazado_819674" data-name="Trazado 819674" d="M1.44,103.788a1.493,1.493,0,0,0,0-2.985,1.493,1.493,0,0,0,0,2.985" transform="translate(0 3.627)" fill="#fff" stroke="#fff" stroke-width="1"/>
            <path id="Trazado_819675" data-name="Trazado 819675" d="M30.24,89.385a1.492,1.492,0,1,0-1.44-1.491,1.466,1.466,0,0,0,1.44,1.491" transform="translate(0 3.109)" fill="#fff" stroke="#fff" stroke-width="1"/>
            <path id="Trazado_819676" data-name="Trazado 819676" d="M15.84,89.385A1.492,1.492,0,1,0,14.4,87.894a1.468,1.468,0,0,0,1.439,1.491" transform="translate(0 3.109)" fill="#fff" stroke="#fff" stroke-width="1"/>
            <path id="Trazado_819677" data-name="Trazado 819677" d="M1.44,89.385a1.492,1.492,0,0,0,0-2.983,1.492,1.492,0,0,0,0,2.983" transform="translate(0 3.109)" fill="#fff" stroke="#fff" stroke-width="1"/>
            <path id="Trazado_819678" data-name="Trazado 819678" d="M30.24,146.987A1.492,1.492,0,1,0,28.8,145.5a1.466,1.466,0,0,0,1.44,1.491" transform="translate(0 5.181)" fill="#fff" stroke="#fff" stroke-width="1"/>
            <path id="Trazado_819679" data-name="Trazado 819679" d="M15.84,146.987A1.492,1.492,0,1,0,14.4,145.5a1.468,1.468,0,0,0,1.439,1.491" transform="translate(0 5.181)" fill="#fff" stroke="#fff" stroke-width="1"/>
            <path id="Trazado_819680" data-name="Trazado 819680" d="M30.24,132.588a1.493,1.493,0,1,0-1.44-1.493,1.467,1.467,0,0,0,1.44,1.493" transform="translate(0 4.663)" fill="#fff" stroke="#fff" stroke-width="1"/>
            <path id="Trazado_819681" data-name="Trazado 819681" d="M15.84,132.588a1.493,1.493,0,1,0-1.439-1.493,1.469,1.469,0,0,0,1.439,1.493" transform="translate(0 4.663)" fill="#fff" stroke="#fff" stroke-width="1"/>
            <path id="Trazado_819682" data-name="Trazado 819682" d="M8.64,139.788A1.493,1.493,0,1,0,7.2,138.3a1.467,1.467,0,0,0,1.439,1.491" transform="translate(0 4.922)" fill="#fff" stroke="#fff" stroke-width="1"/>
            <path id="Trazado_819683" data-name="Trazado 819683" d="M23.04,139.788A1.493,1.493,0,1,0,21.6,138.3a1.467,1.467,0,0,0,1.44,1.491" transform="translate(0 4.922)" fill="#fff" stroke="#fff" stroke-width="1"/>
            <path id="Trazado_819684" data-name="Trazado 819684" d="M8.64,125.387A1.493,1.493,0,1,0,7.2,123.895a1.467,1.467,0,0,0,1.439,1.492" transform="translate(0 4.404)" fill="#fff" stroke="#fff" stroke-width="1"/>
            <path id="Trazado_819685" data-name="Trazado 819685" d="M23.04,125.387a1.493,1.493,0,1,0-1.44-1.492,1.467,1.467,0,0,0,1.44,1.492" transform="translate(0 4.404)" fill="#fff" stroke="#fff" stroke-width="1"/>
            <path id="Trazado_819686" data-name="Trazado 819686" d="M1.44,146.987a1.492,1.492,0,0,0,0-2.983,1.492,1.492,0,0,0,0,2.983" transform="translate(0 5.181)" fill="#fff" stroke="#fff" stroke-width="1"/>
            <path id="Trazado_819687" data-name="Trazado 819687" d="M1.44,132.588a1.493,1.493,0,0,0,0-2.985,1.493,1.493,0,0,0,0,2.985" transform="translate(0 4.663)" fill="#fff" stroke="#fff" stroke-width="1"/>
            <path id="Trazado_819688" data-name="Trazado 819688" d="M30.24,118.186a1.492,1.492,0,1,0-1.44-1.491,1.466,1.466,0,0,0,1.44,1.491" transform="translate(0 4.145)" fill="#fff" stroke="#fff" stroke-width="1"/>
            <path id="Trazado_819689" data-name="Trazado 819689" d="M15.84,118.186a1.492,1.492,0,1,0-1.439-1.491,1.468,1.468,0,0,0,1.439,1.491" transform="translate(0 4.145)" fill="#fff" stroke="#fff" stroke-width="1"/>
            <path id="Trazado_819690" data-name="Trazado 819690" d="M1.44,118.186a1.492,1.492,0,0,0,0-2.983,1.492,1.492,0,0,0,0,2.983" transform="translate(0 4.145)" fill="#fff" stroke="#fff" stroke-width="1"/>
            <path id="Trazado_819691" data-name="Trazado 819691" d="M30.24,175.788A1.492,1.492,0,1,0,28.8,174.3a1.466,1.466,0,0,0,1.44,1.491" transform="translate(0 6.218)" fill="#fff" stroke="#fff" stroke-width="1"/>
            <path id="Trazado_819692" data-name="Trazado 819692" d="M15.84,175.788A1.492,1.492,0,1,0,14.4,174.3a1.468,1.468,0,0,0,1.439,1.491" transform="translate(0 6.218)" fill="#fff" stroke="#fff" stroke-width="1"/>
            <path id="Trazado_819693" data-name="Trazado 819693" d="M30.24,161.389A1.493,1.493,0,1,0,28.8,159.9a1.467,1.467,0,0,0,1.44,1.493" transform="translate(0 5.7)" fill="#fff" stroke="#fff" stroke-width="1"/>
            <path id="Trazado_819694" data-name="Trazado 819694" d="M15.84,161.389A1.493,1.493,0,1,0,14.4,159.9a1.469,1.469,0,0,0,1.439,1.493" transform="translate(0 5.7)" fill="#fff" stroke="#fff" stroke-width="1"/>
            <path id="Trazado_819695" data-name="Trazado 819695" d="M8.64,168.588A1.493,1.493,0,1,0,7.2,167.1a1.467,1.467,0,0,0,1.439,1.491" transform="translate(0 5.959)" fill="#fff" stroke="#fff" stroke-width="1"/>
            <path id="Trazado_819696" data-name="Trazado 819696" d="M23.04,168.588A1.493,1.493,0,1,0,21.6,167.1a1.467,1.467,0,0,0,1.44,1.491" transform="translate(0 5.959)" fill="#fff" stroke="#fff" stroke-width="1"/>
            <path id="Trazado_819697" data-name="Trazado 819697" d="M8.64,154.188A1.493,1.493,0,1,0,7.2,152.7a1.466,1.466,0,0,0,1.439,1.491" transform="translate(0 5.44)" fill="#fff" stroke="#fff" stroke-width="1"/>
            <path id="Trazado_819698" data-name="Trazado 819698" d="M23.04,154.188A1.493,1.493,0,1,0,21.6,152.7a1.466,1.466,0,0,0,1.44,1.491" transform="translate(0 5.44)" fill="#fff" stroke="#fff" stroke-width="1"/>
            <path id="Trazado_819699" data-name="Trazado 819699" d="M1.44,175.788a1.492,1.492,0,0,0,0-2.983,1.492,1.492,0,0,0,0,2.983" transform="translate(0 6.218)" fill="#fff" stroke="#fff" stroke-width="1"/>
            <path id="Trazado_819700" data-name="Trazado 819700" d="M1.44,161.389a1.493,1.493,0,0,0,0-2.985,1.493,1.493,0,0,0,0,2.985" transform="translate(0 5.7)" fill="#fff" stroke="#fff" stroke-width="1"/>
            <path id="Trazado_819701" data-name="Trazado 819701" d="M30.24,146.987A1.492,1.492,0,1,0,28.8,145.5a1.466,1.466,0,0,0,1.44,1.491" transform="translate(0 5.181)" fill="#fff" stroke="#fff" stroke-width="1"/>
            <path id="Trazado_819702" data-name="Trazado 819702" d="M15.84,146.987A1.492,1.492,0,1,0,14.4,145.5a1.468,1.468,0,0,0,1.439,1.491" transform="translate(0 5.181)" fill="#fff" stroke="#fff" stroke-width="1"/>
            <path id="Trazado_819703" data-name="Trazado 819703" d="M1.44,146.987a1.492,1.492,0,0,0,0-2.983,1.492,1.492,0,0,0,0,2.983" transform="translate(0 5.181)" fill="#fff" stroke="#fff" stroke-width="1"/>
            <path id="Trazado_819704" data-name="Trazado 819704" d="M30.24,204.588A1.492,1.492,0,1,0,28.8,203.1a1.466,1.466,0,0,0,1.44,1.491" transform="translate(0 7.254)" fill="#fff" stroke="#fff" stroke-width="1"/>
            <path id="Trazado_819705" data-name="Trazado 819705" d="M15.84,204.588A1.492,1.492,0,1,0,14.4,203.1a1.468,1.468,0,0,0,1.439,1.491" transform="translate(0 7.254)" fill="#fff" stroke="#fff" stroke-width="1"/>
            <path id="Trazado_819706" data-name="Trazado 819706" d="M30.24,190.19A1.493,1.493,0,1,0,28.8,188.7a1.467,1.467,0,0,0,1.44,1.493" transform="translate(0 6.736)" fill="#fff" stroke="#fff" stroke-width="1"/>
            <path id="Trazado_819707" data-name="Trazado 819707" d="M15.84,190.19A1.493,1.493,0,1,0,14.4,188.7a1.469,1.469,0,0,0,1.439,1.493" transform="translate(0 6.736)" fill="#fff" stroke="#fff" stroke-width="1"/>
            <path id="Trazado_819708" data-name="Trazado 819708" d="M8.64,197.389A1.493,1.493,0,1,0,7.2,195.9a1.467,1.467,0,0,0,1.439,1.491" transform="translate(0 6.995)" fill="#fff" stroke="#fff" stroke-width="1"/>
            <path id="Trazado_819709" data-name="Trazado 819709" d="M23.04,197.389A1.493,1.493,0,1,0,21.6,195.9a1.467,1.467,0,0,0,1.44,1.491" transform="translate(0 6.995)" fill="#fff" stroke="#fff" stroke-width="1"/>
            <path id="Trazado_819710" data-name="Trazado 819710" d="M8.64,182.989A1.493,1.493,0,1,0,7.2,181.5a1.467,1.467,0,0,0,1.439,1.492" transform="translate(0 6.477)" fill="#fff" stroke="#fff" stroke-width="1"/>
            <path id="Trazado_819711" data-name="Trazado 819711" d="M23.04,182.989A1.493,1.493,0,1,0,21.6,181.5a1.467,1.467,0,0,0,1.44,1.492" transform="translate(0 6.477)" fill="#fff" stroke="#fff" stroke-width="1"/>
            <path id="Trazado_819712" data-name="Trazado 819712" d="M1.44,204.588a1.492,1.492,0,0,0,0-2.983,1.492,1.492,0,0,0,0,2.983" transform="translate(0 7.254)" fill="#fff" stroke="#fff" stroke-width="1"/>
            <path id="Trazado_819713" data-name="Trazado 819713" d="M1.44,190.19a1.493,1.493,0,0,0,0-2.985,1.493,1.493,0,0,0,0,2.985" transform="translate(0 6.736)" fill="#fff" stroke="#fff" stroke-width="1"/>
            <path id="Trazado_819714" data-name="Trazado 819714" d="M30.24,175.788A1.492,1.492,0,1,0,28.8,174.3a1.466,1.466,0,0,0,1.44,1.491" transform="translate(0 6.218)" fill="#fff" stroke="#fff" stroke-width="1"/>
            <path id="Trazado_819715" data-name="Trazado 819715" d="M15.84,175.788A1.492,1.492,0,1,0,14.4,174.3a1.468,1.468,0,0,0,1.439,1.491" transform="translate(0 6.218)" fill="#fff" stroke="#fff" stroke-width="1"/>
            <path id="Trazado_819716" data-name="Trazado 819716" d="M1.44,175.788a1.492,1.492,0,0,0,0-2.983,1.492,1.492,0,0,0,0,2.983" transform="translate(0 6.218)" fill="#fff" stroke="#fff" stroke-width="1"/>
            <path id="Trazado_819717" data-name="Trazado 819717" d="M30.24,233.389A1.492,1.492,0,1,0,28.8,231.9a1.466,1.466,0,0,0,1.44,1.491" transform="translate(0 8.29)" fill="#fff" stroke="#fff" stroke-width="1"/>
            <path id="Trazado_819718" data-name="Trazado 819718" d="M15.84,233.389A1.492,1.492,0,1,0,14.4,231.9a1.468,1.468,0,0,0,1.439,1.491" transform="translate(0 8.29)" fill="#fff" stroke="#fff" stroke-width="1"/>
            <path id="Trazado_819719" data-name="Trazado 819719" d="M30.24,218.991A1.493,1.493,0,1,0,28.8,217.5a1.467,1.467,0,0,0,1.44,1.493" transform="translate(0 7.772)" fill="#fff" stroke="#fff" stroke-width="1"/>
            <path id="Trazado_819720" data-name="Trazado 819720" d="M15.84,218.991A1.493,1.493,0,1,0,14.4,217.5a1.469,1.469,0,0,0,1.439,1.493" transform="translate(0 7.772)" fill="#fff" stroke="#fff" stroke-width="1"/>
            <path id="Trazado_819721" data-name="Trazado 819721" d="M8.64,226.19A1.493,1.493,0,1,0,7.2,224.7,1.467,1.467,0,0,0,8.64,226.19" transform="translate(0 8.031)" fill="#fff" stroke="#fff" stroke-width="1"/>
            <path id="Trazado_819722" data-name="Trazado 819722" d="M23.04,226.19A1.493,1.493,0,1,0,21.6,224.7a1.467,1.467,0,0,0,1.44,1.491" transform="translate(0 8.031)" fill="#fff" stroke="#fff" stroke-width="1"/>
            <path id="Trazado_819723" data-name="Trazado 819723" d="M8.64,211.789A1.493,1.493,0,1,0,7.2,210.3a1.467,1.467,0,0,0,1.439,1.492" transform="translate(0 7.513)" fill="#fff" stroke="#fff" stroke-width="1"/>
            <path id="Trazado_819724" data-name="Trazado 819724" d="M23.04,211.789A1.493,1.493,0,1,0,21.6,210.3a1.467,1.467,0,0,0,1.44,1.492" transform="translate(0 7.513)" fill="#fff" stroke="#fff" stroke-width="1"/>
            <path id="Trazado_819725" data-name="Trazado 819725" d="M1.44,233.389a1.492,1.492,0,0,0,0-2.983,1.492,1.492,0,0,0,0,2.983" transform="translate(0 8.29)" fill="#fff" stroke="#fff" stroke-width="1"/>
            <path id="Trazado_819726" data-name="Trazado 819726" d="M1.44,218.991a1.493,1.493,0,0,0,0-2.985,1.493,1.493,0,0,0,0,2.985" transform="translate(0 7.772)" fill="#fff" stroke="#fff" stroke-width="1"/>
            <path id="Trazado_819727" data-name="Trazado 819727" d="M30.24,204.588A1.492,1.492,0,1,0,28.8,203.1a1.466,1.466,0,0,0,1.44,1.491" transform="translate(0 7.254)" fill="#fff" stroke="#fff" stroke-width="1"/>
            <path id="Trazado_819728" data-name="Trazado 819728" d="M15.84,204.588A1.492,1.492,0,1,0,14.4,203.1a1.468,1.468,0,0,0,1.439,1.491" transform="translate(0 7.254)" fill="#fff" stroke="#fff" stroke-width="1"/>
            <path id="Trazado_819729" data-name="Trazado 819729" d="M1.44,204.588a1.492,1.492,0,0,0,0-2.983,1.492,1.492,0,0,0,0,2.983" transform="translate(0 7.254)" fill="#fff" stroke="#fff" stroke-width="1"/>
          </g>
        </g>
      </g>
    </g>
  </g>
</svg>
