<svg xmlns="http://www.w3.org/2000/svg" xmlns:xlink="http://www.w3.org/1999/xlink" width="295" height="260" viewBox="0 0 295 260">
  <defs>
    <clipPath id="clip-path">
      <rect id="Rectángulo_383545" data-name="Rectángulo 383545" width="278.78" height="227.874" fill="none"/>
    </clipPath>
  </defs>
  <g id="Grupo_1074578" data-name="Grupo 1074578" transform="translate(-1125 -6537)">
    <rect id="Rectángulo_383434" data-name="Rectángulo 383434" width="295" height="260" rx="14" transform="translate(1125 6537)" fill="#add3fd"/>
    <g id="Grupo_1074577" data-name="Grupo 1074577" transform="translate(1133 6553)">
      <g id="Grupo_1074572" data-name="Grupo 1074572">
        <g id="Grupo_1074571" data-name="Grupo 1074571" clip-path="url(#clip-path)">
          <path id="Trazado_827689" data-name="Trazado 827689" d="M348.064,59.794A59.795,59.795,0,1,1,288.269,0a59.8,59.8,0,0,1,59.8,59.8" transform="translate(-69.285 0)" fill="#e5f1ff"/>
          <path id="Trazado_827690" data-name="Trazado 827690" d="M112.91,251.525a34.949,34.949,0,1,1-34.949-34.949,34.949,34.949,0,0,1,34.949,34.949" transform="translate(-13.044 -65.677)" fill="#e5f1ff"/>
          <path id="Trazado_827691" data-name="Trazado 827691" d="M78.6,28.61a31.951,31.951,0,1,0,31.95,31.951A31.951,31.951,0,0,0,78.6,28.61m0,52.378A20.427,20.427,0,1,1,99.024,60.561,20.427,20.427,0,0,1,78.6,80.988" transform="translate(-14.145 -8.676)" fill="#a9ccea"/>
          <path id="Trazado_827692" data-name="Trazado 827692" d="M222.208,316.548a3.666,3.666,0,0,1-3.666,3.666H125.833a3.666,3.666,0,1,1,0-7.333h32.91l4.54-8.38h17.808l4.539,8.38h32.911a3.666,3.666,0,0,1,3.666,3.666" transform="translate(-37.047 -92.34)" fill="#0f3157"/>
          <rect id="Rectángulo_383508" data-name="Rectángulo 383508" width="15.19" height="4.452" transform="translate(126.781 204.566)" fill="#ff4d6b"/>
          <rect id="Rectángulo_383509" data-name="Rectángulo 383509" width="15.19" height="4.452" transform="translate(126.781 197.233)" fill="#ff4d6b"/>
          <path id="Trazado_827693" data-name="Trazado 827693" d="M352.4,241.459a23.737,23.737,0,1,1,13.109-12.33" transform="translate(-97.08 -59.292)" fill="none" stroke="#ff4d6b" stroke-linecap="round" stroke-linejoin="round" stroke-width="1.128" stroke-dasharray="0 5.638"/>
          <path id="Trazado_827694" data-name="Trazado 827694" d="M238.962,56.431h-3.792a31.241,31.241,0,0,0-3.887-9.387l2.681-2.68a2.96,2.96,0,0,0,0-4.186l-5.957-5.957a2.959,2.959,0,0,0-4.185,0L221.139,36.9a31.229,31.229,0,0,0-9.386-3.887V29.222a2.961,2.961,0,0,0-2.96-2.96h-8.424a2.961,2.961,0,0,0-2.96,2.96v3.792a31.23,31.23,0,0,0-9.386,3.887l-2.681-2.681a2.96,2.96,0,0,0-4.186,0L175.2,40.177a2.96,2.96,0,0,0,0,4.186l2.68,2.68a31.222,31.222,0,0,0-3.886,9.387H170.2a2.96,2.96,0,0,0-2.96,2.96v8.424a2.96,2.96,0,0,0,2.96,2.96h3.792a31.221,31.221,0,0,0,3.886,9.387l-2.68,2.68a2.96,2.96,0,0,0,0,4.186l5.957,5.957a2.961,2.961,0,0,0,4.186,0l2.681-2.681a31.23,31.23,0,0,0,9.386,3.887v3.792a2.96,2.96,0,0,0,2.96,2.96h8.424a2.96,2.96,0,0,0,2.96-2.96V94.191a31.229,31.229,0,0,0,9.386-3.887l2.681,2.681a2.961,2.961,0,0,0,4.185,0l5.957-5.957a2.96,2.96,0,0,0,0-4.186l-2.681-2.68a31.241,31.241,0,0,0,3.887-9.387h3.792a2.96,2.96,0,0,0,2.96-2.96V59.39a2.96,2.96,0,0,0-2.96-2.96m-34.38,22.2A15.027,15.027,0,1,1,219.608,63.6,15.028,15.028,0,0,1,204.581,78.63" transform="translate(-50.716 -7.964)" fill="#289df2"/>
          <path id="Rectángulo_383510" data-name="Rectángulo 383510" d="M11.468,0H213.223a11.468,11.468,0,0,1,11.468,11.468V129.554a11.467,11.467,0,0,1-11.467,11.467H11.467A11.467,11.467,0,0,1,0,129.554V11.468A11.468,11.468,0,0,1,11.468,0Z" transform="translate(22.795 54.211)" fill="#0f3775"/>
          <rect id="Rectángulo_383511" data-name="Rectángulo 383511" width="23.177" height="5.107" transform="translate(39.179 71.657)" fill="#284d89"/>
          <rect id="Rectángulo_383512" data-name="Rectángulo 383512" width="23.177" height="5.107" transform="translate(67.07 71.657)" fill="#284d89"/>
          <rect id="Rectángulo_383513" data-name="Rectángulo 383513" width="23.177" height="5.107" transform="translate(137.78 71.657)" fill="#284d89"/>
          <rect id="Rectángulo_383514" data-name="Rectángulo 383514" width="23.177" height="5.107" transform="translate(208.491 71.657)" fill="#284d89"/>
          <rect id="Rectángulo_383515" data-name="Rectángulo 383515" width="41.444" height="5.107" transform="translate(93.39 71.657)" fill="#ff4d6b"/>
          <rect id="Rectángulo_383516" data-name="Rectángulo 383516" width="41.444" height="5.107" transform="translate(163.707 71.657)" fill="#2889db"/>
          <rect id="Rectángulo_383517" data-name="Rectángulo 383517" width="4.059" height="2.488" transform="translate(39.31 67.598)" fill="#2889db"/>
          <rect id="Rectángulo_383518" data-name="Rectángulo 383518" width="42.36" height="2.488" transform="translate(39.31 80.954)" fill="#fff"/>
          <rect id="Rectángulo_383519" data-name="Rectángulo 383519" width="12.571" height="2.488" transform="translate(39.31 85.341)" fill="#fff"/>
          <path id="Trazado_827695" data-name="Trazado 827695" d="M101.381,218.947H62.1a5.3,5.3,0,0,1-5.3-5.3v-71.1a5.3,5.3,0,0,1,5.3-5.3h39.283a5.3,5.3,0,0,1,5.3,5.3v71.1a5.3,5.3,0,0,1-5.3,5.3" transform="translate(-17.223 -41.617)" fill="#284d89"/>
          <rect id="Rectángulo_383520" data-name="Rectángulo 383520" width="16.696" height="2.554" transform="translate(45.857 107.601)" fill="#fff"/>
          <rect id="Rectángulo_383521" data-name="Rectángulo 383521" width="16.696" height="2.554" transform="translate(45.857 113.297)" fill="#fff"/>
          <rect id="Rectángulo_383522" data-name="Rectángulo 383522" width="16.696" height="2.554" transform="translate(45.857 118.994)" fill="#fff"/>
          <rect id="Rectángulo_383523" data-name="Rectángulo 383523" width="10.214" height="2.554" transform="translate(45.857 142.76)" fill="#fff"/>
          <rect id="Rectángulo_383524" data-name="Rectángulo 383524" width="10.214" height="2.554" transform="translate(45.857 148.456)" fill="#fff"/>
          <rect id="Rectángulo_383525" data-name="Rectángulo 383525" width="10.214" height="2.554" transform="translate(63.404 148.456)" fill="#fff"/>
          <rect id="Rectángulo_383526" data-name="Rectángulo 383526" width="6.416" height="2.554" transform="translate(45.857 136.278)" fill="#fff"/>
          <rect id="Rectángulo_383527" data-name="Rectángulo 383527" width="3.404" height="2.554" transform="translate(73.356 136.278)" fill="#fff"/>
          <rect id="Rectángulo_383528" data-name="Rectángulo 383528" width="17.546" height="2.554" transform="translate(54.5 136.278)" fill="#ff4d6b"/>
          <rect id="Rectángulo_383529" data-name="Rectángulo 383529" width="2.455" height="2.554" transform="translate(45.857 126.654)" fill="#2889db"/>
          <rect id="Rectángulo_383530" data-name="Rectángulo 383530" width="2.455" height="2.554" transform="translate(45.857 131.172)" fill="#ff4d6b"/>
          <path id="Trazado_827696" data-name="Trazado 827696" d="M84.962,216.061h-.917l2.193-3.273h.917Z" transform="translate(-25.487 -64.528)" fill="#fff"/>
          <rect id="Rectángulo_383531" data-name="Rectángulo 383531" width="37.909" height="2.161" transform="translate(45.857 155.92)" fill="#282e5c"/>
          <rect id="Rectángulo_383532" data-name="Rectángulo 383532" width="37.909" height="2.161" transform="translate(45.857 160.831)" fill="#282e5c"/>
          <path id="Trazado_827697" data-name="Trazado 827697" d="M334.508,169.311H230.275a4.714,4.714,0,0,1-4.714-4.714V136.313a4.714,4.714,0,0,1,4.714-4.714H334.508a4.714,4.714,0,0,1,4.714,4.714V164.6a4.714,4.714,0,0,1-4.714,4.714" transform="translate(-68.402 -39.907)" fill="#289df2"/>
          <path id="Trazado_827698" data-name="Trazado 827698" d="M274.049,161.651s5.761-14.142,22.26-10.738,24.88,22,46.093,6.809" transform="translate(-83.105 -45.604)" fill="none" stroke="#fff" stroke-miterlimit="10" stroke-width="1.128"/>
          <rect id="Rectángulo_383533" data-name="Rectángulo 383533" width="2.357" height="2.357" transform="translate(242.012 116.833)" fill="#289df2"/>
          <rect id="Rectángulo_383534" data-name="Rectángulo 383534" width="2.357" height="2.357" transform="translate(242.012 116.833)" fill="none" stroke="#fff" stroke-miterlimit="10" stroke-width="1.128"/>
          <line id="Línea_307" data-name="Línea 307" x2="29.856" transform="translate(193.825 104.655)" fill="#289df2"/>
          <line id="Línea_308" data-name="Línea 308" x2="29.856" transform="translate(193.825 104.655)" fill="none" stroke="#fff" stroke-miterlimit="10" stroke-width="0.564"/>
          <line id="Línea_309" data-name="Línea 309" x2="29.856" transform="translate(228.263 118.666)" fill="#289df2"/>
          <line id="Línea_310" data-name="Línea 310" x2="29.856" transform="translate(228.263 118.666)" fill="none" stroke="#fff" stroke-miterlimit="10" stroke-width="0.564"/>
          <rect id="Rectángulo_383535" data-name="Rectángulo 383535" width="2.357" height="2.357" transform="translate(206.396 103.476)" fill="#289df2"/>
          <rect id="Rectángulo_383536" data-name="Rectángulo 383536" width="2.357" height="2.357" transform="translate(206.396 103.476)" fill="none" stroke="#fff" stroke-miterlimit="10" stroke-width="1.128"/>
          <path id="Trazado_827699" data-name="Trazado 827699" d="M242.843,181.965H220.321a3.4,3.4,0,0,1-3.405-3.4V144.776a3.4,3.4,0,0,1,3.405-3.4h22.522a3.4,3.4,0,0,1,3.4,3.4V178.56a3.4,3.4,0,0,1-3.4,3.4" transform="translate(-65.78 -42.871)" fill="#284d89"/>
          <rect id="Rectángulo_383537" data-name="Rectángulo 383537" width="16.696" height="2.302" transform="translate(155.719 104.262)" fill="#fff"/>
          <rect id="Rectángulo_383538" data-name="Rectángulo 383538" width="16.696" height="2.302" transform="translate(155.719 109.397)" fill="#fff"/>
          <rect id="Rectángulo_383539" data-name="Rectángulo 383539" width="6.285" height="2.302" transform="translate(155.719 114.532)" fill="#fff"/>
          <rect id="Rectángulo_383540" data-name="Rectángulo 383540" width="10.869" height="2.302" transform="translate(155.719 119.844)" fill="#289df2"/>
          <rect id="Rectángulo_383541" data-name="Rectángulo 383541" width="7.333" height="2.302" transform="translate(155.719 124.979)" fill="#289df2"/>
          <rect id="Rectángulo_383542" data-name="Rectángulo 383542" width="7.333" height="2.302" transform="translate(155.719 130.113)" fill="#fff"/>
          <line id="Línea_311" data-name="Línea 311" x2="11.785" transform="translate(252.488 86.585)" fill="none" stroke="#284d89" stroke-linecap="round" stroke-linejoin="round" stroke-width="2.255"/>
          <path id="Trazado_827700" data-name="Trazado 827700" d="M269.291,218.939l-4.068,3.183-5.835,1.061s-5.483-.354-6.013-.354-4.245-3.006-4.245-3.006l-6.9-2.476-4.775,1.768-5.659-1.238-8.488-.53-8.135,3.183-6.72,1.061-6.013,1.945-6.72.531-7.25-5.659-6.72-1.238-6.9,3.891-5.483,1.768-6.223-.177-7.844,4.775H150.63l-7.9,2.77" transform="translate(-43.283 -65.857)" fill="none" stroke="#ff5c66" stroke-miterlimit="10" stroke-width="1.015"/>
          <line id="Línea_312" data-name="Línea 312" x2="126.62" transform="translate(99.565 164.459)" fill="none" stroke="#f7f7f7" stroke-miterlimit="10" stroke-width="0.254"/>
          <rect id="Rectángulo_383543" data-name="Rectángulo 383543" width="1.297" height="3.183" transform="translate(98.327 162.867)" fill="#f7f7f7"/>
          <rect id="Rectángulo_383544" data-name="Rectángulo 383544" width="1.297" height="3.183" transform="translate(225.419 162.867)" fill="#f7f7f7"/>
          <line id="Línea_313" data-name="Línea 313" y1="10.669" transform="translate(226.067 153.79)" fill="none" stroke="#f7f7f7" stroke-miterlimit="10" stroke-width="0.254"/>
          <path id="Trazado_827701" data-name="Trazado 827701" d="M324.6,219.526a1,1,0,1,1-1-1,1,1,0,0,1,1,1" transform="translate(-97.828 -66.267)" fill="#f7f7f7"/>
        </g>
      </g>
      <text id="beta_test" data-name="beta test" transform="translate(99.742 170.746)" fill="#f7f7f7" font-size="4" font-family="BebasNeueRegular, Bebas Neue"><tspan x="0" y="0" letter-spacing="0.06em">bet</tspan><tspan y="0" letter-spacing="0.059em">a</tspan><tspan y="0" letter-spacing="0.06em"> </tspan><tspan y="0" letter-spacing="0.053em">t</tspan><tspan y="0" letter-spacing="0.06em">es</tspan><tspan y="0">t</tspan></text>
      <g id="Grupo_1074574" data-name="Grupo 1074574">
        <g id="Grupo_1074573" data-name="Grupo 1074573" clip-path="url(#clip-path)">
          <rect id="Rectángulo_383546" data-name="Rectángulo 383546" width="78.754" height="1.415" transform="translate(128.803 169.057)" fill="#28385e"/>
          <rect id="Rectángulo_383547" data-name="Rectángulo 383547" width="48.337" height="1.415" transform="translate(128.803 169.057)" fill="#ff4d6b"/>
          <rect id="Rectángulo_383548" data-name="Rectángulo 383548" width="38.729" height="1.415" transform="translate(128.803 171.768)" fill="#28385e"/>
          <path id="Trazado_827702" data-name="Trazado 827702" d="M147.778,252h4.775l.619-1.327h-9.637v2.211h3.36Z" transform="translate(-43.527 -76.017)" fill="#ff4d6b"/>
          <rect id="Rectángulo_383549" data-name="Rectángulo 383549" width="0.531" height="0.53" transform="translate(113.616 174.643)" fill="#f7f7f7"/>
          <rect id="Rectángulo_383550" data-name="Rectángulo 383550" width="0.53" height="0.53" transform="translate(116.911 174.643)" fill="#f7f7f7"/>
          <rect id="Rectángulo_383551" data-name="Rectángulo 383551" width="0.531" height="0.53" transform="translate(120.204 174.643)" fill="#f7f7f7"/>
        </g>
      </g>
      <text id="_500" data-name="500" transform="translate(219.876 148.543)" fill="#f7f7f7" font-size="4" font-family="BebasNeueRegular, Bebas Neue"><tspan x="0" y="0" letter-spacing="0.06em">50</tspan><tspan y="0">0</tspan></text>
      <g id="Grupo_1074576" data-name="Grupo 1074576">
        <g id="Grupo_1074575" data-name="Grupo 1074575" clip-path="url(#clip-path)">
          <path id="Trazado_827703" data-name="Trazado 827703" d="M304.682,246.881H303.5l-1.886-4.244H302.8Z" transform="translate(-91.465 -73.58)" fill="#28385e"/>
          <path id="Trazado_827704" data-name="Trazado 827704" d="M309.081,246.881H307.9l-1.886-4.244h1.179Z" transform="translate(-92.799 -73.58)" fill="#28385e"/>
          <path id="Trazado_827705" data-name="Trazado 827705" d="M313.48,246.881H312.3l-1.886-4.244h1.179Z" transform="translate(-94.133 -73.58)" fill="#28385e"/>
          <path id="Trazado_827706" data-name="Trazado 827706" d="M317.88,246.881H316.7l-1.886-4.244h1.179Z" transform="translate(-95.468 -73.58)" fill="#28385e"/>
          <path id="Trazado_827707" data-name="Trazado 827707" d="M322.195,246.881h-1.179l-1.886-4.244h1.179Z" transform="translate(-96.776 -73.58)" fill="#28385e"/>
          <rect id="Rectángulo_383553" data-name="Rectángulo 383553" width="19.17" height="3.434" transform="translate(201.132 27.175)" fill="#a9ccea"/>
          <rect id="Rectángulo_383554" data-name="Rectángulo 383554" width="28.904" height="3.433" transform="translate(201.132 33.319)" fill="#a9ccea"/>
          <rect id="Rectángulo_383555" data-name="Rectángulo 383555" width="35.644" height="3.434" transform="translate(201.132 39.463)" fill="#a9ccea"/>
          <rect id="Rectángulo_383556" data-name="Rectángulo 383556" width="13.628" height="3.434" transform="translate(201.132 45.606)" fill="#a9ccea"/>
          <rect id="Rectángulo_383557" data-name="Rectángulo 383557" width="19.17" height="3.434" transform="translate(0 68.553)" fill="#2889db"/>
          <rect id="Rectángulo_383558" data-name="Rectángulo 383558" width="28.904" height="3.433" transform="translate(0 74.697)" fill="#a9ccea"/>
          <rect id="Rectángulo_383559" data-name="Rectángulo 383559" width="35.644" height="3.434" transform="translate(0 80.841)" fill="#a9ccea"/>
          <rect id="Rectángulo_383560" data-name="Rectángulo 383560" width="13.628" height="3.434" transform="translate(0 86.985)" fill="#a9ccea"/>
          <rect id="Rectángulo_383561" data-name="Rectángulo 383561" width="81.709" height="10.607" transform="translate(47.821 189.115)" fill="none" stroke="#289df2" stroke-miterlimit="10" stroke-width="1.128"/>
          <rect id="Rectángulo_383562" data-name="Rectángulo 383562" width="3.928" height="24.094" transform="translate(87.236 105.572)" fill="none" stroke="#289df2" stroke-miterlimit="10" stroke-width="1.128"/>
          <path id="Trazado_827708" data-name="Trazado 827708" d="M361.87,223.72a13.54,13.54,0,1,1-13.539-13.54,13.539,13.539,0,0,1,13.539,13.54" transform="translate(-101.525 -63.737)" fill="#ff4d6b"/>
          <path id="Trazado_827709" data-name="Trazado 827709" d="M349.469,226.919l-5.378,1.97,5.378,1.954v2.019l-7.687-2.923v-2.1l7.687-2.923Z" transform="translate(-103.645 -68.206)" fill="#f9fbfc"/>
          <path id="Trazado_827710" data-name="Trazado 827710" d="M355.336,224.917l7.687,2.923v2.1l-7.687,2.924v-2.019l5.378-1.954-5.378-1.97Z" transform="translate(-107.756 -68.206)" fill="#f9fbfc"/>
          <circle id="Elipse_9900" data-name="Elipse 9900" cx="1.768" cy="1.768" r="1.768" transform="translate(265.845 169.277)" fill="none" stroke="#ff4d6b" stroke-miterlimit="10" stroke-width="1.128"/>
          <rect id="Rectángulo_383563" data-name="Rectángulo 383563" width="64.032" height="6.678" transform="translate(43.5 42.98)" fill="none" stroke="#289df2" stroke-miterlimit="10" stroke-width="1.128"/>
          <rect id="Rectángulo_383564" data-name="Rectángulo 383564" width="39.676" height="1.964" transform="translate(46.25 45.141)" fill="#289df2"/>
          <rect id="Rectángulo_383565" data-name="Rectángulo 383565" width="46.878" height="2.357" transform="translate(97.974 95.096)" fill="#284d89"/>
          <rect id="Rectángulo_383566" data-name="Rectángulo 383566" width="21.246" height="2.357" transform="translate(97.973 95.096)" fill="#2889db"/>
          <rect id="Rectángulo_383567" data-name="Rectángulo 383567" width="46.878" height="2.357" transform="translate(97.974 101.185)" fill="#284d89"/>
          <rect id="Rectángulo_383568" data-name="Rectángulo 383568" width="32.638" height="2.357" transform="translate(97.974 101.185)" fill="#ff4d6b"/>
          <rect id="Rectángulo_383569" data-name="Rectángulo 383569" width="46.878" height="2.357" transform="translate(97.974 107.274)" fill="#284d89"/>
          <rect id="Rectángulo_383570" data-name="Rectángulo 383570" width="9.559" height="2.357" transform="translate(97.974 107.274)" fill="#1ae5ff"/>
          <rect id="Rectángulo_383571" data-name="Rectángulo 383571" width="0.917" height="0.917" transform="translate(98.169 90.971)" fill="#284d89"/>
          <rect id="Rectángulo_383572" data-name="Rectángulo 383572" width="0.917" height="0.917" transform="translate(101.312 90.971)" fill="#284d89"/>
          <rect id="Rectángulo_383573" data-name="Rectángulo 383573" width="0.916" height="0.917" transform="translate(104.455 90.971)" fill="#284d89"/>
          <rect id="Rectángulo_383574" data-name="Rectángulo 383574" width="1.528" height="1.528" transform="translate(185.4 123.075)" fill="#fff"/>
          <rect id="Rectángulo_383575" data-name="Rectángulo 383575" width="1.528" height="1.528" transform="translate(190.638 123.075)" fill="#fff"/>
          <rect id="Rectángulo_383576" data-name="Rectángulo 383576" width="1.528" height="1.528" transform="translate(195.876 123.075)" fill="#fff"/>
          <rect id="Rectángulo_383577" data-name="Rectángulo 383577" width="2.864" height="2.864" transform="translate(207.451 62.368)" fill="#fff"/>
          <rect id="Rectángulo_383578" data-name="Rectángulo 383578" width="2.864" height="2.864" transform="translate(217.272 62.368)" fill="#fff"/>
          <rect id="Rectángulo_383579" data-name="Rectángulo 383579" width="2.864" height="2.864" transform="translate(227.093 62.368)" fill="#fff"/>
          <rect id="Rectángulo_383580" data-name="Rectángulo 383580" width="2.864" height="2.864" transform="translate(166.858 180.743)" fill="#fff"/>
          <rect id="Rectángulo_383581" data-name="Rectángulo 383581" width="2.864" height="2.864" transform="translate(176.679 180.743)" fill="#fff"/>
          <rect id="Rectángulo_383582" data-name="Rectángulo 383582" width="2.864" height="2.864" transform="translate(186.5 180.743)" fill="#fff"/>
          <rect id="Rectángulo_383583" data-name="Rectángulo 383583" width="1.527" height="1.528" transform="translate(46.687 101.425)" fill="#fff"/>
          <rect id="Rectángulo_383584" data-name="Rectángulo 383584" width="1.528" height="1.528" transform="translate(51.924 101.425)" fill="#fff"/>
          <rect id="Rectángulo_383585" data-name="Rectángulo 383585" width="1.528" height="1.528" transform="translate(57.162 101.425)" fill="#fff"/>
          <rect id="Rectángulo_383586" data-name="Rectángulo 383586" width="25.404" height="2.488" transform="translate(235.465 99.548)" fill="#fff"/>
          <rect id="Rectángulo_383587" data-name="Rectángulo 383587" width="7.539" height="2.488" transform="translate(235.465 103.935)" fill="#287dd1"/>
          <path id="Trazado_827711" data-name="Trazado 827711" d="M36.817,147.811h-5.5v-5.5H26.211v5.5h-5.5v5.106h5.5v5.5h5.107v-5.5h5.5Z" transform="translate(-6.281 -43.156)" fill="#1ae5ff"/>
          <path id="Trazado_827712" data-name="Trazado 827712" d="M18.431,170.734H15.077V167.38H11.963v3.353H8.61v3.114h3.353V177.2h3.114v-3.353h3.353Z" transform="translate(-2.611 -50.758)" fill="#2889db"/>
          <path id="Trazado_827713" data-name="Trazado 827713" d="M150.7,167.991a8.6,8.6,0,1,0,8.6,8.6,8.6,8.6,0,0,0-8.6-8.6m0,13.083a4.482,4.482,0,1,1,4.482-4.482,4.482,4.482,0,0,1-4.482,4.482" transform="translate(-43.091 -50.943)" fill="#284d89"/>
          <path id="Trazado_827714" data-name="Trazado 827714" d="M145.133,175.744A2.106,2.106,0,0,0,147,174.556a4.48,4.48,0,0,1,7.984,0,2.1,2.1,0,0,0,1.862,1.187,2.056,2.056,0,0,0,1.873-2.929,8.6,8.6,0,0,0-15.455,0,2.056,2.056,0,0,0,1.873,2.928" transform="translate(-43.382 -50.943)" fill="#289df2"/>
          <path id="Trazado_827715" data-name="Trazado 827715" d="M175.172,176.592a8.6,8.6,0,1,0,8.6-8.6,8.6,8.6,0,0,0-8.6,8.6m13.083,0a4.482,4.482,0,1,1-4.482-4.482,4.482,4.482,0,0,1,4.482,4.482" transform="translate(-53.121 -50.943)" fill="#284d89"/>
          <path id="Trazado_827716" data-name="Trazado 827716" d="M182.926,182.737a2.106,2.106,0,0,0-1.187-1.863,4.48,4.48,0,0,1,0-7.984,2.1,2.1,0,0,0,1.187-1.862A2.056,2.056,0,0,0,180,169.155a8.6,8.6,0,0,0,0,15.455,2.056,2.056,0,0,0,2.929-1.873" transform="translate(-53.121 -51.234)" fill="#ff4d6b"/>
          <rect id="Rectángulo_383588" data-name="Rectángulo 383588" width="15.713" height="37.712" transform="translate(67.333 91.692)" fill="none" stroke="#289df2" stroke-miterlimit="10" stroke-width="1.128"/>
          <rect id="Rectángulo_383589" data-name="Rectángulo 383589" width="4.583" height="1.354" transform="translate(69.558 98.959)" fill="#1ae5ff"/>
          <rect id="Rectángulo_383590" data-name="Rectángulo 383590" width="4.583" height="1.354" transform="translate(69.558 101.981)" fill="#1ae5ff"/>
          <rect id="Rectángulo_383591" data-name="Rectángulo 383591" width="4.583" height="1.354" transform="translate(69.558 105.003)" fill="#1ae5ff"/>
          <rect id="Rectángulo_383592" data-name="Rectángulo 383592" width="4.583" height="1.354" transform="translate(69.558 120.716)" fill="#1ae5ff"/>
          <rect id="Rectángulo_383593" data-name="Rectángulo 383593" width="6.678" height="1.354" transform="translate(69.558 109.435)" fill="#1ae5ff"/>
          <rect id="Rectángulo_383594" data-name="Rectángulo 383594" width="6.678" height="1.354" transform="translate(69.558 112.457)" fill="#fff"/>
          <rect id="Rectángulo_383595" data-name="Rectángulo 383595" width="6.678" height="1.354" transform="translate(69.558 115.479)" fill="#fff"/>
          <rect id="Rectángulo_383596" data-name="Rectángulo 383596" width="19.903" height="19.903" transform="translate(11.026 138.832)" fill="#289df2"/>
          <rect id="Rectángulo_383597" data-name="Rectángulo 383597" width="19.903" height="19.903" transform="translate(0.55 143.546)" fill="none" stroke="#289df2" stroke-miterlimit="10" stroke-width="1.128"/>
          <rect id="Rectángulo_383598" data-name="Rectángulo 383598" width="8.38" height="8.381" transform="translate(247.774 196.447)" fill="none" stroke="#289df2" stroke-miterlimit="10" stroke-width="1.128"/>
          <path id="Trazado_827717" data-name="Trazado 827717" d="M211.278,261.941h7.071l3.928,3.928h40.855l6.285-6.285h22" transform="translate(-64.07 -78.719)" fill="none" stroke="#fff" stroke-miterlimit="10" stroke-width="1.128"/>
          <circle id="Elipse_9901" data-name="Elipse 9901" cx="2.062" cy="2.062" r="2.062" transform="translate(143.084 181.258)" fill="none" stroke="#fff" stroke-miterlimit="10" stroke-width="1.128"/>
          <circle id="Elipse_9902" data-name="Elipse 9902" cx="2.062" cy="2.062" r="2.062" transform="translate(227.412 178.705)" fill="none" stroke="#fff" stroke-miterlimit="10" stroke-width="1.128"/>
          <path id="Trazado_827718" data-name="Trazado 827718" d="M366.865,102.645a2.619,2.619,0,1,1-2.619-2.619,2.619,2.619,0,0,1,2.619,2.619" transform="translate(-109.663 -30.333)" fill="#289df2"/>
          <path id="Trazado_827719" data-name="Trazado 827719" d="M19.558,249.235a2.619,2.619,0,1,1-2.619-2.619,2.619,2.619,0,0,1,2.619,2.619" transform="translate(-4.343 -74.786)" fill="#ff4d6b"/>
          <path id="Trazado_827720" data-name="Trazado 827720" d="M35.139,262.287a4.583,4.583,0,1,1-4.583-4.583,4.583,4.583,0,0,1,4.583,4.583" transform="translate(-7.876 -78.149)" fill="#ff4d6b"/>
          <rect id="Rectángulo_383599" data-name="Rectángulo 383599" width="18.332" height="4.19" transform="translate(165.017 199.59)" fill="none" stroke="#289df2" stroke-miterlimit="10" stroke-width="1.128"/>
          <rect id="Rectángulo_383600" data-name="Rectángulo 383600" width="40.2" height="4.19" transform="translate(165.016 207.447)" fill="none" stroke="#289df2" stroke-miterlimit="10" stroke-width="1.128"/>
          <line id="Línea_314" data-name="Línea 314" x1="4.443" y2="4.443" transform="translate(48.269 203.603)" fill="none" stroke="#289df2" stroke-linecap="round" stroke-linejoin="round" stroke-width="1.128"/>
          <line id="Línea_315" data-name="Línea 315" x1="4.443" y2="4.443" transform="translate(52.541 203.603)" fill="none" stroke="#289df2" stroke-linecap="round" stroke-linejoin="round" stroke-width="1.128"/>
          <line id="Línea_316" data-name="Línea 316" x1="4.443" y2="4.443" transform="translate(56.813 203.603)" fill="none" stroke="#289df2" stroke-linecap="round" stroke-linejoin="round" stroke-width="1.128"/>
          <line id="Línea_317" data-name="Línea 317" x1="4.443" y2="4.443" transform="translate(61.085 203.603)" fill="none" stroke="#289df2" stroke-linecap="round" stroke-linejoin="round" stroke-width="1.128"/>
          <line id="Línea_318" data-name="Línea 318" x1="4.443" y2="4.443" transform="translate(65.357 203.603)" fill="none" stroke="#289df2" stroke-linecap="round" stroke-linejoin="round" stroke-width="1.128"/>
        </g>
      </g>
    </g>
  </g>
</svg>
