<svg xmlns="http://www.w3.org/2000/svg" width="94" height="106" viewBox="0 0 94 106">
  <g id="Grupo_1074583" data-name="Grupo 1074583" transform="translate(-205 -6854)">
    <rect id="Rectángulo_383442" data-name="Rectángulo 383442" width="94" height="106" rx="8" transform="translate(205 6854)" fill="#1682fb"/>
    <g id="escritorio_1_" data-name="escritorio (1)" transform="translate(218 6855.701)">
      <g id="Grupo_1074582" data-name="Grupo 1074582" transform="translate(0 20.299)">
        <rect id="Rectángulo_383602" data-name="Rectángulo 383602" width="15.945" height="7.249" transform="translate(26.044 45.908)" fill="#9facba"/>
        <rect id="Rectángulo_383603" data-name="Rectángulo 383603" width="5.315" height="7.249" transform="translate(26.044 45.908)" fill="#8d9ca8"/>
        <path id="Rectángulo_383604" data-name="Rectángulo 383604" d="M-6.5-7.5H9.442a1,1,0,0,1,1,1V.745a1,1,0,0,1-1,1H-6.5a1,1,0,0,1-1-1V-6.5A1,1,0,0,1-6.5-7.5ZM8.445-5.507H-5.507V-.251H8.445Z" transform="translate(32.547 52.412)"/>
        <path id="Trazado_827721" data-name="Trazado 827721" d="M7.5,316.317a2.657,2.657,0,0,0,2.658,2.658H70.881a2.657,2.657,0,0,0,2.658-2.658V311.8H7.5Z" transform="translate(-6.503 -273.066)" fill="#c5d3dd"/>
        <path id="Trazado_827722" data-name="Trazado 827722" d="M12.881,316.317V311.8H7.5v4.518a2.657,2.657,0,0,0,2.658,2.658h5.381A2.657,2.657,0,0,1,12.881,316.317Z" transform="translate(-6.503 -273.066)" fill="#b6c4cf"/>
        <path id="Trazado_827723" data-name="Trazado 827723" d="M64.378,313.467H59.927a1,1,0,1,1,0-1.993h4.451a1.663,1.663,0,0,0,1.661-1.661v-3.521H1.993v3.521a1.663,1.663,0,0,0,1.661,1.661H55.276a1,1,0,1,1,0,1.993H3.654A3.658,3.658,0,0,1,0,309.813V305.3a1,1,0,0,1,1-1H67.036a1,1,0,0,1,1,1v4.518A3.658,3.658,0,0,1,64.378,313.467Z" transform="translate(0 -266.562)"/>
        <path id="Línea_319" data-name="Línea 319" d="M32.3-5.507H-6.5a1,1,0,0,1-1-1,1,1,0,0,1,1-1H32.3a1,1,0,0,1,1,1A1,1,0,0,1,32.3-5.507Z" transform="translate(21.12 59.661)"/>
        <rect id="Rectángulo_383605" data-name="Rectángulo 383605" width="66.039" height="32.658" transform="translate(0.997 6.075)" fill="#dff6fd"/>
        <rect id="Rectángulo_383606" data-name="Rectángulo 383606" width="5.381" height="32.658" transform="translate(0.997 6.075)" fill="#c8effe"/>
        <path id="Rectángulo_383607" data-name="Rectángulo 383607" d="M-6.5-7.5H59.536a1,1,0,0,1,1,1V26.154a1,1,0,0,1-1,1H-6.5a1,1,0,0,1-1-1V-6.5A1,1,0,0,1-6.5-7.5ZM58.539-5.507H-5.507V25.158H58.539Z" transform="translate(7.5 12.579)"/>
        <path id="Trazado_827724" data-name="Trazado 827724" d="M70.881,27.8H10.158A2.657,2.657,0,0,0,7.5,30.457v2.421H73.539V30.457A2.657,2.657,0,0,0,70.881,27.8Z" transform="translate(-6.503 -26.802)" fill="#6bd9e7"/>
        <path id="Trazado_827725" data-name="Trazado 827725" d="M67.036,27.371H1a1,1,0,0,1-1-1V23.953A3.658,3.658,0,0,1,3.654,20.3H15.812a1,1,0,1,1,0,1.993H3.654a1.663,1.663,0,0,0-1.661,1.661v1.425H66.039V23.953a1.663,1.663,0,0,0-1.661-1.661H20.463a1,1,0,1,1,0-1.993H64.378a3.658,3.658,0,0,1,3.654,3.654v2.421A1,1,0,0,1,67.036,27.371Z" transform="translate(0 -20.299)"/>
        <path id="Trazado_827726" data-name="Trazado 827726" d="M10.158,27.8A2.657,2.657,0,0,0,7.5,30.457v2.421H18.141V27.8Z" transform="translate(-6.503 -26.802)" fill="#6bd9e7"/>
        <path id="Trazado_827727" data-name="Trazado 827727" d="M15.539,27.8H10.158A2.657,2.657,0,0,0,7.5,30.457v2.421h5.381V30.457A2.657,2.657,0,0,1,15.539,27.8Z" transform="translate(-6.503 -26.802)" fill="#2ed1e2"/>
        <path id="Trazado_827728" data-name="Trazado 827728" d="M3.654,20.3h7.984a1,1,0,0,1,1,1v5.079a1,1,0,0,1-1,1H1a1,1,0,0,1-1-1V23.953A3.658,3.658,0,0,1,3.654,20.3Zm6.987,1.993H3.654a1.663,1.663,0,0,0-1.661,1.661v1.425h8.648Z" transform="translate(0 -20.299)"/>
        <g id="Grupo_1074581" data-name="Grupo 1074581" transform="translate(5.947 9.7)">
          <path id="Trazado_827729" data-name="Trazado 827729" d="M358.462,100.8V123.96h12.794a.664.664,0,0,0,.664-.664V101.463a.664.664,0,0,0-.664-.664Z" transform="translate(-316.778 -99.802)" fill="#fea613"/>
          <rect id="Rectángulo_383608" data-name="Rectángulo 383608" width="4.456" height="23.161" transform="translate(41.684 0.997)" fill="#fe9901"/>
          <path id="Trazado_827730" data-name="Trazado 827730" d="M351.959,93.3h12.794a1.663,1.663,0,0,1,1.661,1.661v21.832a1.663,1.663,0,0,1-1.661,1.661H351.959a1,1,0,0,1-1-1V94.3A1,1,0,0,1,351.959,93.3Zm12.462,1.993H352.955V116.46H364.42Z" transform="translate(-310.275 -93.299)"/>
          <path id="Trazado_827731" data-name="Trazado 827731" d="M387.9,137.668v-7.027a.4.4,0,0,1,.4-.4h4.836a.4.4,0,0,1,.4.4v7.027a.4.4,0,0,1-.4.4H388.3A.4.4,0,0,1,387.9,137.668Z" transform="translate(-342.309 -125.333)" fill="#fff"/>
          <path id="Trazado_827731_-_Contorno" data-name="Trazado 827731 - Contorno" d="M386.637,132.56H381.8a1.4,1.4,0,0,1-1.4-1.4v-7.027a1.4,1.4,0,0,1,1.4-1.4h4.836a1.4,1.4,0,0,1,1.4,1.4v7.027A1.4,1.4,0,0,1,386.637,132.56Zm-4.238-1.993h3.641v-5.831H382.4Z" transform="translate(-335.805 -118.83)"/>
          <g id="Grupo_1074579" data-name="Grupo 1074579" transform="translate(0.997 0.997)">
            <path id="Trazado_827732" data-name="Trazado 827732" d="M56.284,105.494H52.918a.664.664,0,0,1-.664-.664v-3.366a.664.664,0,0,1,.664-.664h3.366a.664.664,0,0,1,.664.664v3.366A.665.665,0,0,1,56.284,105.494Z" transform="translate(-52.254 -100.799)" fill="#fed402"/>
            <path id="Trazado_827733" data-name="Trazado 827733" d="M54.479,104.829v-3.366a.664.664,0,0,1,.664-.664H52.918a.664.664,0,0,0-.664.664v3.366a.664.664,0,0,0,.664.664h2.225A.664.664,0,0,1,54.479,104.829Z" transform="translate(-52.254 -100.799)" fill="#fac600"/>
            <path id="Trazado_827734" data-name="Trazado 827734" d="M56.284,174.98H52.918a.664.664,0,0,1-.664-.664v-3.366a.664.664,0,0,1,.664-.664h3.366a.664.664,0,0,1,.664.664v3.366A.665.665,0,0,1,56.284,174.98Z" transform="translate(-52.254 -161.052)" fill="#00f2a6"/>
            <path id="Trazado_827735" data-name="Trazado 827735" d="M54.479,174.314v-3.366a.664.664,0,0,1,.664-.664H52.918a.664.664,0,0,0-.664.664v3.366a.664.664,0,0,0,.664.664h2.225A.664.664,0,0,1,54.479,174.314Z" transform="translate(-52.254 -161.051)" fill="#05e39c"/>
            <path id="Trazado_827736" data-name="Trazado 827736" d="M56.284,244.465H52.918a.664.664,0,0,1-.664-.664v-3.366a.664.664,0,0,1,.664-.664h3.366a.664.664,0,0,1,.664.664V243.8A.664.664,0,0,1,56.284,244.465Z" transform="translate(-52.254 -221.304)" fill="#6bd9e7"/>
            <path id="Trazado_827737" data-name="Trazado 827737" d="M54.479,243.8v-3.366a.664.664,0,0,1,.664-.664H52.918a.664.664,0,0,0-.664.664V243.8a.664.664,0,0,0,.664.664h2.225A.664.664,0,0,1,54.479,243.8Z" transform="translate(-52.254 -221.304)" fill="#2ed1e2"/>
          </g>
          <g id="Grupo_1074580" data-name="Grupo 1074580">
            <path id="Trazado_827738" data-name="Trazado 827738" d="M49.781,99.987H46.415a1.663,1.663,0,0,1-1.661-1.661V94.96A1.663,1.663,0,0,1,46.415,93.3h3.366a1.663,1.663,0,0,1,1.661,1.661v3.366A1.663,1.663,0,0,1,49.781,99.987Zm-3.034-1.993h2.7v-2.7h-2.7Z" transform="translate(-44.754 -93.299)"/>
            <path id="Trazado_827739" data-name="Trazado 827739" d="M49.781,169.473H46.415a1.663,1.663,0,0,1-1.661-1.661v-3.366a1.663,1.663,0,0,1,1.661-1.661h3.366a1.663,1.663,0,0,1,1.661,1.661v3.366A1.663,1.663,0,0,1,49.781,169.473Zm-3.034-1.993h2.7v-2.7h-2.7Z" transform="translate(-44.754 -153.552)"/>
            <path id="Trazado_827740" data-name="Trazado 827740" d="M49.781,238.958H46.415a1.663,1.663,0,0,1-1.661-1.661v-3.366a1.663,1.663,0,0,1,1.661-1.661h3.366a1.663,1.663,0,0,1,1.661,1.661V237.3A1.663,1.663,0,0,1,49.781,238.958Zm-3.034-1.993h2.7v-2.7h-2.7Z" transform="translate(-44.754 -213.804)"/>
          </g>
          <path id="Trazado_827741" data-name="Trazado 827741" d="M162.385,123.96H133a.664.664,0,0,1-.664-.664V101.463A.664.664,0,0,1,133,100.8h29.382Z" transform="translate(-120.701 -99.802)" fill="#fff"/>
          <path id="Trazado_827742" data-name="Trazado 827742" d="M155.882,118.453H126.5a1.663,1.663,0,0,1-1.661-1.661V94.96A1.663,1.663,0,0,1,126.5,93.3h29.382a1,1,0,0,1,1,1v23.161A1,1,0,0,1,155.882,118.453Zm-29.05-1.993h28.053V95.292H126.832Z" transform="translate(-114.198 -93.299)"/>
          <path id="Línea_320" data-name="Línea 320" d="M10.3-5.507H-6.5a1,1,0,0,1-1-1,1,1,0,0,1,1-1H10.3a1,1,0,0,1,1,1A1,1,0,0,1,10.3-5.507Z" transform="translate(26.999 17.515)"/>
          <path id="Línea_321" data-name="Línea 321" d="M-5.349-5.507H-6.5a1,1,0,0,1-1-1,1,1,0,0,1,1-1h1.154a1,1,0,0,1,1,1A1,1,0,0,1-5.349-5.507Z" transform="translate(22.523 17.515)"/>
          <path id="Línea_322" data-name="Línea 322" d="M14.779-5.507H-6.5a1,1,0,0,1-1-1,1,1,0,0,1,1-1H14.779a1,1,0,0,1,1,1A1,1,0,0,1,14.779-5.507Z" transform="translate(22.523 21.584)"/>
          <path id="Línea_323" data-name="Línea 323" d="M4.764-5.507H-6.5a1,1,0,0,1-1-1,1,1,0,0,1,1-1H4.764a1,1,0,0,1,1,1A1,1,0,0,1,4.764-5.507Z" transform="translate(22.523 25.653)"/>
          <path id="Trazado_827743" data-name="Trazado 827743" d="M162.385,106.433H132.339v-4.969A.664.664,0,0,1,133,100.8h29.382Z" transform="translate(-120.701 -99.802)" fill="#4f66d0"/>
          <path id="Trazado_827744" data-name="Trazado 827744" d="M155.882,100.926H125.836a1,1,0,0,1-1-1V94.96A1.663,1.663,0,0,1,126.5,93.3h29.382a1,1,0,0,1,1,1v5.634A1,1,0,0,1,155.882,100.926Zm-29.05-1.993h28.053V95.292H126.832Z" transform="translate(-114.198 -93.299)"/>
          <path id="Trazado_827745" data-name="Trazado 827745" d="M137.973,106.433h-5.634v-4.969A.664.664,0,0,1,133,100.8h4.969Z" transform="translate(-120.701 -99.802)" fill="#314dc9"/>
          <path id="Trazado_827746" data-name="Trazado 827746" d="M131.469,100.926h-5.634a1,1,0,0,1-1-1V94.96A1.663,1.663,0,0,1,126.5,93.3h4.969a1,1,0,0,1,1,1v5.634A1,1,0,0,1,131.469,100.926Zm-4.637-1.993h3.641V95.292h-3.641Z" transform="translate(-114.198 -93.299)"/>
          <path id="Línea_324" data-name="Línea 324" d="M-.87-5.507H-6.5a1,1,0,0,1-1-1,1,1,0,0,1,1-1H-.87a1,1,0,0,1,1,1A1,1,0,0,1-.87-5.507Z" transform="translate(52.1 26.748)"/>
          <path id="Línea_325" data-name="Línea 325" d="M-.87-5.507H-6.5a1,1,0,0,1-1-1,1,1,0,0,1,1-1H-.87a1,1,0,0,1,1,1A1,1,0,0,1-.87-5.507Z" transform="translate(52.1 22.993)"/>
        </g>
      </g>
      <path id="Trazado_827747" data-name="Trazado 827747" d="M56.066,457.839H8.164a.664.664,0,0,1-.664-.664v-2.711a.664.664,0,0,1,.664-.664h47.9a.664.664,0,0,1,.664.664v2.711A.664.664,0,0,1,56.066,457.839Z" transform="translate(-6.503 -375.899)" fill="#c5d3dd"/>
      <path id="Trazado_827748" data-name="Trazado 827748" d="M14.277,457.174v-2.711a.664.664,0,0,1,.664-.664H8.164a.664.664,0,0,0-.664.664v2.711a.664.664,0,0,0,.664.664h6.777A.664.664,0,0,1,14.277,457.174Z" transform="translate(-6.503 -375.899)" fill="#b6c4cf"/>
      <path id="Trazado_827749" data-name="Trazado 827749" d="M49.562,452.332H1.661A1.663,1.663,0,0,1,0,450.671V447.96A1.663,1.663,0,0,1,1.661,446.3H11.826a1,1,0,0,1,0,1.993H1.993v2.047H49.23v-2.047H16.477a1,1,0,0,1,0-1.993H49.562a1.663,1.663,0,0,1,1.661,1.661v2.711A1.663,1.663,0,0,1,49.562,452.332Z" transform="translate(0 -369.395)"/>
      <path id="Trazado_827750" data-name="Trazado 827750" d="M422.123,440.69H410.164a.664.664,0,0,1-.664-.664v-1.489a4.514,4.514,0,0,1,4.514-4.514h3.6a4.514,4.514,0,0,1,4.514,4.514v2.154Z" transform="translate(-355.088 -358.75)" fill="#c5d3dd"/>
      <path id="Trazado_827751" data-name="Trazado 827751" d="M413.818,440.026v-1.489a4.513,4.513,0,0,1,4.152-4.5c-.119-.009-.24-.016-.362-.016h-3.6a4.514,4.514,0,0,0-4.514,4.514v1.489a.664.664,0,0,0,.664.664h4.319A.664.664,0,0,1,413.818,440.026Z" transform="translate(-355.087 -358.75)" fill="#b6c4cf"/>
      <path id="Trazado_827752" data-name="Trazado 827752" d="M415.62,435.184H403.661A1.663,1.663,0,0,1,402,433.523v-1.489a5.517,5.517,0,0,1,5.51-5.51h3.6a5.517,5.517,0,0,1,5.51,5.51v2.154A1,1,0,0,1,415.62,435.184Zm-11.627-1.993h10.63v-1.157a3.521,3.521,0,0,0-3.517-3.517h-3.6a3.521,3.521,0,0,0-3.517,3.517Z" transform="translate(-348.584 -352.247)"/>
    </g>
  </g>
</svg>
