<svg xmlns="http://www.w3.org/2000/svg" width="187" height="61" viewBox="0 0 187 61">
  <g id="Grupo_1074672" data-name="Grupo 1074672" transform="translate(-4153 8838)">
    <path id="Trazado_828065" data-name="Trazado 828065" d="M0,0H187V61H0Z" transform="translate(4153 -8838)" fill="#fff"/>
    <path id="Trazado_828066" data-name="Trazado 828066" d="M3.258,3.625l3.719,9.281L10.7,3.625h1.945V15h-1.5V10.57l.141-4.781L7.547,15H6.4L2.672,5.813,2.82,10.57V15H1.32V3.625ZM22.922,4.852H19.266V15H17.773V4.852H14.125V3.625h8.8Zm9.672,0H28.938V15H27.445V4.852H23.8V3.625h8.8Zm7.961,5.125H35.781V15h-1.5V3.625h7.047V4.852H35.781v3.9h4.773ZM53.469,8.641H46.953V7.383h6.516Zm0,3.242H46.953v-1.25h6.516Zm6.078-1.5a12.079,12.079,0,0,1,.473-3.391,9.85,9.85,0,0,1,1.41-2.953,6,6,0,0,1,1.945-1.875l.3.953A6.222,6.222,0,0,0,61.8,5.789,11.583,11.583,0,0,0,61,9.813l-.008.664a11.643,11.643,0,0,0,1.1,5.234,6.252,6.252,0,0,0,1.578,2.078l-.3.883a6.192,6.192,0,0,1-1.984-1.937A10.859,10.859,0,0,1,59.547,10.383ZM69.672,15H68.219V5.367L65.3,6.438V5.125L69.445,3.57h.227Zm10.336-3.82h1.578v1.18H80.008V15H78.555V12.359h-5.18v-.852l5.094-7.883h1.539Zm-4.992,0h3.539V5.6l-.172.313ZM91.141,8.9h3.172v1.367H91.141v3.594H89.688V10.266H86.516V8.9h3.172V5.578h1.453ZM104.633,15H103.18V5.367l-2.914,1.07V5.125l4.141-1.555h.227Zm9.906-11.383V4.844h-.266a3.805,3.805,0,0,0-2.687,1A4.161,4.161,0,0,0,110.43,8.57a3.085,3.085,0,0,1,2.453-1.031,2.95,2.95,0,0,1,2.371,1.047,4.038,4.038,0,0,1,.887,2.7,4.025,4.025,0,0,1-.957,2.813,3.3,3.3,0,0,1-2.566,1.055,3.247,3.247,0,0,1-2.648-1.254,4.97,4.97,0,0,1-1.016-3.23v-.555a7.488,7.488,0,0,1,1.34-4.8,4.921,4.921,0,0,1,3.988-1.7Zm-1.9,5.125a2.429,2.429,0,0,0-2.234,1.563v.531a3.731,3.731,0,0,0,.633,2.266,1.9,1.9,0,0,0,1.578.859,1.838,1.838,0,0,0,1.535-.719,2.982,2.982,0,0,0,.559-1.883,2.983,2.983,0,0,0-.566-1.895A1.816,1.816,0,0,0,112.641,8.742ZM126.1,8.9h3.172v1.367H126.1v3.594h-1.453V10.266h-3.172V8.9h3.172V5.578H126.1ZM139.594,15h-1.453V5.367l-2.914,1.07V5.125l4.141-1.555h.227Zm11.688,0h-7.453V13.961l3.938-4.375a9.355,9.355,0,0,0,1.207-1.613,2.692,2.692,0,0,0,.332-1.285,2.041,2.041,0,0,0-.539-1.461,1.885,1.885,0,0,0-1.437-.57,2.232,2.232,0,0,0-1.676.613,2.343,2.343,0,0,0-.6,1.707h-1.445a3.355,3.355,0,0,1,1.012-2.539,3.751,3.751,0,0,1,2.707-.969,3.6,3.6,0,0,1,2.508.832,2.838,2.838,0,0,1,.922,2.215q0,1.68-2.141,4l-3.047,3.3h5.711Zm5.016-4.539a12.084,12.084,0,0,1-.457,3.34,9.876,9.876,0,0,1-1.4,2.949,6.127,6.127,0,0,1-1.973,1.922l-.3-.883a6.281,6.281,0,0,0,1.934-2.863,12.387,12.387,0,0,0,.746-4.309v-.25a12.861,12.861,0,0,0-.344-3.051,10.3,10.3,0,0,0-.957-2.527,5.838,5.838,0,0,0-1.379-1.742l.3-.883a6.1,6.1,0,0,1,1.965,1.906,9.9,9.9,0,0,1,1.4,2.945A12.364,12.364,0,0,1,156.3,10.461ZM94.148,32.609h1.086a2.387,2.387,0,0,0,1.609-.539,1.8,1.8,0,0,0,.586-1.414,1.764,1.764,0,0,0-1.992-2,2.072,2.072,0,0,0-1.5.535,1.873,1.873,0,0,0-.559,1.418H91.938a2.9,2.9,0,0,1,.988-2.246,3.6,3.6,0,0,1,2.512-.895,3.558,3.558,0,0,1,2.523.852,3.076,3.076,0,0,1,.914,2.367,2.5,2.5,0,0,1-.48,1.438,2.9,2.9,0,0,1-1.309,1.039,2.8,2.8,0,0,1,1.449.984,2.734,2.734,0,0,1,.512,1.68,3.1,3.1,0,0,1-1,2.43,3.745,3.745,0,0,1-2.6.9,3.844,3.844,0,0,1-2.605-.867,2.877,2.877,0,0,1-1-2.289h1.453a1.859,1.859,0,0,0,.586,1.438,2.229,2.229,0,0,0,1.57.539,2.187,2.187,0,0,0,1.6-.547,2.108,2.108,0,0,0,.555-1.57,1.912,1.912,0,0,0-.609-1.523,2.655,2.655,0,0,0-1.758-.547H94.148Z" transform="translate(4160 -8829)" fill="#273a89"/>
    <path id="Trazado_827376" data-name="Trazado 827376" d="M0,0H110.91" transform="translate(4213.5 -8807.184)" fill="#273a89" stroke="#273a89" stroke-width="1"/>
  </g>
</svg>
