<svg xmlns="http://www.w3.org/2000/svg" width="295" height="170" viewBox="0 0 295 170">
  <g id="Grupo_1074437" data-name="Grupo 1074437" transform="translate(-180 -6455)">
    <rect id="Rectángulo_383281" data-name="Rectángulo 383281" width="295" height="107" rx="15" transform="translate(180 6487)" fill="#3ee2a8"/>
    <g id="IP_Location" transform="translate(241.619 6454)">
      <path id="Trazado_827335" data-name="Trazado 827335" d="M183.845,48.6h89.909a10.578,10.578,0,0,1,10.578,10.578V72.4H183.845V48.6Z" transform="translate(-121.642 -31.733)" fill="#96a1c3"/>
      <path id="Trazado_827336" data-name="Trazado 827336" d="M35.76,48.6H82.116a10.577,10.577,0,0,1,9.467,5.844l2.063,4.178a10.577,10.577,0,0,0,9.467,5.844h75.444V175.529a10.578,10.578,0,0,1-10.578,10.578H35.76a10.578,10.578,0,0,1-10.578-10.578V59.176A10.578,10.578,0,0,1,35.76,48.6Z" transform="translate(-15.867 -31.733)" fill="#f5f7ff"/>
      <path id="Trazado_827337" data-name="Trazado 827337" d="M167.979,416.167H35.76a10.578,10.578,0,0,1-10.578-10.578v7.933A10.578,10.578,0,0,0,35.76,424.1H167.979a10.578,10.578,0,0,0,10.578-10.578v-7.933A10.578,10.578,0,0,1,167.979,416.167Z" transform="translate(-15.867 -269.726)" fill="#ccd3eb"/>
      <path id="Trazado_827338" data-name="Trazado 827338" d="M56.915,22.155V34.081a34.826,34.826,0,0,1-23.8,33.028,34.827,34.827,0,0,1-23.8-33.028V22.155a44.954,44.954,0,0,0,23.8-13.222A44.8,44.8,0,0,0,56.915,22.155Z" transform="translate(-5.29 -5.289)" fill="#0074ff"/>
      <path id="Trazado_827339" data-name="Trazado 827339" d="M57.661,90.12l-7.933-7.933a2.655,2.655,0,0,1,3.755-3.755l6.056,6.082L70.882,73.143A2.655,2.655,0,0,1,74.638,76.9L61.416,90.12a2.644,2.644,0,0,1-3.74.015Z" transform="translate(-31.712 -47.577)" fill="#f5f7ff"/>
      <circle id="Elipse_9889" data-name="Elipse 9889" cx="26.444" cy="26.444" r="26.444" transform="translate(115.09 114.708)" fill="#ccd3eb"/>
      <path id="Trazado_827340" data-name="Trazado 827340" d="M368.944,432.033a26.444,26.444,0,0,1-26.126-22.477,26.444,26.444,0,1,0,52.253,0A26.444,26.444,0,0,1,368.944,432.033Z" transform="translate(-227.41 -272.371)" fill="#96a1c3"/>
      <path id="Trazado_827341" data-name="Trazado 827341" d="M183.846,77.687h-5.289a2.644,2.644,0,0,1,0-5.289h5.289a2.644,2.644,0,1,1,0,5.289Z" transform="translate(-116.354 -47.599)" fill="#ccd3eb"/>
      <ellipse id="Elipse_9890" data-name="Elipse 9890" cx="21.155" cy="7.933" rx="21.155" ry="7.933" transform="translate(64.847 117.353)" fill="#96a1c3"/>
      <path id="Trazado_827342" data-name="Trazado 827342" d="M226.156,180.978a29.088,29.088,0,1,0-50.243,20.045c2.644,2.644,5.024,5.421,7.378,8.277l11.635,14.147a2.644,2.644,0,0,0,4.072,0c17.056-20.705,11.344-13.883,19.542-22.98A28.853,28.853,0,0,0,226.156,180.978Z" transform="translate(-111.066 -100.646)" fill="#ccd3eb"/>
      <path id="Trazado_827343" data-name="Trazado 827343" d="M157.4,199.328h58.176a5.289,5.289,0,0,1,5.289,5.289V231.06a5.289,5.289,0,0,1-5.289,5.289H157.4a5.289,5.289,0,0,1-5.289-5.289V204.617A5.289,5.289,0,0,1,157.4,199.328Z" transform="translate(-100.488 -132.219)" fill="#0074ff"/>
      <path id="Trazado_827344" data-name="Trazado 827344" d="M480.015,278.66a2.644,2.644,0,0,0-2.644,2.644v5.289a2.644,2.644,0,1,0,5.289,0V281.3A2.644,2.644,0,0,0,480.015,278.66Z" transform="translate(-317.326 -185.107)" fill="#033c59"/>
      <path id="Trazado_827345" data-name="Trazado 827345" d="M26.98,64.465a2.645,2.645,0,0,0,1.692,0,37.392,37.392,0,0,0,25.6-35.673V19.511H66.249a7.933,7.933,0,0,1,7.087,4.363l2.089,4.2a13.221,13.221,0,0,0,11.82,7.3h72.8V85.62a2.644,2.644,0,1,0,5.289,0V27.444a13.222,13.222,0,0,0-13.222-13.222H51.916a41.835,41.835,0,0,1-21.155-11.4C29.571,1.661,29.122,1,27.826,1s-1.957.846-2.909,1.825A41.837,41.837,0,0,1,3.5,14.222a2.645,2.645,0,0,0-2.116,2.644V28.792A37.392,37.392,0,0,0,26.98,64.465ZM160.045,27.444v2.644h-72.8a7.933,7.933,0,0,1-7.087-4.363A33.562,33.562,0,0,0,76.8,19.51h75.312A7.933,7.933,0,0,1,160.045,27.444ZM6.671,18.982A47.126,47.126,0,0,0,27.826,7.373,47.1,47.1,0,0,0,48.981,18.982v9.811A32.1,32.1,0,0,1,27.826,59.018,32.1,32.1,0,0,1,6.671,28.792Z" transform="translate(0 0)" fill="#033c59"/>
      <path id="Trazado_827346" data-name="Trazado 827346" d="M175.913,240.845V228.416a2.644,2.644,0,0,0-5.289,0v6.664a29.088,29.088,0,0,0-45.589,33H30.472a7.933,7.933,0,0,1-7.933-7.933V178.173a2.644,2.644,0,0,0-5.289,0v81.976a13.222,13.222,0,0,0,13.222,13.222h97.287a29.088,29.088,0,1,0,49.711-30.221Q176.746,241.961,175.913,240.845Zm-29.749,27.237h11.9a36.359,36.359,0,0,1-5.95,11.715A36.365,36.365,0,0,1,146.163,268.082Zm-1.19-5.289a37.312,37.312,0,0,1,0-10.578h14.28a37.312,37.312,0,0,1,0,10.578Zm-16.051-10.577h10.736a41.639,41.639,0,0,0,0,10.578H128.922A23.058,23.058,0,0,1,128.922,252.216Zm29.088-5.289h-11.9a36.362,36.362,0,0,1,6-11.715,36.358,36.358,0,0,1,5.95,11.715Zm6.505,5.289h10.736a23.057,23.057,0,0,1,0,10.578H164.568a42.9,42.9,0,0,0,0-10.578Zm8.832-5.289h-9.784a41.646,41.646,0,0,0-5.553-12.455,23.8,23.8,0,0,1,15.39,12.455Zm-27.131-12.455a41.655,41.655,0,0,0-5.553,12.455h-9.7A23.8,23.8,0,0,1,146.216,234.472Zm-15.258,33.61h9.837a41.959,41.959,0,0,0,5.553,12.455A23.8,23.8,0,0,1,130.958,268.082Zm27.184,12.455a41.969,41.969,0,0,0,5.421-12.455H173.4a23.8,23.8,0,0,1-15.39,12.455Z" transform="translate(-10.579 -116.353)" fill="#033c59"/>
      <path id="Trazado_827347" data-name="Trazado 827347" d="M200.056,202.075H210.29a7.933,7.933,0,0,0,7.933-7.933V167.7a7.933,7.933,0,0,0-7.933-7.933h-1.613a31.732,31.732,0,0,0-54.9,0h-1.666a7.933,7.933,0,0,0-7.933,7.933v26.444a7.933,7.933,0,0,0,7.933,7.933H162.4c2.644,3.067,3.226,3.729,7.642,9.07-20.415,4.39-15.813,20.018,11.159,20.018s31.574-15.628,11.186-20.018C197.068,205.539,197.28,205.143,200.056,202.075Zm2.3-42.31h-42.31a26.444,26.444,0,0,1,42.31,0Zm-52.888,34.377V167.7a2.644,2.644,0,0,1,2.644-2.644H210.29a2.644,2.644,0,0,1,2.644,2.644v26.444a2.644,2.644,0,0,1-2.644,2.644H152.114A2.644,2.644,0,0,1,149.469,194.142Zm50.243,26.444c0,1.534-6.479,5.289-18.511,5.289s-18.511-3.755-18.511-5.289c0-.978,3.279-3.6,11.212-4.733l3.226,3.914a5.289,5.289,0,0,0,8.145,0l3.226-3.94C196.433,216.989,199.712,219.607,199.712,220.586Zm-18.51-4.178-11.794-14.333c26.153,0,23.8,0,23.4.238Z" transform="translate(-95.2 -95.3)" fill="#033c59"/>
      <path id="Trazado_827348" data-name="Trazado 827348" d="M255.244,223.128h-5.289a2.644,2.644,0,0,0-2.644,2.644v15.866a2.644,2.644,0,1,0,5.289,0v-2.644h2.644a7.933,7.933,0,0,0,0-15.866Zm0,10.577H252.6v-5.289h2.644a2.644,2.644,0,1,1,0,5.289Z" transform="translate(-163.953 -148.085)" fill="#f5f7ff"/>
      <path id="Trazado_827349" data-name="Trazado 827349" d="M218.222,223.128a2.644,2.644,0,0,0-2.644,2.644v15.866a2.644,2.644,0,1,0,5.289,0V225.772A2.644,2.644,0,0,0,218.222,223.128Z" transform="translate(-142.798 -148.085)" fill="#f5f7ff"/>
      <path id="Trazado_827350" data-name="Trazado 827350" d="M389.318,242.384l-2.644-2.644a2.655,2.655,0,0,0-3.755,3.755h0l.793.767-.793.767a2.655,2.655,0,0,0,3.755,3.755l2.644-2.644a2.644,2.644,0,0,0,.015-3.74Z" transform="translate(-253.84 -158.641)" fill="#0074ff"/>
      <path id="Trazado_827351" data-name="Trazado 827351" d="M111.65,239.731a2.644,2.644,0,0,0-3.74-.015l-.015.015-2.644,2.644a2.644,2.644,0,0,0-.015,3.74l.015.015,2.644,2.644a2.655,2.655,0,0,0,3.755-3.755h0l-.793-.767.793-.767a2.644,2.644,0,0,0,.015-3.74Z" transform="translate(-68.725 -158.632)" fill="#0074ff"/>
      <path id="Trazado_827352" data-name="Trazado 827352" d="M75.426,413.523H59.559a2.644,2.644,0,0,0,0,5.289H75.426a2.644,2.644,0,1,0,0-5.289Z" transform="translate(-37.022 -275.015)" fill="#96a1c3"/>
      <path id="Trazado_827353" data-name="Trazado 827353" d="M75.426,381.79H59.559a2.644,2.644,0,1,0,0,5.289H75.426a2.644,2.644,0,1,0,0-5.289Z" transform="translate(-37.022 -253.86)" fill="#96a1c3"/>
      <path id="Trazado_827354" data-name="Trazado 827354" d="M392.751,133.219h15.866a2.644,2.644,0,0,0,0-5.289H392.751a2.644,2.644,0,1,0,0,5.289Z" transform="translate(-259.15 -84.62)" fill="#96a1c3"/>
      <path id="Trazado_827355" data-name="Trazado 827355" d="M408.618,159.663H392.751a2.644,2.644,0,1,0,0,5.289h15.866a2.644,2.644,0,0,0,0-5.289Z" transform="translate(-259.15 -105.775)" fill="#96a1c3"/>
    </g>
  </g>
</svg>
