<svg xmlns="http://www.w3.org/2000/svg" xmlns:xlink="http://www.w3.org/1999/xlink" width="190" height="228.864" viewBox="0 0 190 228.864">
  <defs>
    <clipPath id="clip-path">
      <rect id="Rectángulo_382928" data-name="Rectángulo 382928" width="190" height="228.864" rx="9" fill="#bae9d9"/>
    </clipPath>
    <clipPath id="clip-path-2">
      <path id="Trazado_818456" data-name="Trazado 818456" d="M190.571,97.569a86.629,86.629,0,1,0-86.63,86.628,86.63,86.63,0,0,0,86.63-86.628" transform="translate(-17.313 -10.939)" fill="#3ee2a8"/>
    </clipPath>
    <clipPath id="clip-path-3">
      <rect id="Rectángulo_382967" data-name="Rectángulo 382967" width="172.255" height="670.695" fill="none"/>
    </clipPath>
    <clipPath id="clip-path-5">
      <rect id="Rectángulo_382964" data-name="Rectángulo 382964" width="4.202" height="3.369" fill="none"/>
    </clipPath>
    <clipPath id="clip-path-6">
      <rect id="Rectángulo_382965" data-name="Rectángulo 382965" width="10.655" height="3.495" fill="none"/>
    </clipPath>
  </defs>
  <g id="Grupo_1074226" data-name="Grupo 1074226" transform="translate(-305 -8605.031)">
    <rect id="Rectángulo_382968" data-name="Rectángulo 382968" width="190" height="228.864" rx="9" transform="translate(305 8605.031)" fill="#bae9d9"/>
    <g id="Grupo_1073725" data-name="Grupo 1073725" transform="translate(305 8605.031)">
      <g id="Enmascarar_grupo_158" data-name="Enmascarar grupo 158" clip-path="url(#clip-path)">
        <g id="Grupo_1073724" data-name="Grupo 1073724" transform="translate(-3.992 -56.268)">
          <g id="Grupo_1073621" data-name="Grupo 1073621" transform="translate(104.997 0)">
            <ellipse id="Elipse_9778" data-name="Elipse 9778" cx="55.461" cy="55.46" rx="55.461" ry="55.46" transform="translate(0 0)" fill="#b7ffe6"/>
          </g>
          <g id="Grupo_1073622" data-name="Grupo 1073622" transform="translate(0 58.846)">
            <g id="Grupo_1071496" data-name="Grupo 1071496" transform="translate(0 0)" clip-path="url(#clip-path-2)">
              <path id="Trazado_818450" data-name="Trazado 818450" d="M35.282,0l32.55,32.55L98.476,1.9l30.818,30.818L161.5.519l31.856,31.856L222.131,3.6,226.9,8.369,193.354,41.917,161.5,10.063l-32.2,32.2L98.476,11.448,67.832,42.092,35.282,9.542,4.773,40.051,0,35.282Z" transform="translate(-19.736 152.419)" fill="#3ee2a8"/>
              <path id="Trazado_818451" data-name="Trazado 818451" d="M35.282,16.8l32.55,32.548L98.476,18.7l30.818,30.816,32.2-32.2,31.856,31.856,28.777-28.779,4.771,4.773L193.354,58.713,161.5,26.856l-32.2,32.2L98.476,28.241,67.832,58.885,35.282,26.337,4.773,56.846,0,52.077Z" transform="translate(-19.736 102.729)" fill="#3ee2a8"/>
              <path id="Trazado_818452" data-name="Trazado 818452" d="M35.282,33.59l32.55,32.548L98.476,35.494,129.294,66.31l32.2-32.2,31.856,31.856,28.777-28.779,4.771,4.773L193.354,75.508,161.5,43.652l-32.2,32.2L98.476,45.036,67.832,75.68,35.282,43.133,4.773,73.641,0,68.87Z" transform="translate(-19.736 53.039)" fill="#3ee2a8"/>
              <path id="Trazado_818453" data-name="Trazado 818453" d="M35.282,50.387l32.55,32.55L98.476,52.292l30.818,30.816,32.2-32.2,31.856,31.858,28.777-28.779,4.771,4.771L193.354,92.3,161.5,60.448l-32.2,32.2L98.476,61.832,67.832,92.478l-32.55-32.55L4.773,90.439,0,85.668Z" transform="translate(-19.736 3.346)" fill="#3ee2a8"/>
              <path id="Trazado_818454" data-name="Trazado 818454" d="M35.282,67.182l32.55,32.55L98.476,69.087,129.294,99.9l32.2-32.2,31.856,31.856,28.777-28.779,4.771,4.771L193.354,109.1,161.5,77.243l-32.2,32.2L98.476,78.628,67.832,109.272l-32.55-32.55L4.773,107.233,0,102.462Z" transform="translate(-19.736 -46.344)" fill="#3ee2a8"/>
              <path id="Trazado_818455" data-name="Trazado 818455" d="M35.282,83.977l32.55,32.548L98.476,85.881,129.294,116.7l32.2-32.2,31.856,31.856,28.777-28.779,4.771,4.773-33.549,33.549L161.5,94.038l-32.2,32.2L98.476,95.423,67.832,126.067,35.282,93.519,4.773,124.028,0,119.257Z" transform="translate(-19.736 -96.034)" fill="#3ee2a8"/>
            </g>
          </g>
        </g>
        <g id="Grupo_1073754" data-name="Grupo 1073754" transform="translate(0 6.313)">
          <g id="Grupo_1073753" data-name="Grupo 1073753" clip-path="url(#clip-path-3)">
            <g id="Grupo_1073752" data-name="Grupo 1073752" transform="translate(0)">
              <g id="Grupo_1073751" data-name="Grupo 1073751" clip-path="url(#clip-path-3)">
                <path id="Trazado_824552" data-name="Trazado 824552" d="M40.113,416c-3.426-5.523-34.128-34.974-34.128-34.974S-.293,385.943.011,391.36c.29,5.159.073,32.312.148,35.173H3.885l2.1-12.388s8.488,13.58,14.862,18.231,27.906,3.815,33.073,3.126S43.537,421.521,40.113,416" transform="translate(117.293 233.811)" fill="#171612"/>
                <path id="Trazado_824553" data-name="Trazado 824553" d="M8.374,372.509l.494,13.29s-1.723,3.962,0,9.817,8.242,15.149,14.466,22.046C28.7,423.612,40.213,429.547,43.658,428s-6.545-13.434-9.472-19.633a106.445,106.445,0,0,1-6.343-17.455c-1.606-5.916-1.828-19.83-1.828-19.83Z" transform="translate(114.81 227.709)" fill="#b1614f"/>
                <path id="Trazado_824554" data-name="Trazado 824554" d="M21.88,320.67s-7.089,22.585-3.406,62.706c2.764,30.12,3.043,71.87,3.011,90.8,0,.574,0,1.123,0,1.652,0,1.414-.006,3.318,0,5.349,0,.542,0,1.094,0,1.649,0,5.141,0,10.469,0,10.469L49.7,496.122s.474-4.555,1.01-9.332q.092-.816.184-1.625c.215-1.888.434-3.731.629-5.265.068-.52.137-1.062.208-1.622,4.273-33.57,17.358-130.1,17.422-158.5,0-.892-.01-1.717-.032-2.472l-.01-.244c-.7-18.938-7.541-104.659-14.539-132.285-4.989-19.678-50.633-8.2-50.633-8.2s9.721,84.618,15,107.591c6.918,30.112,2.937,36.5,2.937,36.5" transform="translate(96.741 106.314)" fill="#314fa5"/>
                <path id="Trazado_824555" data-name="Trazado 824555" d="M4.96,264.7a88.422,88.422,0,0,0,13.088,1.031,53,53,0,0,0,8.18-.578c0-.894-.01-1.719-.032-2.472-9.053,1.522-20.7-.376-20.834-.4a1.224,1.224,0,0,0-.4,2.414" transform="translate(139.668 160.939)" fill="#1c2b74"/>
                <path id="Trazado_824556" data-name="Trazado 824556" d="M15.256,365.731l29.236,3.958q.092-.813.184-1.625L15.259,364.08c0,.544,0,1.1,0,1.651" transform="translate(102.961 223.414)" fill="#171612"/>
                <path id="Trazado_824557" data-name="Trazado 824557" d="M28.123,191.586a.9.9,0,0,1,1.033.741c.137.844,13.885,84.564,19.338,105.235a.885.885,0,0,1,.016.379c-.05.3-5.1,30.632-4.373,51.648.7,20.253,1.073,113.728,1.109,121.564-.6-.015-1.113.032-1.712,0-.039-8.307-.5-101.34-1.194-121.5-.7-20.317,3.936-49.182,4.367-51.816C41.2,276.768,27.52,193.459,27.381,192.617a.9.9,0,0,1,.742-1.031" transform="translate(79.568 117.557)" fill="#171612"/>
                <path id="Trazado_824558" data-name="Trazado 824558" d="M76.337,233.3q-1.963.494-3.944.947c-16.882,3.861-34.6,5.425-47.005,2.459-6.121-1.462-10.035-8.967-12.527-17.35a32.514,32.514,0,0,1-1.738-6.96c-1.518-23.293,4.21-33.175,4.21-33.175l91.293-10.2s3.035,5.6,6.4,12.895a152.922,152.922,0,0,1,6.819,17.037l.008.016a44.429,44.429,0,0,1,2.028,9.062c.725,8.3-20.981,19.081-45.548,25.268" transform="translate(32.816 103.721)" fill="#314fa5"/>
                <path id="Trazado_824559" data-name="Trazado 824559" d="M90.754,378.05s-6.976,2.842-7.234,12.659-.155,38.944-.155,38.944l2.869.1,2.775-12.838s1.228,9.7,6.137,15.9,15.5,6.458,22.476,5.425,1.807-13.951-1.034-21.184-8.786-24.544-8.786-24.544Z" transform="translate(-83.344 231.987)" fill="#171612"/>
                <path id="Trazado_824560" data-name="Trazado 824560" d="M96.208,364.84s-3.684,16.977-5.449,21.316c-1.1,2.708-4.909,8.783-2.842,17.051s3.445,20.324,8.268,25.491,17.4,5.338,18.428,1.205-6.372-19.462-6.718-27.385,4.266-33.239,4.266-33.239Z" transform="translate(-83.349 223.881)" fill="#b1614f"/>
                <path id="Trazado_824561" data-name="Trazado 824561" d="M45.383,481.7l26.346,6.674s1.507-4.589,2.866-8.589c.184-.534.36-1.054.534-1.555.25-.731.487-1.41.7-2.006.174-.489.357-1.007.547-1.547C86.158,447.035,118.4,355.206,123.6,331.127c.284-1.322.581-2.764.888-4.315.15-.789.31-1.6.468-2.448,5.031-26.675,11.955-79.541,12.614-108.885a115.906,115.906,0,0,0-.461-16.328,10.937,10.937,0,0,0-1.322-3.953c-8.677-15.328-53.665-10.151-53.665-10.151s-.073,2.472-.2,6.69c-.6,20.9-2.122,83.07-3.35,102.644C77.078,318.013,73.3,326.6,73.3,326.6s-8.493,22.173-13.482,62.151c-3.711,29.731-10.548,63.519-12.386,79-.071.571-.131,1.118-.2,1.638-.077.634-.168,1.349-.274,2.1-.069.524-.15,1.072-.229,1.625-.6,4.078-1.352,8.583-1.352,8.583" transform="translate(-38.609 113.035)" fill="#314fa5"/>
                <path id="Trazado_824562" data-name="Trazado 824562" d="M54.07,271.113a88.549,88.549,0,0,0,12.757,3.1,53.391,53.391,0,0,0,8.008.731c.153-.787.311-1.606.47-2.448-9.169.05-20.322-3.663-20.455-3.7a1.223,1.223,0,0,0-.781,2.319" transform="translate(11.039 164.902)" fill="#1c2b74"/>
                <path id="Trazado_824563" data-name="Trazado 824563" d="M84.118,363.869l1.577.378,1.5.357,24.787,5.933c.186-.534.363-1.055.534-1.556l-24.768-5.927-1.8-.429-1.594-.381c-.071.524-.15,1.071-.232,1.625" transform="translate(-75.993 222.288)" fill="#1c2b74"/>
                <path id="Trazado_824564" data-name="Trazado 824564" d="M60.366,221.364a.88.88,0,0,1-.2-1.736A28.112,28.112,0,0,0,70.356,214.2c6.848-5.628,10.64-13.679,11.27-23.927a.879.879,0,1,1,1.756.108c-.826,13.44-6.969,21.14-11.976,25.233a29.3,29.3,0,0,1-10.84,5.728.926.926,0,0,1-.2.023" transform="translate(-7.119 116.252)" fill="#171612"/>
                <path id="Trazado_824565" data-name="Trazado 824565" d="M74.934,465.63c-.116.673-.181,1.05-.189,1.1-.035.189-.737,4.1-.663,4.263l1.585.416c.115-.121.813-4.2.846-4.375.008-.048.076-.444.2-1.136,1.612-9.351,12.64-73.508,15.58-93.93,2.717-18.83,13.293-54.7,13.4-55.057a1.048,1.048,0,0,0,.034-.189c2.5-35.578,8.159-126.835,8.215-127.754a.9.9,0,0,0-1.791-.111c-.056.918-5.711,92-8.209,127.639-.612,2.075-10.761,36.738-13.425,55.214-2.947,20.432-13.992,84.7-15.578,93.919" transform="translate(-61.218 115.375)" fill="#171612"/>
                <path id="Trazado_824566" data-name="Trazado 824566" d="M33.431,216.38a.9.9,0,0,1-.418-1.694c.137-.073,9.643-5.222,11.544-16.433a.9.9,0,1,1,1.772.3,25.832,25.832,0,0,1-12.482,17.724.9.9,0,0,1-.416.1" transform="translate(73.42 121.196)" fill="#171612"/>
                <path id="Trazado_824567" data-name="Trazado 824567" d="M29.464,162.975c2.84,18.988,1.994,16.667-6.429,54.338,0,0-1.665,11.638-3.5,26.541-2.033,16.5-8.378,37.909,4.16,41.062,8.728,2.191,23.061,3.613,39.181,3.263l1.635-21.2,50.712-8.468A192.593,192.593,0,0,1,117.2,279.2c.066-.024.132-.045.2-.069,11.073-3.961,18.9-8.814,19.97-13.518,1.972-8.667-1.832-29.657-7.553-54.05-.1-.242-.907-3.36-1.154-4.039-.155-.423-.336-.925-.532-1.5-1.154-3.331-3.014-9.13-4.972-16.146-.411-1.483-.831-3.021-1.243-4.6-1.091-4.136-2.169-8.565-3.132-13.079q-.545-2.551-1.034-5.12c-.308-1.627-.6-3.255-.863-4.876-.284-1.707-.5-3.214-.658-4.481-.013-.1-.024-.2-.037-.3-.024-.221-.053-.441-.069-.647a1.112,1.112,0,0,1-.015-.118s.278-.274.752-.779c.066-.069.136-.147.2-.226,2.212-2.4,7.616-8.791,9.572-15.846s-3.858-19.067-8.128-32.846c-.169-.55-.34-1.109-.507-1.665a101.03,101.03,0,0,1-2.435-9.851c-3.481-18.413-2.611-25.686-31.522-30.854l-1.254-.115L51.077,61.625s-1.752.613-4.513,1.568c-5.711,1.982-15.738,5.441-23.4,8-17.4,5.8-16.233,24.8-9,41.651,1.662,3.861,3.245,7.87,4.72,11.894.2.541.4,1.081.592,1.625,4.936,13.7,8.625,27.448,9.993,36.614" transform="translate(19.542 37.816)" fill="#171612"/>
                <path id="Trazado_824568" data-name="Trazado 824568" d="M19.8,84.886q4.563,13.731,9.127,27.464c.2.6-.749.86-.949.261L18.849,85.148c-.2-.6.749-.86.947-.261" transform="translate(112.934 51.881)" fill="#5a554d"/>
                <path id="Trazado_824569" data-name="Trazado 824569" d="M58.549,151.57a40.821,40.821,0,0,0,18.242,22.854.737.737,0,0,0,.744-1.272,39.284,39.284,0,0,1-17.566-21.975c-.284-.9-1.707-.515-1.42.392" transform="translate(-0.051 92.455)" fill="#5a554d"/>
                <path id="Trazado_824570" data-name="Trazado 824570" d="M22.4,152.864a25.065,25.065,0,0,1-7.311,17.626c-.681.663.361,1.7,1.041,1.042a26.572,26.572,0,0,0,7.744-18.668.737.737,0,0,0-1.473,0" transform="translate(124.399 93.367)" fill="#5a554d"/>
                <path id="Trazado_824571" data-name="Trazado 824571" d="M25.917,65.3c5.16,4.689,10.582,9.072,15.693,13.814.032-.255.066-.51.1-.765q-6.644,3.694-12.972,7.918a.5.5,0,0,0-.1.765q8.418,9.091,16.83,18.179v-.689c-3.455,2.94-7.079,5.682-10.377,8.8-.458.431.232,1.12.687.689,3.3-3.118,6.924-5.861,10.379-8.8a.493.493,0,0,0,0-.689L29.328,86.345c-.032.253-.066.508-.1.765q6.32-4.221,12.97-7.92a.492.492,0,0,0,.1-.765c-5.11-4.743-10.534-9.125-15.691-13.814-.463-.421-1.155.266-.691.689" transform="translate(84.385 39.567)" fill="#5a554d"/>
                <path id="Trazado_824572" data-name="Trazado 824572" d="M40.763,254.895a.651.651,0,0,1-.647-.6C35.838,203.305,19.2,96.384,19.027,95.309a.65.65,0,0,1,1.284-.2c.166,1.075,16.817,108.041,21.1,159.082a.652.652,0,0,1-.594.7c-.018,0-.037,0-.055,0" transform="translate(100.15 58.026)" fill="#5a554d"/>
                <path id="Trazado_824573" data-name="Trazado 824573" d="M82.044,117.847a.616.616,0,0,1-.186-.027l-16.709-4.985a.648.648,0,0,1-.415-.868l8.191-20.083L57.066,81.916a.648.648,0,0,1-.16-.957L69.222,65.644a.649.649,0,1,1,1.012.813L58.375,81.2l15.7,9.869a.649.649,0,0,1,.257.8L66.207,111.8l16.022,4.78a.65.65,0,0,1-.186,1.272" transform="translate(-2.031 40.133)" fill="#5a554d"/>
                <path id="Trazado_824574" data-name="Trazado 824574" d="M56.678,260.282a.729.729,0,0,1-.583-.3.65.65,0,0,1,.132-.908l.037-.026c.933-3.442,2.1-36.746,2.685-77.085.5-34.412.55-77.08-.954-84.076a.649.649,0,1,1,1.27-.273c1.549,7.207,1.486,50.739.962,85.83-.29,19.352-.746,38.458-1.249,52.417-.862,23.838-1.446,24.1-2.009,24.36a.7.7,0,0,1-.292.064" transform="translate(21.38 59.583)" fill="#5a554d"/>
                <path id="Trazado_824575" data-name="Trazado 824575" d="M10.184,200.3a.649.649,0,0,1-.086-1.293C19.2,197.78,28.3,185.92,28.386,185.8a.649.649,0,0,1,1.034.784c-.382.507-9.506,12.411-19.149,13.709a.787.787,0,0,1-.087,0" transform="translate(127.314 113.857)" fill="#5a554d"/>
                <path id="Trazado_824576" data-name="Trazado 824576" d="M86.454,201.492c-8.789,0-20.208-1.251-30.065-6.384a.65.65,0,0,1,.6-1.152c18.721,9.748,43.3,5.178,43.546,5.13a.65.65,0,0,1,.247,1.276,85.45,85.45,0,0,1-14.328,1.13" transform="translate(-19.482 118.975)" fill="#5a554d"/>
                <path id="Trazado_824577" data-name="Trazado 824577" d="M23.235,63.194c2.236,2.669,5.653,9.287,9.327,20.763.137.416.271.844.4,1.275,1.5,4.788,3.027,10.381,4.536,16.838.092.4.186.8.276,1.2q1.181,5.146,2.33,11.013c.2,1.013.382,2.162.557,3.426.047.337.094.684.137,1.042.766,6.075,1.288,14.608,1.618,24.666l.029,1c.134,4.242.237,8.743.308,13.438.006.387.01.778.016,1.168.147,10.431.153,21.776.066,33.309l-.01,1.105c-.037,4.457-.087,8.94-.15,13.4,0,.3-.006.607-.013.907-.06,4.312-.134,8.6-.218,12.835l-.019,1.038q-.08,4.224-.174,8.355c-.01.37-.016.737-.026,1.109-.181,7.925-.387,15.523-.6,22.523-.015.357-.024.715-.034,1.068-.137,4.365-.278,8.486-.413,12.3a176.137,176.137,0,0,0,36.48-4.567q7.191-1.658,14.231-3.9c-.31-2.893-.641-5.977-.994-9.211v0c-.05-.476-.1-.954-.153-1.438-.771-7.071-1.625-14.837-2.54-22.954-.05-.452-.1-.9-.153-1.355-.817-7.268-1.681-14.8-2.572-22.368v0c-.077-.66-.153-1.325-.234-1.985v0c-.844-7.171-1.712-14.349-2.579-21.34-.04-.331-.084-.66-.124-.991-.878-7.052-1.759-13.9-2.625-20.325-.055-.407-.108-.81-.165-1.215-1.118-8.259-2.206-15.8-3.227-22.173-.069-.434-.139-.865-.207-1.289-.047-.27-.09-.536-.134-.8-1.157-7.027-2.338-13.442-3.513-19.288-.066-.319-.131-.641-.2-.957-2.053-10.085-4.091-18.441-6-25.3-.084-.3-.168-.607-.253-.9a180.375,180.375,0,0,0-6.764-20.129L27.75,61.626s-1.752.61-4.515,1.568" transform="translate(42.869 37.816)" fill="#fff"/>
                <path id="Trazado_824578" data-name="Trazado 824578" d="M38.984,75.464c.137.418.271.844.4,1.275a45.541,45.541,0,0,0,23.153,3.6A28.457,28.457,0,0,0,72.9,77.011c-.084-.3-.168-.607-.253-.9C64.2,80.97,53.22,80.273,44.217,77.449a47.854,47.854,0,0,1-5.233-1.985" transform="translate(36.447 46.308)" fill="#dbccc1"/>
                <path id="Trazado_824579" data-name="Trazado 824579" d="M35.146,86.689c.094.4.187.8.278,1.2a115.628,115.628,0,0,0,31.14,8.278c1.222.127,2.479.2,3.753.213-.066-.32-.129-.641-.2-.957a60.545,60.545,0,0,1-8.943-1.065,129.848,129.848,0,0,1-16.567-4.2q-4.8-1.552-9.464-3.474" transform="translate(45.225 53.196)" fill="#dbccc1"/>
                <path id="Trazado_824580" data-name="Trazado 824580" d="M32.758,96.382c.047.337.094.684.137,1.041A131.362,131.362,0,0,1,68.62,111.812q-.1-.651-.207-1.288A132.748,132.748,0,0,0,32.758,96.382" transform="translate(50.775 59.144)" fill="#dbccc1"/>
                <path id="Trazado_824581" data-name="Trazado 824581" d="M30.656,112.313q.015.5.031,1a131.447,131.447,0,0,1,37.467,12.114q-.08-.61-.165-1.215a132.828,132.828,0,0,0-37.333-11.9" transform="translate(54.633 68.92)" fill="#dbccc1"/>
                <path id="Trazado_824582" data-name="Trazado 824582" d="M59.094,144.108c1.478,2.84,3.674,6.69,2.88,10-.9,3.769-5.317,4.4-8.564,4.55a31.811,31.811,0,0,1-14.829-2.919l-.01,1.1a30.937,30.937,0,0,0,18.036,2.48c15.675-2.887-1.707-24.463-7.207-29.786a57.433,57.433,0,0,0-10.9-8.275c.006.387.01.778.016,1.168a55.451,55.451,0,0,1,20.579,21.679" transform="translate(47.127 74.41)" fill="#dbccc1"/>
                <path id="Trazado_824583" data-name="Trazado 824583" d="M28.494,144.457c1.738,3.5,4.262,6.711,6.493,9.908q1.046,1.5,2.109,2.99-.114-.992-.234-1.986v0q-3-4.265-5.856-8.622c-1.869-2.85-4.194-6.939-1.822-10.185a6.981,6.981,0,0,1,5.1-2.532c-.04-.331-.084-.662-.124-.992-.207.024-.416.05-.626.084a7.61,7.61,0,0,0-5.423,3.25c-1.568,2.543-.86,5.58.384,8.089" transform="translate(91.253 81.635)" fill="#dbccc1"/>
                <path id="Trazado_824584" data-name="Trazado 824584" d="M25.52,152.525c13.751,1.912,27.272,5.92,39.26,13.033,2.151,1.278,4.25,2.65,6.279,4.118-.05-.45-.1-.9-.153-1.354-13.393-9.424-29.118-14.432-45.372-16.7,0,.3-.006.607-.013.907" transform="translate(60.016 93.039)" fill="#dbccc1"/>
                <path id="Trazado_824585" data-name="Trazado 824585" d="M23.851,161.171q1.007.361,2.009.737a163.442,163.442,0,0,1,46.46,26.936c-.05-.478-.1-.955-.153-1.439a164.759,164.759,0,0,0-48.3-27.272l-.019,1.038" transform="translate(61.448 98.264)" fill="#dbccc1"/>
                <path id="Trazado_824586" data-name="Trazado 824586" d="M38.894,190.654a80.116,80.116,0,0,0,9.614,3.124,33.993,33.993,0,0,0,8.893,1.51c2.1-.039,4.488-.544,5.746-2.395,1.659-2.443.363-5.351-1.112-7.529a59.927,59.927,0,0,0-22.481-19.411c-.01.371-.016.737-.026,1.109a61.108,61.108,0,0,1,8.749,5.522,59.775,59.775,0,0,1,12.573,12.83c1.88,2.64,3.484,6.861-.523,8.393-2.427.925-5.2.4-7.655-.1a79.8,79.8,0,0,1-13.745-4.121c-.015.355-.024.713-.034,1.067" transform="translate(45.571 101.836)" fill="#dbccc1"/>
                <path id="Trazado_824587" data-name="Trazado 824587" d="M89.285,169.808a449.313,449.313,0,0,0-13.955,81.208.961.961,0,0,1-.957.884.639.639,0,0,1-.079,0,.962.962,0,0,1-.883-1.039,451.517,451.517,0,0,1,14.013-81.55c.762-2.829.871-6.837.516-11.591-.119-1.612-.3-3.313-.52-5.078-.192-1.528-.42-3.108-.678-4.73-.082-.526-.166-1.055-.258-1.591C82.074,119.98,70.3,84.148,70.138,83.657a.964.964,0,1,1,1.83-.605c.665,2.015,12.223,37.193,16.5,63.387.09.534.173,1.063.255,1.589.368,2.38.666,4.676.891,6.855.229,2.261.374,4.4.418,6.369a31.3,31.3,0,0,1-.749,8.556" transform="translate(-30.894 50.557)" fill="#5a554d"/>
                <path id="Trazado_824588" data-name="Trazado 824588" d="M107.7,24.385S110.154,2.038,87.99.074C70.242-1.5,61.48,22.5,72.938,42.852S71.365,74.372,58.559,67.777c0,0,4.773,12.049,22.83,7.332S107.7,24.385,107.7,24.385" transform="translate(-30.019 0)" fill="#171612"/>
                <path id="Trazado_824589" data-name="Trazado 824589" d="M35.652,58.545A39.391,39.391,0,0,0,46.823,71.72C60.379,82.351,71.952,89.9,87.674,82.088c4.747-2.466,8.138-8.376,8.228-8.539,2.419-4.392,4.049-13.135,4.249-20.7.2-7.47-.794-4.889,2.178-15.857,4.517-16.659-17.174-24.931-17.174-24.931-7.892-4.905-30.248-8.547-45.224,7.8C30.713,29.916,28.652,41.2,34.987,56.094a12.707,12.707,0,0,1,.665,2.451" transform="translate(18.747 4.853)" fill="#171612"/>
                <path id="Trazado_824590" data-name="Trazado 824590" d="M84.424,9.8A34.447,34.447,0,0,0,60.881,33.6a.606.606,0,0,1-1.167-.323A35.691,35.691,0,0,1,84.1,8.636.605.605,0,0,1,84.424,9.8" transform="translate(-8.913 5.283)" fill="#e59f3f"/>
                <path id="Trazado_824591" data-name="Trazado 824591" d="M81.993,16.319C80.276,11.755,75.83,8.23,70.772,8.672c-1.023.089-2.17.478-1.769,1.807.16.534,1.1,1.312,1.533,1.689a14.945,14.945,0,0,0,3.321,2.2,15.624,15.624,0,0,0,8.06,1.5c.778-.055.775,1.155,0,1.21a16.707,16.707,0,0,1-10.6-2.782c-1.607-1.1-5.519-4.173-2.864-6.183,2.2-1.662,6.409-.416,8.575.7A13.028,13.028,0,0,1,83.16,16c.274.729-.894,1.044-1.167.319" transform="translate(-19.948 4.483)" fill="#e59f3f"/>
                <path id="Trazado_824592" data-name="Trazado 824592" d="M64.639,18.486c-.871-3.424-1.8-7.173-.689-10.658.726-2.285,2.717-4.631,5.385-3.96C71.848,4.5,72.255,7.389,71.5,9.5a21.253,21.253,0,0,1-5.82,8.059c-.576.524-1.433-.329-.857-.857,1.87-1.717,9.3-10.124,4.086-11.389a2.364,2.364,0,0,0-2.753.888,4.636,4.636,0,0,0-.841,1.447,9.763,9.763,0,0,0-.654,3.627,27.342,27.342,0,0,0,1.144,6.889.606.606,0,0,1-1.168.321" transform="translate(-1.957 2.302)" fill="#e59f3f"/>
                <path id="Trazado_824593" data-name="Trazado 824593" d="M37.239,34.585s3.171.258,3.8,4.3-1.357,10.8-5.456,10,1.651-14.3,1.651-14.3" transform="translate(76.045 21.223)" fill="#632829"/>
                <path id="Trazado_824594" data-name="Trazado 824594" d="M38.541,51.941a5.578,5.578,0,1,0-5.346-5.8,5.585,5.585,0,0,0,5.346,5.8m.387-9.517a3.947,3.947,0,1,1-4.105,3.782,3.95,3.95,0,0,1,4.105-3.782" transform="translate(74.353 25.03)" fill="#e59f3f"/>
                <line id="Línea_255" data-name="Línea 255" y2="0.003" transform="translate(102.28 87.281)" fill="#b1614f"/>
                <path id="Trazado_824595" data-name="Trazado 824595" d="M42.917,73.94a29.878,29.878,0,0,0,18.244,9.753C76.211,85.786,77.9,79.3,77.9,79.3a28.463,28.463,0,0,1-1.228-6.225c-.071-.821-.116-1.665-.131-2.54a68.941,68.941,0,0,1,.4-8c.069-.7.145-1.436.232-2.191l.008-.09C66.746,57.839,58.2,53.259,52.328,45.6l-1.567-.923L49.7,44.052l-.19.607.208,1.936c1.009,9.1-2,19.433-6.8,27.345" transform="translate(25.106 27.032)" fill="#b1614f"/>
                <path id="Trazado_824596" data-name="Trazado 824596" d="M41.8,62.057c3.213,5.522,6.682,10.9,10.416,16.08,3.556,4.939,7.428,10.708,12.373,14.378,2.745,2.036,6.424,3.555,9.793,2.143,3.535-1.483,3.965-5.467,4-8.822.076-7.184-.6-14.516-3.55-21.144-.315-.707.729-1.323,1.044-.612a47.138,47.138,0,0,1,3.655,17.442c.179,4.533.784,11.141-3.816,13.837-4.294,2.517-9.522.186-12.937-2.74-4.086-3.5-7.416-8.159-10.589-12.472A195.073,195.073,0,0,1,40.751,62.669a.606.606,0,0,1,1.046-.612" transform="translate(26.982 37.901)" fill="#1e1d12"/>
                <path id="Trazado_824597" data-name="Trazado 824597" d="M43.369,49.953c2.225,4.96,7.374,13.729,16.953,16.956a68.955,68.955,0,0,1,.4-8c.068-.7.145-1.436.232-2.191-.207.026-.416.044-.628.058-5.672.4-11.854-2.491-16.955-6.827" transform="translate(41.321 30.653)" fill="#171612"/>
                <path id="Trazado_824598" data-name="Trazado 824598" d="M34.116,46.66c-.328,5.648,4.05,12.841,11.425,13.474l.039,0h0l.157.015c.1.332.219.658.345.992.053.144.11.29.166.434a.311.311,0,0,0,.019.04c4.042,9.861,17.384,16.3,24.765,16.932a16.905,16.905,0,0,0,5.022-.357c7.936-1.246,10.017-11.749,9.261-19.916a30.975,30.975,0,0,0-.5-3.369c-.016-.073-.031-.145-.047-.216,0,0,3.285-11.17,4.187-16.072,1.744-9.5-3.18-19.549-24.063-22.685s-26.673,9.6-28.55,16.43c-.316,1.136-.482,8.012.6,9.185-2.049.9-2.714,3.21-2.824,5.107" transform="translate(27.954 9.481)" fill="#b1614f"/>
                <path id="Trazado_824599" data-name="Trazado 824599" d="M45.714,48.312a6.485,6.485,0,0,1-.775-.182c-2.6-.787-4-3.644-4.058-3.765a.842.842,0,1,1,1.517-.729,6.074,6.074,0,0,0,3.029,2.882,2.978,2.978,0,0,0,3.019-.476.846.846,0,0,1,1.186-.026.836.836,0,0,1,.044,1.176,4.468,4.468,0,0,1-3.961,1.12" transform="translate(56.524 26.484)" fill="#632829"/>
                <path id="Trazado_824600" data-name="Trazado 824600" d="M45.363,49.282a3.151,3.151,0,0,1-1.681-1.252.53.53,0,0,1,.905-.552,2.154,2.154,0,0,0,2.253.834.529.529,0,1,1,.194,1.041,3.442,3.442,0,0,1-1.67-.071" transform="translate(54.424 28.979)" fill="#632829"/>
                <path id="Trazado_824601" data-name="Trazado 824601" d="M41.96,37.973c-.2,1.385-.939,2.422-1.657,2.32s-1.142-1.305-.946-2.688.939-2.424,1.657-2.322,1.142,1.307.946,2.69" transform="translate(66.815 21.647)" fill="#171612"/>
                <path id="Trazado_824602" data-name="Trazado 824602" d="M37.537,36.7a.371.371,0,0,1-.047-.658c.147-.087,3.616-2.133,6.437.123a.37.37,0,0,1-.463.578c-2.42-1.938-5.561-.086-5.591-.066a.376.376,0,0,1-.336.024" transform="translate(67.982 21.545)" fill="#171612"/>
                <path id="Trazado_824603" data-name="Trazado 824603" d="M49.45,37.038c-.2,1.383-.939,2.422-1.657,2.32s-1.142-1.307-.946-2.69.939-2.422,1.659-2.32,1.141,1.307.944,2.69" transform="translate(47.239 21.073)" fill="#171612"/>
                <path id="Trazado_824604" data-name="Trazado 824604" d="M45.506,36.2a.369.369,0,0,1-.129-.647c.134-.1,3.316-2.575,6.4-.692a.37.37,0,0,1-.386.631c-2.648-1.617-5.527.62-5.556.642a.371.371,0,0,1-.329.066" transform="translate(47.305 20.962)" fill="#171612"/>
                <path id="Trazado_824605" data-name="Trazado 824605" d="M65.215,39.707a1.107,1.107,0,0,1-.068,1.646,3.952,3.952,0,1,0,2.958.86l.077-1.89a5.571,5.571,0,1,1-2.967-.616" transform="translate(4.183 24.366)" fill="#e59f3f"/>
                <path id="Trazado_824606" data-name="Trazado 824606" d="M35.98,42.161a12.171,12.171,0,0,1,1.689.3c3.516.878,5.6,3.163,7.211,5.412.276-1.922,2.238-10.739,15.067-12.319.186-.021.381-.042.589-.06a10.971,10.971,0,0,0,1.357-5.527c-1.334-5.207,23.832-2.819,24.76,5.186.389,3.355.6,5.541.715,6.958v0a13.6,13.6,0,0,1,.116,2.606s2.243,2.288,2.314-8.751a14.984,14.984,0,0,0-3.829-9.808c-5.08-6.045-14.652-10.319-25.2-11.559-15.618-1.833-26.814,14.673-27.5,20.659s2.708,6.9,2.708,6.9" transform="translate(28.914 8.874)" fill="#171612"/>
                <g id="Grupo_1073747" data-name="Grupo 1073747" transform="translate(109.067 64.391)" opacity="0.5">
                  <g id="Grupo_1073746" data-name="Grupo 1073746">
                    <g id="Grupo_1073745" data-name="Grupo 1073745" clip-path="url(#clip-path-5)">
                      <path id="Trazado_824607" data-name="Trazado 824607" d="M36.554,41.4c-.032.839,1.772,1.612,4.2,1.87a30.969,30.969,0,0,0-.505-3.369c-2.117.145-3.668.733-3.7,1.5" transform="translate(-36.554 -39.904)" fill="#632829"/>
                    </g>
                  </g>
                </g>
                <path id="Trazado_824608" data-name="Trazado 824608" d="M54.568,33.37A1.557,1.557,0,0,0,56.8,31.284a4.515,4.515,0,0,0-2.579-1.838,11.284,11.284,0,0,0-9.884,1.791s5.995.006,8.722,1.255a8.692,8.692,0,0,1,1.507.878" transform="translate(43.648 17.779)" fill="#171612"/>
                <path id="Trazado_824609" data-name="Trazado 824609" d="M36.607,34.016a1.556,1.556,0,0,1-1.686-2.548,4.515,4.515,0,0,1,2.935-1.189c5.859-.361,7.3,3.5,7.3,3.5a20.641,20.641,0,0,0-6.881-.265,8.774,8.774,0,0,0-1.67.5" transform="translate(71.529 18.566)" fill="#171612"/>
                <g id="Grupo_1073750" data-name="Grupo 1073750" transform="translate(85.362 63.277)" opacity="0.5">
                  <g id="Grupo_1073749" data-name="Grupo 1073749">
                    <g id="Grupo_1073748" data-name="Grupo 1073748" clip-path="url(#clip-path-6)">
                      <path id="Trazado_824610" data-name="Trazado 824610" d="M57.9,41.176c-.039.957-2.454,1.638-5.4,1.52s-5.3-.992-5.257-1.949,2.454-1.638,5.4-1.52,5.3.991,5.257,1.949" transform="translate(-47.245 -39.214)" fill="#632829"/>
                    </g>
                  </g>
                </g>
                <path id="Trazado_824611" data-name="Trazado 824611" d="M57.868,43.984l.039,0,0,0,.157.015c.1.331.218.658.344.992.053.144.111.29.168.434a.219.219,0,0,0,.018.04,6.783,6.783,0,0,0,2.919-.963,5.392,5.392,0,0,0,1.6-1.543.764.764,0,0,0-1.262-.863,4.114,4.114,0,0,1-1.911,1.486,5.544,5.544,0,0,1-1.355.337,6.486,6.486,0,0,1-.72.06" transform="translate(15.627 25.631)" fill="#632829"/>
                <path id="Trazado_824612" data-name="Trazado 824612" d="M68.068,44.307a.762.762,0,0,1-.589-.645c-.708-5.372-6.913-8.041-6.976-8.068a.763.763,0,0,1,.589-1.407c.289.119,7.077,3.026,7.9,9.275a.764.764,0,0,1-.658.857.736.736,0,0,1-.266-.011" transform="translate(6.381 20.942)" fill="#632829"/>
                <path id="Trazado_824613" data-name="Trazado 824613" d="M62.133,39.581a.748.748,0,0,1-.268-.118.764.764,0,0,1-.192-1.063,5.246,5.246,0,0,1,4.734-2.007.764.764,0,0,1-.15,1.52,3.72,3.72,0,0,0-3.331,1.359.762.762,0,0,1-.794.31" transform="translate(5.861 22.315)" fill="#632829"/>
                <path id="Trazado_824614" data-name="Trazado 824614" d="M56.351,62.091c4.191,3.029,8.454,4.605,13,.529.415-6.639-1.173-14.186-3.447-18.528-3.734-7.136,2.561-16.046,2.561-16.046-4.053,1.728-8.559,1.727-10.928,6.513,4.084,4.615,1.7,17.289-1.189,27.532" transform="translate(11.904 17.21)" fill="#171612"/>
                <path id="Trazado_824615" data-name="Trazado 824615" d="M51.551,46.286a7.666,7.666,0,1,1,7.4-7.923,7.675,7.675,0,0,1-7.4,7.923m6.334-7.9a4.177,4.177,0,0,0-.069-.718,6.315,6.315,0,0,0-.426-1.586,6.418,6.418,0,0,0-1.359-2.059,6.661,6.661,0,0,0-3.316-1.859,7.31,7.31,0,0,0-1.648-.137,6.591,6.591,0,0,0-6.372,6.818,5.146,5.146,0,0,0,.056.66,6.522,6.522,0,0,0,3.511,4.978,6.692,6.692,0,0,0,1.546.581,6.988,6.988,0,0,0,1.717.153,6.593,6.593,0,0,0,6.359-6.831" transform="translate(42.907 18.997)" fill="#fff"/>
                <path id="Trazado_824616" data-name="Trazado 824616" d="M40.74,47.388a7.666,7.666,0,1,1,7.4-7.925,7.676,7.676,0,0,1-7.4,7.925m6.332-7.9A4.178,4.178,0,0,0,47,38.773a6.315,6.315,0,0,0-.426-1.586,6.391,6.391,0,0,0-1.359-2.059A6.663,6.663,0,0,0,41.9,33.269a7.239,7.239,0,0,0-1.649-.137,6.591,6.591,0,0,0-6.372,6.818,5.146,5.146,0,0,0,.056.66A6.694,6.694,0,0,0,39,46.168a7,7,0,0,0,1.717.153,6.593,6.593,0,0,0,6.359-6.831" transform="translate(71.166 19.673)" fill="#fff"/>
                <path id="Trazado_824617" data-name="Trazado 824617" d="M63.057,36.084a.635.635,0,0,1-.316-.1,15.811,15.811,0,0,0-9.751-2.5.63.63,0,1,1-.173-1.249,16.841,16.841,0,0,1,10.608,2.692.631.631,0,0,1-.368,1.16" transform="translate(24.192 19.735)" fill="#fff"/>
                <path id="Trazado_824618" data-name="Trazado 824618" d="M38.28,38.722a.636.636,0,0,1-.265-.071,8.642,8.642,0,0,0-4.449-.841.619.619,0,0,1-.7-.552.63.63,0,0,1,.552-.7,9.878,9.878,0,0,1,5.185.976.63.63,0,0,1-.321,1.188" transform="translate(80.294 22.401)" fill="#fff"/>
                <path id="Trazado_824619" data-name="Trazado 824619" d="M42.036,45.454a.632.632,0,0,0,.352-.068l2.976-1.515a.64.64,0,0,0,.066-1.1A9.229,9.229,0,0,1,41.5,36.034a.64.64,0,0,0-1.265.2A10.659,10.659,0,0,0,43.864,43.2l-2.057,1.047a.64.64,0,0,0,.229,1.209" transform="translate(61.633 21.78)" fill="#632829"/>
                <path id="Trazado_824620" data-name="Trazado 824620" d="M45.16,37.32a.631.631,0,0,1-.413-.177,1.794,1.794,0,0,0-2.111-.286.631.631,0,0,1-.616-1.1,3.075,3.075,0,0,1,3.6.481.631.631,0,0,1-.465,1.083" transform="translate(59.149 21.711)" fill="#fff"/>
                <path id="Trazado_824621" data-name="Trazado 824621" d="M10.969,141.109c.852.318,21.087,7.884,42.531,14.244a259.835,259.835,0,0,0,31.761,7.7,73.165,73.165,0,0,0,11.153,1.005q1.423,0,2.721-.089a24.789,24.789,0,0,0,8.444-1.962q.758-.334,1.435-.707a16.522,16.522,0,0,0,6.2-5.8,17.152,17.152,0,0,0,2.338-11.091c-.029-.357-.071-.72-.121-1.083a56.7,56.7,0,0,0-4.1-13.495c-2.577-6.24-6.474-14.216-11.586-23.7-8.509-15.8-17.452-30.377-17.829-30.988-1.28-2.086-5.415-5.2-7.429-6.271C79,76.76,82.347,86.3,84.614,94.275c1.823,6.409,4.394,12.414,5.507,18.986.844,5.006,2.577,10.634,1.646,15.688-.566,3.087-2.145,5.749-4.976,6.385.187.405.37.805.541,1.188-6.437-1.155-16.55-3.544-32.165-8.38-18.336-5.677-34.726-11.807-34.889-11.868a13.261,13.261,0,0,0-9.309,24.836" transform="translate(50.793 42.265)" fill="#171612"/>
                <path id="Trazado_824622" data-name="Trazado 824622" d="M2.575,132.574a16.553,16.553,0,0,0,6.2-5.8,17.171,17.171,0,0,0,2.337-11.091c-4.7,3.668-9.88,9.519-8.536,16.887" transform="translate(157.232 70.99)" fill="#5a554d"/>
                <path id="Trazado_824623" data-name="Trazado 824623" d="M18.787,117.227Z" transform="translate(123.152 71.935)" fill="#171612"/>
                <path id="Trazado_824624" data-name="Trazado 824624" d="M20.836,138.063c.027-1.833.094-3.582.182-5.3.174-3.432.437-6.742.734-10.021.6-6.545,1.357-12.943,2.183-19.315q.615-4.773,1.3-9.529l.694-4.757.737-4.82c.032-.21.077-.482.121-.694A16.475,16.475,0,0,1,59.113,90l-.034.181L58.2,94.638l-.858,4.525q-.845,4.529-1.635,9.064c-1.046,6.038-2.02,12.073-2.817,18-.374,2.774-.712,5.528-.975,8.183,2.054-.14,4.179-.34,6.316-.566,2.938-.313,5.92-.687,8.92-1.1,6-.823,12.067-1.788,18.141-2.824s12.16-2.154,18.244-3.322q4.565-.879,9.12-1.794l4.55-.931,4.5-.939.181-.039a13.264,13.264,0,0,1,5.953,25.844l-4.673,1.186-4.63,1.149q-4.626,1.14-9.266,2.237-9.285,2.2-18.642,4.221c-6.25,1.343-12.538,2.622-18.928,3.774-3.2.576-6.422,1.123-9.7,1.615s-6.626.936-10.145,1.267c-1.769.16-3.574.3-5.522.366-.97.037-1.975.053-3.053.04s-2.217-.057-3.534-.181c-.66-.063-1.36-.144-2.153-.276-.313-.052-.636-.111-.984-.179-.526-.1-1.1-.239-1.735-.416a20.419,20.419,0,0,1-3.979-1.552,18.1,18.1,0,0,1-2.908-1.885,17.082,17.082,0,0,1-3.521-3.8,16.534,16.534,0,0,1-1.556-2.892c-.15-.357-.289-.721-.421-1.088l-.189-.55-.134-.432c-.086-.284-.169-.573-.242-.86l-.058-.213-.042-.177-.081-.35-.089-.4-.065-.3c-.087-.423-.153-.805-.221-1.212-.231-1.5-.331-2.682-.408-3.811-.137-2.214-.148-4.116-.123-5.953" transform="translate(0.811 43.16)" fill="#171612"/>
                <path id="Trazado_824625" data-name="Trazado 824625" d="M83.561,119.3l.089.4.081.35.044.176.055.213c.076.289.158.576.244.862l.134.432.19.55c.131.366.271.729.418,1.086a16.531,16.531,0,0,0,1.559,2.892,17.044,17.044,0,0,0,3.519,3.8,18.013,18.013,0,0,0,2.908,1.886A20.381,20.381,0,0,0,96.78,133.5c.639.176,1.209.31,1.735.415-.884-8.365-9.2-12.641-14.954-14.616" transform="translate(-61.098 73.205)" fill="#5a554d"/>
                <path id="Trazado_824626" data-name="Trazado 824626" d="M8.708,114.789c-1.322-2.612-1.1-5.2-.917-7.937,1.562-1.418,2.98-2.606,3.658-3.284a54.7,54.7,0,0,1,9.036-6.427c3.7-2.257,6.174-2.364,9.519-2.9s8.762.915,7.319,2.743c-1.409,1.786-6.046.323-9.474,1.975a31.028,31.028,0,0,0-5.249,3.084,18.535,18.535,0,0,1,10.974-.629c5.74,1.168,7.053,4.318,5.428,4.812s-3.216.705-7.3-.236-8.7,1-8.7,1c2.485-.516,11.313.013,13.682,2.349s.118,3.981-2.876,3.187-10.766.345-10.766.345a53.637,53.637,0,0,1,7.3,1.268c.466.129,4.01,1.665.729,3.1-2.222.975-7.81.452-12.393,1.088a16.651,16.651,0,0,0-4.847,1.683,12.8,12.8,0,0,1-5.115-5.225" transform="translate(120.259 57.761)" fill="#b1614f"/>
                <path id="Trazado_824627" data-name="Trazado 824627" d="M20.664,105.757c1.207-2.3,3.213-5.814,4.7-6.839,2.261-1.564,4.843-5.125,6.019-3.7s-2.119,5.722-2.119,5.722l-8.688,6.214c.029-.463.063-.931.092-1.4" transform="translate(107.427 58.229)" fill="#b1614f"/>
                <path id="Trazado_824628" data-name="Trazado 824628" d="M17.076,110.63a26.92,26.92,0,0,1,6.966,9.065c.316.705-.726,1.322-1.046.612a26.186,26.186,0,0,0-6.776-8.822c-.579-.523.278-1.376.855-.855" transform="translate(122.289 67.787)" fill="#5a554d"/>
                <path id="Trazado_824629" data-name="Trazado 824629" d="M84.275,127.916a228.091,228.091,0,0,0-36.091-14.39.606.606,0,0,1,.323-1.167A229.955,229.955,0,0,1,84.884,126.87c.7.35.086,1.394-.61,1.046" transform="translate(9.994 68.93)" fill="#5a554d"/>
                <path id="Trazado_824630" data-name="Trazado 824630" d="M82.756,115.47a16.466,16.466,0,0,0-6.338,6.161.605.605,0,0,1-1.044-.612,17.667,17.667,0,0,1,6.772-6.595c.683-.374,1.294.67.61,1.046" transform="translate(-32.284 70.166)" fill="#5a554d"/>
                <path id="Trazado_824631" data-name="Trazado 824631" d="M48.332,112.11A169.652,169.652,0,0,0,29,106.4c-.76-.177-.437-1.344.321-1.168a169.984,169.984,0,0,1,19.331,5.714c.728.263.415,1.433-.321,1.167" transform="translate(77.091 64.562)" fill="#5a554d"/>
                <path id="Trazado_824632" data-name="Trazado 824632" d="M109.381,109.617a9.115,9.115,0,0,1-9.569,8.241,22.354,22.354,0,0,0-7.545.817c-5.146,1.788-10.727,5.33-13.582,5.5-4.212.248-1.317-3.263-.9-3.648a63.049,63.049,0,0,1,6.974-5.238S76,118.256,73.281,120.691s-5.956,1.917-4.722-1.8,10.211-9,13.093-9.793c0,0-5.88.436-9.664,3.613s-5.564,3.808-7.534,4.16-2.278-3.655,3.118-7.954a21.812,21.812,0,0,1,11.847-5.219,36.469,36.469,0,0,0-7.158-.424c-4.479.1-8.56,4.123-11,3-2.491-1.144,2.412-5.569,6.208-6.8s6.453-2.446,11.539-2.056,9.932.938,12.922,1.9,14.068,3,16.68,6.7a5.59,5.59,0,0,1,.766,3.6" transform="translate(-34.915 59.735)" fill="#b1614f"/>
                <path id="Trazado_824633" data-name="Trazado 824633" d="M85.931,103.075s-7.6-5.856-10.807-6.284-7.825-2.782-8.292-.654,5.286,4.87,5.286,4.87Z" transform="translate(-21.476 58.455)" fill="#b1614f"/>
              </g>
            </g>
          </g>
        </g>
      </g>
    </g>
  </g>
</svg>
