<svg xmlns="http://www.w3.org/2000/svg" xmlns:xlink="http://www.w3.org/1999/xlink" width="295" height="260" viewBox="0 0 295 260">
  <defs>
    <clipPath id="clip-path">
      <rect id="Rectángulo_383475" data-name="Rectángulo 383475" width="295" height="260" rx="14" transform="translate(1125 1424)" fill="#dcecfe"/>
    </clipPath>
  </defs>
  <g id="Grupo_1074531" data-name="Grupo 1074531" transform="translate(-1125 -1424)">
    <path id="Trazado_827431" data-name="Trazado 827431" d="M14,0H281a14,14,0,0,1,14,14V246a14,14,0,0,1-14,14H14A14,14,0,0,1,0,246V14A14,14,0,0,1,14,0Z" transform="translate(1125 1424)" fill="#add3fd"/>
    <g id="Enmascarar_grupo_180" data-name="Enmascarar grupo 180" clip-path="url(#clip-path)">
      <g id="Grupo_1074513" data-name="Grupo 1074513" transform="translate(11.845 1290)">
        <g id="Grupo_1074123" data-name="Grupo 1074123">
          <path id="Trazado_818450" data-name="Trazado 818450" d="M284.708,62.8,236.346,14.434,190.815,59.967l-45.79-45.79L97.178,62.025,49.846,14.693,7.089,57.45,0,50.361,49.846.515,97.178,47.844,145.025,0l45.79,45.787L236.346.256l48.362,48.362,45.33-45.33,7.092,7.086Z" transform="translate(1089.025 113.031)" fill="#dcecfe"/>
          <path id="Trazado_818451" data-name="Trazado 818451" d="M284.708,79.591,236.346,31.232,190.815,76.76l-45.79-45.787L97.178,78.82,49.846,31.488,7.089,74.248,0,67.156,49.846,17.31,97.178,64.642,145.025,16.8l45.79,45.79,45.531-45.531,48.362,48.359,45.33-45.33,7.092,7.086Z" transform="translate(1089.025 145.111)" fill="#dcecfe"/>
          <path id="Trazado_818452" data-name="Trazado 818452" d="M284.708,96.386,236.346,48.027,190.815,93.558l-45.79-45.787L97.178,95.615,49.846,48.283,7.089,91.043,0,83.952,49.846,34.106,97.178,81.437,145.025,33.59l45.79,45.79,45.531-45.531,48.362,48.359,45.33-45.33,7.092,7.089Z" transform="translate(1089.025 177.19)" fill="#dcecfe"/>
          <path id="Trazado_818453" data-name="Trazado 818453" d="M284.708,113.182,236.346,64.82l-45.531,45.531-45.79-45.787L97.178,112.411,49.846,65.076,7.089,107.837,0,100.748,49.846,50.9,97.178,98.233l47.847-47.847,45.79,45.79,45.531-45.534L284.708,99l45.33-45.333,7.092,7.089Z" transform="translate(1089.025 209.271)" fill="#dcecfe"/>
          <path id="Trazado_818454" data-name="Trazado 818454" d="M284.708,129.978,236.346,81.616l-45.531,45.531-45.79-45.787L97.178,129.206,49.846,81.874,7.089,124.635,0,117.546,49.846,67.7l47.332,47.332,47.847-47.847,45.79,45.79,45.531-45.531L284.708,115.8l45.33-45.333,7.092,7.089Z" transform="translate(1089.025 241.352)" fill="#dcecfe"/>
          <path id="Trazado_818455" data-name="Trazado 818455" d="M284.708,146.773,236.346,98.414l-45.531,45.531-45.79-45.787L97.178,146,49.846,98.67,7.089,141.43,0,134.338,49.846,84.492l47.332,47.332,47.847-47.847,45.79,45.79,45.531-45.531L284.708,132.6l45.33-45.33,7.092,7.089Z" transform="translate(1089.025 273.432)" fill="#dcecfe"/>
        </g>
      </g>
    </g>
    <g id="servicio-de-almacenamiento-en-la-nube" transform="translate(1179 1460)">
      <g id="Grupo_1074529" data-name="Grupo 1074529" transform="translate(3.021 3.021)">
        <g id="Grupo_1074516" data-name="Grupo 1074516" transform="translate(148.05 169.2)">
          <path id="Trazado_827404" data-name="Trazado 827404" d="M50,57H68.129V69.086H50Z" transform="translate(-50 -57)" fill="#aab2bd"/>
        </g>
        <g id="Grupo_1074517" data-name="Grupo 1074517" transform="translate(81.578 169.2)">
          <path id="Trazado_827405" data-name="Trazado 827405" d="M28,57H46.129V69.086H28Z" transform="translate(-28 -57)" fill="#aab2bd"/>
        </g>
        <g id="Grupo_1074518" data-name="Grupo 1074518" transform="translate(15.107 169.2)">
          <path id="Trazado_827406" data-name="Trazado 827406" d="M6,57H24.129V69.086H6Z" transform="translate(-6 -57)" fill="#aab2bd"/>
        </g>
        <g id="Grupo_1074519" data-name="Grupo 1074519" transform="translate(0 157.114)">
          <path id="Trazado_827407" data-name="Trazado 827407" d="M49.343,53v6.043A6.061,6.061,0,0,1,43.3,65.086H7.043A6.061,6.061,0,0,1,1,59.043V53Z" transform="translate(-1 -53)" fill="#ccd1d9"/>
        </g>
        <g id="Grupo_1074520" data-name="Grupo 1074520" transform="translate(132.943 157.114)">
          <path id="Trazado_827408" data-name="Trazado 827408" d="M93.343,53v6.043A6.061,6.061,0,0,1,87.3,65.086H51.043A6.061,6.061,0,0,1,45,59.043V53Z" transform="translate(-45 -53)" fill="#ccd1d9"/>
        </g>
        <g id="Grupo_1074521" data-name="Grupo 1074521" transform="translate(66.471 157.114)">
          <path id="Trazado_827409" data-name="Trazado 827409" d="M71.343,53v6.043A6.061,6.061,0,0,1,65.3,65.086H29.043A6.061,6.061,0,0,1,23,59.043V53Z" transform="translate(-23 -53)" fill="#ccd1d9"/>
        </g>
        <g id="Grupo_1074522" data-name="Grupo 1074522" transform="translate(132.943 132.943)">
          <path id="Trazado_827410" data-name="Trazado 827410" d="M93.343,51.043V69.171H45V51.043A6.061,6.061,0,0,1,51.043,45H87.3A6.061,6.061,0,0,1,93.343,51.043Z" transform="translate(-45 -45)" fill="#69d6f4"/>
        </g>
        <g id="Grupo_1074523" data-name="Grupo 1074523" transform="translate(66.471 132.943)">
          <path id="Trazado_827411" data-name="Trazado 827411" d="M71.343,51.043V69.171H23V51.043A6.061,6.061,0,0,1,29.043,45H65.3A6.061,6.061,0,0,1,71.343,51.043Z" transform="translate(-23 -45)" fill="#69d6f4"/>
        </g>
        <g id="Grupo_1074524" data-name="Grupo 1074524" transform="translate(0 132.943)">
          <path id="Trazado_827412" data-name="Trazado 827412" d="M49.343,51.043V69.171H1V51.043A6.061,6.061,0,0,1,7.043,45H43.3A6.061,6.061,0,0,1,49.343,51.043Z" transform="translate(-1 -45)" fill="#69d6f4"/>
        </g>
        <g id="Grupo_1074525" data-name="Grupo 1074525">
          <path id="Trazado_827413" data-name="Trazado 827413" d="M161.135,49.343a21.15,21.15,0,0,1,0,42.3H22.15a21.15,21.15,0,0,1,0-42.3c.181,0,.363.03.544.03a36.147,36.147,0,0,1,53.721-25.41,45.307,45.307,0,0,1,84.721,22.359Z" transform="translate(-1 -1)" fill="#e6e9ed"/>
        </g>
        <g id="Grupo_1074526" data-name="Grupo 1074526" transform="translate(114.885 66.169)">
          <ellipse id="Elipse_9891" data-name="Elipse 9891" cx="6" cy="6.5" rx="6" ry="6.5" transform="translate(0.094 -0.19)" fill="#ef7385"/>
        </g>
        <g id="Grupo_1074527" data-name="Grupo 1074527" transform="translate(84.526 57.697)">
          <circle id="Elipse_9892" data-name="Elipse 9892" cx="6" cy="6" r="6" transform="translate(0.453 0.282)" fill="#ef7385"/>
        </g>
        <g id="Grupo_1074528" data-name="Grupo 1074528" transform="translate(54.167 66.169)">
          <ellipse id="Elipse_9893" data-name="Elipse 9893" cx="6" cy="6.5" rx="6" ry="6.5" transform="translate(-0.188 -0.19)" fill="#ef7385"/>
        </g>
      </g>
      <g id="Grupo_1074530" data-name="Grupo 1074530" transform="translate(0 0)">
        <path id="Trazado_827414" data-name="Trazado 827414" d="M45.321,52.086H30.214V40H24.171V52.086H9.064A9.075,9.075,0,0,0,0,61.15V85.321a9.075,9.075,0,0,0,9.064,9.064h6.043v6.043H9.064v6.043H45.321v-6.043H39.278V94.386h6.043a9.075,9.075,0,0,0,9.064-9.064V61.15A9.075,9.075,0,0,0,45.321,52.086ZM9.064,58.129H45.321a3.026,3.026,0,0,1,3.021,3.021V76.257H6.043V61.15A3.026,3.026,0,0,1,9.064,58.129Zm24.171,42.3H21.15V94.386H33.236ZM45.321,88.343H9.064a3.026,3.026,0,0,1-3.021-3.021V82.3h42.3v3.021A3.026,3.026,0,0,1,45.321,88.343Z" transform="translate(0 80.857)"/>
        <path id="Trazado_827415" data-name="Trazado 827415" d="M67.321,62.193H52.214V35H46.171V62.193H31.064A9.075,9.075,0,0,0,22,71.257V95.428a9.075,9.075,0,0,0,9.064,9.064h6.043v6.043H31.064v6.043H67.321v-6.043H61.278v-6.043h6.043a9.075,9.075,0,0,0,9.064-9.064V71.257A9.075,9.075,0,0,0,67.321,62.193ZM31.064,68.236H67.321a3.026,3.026,0,0,1,3.021,3.021V86.364h-42.3V71.257A3.026,3.026,0,0,1,31.064,68.236Zm24.171,42.3H43.15v-6.043H55.236ZM67.321,98.45H31.064a3.026,3.026,0,0,1-3.021-3.021V92.407h42.3v3.021A3.026,3.026,0,0,1,67.321,98.45Z" transform="translate(44.471 70.75)"/>
        <path id="Trazado_827416" data-name="Trazado 827416" d="M89.321,52.086H74.214V40H68.171V52.086H53.064A9.075,9.075,0,0,0,44,61.15V85.321a9.075,9.075,0,0,0,9.064,9.064h6.043v6.043H53.064v6.043H89.321v-6.043H83.278V94.386h6.043a9.075,9.075,0,0,0,9.064-9.064V61.15A9.075,9.075,0,0,0,89.321,52.086ZM53.064,58.129H89.321a3.026,3.026,0,0,1,3.021,3.021V76.257h-42.3V61.15A3.026,3.026,0,0,1,53.064,58.129Zm24.171,42.3H65.15V94.386H77.236ZM89.321,88.343H53.064a3.026,3.026,0,0,1-3.021-3.021V82.3h42.3v3.021A3.026,3.026,0,0,1,89.321,88.343Z" transform="translate(88.943 80.857)"/>
        <path id="Trazado_827417" data-name="Trazado 827417" d="M24.043,39.573V52.214h6.043V39.573a9.064,9.064,0,1,0-6.043,0Zm3.021-11.53a3.021,3.021,0,1,1-3.021,3.021A3.026,3.026,0,0,1,27.064,28.043Z" transform="translate(36.386 44.471)"/>
        <path id="Trazado_827418" data-name="Trazado 827418" d="M40.086,36.573a9.064,9.064,0,1,0-6.043,0V49.214h6.043Zm-3.021-11.53a3.021,3.021,0,1,1-3.021,3.021A3.026,3.026,0,0,1,37.064,25.043Z" transform="translate(56.6 38.407)"/>
        <path id="Trazado_827419" data-name="Trazado 827419" d="M30,31h6.043v6.043H30Z" transform="translate(60.643 62.664)"/>
        <path id="Trazado_827420" data-name="Trazado 827420" d="M50.086,39.573a9.064,9.064,0,1,0-6.043,0V52.214h6.043Zm-3.021-11.53a3.021,3.021,0,1,1-3.021,3.021A3.026,3.026,0,0,1,47.064,28.043Z" transform="translate(76.814 44.471)"/>
        <path id="Trazado_827421" data-name="Trazado 827421" d="M40,34h6.043v6.043H40Z" transform="translate(80.857 68.728)"/>
        <path id="Trazado_827422" data-name="Trazado 827422" d="M74.214,46.086V34H44v6.043H68.171v6.043Z" transform="translate(88.943 68.728)"/>
        <path id="Trazado_827423" data-name="Trazado 827423" d="M20,34h6.043v6.043H20Z" transform="translate(40.428 68.728)"/>
        <path id="Trazado_827424" data-name="Trazado 827424" d="M38.214,34H8V46.086h6.043V40.043H38.214Z" transform="translate(16.171 68.728)"/>
        <path id="Trazado_827425" data-name="Trazado 827425" d="M24.171,96.685H54.386V90.643H24.171a18.126,18.126,0,1,1,.082-36.251h.012l2.994.085.432-2.586a33.156,33.156,0,0,1,49.252-23.3l2.632,1.511,1.5-2.638a42.28,42.28,0,0,1,79.059,20.875v.208a24.194,24.194,0,0,0-21.15,23.963h6.043a18.129,18.129,0,1,1,18.129,18.129H132.943v6.043h30.214a24.161,24.161,0,0,0,3.021-48.134v-.208A48.32,48.32,0,0,0,77.345,21.984a39.193,39.193,0,0,0-55.12,26.437,24.171,24.171,0,0,0,1.946,48.264Z" transform="translate(0 0)"/>
        <path id="Trazado_827426" data-name="Trazado 827426" d="M82.343,72.321V60.236h-42.3V27H34V66.278H76.3v6.043Z" transform="translate(68.728 54.578)"/>
        <path id="Trazado_827427" data-name="Trazado 827427" d="M18.043,66.278h42.3V27H54.3V60.236H12V72.321h6.043Z" transform="translate(24.257 54.578)"/>
        <path id="Trazado_827428" data-name="Trazado 827428" d="M52.369,10.267,50.725,4.451a36.379,36.379,0,0,0-22.416,18.41L33.69,25.61A30.332,30.332,0,0,1,52.369,10.267Z" transform="translate(57.224 8.997)"/>
        <path id="Trazado_827429" data-name="Trazado 827429" d="M70.919,34.761l5.943-1.091A36.23,36.23,0,0,0,41.2,4c-1.109,0-2.209.051-3.293.148l.547,6.019q1.355-.122,2.746-.124A30.189,30.189,0,0,1,70.919,34.761Z" transform="translate(76.632 8.086)"/>
        <path id="Trazado_827430" data-name="Trazado 827430" d="M38.051,10A27.217,27.217,0,0,0,11.07,33.8l5.995.746a21.17,21.17,0,0,1,20.987-18.5Z" transform="translate(22.377 20.214)"/>
      </g>
    </g>
  </g>
</svg>
