<svg xmlns="http://www.w3.org/2000/svg" xmlns:xlink="http://www.w3.org/1999/xlink" width="400" height="459" viewBox="0 0 400 459">
  <defs>
    <clipPath id="clip-path">
      <rect id="Rect치ngulo_383477" data-name="Rect치ngulo 383477" width="400" height="459" rx="10" transform="translate(180 1956)" fill="#1682fb"/>
    </clipPath>
  </defs>
  <g id="Grupo_1074536" data-name="Grupo 1074536" transform="translate(-180 -1956)">
    <rect id="Rect치ngulo_383422" data-name="Rect치ngulo 383422" width="371" height="338" rx="10" transform="translate(209 2019)" fill="#1682fb"/>
    <g id="Enmascarar_grupo_181" data-name="Enmascarar grupo 181" clip-path="url(#clip-path)">
      <g id="Grupo_1074533" data-name="Grupo 1074533" transform="translate(151.672 1962.49)">
        <g id="Grupo_1074534" data-name="Grupo 1074534" transform="translate(4.328 1.156)">
          <path id="Trazado_827432" data-name="Trazado 827432" d="M339.993,122.307l3.111-.466a17.236,17.236,0,0,0,.412-4.163l-2.966-1.057a14.3,14.3,0,0,0-.305-1.841l2.459-1.955a17.689,17.689,0,0,0-1.731-3.81l-3.093.567a14.671,14.671,0,0,0-1.182-1.444l1.152-2.923a17.349,17.349,0,0,0-3.406-2.432l-2.395,2.036c-.416-.188-.844-.358-1.286-.507-.153-.053-.305-.1-.457-.145l-.466-3.111a17.349,17.349,0,0,0-4.164-.413l-1.057,2.968a14.211,14.211,0,0,0-1.841.305l-1.955-2.459a17.453,17.453,0,0,0-3.81,1.731l.567,3.093a14.9,14.9,0,0,0-1.442,1.181l-2.923-1.151a17.3,17.3,0,0,0-2.434,3.407l2.036,2.392c-.188.417-.358.845-.509,1.287-.051.152-.1.3-.143.458l-3.112.464a17.348,17.348,0,0,0-.412,4.163l2.966,1.057a14.535,14.535,0,0,0,.306,1.84l-2.459,1.956a17.345,17.345,0,0,0,1.733,3.811l3.092-.567a13.97,13.97,0,0,0,1.181,1.442l-1.152,2.924a17.356,17.356,0,0,0,3.405,2.432l2.394-2.036c.416.188.845.359,1.287.51.152.053.305.1.457.142l.465,3.114a17.407,17.407,0,0,0,4.164.412l1.058-2.967a14.521,14.521,0,0,0,1.839-.305l1.956,2.458a17.528,17.528,0,0,0,3.81-1.731l-.567-3.092a14.7,14.7,0,0,0,1.443-1.183l2.922,1.153a17.328,17.328,0,0,0,2.433-3.407l-2.035-2.393c.187-.417.359-.845.511-1.287.052-.152.094-.3.142-.457m-2.741-.428a11.8,11.8,0,1,1-8.088-15.189,11.8,11.8,0,0,1,8.088,15.189" transform="translate(26.535 -2.642)" fill="#ffce00"/>
          <path id="Trazado_827433" data-name="Trazado 827433" d="M382.874,187.143l4.395-.658a24.438,24.438,0,0,0,.58-5.88l-4.187-1.492a20.149,20.149,0,0,0-.433-2.6l3.474-2.76a24.873,24.873,0,0,0-2.445-5.381l-4.367.8a20.543,20.543,0,0,0-1.671-2.039l1.628-4.128a24.4,24.4,0,0,0-4.811-3.435l-3.38,2.875c-.589-.265-1.194-.505-1.817-.716-.216-.075-.433-.138-.647-.2l-.656-4.393a24.454,24.454,0,0,0-5.881-.583l-1.494,4.189a20,20,0,0,0-2.6.433L355.8,157.7a24.733,24.733,0,0,0-5.382,2.445l.8,4.369a20.22,20.22,0,0,0-2.038,1.667l-4.13-1.627a24.386,24.386,0,0,0-3.435,4.812l2.876,3.379c-.265.589-.505,1.193-.718,1.817-.074.216-.136.432-.2.648l-4.395.655a24.54,24.54,0,0,0-.581,5.88l4.188,1.492a20.569,20.569,0,0,0,.432,2.6l-3.473,2.761a24.714,24.714,0,0,0,2.446,5.383l4.367-.8a20.22,20.22,0,0,0,1.67,2.036l-1.628,4.13a24.493,24.493,0,0,0,4.81,3.434l3.38-2.876c.589.265,1.2.507,1.819.719.214.074.431.136.646.2l.656,4.4a24.551,24.551,0,0,0,5.881.581l1.494-4.189a20.169,20.169,0,0,0,2.6-.432l2.762,3.472a24.718,24.718,0,0,0,5.381-2.445l-.8-4.366a20.824,20.824,0,0,0,2.037-1.671l4.127,1.628a24.384,24.384,0,0,0,3.436-4.812l-2.875-3.379c.264-.59.506-1.194.719-1.818.073-.214.136-.431.2-.646M379,186.538a16.666,16.666,0,1,1-11.42-21.45A16.665,16.665,0,0,1,379,186.538" transform="translate(29.483 2.859)" fill="#ffce00"/>
          <path id="Trazado_827434" data-name="Trazado 827434" d="M116.269,205.882l8.387-1.257a46.582,46.582,0,0,0,1.109-11.223l-8-2.848a38.252,38.252,0,0,0-.825-4.964l6.632-5.268a47.369,47.369,0,0,0-4.669-10.273l-8.336,1.527a39.34,39.34,0,0,0-3.189-3.892l3.107-7.88a46.646,46.646,0,0,0-9.184-6.556l-6.452,5.488c-1.124-.5-2.278-.964-3.468-1.368-.413-.142-.826-.263-1.236-.389L88.9,148.593a46.678,46.678,0,0,0-11.225-1.114l-2.853,8a38.479,38.479,0,0,0-4.959.825l-5.272-6.632a47.193,47.193,0,0,0-10.274,4.668l1.531,8.341a38.818,38.818,0,0,0-3.889,3.182l-7.883-3.105a46.589,46.589,0,0,0-6.557,9.186l5.491,6.451c-.507,1.124-.967,2.277-1.372,3.469-.141.411-.261.823-.387,1.235l-8.388,1.252a46.733,46.733,0,0,0-1.109,11.222l8,2.848a39.1,39.1,0,0,0,.824,4.96l-6.63,5.272a47.138,47.138,0,0,0,4.669,10.277l8.337-1.528a38.748,38.748,0,0,0,3.186,3.888l-3.107,7.883a46.858,46.858,0,0,0,9.182,6.556l6.452-5.49c1.126.5,2.281.968,3.474,1.372.409.142.822.26,1.232.383l1.251,8.394a46.883,46.883,0,0,0,11.226,1.11l2.851-8a38.778,38.778,0,0,0,4.958-.825l5.273,6.629a47.267,47.267,0,0,0,10.272-4.667l-1.527-8.336a40.02,40.02,0,0,0,3.889-3.189l7.878,3.107A46.606,46.606,0,0,0,120,217.035l-5.487-6.45c.5-1.127.967-2.28,1.373-3.471.138-.41.258-.82.384-1.232m-7.39-1.156a31.814,31.814,0,1,1-21.8-40.946,31.812,31.812,0,0,1,21.8,40.946" transform="translate(-0.712 1.966)" fill="#ffce00"/>
          <path id="Trazado_827435" data-name="Trazado 827435" d="M151.022,82.9l2.4-.36a13.383,13.383,0,0,0,.317-3.217l-2.291-.816a11.2,11.2,0,0,0-.236-1.422l1.9-1.509a13.566,13.566,0,0,0-1.338-2.945l-2.389.437a11.49,11.49,0,0,0-.914-1.115l.891-2.258a13.413,13.413,0,0,0-2.633-1.879l-1.849,1.573q-.483-.217-.994-.392c-.119-.041-.236-.075-.354-.111l-.359-2.4a13.385,13.385,0,0,0-3.217-.32l-.817,2.292a11.216,11.216,0,0,0-1.421.236l-1.51-1.9a13.514,13.514,0,0,0-2.945,1.338l.438,2.39a11.163,11.163,0,0,0-1.115.913l-2.258-.891a13.348,13.348,0,0,0-1.879,2.633l1.573,1.849q-.217.484-.393.994c-.04.119-.075.236-.111.355l-2.4.358a13.375,13.375,0,0,0-.319,3.216l2.291.817a11.42,11.42,0,0,0,.236,1.421l-1.9,1.51a13.527,13.527,0,0,0,1.339,2.946l2.389-.438a11.193,11.193,0,0,0,.913,1.115l-.89,2.259a13.439,13.439,0,0,0,2.631,1.878l1.85-1.573c.322.144.654.277,1,.393.118.041.236.075.354.11l.358,2.405a13.445,13.445,0,0,0,3.217.319l.817-2.292a11.183,11.183,0,0,0,1.421-.236l1.511,1.9a13.477,13.477,0,0,0,2.944-1.338l-.437-2.388a11.642,11.642,0,0,0,1.114-.914l2.258.89a13.327,13.327,0,0,0,1.879-2.632l-1.573-1.849c.145-.323.278-.654.394-1,.04-.118.074-.235.11-.353m-2.118-.332a9.118,9.118,0,1,1-6.248-11.735A9.117,9.117,0,0,1,148.9,82.573" transform="translate(8.641 -6.035)" fill="#ffce00"/>
          <path id="Trazado_827436" data-name="Trazado 827436" d="M172.43,52.454a36.282,36.282,0,0,1,14.786-29.222L176.279,12.047a51.779,51.779,0,0,0-11.3,68.192l12.877-8.722a36.09,36.09,0,0,1-5.423-19.063" transform="translate(11.602 2.979)" fill="#add3fd"/>
          <path id="Trazado_827437" data-name="Trazado 827437" d="M209.752,15.544c.084,0,.166.006.25.007V0l-.25,0a51.612,51.612,0,0,0-32.467,11.453l10.937,11.184a36.117,36.117,0,0,1,21.53-7.093" transform="translate(10.596 3.574)" fill="#3ee2a8"/>
          <path id="Trazado_827438" data-name="Trazado 827438" d="M263.309,51.859A51.918,51.918,0,0,0,211.7,0V15.551A36.306,36.306,0,0,1,226.93,84.7L234.72,98.2a51.916,51.916,0,0,0,28.589-46.336" transform="translate(8.898 3.574)" fill="#fff"/>
          <path id="Trazado_827439" data-name="Trazado 827439" d="M209.165,91.856A36.322,36.322,0,0,1,178.273,74.6L165.4,83.325a51.812,51.812,0,0,0,67.04,18.551l-7.79-13.495a36.084,36.084,0,0,1-15.481,3.474" transform="translate(11.182 -0.107)" fill="#273a89"/>
          <g id="Grupo_1074538" data-name="Grupo 1074538" transform="translate(-22.578 5.381)">
            <path id="Trazado_827440" data-name="Trazado 827440" d="M140.5,4.129a24.518,24.518,0,0,0-19.788,39L140.5,28.651Z" transform="translate(14.732 -4.129)" fill="#fff"/>
            <path id="Trazado_827441" data-name="Trazado 827441" d="M141.7,4.129V28.651l19.788,14.479a24.518,24.518,0,0,0-19.788-39" transform="translate(13.531 -4.129)" fill="#273a89"/>
            <path id="Trazado_827442" data-name="Trazado 827442" d="M120.941,44.331a24.515,24.515,0,0,0,39.575,0L140.729,29.852Z" transform="translate(14.5 -5.33)" fill="#3ee2a8"/>
          </g>
          <path id="Trazado_827443" data-name="Trazado 827443" d="M316.456,89.673H272.939a12.125,12.125,0,0,1-12.125-12.124V47.629a12.125,12.125,0,0,1,12.125-12.124h43.516a12.125,12.125,0,0,1,12.125,12.124V77.549a12.125,12.125,0,0,1-12.125,12.124" transform="translate(21.829 -9.052)" fill="#273a89"/>
          <path id="Trazado_827444" data-name="Trazado 827444" d="M272.859,81.532h-3.764a2.605,2.605,0,0,1-2.605-2.605V49.538a2.605,2.605,0,0,1,2.605-2.605h3.764a2.605,2.605,0,0,1,2.605,2.605V78.926a2.605,2.605,0,0,1-2.605,2.605" transform="translate(22.387 -7.927)" fill="#cecef4"/>
          <path id="Trazado_827445" data-name="Trazado 827445" d="M283.4,80.771h-3.764a2.605,2.605,0,0,1-2.605-2.605V57.272a2.606,2.606,0,0,1,2.605-2.607H283.4A2.606,2.606,0,0,1,286,57.272V78.165a2.605,2.605,0,0,1-2.605,2.605" transform="translate(23.424 -7.166)" fill="#cecef4"/>
          <path id="Trazado_827446" data-name="Trazado 827446" d="M293.934,79.685h-3.764a2.605,2.605,0,0,1-2.605-2.605V68.3a2.605,2.605,0,0,1,2.605-2.605h3.764a2.605,2.605,0,0,1,2.605,2.605V77.08a2.605,2.605,0,0,1-2.605,2.605" transform="translate(24.461 -6.081)" fill="#cecef4"/>
          <path id="Trazado_827447" data-name="Trazado 827447" d="M304.471,80.015h-3.764A2.605,2.605,0,0,1,298.1,77.41V64.948a2.606,2.606,0,0,1,2.605-2.607h3.764a2.606,2.606,0,0,1,2.605,2.607V77.41a2.605,2.605,0,0,1-2.605,2.605" transform="translate(25.498 -6.411)" fill="#cecef4"/>
          <path id="Trazado_827448" data-name="Trazado 827448" d="M315.008,80.681h-3.764a2.605,2.605,0,0,1-2.605-2.605V58.18a2.605,2.605,0,0,1,2.605-2.605h3.764a2.605,2.605,0,0,1,2.605,2.605v19.9a2.605,2.605,0,0,1-2.605,2.605" transform="translate(26.535 -7.077)" fill="#cecef4"/>
          <path id="Trazado_827449" data-name="Trazado 827449" d="M282.8,17.342a5.1,5.1,0,0,1-5.094,5.1H253.552a5.094,5.094,0,0,1-5.091-5.1v-.294a5.093,5.093,0,0,1,5.091-5.094h24.156a5.094,5.094,0,0,1,5.094,5.094Z" transform="translate(20.613 -11.369)" fill="#273a89"/>
          <path id="Trazado_827450" data-name="Trazado 827450" d="M258.6,16.925a1.966,1.966,0,1,1-1.966-1.966,1.967,1.967,0,0,1,1.966,1.966" transform="translate(21.224 -11.073)" fill="#fff"/>
          <path id="Trazado_827451" data-name="Trazado 827451" d="M266.235,16.925a1.966,1.966,0,1,1-1.965-1.966,1.966,1.966,0,0,1,1.965,1.966" transform="translate(21.975 -11.073)" fill="#fff"/>
          <path id="Trazado_827452" data-name="Trazado 827452" d="M273.872,16.925a1.966,1.966,0,1,1-1.966-1.966,1.966,1.966,0,0,1,1.966,1.966" transform="translate(22.727 -11.073)" fill="#fff"/>
          <path id="Trazado_827453" data-name="Trazado 827453" d="M34.342,144.255a5.1,5.1,0,0,1-5.094,5.1H5.091A5.094,5.094,0,0,1,0,144.255v-.3a5.093,5.093,0,0,1,5.091-5.094H29.247a5.094,5.094,0,0,1,5.094,5.094Z" transform="translate(324.26 81.908)" fill="#2f2fa7"/>
          <path id="Trazado_827454" data-name="Trazado 827454" d="M10.138,143.837a1.966,1.966,0,1,1-1.966-1.965,1.966,1.966,0,0,1,1.966,1.965" transform="translate(324.871 82.204)" fill="#fff"/>
          <path id="Trazado_827455" data-name="Trazado 827455" d="M17.775,143.837a1.966,1.966,0,1,1-1.965-1.965,1.966,1.966,0,0,1,1.965,1.965" transform="translate(325.622 82.204)" fill="#fff"/>
          <path id="Trazado_827456" data-name="Trazado 827456" d="M25.412,143.837a1.966,1.966,0,1,1-1.966-1.965,1.966,1.966,0,0,1,1.966,1.965" transform="translate(326.373 82.204)" fill="#fff"/>
          <path id="Trazado_827457" data-name="Trazado 827457" d="M62.225,48.9H82.968a8.063,8.063,0,0,1,8.063,8.064v5.367A8.064,8.064,0,0,1,82.969,70.4h-.588L90,80.841,72.113,70.4H62.225a8.065,8.065,0,0,1-8.062-8.065V56.967A8.063,8.063,0,0,1,62.225,48.9" transform="translate(28.735 15.865)" fill="#273a89"/>
          <path id="Trazado_827458" data-name="Trazado 827458" d="M87.108,61.382H64.566a1.083,1.083,0,1,1,0-2.166H87.109a1.083,1.083,0,0,1,0,2.166" transform="translate(25.302 12.067)" fill="#cecef4"/>
          <path id="Trazado_827459" data-name="Trazado 827459" d="M87.109,69.367H64.566a1.083,1.083,0,1,1,0-2.165H87.108a1.083,1.083,0,1,1,0,2.166" transform="translate(25.302 9.125)" fill="#cecef4"/>
          <g id="Grupo_1074535" data-name="Grupo 1074535" transform="translate(151.805 97.997)">
            <path id="Trazado_827460" data-name="Trazado 827460" d="M28.386,124.2H68.258a5.707,5.707,0,0,0,5.707-5.707V103.4a5.706,5.706,0,0,0-5.707-5.707H28.386a5.706,5.706,0,0,0-5.707,5.707v15.09a5.707,5.707,0,0,0,5.707,5.707" transform="translate(-22.679 -97.693)" fill="#e1f6ef" fill-rule="evenodd"/>
            <path id="Trazado_827461" data-name="Trazado 827461" d="M65.114,106.256a4.037,4.037,0,0,1,2.123-2.138,3.931,3.931,0,0,1,3.094,0,4.033,4.033,0,0,1,1.269.864,4.078,4.078,0,0,1,.855,1.274,3.934,3.934,0,0,1,0,3.07,4.105,4.105,0,0,1-.855,1.269,4.033,4.033,0,0,1-1.269.864,3.931,3.931,0,0,1-3.094,0,4.013,4.013,0,0,1-1.269-.864,4.072,4.072,0,0,1-.854-1.269,3.913,3.913,0,0,1,0-3.07m4.1,12.831L58.592,105.43a.971.971,0,0,1-.2-.615.958.958,0,0,1,.082-.4,1.043,1.043,0,0,1,.221-.323,1.055,1.055,0,0,1,.322-.219.957.957,0,0,1,.4-.084,1.053,1.053,0,0,1,.819.41l10.514,13.5a1,1,0,0,1,.244.694.974.974,0,0,1-.08.39,1.028,1.028,0,0,1-.214.328.951.951,0,0,1-.322.219,1.023,1.023,0,0,1-.4.079.983.983,0,0,1-.761-.322M68.032,106a1.952,1.952,0,0,0-.615.424,2.055,2.055,0,0,0-.42.625,1.854,1.854,0,0,0-.156.747,1.9,1.9,0,0,0,.151.752,1.941,1.941,0,0,0,.415.614,2.013,2.013,0,0,0,.62.42,1.856,1.856,0,0,0,.756.156,1.883,1.883,0,0,0,.767-.156,1.948,1.948,0,0,0,.615-.42,2,2,0,0,0,.41-.614,1.94,1.94,0,0,0,0-1.5,1.993,1.993,0,0,0-.415-.625,1.966,1.966,0,0,0-.616-.424,1.844,1.844,0,0,0-.762-.157,1.823,1.823,0,0,0-.75.157m-3.714,10.971a4.084,4.084,0,0,1-2.123,2.124,3.811,3.811,0,0,1-1.544.317,3.855,3.855,0,0,1-1.536-.313,4.03,4.03,0,0,1-1.27-.854,4.131,4.131,0,0,1-.859-1.264,3.978,3.978,0,0,1,0-3.109,4.008,4.008,0,0,1,.864-1.264,4.139,4.139,0,0,1,1.27-.849,3.932,3.932,0,0,1,3.084,0,4.113,4.113,0,0,1,1.264.859,4.006,4.006,0,0,1,.854,1.269,3.922,3.922,0,0,1,0,3.08M59.9,113.64a2.014,2.014,0,0,0-.619.42,1.992,1.992,0,0,0-.421.615,1.89,1.89,0,0,0,0,1.5,2,2,0,0,0,1.04,1.035,1.87,1.87,0,0,0,.755.156,1.922,1.922,0,0,0,.758-.152,1.917,1.917,0,0,0,1.034-1.035,1.974,1.974,0,0,0,0-1.512,1.917,1.917,0,0,0-1.034-1.035,1.922,1.922,0,0,0-.758-.152,1.87,1.87,0,0,0-.755.156" transform="translate(-26.554 -98.388)" fill="#bae9d9"/>
            <path id="Trazado_827462" data-name="Trazado 827462" d="M29.9,106.443h19a.955.955,0,1,0,0-1.91h-19a.955.955,0,1,0,0,1.91" transform="translate(-23.394 -98.473)" fill="#bae9d9"/>
            <path id="Trazado_827463" data-name="Trazado 827463" d="M29.9,113.631h19a.956.956,0,1,0,0-1.911h-19a.956.956,0,1,0,0,1.911" transform="translate(-23.394 -99.292)" fill="#bae9d9"/>
            <path id="Trazado_827464" data-name="Trazado 827464" d="M29.9,120.82h19a.955.955,0,1,0,0-1.91h-19a.955.955,0,1,0,0,1.91" transform="translate(-23.394 -100.112)" fill="#bae9d9"/>
          </g>
          <path id="Trazado_827465" data-name="Trazado 827465" d="M222.68,262.081a3.691,3.691,0,0,0,2.547,1.058,5.824,5.824,0,0,0-.2,5.333c.287.57.807.88,1.035,1.376a6.521,6.521,0,0,1-2.464,1.636c-.68.362-2.323,1.1-2.275,1.824.065.949,1.675,1.1,2.329,1.038a7.41,7.41,0,0,0,3.816-1.685c.235-.167.656-.56.84-.322.232.3-.658.9-1.113,1.209s-1.008.694-1.538.993c-.837.473-2.917,1.176-2.652,2.2.2.779,1.849.814,2.56.688a9.7,9.7,0,0,0,4.1-2.121c.35-.281.962-.915,1.13-.759.3.281-1.528,1.811-2.794,2.61-.652.412-3.289,1.525-3.057,2.437.115.455.965.7,1.572.663a9.591,9.591,0,0,0,5.236-2.5c.556-.5,1.439-1.74,1.723-1.561.338.214-.708,2.783-1.454,4-.3.493-.717.99-1.171,1.675-.322.486-1.06,1.358-.632,2.095.275.47,1.444.271,1.816.008,4-2.828,5.858-7.94,4.935-14.008a30.4,30.4,0,0,0-4.707-11.591q-.282-.456-.565-.9Z" transform="translate(17.943 12.791)" fill="#bb8774" fill-rule="evenodd"/>
          <path id="Trazado_827466" data-name="Trazado 827466" d="M222.424,273.739c-.527-.167-1.074-.3-1.149-.852-.111-.822,1.342-1.4,2.259-1.9a8.312,8.312,0,0,0,2.449-1.708,8.362,8.362,0,0,1-.7-.841,5.706,5.706,0,0,1-.051-5.809,13.874,13.874,0,0,0,.056,3.239,9.571,9.571,0,0,0,1.887,3.7c-1.052.5-4.978,2-4.753,4.172" transform="translate(17.938 13.298)" fill="#935e45" fill-rule="evenodd"/>
          <path id="Trazado_827467" data-name="Trazado 827467" d="M231.74,281.767c-1.1,1-2.844,1.193-2.479-.6a8.183,8.183,0,0,1,1.444-2.185,15.76,15.76,0,0,0,1.532-2.634,7.876,7.876,0,0,1-1.139,2.705c-.625,1.125-1.689,3.112.641,2.713" transform="translate(18.719 14.648)" fill="#935e45" fill-rule="evenodd"/>
          <path id="Trazado_827468" data-name="Trazado 827468" d="M225.862,278.015c-.068.386.147.511.472.6-1.046.143-2.188-.405-1.724-1.176a6.191,6.191,0,0,1,2.334-1.533,17.266,17.266,0,0,0,2.631-1.785c-.806,1.107-3.425,2.259-3.713,3.895" transform="translate(18.256 14.429)" fill="#935e45" fill-rule="evenodd"/>
          <path id="Trazado_827469" data-name="Trazado 827469" d="M224.066,276.086c-.326-.011-1.27-.2-1.25-.851.026-.86,1.51-1.555,2.54-2.1a10.093,10.093,0,0,0,2.77-1.849c-.108,1-3.437,2.349-4.288,4.049a.558.558,0,0,0,.228.748" transform="translate(18.09 14.15)" fill="#935e45" fill-rule="evenodd"/>
          <path id="Trazado_827470" data-name="Trazado 827470" d="M226.3,178.2a79.821,79.821,0,0,1,6.708-7.9,16.462,16.462,0,0,1,7.638-4.55,76.289,76.289,0,0,1,11.121-2.085c5.783-.693,11.6-.986,17.41-1.3,1.091-.057,2.185-.059,3.277-.059q27.306,0,54.613.03c2.09,0,4.177.206,6.272.223,3.869.029,7.728-.386,11.6-.2a1.709,1.709,0,0,0,1.816-1.276c2.153-4.872,4.043-9.849,5.99-14.8,3.445-8.766,6.921-17.521,10.668-26.164.547-1.262.711-1.373,2.072-1.2,3.564.449,7.126.925,10.69,1.391.135.018.268.048.4.075,1.247.253,1.332.354,1.114,1.657-1.015,6.057-2.072,12.105-3.058,18.165a219.047,219.047,0,0,1-5.527,25.04,50.641,50.641,0,0,1-3.826,10.057,16.735,16.735,0,0,1-11.342,8.674,85.044,85.044,0,0,1-10.371,1.634c-6.055.7-12.143,1-18.22,1.436-7.037.506-14.075.824-21.13.74-.227,0-.456.005-.683,0-.67-.03-1.017.265-1.024.959-.02,2.189-.345,4.352-.581,6.521-.693,6.373-1.2,12.766-2.088,19.12a76.2,76.2,0,0,0-.459,17.018c.2,2.4.32,4.809.623,7.2a1.1,1.1,0,0,1-.071.8c-.4.148-.478-.189-.536-.415-.215-.836-.421-1.677-.563-2.527-.1-.573-.344-.752-.919-.693-1.809.187-3.618.362-5.439.438-1.952.081-3.9.342-5.849.405-3.183.1-6.364.274-9.544.406-9.055.377-18.108.2-27.163.137-1.544-.011-3.09-.126-4.632-.232-1.078-.074-1.364-.353-1.332-1.458.036-1.225.159-2.452.31-3.669a88.653,88.653,0,0,0,.511-13.081,69.022,69.022,0,0,0-1.309-10.139c-.566-3.272-1.142-6.541-1.5-9.845-.058-.531-.176-1.054-.265-1.571-.515.021-13.934,20.825-21.275,30.406-1.349,1.761-1.446,1.218-.211,3.409a121.85,121.85,0,0,1,8.59,18.259c2.37,6.548,4.7,13.105,6.7,19.777.551,1.843.523,1.832-1.214,2.6-3.2,1.425-6.352,2.958-9.435,4.626-1.322.716-1.365.7-2.181-.517-5.557-8.28-10.764-16.773-15.531-25.532a78.839,78.839,0,0,1-5.981-13.45,40.1,40.1,0,0,1-1.209-4.759,19.5,19.5,0,0,1,1.469-11.073,94.437,94.437,0,0,1,4.89-9.759q5.159-9.548,10.661-18.9c1.877-3.175,9.055-13.665,9.339-14.046" transform="translate(15.811 -0.85)" fill="#dee1ed"/>
          <path id="Trazado_827471" data-name="Trazado 827471" d="M339.454,159.011a2.672,2.672,0,0,0,.54-.042.513.513,0,0,0,.317-.21c.1-.189-.034-.342-.188-.448a2.767,2.767,0,0,0-.577-.355c-1.753-.645-3.505-1.291-5.269-1.9-.2.456-.384.915-.585,1.37-.3.678-.647,1.109-1.273,1.236l-.029.053a49.573,49.573,0,0,0,7.063.3" transform="translate(28.872 2.81)" fill="#a4a4e4"/>
          <path id="Trazado_827472" data-name="Trazado 827472" d="M357.213,162.3c-2.519,4.244-5.591,7.981-9.971,10.434a37,37,0,0,1-9.509,3.312c-4.513,1.1-9.1,1.784-13.692,2.469-4.229.63-8.454,1.327-12.722,1.574-4.312.25-8.638.275-12.957.414-1.318.042-2.635.124-3.95.215-.885.062-1.064.205-1.073,1.06-.014,1.347-.023,2.694-.011,4.042.1-.458.433-.658.985-.634.227.01.456,0,.683,0,7.055.083,14.091-.234,21.13-.74,6.077-.437,12.165-.732,18.22-1.436a85.045,85.045,0,0,0,10.371-1.634,16.735,16.735,0,0,0,11.342-8.674,50.71,50.71,0,0,0,3.826-10.057c1.648-5.767,3.018-11.593,4.167-17.469-.576,1.742-1.146,3.486-1.751,5.219a64.688,64.688,0,0,1-5.09,11.9" transform="translate(25.028 1.741)" fill="#b3bad6"/>
          <path id="Trazado_827473" data-name="Trazado 827473" d="M239.751,181.121c-.4.123-.525.494-.711.793q-3.249,5.211-6.485,10.43c-2.812,4.519-5.6,9.056-8.646,13.421-3.777,5.41-7.408,10.91-10.787,16.579a2.185,2.185,0,0,0,.048,2.6c3.749,6.081,7.344,12.254,10.557,18.635,3.561,7.071,6.682,14.346,9.674,21.676.005.013.01.026.014.039,1.316-.6,1.3-.738.8-2.418-2-6.672-4.329-13.229-6.7-19.777a121.688,121.688,0,0,0-8.591-18.258c-1.233-2.192-1.138-1.649.211-3.411,7.341-9.581,20.76-30.384,21.275-30.406.016.092.035.187.052.279-.221-3.087-.276-6.179-.333-9.271-.005-.333.078-.748-.377-.917" transform="translate(17.096 5.277)" fill="#b3bad6"/>
          <path id="Trazado_827474" data-name="Trazado 827474" d="M273.105,169.893c.526,3.133.233,27.607.175,35.757-.032,4.461.283,8.909.313,13.366,0,.623.01,1.248-.027,1.868a2.087,2.087,0,0,1-.705,1.5c-.323.279-.7.539-1.118.344-.378-.176-.381-.625-.394-1.006-.035-.959-.071-1.918-.069-2.876.01-4.267-.047-8.537.07-12.8.16-5.842.479-11.679.684-17.52.093-2.682.192-5.362.313-8.044.158-3.536.4-7.065.759-10.6" transform="translate(22.858 4.172)" fill="#a4a4e4"/>
          <path id="Trazado_827475" data-name="Trazado 827475" d="M283.954,152.266l-3.414,11.613a39.911,39.911,0,0,1-18.66-1.615c1.151-4.012,2.664-7.358,3.045-12.062.116-1.415.39-3.566-.284-4.837-.477-.9-1.955-1.1-2.668-1.823-1.413-1.428-2.876-4.855-.7-6.127a14.906,14.906,0,0,1-.958-7.431c.967-7.007,4.536-12.051,12.761-12.194,4.019-.071,10.282,1.129,13.5,3.794,2.672,2.209,4.01,7.229,5.463,12.236,1.331,4.6,2.883,8.428,1.355,12.659a9.525,9.525,0,0,1-9.446,5.786" transform="translate(21.765 -0.955)" fill="#bb8774" fill-rule="evenodd"/>
          <path id="Trazado_827476" data-name="Trazado 827476" d="M281.448,153.841c-8.079-2.029-8.88-7.639-8.88-7.639a23.927,23.927,0,0,0,10.165,3.268Z" transform="translate(22.986 1.841)" fill="#935e45" fill-rule="evenodd"/>
          <path id="Trazado_827477" data-name="Trazado 827477" d="M289.612,127.183c.037.442-1.3.912-2.982,1.05s-3.079-.1-3.115-.539,1.3-.908,2.982-1.05,3.08.1,3.115.539" transform="translate(24.063 -0.087)" fill="#1e1e77" fill-rule="evenodd"/>
          <path id="Trazado_827478" data-name="Trazado 827478" d="M288.657,131.631a1.231,1.231,0,0,1-.706,1.541c-.54.11-1.1-.4-1.252-1.143a1.23,1.23,0,0,1,.709-1.54c.54-.108,1.1.4,1.25,1.142" transform="translate(24.372 0.294)" fill="#1e1e77" fill-rule="evenodd"/>
          <path id="Trazado_827479" data-name="Trazado 827479" d="M281.544,128.154c.166.433-1.053,1.3-2.721,1.929s-3.158.794-3.326.359,1.059-1.3,2.728-1.936,3.152-.79,3.318-.351" transform="translate(23.272 0.041)" fill="#1e1e77" fill-rule="evenodd"/>
          <path id="Trazado_827480" data-name="Trazado 827480" d="M280.365,133.617a1.3,1.3,0,0,1-.745,1.63c-.572.114-1.165-.426-1.322-1.209a1.289,1.289,0,0,1,.747-1.625c.57-.116,1.161.426,1.32,1.2" transform="translate(23.545 0.483)" fill="#1e1e77" fill-rule="evenodd"/>
          <path id="Trazado_827481" data-name="Trazado 827481" d="M284.835,140.341a.735.735,0,0,0,.091-.027,2.438,2.438,0,0,0,1.469-1.3c.479-1.159-.149-2.622-.949-4.475a27.3,27.3,0,0,1-1.462-3.985.508.508,0,0,0-.983.254,28.271,28.271,0,0,0,1.514,4.133c.678,1.565,1.259,2.922.946,3.683a1.5,1.5,0,0,1-.909.752.507.507,0,0,0,.285.969" transform="translate(24.011 0.264)" fill="#935e45"/>
          <path id="Trazado_827482" data-name="Trazado 827482" d="M285.11,142.26a6.647,6.647,0,0,0,1.633-.583.514.514,0,0,0,.222-.684.506.506,0,0,0-.681-.223c-2.66,1.338-3.9-.113-3.953-.176a.513.513,0,0,0-.712-.071.5.5,0,0,0-.077.706c-.433-.582,1.722,1.4,3.568,1.031" transform="translate(23.858 1.271)" fill="#935e45"/>
          <path id="Trazado_827483" data-name="Trazado 827483" d="M262.26,122.494c.286-.132.584-1.2,1.02-1.816,2.086-2.9,7.447-4.343,12.832-5.425,6.1-1.228,7.461-2.321,9.936-3.127,3.735-1.22,5.077-.8,6.46.493a3.245,3.245,0,0,1,.656,3.643,6.758,6.758,0,0,1-3.024,3.143c.97.219,2.4.118,3.282.852,1.751,1.46.391,3.487-.965,4.534-2.809,2.165-10.713,2.91-14.987,4.174-2.816.832-4.012,2.22-4.423,5.919-.115,1.045-.224,2.4-.269,3.761-.032.959.129,3.268-.476,3.545-.972.445-2.66-2.32-3.289-2.932-.654-.638-1.768-1.685-2.427-1.694-3.235-.038-2.705,4.377-1.16,6.164.533.614,1.391,1.011,1.62,1.575a18.437,18.437,0,0,1,.345,4.112,7.5,7.5,0,0,1-3.369-.968c-2.243-1.474-3.292-5.492-4.273-9.883-.44-1.96-.882-4.061-1.2-6.076-.566-3.56-.6-6.016,1.877-7.207-.111-.612-1.872-.866-2-1.842a.766.766,0,0,1,1-.841c-.684-1.319-1.22-3.569-.089-3.945,1.428-.477,2.269,2.525,2.921,3.84" transform="translate(21.575 -1.583)" fill="#1e1e77" fill-rule="evenodd"/>
          <path id="Trazado_827484" data-name="Trazado 827484" d="M273.222,160.012c-1.694,1.879,2.925,8.278,4.125,8.249.784-.019,3.794-4.907,5.021-6.745a4.155,4.155,0,0,0,1.024-2.815c-.183-1.008-1.935-2.452-2.647-3.067s-1.622.114-2.5.68c-.567.367-4.21,2.927-5.025,3.7" transform="translate(23.014 2.746)" fill="#fff" fill-rule="evenodd"/>
          <path id="Trazado_827485" data-name="Trazado 827485" d="M273.859,160.081c1.935,1.631-1.762,8.6-2.955,8.738-.78.088-7.828-5.679-9.3-7.331a4.15,4.15,0,0,1-1.4-2.647c.043-1.027,1.581-2.7,2.2-3.4s1.62-.111,2.561.332c.615.287,7.972,3.661,8.887,4.311" transform="translate(21.769 2.718)" fill="#fff" fill-rule="evenodd"/>
          <path id="Trazado_827486" data-name="Trazado 827486" d="M274.2,186.022c-1.333-1.7-4.063-6.467-4.11-7.119-.08-1.081,2.689-13.4,2.572-13.8-.152-.528-1.026-.761-1.166-1.232a8.687,8.687,0,0,1,1.4-3.559.58.58,0,0,1,.234-.064h0a.115.115,0,0,1,.027,0l.029,0v0a.624.624,0,0,1,.237.035c.376.227,1.9,2.829,1.8,3.375-.085.485-.929.815-1.017,1.358-.069.418,4.079,12.341,4.125,13.424.026.652-2.143,5.693-3.275,7.539a.629.629,0,0,1-.859.049" transform="translate(22.742 3.223)" fill="#af5091"/>
          <path id="Trazado_827487" data-name="Trazado 827487" d="M296.409,399.086l14.114-2.565,4.753,17.336-17.112,2.83Z" transform="translate(25.331 26.473)" fill="#bb8774" fill-rule="evenodd"/>
          <path id="Trazado_827488" data-name="Trazado 827488" d="M311.859,400.631c-5.77,4.926-15.078,1.855-15.078,1.855Z" transform="translate(25.368 26.877)" fill="#935e45" fill-rule="evenodd"/>
          <path id="Trazado_827489" data-name="Trazado 827489" d="M313.159,404.209c-.67.153-3.071.491-3.815,1.512-.772,1.054-.287,2.5-.041,4.4-4.567.538-6.5-3.736-12.382-1.8a95.5,95.5,0,0,0,1.779,15.414c12.16-1.753,24.7-4.046,37.013-6.008a11.3,11.3,0,0,0-1.6-3.029c-1.906-2.365-4.568-3.233-7.531-3.7-3.993-.628-8.617-1.047-11.289-3.848a23.251,23.251,0,0,1-2.134-2.944" transform="translate(25.382 27.23)" fill="#fff" fill-rule="evenodd"/>
          <path id="Trazado_827490" data-name="Trazado 827490" d="M310.424,409.828c.425.645,1.953-.46,3.179-.872.721-.237,2.5-.468,2.524-1.167.042-1.254-2.606-.762-3.682-.292-1.041.457-2.648,1.376-2.021,2.331" transform="translate(26.697 27.504)" fill="#2f2fa7" fill-rule="evenodd"/>
          <path id="Trazado_827491" data-name="Trazado 827491" d="M312.478,412.084c.769.749,2.363-.548,3.562-1.028.633-.254,1.351-.465,1.98-.659.6-.18,1.74-.3,1.621-.817-.253-1.113-2.114-.9-3.385-.537-1.6.453-4.925,1.929-3.778,3.041" transform="translate(26.89 27.677)" fill="#2f2fa7" fill-rule="evenodd"/>
          <path id="Trazado_827492" data-name="Trazado 827492" d="M321.095,409.892c1.182.206,2.371.368,3.512.549,2.964.465,5.626,1.332,7.532,3.7a11.367,11.367,0,0,1,1.6,3.029c-5.528.882-11.107,1.832-16.673,2.765a10.831,10.831,0,0,1,4.029-10.04" transform="translate(27.357 27.789)" fill="#2f2fa7"/>
          <path id="Trazado_827493" data-name="Trazado 827493" d="M306.15,421.748c-2.5.392-5,.778-7.477,1.136-.589-3.412-1.14-6.795-1.471-10.016a12.454,12.454,0,0,1,8.948,8.881" transform="translate(25.41 28.081)" fill="#2f2fa7"/>
          <path id="Trazado_827494" data-name="Trazado 827494" d="M205.984,384.062l11.724,8.267-9.031,15.543-14.013-10.218Z" transform="translate(15.32 25.247)" fill="#bb8774" fill-rule="evenodd"/>
          <path id="Trazado_827495" data-name="Trazado 827495" d="M214.846,395.534a14.352,14.352,0,0,1-12.589-8.372Z" transform="translate(16.067 25.552)" fill="#935e45" fill-rule="evenodd"/>
          <path id="Trazado_827496" data-name="Trazado 827496" d="M214.031,399.5c-.579-.37-2.5-1.846-3.752-1.66-1.294.189-1.982,1.545-3.166,3.055-3.586-2.88-1.894-7.254-7.4-10.091a95.476,95.476,0,0,0-9.744,12.076c9.776,7.442,20.2,14.779,30.234,22.181a11.34,11.34,0,0,0,1.038-3.266c.35-3.016-.9-5.523-2.643-7.962-2.352-3.286-5.3-6.877-5.171-10.748a23.218,23.218,0,0,1,.6-3.585" transform="translate(14.858 25.911)" fill="#fff" fill-rule="evenodd"/>
          <path id="Trazado_827497" data-name="Trazado 827497" d="M207.145,401.622c-.161.755,1.7,1.07,2.85,1.655.674.347,2.086,1.454,2.6.983.923-.85-1.284-2.395-2.374-2.831-1.057-.423-2.838-.925-3.079.192" transform="translate(16.547 26.908)" fill="#2f2fa7" fill-rule="evenodd"/>
          <path id="Trazado_827498" data-name="Trazado 827498" d="M207,404.638c.005,1.073,2.047,1.3,3.23,1.819.625.274,1.279.638,1.858.95.546.3,1.431,1.034,1.72.584.615-.961-.845-2.136-1.991-2.791-1.448-.827-4.829-2.161-4.818-.562" transform="translate(16.533 27.198)" fill="#2f2fa7" fill-rule="evenodd"/>
          <path id="Trazado_827499" data-name="Trazado 827499" d="M215.043,409.147c.682.989,1.4,1.95,2.072,2.89,1.745,2.44,2.993,4.946,2.643,7.962a11.34,11.34,0,0,1-1.038,3.266c-4.5-3.324-9.093-6.635-13.661-9.952a10.835,10.835,0,0,1,9.984-4.166" transform="translate(16.343 27.708)" fill="#2f2fa7"/>
          <path id="Trazado_827500" data-name="Trazado 827500" d="M196.022,407.057c-2.034-1.509-4.06-3.02-6.051-4.535,2.019-2.811,4.045-5.577,6.112-8.071a12.453,12.453,0,0,1-.06,12.606" transform="translate(14.858 26.269)" fill="#2f2fa7"/>
          <path id="Trazado_827501" data-name="Trazado 827501" d="M280.062,290.823c-.279,2.727-.567,5.427-.83,8.13a217.833,217.833,0,0,1-5.758,34.694,96.865,96.865,0,0,1-11.16,25.261,190.937,190.937,0,0,1-16.994,23.563q-9.485,11.375-19.006,22.723-3.463,4.132-6.987,8.215c-.87,1.015-.923,1.021-2,.242-5.046-3.667-10.274-7.064-15.524-10.428-.269-.171-.534-.349-.8-.528-1.272-.863-1.28-.936-.683-2.31a177.828,177.828,0,0,1,13.779-25.415c5.446-8.458,11.127-16.757,16.8-25.062,2.746-4.021,5.478-8.056,7.846-12.32a58.309,58.309,0,0,0,4.039-8.949,33.471,33.471,0,0,0,1.442-11.312c0-5.462-.234-10.919-.429-16.374-.4-11.1-.193-22.205-.138-33.309,0-.454.07-.906.1-1.36a15.047,15.047,0,0,0-.477-5.662,56.029,56.029,0,0,1,.013-33.989,2.159,2.159,0,0,1,2.2-1.741q9.045-.733,18.112-1.084c3.958-.149,7.918-.1,11.87-.28,4.186-.193,8.374-.088,12.555-.259,3.047-.126,6.094-.187,9.141-.264,1.63-.042,1.666-.073,2.1,1.566q1.727,6.462,3.394,12.938c4.707,18.431,8.843,36.994,12.717,55.614,1.955,9.4,3.707,18.838,5.467,28.274a73.8,73.8,0,0,1,1.236,12.891c.045,5.234.446,10.45.726,15.673.034.636.04,1.273.053,1.91.107,5.1.264,10.189.4,15.283.136,5.324.024,10.649.216,15.97.165,4.594.138,9.191.317,13.782.137,3.5.123,7.007.233,10.507.09,2.864.281,5.724.426,8.585.016.319.037.636.041.955.01,1.225-.051,1.335-1.24,1.493q-6.154.822-12.314,1.6c-2.076.263-4.155.488-6.233.73-.181.021-.361.048-.543.064-1.473.123-1.64.032-2.022-1.373-.739-2.722-1.495-5.442-2.165-8.181-2.031-8.309-4.077-16.617-5.7-25.017a108.53,108.53,0,0,1-1.545-12.588c-.944-12.677-.728-25.373-.812-38.067a79.285,79.285,0,0,0-1.917-17.192,76.767,76.767,0,0,0-3.389-10.371c-2.122-5.522-6.237-17.093-6.559-17.225" transform="translate(15.839 9.397)" fill="#273a89"/>
          <path id="Trazado_827502" data-name="Trazado 827502" d="M294.907,368.462c-.343-6.494-.648-12.989-1.12-19.476-.408-5.579-.64-11.167-1.078-16.745a120.525,120.525,0,0,0-4.5-24.379c-2.229-7.643-4.487-15.27-6.443-22.993a207.449,207.449,0,0,1-5.532-32.239c-.035-.389.043-.828-.39-1.164a1.035,1.035,0,0,0-.254.716c-.6,4.555-.953,9.133-1.333,13.71-.228,2.764-.415,5.532-.66,8.294a135.788,135.788,0,0,0-.744,14.175c.012-.114.024-.226.035-.341.323.132,4.438,11.7,6.56,17.225a76.727,76.727,0,0,1,3.387,10.372,79.272,79.272,0,0,1,1.917,17.191c.083,12.694-.132,25.391.812,38.067a108.756,108.756,0,0,0,1.545,12.588c1.623,8.4,3.671,16.708,5.7,25.017.67,2.739,1.425,5.459,2.164,8.181.382,1.4.549,1.5,2.022,1.373.181-.015.361-.042.543-.064q1.985-.231,3.973-.46a290.345,290.345,0,0,1-4.977-28.79c-.829-6.728-1.273-13.494-1.629-20.259" transform="translate(23.013 12.199)" fill="#1e1e77"/>
          <path id="Trazado_827503" data-name="Trazado 827503" d="M235.988,356.395c4.272-5.727,8.564-11.43,11.944-17.769a34.622,34.622,0,0,0,3.852-17.393c-.146-6.591-.763-13.164-1.19-19.746-.375-5.767-.409-11.548-.526-17.323-.06-3,.131-6,.221-9,.021-.681.1-1.361.143-2.041.208-2.949.426-5.9.618-8.847A35.336,35.336,0,0,0,249.908,254a62.42,62.42,0,0,1-1.264-22.627,46.921,46.921,0,0,1,1.311-6.962q-2.229.157-4.457.337a2.161,2.161,0,0,0-2.2,1.742,56.025,56.025,0,0,0-.013,33.988,15.054,15.054,0,0,1,.477,5.663c-.031.454-.1.906-.1,1.36-.055,11.1-.259,22.205.138,33.309.2,5.455.428,10.912.429,16.374a33.471,33.471,0,0,1-1.442,11.312,58.2,58.2,0,0,1-4.039,8.949c-2.368,4.264-5.1,8.3-7.846,12.319-5.673,8.306-11.353,16.606-16.8,25.063a177.7,177.7,0,0,0-13.778,25.415c-.6,1.374-.59,1.445.682,2.31.264.179.529.356.8.528.559.358,1.116.719,1.674,1.079a205.364,205.364,0,0,1,15.709-25.209c5.479-7.606,11.193-15.044,16.8-22.558" transform="translate(15.839 9.537)" fill="#1e1e77"/>
          <path id="Trazado_827504" data-name="Trazado 827504" d="M303.2,320.69a7.619,7.619,0,0,1-.046-4.786c.044-.127.076-.261.13-.386.122-.286.183-.665.554-.7.406-.043.472.354.6.63.75,1.647,1.481,3.3,2.243,4.944.553,1.19,1.147,2.36,1.718,3.541.137.283.328.593.133.9-.246.38-.644.261-.989.165a6.046,6.046,0,0,1-4.34-4.3" transform="translate(25.959 18.433)" fill="#1e1e77"/>
          <path id="Trazado_827505" data-name="Trazado 827505" d="M256.848,324.442a7.619,7.619,0,0,1,3.242-3.519c.121-.064.235-.138.359-.193.285-.124.589-.358.884-.133.326.248.1.581,0,.869-.581,1.715-1.182,3.422-1.75,5.139-.412,1.246-.781,2.5-1.173,3.757-.094.3-.167.658-.516.745-.44.109-.648-.25-.834-.557a6.045,6.045,0,0,1-.217-6.107" transform="translate(21.368 18.993)" fill="#1e1e77"/>
          <path id="Trazado_827506" data-name="Trazado 827506" d="M251.313,250.2c4.346-2.365,10.949-11.741,13.272-18.8a29.294,29.294,0,0,1-2.38,11.507,12.231,12.231,0,0,1-8.81,7.262,3.946,3.946,0,0,1-2.081.03" transform="translate(20.894 10.225)" fill="#1e1e77"/>
          <path id="Trazado_827507" data-name="Trazado 827507" d="M296.186,248.815c-3.754-2.042-9.456-10.139-11.462-16.234a25.292,25.292,0,0,0,2.055,9.938,10.57,10.57,0,0,0,7.609,6.271,3.42,3.42,0,0,0,1.8.025" transform="translate(24.181 10.341)" fill="#1e1e77"/>
          <path id="Trazado_827508" data-name="Trazado 827508" d="M275.863,230.277s.711,18.876-2.8,21.241c0,0,3.025.384,3.651-2.086.853-3.367-.853-19.155-.853-19.155" transform="translate(23.034 10.114)" fill="#1e1e77"/>
          <path id="Trazado_827509" data-name="Trazado 827509" d="M239.744,226.24a1.55,1.55,0,0,0,1.615,1.478l52.9-.654a1.549,1.549,0,0,0,1.576-1.518l-.04-3.163a1.547,1.547,0,0,0-1.612-1.48l-52.906.654a1.549,1.549,0,0,0-1.576,1.519Z" transform="translate(19.752 9.192)" fill="#af5091" fill-rule="evenodd"/>
          <path id="Trazado_827510" data-name="Trazado 827510" d="M276.432,227.277a.958.958,0,1,0,1.915-.058l-.169-5.766a.958.958,0,1,0-1.915.057Z" transform="translate(23.349 9.155)" fill="#fff" fill-rule="evenodd"/>
          <path id="Trazado_827511" data-name="Trazado 827511" d="M265.654,227.55a.958.958,0,1,0,1.914-.054l-.17-5.769a.957.957,0,0,0-1.913.056Z" transform="translate(22.288 9.182)" fill="#fff" fill-rule="evenodd"/>
          <path id="Trazado_827512" data-name="Trazado 827512" d="M268.5,221.506l0,.026,0,0,0,.02.152,5.323a.785.785,0,0,0,.016.1.755.755,0,0,0-.021.194.871.871,0,0,0,.868.873l5.2-.052a.874.874,0,0,0,.856-.891l-.006-.024a.657.657,0,0,0,.025-.213l-.155-5.329a.165.165,0,0,1-.005-.041.247.247,0,0,0,0-.027.873.873,0,0,0-.872-.874l-5.2.052a.862.862,0,0,0-.84.724.728.728,0,0,0-.013.142m1.9,4.757-.035-1.154,3.4-.032.034,1.153Zm3.283-3.9.029.942-3.4.035-.026-.944Z" transform="translate(22.585 9.161)" fill="#fff" fill-rule="evenodd"/>
          <path id="Trazado_827513" data-name="Trazado 827513" d="M251.536,226.023c-2.761-.008-5.171-1.331-7.374-3.161a50.876,50.876,0,0,1-7.642-8.309c-5.136-6.684-10.245-13.391-14.725-20.544-.4-.639-.81-1.274-1.168-1.936-.722-1.338-.686-1.538.521-2.412,1.4-1.015,2.812-2.017,4.254-2.972,2.921-1.936,5.872-3.826,8.9-5.593,1.311-.766,1.431-.768,2.287.4,5.545,7.543,11.566,14.721,17.056,22.306.416.574.827,1.153,1.244,1.728a.725.725,0,0,0,1.036.242c4.759-2.4,9.8-4.155,14.68-6.266,5.862-2.535,11.752-5.008,17.7-7.341.372-.146.739-.3,1.114-.44,1.065-.388,1.2-.368,1.855.618q1.723,2.61,3.38,5.264c.614.98.6,1.1-.347,1.861-1.832,1.473-3.654,2.964-5.546,4.357-7.321,5.394-14.62,10.82-22.076,16.029a39.966,39.966,0,0,1-10.643,5.4,16.913,16.913,0,0,1-4.506.774" transform="translate(17.827 5.222)" fill="#ffc295"/>
          <path id="Trazado_827514" data-name="Trazado 827514" d="M247.363,208.056a.506.506,0,0,0,.053.368c.125.164.315.112.473.022a2.633,2.633,0,0,0,.552-.361c1.421-1.392,2.846-2.78,4.235-4.2.022-.022.042-.045.063-.067a.759.759,0,0,1-.526-.347c-.418-.573-.829-1.152-1.244-1.728-.067-.091-.135-.181-.2-.272a48.281,48.281,0,0,0-3.215,6.1,2.626,2.626,0,0,0-.19.493" transform="translate(20.504 7.28)" fill="#b9845e"/>
          <path id="Trazado_827515" data-name="Trazado 827515" d="M136.184,241.31c-.057-5.438-.1-9.875.253-14.3a82.2,82.2,0,0,1,2.934-17.275,34.9,34.9,0,0,1,5.717-11.049q6.264-8.278,12.987-16.189c1.382-1.636,1.382-1.583,3.065-.336,3.849,2.851,7.735,5.653,11.587,8.5,1.729,1.277,1.908,1.012.462,2.9-2.647,3.453-5.632,6.619-8.436,9.939-1.716,2.033-3.462,4.041-5.2,6.059a20.891,20.891,0,0,0-4.715,9.119c-1,4.411-2.028,8.816-3.13,13.2-1.475,5.868-4.587,17.56-4.587,17.56-4.475,6.415-9.057,14.021-9.057,14.021-2.4-5.52-2.054-18.005-1.883-22.147" transform="translate(9.553 5.29)" fill="#ffc295"/>
          <path id="Trazado_827516" data-name="Trazado 827516" d="M150.442,208.127a1.359,1.359,0,0,0-1.087-.014,1.122,1.122,0,0,0,.534.682c1.5,1.17,3,2.343,4.511,3.494.1.079.2.154.293.225a20.667,20.667,0,0,1,1.386-2.638c-.143-.064-.283-.13-.429-.181a48.361,48.361,0,0,0-5.208-1.567" transform="translate(10.861 7.922)" fill="#bb78a2"/>
          <path id="Trazado_827517" data-name="Trazado 827517" d="M178.568,188.5c-.509.762-4.517,4.923-5.932,6.265-.811.769-.961.775-1.819.118-4.72-3.615-9.542-7.087-14.414-10.49-.86-.6-.884-.745-.189-1.569,1.259-1.489,2.546-2.957,3.848-4.411,1.213-1.354,2.47-2.668,3.688-4.017a23.033,23.033,0,0,1,13.784-7.413c3.152-.52,6.32-.848,9.5-1.11,3.146-.259,6.3-.085,9.437-.28,5.63-.35,11.261-.193,16.892-.214a59.24,59.24,0,0,1,8.213.665,25.925,25.925,0,0,1,14.571,7.412,97.725,97.725,0,0,1,7.445,7.965c.755.9.734,1.025-.341,1.688q-5.546,3.429-11.274,6.546a2.147,2.147,0,0,0-1.353,2.031,9.2,9.2,0,0,1-1.566,4.338,22.989,22.989,0,0,1-1.654,2.572,10.3,10.3,0,0,0-2.018,6.344,38.036,38.036,0,0,0,.689,7.668c.3,1.7.68,3.391.989,5.092.181,1,.018,1.177-.969,1.26-.132.012-.266.011-.4.01-6.165-.046-12.327.2-18.488.354-6.78.172-13.56.409-20.342.562-2.169.049-4.341.155-6.512.209a1.934,1.934,0,0,1-1.276-.157.671.671,0,0,1,0-.527c.959-2.96,1.476-6.026,2.164-9.051a16.037,16.037,0,0,0-.035-7.774c-1.091-4.071-2.552-13.83-2.638-14.085" transform="translate(11.488 3.727)" fill="#3ee2a8"/>
          <path id="Trazado_827518" data-name="Trazado 827518" d="M206.314,139.562a14.275,14.275,0,0,1,3.073,8.272,42.953,42.953,0,0,0,.573,6.211c.725,4.271-3.616,11.432-4.424,15.965q3.053.007,6.106.013c7.6.027,15.194.187,22.792.3-.461-3.045-5.835-5.056-4.347-11.864.442-2.02,5.622-8.957-1.174-15.6a21.58,21.58,0,0,1-5.144-7.509,51.86,51.86,0,0,0-3.233-7.581c-.338-.624-.625-1.281-1.022-1.866a15.5,15.5,0,0,0-9.017-6.484,9.047,9.047,0,0,0-8.207,1.678,4.853,4.853,0,0,0-2.153,3.482,10.849,10.849,0,0,0,.964,6.332,57.717,57.717,0,0,0,5.212,8.647" transform="translate(15.848 -0.829)" fill="#9a466e"/>
          <path id="Trazado_827519" data-name="Trazado 827519" d="M210.193,158.81l-3.328,11.321a38.886,38.886,0,0,1-18.19-1.574c1.121-3.911,2.6-7.173,2.967-11.758.115-1.378.382-3.476-.277-4.715-.465-.875-1.906-1.076-2.6-1.778-1.377-1.392-2.8-4.733-.678-5.972a14.536,14.536,0,0,1-.935-7.244c.941-6.831,4.422-11.747,12.441-11.888,3.918-.069,10.022,1.1,13.162,3.7,2.605,2.153,3.909,7.046,5.325,11.928,1.3,4.485,2.811,8.216,1.323,12.342a9.287,9.287,0,0,1-9.21,5.64" transform="translate(14.566 -0.226)" fill="#ffc295" fill-rule="evenodd"/>
          <path id="Trazado_827520" data-name="Trazado 827520" d="M207.678,160.462c-7.876-1.978-8.306-7.18-8.306-7.18a19.243,19.243,0,0,0,9.9,2.77Z" transform="translate(15.783 2.538)" fill="#bb78a2" fill-rule="evenodd"/>
          <path id="Trazado_827521" data-name="Trazado 827521" d="M215.71,134.358c.037.431-1.266.89-2.907,1.024s-3-.1-3.037-.526,1.265-.885,2.909-1.024,3,.1,3.036.526" transform="translate(16.806 0.62)" fill="#9a466e" fill-rule="evenodd"/>
          <path id="Trazado_827522" data-name="Trazado 827522" d="M214.778,138.693a1.2,1.2,0,0,1-.689,1.5c-.526.107-1.074-.39-1.22-1.114a1.2,1.2,0,0,1,.691-1.5c.526-.1,1.071.393,1.218,1.114" transform="translate(17.108 0.991)" fill="#1e1e77" fill-rule="evenodd"/>
          <path id="Trazado_827523" data-name="Trazado 827523" d="M207.844,135.3c.161.422-1.027,1.265-2.653,1.88s-3.079.774-3.241.35,1.031-1.27,2.659-1.888,3.073-.77,3.235-.343" transform="translate(16.035 0.745)" fill="#9a466e" fill-rule="evenodd"/>
          <path id="Trazado_827524" data-name="Trazado 827524" d="M206.694,140.631a1.271,1.271,0,0,1-.726,1.589c-.558.111-1.136-.415-1.288-1.179a1.258,1.258,0,0,1,.727-1.585c.556-.113,1.132.415,1.287,1.174" transform="translate(16.301 1.176)" fill="#1e1e77" fill-rule="evenodd"/>
          <path id="Trazado_827525" data-name="Trazado 827525" d="M211.052,147.437a.6.6,0,0,0,.089-.027,2.377,2.377,0,0,0,1.432-1.271c.466-1.129-.146-2.556-.926-4.362a26.588,26.588,0,0,1-1.426-3.885.487.487,0,0,0-.6-.353.493.493,0,0,0-.357.6,27.393,27.393,0,0,0,1.476,4.029c.659,1.526,1.227,2.848.922,3.591a1.471,1.471,0,0,1-.888.733.494.494,0,0,0,.278.945" transform="translate(16.755 0.987)" fill="#bb78a2"/>
          <path id="Trazado_827526" data-name="Trazado 827526" d="M211.32,149.055a6.5,6.5,0,0,0,1.593-.569.5.5,0,0,0,.215-.667.492.492,0,0,0-.663-.216c-2.593,1.3-3.8-.111-3.853-.172a.5.5,0,0,0-.694-.069.487.487,0,0,0-.075.689,3.5,3.5,0,0,0,3.478,1.005" transform="translate(16.606 1.945)" fill="#bb78a2"/>
          <path id="Trazado_827527" data-name="Trazado 827527" d="M199.731,166.362c-1.651,1.832,2.851,8.069,4.021,8.041.764-.019,3.7-4.782,4.894-6.576a4.047,4.047,0,0,0,1-2.744c-.178-.983-1.887-2.39-2.58-2.99s-1.582.112-2.434.662c-.552.358-4.1,2.855-4.9,3.606" transform="translate(15.783 3.383)" fill="#fff" fill-rule="evenodd"/>
          <path id="Trazado_827528" data-name="Trazado 827528" d="M200.353,166.429c1.886,1.59-1.717,8.385-2.881,8.518-.76.086-7.631-5.536-9.063-7.146a4.045,4.045,0,0,1-1.365-2.581c.041-1,1.541-2.627,2.148-3.317s1.58-.108,2.5.323c.6.28,7.77,3.57,8.663,4.2" transform="translate(14.57 3.355)" fill="#fff" fill-rule="evenodd"/>
          <path id="Trazado_827529" data-name="Trazado 827529" d="M161.336,168.263a14.394,14.394,0,0,0,.743,1.641q15.555-.008,31.111-.022a9.483,9.483,0,0,1,1.141-6.538c5.919-6.286,2.671-11.427,2.873-14.488.457-6.925,3.222-11.908,6.489-15.1.981-.957,2-1.882,2.977-2.838a8.616,8.616,0,0,0,2.715-6.531c-.008-.628.259-1.832-.4-2.109a19.2,19.2,0,0,0-12.051-1.773,15.946,15.946,0,0,0-11.025,8.147,26.905,26.905,0,0,0-2.314,5.45c-.405,1.373-.93,2.71-1.47,4.043a13.454,13.454,0,0,1-5.041,6.117,47.875,47.875,0,0,1-5.76,3.537,25.8,25.8,0,0,0-4.008,2.437c-5.3,3.96-7.6,9.106-6.755,15.468a12.269,12.269,0,0,0,.773,2.559" transform="translate(11.947 -0.716)" fill="#9a466e"/>
          <path id="Trazado_827530" data-name="Trazado 827530" d="M216.52,131.895a11.617,11.617,0,0,1,.233,1.192c.108,1.053-.322,1.375-1.555,1.131a14.957,14.957,0,0,1-3.628-1.4,25.934,25.934,0,0,1-9.038-7.013c-1.246-1.539-1.023-2,1.316-2.773a6.429,6.429,0,0,1,3.407-.186,9.6,9.6,0,0,1,4.966,2.615,23.128,23.128,0,0,1,4.3,6.434" transform="translate(16.02 -0.471)" fill="#9a466e"/>
          <path id="Trazado_827531" data-name="Trazado 827531" d="M194.079,137.255a11.6,11.6,0,0,0,.11,1.209c.191,1.041.693,1.23,1.809.651a14.958,14.958,0,0,0,3.092-2.358,25.925,25.925,0,0,0,6.718-9.26c.766-1.826.423-2.2-2.04-2.3a6.436,6.436,0,0,0-3.323.773,9.6,9.6,0,0,0-4.037,3.9,23.129,23.129,0,0,0-2.33,7.379" transform="translate(15.262 -0.226)" fill="#9a466e"/>
          <path id="Trazado_827532" data-name="Trazado 827532" d="M169.912,170.387a17.189,17.189,0,0,1,.182-6.314c1.448-7.554,5.622-13.286,11.9-17.581,4.429-3.033,9.161-5.573,13.719-8.4,1.583-.979,3.158-1.974,4.69-3.029a22.909,22.909,0,0,0,7.28-7.632c.227-.409.461-1.014,1.059-.78.579.225.352.839.292,1.3a7.481,7.481,0,0,1-1,2.727,22.741,22.741,0,0,1-6.643,6.984,97.014,97.014,0,0,1-8.4,5.358,105.992,105.992,0,0,0-12.594,8.169,26.017,26.017,0,0,0-8.765,12.113,27.791,27.791,0,0,0-1.151,5.323c-.079.6-.163,1.2-.244,1.8l-.313-.049" transform="translate(12.863 -0.087)" fill="#c167a0"/>
          <path id="Trazado_827533" data-name="Trazado 827533" d="M237.3,155.841a12.735,12.735,0,0,0-.632-4.631,19.9,19.9,0,0,0-10.14-12c-3.5-1.882-7.18-3.379-10.758-5.094-1.241-.6-2.479-1.2-3.69-1.86a16.957,16.957,0,0,1-5.959-5.042c-.2-.282-.42-.71-.84-.491s-.193.646-.113.981a5.537,5.537,0,0,0,.955,1.929,16.835,16.835,0,0,0,5.438,4.614,72.01,72.01,0,0,0,6.607,3.28,78.594,78.594,0,0,1,9.912,5.017,19.262,19.262,0,0,1,7.405,8.223,20.527,20.527,0,0,1,1.266,3.826c.105.437.214.872.322,1.308l.226-.06" transform="translate(16.34 -0.081)" fill="#c167a0"/>
          <path id="Trazado_827534" data-name="Trazado 827534" d="M186.676,200.011a26.064,26.064,0,0,0,16.673-.208c-2.667,4.411-13.517,4.541-16.673.208" transform="translate(14.534 7.116)" fill="#31c490"/>
          <path id="Trazado_827535" data-name="Trazado 827535" d="M218.2,178.968c-.257.2-.122.445-.089.665a18.735,18.735,0,0,0,2.1,6.378,11.12,11.12,0,0,1,1.418,3.775,5.073,5.073,0,0,1-.158,2.286,18.942,18.942,0,0,1-.941,2.334c-2.481,5.379-1.712,10.819-1.27,10.83a20.073,20.073,0,0,1,3.1-8.575c.542-.8,1.008-1.633,1.5-2.455a6.732,6.732,0,0,0,.129-7.016,28.643,28.643,0,0,0-2.761-4.22c-.905-1.167-1.765-2.363-2.559-3.6-.11-.171-.18-.393-.467-.4" transform="translate(17.621 5.065)" fill="#31c490"/>
          <path id="Trazado_827536" data-name="Trazado 827536" d="M176.865,181.8c.376.144.305.5.334.786a63.07,63.07,0,0,0,3.659,14.8c.518,1.462,1.059,2.917,1.534,4.392a15.672,15.672,0,0,1-.328,10.434c-.987,2.706-2.078,5.373-3.3,7.983a2.339,2.339,0,0,1-1.428,1.477c-.851.237-1.251-.165-1.035-1.029.58-2.321,1.213-4.63,1.738-6.964a38.032,38.032,0,0,0,.059-15.951c-.827-4.166-1.791-8.325-1.695-12.622a20.5,20.5,0,0,1,.166-2.784c.032-.2.008-.449.3-.526" transform="translate(13.507 5.344)" fill="#31c490"/>
          <path id="Trazado_827537" data-name="Trazado 827537" d="M221.319,354.211a87.508,87.508,0,0,1,.711-10.7c.31-3.132.592-6.266.887-9.4.145-1.544.342-3.087.427-4.634a32.7,32.7,0,0,0-.914-9.893,157.768,157.768,0,0,0-5.321-15.608q-1.858-5.06-3.672-10.134c-.405-1.131-.276-1.318.936-1.384,6.153-.334,12.274-1.1,18.43-1.4,2.124-.1,4.242-.33,6.366-.449,1.229-.069,1.349.031,1.643,1.235,1.824,7.453,3.538,14.928,4.614,22.537.409,2.9.9,5.781,1.127,8.7a83.6,83.6,0,0,1,.252,12.488c-.061.84-.063,1.685-.07,2.527-.047,4.7-.426,9.388-.75,14.076-.208,3.007-.4,6.016-.588,9.024q-.382,6.04-.75,12.079-.153,2.588-.269,5.18c-.211,4.916-.506,9.83-.69,14.748q-.241,6.523-.124,13.037a72.273,72.273,0,0,0,.751,10.338,8.238,8.238,0,0,0,2.944,5.473c2.02,1.592,3.951,3.294,5.919,4.949a3.282,3.282,0,0,1,1.134,1.277c.137.367,0,.646-.409.624a5.44,5.44,0,0,1-1.171-.224,49.322,49.322,0,0,1-18.844-10.111c-1.079-.922-2.1-1.9-3.162-2.85a2.656,2.656,0,0,1-.892-1.724c-1.164-9.062-3.028-18.016-4.174-27.079-.9-7.131-2.128-14.206-3.382-21.278a55.937,55.937,0,0,1-.96-11.424" transform="translate(17.147 16.049)" fill="#fec295"/>
          <path id="Trazado_827538" data-name="Trazado 827538" d="M231.46,416.129a2.664,2.664,0,0,1-.8-1.772c-.668-9.111-2.041-18.154-2.691-27.266-.511-7.169-1.35-14.3-2.217-21.431a55.853,55.853,0,0,1-.336-11.46,87.839,87.839,0,0,1,1.293-10.647c.481-3.111.934-6.225,1.4-9.337.23-1.534.509-3.063.679-4.6a32.734,32.734,0,0,0-.372-9.928,157.642,157.642,0,0,0-4.463-15.875q-1.58-5.152-3.114-10.318c-.343-1.152-.2-1.332,1.011-1.331,6.162,0,12.315-.429,18.478-.393.155,0,.31,0,.465,0-.28-1.124-.425-1.224-1.623-1.157-2.124.12-4.242.346-6.366.449-6.157.3-12.277,1.067-18.43,1.4-1.212.065-1.341.252-.936,1.384q1.816,5.073,3.671,10.133a157.584,157.584,0,0,1,5.322,15.608,32.744,32.744,0,0,1,.914,9.894c-.087,1.548-.282,3.09-.428,4.634-.294,3.134-.577,6.269-.887,9.4a87.722,87.722,0,0,0-.71,10.7,55.765,55.765,0,0,0,.96,11.423c1.254,7.074,2.48,14.148,3.382,21.279,1.146,9.062,3.009,18.017,4.173,27.079a2.658,2.658,0,0,0,.893,1.724c1.025.917,2.021,1.866,3.063,2.762-.783-.778-1.55-1.571-2.331-2.351" transform="translate(17.147 16.049)" fill="#b9845e" opacity="0.27"/>
          <path id="Trazado_827539" data-name="Trazado 827539" d="M236.454,323.457c0-.221-.016-.443,0-.662a1.2,1.2,0,0,1,.89-1.183,1.168,1.168,0,0,1,1.317.666,6.837,6.837,0,0,1,.75,1.834,28.074,28.074,0,0,0,1.618,4.484,2.888,2.888,0,0,1,.248.751,1.133,1.133,0,0,1-.461,1.168,1.082,1.082,0,0,1-1.247.016,3.473,3.473,0,0,1-1.284-1.316,14.867,14.867,0,0,1-1.834-5.758" transform="translate(19.431 19.098)" fill="#b9845e" opacity="0.27"/>
          <path id="Trazado_827540" data-name="Trazado 827540" d="M226.931,394.983c2.538-.617,13.5-1.72,16.084-2.206.091.016.188.03.277.043,1.232,6.427,1.383,14.5,4.784,19.3,2.3,3.256,7.433,4.514,10.732,7.348a4.9,4.9,0,0,1,1.006,3.306L237.376,424.3c-.6-1.465-.956-3.21-1.262-4.11-.862-2.527-1.185-4.484-3.553-5.9.211,2.128.215,4.239.384,6.384.1,1.277.3,2.6.317,3.909l-4.221.284c-.193-.585-4.155-19.858-2.11-29.878" transform="translate(18.437 26.105)" fill="#1e1e77"/>
          <path id="Trazado_827541" data-name="Trazado 827541" d="M125.6,405.718c-.473-.1-.567-.534-.725-.879a60.417,60.417,0,0,1-5.188-16.443,14.668,14.668,0,0,1,3.722-12.325c2.738-3.086,5.7-5.962,8.415-9.075,3.762-4.317,7.311-8.8,10.778-13.355,3.414-4.486,7.054-8.781,10.874-12.929a98.642,98.642,0,0,1,16.473-13.84c3.746-2.613,7.568-5.125,11.108-8.025.65-.534,1.265-1.112,1.887-1.679a9.44,9.44,0,0,0,2.848-5.011,22.514,22.514,0,0,0,.593-5.143q-.023-4.127-.027-8.252c0-2.223.019-2.169,2.176-2.333,2.791-.212,5.584-.193,8.376-.283,3.987-.129,7.973-.306,11.961-.464.133-.006.266-.007.4-.009,1.511-.016,1.626.059,1.637,1.533.019,2.4.1,4.8-.052,7.186-.165,2.611-.111,5.227-.39,7.837-.963,9.02-4.02,17.114-10.072,24.013a90.282,90.282,0,0,1-14.387,13c-6.852,5.064-13.824,9.961-20.978,14.587-8.048,5.2-16,10.541-24.026,15.784a92.8,92.8,0,0,0-8.365,6.139,22.414,22.414,0,0,0-4.479,4.709,11.581,11.581,0,0,0-1.86,4.521,26.767,26.767,0,0,0-.376,6.485c.079,1.06.065,2.128.065,3.192,0,.382.043.812-.386,1.062" transform="translate(7.924 16.549)" fill="#fec295"/>
          <path id="Trazado_827542" data-name="Trazado 827542" d="M125.757,377.173c2.882-3.078,5.987-5.93,8.845-9.035,3.963-4.307,7.715-8.792,11.386-13.352,3.615-4.491,7.454-8.778,11.469-12.912a100.564,100.564,0,0,1,17.183-13.66c3.891-2.559,7.854-5.011,11.544-7.87.679-.526,1.322-1.1,1.973-1.662a9.73,9.73,0,0,0,3.058-5.048,23.3,23.3,0,0,0,.773-5.259q.114-4.236.247-8.471c.07-2.281.092-2.225,2.288-2.322,2.839-.125,5.674-.013,8.512-.014,2.625,0,5.249-.021,7.874-.045l0-.316c-.011-1.474-.125-1.55-1.637-1.533-.133,0-.266,0-.4.009-3.987.157-7.973.335-11.962.464-2.791.09-5.584.071-8.375.283-2.158.164-2.18.11-2.177,2.333q.007,4.126.029,8.252a22.5,22.5,0,0,1-.593,5.142,9.446,9.446,0,0,1-2.848,5.012c-.622.568-1.237,1.146-1.888,1.679-3.539,2.9-7.361,5.412-11.108,8.025a98.73,98.73,0,0,0-16.473,13.84c-3.819,4.149-7.46,8.443-10.873,12.929-3.468,4.554-7.015,9.039-10.779,13.355-2.713,3.113-5.677,5.987-8.415,9.075a14.671,14.671,0,0,0-3.721,12.325,60.379,60.379,0,0,0,5.188,16.443c.158.345.25.777.725.879a.741.741,0,0,0,.2-.171,60.811,60.811,0,0,1-4.233-15.847,15.176,15.176,0,0,1,4.189-12.527" transform="translate(7.924 16.549)" fill="#b9845e" opacity="0.27"/>
          <path id="Trazado_827543" data-name="Trazado 827543" d="M192.629,323.547c-.211,1.036-.425,2.072-.634,3.108-.174.866-.346,1.73-.51,2.6a2.274,2.274,0,0,1-.434,1.093,1.109,1.109,0,0,1-1.954-.172,3.211,3.211,0,0,1-.371-1.395,13.686,13.686,0,0,1,.917-5.708,3.334,3.334,0,0,1,.357-.706,1.356,1.356,0,0,1,1.539-.763,1.409,1.409,0,0,1,1.008,1.4c.015.176,0,.353,0,.529l.079.013" transform="translate(14.732 19.096)" fill="#b9845e" opacity="0.27"/>
          <path id="Trazado_827544" data-name="Trazado 827544" d="M127.233,365.418c2.126,1.517,10.127,9.091,12.183,10.729.047.08.1.161.149.237-4.059,5.134-10.067,10.524-11.483,16.24-.962,3.866,1.443,8.576,1.456,12.926a4.906,4.906,0,0,1-1.844,2.922l-15.818-15.987c.717-1.411,1.8-2.821,2.286-3.641,1.349-2.3,2.619-3.828,2.145-6.55-1.473,1.551-3.067,2.935-4.58,4.464-.9.915-1.771,1.921-2.75,2.8L106,386.547c.317-.529,12.311-16.126,21.23-21.129" transform="translate(6.595 23.412)" fill="#1e1e77"/>
          <path id="Trazado_827545" data-name="Trazado 827545" d="M185.7,307.111c-1.7,0-3.4.013-5.1,0-1.41-.013-1.5-.083-1.778-1.436-.762-3.649-1.38-7.323-1.96-11-1.643-10.433-3.644-20.8-6.114-31.069a81.866,81.866,0,0,1-2.5-20.547,37.957,37.957,0,0,1,3.235-14.322c1.861-4.372,4-8.622,6.045-12.914a2.3,2.3,0,0,1,2.276-1.443c8.312-.394,16.621-.758,24.945-.869,3.038-.041,6.085-.066,9.123-.22,3.572-.181,7.142-.427,10.711-.669,1.238-.083,1.463-.011,1.8,1.239q1.452,5.4,2.826,10.819c3.6,14.239,7.253,28.466,10.762,42.728,2.641,10.728,4.97,21.529,7.34,32.319.388,1.768.319,1.822-1.5,2.1-7.427,1.141-14.884,2.074-22.358,2.844-5.6.577-11.208,1.165-16.84,1.454-4.645.237-9.29.477-13.929.819-2.325.171-4.648.156-6.974.172" transform="translate(12.719 8.374)" fill="#c167a0"/>
          <path id="Trazado_827546" data-name="Trazado 827546" d="M223.273,242.07c1.493,5.137.191,20.216-4.941,31.079-5.3,11.218-15.263,20.419-19.98,22.435a4.714,4.714,0,0,1,1.117-1.712c8.853-11.56,16.075-23.989,20.565-37.872a64.766,64.766,0,0,0,2.9-13.151,1.03,1.03,0,0,1,.339-.779" transform="translate(15.683 11.275)" fill="#9a466e"/>
          <path id="Trazado_827547" data-name="Trazado 827547" d="M185.495,294.3c2.3-2.739,4.525-5.2,6.544-7.812,2.075-2.689,4.1-5.41,6.02-8.212,1.889-2.761,3.778-5.524,5.455-8.418,1.664-2.875,3.266-5.784,4.978-8.827.177,3.623-3.786,13.693-7.22,18.554-4.183,5.92-12.546,13.953-15.777,14.714" transform="translate(14.417 13.14)" fill="#9a466e"/>
          <path id="Trazado_827548" data-name="Trazado 827548" d="M176.587,216.328a1.459,1.459,0,0,0,1.339,1.543l47.087-.666a1.448,1.448,0,0,0,1.287-1.58l-.054-3.3a1.46,1.46,0,0,0-1.339-1.545l-47.087.666a1.451,1.451,0,0,0-1.287,1.582Z" transform="translate(13.536 8.196)" fill="#9a466e" fill-rule="evenodd"/>
          <path id="Trazado_827549" data-name="Trazado 827549" d="M197.974,211.417a.193.193,0,0,0,0,.026l0,0,0,.021.163,5.555c0,.035.008.065.013.1a.983.983,0,0,0-.016.2.84.84,0,0,0,.721.913l7.861-.1a.834.834,0,0,0,.7-.928c0-.009,0-.014,0-.026a.922.922,0,0,0,.02-.223l-.165-5.557a.2.2,0,0,1,0-.043c0-.012,0-.02,0-.027a.84.84,0,0,0-.723-.915l-7.865.1a.785.785,0,0,0-.687.758,1.014,1.014,0,0,0-.01.145m1.6,4.965-.035-1.2,6.378-.082.037,1.2Zm6.259-4.112.032.984-6.381.081-.027-.983Z" transform="translate(15.645 8.16)" fill="#fff" fill-rule="evenodd"/>
          <path id="Trazado_827550" data-name="Trazado 827550" d="M122.647,155.84a9.743,9.743,0,0,1,4.776,1.335,28.568,28.568,0,0,1,6.486,5.428,112.715,112.715,0,0,1,13.886,18.791,118.388,118.388,0,0,0,11.721,16.25,26.141,26.141,0,0,0,9.112,6.751c4.184,1.88,8.384,3.726,12.5,5.764,7.911,3.924,15.892,7.711,23.591,12.048,2.5,1.406,2.083,1.171,1.428,3.448-1.3,4.532-2.71,9.033-4.284,13.48-.129.364-.27.723-.408,1.083a.779.779,0,0,1-1.006.554c-.292-.071-.588-.124-.879-.2a180.812,180.812,0,0,1-36.125-12.587,71.684,71.684,0,0,1-18.5-12.2,94.332,94.332,0,0,1-7.458-8.157,164.26,164.26,0,0,1-16.028-22.808,50.787,50.787,0,0,1-6.26-15.15,17.573,17.573,0,0,1-.391-6.762,8.237,8.237,0,0,1,7.846-7.073" transform="translate(7.443 2.79)" fill="#a4a4e4"/>
          <path id="Trazado_827551" data-name="Trazado 827551" d="M121.5,175.276a33.307,33.307,0,0,1-2.089-12.09c.123-3.157,1.2-5.774,3.985-7.3-.248-.023-.5-.038-.754-.042a8.233,8.233,0,0,0-7.845,7.073,17.545,17.545,0,0,0,.39,6.761,50.763,50.763,0,0,0,6.26,15.15,164.193,164.193,0,0,0,16.028,22.808c1.9,2.28,3.84,4.516,5.917,6.628a220,220,0,0,1-16.889-27.718,83.728,83.728,0,0,1-5-11.266" transform="translate(7.443 2.79)" fill="#a4a4e4"/>
          <path id="Trazado_827552" data-name="Trazado 827552" d="M154.424,203.42a1.437,1.437,0,0,0,.97-.534c1.718-1.589,3.436-3.178,5.134-4.787a25.7,25.7,0,0,1-2.84-2.257,61.775,61.775,0,0,0-3.023,6.207,1.741,1.741,0,0,0-.241,1.371" transform="translate(11.353 6.726)" fill="#cecef4"/>
          <path id="Trazado_827553" data-name="Trazado 827553" d="M100.8,232.624c-4.878,0-9.757.008-14.635-.008-.84,0-1.681-.111-2.521-.149-.6-.027-.9-.305-.856-.919.314-4.469.029-8.954.345-13.426.161-2.3.116-4.606.3-6.909.325-4.109.689-8.216,1.181-12.306.666-5.545,1.4-11.081,2.321-16.591A107.405,107.405,0,0,1,89.3,170.859a38.561,38.561,0,0,1,4.821-10.906,22.823,22.823,0,0,1,12.714-9.564,18.944,18.944,0,0,1,16.8,2.352c2.574,1.739,13.073,8.006,12.29,29.135-.14,3.774-5.73,17.714-6.444,20.916a127.725,127.725,0,0,0-2.256,14.847q-.649,6.348-1.364,12.69c-.22,1.967-.317,2-2.312,2.061-7.58.235-15.16.383-22.743.235" transform="translate(4.31 2.158)" fill="#bcbcea"/>
          <path id="Trazado_827554" data-name="Trazado 827554" d="M109.063,141.2c.557,1.287.124,3.358-.1,4.723a39.1,39.1,0,0,1-3,9.234c4.766.5,9.356,1.986,14.038,3.048,1.2.273,2.41.538,3.615.8l3.677-9.6a9.286,9.286,0,0,0,9.631-4.887c1.813-3.994.6-7.835-.334-12.409-1.021-4.979-1.931-9.96-4.355-12.314-2.923-2.84-8.915-4.494-12.826-4.737-8-.5-11.866,4.123-13.349,10.858a14.521,14.521,0,0,0,.354,7.294c-2.218,1.067-1.062,4.511.2,6.008.637.755,2.057,1.07,2.451,1.979" transform="translate(6.513 -1.227)" fill="#935e45" fill-rule="evenodd"/>
          <path id="Trazado_827555" data-name="Trazado 827555" d="M124.557,150.836c-7.692-2.6-7.873-7.825-7.873-7.825,5.254,3.526,9.476,3.641,9.476,3.641Z" transform="translate(7.646 1.527)" fill="#5d382e" fill-rule="evenodd"/>
          <path id="Trazado_827556" data-name="Trazado 827556" d="M133.326,129.8a1.2,1.2,0,0,1-.806,1.443c-.534.064-1.039-.475-1.128-1.208s.273-1.376.808-1.442,1.036.478,1.126,1.207" transform="translate(9.092 0.108)" fill="#1e1e77" fill-rule="evenodd"/>
          <path id="Trazado_827557" data-name="Trazado 827557" d="M134.6,125.535c0,.432-1.333.785-2.98.789s-2.984-.336-2.985-.767,1.332-.781,2.981-.789,2.984.337,2.984.767" transform="translate(8.822 -0.268)" fill="#1e1e77" fill-rule="evenodd"/>
          <path id="Trazado_827558" data-name="Trazado 827558" d="M125.114,131.086c.092.772-.288,1.458-.851,1.526s-1.1-.5-1.19-1.277a1.257,1.257,0,0,1,.851-1.521c.563-.068,1.1.5,1.19,1.273" transform="translate(8.273 0.228)" fill="#1e1e77" fill-rule="evenodd"/>
          <path id="Trazado_827559" data-name="Trazado 827559" d="M126.693,125.838c.127.434-1.125,1.18-2.794,1.663s-3.13.526-3.259.09,1.13-1.183,2.8-1.67,3.126-.523,3.252-.083" transform="translate(8.035 -0.193)" fill="#1e1e77" fill-rule="evenodd"/>
          <path id="Trazado_827560" data-name="Trazado 827560" d="M128.212,137.806a.612.612,0,0,0,.091-.02,2.377,2.377,0,0,0,1.528-1.153c.556-1.089.059-2.559-.574-4.422a26.525,26.525,0,0,1-1.11-3.985.495.495,0,0,0-.974.17,27.411,27.411,0,0,0,1.149,4.134c.536,1.573,1,2.936.633,3.652a1.471,1.471,0,0,1-.942.66.494.494,0,0,0,.2.963" transform="translate(8.678 0.032)" fill="#5d382e"/>
          <path id="Trazado_827561" data-name="Trazado 827561" d="M129.042,139.856a6.431,6.431,0,0,0,1.632-.44.5.5,0,0,0,.269-.647.494.494,0,0,0-.645-.269c-2.689,1.092-3.782-.414-3.827-.479a.5.5,0,0,0-.686-.125c-.225.155-.178.689.022.909a3.284,3.284,0,0,0,3.235,1.051" transform="translate(8.527 1.016)" fill="#5d382e"/>
          <path id="Trazado_827562" data-name="Trazado 827562" d="M136.533,129.57s-1.134-3.854-2.25-4.064c-3.235-.606-2.979-1.725-4.75-3.458a3.471,3.471,0,0,0-3.194-.823c-1.935.545-.817,2.683-.785,4.421.015,1.239-.389,2.559-1.441,2.8-1.8.415-3.907-2.136-6.1-1.528-2.626.728.933,4.992-1.274,6.228-1.12.4-2.258-.026-3.58.148-1.307.562-1.313,2.373-.992,3.894.587,2.281-1.307,2.552-1.806,1.3-.767-1.783-1.332-4.341-3.33-4.386a2.53,2.53,0,0,0-2.395,2.79c-4.684-.327-7.569-4.161-6.592-7.609,1.016-3.6,2.487-3.659,3.391-5.193,1.364-2.317-1.972-5.038.384-8.156,2.833-3.749,6.575-.437,8.844-1.325,2.553-.991,1.578-3.5,3.181-5.344,2.738-3.154,7.913.043,10.283-.981,1.619-.7,2.487-3.292,3.531-4.126,3.054-2.447,8-.872,10.087.949a8.429,8.429,0,0,1,2.855,5.639c.116,1.566-.552,3.323.256,5.2.662,1.522,2.59,2.089,3.62,3.552,1.868,2.654,1.139,6.4-2.857,6.157,1.094,3.852-1.017,5-5.086,3.912" transform="translate(5.793 -2.419)" fill="#12263f" fill-rule="evenodd"/>
          <path id="Trazado_827563" data-name="Trazado 827563" d="M130.868,133.219c-1.868-.78-2.579-3.246-2.993-5.3a.53.53,0,0,1,.083-.4.548.548,0,0,1,.349-.225c.705-.131,1.424-.247,2.134-.343a31.3,31.3,0,0,1,6.356-.276.539.539,0,0,1,.488.424c.269,1.309.729,4.476-.8,5.625a4.425,4.425,0,0,1-2.006.638,8.988,8.988,0,0,1-3.616-.141M130.591,128c-.513.069-1.027.148-1.538.237.37,1.673.978,3.476,2.241,4a8.393,8.393,0,0,0,3.04.065,3.371,3.371,0,0,0,1.492-.426c.659-.5.835-2.114.469-4.177a30.744,30.744,0,0,0-5.7.3" transform="translate(8.747 -0.087)" fill="#fff"/>
          <path id="Trazado_827564" data-name="Trazado 827564" d="M120.646,135.394c-1.882-.739-2.342-4.075-2.453-5.478a.557.557,0,0,1,.37-.566,32.922,32.922,0,0,1,6.519-1.494c.75-.1,1.513-.183,2.263-.247a.584.584,0,0,1,.421.13.561.561,0,0,1,.2.382c.183,2.2.183,4.9-1.481,6.21a9.4,9.4,0,0,1-3.621,1.149,4.692,4.692,0,0,1-2.22-.087m4.594-6.429a32.316,32.316,0,0,0-5.867,1.29c.233,2.192.885,3.783,1.7,4.1a3.585,3.585,0,0,0,1.637.014,8.744,8.744,0,0,0,3.06-.913c1.125-.886,1.212-2.884,1.1-4.681-.544.052-1.089.115-1.628.188" transform="translate(7.795 0.011)" fill="#fff"/>
          <path id="Trazado_827565" data-name="Trazado 827565" d="M135.13,126.682c.032.335.082.667.145,1-7.475.537-21.771,3.239-27.1,4.258-2.813.527-2.462,1.908-2.462,1.908a3.987,3.987,0,0,0-.6,1.584c-.35-.047-1.527-3.427,1.253-4.1,5.146-.96,20.981-3.953,28.764-4.644" transform="translate(6.454 -0.08)" fill="#fff"/>
          <path id="Trazado_827566" data-name="Trazado 827566" d="M104.258,135.707c.748,1.819,3.671,4.351,5.267,3.7s1.262-4.247.514-6.072a3.152,3.152,0,1,0-5.781,2.376" transform="translate(6.394 0.347)" fill="#935e45" fill-rule="evenodd"/>
          <path id="Trazado_827567" data-name="Trazado 827567" d="M101,154.01a6.878,6.878,0,0,1-1.025-.129c-1.6-.382-2.046-1.57-1.027-2.742a3.592,3.592,0,0,1,.509-.482,28.964,28.964,0,0,1,7.961-4.293,5.805,5.805,0,0,1,4.3.375c1.75.736,14.1,7.509,14.395,7.793a1.274,1.274,0,0,1-.584,2.247c-.462.16-20.25-2.419-24.531-2.77" transform="translate(5.847 1.831)" fill="#fff"/>
          <path id="Trazado_827568" data-name="Trazado 827568" d="M21.206,374.1l10.38,9.372L21.029,397.454,8.661,385.925Z" transform="translate(-2.983 24.266)" fill="#935e45" fill-rule="evenodd"/>
          <path id="Trazado_827569" data-name="Trazado 827569" d="M27,388.247c-8.806-3.628-9.913-11.27-9.913-11.27Z" transform="translate(-2.155 24.55)" fill="#5d382e" fill-rule="evenodd"/>
          <path id="Trazado_827570" data-name="Trazado 827570" d="M27.174,389.994c-.516-.426-2.207-2.079-3.438-2.045-1.274.032-2.1,1.264-3.42,2.587-3.134-3.206-.984-7.242-5.981-10.631A93.067,93.067,0,0,0,3.492,390.451c8.591,8.345,17.826,16.666,26.666,25a11.055,11.055,0,0,0,1.387-3.039c.692-2.879-.223-5.45-1.627-8.015-1.891-3.457-4.32-7.276-3.748-11.007a22.577,22.577,0,0,1,1-3.4" transform="translate(-3.492 24.838)" fill="#fff" fill-rule="evenodd"/>
          <path id="Trazado_827571" data-name="Trazado 827571" d="M20.142,391.334c-.245.712,1.517,1.233,2.565,1.935.613.415,1.849,1.651,2.4,1.255.993-.715-.962-2.467-1.966-3.016-.972-.534-2.638-1.227-3-.175" transform="translate(-1.856 25.909)" fill="#2f2fa7" fill-rule="evenodd"/>
          <path id="Trazado_827572" data-name="Trazado 827572" d="M19.649,394.238c-.121,1.04,1.83,1.5,2.914,2.139.572.337,1.163.767,1.687,1.137.493.354,1.264,1.168,1.6.767.708-.859-.568-2.166-1.6-2.935-1.3-.969-4.42-2.655-4.6-1.107" transform="translate(-1.903 26.187)" fill="#2f2fa7" fill-rule="evenodd"/>
          <path id="Trazado_827573" data-name="Trazado 827573" d="M26.942,399.467c.544,1.037,1.128,2.051,1.666,3.039,1.4,2.565,2.319,5.136,1.628,8.015a11.073,11.073,0,0,1-1.387,3.039c-3.971-3.744-8.024-7.486-12.057-11.229a10.564,10.564,0,0,1,10.15-2.865" transform="translate(-2.183 26.732)" fill="#2f2fa7"/>
          <path id="Trazado_827574" data-name="Trazado 827574" d="M8.818,395.239c-1.793-1.7-3.576-3.4-5.326-5.1,2.284-2.483,4.568-4.924,6.86-7.1a12.141,12.141,0,0,1-1.533,12.193" transform="translate(-3.492 25.147)" fill="#2f2fa7"/>
          <path id="Trazado_827575" data-name="Trazado 827575" d="M88.983,231.892a1.976,1.976,0,0,1,.389,1.31,60.87,60.87,0,0,0,5.1,17.156,149.12,149.12,0,0,1,9.232,27.307,150.553,150.553,0,0,1,3.148,19.148c.645,6.53,1.23,13.058,1.366,19.627q.087,4.256.136,8.51a9.959,9.959,0,0,1-.926,4.111,47.937,47.937,0,0,1-9.855,14.418,281.874,281.874,0,0,1-22.885,21.084c-9.413,7.755-18.838,15.5-28.052,23.49-5.259,4.562-10.4,9.264-15.59,13.9-.562.5-1.136.992-1.715,1.474-.905.755-1,.745-1.819-.18-.47-.531-.922-1.079-1.385-1.616q-4.819-5.6-9.636-11.192c-.834-.97-.826-.981-.186-2.07,3.712-6.318,7.912-12.309,12.185-18.254,4.845-6.741,10.005-13.231,15.375-19.556a122.369,122.369,0,0,1,13.346-13.343c5.232-4.523,10.513-9,15.44-13.865a24.363,24.363,0,0,0,6.621-11.784c1.526-6.2,2.768-12.461,3.864-18.756a218.918,218.918,0,0,1,4.645-21.853,30.584,30.584,0,0,0,.475-14.479c-.224-1.13-.426-2.266-.661-3.394a47.463,47.463,0,0,1-.449-12.853,30.653,30.653,0,0,1,1.263-7.056c.126-.411.11-.891.573-1.286" transform="translate(-2.277 10.273)" fill="#252589"/>
          <path id="Trazado_827576" data-name="Trazado 827576" d="M100.565,314.515c-.175-2.92-.376-5.839-.627-8.753-.392-4.548-.9-9.085-1.483-13.614a125.138,125.138,0,0,0-2.526-14.4,219.388,219.388,0,0,0-8.08-25.61,94.092,94.092,0,0,1-5.131-16.767,3.915,3.915,0,0,0-.186-.637.763.763,0,0,0-.817-.58,31.147,31.147,0,0,0-.937,5.86c-.129,2-.227,3.995-.213,5.988.465,2.989,1.3,5.9,1.967,8.848,1.2,5.279,2.885,10.427,4.469,15.6a155.143,155.143,0,0,1,4.183,17.041c.928,4.974,1.478,10,2.05,15.016.306,2.686.62,5.373.817,8.069q.359,4.907.646,9.819c.3,5.177.732,10.347.693,15.538-.005.79.044,1.574.11,2.357a45.379,45.379,0,0,0,5.38-9.055c.1-1.678.157-3.454.166-5.4-.123-2.412-.276-5.866-.481-9.317" transform="translate(4.092 10.496)" fill="#1e1e77"/>
          <path id="Trazado_827577" data-name="Trazado 827577" d="M74.585,323.385c-.085-1.13-.124-2.1-.234-3.059-.386-3.389-.957-6.754-1.247-10.155-.072-.858-.139-1.717-.244-2.57a23.89,23.89,0,0,1-3.188,5.666c1.282,3.052,2.533,6.117,4,9.085a1.579,1.579,0,0,0,.907,1.034" transform="translate(3.02 17.723)" fill="#1e1e77"/>
          <path id="Trazado_827578" data-name="Trazado 827578" d="M41.221,439.59c.311-11.407,1.8-22.518,6.266-33.062A81.977,81.977,0,0,1,60.556,385.2a101.45,101.45,0,0,1,27.958-22.621c6.191-3.479,12.472-6.785,18.774-10.056a44.483,44.483,0,0,0,8.517-5.43,42.256,42.256,0,0,0,10.461-13.529,104.864,104.864,0,0,0,6.757-18.91c1.721-6.207,3.14-12.494,4.927-18.685a99.726,99.726,0,0,1,12.4-27.163,105.411,105.411,0,0,1,10.55-13.918,63.3,63.3,0,0,1,19.346-14.06,82.593,82.593,0,0,1,25.756-7.5c5.045-.632,10.107-1.029,15.182-1.3,4.724-.248,9.451-.454,14.169-.775a159.363,159.363,0,0,0,29.689-4.643,77.485,77.485,0,0,0,22.664-10.245,145.925,145.925,0,0,0,17.672-13.647,157.313,157.313,0,0,0,18.527-20.244,212.7,212.7,0,0,0,18.842-28.008c3.606-6.474,6.9-13.1,10.093-19.79,4.075-8.543,8.211-17.058,12.237-25.625,3.281-6.981,6.184-14.131,9.275-21.2q5.162-11.805,10.26-23.637c.383-.885.725-1.787,1.124-2.665a8.511,8.511,0,0,1,15.888.3,8.259,8.259,0,0,1-.114,6.039c-.9,2.234-1.854,4.449-2.812,6.661q-7.655,17.672-15.327,35.339c-2.6,5.988-5.444,11.869-8.278,17.752-4.45,9.239-8.784,18.533-13.465,27.66a231.457,231.457,0,0,1-25.17,38.745A176.423,176.423,0,0,1,318.9,213.4a145.1,145.1,0,0,1-31.309,22.7,85.371,85.371,0,0,1-16.867,6.594,160.53,160.53,0,0,1-25.685,4.779c-4.662.507-9.332.83-14.016,1.051-6.562.309-13.123.66-19.664,1.3a70.559,70.559,0,0,0-19.656,4.541c-6.737,2.714-12.9,6.323-17.927,11.669a89.806,89.806,0,0,0-9.5,12.566c-5.691,8.7-9.18,18.285-11.658,28.307-1.84,7.444-3.7,14.889-6.162,22.157a81.812,81.812,0,0,1-7.377,16.536,56.587,56.587,0,0,1-22.668,21.365c-7.052,3.63-14.076,7.314-20.962,11.256a82.778,82.778,0,0,0-19.57,15.38A61.932,61.932,0,0,0,59.156,428.32c-.482,3.609-.67,7.238-.95,10.861-.231,2.977-.751,5.908-1.2,8.851-.125.823-.246,1.648-.4,2.464a7.523,7.523,0,0,1-14.84-.353,28.866,28.866,0,0,1-.278-3.4c-.054-2.409-.172-4.815-.261-7.149" transform="translate(0.221 -7.013)" fill="#fff"/>
          <path id="Trazado_827579" data-name="Trazado 827579" d="M327.167,73.019l44.741-20.337,13.682,41.968Z" transform="translate(28.358 -7.361)" fill="#fff" fill-rule="evenodd"/>
          <path id="Trazado_827580" data-name="Trazado 827580" d="M352.424,121.211a3.7,3.7,0,0,1,2.057-1.839,5.825,5.825,0,0,1-1.945-4.969c.085-.634.473-1.1.525-1.641a6.536,6.536,0,0,0-2.866-.733c-.761-.118-2.557-.277-2.748-.972-.252-.917,1.218-1.593,1.856-1.746a7.416,7.416,0,0,1,4.156.332c.278.081.8.313.9.027.121-.356-.917-.63-1.45-.775s-1.181-.323-1.778-.431c-.946-.171-3.143-.148-3.229-1.206-.066-.8,1.476-1.378,2.189-1.494a9.728,9.728,0,0,1,4.574.65c.424.15,1.212.547,1.318.344.192-.364-2.04-1.206-3.5-1.543-.751-.174-3.608-.354-3.69-1.293-.041-.468.681-.978,1.265-1.145a9.588,9.588,0,0,1,5.768.638c.69.289,1.933,1.168,2.142.905.249-.314-1.586-2.395-2.691-3.3-.448-.367-1-.7-1.658-1.2-.464-.353-1.449-.933-1.287-1.77.1-.535,1.275-.733,1.712-.606,4.707,1.353,8.148,5.566,9.275,11.6a30.383,30.383,0,0,1-.622,12.494q-.115.524-.236,1.037Z" transform="translate(30.351 -2.959)" fill="#bb8774" fill-rule="evenodd"/>
          <path id="Trazado_827581" data-name="Trazado 827581" d="M348.173,108.7c-.443.331-.915.639-.8,1.183.166.813,1.728.877,2.759,1.047a8.326,8.326,0,0,1,2.876.805,8.169,8.169,0,0,0-.383,1.025,5.705,5.705,0,0,0,1.867,5.5,13.85,13.85,0,0,1-1.016-3.077,7.975,7.975,0,0,1,.563-4.114c-1.158-.127-5.357-.243-5.862-2.371" transform="translate(30.345 -1.849)" fill="#935e45" fill-rule="evenodd"/>
          <path id="Trazado_827582" data-name="Trazado 827582" d="M354.18,97.374c-1.366-.583-3.078-.189-2.143,1.384a8.223,8.223,0,0,0,2.084,1.586,15.644,15.644,0,0,1,2.314,1.982,7.827,7.827,0,0,0-1.966-2.178c-.961-.856-2.621-2.381-.289-2.773" transform="translate(30.779 -2.989)" fill="#935e45" fill-rule="evenodd"/>
          <path id="Trazado_827583" data-name="Trazado 827583" d="M349.817,102.732c-.191-.342-.03-.531.248-.723-1.035.211-1.932,1.1-1.24,1.679a6.2,6.2,0,0,0,2.709.679,17.248,17.248,0,0,1,3.072.817c-1.126-.779-3.978-1-4.789-2.453" transform="translate(30.465 -2.507)" fill="#935e45" fill-rule="evenodd"/>
          <path id="Trazado_827584" data-name="Trazado 827584" d="M348.766,105.153c-.3.118-1.132.61-.9,1.216.309.8,1.939.97,3.089,1.141a10.124,10.124,0,0,1,3.225.834c-.429-.9-4.019-1.086-5.383-2.409a.559.559,0,0,1-.031-.782" transform="translate(30.391 -2.198)" fill="#935e45" fill-rule="evenodd"/>
          <path id="Trazado_827585" data-name="Trazado 827585" d="M151.224,264.669a4.479,4.479,0,0,0,3.585-3.26,3.272,3.272,0,0,0,2.409-3.045c.224.1.54-.157.658-.323.788-1.012,1.6-1.795.853-3.373-.611-1.291-4.443-3.708-5.427-2.066a1,1,0,0,0,.244,1.262c-1.043-.589-3.415.13-2.218,2.21a2.254,2.254,0,0,0-1.5-.444c-1.661.252-1.751,2.114-.751,3.68a3.479,3.479,0,0,0-.811.706c-1.1,1.382-2.279,5.278-1.206,7.632.613,1.346,2.469,2.4,3.6.678.605-.918.467-2.539.562-3.657" transform="translate(10.594 12.257)" fill="#ffc295" fill-rule="evenodd"/>
          <path id="Trazado_827586" data-name="Trazado 827586" d="M149.308,268.512c-2.295-2.542-2.045-7.17-.951-9.3a8.309,8.309,0,0,0-1.458,7.3c.46,1.332,1.243,2.106,2.409,2" transform="translate(10.588 12.962)" fill="#bb78a2" fill-rule="evenodd"/>
          <path id="Trazado_827587" data-name="Trazado 827587" d="M151.069,264.349c.807-.6,1.039-2.157.272-3.941-.639-1.488-2.33-2.672-2.487-3.852-.1-.763.456-1.07.942-1.258-2.142.208-1.785,2.254-.873,3.692a.855.855,0,0,1,.633.238c1.192,1.176,1.3,3.569,1.512,5.121" transform="translate(10.748 12.576)" fill="#bb78a2" fill-rule="evenodd"/>
          <path id="Trazado_827588" data-name="Trazado 827588" d="M154.422,261.267c1.636-2.426-2.207-4.5-2.571-6.324a1.109,1.109,0,0,1,1.308-1.221c-1.677-.805-3.17.583-2.363,2.067a14.408,14.408,0,0,0,1.657,1.734,7.336,7.336,0,0,1,1.968,3.743" transform="translate(10.981 12.398)" fill="#bb78a2" fill-rule="evenodd"/>
          <path id="Trazado_827589" data-name="Trazado 827589" d="M156.638,258.366c.853-2.069-2.653-4.073-2.846-5.17a.935.935,0,0,1,.691-1.061c-1.068-.451-2.749.54-1.517,1.73,1.375,1.091,2.918,2.132,3.672,4.5" transform="translate(11.174 12.254)" fill="#bb78a2" fill-rule="evenodd"/>
          <path id="Trazado_827590" data-name="Trazado 827590" d="M199.553,234.428a4.478,4.478,0,0,0,4.844-.15,3.272,3.272,0,0,0,3.808-.75c.105.222.513.231.711.18,1.255-.257,2.38-.325,2.839-2.01.373-1.377-.97-5.7-2.784-5.1a1.006,1.006,0,0,0-.635,1.118c-.411-1.125-2.68-2.119-3.121.241a2.259,2.259,0,0,0-.852-1.31c-1.426-.887-2.7.47-2.96,2.309a3.478,3.478,0,0,0-1.075.012c-1.737.333-5.161,2.533-5.873,5.019-.409,1.421.321,3.426,2.3,2.854,1.057-.305,2-1.629,2.8-2.415" transform="translate(15.288 9.73)" fill="#935e45" fill-rule="evenodd"/>
          <path id="Trazado_827591" data-name="Trazado 827591" d="M195.142,236.408c-.093-3.424,3.1-6.78,5.315-7.689a8.307,8.307,0,0,0-5.847,4.6c-.515,1.313-.423,2.409.532,3.087" transform="translate(15.284 9.961)" fill="#5d382e" fill-rule="evenodd"/>
          <path id="Trazado_827592" data-name="Trazado 827592" d="M199.086,234.433c1.005.066,2.191-.965,2.766-2.82.481-1.548-.034-3.546.612-4.544a1.161,1.161,0,0,1,1.533-.345c-1.763-1.232-2.821.555-3.061,2.24a.856.856,0,0,1,.326.593c.143,1.668-1.328,3.56-2.176,4.876" transform="translate(15.755 9.725)" fill="#5d382e" fill-rule="evenodd"/>
          <path id="Trazado_827593" data-name="Trazado 827593" d="M203.5,234.268c2.82-.783,1.241-4.852,2.151-6.478a1.109,1.109,0,0,1,1.788-.079c-.751-1.7-2.788-1.615-3.138.037a14.514,14.514,0,0,0,.134,2.4,7.34,7.34,0,0,1-.935,4.125" transform="translate(16.189 9.74)" fill="#5d382e" fill-rule="evenodd"/>
          <path id="Trazado_827594" data-name="Trazado 827594" d="M206.963,233.513c1.992-1.019.628-4.82,1.194-5.78a.934.934,0,0,1,1.214-.358c-.518-1.037-2.442-1.375-2.277.331.338,1.722.835,3.516-.131,5.807" transform="translate(16.53 9.744)" fill="#5d382e" fill-rule="evenodd"/>
          <path id="Trazado_827595" data-name="Trazado 827595" d="M300.079,195.526a4.479,4.479,0,0,0,3.585-3.26,3.272,3.272,0,0,0,2.409-3.045c.224.1.54-.158.658-.324.788-1.011,1.6-1.794.853-3.372-.611-1.291-4.443-3.708-5.427-2.066a1,1,0,0,0,.244,1.262c-1.044-.589-3.415.13-2.218,2.21a2.254,2.254,0,0,0-1.5-.444c-1.661.252-1.751,2.114-.751,3.68a3.456,3.456,0,0,0-.811.706c-1.1,1.382-2.279,5.278-1.206,7.631.613,1.347,2.469,2.4,3.6.678.605-.918.467-2.538.562-3.655" transform="translate(25.241 5.453)" fill="#ffc295" fill-rule="evenodd"/>
          <path id="Trazado_827596" data-name="Trazado 827596" d="M298.163,199.37c-2.295-2.542-2.045-7.17-.951-9.3a8.309,8.309,0,0,0-1.458,7.3c.46,1.332,1.243,2.106,2.409,2" transform="translate(25.236 6.158)" fill="#bb78a2" fill-rule="evenodd"/>
          <path id="Trazado_827597" data-name="Trazado 827597" d="M299.924,195.206c.807-.6,1.039-2.157.272-3.941-.639-1.488-2.33-2.672-2.487-3.852-.1-.763.456-1.07.942-1.258-2.142.208-1.785,2.254-.873,3.692a.855.855,0,0,1,.633.238c1.192,1.176,1.3,3.569,1.513,5.121" transform="translate(25.396 5.773)" fill="#bb78a2" fill-rule="evenodd"/>
          <path id="Trazado_827598" data-name="Trazado 827598" d="M303.277,192.124c1.635-2.426-2.207-4.5-2.571-6.324a1.109,1.109,0,0,1,1.308-1.221c-1.677-.805-3.17.583-2.363,2.067a14.4,14.4,0,0,0,1.658,1.734,7.336,7.336,0,0,1,1.968,3.743" transform="translate(25.628 5.594)" fill="#bb78a2" fill-rule="evenodd"/>
          <path id="Trazado_827599" data-name="Trazado 827599" d="M305.493,189.224c.853-2.069-2.653-4.073-2.846-5.17a.936.936,0,0,1,.691-1.061c-1.068-.451-2.75.54-1.517,1.73,1.375,1.091,2.918,2.132,3.672,4.5" transform="translate(25.821 5.451)" fill="#bb78a2" fill-rule="evenodd"/>
          <path id="Trazado_827600" data-name="Trazado 827600" d="M91.872,399.353l13.983-.273,1.877,17.424-16.908.062Z" transform="translate(5.102 26.725)" fill="#935e45" fill-rule="evenodd"/>
          <path id="Trazado_827601" data-name="Trazado 827601" d="M106.364,405.731c-6.8,3.391-14.891-.166-14.891-.166Z" transform="translate(5.165 27.363)" fill="#5d382e" fill-rule="evenodd"/>
          <path id="Trazado_827602" data-name="Trazado 827602" d="M107.185,406.859c-.668.043-3.033-.005-3.906.862-.907.9-.665,2.357-.724,4.227-4.479-.192-5.674-4.606-11.636-3.657a93.048,93.048,0,0,0-.684,15.111c11.975.2,24.4-.052,36.555-.025a11.075,11.075,0,0,0-1.07-3.166c-1.466-2.571-3.893-3.82-6.673-4.729-3.743-1.225-8.129-2.347-10.266-5.458a22.706,22.706,0,0,1-1.6-3.166" transform="translate(5.042 27.49)" fill="#fff" fill-rule="evenodd"/>
          <path id="Trazado_827603" data-name="Trazado 827603" d="M103.594,412.009c.309.686,1.951-.139,3.2-.345.73-.116,2.478-.061,2.611-.729.235-1.2-2.391-1.14-3.5-.853-1.074.277-2.762.912-2.308,1.928" transform="translate(6.351 27.79)" fill="#2f2fa7" fill-rule="evenodd"/>
          <path id="Trazado_827604" data-name="Trazado 827604" d="M105.226,414.483c.623.84,2.358-.16,3.587-.436.648-.145,1.373-.236,2.008-.326.6-.079,1.72-.013,1.688-.534-.071-1.111-1.9-1.191-3.175-1.043-1.615.187-5.038,1.091-4.108,2.34" transform="translate(6.503 28.005)" fill="#2f2fa7" fill-rule="evenodd"/>
          <path id="Trazado_827605" data-name="Trazado 827605" d="M113.951,413.731c1.106.383,2.225.723,3.3,1.075,2.779.908,5.206,2.157,6.673,4.729a11.03,11.03,0,0,1,1.069,3.166c-5.457-.012-10.973.034-16.475.067a10.561,10.561,0,0,1,5.438-9.037" transform="translate(6.842 28.167)" fill="#2f2fa7"/>
          <path id="Trazado_827606" data-name="Trazado 827606" d="M97.606,422.874c-2.469-.011-4.933-.029-7.371-.07-.036-3.374-.042-6.717.143-9.868a12.14,12.14,0,0,1,7.229,9.938" transform="translate(5.042 28.088)" fill="#2f2fa7"/>
          <path id="Trazado_827607" data-name="Trazado 827607" d="M132.521,307.072a148.635,148.635,0,0,1-2.264,27.311c-1.063,6.566-2.068,13.14-3.416,19.656-1.778,8.6-3.8,17.144-5.713,25.712-1.875,8.4-3.59,16.825-5.344,25.248-1.175,5.644-2.3,11.3-3.441,16.947-.3,1.477-.3,1.439-1.806,1.529-4.387.263-8.777.312-13.167.181-3.057-.091-6.11-.3-9.164-.462-1.145-.061-1.3-.186-1.264-1.368.07-2.481.178-4.963.309-7.442.108-2.035.291-4.067.406-6.1.248-4.382.669-8.75,1.015-13.124.322-4.066.707-8.125,1.119-12.182.6-5.956,1.316-11.9,2.251-17.809.756-4.775,1.331-9.573,1.977-14.361.663-4.923,1.512-9.815,2.3-14.717.77-4.771,1.679-9.521,2.19-14.33a86.507,86.507,0,0,0,.192-16.195c-.632-7.792-2.062-15.465-3.168-23.186a99.373,99.373,0,0,0-2.175-11.5,69.463,69.463,0,0,0-6.7-15.893,64.05,64.05,0,0,1-4.332-8.683,29.45,29.45,0,0,1-.378-18.944c.186-.639.359-1.281.548-1.919.448-1.5.487-1.55,2.016-1.508,1.994.055,3.986.189,5.98.208,3.815.036,7.631.019,11.445.018q11.446,0,22.891-.005c1.817,0,1.957.112,2.084,1.922.284,4.067.518,8.139.828,12.2.277,3.625.626,7.243.947,10.863q.451,5.1.911,10.2c.293,3.223.607,6.443.893,9.667.243,2.737.477,5.475.683,8.216.253,3.36.471,6.721.71,10.082.142,1.99.2,3.987.276,5.979.17,4.7.5,9.391.362,13.785" transform="translate(4.093 9.489)" fill="#2f2fa7"/>
          <path id="Trazado_827608" data-name="Trazado 827608" d="M120.551,229.791a1.511,1.511,0,0,1,.536,1.631,81.136,81.136,0,0,1-1.106,10.248,5.558,5.558,0,0,1-2.634,3.763,14.182,14.182,0,0,1-6.206,2.081c-.338.035-.723-.008-.861-.405a.732.732,0,0,1,.248-.739c4.408-4.622,7.126-10.25,9.566-16.045a2.634,2.634,0,0,1,.457-.534" transform="translate(7.013 10.067)" fill="#1e1e77"/>
          <path id="Trazado_827609" data-name="Trazado 827609" d="M117.814,320.532a7.427,7.427,0,0,1,1.467-4.429c.081-.1.153-.217.242-.315.2-.224.379-.555.733-.473.389.09.324.476.353.77.172,1.756.323,3.514.509,5.268.134,1.272.312,2.54.466,3.808.037.305.115.651-.159.869-.347.273-.677.038-.964-.159a5.9,5.9,0,0,1-2.645-5.338" transform="translate(7.757 18.481)" fill="#1e1e77"/>
          <path id="Trazado_827610" data-name="Trazado 827610" d="M81.523,226.824a1.51,1.51,0,0,0,1.552,1.464l43.012.131a1.509,1.509,0,0,0,1.559-1.456l.008-3.084a1.509,1.509,0,0,0-1.551-1.466l-43.012-.13a1.511,1.511,0,0,0-1.56,1.458Z" transform="translate(4.186 9.328)" fill="#af5091" fill-rule="evenodd"/>
          <path id="Trazado_827611" data-name="Trazado 827611" d="M120,228.184a.933.933,0,1,0,1.866-.029l-.081-5.623a.933.933,0,1,0-1.866.029Z" transform="translate(7.965 9.262)" fill="#fff" fill-rule="evenodd"/>
          <path id="Trazado_827612" data-name="Trazado 827612" d="M109.492,228.292a.933.933,0,1,0,1.866-.025l-.082-5.625a.933.933,0,0,0-1.865.026Z" transform="translate(6.931 9.273)" fill="#fff" fill-rule="evenodd"/>
          <path id="Trazado_827613" data-name="Trazado 827613" d="M112.356,222.438c0,.008,0,.016,0,.026l0,0,0,.019.07,5.191a.788.788,0,0,0,.014.093.761.761,0,0,0-.023.189.851.851,0,0,0,.834.864l5.068.024a.851.851,0,0,0,.847-.856.21.21,0,0,0,0-.023.661.661,0,0,0,.027-.209l-.074-5.2a.151.151,0,0,1,0-.04.231.231,0,0,0,0-.026.852.852,0,0,0-.837-.866l-5.072-.025a.842.842,0,0,0-.829.694.62.62,0,0,0-.014.137m1.785,4.665-.018-1.126,3.312.019.016,1.125Zm3.257-3.751.014.919-3.312-.015-.011-.92Z" transform="translate(7.22 9.261)" fill="#fff" fill-rule="evenodd"/>
          <path id="Trazado_827614" data-name="Trazado 827614" d="M179.351,243.145c-.683-1.047-.818-2.261-1.517-3.3a19.948,19.948,0,0,1-7.8-4.12l5.873-11.237.007-.011.221.118c2.295.99,5.707.292,7.957-.6.987-.389,2.143-1.443,3.1-.845,1.007.631.622,2.5-.345,3.871a7.962,7.962,0,0,1-2.575,1.9,52.225,52.225,0,0,1,4.739,2.523c1.934,1.142,6.232,2.814,5.176,4.626-1.1,1.893-6.055-1.135-7.666-1.119.946,1.08,1.934,2.21,2.924,3.582.8,1.11,2.245,2.875,1.436,4.041-1.28,1.844-4.455-1.755-5.53-2.79.331,1.7,1.2,7.489-.513,7.99-1.275.376-1.909-1.666-2.535-1.973-.192,1.1-.427,3.666-1.812,3.4-2-.383-1.223-4.99-1.137-6.063" transform="translate(12.896 9.395)" fill="#935e45"/>
          <path id="Trazado_827615" data-name="Trazado 827615" d="M179.357,243.01a8.342,8.342,0,0,1-1.517-3.3,12.371,12.371,0,0,1-3.173-1.065,16.837,16.837,0,0,1-4.693-2.932l5.938-11.36a.3.3,0,0,1,.105.043c-.154,3.446-3.246,8.865-5.522,11.248a24.345,24.345,0,0,0,3.775,1.7c1.219.46,2.76.532,3.6,1.139a7.278,7.278,0,0,1,1.24,2.063,8.109,8.109,0,0,1,1.053,2.12c.079.819-.852,2.426-.378,6-1.327-1.566-.6-3.9-.432-5.651" transform="translate(12.89 9.531)" fill="#5d382e"/>
          <path id="Trazado_827616" data-name="Trazado 827616" d="M179.781,227.279c2.821.571,5.4.035,6.966-3.494.357.952-.263,2.352-.926,3.278a5.8,5.8,0,0,1-2.51,1.784c-1.1-.713-2.747-.788-3.53-1.567" transform="translate(13.855 9.476)" fill="#5d382e"/>
          <path id="Trazado_827617" data-name="Trazado 827617" d="M181.361,230.929c2.248.535,4.992,2.359,7.361,3.453a19.433,19.433,0,0,0,3.829,1.376c-.783.7-5.328-.4-7.269-1.65a16.273,16.273,0,0,0-3.921-3.18" transform="translate(14.011 10.179)" fill="#5d382e"/>
          <path id="Trazado_827618" data-name="Trazado 827618" d="M184.216,238.775s-.682-2.078-1.151-3.108a9.211,9.211,0,0,0-1.541-2.379c3.94,2.427,3.085,6.5,7.58,8.754-1.057.36-2.169-.714-2.851-1.247a11.483,11.483,0,0,1-2.036-2.02" transform="translate(14.027 10.411)" fill="#5d382e"/>
          <path id="Trazado_827619" data-name="Trazado 827619" d="M179.7,236.716c4.161,2.234,1.65,7.739,4.185,9.712-1.374.343-2.212-1.131-2.6-1.852a8.9,8.9,0,0,0-1.585-7.86" transform="translate(13.847 10.748)" fill="#5d382e"/>
          <path id="Trazado_827620" data-name="Trazado 827620" d="M101.068,155.389a10.08,10.08,0,0,1,4.883,1.574,29.579,29.579,0,0,1,6.484,5.875,116.635,116.635,0,0,1,13.592,19.994,122.73,122.73,0,0,0,11.456,17.277,27.066,27.066,0,0,0,9.146,7.349c4.249,2.116,8.517,4.193,12.684,6.468,8.019,4.377,16.116,8.618,23.9,13.416,2.524,1.555,2.1,1.3,1.336,3.623-1.532,4.632-3.169,9.229-4.977,13.762-.148.37-.309.736-.466,1.1a.806.806,0,0,1-1.063.532c-.3-.086-.6-.153-.9-.237a187.138,187.138,0,0,1-36.836-14.484,74.165,74.165,0,0,1-18.633-13.366,97.451,97.451,0,0,1-7.379-8.736,169.979,169.979,0,0,1-15.642-24.233A52.525,52.525,0,0,1,92.8,169.388a18.164,18.164,0,0,1-.129-7.007,8.521,8.521,0,0,1,8.4-6.992" transform="translate(5.254 2.745)" fill="#cecef4"/>
          <path id="Trazado_827621" data-name="Trazado 827621" d="M99.1,175.436a34.452,34.452,0,0,1-1.667-12.584c.256-3.259,1.47-5.921,4.417-7.389-.256-.033-.514-.06-.778-.074a8.521,8.521,0,0,0-8.4,6.992,18.186,18.186,0,0,0,.129,7.007,52.538,52.538,0,0,0,5.856,15.918A169.942,169.942,0,0,0,114.3,209.539c1.869,2.433,3.786,4.824,5.847,7.091a227.5,227.5,0,0,1-16.332-29.343A86.523,86.523,0,0,1,99.1,175.436" transform="translate(5.254 2.745)" fill="#a4a4e4"/>
          <path id="Trazado_827622" data-name="Trazado 827622" d="M131.977,205.89a1.487,1.487,0,0,0,1.025-.513c1.84-1.573,3.681-3.145,5.5-4.74a26.7,26.7,0,0,1-2.845-2.448,63.653,63.653,0,0,0-3.377,6.294,1.8,1.8,0,0,0-.305,1.407" transform="translate(9.146 6.957)" fill="#a4a4e4"/>
        </g>
      </g>
    </g>
  </g>
</svg>
