<svg xmlns="http://www.w3.org/2000/svg" width="102" height="102" viewBox="0 0 102 102">
  <g id="Grupo_1074630" data-name="Grupo 1074630" transform="translate(-314 -3894)">
    <rect id="Rectángulo_383457" data-name="Rectángulo 383457" width="102" height="102" rx="14" transform="translate(314 3894)" fill="#3ee2a8"/>
    <g id="algoritmo-_" data-name="algoritmo-&apos;" transform="translate(321 3913)">
      <path id="Trazado_827893" data-name="Trazado 827893" d="M118.257,73.3H50.788a2.409,2.409,0,0,1-2.409-2.409V27.257a2.409,2.409,0,0,1,2.409-2.409h67.469a2.409,2.409,0,0,1,2.409,2.409V70.894A2.409,2.409,0,0,1,118.257,73.3Zm0,0" transform="translate(-40.054 -20.572)" fill="#bce8f1"/>
      <path id="Trazado_827894" data-name="Trazado 827894" d="M118.457,24.848h-9.943v38.1a2.21,2.21,0,0,1-2.21,2.21H48.379v5.932a2.209,2.209,0,0,0,2.21,2.21h67.869a2.209,2.209,0,0,0,2.21-2.21V27.057A2.21,2.21,0,0,0,118.457,24.848Zm0,0" transform="translate(-40.054 -20.572)" fill="#95dae8"/>
      <path id="Trazado_827895" data-name="Trazado 827895" d="M120.667,35.236v-8a2.384,2.384,0,0,0-2.384-2.384H50.763a2.384,2.384,0,0,0-2.384,2.384v8Zm0,0" transform="translate(-40.054 -20.572)" fill="#f0feff"/>
      <path id="Trazado_827896" data-name="Trazado 827896" d="M407.594,24.848h-9.77V35.236h12.153v-8A2.384,2.384,0,0,0,407.594,24.848Zm0,0" transform="translate(-329.365 -20.572)" fill="#def4f8"/>
      <path id="Trazado_827897" data-name="Trazado 827897" d="M109.236,61.875H30.949v-49.4A5.051,5.051,0,0,1,36,7.422h68.184a5.051,5.051,0,0,1,5.05,5.05v49.4Zm-70.71-8.366h63.134a1.578,1.578,0,0,0,1.578-1.578V15a1.578,1.578,0,0,0-1.578-1.578H38.526A1.578,1.578,0,0,0,36.947,15V51.931A1.578,1.578,0,0,0,38.526,53.509Zm0,0" transform="translate(-25.623 -6.145)" fill="#607882"/>
      <path id="Trazado_827898" data-name="Trazado 827898" d="M105.186,8V55.163a1.21,1.21,0,0,1-1.21,1.21H30.949v5.981h78.286v-49.4A5.052,5.052,0,0,0,105.186,8Zm0,0" transform="translate(-25.623 -6.623)" fill="#495959"/>
      <path id="Trazado_827899" data-name="Trazado 827899" d="M85.747,318.191h-71.1a7.228,7.228,0,0,1-7.228-7.228v-.891a.829.829,0,0,1,.83-.829H92.145a.83.83,0,0,1,.83.829v.891A7.228,7.228,0,0,1,85.747,318.191Zm0,0" transform="translate(-6.145 -256.026)" fill="#607882"/>
      <path id="Trazado_827900" data-name="Trazado 827900" d="M100.429,309.242H92.7a7.152,7.152,0,0,1-7.117,6.446H17.418a7.131,7.131,0,0,0,5.431,2.5H94.1a7.151,7.151,0,0,0,7.152-7.152v-.976A.821.821,0,0,0,100.429,309.242Zm0,0" transform="translate(-14.421 -256.026)" fill="#495959"/>
      <g id="Grupo_1074628" data-name="Grupo 1074628" transform="translate(21.035 18.178)">
        <path id="Trazado_827901" data-name="Trazado 827901" d="M123.724,107.746h-1.065c-.272,0-.421-.1-.421-.438,0-.305.165-.388.594-.471l.305-.066c.916-.2.661-1.139,1.362-1.139.264,0,.479.116.479.561v4.689c0,.429-.165.726-.627.726s-.627-.3-.627-.726Zm0,0" transform="translate(-122.238 -105.633)" fill="#607882"/>
        <path id="Trazado_827902" data-name="Trazado 827902" d="M155.86,105.633c1.337,0,2.2.966,2.2,2.914,0,1.461-.462,3.062-2.2,3.062s-2.2-1.6-2.2-3.062C153.656,106.6,154.523,105.633,155.86,105.633Zm0,4.986c.635,0,1-.52,1-2,0-1.238-.272-2-1-2s-1,.76-1,2C154.862,110.1,155.225,110.619,155.86,110.619Zm0,0" transform="translate(-148.25 -105.633)" fill="#607882"/>
        <path id="Trazado_827903" data-name="Trazado 827903" d="M194.809,105.633c1.338,0,2.2.966,2.2,2.914,0,1.461-.462,3.062-2.2,3.062s-2.2-1.6-2.2-3.062C192.605,106.6,193.472,105.633,194.809,105.633Zm0,4.986c.636,0,1-.52,1-2,0-1.238-.272-2-1-2s-1,.76-1,2C193.811,110.1,194.174,110.619,194.809,110.619Zm0,0" transform="translate(-180.496 -105.633)" fill="#607882"/>
        <path id="Trazado_827904" data-name="Trazado 827904" d="M230.739,107.746h-1.065c-.273,0-.421-.1-.421-.438,0-.305.165-.388.594-.471l.306-.066c.916-.2.66-1.139,1.362-1.139.264,0,.479.116.479.561v4.689c0,.429-.165.726-.627.726s-.627-.3-.627-.726Zm0,0" transform="translate(-210.838 -105.633)" fill="#607882"/>
        <path id="Trazado_827905" data-name="Trazado 827905" d="M262.875,105.633c1.337,0,2.2.966,2.2,2.914,0,1.461-.462,3.062-2.2,3.062s-2.2-1.6-2.2-3.062C260.672,106.6,261.538,105.633,262.875,105.633Zm0,4.986c.636,0,1-.52,1-2,0-1.238-.272-2-1-2s-1,.76-1,2C261.876,110.1,262.239,110.619,262.875,110.619Zm0,0" transform="translate(-236.85 -105.633)" fill="#607882"/>
        <path id="Trazado_827906" data-name="Trazado 827906" d="M298.8,107.746h-1.065c-.272,0-.421-.1-.421-.438,0-.305.165-.388.594-.471l.306-.066c.916-.2.66-1.139,1.362-1.139.264,0,.479.116.479.561v4.689c0,.429-.165.726-.628.726s-.627-.3-.627-.726Zm0,0" transform="translate(-267.188 -105.633)" fill="#607882"/>
        <path id="Trazado_827907" data-name="Trazado 827907" d="M330.939,105.633c1.337,0,2.2.966,2.2,2.914,0,1.461-.462,3.062-2.2,3.062s-2.2-1.6-2.2-3.062C328.734,106.6,329.6,105.633,330.939,105.633Zm0,4.986c.635,0,1-.52,1-2,0-1.238-.273-2-1-2s-1,.76-1,2C329.94,110.1,330.3,110.619,330.939,110.619Zm0,0" transform="translate(-293.2 -105.633)" fill="#607882"/>
        <path id="Trazado_827908" data-name="Trazado 827908" d="M369.887,105.633c1.338,0,2.2.966,2.2,2.914,0,1.461-.462,3.062-2.2,3.062s-2.2-1.6-2.2-3.062C367.684,106.6,368.55,105.633,369.887,105.633Zm0,4.986c.636,0,1-.52,1-2,0-1.238-.272-2-1-2s-1,.76-1,2C368.889,110.1,369.252,110.619,369.887,110.619Zm0,0" transform="translate(-325.446 -105.633)" fill="#607882"/>
        <path id="Trazado_827909" data-name="Trazado 827909" d="M126.743,158.246c1.337,0,2.2.966,2.2,2.913,0,1.461-.462,3.063-2.2,3.063s-2.2-1.6-2.2-3.063C124.539,159.212,125.406,158.246,126.743,158.246Zm0,4.986c.635,0,1-.52,1-2,0-1.238-.273-2-1-2s-1,.76-1,2C125.744,162.712,126.107,163.232,126.743,163.232Zm0,0" transform="translate(-124.143 -149.192)" fill="#607882"/>
        <path id="Trazado_827910" data-name="Trazado 827910" d="M162.673,160.359h-1.065c-.272,0-.421-.1-.421-.437,0-.306.165-.389.594-.471l.305-.067c.916-.2.661-1.139,1.362-1.139.264,0,.479.116.479.561V163.5c0,.429-.165.726-.627.726s-.627-.3-.627-.726Zm0,0" transform="translate(-154.485 -149.192)" fill="#607882"/>
        <path id="Trazado_827911" data-name="Trazado 827911" d="M194.809,158.246c1.338,0,2.2.966,2.2,2.913,0,1.461-.462,3.063-2.2,3.063s-2.2-1.6-2.2-3.063C192.605,159.212,193.472,158.246,194.809,158.246Zm0,4.986c.636,0,1-.52,1-2,0-1.238-.272-2-1-2s-1,.76-1,2C193.811,162.712,194.174,163.232,194.809,163.232Zm0,0" transform="translate(-180.496 -149.192)" fill="#607882"/>
        <path id="Trazado_827912" data-name="Trazado 827912" d="M230.739,160.359h-1.065c-.273,0-.421-.1-.421-.437,0-.306.165-.389.594-.471l.306-.067c.916-.2.66-1.139,1.362-1.139.264,0,.479.116.479.561V163.5c0,.429-.165.726-.627.726s-.627-.3-.627-.726Zm0,0" transform="translate(-210.838 -149.192)" fill="#607882"/>
        <path id="Trazado_827913" data-name="Trazado 827913" d="M262.875,158.246c1.337,0,2.2.966,2.2,2.913,0,1.461-.462,3.063-2.2,3.063s-2.2-1.6-2.2-3.063C260.672,159.212,261.538,158.246,262.875,158.246Zm0,4.986c.636,0,1-.52,1-2,0-1.238-.272-2-1-2s-1,.76-1,2C261.876,162.712,262.239,163.232,262.875,163.232Zm0,0" transform="translate(-236.85 -149.192)" fill="#607882"/>
        <path id="Trazado_827914" data-name="Trazado 827914" d="M301.821,158.246c1.337,0,2.2.966,2.2,2.913,0,1.461-.462,3.063-2.2,3.063s-2.2-1.6-2.2-3.063C299.617,159.212,300.484,158.246,301.821,158.246Zm0,4.986c.635,0,1-.52,1-2,0-1.238-.272-2-1-2s-1,.76-1,2C300.822,162.712,301.185,163.232,301.821,163.232Zm0,0" transform="translate(-269.093 -149.192)" fill="#607882"/>
        <path id="Trazado_827915" data-name="Trazado 827915" d="M340.771,158.246c1.337,0,2.2.966,2.2,2.913,0,1.461-.462,3.063-2.2,3.063s-2.2-1.6-2.2-3.063C338.566,159.212,339.434,158.246,340.771,158.246Zm0,4.986c.635,0,1-.52,1-2,0-1.238-.272-2-1-2s-1,.76-1,2C339.772,162.712,340.135,163.232,340.771,163.232Zm0,0" transform="translate(-301.34 -149.192)" fill="#607882"/>
        <path id="Trazado_827916" data-name="Trazado 827916" d="M376.7,160.359h-1.065c-.272,0-.421-.1-.421-.437,0-.306.165-.389.594-.471l.305-.067c.916-.2.66-1.139,1.362-1.139.264,0,.479.116.479.561V163.5c0,.429-.165.726-.627.726s-.627-.3-.627-.726Zm0,0" transform="translate(-331.681 -149.192)" fill="#607882"/>
        <path id="Trazado_827917" data-name="Trazado 827917" d="M123.724,212.972h-1.065c-.272,0-.421-.1-.421-.437,0-.306.165-.389.594-.471l.305-.067c.916-.2.661-1.139,1.362-1.139.264,0,.479.116.479.561v4.688c0,.43-.165.727-.627.727s-.627-.3-.627-.727Zm0,0" transform="translate(-122.238 -192.752)" fill="#607882"/>
        <path id="Trazado_827918" data-name="Trazado 827918" d="M155.86,210.859c1.337,0,2.2.966,2.2,2.913,0,1.461-.462,3.063-2.2,3.063s-2.2-1.6-2.2-3.063C153.656,211.825,154.523,210.859,155.86,210.859Zm0,4.985c.635,0,1-.52,1-2,0-1.238-.272-2-1-2s-1,.76-1,2C154.862,215.325,155.225,215.844,155.86,215.844Zm0,0" transform="translate(-148.25 -192.752)" fill="#607882"/>
        <path id="Trazado_827919" data-name="Trazado 827919" d="M191.79,212.972h-1.065c-.273,0-.421-.1-.421-.437,0-.306.165-.389.594-.471L191.2,212c.916-.2.66-1.139,1.362-1.139.264,0,.479.116.479.561v4.688c0,.43-.165.727-.627.727s-.627-.3-.627-.727Zm0,0" transform="translate(-178.592 -192.752)" fill="#607882"/>
        <path id="Trazado_827920" data-name="Trazado 827920" d="M223.926,210.859c1.337,0,2.2.966,2.2,2.913,0,1.461-.462,3.063-2.2,3.063s-2.2-1.6-2.2-3.063C221.723,211.825,222.589,210.859,223.926,210.859Zm0,4.985c.636,0,1-.52,1-2,0-1.238-.272-2-1-2s-1,.76-1,2C222.927,215.325,223.291,215.844,223.926,215.844Zm0,0" transform="translate(-204.603 -192.752)" fill="#607882"/>
        <path id="Trazado_827921" data-name="Trazado 827921" d="M262.875,210.859c1.337,0,2.2.966,2.2,2.913,0,1.461-.462,3.063-2.2,3.063s-2.2-1.6-2.2-3.063C260.672,211.825,261.538,210.859,262.875,210.859Zm0,4.985c.636,0,1-.52,1-2,0-1.238-.272-2-1-2s-1,.76-1,2C261.876,215.325,262.239,215.844,262.875,215.844Zm0,0" transform="translate(-236.85 -192.752)" fill="#607882"/>
        <path id="Trazado_827922" data-name="Trazado 827922" d="M298.8,212.972h-1.065c-.272,0-.421-.1-.421-.437,0-.306.165-.389.594-.471l.306-.067c.916-.2.66-1.139,1.362-1.139.264,0,.479.116.479.561v4.688c0,.43-.165.727-.628.727s-.627-.3-.627-.727Zm0,0" transform="translate(-267.188 -192.752)" fill="#607882"/>
        <path id="Trazado_827923" data-name="Trazado 827923" d="M330.939,210.859c1.337,0,2.2.966,2.2,2.913,0,1.461-.462,3.063-2.2,3.063s-2.2-1.6-2.2-3.063C328.734,211.825,329.6,210.859,330.939,210.859Zm0,4.985c.635,0,1-.52,1-2,0-1.238-.273-2-1-2s-1,.76-1,2C329.94,215.325,330.3,215.844,330.939,215.844Zm0,0" transform="translate(-293.2 -192.752)" fill="#607882"/>
        <path id="Trazado_827924" data-name="Trazado 827924" d="M369.887,210.859c1.338,0,2.2.966,2.2,2.913,0,1.461-.462,3.063-2.2,3.063s-2.2-1.6-2.2-3.063C367.684,211.825,368.55,210.859,369.887,210.859Zm0,4.985c.636,0,1-.52,1-2,0-1.238-.272-2-1-2s-1,.76-1,2C368.889,215.325,369.252,215.844,369.887,215.844Zm0,0" transform="translate(-325.446 -192.752)" fill="#607882"/>
      </g>
      <path id="Trazado_827925" data-name="Trazado 827925" d="M124.372,77.5a2.859,2.859,0,0,0,2.856-2.856V37.707a2.859,2.859,0,0,0-2.856-2.856H61.238a2.859,2.859,0,0,0-2.856,2.856V74.64A2.858,2.858,0,0,0,61.238,77.5ZM60.937,74.64V44.8h44.844a1.277,1.277,0,1,0,0-2.554H60.937V37.707a.3.3,0,0,1,.3-.3h63.134a.3.3,0,0,1,.3.3v4.534H111.857a1.277,1.277,0,1,0,0,2.554h12.816V74.64a.3.3,0,0,1-.3.3H61.238A.3.3,0,0,1,60.937,74.64Zm0,0" transform="translate(-48.336 -28.854)"/>
      <path id="Trazado_827926" data-name="Trazado 827926" d="M86.009,51.939h-1.12V6.327A6.335,6.335,0,0,0,78.561,0H10.377A6.293,6.293,0,0,0,5,3,1.277,1.277,0,1,0,7.167,4.342a3.754,3.754,0,0,1,3.21-1.788H78.561a3.778,3.778,0,0,1,3.774,3.773V51.939h-.37a1.277,1.277,0,0,0,0,2.554h3.588v.52a5.881,5.881,0,0,1-5.874,5.874H8.429a5.881,5.881,0,0,1-5.874-5.874v-.518l73.545.252h0a1.277,1.277,0,0,0,0-2.554L6.6,51.954V9.424a1.277,1.277,0,0,0-2.554,0V51.945L2.1,51.939a2.1,2.1,0,0,0-2.1,2.1v.975a8.438,8.438,0,0,0,8.429,8.429h71.25a8.438,8.438,0,0,0,8.429-8.429v-.975A2.1,2.1,0,0,0,86.009,51.939Zm0,0"/>
      <path id="Trazado_827927" data-name="Trazado 827927" d="M122.659,107.746h1.065v3.137c0,.429.165.726.627.726s.627-.3.627-.726v-4.689c0-.446-.214-.561-.479-.561-.7,0-.446.941-1.362,1.139l-.305.066c-.43.083-.594.165-.594.471C122.238,107.647,122.387,107.746,122.659,107.746Zm0,0" transform="translate(-101.203 -87.455)"/>
      <path id="Trazado_827928" data-name="Trazado 827928" d="M155.86,111.609c1.741,0,2.2-1.6,2.2-3.063,0-1.947-.866-2.913-2.2-2.913s-2.2.966-2.2,2.913C153.656,110.008,154.119,111.609,155.86,111.609Zm0-4.985c.726,0,1,.759,1,2,0,1.478-.363,2-1,2s-1-.52-1-2C154.862,107.383,155.134,106.624,155.86,106.624Zm0,0" transform="translate(-127.214 -87.455)"/>
      <path id="Trazado_827929" data-name="Trazado 827929" d="M194.809,111.609c1.742,0,2.2-1.6,2.2-3.063,0-1.947-.866-2.913-2.2-2.913s-2.2.966-2.2,2.913C192.605,110.008,193.068,111.609,194.809,111.609Zm0-4.985c.727,0,1,.759,1,2,0,1.478-.363,2-1,2s-1-.52-1-2C193.811,107.383,194.083,106.624,194.809,106.624Zm0,0" transform="translate(-159.461 -87.455)"/>
      <path id="Trazado_827930" data-name="Trazado 827930" d="M229.675,107.746h1.065v3.137c0,.429.165.726.627.726s.627-.3.627-.726v-4.689c0-.446-.214-.561-.479-.561-.7,0-.446.941-1.362,1.139l-.305.066c-.43.083-.594.165-.594.471C229.254,107.647,229.4,107.746,229.675,107.746Zm0,0" transform="translate(-189.803 -87.455)"/>
      <path id="Trazado_827931" data-name="Trazado 827931" d="M262.875,111.609c1.742,0,2.2-1.6,2.2-3.063,0-1.947-.866-2.913-2.2-2.913s-2.2.966-2.2,2.913C260.672,110.008,261.134,111.609,262.875,111.609Zm0-4.985c.727,0,1,.759,1,2,0,1.478-.363,2-1,2s-1-.52-1-2C261.876,107.383,262.149,106.624,262.875,106.624Zm0,0" transform="translate(-215.814 -87.455)"/>
      <path id="Trazado_827932" data-name="Trazado 827932" d="M297.737,107.746H298.8v3.137c0,.429.165.726.628.726s.627-.3.627-.726v-4.689c0-.446-.215-.561-.479-.561-.7,0-.446.941-1.362,1.139l-.306.066c-.429.083-.594.165-.594.471C297.316,107.647,297.465,107.746,297.737,107.746Zm0,0" transform="translate(-246.153 -87.455)"/>
      <path id="Trazado_827933" data-name="Trazado 827933" d="M330.939,111.609c1.741,0,2.2-1.6,2.2-3.063,0-1.947-.866-2.913-2.2-2.913s-2.2.966-2.2,2.913C328.734,110.008,329.2,111.609,330.939,111.609Zm0-4.985c.726,0,1,.759,1,2,0,1.478-.364,2-1,2s-1-.52-1-2C329.94,107.383,330.212,106.624,330.939,106.624Zm0,0" transform="translate(-272.164 -87.455)"/>
      <path id="Trazado_827934" data-name="Trazado 827934" d="M369.887,111.609c1.742,0,2.2-1.6,2.2-3.063,0-1.947-.866-2.913-2.2-2.913s-2.2.966-2.2,2.913C367.684,110.008,368.146,111.609,369.887,111.609Zm0-4.985c.727,0,1,.759,1,2,0,1.478-.363,2-1,2s-1-.52-1-2C368.889,107.383,369.161,106.624,369.887,106.624Zm0,0" transform="translate(-304.411 -87.455)"/>
      <path id="Trazado_827935" data-name="Trazado 827935" d="M124.539,161.16c0,1.461.462,3.062,2.2,3.062s2.2-1.6,2.2-3.062c0-1.948-.866-2.914-2.2-2.914S124.539,159.212,124.539,161.16Zm3.2.074c0,1.477-.364,2-1,2s-1-.52-1-2c0-1.238.272-2,1-2S127.742,160,127.742,161.234Zm0,0" transform="translate(-103.108 -131.014)"/>
      <path id="Trazado_827936" data-name="Trazado 827936" d="M163.3,164.222c.462,0,.628-.3.628-.726v-4.689c0-.446-.215-.561-.479-.561-.7,0-.446.941-1.362,1.139l-.305.067c-.429.083-.594.165-.594.471,0,.338.149.437.421.437h1.065V163.5C162.673,163.925,162.838,164.222,163.3,164.222Zm0,0" transform="translate(-133.45 -131.014)"/>
      <path id="Trazado_827937" data-name="Trazado 827937" d="M194.809,164.222c1.742,0,2.2-1.6,2.2-3.062,0-1.948-.866-2.914-2.2-2.914s-2.2.966-2.2,2.914C192.605,162.621,193.068,164.222,194.809,164.222Zm0-4.985c.727,0,1,.759,1,2,0,1.477-.363,2-1,2s-1-.52-1-2C193.811,160,194.083,159.237,194.809,159.237Zm0,0" transform="translate(-159.461 -131.014)"/>
      <path id="Trazado_827938" data-name="Trazado 827938" d="M229.675,160.36h1.065V163.5c0,.429.165.726.627.726s.627-.3.627-.726v-4.689c0-.446-.214-.561-.479-.561-.7,0-.446.941-1.362,1.139l-.305.067c-.43.083-.594.165-.594.471C229.254,160.26,229.4,160.36,229.675,160.36Zm0,0" transform="translate(-189.803 -131.014)"/>
      <path id="Trazado_827939" data-name="Trazado 827939" d="M262.875,164.222c1.742,0,2.2-1.6,2.2-3.062,0-1.948-.866-2.914-2.2-2.914s-2.2.966-2.2,2.914C260.672,162.621,261.134,164.222,262.875,164.222Zm0-4.985c.727,0,1,.759,1,2,0,1.477-.363,2-1,2s-1-.52-1-2C261.876,160,262.149,159.237,262.875,159.237Zm0,0" transform="translate(-215.814 -131.014)"/>
      <path id="Trazado_827940" data-name="Trazado 827940" d="M299.617,161.16c0,1.461.462,3.062,2.2,3.062s2.2-1.6,2.2-3.062c0-1.948-.866-2.914-2.2-2.914S299.617,159.212,299.617,161.16Zm3.2.074c0,1.477-.364,2-1,2s-1-.52-1-2c0-1.238.272-2,1-2S302.82,160,302.82,161.234Zm0,0" transform="translate(-248.058 -131.014)"/>
      <path id="Trazado_827941" data-name="Trazado 827941" d="M338.566,161.16c0,1.461.462,3.062,2.2,3.062s2.2-1.6,2.2-3.062c0-1.948-.867-2.914-2.2-2.914S338.566,159.212,338.566,161.16Zm3.2.074c0,1.477-.364,2-1,2s-1-.52-1-2c0-1.238.272-2,1-2S341.769,160,341.769,161.234Zm0,0" transform="translate(-280.304 -131.014)"/>
      <path id="Trazado_827942" data-name="Trazado 827942" d="M377.328,164.222c.462,0,.627-.3.627-.726v-4.689c0-.446-.214-.561-.479-.561-.7,0-.446.941-1.362,1.139l-.305.067c-.43.083-.594.165-.594.471,0,.338.149.437.421.437H376.7V163.5C376.7,163.925,376.866,164.222,377.328,164.222Zm0,0" transform="translate(-310.646 -131.014)"/>
      <path id="Trazado_827943" data-name="Trazado 827943" d="M122.659,212.972h1.065v3.137c0,.43.165.727.627.727s.627-.3.627-.727v-4.688c0-.446-.214-.561-.479-.561-.7,0-.446.941-1.362,1.139l-.305.067c-.43.083-.594.165-.594.471C122.238,212.873,122.387,212.972,122.659,212.972Zm0,0" transform="translate(-101.203 -174.574)"/>
      <path id="Trazado_827944" data-name="Trazado 827944" d="M155.86,216.835c1.741,0,2.2-1.6,2.2-3.063,0-1.947-.866-2.913-2.2-2.913s-2.2.966-2.2,2.913C153.656,215.234,154.119,216.835,155.86,216.835Zm0-4.986c.726,0,1,.76,1,2,0,1.478-.363,2-1,2s-1-.52-1-2C154.862,212.609,155.134,211.85,155.86,211.85Zm0,0" transform="translate(-127.214 -174.574)"/>
      <path id="Trazado_827945" data-name="Trazado 827945" d="M190.725,212.972h1.065v3.137c0,.43.165.727.627.727s.628-.3.628-.727v-4.688c0-.446-.215-.561-.479-.561-.7,0-.446.941-1.362,1.139l-.305.067c-.429.083-.594.165-.594.471C190.3,212.873,190.453,212.972,190.725,212.972Zm0,0" transform="translate(-157.556 -174.574)"/>
      <path id="Trazado_827946" data-name="Trazado 827946" d="M223.926,216.835c1.742,0,2.2-1.6,2.2-3.063,0-1.947-.867-2.913-2.2-2.913s-2.2.966-2.2,2.913C221.723,215.234,222.184,216.835,223.926,216.835Zm0-4.986c.727,0,1,.76,1,2,0,1.478-.363,2-1,2s-1-.52-1-2C222.927,212.609,223.2,211.85,223.926,211.85Zm0,0" transform="translate(-183.568 -174.574)"/>
      <path id="Trazado_827947" data-name="Trazado 827947" d="M262.875,216.835c1.742,0,2.2-1.6,2.2-3.063,0-1.947-.866-2.913-2.2-2.913s-2.2.966-2.2,2.913C260.672,215.234,261.134,216.835,262.875,216.835Zm0-4.986c.727,0,1,.76,1,2,0,1.478-.363,2-1,2s-1-.52-1-2C261.876,212.609,262.149,211.85,262.875,211.85Zm0,0" transform="translate(-215.814 -174.574)"/>
      <path id="Trazado_827948" data-name="Trazado 827948" d="M297.737,212.972H298.8v3.137c0,.43.165.727.628.727s.627-.3.627-.727v-4.688c0-.446-.215-.561-.479-.561-.7,0-.446.941-1.362,1.139l-.306.067c-.429.083-.594.165-.594.471C297.316,212.873,297.465,212.972,297.737,212.972Zm0,0" transform="translate(-246.153 -174.574)"/>
      <path id="Trazado_827949" data-name="Trazado 827949" d="M330.939,216.835c1.741,0,2.2-1.6,2.2-3.063,0-1.947-.866-2.913-2.2-2.913s-2.2.966-2.2,2.913C328.734,215.234,329.2,216.835,330.939,216.835Zm0-4.986c.726,0,1,.76,1,2,0,1.478-.364,2-1,2s-1-.52-1-2C329.94,212.609,330.212,211.85,330.939,211.85Zm0,0" transform="translate(-272.164 -174.574)"/>
      <path id="Trazado_827950" data-name="Trazado 827950" d="M369.887,216.835c1.742,0,2.2-1.6,2.2-3.063,0-1.947-.866-2.913-2.2-2.913s-2.2.966-2.2,2.913C367.684,215.234,368.146,216.835,369.887,216.835Zm0-4.986c.727,0,1,.76,1,2,0,1.478-.363,2-1,2s-1-.52-1-2C368.889,212.609,369.161,211.85,369.887,211.85Zm0,0" transform="translate(-304.411 -174.574)"/>
    </g>
  </g>
</svg>
