<svg xmlns="http://www.w3.org/2000/svg" xmlns:xlink="http://www.w3.org/1999/xlink" width="1328" height="426.505" viewBox="0 0 1328 426.505">
  <defs>
    <linearGradient id="linear-gradient" x1="0.007" y1="0.54" x2="0.994" y2="0.549" gradientUnits="objectBoundingBox">
      <stop offset="0" stop-color="#1682fb"/>
      <stop offset="0.486" stop-color="#1670d5"/>
      <stop offset="1" stop-color="#1682fb"/>
    </linearGradient>
    <clipPath id="clip-path">
      <rect id="Rect치ngulo_382869" data-name="Rect치ngulo 382869" width="1328" height="426.505" fill="url(#linear-gradient)"/>
    </clipPath>
    <clipPath id="clip-path-2">
      <path id="Trazado_818456" data-name="Trazado 818456" d="M17.313,71.164c0,33.262,26.528,60.226,59.251,60.226s59.249-26.964,59.249-60.226S109.287,10.939,76.564,10.939,17.313,37.9,17.313,71.164" transform="translate(-17.313 -10.939)" fill="#add3fd"/>
    </clipPath>
    <clipPath id="clip-path-3">
      <path id="Trazado_818456-2" data-name="Trazado 818456" d="M143.09,74.864c0-35.3-28.157-63.925-62.889-63.925S17.313,39.559,17.313,74.864,45.468,138.787,80.2,138.787s62.889-28.62,62.889-63.923" transform="translate(-17.313 -10.939)" fill="#add3fd"/>
    </clipPath>
  </defs>
  <g id="Grupo_1073832" data-name="Grupo 1073832" transform="translate(-136 -7625)">
    <rect id="Rect치ngulo_382868" data-name="Rect치ngulo 382868" width="1328" height="425.505" transform="translate(136 7625)" fill="url(#linear-gradient)"/>
    <g id="Enmascarar_grupo_146" data-name="Enmascarar grupo 146" transform="translate(136 7625)" clip-path="url(#clip-path)">
      <g id="Grupo_1073623" data-name="Grupo 1073623" transform="translate(-102.047 264.028)">
        <g id="Grupo_1073621" data-name="Grupo 1073621" transform="translate(0 54.467)">
          <ellipse id="Elipse_9778" data-name="Elipse 9778" cx="99.5" cy="101.139" rx="99.5" ry="101.139" transform="translate(0 0)" fill="#dcecfe"/>
        </g>
        <g id="Grupo_1073622" data-name="Grupo 1073622" transform="translate(112.547 0)">
          <g id="Grupo_1071496" data-name="Grupo 1071496" transform="translate(0 0)" clip-path="url(#clip-path-2)">
            <path id="Trazado_818450" data-name="Trazado 818450" d="M131.059,29.383,108.8,6.754,87.837,28.059,66.759,6.634,44.734,29.022,22.946,6.875,3.264,26.881,0,23.564,22.946.241,44.734,22.387,66.759,0,87.837,21.424,108.8.12l22.262,22.629,20.867-21.21,3.265,3.316Z" transform="translate(-23.192 -14.895)" fill="#add3fd"/>
            <path id="Trazado_818451" data-name="Trazado 818451" d="M131.059,46.178,108.8,23.55l-20.959,21.3L66.759,23.429,44.734,45.817,22.946,23.67,3.264,43.678,0,40.36,22.946,17.036,44.734,39.183,66.759,16.8,87.837,38.221l20.959-21.3,22.262,22.628,20.867-21.21,3.265,3.316Z" transform="translate(-23.192 -8.821)" fill="#add3fd"/>
            <path id="Trazado_818452" data-name="Trazado 818452" d="M131.059,62.973,108.8,40.345,87.837,61.65,66.759,40.226,44.734,62.612,22.946,40.465,3.264,60.473,0,57.155,22.946,33.831,44.734,55.978,66.759,33.59,87.837,55.016l20.959-21.3,22.262,22.628,20.867-21.21,3.265,3.317Z" transform="translate(-23.192 -2.747)" fill="#add3fd"/>
            <path id="Trazado_818453" data-name="Trazado 818453" d="M131.059,79.769,108.8,57.14l-20.959,21.3L66.759,57.02,44.734,79.408,22.946,57.26,3.264,77.268,0,73.951,22.946,50.628,44.734,72.775,66.759,50.387,87.837,71.812,108.8,50.506l22.262,22.629,20.867-21.212,3.265,3.317Z" transform="translate(-23.192 3.327)" fill="#add3fd"/>
            <path id="Trazado_818454" data-name="Trazado 818454" d="M131.059,96.564,108.8,73.935,87.837,95.24,66.759,73.816,44.734,96.2,22.946,74.057,3.264,94.064,0,90.748,22.946,67.423,44.734,89.57,66.759,67.182,87.837,88.607,108.8,67.3l22.262,22.629L151.925,68.72l3.265,3.317Z" transform="translate(-23.192 9.4)" fill="#add3fd"/>
            <path id="Trazado_818455" data-name="Trazado 818455" d="M131.059,113.36,108.8,90.732l-20.959,21.3L66.759,90.612,44.734,113,22.946,90.852,3.264,110.86,0,107.541,22.946,84.218l21.788,22.147L66.759,83.977,87.837,105.4,108.8,84.1l22.262,22.628,20.867-21.21,3.265,3.317Z" transform="translate(-23.192 15.474)" fill="#add3fd"/>
          </g>
        </g>
      </g>
      <g id="Grupo_1073624" data-name="Grupo 1073624" transform="translate(1242.385 -10.08)">
        <g id="Grupo_1073622-2" data-name="Grupo 1073622" transform="translate(0 0)">
          <g id="Grupo_1071496-2" data-name="Grupo 1071496" clip-path="url(#clip-path-3)">
            <path id="Trazado_818450-2" data-name="Trazado 818450" d="M25.613,0,49.243,24.018,71.489,1.4,93.861,24.146,117.239.383,140.365,23.89,161.256,2.655l3.464,3.521L140.365,30.931,117.239,7.426,93.861,31.187,71.489,8.447,49.243,31.06,25.613,7.041,3.465,29.554,0,26.035Z" transform="translate(-14.327 112.471)" fill="#add3fd"/>
            <path id="Trazado_818451-2" data-name="Trazado 818451" d="M25.613,16.8,49.243,40.812,71.489,18.2l22.373,22.74,23.378-23.763,23.126,23.507,20.891-21.236,3.464,3.522L140.365,47.726,117.239,24.219,93.861,47.982,71.489,25.241,49.243,47.854,25.613,23.836,3.465,46.349,0,42.83Z" transform="translate(-14.327 71.402)" fill="#add3fd"/>
            <path id="Trazado_818452-2" data-name="Trazado 818452" d="M25.613,33.59,49.243,57.608,71.489,35l22.373,22.74,23.378-23.761L140.365,57.48l20.891-21.236,3.464,3.522L140.365,64.522,117.239,41.015,93.861,64.777,71.489,42.036,49.243,64.649,25.613,40.632,3.465,63.144,0,59.624Z" transform="translate(-14.327 30.334)" fill="#add3fd"/>
            <path id="Trazado_818453-2" data-name="Trazado 818453" d="M25.613,50.387,49.243,74.405,71.489,51.793l22.373,22.74L117.239,50.77l23.126,23.508,20.891-21.236,3.464,3.521L140.365,81.318,117.239,57.811,93.861,81.574,71.489,58.833,49.243,81.446,25.613,57.428,3.465,79.942,0,76.421Z" transform="translate(-14.327 -10.737)" fill="#add3fd"/>
            <path id="Trazado_818454-2" data-name="Trazado 818454" d="M25.613,67.182,49.243,91.2,71.489,68.588l22.373,22.74,23.378-23.763,23.126,23.507,20.891-21.236,3.464,3.521L140.365,98.113,117.239,74.606,93.861,98.369,71.489,75.628,49.243,98.24,25.613,74.222,3.465,96.736,0,93.215Z" transform="translate(-14.327 -51.805)" fill="#add3fd"/>
            <path id="Trazado_818455-2" data-name="Trazado 818455" d="M25.613,83.977l23.629,24.017L71.489,85.382l22.373,22.74L117.239,84.36l23.126,23.507,20.891-21.236,3.464,3.522-24.355,24.756L117.239,91.4,93.861,115.164,71.489,92.423,49.243,115.035,25.613,91.018,3.465,113.531,0,110.01Z" transform="translate(-14.327 -92.874)" fill="#add3fd"/>
          </g>
        </g>
      </g>
    </g>
  </g>
</svg>
